<svg width="174" height="240" viewBox="0 0 174 240" fill="none" xmlns="http://www.w3.org/2000/svg">
<rect width="174" height="240" fill="none"/>
<path d="M100.23 97.7138C99.441 95.5411 100.562 93.1374 102.733 92.345C104.905 91.5526 107.304 92.6716 108.093 94.8443L127.286 147.718L119.423 150.588L100.23 97.7138Z" fill="#333481"/>
<path d="M119.084 150.808L119.083 150.808L100.135 98.6106C100.133 98.6049 100.132 98.5985 100.13 98.5929L119.084 150.808ZM103.112 92.2293C105.693 91.2876 108.545 92.6178 109.483 95.2001L128.433 147.405L127.303 147.816L108.148 95.0469C107.356 92.8671 105.013 91.7026 102.819 92.3463C102.914 92.3045 103.012 92.2656 103.112 92.2293Z" fill="#22235B"/>
<path d="M64.8483 94.8758C65.6971 92.55 68.2717 91.3494 70.599 92.1942C72.9262 93.039 74.1248 95.6093 73.276 97.9351L54.0068 150.737L45.579 147.678L64.8483 94.8758Z" fill="#333481"/>
<path d="M45.8577 161.571C45.8485 161.567 45.8396 161.563 45.8305 161.56L45.8901 161.581C45.8794 161.578 45.8684 161.574 45.8577 161.571ZM71.0983 92.3938C73.5048 93.2672 74.7442 95.9254 73.8666 98.3305L54.6805 150.915L53.6271 150.532L73.0054 97.4215C73.7456 95.3928 72.7724 93.1598 70.8233 92.3041C70.9152 92.3312 71.007 92.3607 71.0983 92.3938Z" fill="#22235B"/>
<path d="M95.0278 89.7495C103.617 90.3338 103.453 93.7088 103.617 94.7026L106.174 156.202C106.357 157.371 105.824 158.522 104.982 158.777C104.872 158.807 104.757 158.825 104.647 158.825H70.7144C69.8497 158.825 69.1449 157.861 69.1411 156.667C69.1411 156.51 69.1526 156.353 69.1792 156.202L69.1714 156.208L71.104 94.896C71.249 93.908 70.4214 89.9458 79.4937 89.7583C79.4826 89.988 79.4831 90.2125 79.4956 90.4429C79.6875 94.3425 83.0154 97.3515 86.9253 97.1538C87.1569 97.1604 87.3893 97.167 87.6274 97.1538C91.5465 96.9693 94.5701 93.655 94.4028 89.7495H95.0278Z" fill="#8F1D80"/>
<path d="M103.344 154.191C105.031 166.033 103.344 225.475 103.344 225.475C103.344 225.475 94.3767 227.76 88.3775 226.173L87.097 180.416L85.4814 226.173C85.4814 226.173 74.4773 228.532 70.0499 224.114C70.0499 224.114 67.9921 164.598 70.6101 154.191L103.344 154.191Z" fill="#FF9800"/>
<g style="mix-blend-mode:multiply">
<path d="M105.458 152.551H72.7155C71.8803 152.551 71.1996 151.657 71.1996 150.562C71.1996 150.429 71.2106 150.301 71.229 150.173L78.2051 100.789C76.7444 106.19 76.623 108.268 76.4905 109.113L69.8934 151.818C69.7278 152.896 70.2613 153.941 71.0818 154.152C71.1775 154.18 71.2806 154.191 71.3799 154.191H104.13C104.881 154.191 105.51 153.463 105.62 152.49C105.569 152.518 105.514 152.54 105.458 152.54V152.551Z" fill="#8F1D80"/>
</g>
<path d="M79.7911 89.7504L77.5157 164.328C77.5157 164.328 65.5901 167.361 62.8237 164.328C62.7802 161.062 68.7815 96.3361 70.4466 93.0433C72.1117 89.7504 72.6139 89.7499 77.2768 89.7502C79.4484 89.732 79.7911 89.7504 79.7911 89.7504Z" fill="#333481"/>
<path d="M94.2824 89.7503L96.7648 164.328C96.7648 164.328 111.574 166.863 112.253 164.328C112.297 161.062 106.141 97.039 103.834 93.0432C101.527 89.0473 100.304 89.8599 97.6588 89.7503C95.4871 89.7321 94.2824 89.7503 94.2824 89.7503Z" fill="#333481"/>
</svg>
