<svg width="174" height="240" viewBox="0 0 174 240" fill="none" xmlns="http://www.w3.org/2000/svg">
<rect width="174" height="240" fill="none"/>
<path d="M62.9322 95.9069C64.0935 92.6931 67.6419 91.0246 70.8577 92.1802C74.0735 93.3357 75.739 96.8777 74.5777 100.091L56.7487 149.43L45.1033 145.245L62.9322 95.9069Z" fill="#2D3285"/>
<path d="M46.4818 161.653C46.4727 161.65 46.4636 161.646 46.4546 161.642L46.5161 161.665C46.5048 161.661 46.4932 161.657 46.4818 161.653ZM71.4923 92.393C74.3991 93.4373 75.9057 96.6392 74.8567 99.5443L56.8357 149.446L55.564 148.988L73.8139 98.4506C74.6986 96.0003 73.5148 93.3108 71.1603 92.2859C71.2712 92.3182 71.3822 92.3535 71.4923 92.393Z" fill="#0E1763"/>
<path d="M99.714 100.518C98.5596 97.335 100.203 93.8139 103.384 92.6538C106.565 91.4936 110.08 93.1338 111.235 96.3171L129.139 145.688L117.619 149.889L99.714 100.518Z" fill="#2D3285"/>
<path d="M103.996 92.4155C106.826 91.383 109.953 92.8416 110.981 95.6733L129.128 145.677L127.889 146.128L109.517 95.5044C108.65 93.1161 106.084 91.8396 103.68 92.5418C103.784 92.4969 103.889 92.4546 103.996 92.4155Z" fill="#0E1763"/>
<path d="M101.885 89.4351C103.542 89.4351 104.885 90.7783 104.885 92.4351V162.619H89.0998V154.38H84.9074V162.619H69.1545V92.4351C69.1546 90.7783 70.4977 89.4351 72.1545 89.4351H79.5715C79.5612 89.6538 79.5613 89.8678 79.5734 90.0874C79.7651 93.8977 83.0902 96.8373 86.9973 96.644C87.2286 96.6505 87.4604 96.6569 87.6984 96.644C91.606 96.4644 94.6216 93.2402 94.4689 89.4351H101.885Z" fill="#FF8191"/>
<path d="M65.9567 144.553V170.202H83.8805C83.8805 167.519 84.5787 165.636 87.0086 165.636C89.4385 165.636 89.9063 167.519 89.9063 170.197L107.911 170.202V139.897H65.9567V144.553Z" fill="#32B8DE"/>
<path d="M65.9436 150.25C70.9828 148.907 74.6485 145.074 75.4962 140.343C75.6139 139.661 76.7442 139.955 76.6186 140.63C75.7081 145.734 71.6421 149.869 66.2183 151.298C66.1163 151.326 66.0299 151.326 65.9436 151.312V150.257V150.25Z" fill="white"/>
<path d="M84.6993 140.316C84.7149 142.058 84.7461 143.8 84.7981 145.542C84.8449 147.091 84.8657 148.661 85.0528 150.206C85.2192 151.578 86.1291 152.665 87.5798 152.727C88.4845 152.764 89.3477 152.405 89.8521 151.63C90.3304 150.897 90.294 150.06 90.3148 149.223C90.3824 146.238 90.4292 143.249 90.2576 140.269C90.2316 139.775 89.4569 139.77 89.4829 140.269C89.618 142.656 89.6129 145.053 89.5713 147.445C89.5609 148.012 89.5504 148.578 89.5348 149.145C89.5244 149.597 89.5608 150.081 89.4672 150.528C89.3217 151.235 88.8329 151.797 88.105 151.927C87.247 152.078 86.488 151.781 86.0824 151.012C85.9056 150.674 85.838 150.377 85.7964 150.003C85.6456 148.578 85.6144 147.138 85.5676 145.708C85.5104 143.909 85.4792 142.11 85.4636 140.311C85.4636 139.812 84.6889 139.812 84.6889 140.311L84.6993 140.316Z" fill="white"/>
<path d="M61.8472 137.424L67.4367 112.385C67.4731 112.204 67.4626 112.007 67.4002 111.831L65.258 106.268C64.6757 104.473 64.6861 100.711 66.5216 98.7139L68.9956 92.0763C69.3772 90.4794 70.0288 89.6869 72.5793 89.2918C74.8767 88.7872 77.9595 89.1361 77.9595 89.1361C78.2195 88.9747 80.4979 93.4137 81.3558 95.2644C83.2484 99.3492 83.5084 100.055 83.42 103.348C83.1497 113.333 81.3246 133.823 77.9189 139.431C75.6831 143.515 66.6619 143.682 62.2839 139.597C61.5976 138.513 61.7328 137.993 61.8472 137.419V137.424Z" fill="#2D3285"/>
<path d="M70.7594 95.8712C70.7022 94.9887 71.3781 95.6898 71.6485 96.4462C72.7924 99.6586 75.4389 104.026 79.9365 103.577C81.2884 103.446 81.3664 104.742 80.3057 105.155C77.6384 106.189 76.9208 110.672 77.7787 112.422C78.7979 114.5 80.7945 116.341 82.0008 118.317C82.6871 119.442 81.4444 120.214 80.6697 119.15C78.0335 115.509 74.0558 109.876 78.3923 104.792C74.4822 103.753 70.983 99.5173 70.7594 95.8763V95.8712Z" fill="#0E1763"/>
<path d="M67.5672 113.3L67.6867 113.361C68.3575 114.652 67.6191 124.152 64.2758 128.318V128.207L67.5463 113.542C67.5619 113.461 67.5619 113.381 67.5619 113.295L67.5672 113.3Z" fill="#0E1763"/>
<path d="M65.9436 161.763L83.9436 161.781V223.384C83.9436 228.329 79.9187 232.329 74.9436 232.329C69.9685 232.329 65.9436 228.329 65.9436 223.384V161.763Z" fill="#32B8DE"/>
<path d="M75.3032 232.329C74.8197 232.329 74.3363 232.29 73.8605 232.202C78.0273 231.488 81.0814 227.757 81.066 223.384V170.808L83.9436 170.808V223.384C83.9436 228.329 80.0761 232.329 75.2955 232.329H75.3032Z" fill="#00A5E0"/>
<path d="M89.911 161.763L108.181 161.763V223.396C108.181 228.334 104.096 232.329 99.0461 232.329C93.9963 232.329 89.911 228.334 89.911 223.396V161.763Z" fill="#32B8DE"/>
<path d="M99.3131 232.33C98.8166 232.33 98.3201 232.291 97.8315 232.208C102.111 231.521 105.247 227.936 105.231 223.733V139.285H108.187V223.733C108.187 228.485 104.215 232.33 99.3052 232.33H99.3131Z" fill="#00A5E0"/>
<path d="M83.873 223.65V216.086H65.9484V223.65C65.9484 229.591 69.9589 232.329 74.9133 232.329C79.8677 232.329 83.8782 228.446 83.8782 223.65H83.873Z" fill="#F6F6F6"/>
<path d="M81.0689 224.275C81.0689 227.629 78.7635 230.801 74.8711 232.329C79.2718 232.329 83.9484 229.291 83.9484 225.188V216.086L81.0689 216.115V224.305V224.275Z" fill="#00BAE7"/>
<path d="M107.928 223.65V216.086H89.9484V223.65C89.9484 229.031 93.9712 232.329 98.9408 232.329C104.937 232.329 107.933 229.157 107.933 223.65H107.928Z" fill="#F6F6F6"/>
<path d="M105.039 224.275C105.039 227.629 102.989 230.801 99.2888 232.329C104.249 232.329 107.917 229.288 107.917 225.186L107.917 216.086H105.039V224.275Z" fill="#00BAE7"/>
<path d="M108.187 150.341C103.862 149.114 100.717 145.608 99.9892 141.282C99.8882 140.658 98.9183 140.927 99.026 141.544C99.8074 146.212 103.296 149.993 107.951 151.3C108.038 151.326 108.112 151.326 108.187 151.313V150.348V150.341Z" fill="white"/>
<path d="M112.553 138.055L106.964 113.017C106.927 112.835 106.938 112.639 107 112.462L109.142 106.9C109.725 105.105 109.714 101.342 107.879 99.3455L105.048 92.2345C104.809 91.9824 104.738 89.648 102.085 88.9695C100.087 88.7102 96.4713 89.0959 96.4713 89.0959C96.2113 88.9346 93.1567 93.8749 92.2987 95.7256C90.4061 99.8104 90.8921 100.687 90.9805 103.98C91.2508 113.965 93.0759 134.455 96.4816 140.062C98.7174 144.147 107.739 144.314 112.117 140.229C112.803 139.144 112.668 138.625 112.553 138.05V138.055Z" fill="#2D3285"/>
<path d="M103.641 95.0525C103.698 94.1425 103.022 94.8653 102.752 95.6453C101.608 98.9574 98.9616 103.46 94.464 102.997C93.1121 102.862 93.0341 104.199 94.0948 104.625C96.7622 105.691 97.4797 110.313 96.6218 112.117C95.6027 114.26 93.606 116.157 92.3997 118.196C91.7134 119.355 92.9561 120.151 93.7309 119.054C96.367 115.3 100.345 109.492 96.0083 104.251C99.9183 103.179 103.418 98.8117 103.641 95.0577V95.0525Z" fill="#0E1763"/>
<path d="M106.833 113.022L106.714 113.085C106.043 114.416 106.781 124.212 110.125 128.507V128.392L106.854 113.272C106.839 113.189 106.839 113.105 106.839 113.017L106.833 113.022Z" fill="#0E1763"/>
</svg>
