<svg width="174" height="240" viewBox="0 0 174 240" fill="none" xmlns="http://www.w3.org/2000/svg">
<rect width="174" height="240" fill="none"/>
<path d="M62.6457 96.1818C63.807 92.968 67.3554 91.2995 70.5712 92.4551C73.787 93.6106 75.4525 97.1526 74.2912 100.366L56.4622 149.705L44.8168 145.52L62.6457 96.1818Z" fill="#333481"/>
<path d="M46.1953 161.928C46.1862 161.925 46.1771 161.921 46.1681 161.917L46.2296 161.94C46.2183 161.936 46.2067 161.932 46.1953 161.928ZM71.2058 92.6679C74.1126 93.7122 75.6192 96.9141 74.5702 99.8192L56.5492 149.721L55.2775 149.263L73.5274 98.7256C74.4121 96.2752 73.2283 93.5857 70.8738 92.5608C70.9847 92.5931 71.0957 92.6284 71.2058 92.6679Z" fill="#22235B"/>
<path d="M99.5677 100.688C98.4132 97.5049 100.056 93.9838 103.238 92.8237C106.419 91.6635 109.934 93.3037 111.088 96.487L128.993 145.858L117.472 150.059L99.5677 100.688Z" fill="#333481"/>
<path d="M103.85 92.5854C106.68 91.5529 109.807 93.0115 110.834 95.8432L128.981 145.847L127.742 146.297L109.371 95.6743C108.504 93.286 105.938 92.0095 103.534 92.7118C103.637 92.6668 103.743 92.6245 103.85 92.5854Z" fill="#22235B"/>
<path d="M95.0279 89.4604C104.649 89.4605 104.485 93.4198 104.649 94.4136L106.174 155.913C106.357 157.082 105.824 158.233 104.982 158.488C104.872 158.518 104.757 158.536 104.647 158.536H70.7144C69.8497 158.536 69.145 157.572 69.1412 156.378C69.1412 156.221 69.1527 156.064 69.1793 155.913L69.1714 155.918L70.3804 94.4136C70.526 93.4218 70.3864 89.6187 79.5982 89.4673C79.587 89.6977 79.5877 89.9228 79.6002 90.1538C79.792 94.0536 83.1197 97.0627 87.0298 96.8647C87.2614 96.8713 87.4929 96.8779 87.731 96.8647C91.6503 96.6805 94.6747 93.3661 94.5074 89.4604H95.0279Z" fill="#8F1D80"/>
<path d="M108.09 153.902C112.415 169.456 109.151 224.71 109.151 224.71C109.151 224.71 95.5769 227.471 89.5776 225.884L87.0748 180.73L84.4977 225.884C84.4977 225.884 68.754 227.801 64.3266 223.383C64.3266 223.383 61.9625 168.697 66.5089 153.902L108.09 153.902Z" fill="#FF9800"/>
<g style="mix-blend-mode:multiply">
<path d="M107.764 152.262H69.2991C68.3179 152.262 67.5182 151.368 67.5182 150.273C67.5182 150.14 67.5312 150.012 67.5528 149.884L75.748 100.5C74.032 105.901 73.8894 107.979 73.7338 108.824L65.9838 151.529C65.7893 152.607 66.416 153.652 67.3799 153.863C67.4923 153.891 67.6133 153.902 67.73 153.902H106.204C107.085 153.902 107.824 153.174 107.954 152.201C107.894 152.229 107.829 152.251 107.764 152.251V152.262Z" fill="#8F1D80"/>
</g>
<path d="M79.881 89.3645L76.413 163.942C76.413 163.942 57.7778 167.208 57.7342 163.942C57.6907 160.676 68.3728 96.2813 69.3439 92.6574C70.315 89.0335 71.6693 89.3644 78.0567 89.3645C80.2284 89.3463 79.881 89.3645 79.881 89.3645Z" fill="#333481"/>
<path d="M94.9087 89.4612L98.3766 164.039C98.3766 164.039 116.927 167.061 116.971 163.795C117.014 160.529 107.753 96.7499 105.446 92.7541C103.139 88.7582 102.457 89.4612 96.7329 89.4612C94.5613 89.443 94.9087 89.4612 94.9087 89.4612Z" fill="#333481"/>
</svg>
