<svg width="174" height="240" viewBox="0 0 174 240" fill="none" xmlns="http://www.w3.org/2000/svg">
<rect width="174" height="240" fill="transparent"/>
<path d="M71.0174 144.553V170.202L85.2458 168.59C85.3223 168.876 85.1684 165.318 87.0214 165.318C88.8743 165.318 88.8477 168.59 88.8477 168.59L103.01 170.202V139.897H71.0174V144.553Z" fill="#32B8DE"/>
<path d="M71.0175 164.383L85.2566 164.383V225.124C85.2566 228.925 82.0727 232 78.137 232C74.2014 232 71.0175 228.925 71.0175 225.124V164.383Z" fill="#32B8DE"/>
<path d="M78.1364 232.001C77.7384 232.001 77.3404 231.969 76.9487 231.9C80.379 231.335 82.8933 228.384 82.8807 224.925V169.373L85.2496 169.373V224.925C85.2496 228.836 82.0657 232.001 78.1301 232.001H78.1364Z" fill="#00A5E0"/>
<path d="M88.7783 162.419L103.017 162.419V224.925C103.017 228.836 99.8335 232.001 95.8978 232.001C91.9622 232.001 88.7783 228.836 88.7783 224.925V162.419Z" fill="#32B8DE"/>
<path d="M95.8972 232.001C95.4992 232.001 95.1012 231.969 94.7095 231.9C98.1398 231.335 100.654 228.384 100.641 224.925L100.667 139.583L103.01 139.583V224.925C103.01 228.836 99.8265 232.001 95.8909 232.001H95.8972Z" fill="#00A5E0"/>
<path d="M100.245 97.8466C99.4561 95.6739 100.577 93.2702 102.748 92.4778C104.92 91.6854 107.319 92.8044 108.108 94.9771L127.301 147.851L119.438 150.721L100.245 97.8466Z" fill="#2D3285"/>
<path d="M119.099 150.941L119.098 150.941L100.15 98.7435C100.148 98.7378 100.147 98.7314 100.145 98.7257L119.099 150.941ZM103.127 92.3621C105.708 91.4204 108.56 92.7506 109.498 95.3329L128.448 147.538L127.318 147.949L108.163 95.1797C107.371 92.9999 105.028 91.8354 102.834 92.4792C102.93 92.4373 103.027 92.3984 103.127 92.3621Z" fill="#0E1763"/>
<path d="M64.7171 94.6614C65.5658 92.3356 68.1405 91.135 70.4678 91.9799C72.795 92.8247 73.9936 95.3949 73.1448 97.7208L53.8755 150.523L45.4478 147.463L64.7171 94.6614Z" fill="#2D3285"/>
<path d="M45.7264 161.356C45.7172 161.353 45.7084 161.349 45.6992 161.345L45.7589 161.367C45.7482 161.363 45.7371 161.36 45.7264 161.356ZM70.9671 92.1794C73.3736 93.0529 74.6129 95.7111 73.7354 98.1161L54.5493 150.701L53.4958 150.317L72.8742 97.2072C73.6143 95.1784 72.6411 92.9455 70.6921 92.0897C70.784 92.1168 70.8758 92.1463 70.9671 92.1794Z" fill="#0E1763"/>
<path fill-rule="evenodd" clip-rule="evenodd" d="M98.9822 89.7422C102.411 89.7423 105.142 92.6114 104.974 96.0361L102.823 139.987H70.9724L69.7263 95.9121C69.6308 92.5333 72.3442 89.7422 75.7244 89.7422H79.9695C79.9593 89.9609 79.9593 90.1749 79.9714 90.3945C80.1632 94.2049 83.4881 97.1446 87.3953 96.9512C87.6267 96.9576 87.8584 96.9641 88.0964 96.9512C92.0039 96.7714 95.0196 93.5472 94.8669 89.7422H98.9822Z" fill="#FF8191"/>
<path d="M85.2638 223.496V216.086H71.0174V224.61C71.0174 230.43 74.2049 232 78.1427 232C82.0805 232 85.268 229.309 85.268 224.61L85.2638 223.496Z" fill="#F6F6F6"/>
<path d="M82.9514 224.109C82.9514 227.395 80.9358 230.502 77.6974 232C82.2866 232 85.2496 229.023 85.2496 225.004V216.086H82.9452V224.109H82.9514Z" fill="#00BAE7"/>
<path d="M71.0175 147.411C74.616 146.439 77.2337 143.663 77.839 140.236C77.9231 139.742 78.7302 139.955 78.6405 140.444C77.9903 144.141 75.0868 147.136 71.2136 148.171C71.1408 148.191 71.0791 148.191 71.0175 148.181V147.417V147.411Z" fill="white"/>
<path d="M102.677 147.411C99.3388 146.439 96.9105 143.663 96.349 140.236C96.271 139.742 95.5223 139.955 95.6055 140.444C96.2086 144.141 98.902 147.136 102.495 148.171C102.562 148.191 102.62 148.191 102.677 148.181V147.417V147.411Z" fill="white"/>
<path d="M84.154 140.316C84.1696 142.058 84.2008 143.8 84.2528 145.542C84.2996 147.091 84.3204 148.661 84.5076 150.206C84.6739 151.578 85.5839 152.665 87.0345 152.727C87.9392 152.764 88.8024 152.405 89.3068 151.63C89.7851 150.897 89.7487 150.06 89.7695 149.223C89.8371 146.238 89.8839 143.249 89.7123 140.269C89.6863 139.775 88.9116 139.77 88.9376 140.269C89.0728 142.656 89.0676 145.053 89.026 147.445C89.0156 148.012 89.0052 148.578 88.9896 149.145C88.9792 149.597 89.0155 150.081 88.922 150.528C88.7764 151.235 88.2876 151.797 87.5597 151.927C86.7018 152.078 85.9427 151.781 85.5371 151.012C85.3603 150.674 85.2927 150.377 85.2511 150.003C85.1003 148.578 85.0691 147.138 85.0223 145.708C84.9651 143.909 84.9339 142.11 84.9183 140.311C84.9183 139.812 84.1436 139.812 84.1436 140.311L84.154 140.316Z" fill="white"/>
<path d="M62.9153 138.05L67.4541 113.017C67.4905 112.835 67.4801 112.639 67.4177 112.462L66.1694 106.871C65.5871 105.076 65.3142 101.21 67.1497 99.2129L69.9065 93.9748C70.4349 92.3291 71.1504 90.7658 72.9625 90.0195C74.847 89.3757 78.8965 89.722 78.8965 89.722C79.1565 89.5607 80.5153 94.0453 81.3732 95.8961C83.2659 99.9809 83.5259 100.687 83.4375 103.98C83.1671 113.965 81.342 134.455 77.9364 140.062C75.7006 144.147 68.8983 144.037 63.9884 141.203C62.9153 140.363 62.7832 139.835 62.9153 138.05Z" fill="#2D3285"/>
<path d="M70.7768 96.5026C70.7196 95.6201 71.3956 96.3211 71.6659 97.0775C72.8098 100.29 75.4564 104.657 79.954 104.208C81.3058 104.077 81.3839 105.373 80.3232 105.787C77.6558 106.821 76.9383 111.304 77.7962 113.054C78.8153 115.131 80.8119 116.972 82.0182 118.949C82.7046 120.073 81.4618 120.845 80.6871 119.781C78.0509 116.14 74.0733 110.507 78.4097 105.424C74.4997 104.385 71.0004 100.149 70.7768 96.5076V96.5026Z" fill="#0E1763"/>
<path d="M67.9578 113.873L68.0789 113.93C68.7836 115.203 68.2968 124.72 65.0649 128.973L65.062 128.862L67.9434 114.116C67.9568 114.035 67.9547 113.954 67.9525 113.868L67.9578 113.873Z" fill="#0E1763"/>
<path d="M103.013 223.65V216.086H88.7782L88.7782 224.564C88.7782 229.945 91.9632 232.329 95.8978 232.329C100.645 232.329 103.017 230.071 103.017 224.564L103.013 223.65Z" fill="#F6F6F6"/>
<path d="M100.697 224.275C100.697 227.629 98.6726 230.8 95.4207 232.329C100.875 232.329 103.004 229.288 103.004 225.185L103.004 216.086H100.69V224.275H100.697Z" fill="#00BAE7"/>
<path d="M111.487 138.709L106.981 113.017C106.945 112.835 106.955 112.639 107.018 112.462L109.16 106.9C109.742 105.104 109.16 101.894 107.896 99.3454L104.585 92.0799C104.345 91.8277 103.338 90.494 101.147 89.8926C99.1555 89.3457 96.4585 89.7676 96.4585 89.7676C96.1985 89.6063 93.9201 94.0452 93.0622 95.896C91.1696 99.9808 90.9095 100.687 90.9979 103.98C91.2683 113.965 93.0934 134.454 96.4991 140.062C98.7349 144.147 104.576 144.781 109.562 141.301C110.735 140.482 111.601 139.284 111.487 138.709Z" fill="#2D3285"/>
<path d="M103.659 95.0525C103.716 94.1425 103.04 94.8653 102.769 95.6453C101.626 98.9574 98.9791 103.46 94.4815 102.997C93.1296 102.862 93.0516 104.199 94.1123 104.625C96.7796 105.691 97.4971 110.313 96.6392 112.117C95.6201 114.26 93.6235 116.157 92.4172 118.196C91.7309 119.355 92.9736 120.151 93.7483 119.054C96.3845 115.3 100.362 109.492 96.0257 104.251C99.9358 103.179 103.435 98.8117 103.659 95.0577V95.0525Z" fill="#0E1763"/>
<path d="M105.628 113.489L105.508 113.551C104.837 114.882 105.576 124.678 108.919 128.973V128.858L105.648 113.738C105.633 113.655 105.633 113.572 105.633 113.483L105.628 113.489Z" fill="#0E1763"/>
</svg>
