<svg width="174" height="240" viewBox="0 0 174 240" fill="none" xmlns="http://www.w3.org/2000/svg">
<rect width="174" height="240" fill="none"/>
<path d="M110.2 95.05C109.324 92.6506 106.668 91.4121 104.267 92.2836C101.866 93.1551 100.63 95.8067 101.506 98.2061L120.449 150.115L129.143 146.959L110.2 95.05Z" fill="#2D3285"/>
<path d="M103.467 92.3204C100.85 93.2704 99.5023 96.1612 100.457 98.7766L119.34 150.52L120.485 150.103L101.394 97.788C100.589 95.5819 101.647 93.1537 103.766 92.223C103.666 92.2525 103.566 92.2844 103.467 92.3204Z" fill="#0E1763"/>
<path d="M65.0256 95.2007C65.8977 92.8109 68.5433 91.5772 70.9346 92.4453C73.326 93.3134 74.5575 95.9544 73.6854 98.3443L54.8061 150.077L46.1463 146.934L65.0256 95.2007Z" fill="#2D3285"/>
<path d="M71.6704 92.7129C74.2874 93.6629 75.6354 96.5536 74.6809 99.169L55.95 150.495L54.8048 150.078L73.7438 98.1804C74.549 95.974 73.4903 93.5456 71.3703 92.6151C71.4706 92.6446 71.5708 92.6767 71.6704 92.7129Z" fill="#0E1763"/>
<path d="M99.787 89.7422C102.548 89.7422 104.787 91.9809 104.787 94.7422V162.926H89.0019V154.688H84.8095V162.926H69.0565V94.7422C69.0566 91.9808 71.2952 89.7422 74.0565 89.7422H79.4735C79.4633 89.9609 79.4633 90.1749 79.4755 90.3945C79.6672 94.2048 82.9923 97.1444 86.8993 96.9512C87.1307 96.9576 87.3625 96.9641 87.6005 96.9512C91.5081 96.7715 94.5236 93.5473 94.371 89.7422H99.787Z" fill="#FF8191"/>
<path d="M76.2706 231.924C71.9918 231.924 68.5201 227.925 68.5201 222.986V149.095C68.5201 144.161 71.9873 140.157 76.2706 140.157C80.5494 140.157 84.2917 144.301 84.2917 149.236L84.0166 222.981C84.0166 227.915 80.5494 231.919 76.2661 231.919L76.2706 231.924Z" fill="#00BBE1"/>
<path d="M84.7598 223.65V216.086H68.5V223.65C68.5 229.591 72.138 232.329 76.6323 232.329C81.1266 232.329 84.7645 228.446 84.7645 223.65H84.7598Z" fill="#F6F6F6"/>
<path d="M82.8782 216.087H84.828V152.392C84.828 152.392 83.5593 154.134 83.3878 157.358C82.5402 173.178 82.8834 216.087 82.8834 216.087H82.8782Z" fill="#00A5E0"/>
<path d="M82.3224 224.275C82.3224 227.629 80.1249 230.801 76.594 232.329C80.5859 232.329 84.8281 229.291 84.8281 225.188V216.086H82.3157V224.275H82.3224Z" fill="#00BAE7"/>
<path d="M97.5829 232.148C93.3115 232.148 89.3297 228.149 89.3297 223.21L89.658 149.562C89.658 144.628 93.307 139.924 97.5829 139.924C101.854 139.924 105.617 144.094 105.617 149.033L105.32 223.21C105.32 228.144 101.859 232.148 97.5829 232.148Z" fill="#00BBE1"/>
<path d="M68.5201 144.553V170.202H81.7842C81.7842 167.519 84.6415 165.304 86.7833 165.304C88.9251 165.304 91.9269 167.519 91.9269 170.197L105.5 170.202V139.897H68.5201V144.553Z" fill="#00BBE1"/>
<path d="M68.5201 147.411C72.1186 146.439 74.7362 143.663 75.3416 140.236C75.4257 139.742 76.2328 139.955 76.1431 140.444C75.4929 144.141 72.5894 147.136 68.7162 148.171C68.6434 148.191 68.5817 148.191 68.5201 148.181V147.417V147.411Z" fill="white"/>
<path d="M105.617 147.353C102.279 146.381 99.8509 143.604 99.2894 140.178C99.2114 139.684 98.4627 139.897 98.5459 140.386C99.149 144.083 101.842 147.078 105.435 148.112C105.503 148.133 105.56 148.133 105.617 148.123V147.359V147.353Z" fill="white"/>
<path d="M84.2211 140.316C84.2367 142.058 84.2679 143.8 84.3199 145.542C84.3667 147.091 84.3875 148.661 84.5746 150.206C84.741 151.578 85.6509 152.665 87.1016 152.727C88.0063 152.764 88.8695 152.405 89.3739 151.63C89.8522 150.897 89.8158 150.06 89.8366 149.223C89.9042 146.238 89.951 143.249 89.7794 140.269C89.7534 139.775 88.9786 139.77 89.0046 140.269C89.1398 142.656 89.1347 145.053 89.0931 147.445C89.0827 148.012 89.0722 148.578 89.0566 149.145C89.0462 149.597 89.0826 150.081 88.989 150.528C88.8434 151.235 88.3547 151.797 87.6268 151.927C86.7688 152.078 86.0098 151.781 85.6042 151.012C85.4274 150.674 85.3598 150.377 85.3182 150.003C85.1674 148.578 85.1362 147.138 85.0894 145.708C85.0322 143.909 85.001 142.11 84.9854 140.311C84.9854 139.812 84.2107 139.812 84.2107 140.311L84.2211 140.316Z" fill="white"/>
<path d="M112.075 138.055L106.486 113.017C106.449 112.835 106.46 112.639 106.522 112.462L108.664 106.9C109.247 105.105 109.236 101.342 107.401 99.3455L104.624 92.7509C104.384 92.4987 103.375 90.4839 101.278 89.7676C99.3931 89.1238 95.9628 89.7677 95.9628 89.7677C95.7028 89.6063 93.4244 94.0453 92.5665 95.8961C90.6739 99.9808 90.4138 100.687 90.5022 103.98C90.7726 113.965 92.5977 134.455 96.0034 140.062C98.2392 144.147 107.26 144.314 111.638 140.229C112.325 139.144 112.189 138.625 112.075 138.05V138.055Z" fill="#2D3285"/>
<path d="M103.163 95.0525C103.22 94.1425 102.544 94.8653 102.274 95.6453C101.13 98.9574 98.4834 103.46 93.9858 102.997C92.6339 102.862 92.5559 104.199 93.6166 104.625C96.2839 105.691 97.0014 110.313 96.1435 112.117C95.1244 114.26 93.1278 116.157 91.9215 118.196C91.2352 119.355 92.4779 120.151 93.2526 119.054C95.8888 115.3 99.8664 109.492 95.53 104.251C99.4401 103.179 102.939 98.8117 103.163 95.0577V95.0525Z" fill="#0E1763"/>
<path d="M106.355 113.022L106.236 113.085C105.565 114.416 106.303 124.212 109.646 128.507V128.392L106.376 113.272C106.36 113.189 106.36 113.105 106.36 113.017L106.355 113.022Z" fill="#0E1763"/>
<path d="M61.3689 138.055L66.9584 113.017C66.9948 112.835 66.9844 112.639 66.922 112.462L64.7798 106.9C64.1975 105.104 64.2079 101.342 66.0433 99.3454L68.9155 94.0248C69.4439 92.3791 70.2277 90.6789 72.3252 89.9625C74.2097 89.3187 77.4812 89.7676 77.4812 89.7676C77.7412 89.6062 80.0196 94.0452 80.8775 95.8959C82.7702 99.9807 83.0302 100.687 82.9418 103.98C82.6714 113.965 80.8463 134.454 77.4407 140.062C75.2049 144.147 66.1837 144.313 61.8057 140.229C61.1194 139.144 61.2546 138.625 61.3689 138.05V138.055Z" fill="#2D3285"/>
<path d="M70.2811 96.5026C70.2239 95.6201 70.8999 96.3211 71.1702 97.0775C72.3141 100.29 74.9607 104.657 79.4583 104.208C80.8101 104.077 80.8882 105.373 79.8275 105.787C77.1601 106.821 76.4426 111.304 77.3005 113.054C78.3196 115.131 80.3162 116.972 81.5225 118.949C82.2089 120.073 80.9661 120.845 80.1914 119.781C77.5553 116.14 73.5776 110.507 77.914 105.424C74.004 104.385 70.5047 100.149 70.2811 96.5076V96.5026Z" fill="#0E1763"/>
<path d="M67.0889 113.931L67.2085 113.992C67.8792 115.283 67.1409 124.784 63.7976 128.949V128.838L67.0681 114.173C67.0837 114.093 67.0837 114.012 67.0837 113.926L67.0889 113.931Z" fill="#0E1763"/>
<path d="M105.495 223.65V216.086H89.3297V223.65C89.3297 229.031 92.9467 232.329 97.4149 232.329C102.806 232.329 105.5 229.157 105.5 223.65H105.495Z" fill="#F6F6F6"/>
<path d="M103.125 224.275C103.125 227.629 101.054 230.801 97.7278 232.329C102.187 232.329 105.485 229.288 105.485 225.186L105.485 216.086H103.118V224.275H103.125Z" fill="#00BAE7"/>
<path d="M103.107 216.087H105.5V151.363C105.5 151.363 103.717 163.21 103.576 165.392C102.396 183.728 103.107 216.087 103.107 216.087Z" fill="#00A5E0"/>
</svg>
