<svg width="174" height="240" viewBox="0 0 174 240" fill="none" xmlns="http://www.w3.org/2000/svg">
<rect width="174" height="240" fill="none"/>
<path d="M100.262 97.712C99.4102 95.3648 100.621 92.7679 102.967 91.9119C105.313 91.0558 107.905 92.2647 108.757 94.6119L129.954 153.004L121.459 156.104L100.262 97.712Z" fill="#333481"/>
<path d="M103.671 91.8155C106.288 90.8605 109.18 92.2098 110.131 94.8287L131.071 152.516L129.926 152.933L108.777 94.6729C107.975 92.4637 105.601 91.2835 103.378 91.9334C103.473 91.8917 103.571 91.8517 103.671 91.8155Z" fill="#22235B"/>
<path d="M64.8539 94.7602C65.7894 92.1968 68.6272 90.8735 71.1922 91.8046C73.7573 92.7358 75.0783 95.5687 74.1428 98.1322L53.027 155.994L43.7381 152.622L64.8539 94.7602Z" fill="#333481"/>
<path d="M71.7616 92.0118C74.3802 92.9627 75.7295 95.8558 74.7744 98.473L53.6506 156.356L52.5044 155.939L73.8376 97.4835C74.6431 95.2759 73.5831 92.8459 71.4624 91.9144C71.5622 91.9438 71.6624 91.9759 71.7616 92.0118Z" fill="#22235B"/>
<path d="M94.5497 89.7495C104.171 89.7496 104.007 93.7088 104.171 94.7026L105.696 156.202C105.879 157.371 105.345 158.522 104.504 158.777C104.393 158.807 104.279 158.825 104.169 158.825H70.2362C69.3715 158.825 68.6668 157.861 68.663 156.667C68.663 156.51 68.6745 156.353 68.701 156.202L68.6932 156.208L69.9022 94.7026C70.0502 93.6945 69.9035 89.7806 79.5819 89.7505C79.5704 89.9829 79.5703 90.2099 79.5829 90.4429C79.7748 94.3426 83.1035 97.3518 87.0135 97.1538C87.245 97.1604 87.4767 97.167 87.7147 97.1538C91.6338 96.9694 94.6574 93.6551 94.4901 89.7495H94.5497Z" fill="#8F1D80"/>
<path d="M105.648 154.191C107.336 166.033 106.061 224.999 106.061 224.999C106.061 224.999 95.0986 227.76 89.0994 226.173L87.1199 180.579L85.0032 226.173C85.0032 226.173 72.0652 228.09 67.6378 223.672C67.6378 223.672 65.7717 164.598 68.3897 154.191L105.648 154.191Z" fill="#FF9800"/>
<g style="mix-blend-mode:multiply">
<path d="M104.98 152.551H72.2374C71.4021 152.551 70.7215 151.657 70.7215 150.562C70.7215 150.429 70.7325 150.301 70.7509 150.173L77.727 100.789C76.2663 106.19 76.1448 108.268 76.0124 109.113L69.4153 151.818C69.2497 152.896 69.7832 153.941 70.6037 154.152C70.6994 154.18 70.8024 154.191 70.9018 154.191H103.652C104.403 154.191 105.032 153.463 105.142 152.49C105.091 152.518 105.035 152.54 104.98 152.54V152.551Z" fill="#8F1D80"/>
</g>
<path d="M79.5696 89.7501L76.1017 164.328C76.1017 164.328 58.4619 167.594 58.4184 164.328C58.3748 161.062 66.8547 96.8151 69.0325 93.043C71.2104 89.2709 72.0214 89.7501 77.7454 89.7501C79.917 89.732 79.5696 89.7501 79.5696 89.7501Z" fill="#333481"/>
<path d="M94.4305 89.7503L97.8984 164.328C97.8984 164.328 115.538 167.594 115.582 164.328C115.625 161.062 107.275 97.039 104.968 93.0431C102.66 89.0472 101.979 89.7503 96.2547 89.7503C94.0831 89.7321 94.4305 89.7503 94.4305 89.7503Z" fill="#333481"/>
</svg>
