<svg width="174" height="240" viewBox="0 0 174 240" fill="none" xmlns="http://www.w3.org/2000/svg">
<rect width="174" height="240" fill="none"/>
<path d="M100.628 85.1191C121.359 88.8064 126.062 116.097 131.709 136.324C93.2291 175.516 56.0639 152.654 42.291 136.324C55.6708 101.311 65.5168 88.8668 74.7314 85.7041C76.8769 86.5703 79.1347 87.2188 81.4775 87.6162V89.7354H79.6514C79.6383 89.9781 79.6382 90.2152 79.6514 90.458C79.8424 94.3403 83.1469 97.3366 87.0293 97.1396C87.2589 97.1462 87.4894 97.1527 87.7256 97.1396C91.6276 96.9555 94.6375 93.6373 94.4541 89.7354H92.5811V87.6064C95.4034 87.1224 98.1014 86.2753 100.628 85.1191Z" fill="#049BC6"/>
<path d="M100.478 98.4839C99.6057 96.0816 100.845 93.4241 103.246 92.548C105.646 91.6718 108.299 92.909 109.171 95.3112L127.62 146.133L118.926 149.306L100.478 98.4839Z" fill="#FFDF00"/>
<path d="M103.953 92.3314C106.523 91.3936 109.364 92.7186 110.297 95.29L128.619 145.763L127.493 146.173L108.968 95.1379C108.18 92.9671 105.846 91.8078 103.661 92.4491C103.756 92.4073 103.854 92.3676 103.953 92.3314Z" fill="#E89627"/>
<path d="M65.0833 95.2149C65.9325 92.8879 68.5085 91.6867 70.8369 92.5319C73.1653 93.3771 74.3645 95.9487 73.5153 98.2757L54.947 149.157L46.515 146.096L65.0833 95.2149Z" fill="#FFDF00"/>
<path d="M71.5203 92.7814C74.0921 93.715 75.4171 96.555 74.4793 99.1252L56.0713 149.567L54.9453 149.157L73.5586 98.1541C74.3504 95.9843 73.3076 93.5962 71.2215 92.683C71.3214 92.7123 71.4212 92.7454 71.5203 92.7814Z" fill="#E89627"/>
<path d="M100.621 89.7422C102.857 90.0167 104.382 91.6488 104.459 94.6182L110.215 158.747C110.392 160.644 109.54 162.407 108.311 162.68C108.203 162.703 108.096 162.714 107.989 162.714H65.8441C64.6038 162.721 63.5901 161.174 63.5862 159.254C63.5862 159.139 63.5864 159.023 63.598 158.908L67.4837 96.0322H67.4759C67.6986 92.465 69.6342 89.7424 71.9534 89.7422H79.5901C79.5837 89.9343 79.5836 90.1237 79.5941 90.3174C79.7825 94.1471 83.0511 97.1026 86.8909 96.9082C87.1182 96.9147 87.3456 96.9212 87.5794 96.9082C91.3928 96.7289 94.3414 93.5316 94.2357 89.7422H100.621Z" fill="#FFDF00"/>
<path d="M93.7023 110.508C93.6382 110.361 93.534 110.234 93.4016 110.143C93.2693 110.052 93.114 109.999 92.9533 109.992H89.0103L90.1037 105.911C90.1385 105.783 90.1434 105.649 90.1181 105.519C90.0927 105.389 90.0377 105.267 89.9574 105.162C89.8772 105.058 89.7742 104.973 89.6563 104.915C89.5384 104.857 89.4087 104.827 89.2772 104.826H83.2508C83.0565 104.82 82.8656 104.879 82.7092 104.995C82.5529 105.11 82.4404 105.275 82.3899 105.463L80.0827 114.072C80.0478 114.2 80.0429 114.334 80.0683 114.464C80.0937 114.594 80.1487 114.716 80.229 114.821C80.3101 114.927 80.4145 115.012 80.534 115.07C80.6535 115.128 80.7848 115.158 80.9178 115.157H84.2495L82.6912 120.96C82.6402 121.147 82.6538 121.346 82.7299 121.524C82.806 121.703 82.9401 121.85 83.1105 121.943C83.2808 122.035 83.4775 122.068 83.6686 122.035C83.8597 122.002 84.0341 121.905 84.1634 121.76L93.5474 111.429C93.6591 111.307 93.7332 111.155 93.7606 110.992C93.7881 110.828 93.7679 110.66 93.7023 110.508ZM85.274 117.981L86.1952 114.537C86.23 114.41 86.2349 114.276 86.2095 114.146C86.1841 114.016 86.1291 113.894 86.0488 113.788C85.9686 113.684 85.8656 113.6 85.7477 113.542C85.6298 113.483 85.5002 113.453 85.3687 113.453H82.0628L83.9051 106.548H88.1494L87.0561 110.629C87.021 110.759 87.0169 110.895 87.0441 111.027C87.0713 111.159 87.1292 111.283 87.2129 111.388C87.2966 111.494 87.404 111.578 87.5262 111.635C87.6485 111.691 87.7824 111.718 87.917 111.714H90.9904L85.274 117.981Z" fill="#333481"/>
<path d="M68.5885 161.101H84.4999V224.696C84.4999 228.911 80.9408 232.329 76.5421 232.329C72.1476 232.329 68.5843 228.915 68.5843 224.696V161.101H68.5885Z" fill="#891E83"/>
<path d="M89.7543 161.101H105.48V224.696C105.48 228.911 101.962 232.329 97.6151 232.329C93.2718 232.329 89.7501 228.915 89.7501 224.696V161.101H89.7543Z" fill="#891E83"/>
<path d="M77.1423 232.325C76.7322 232.325 76.3221 232.29 75.916 232.224C79.4648 231.646 82.0593 228.62 82.0475 225.086V164.745H84.5V225.086C84.5 229.086 81.2076 232.329 77.1383 232.329L77.1423 232.325Z" fill="#503983"/>
<path d="M98.2024 232.325C97.7971 232.325 97.3918 232.29 96.9904 232.224C100.498 231.646 103.066 228.621 103.05 225.088V162.728H105.474V225.088C105.474 229.087 102.22 232.329 98.1985 232.329L98.2024 232.325Z" fill="#503983"/>
<path d="M74.4619 159.259V171.339H84.4613C84.4613 171.347 84.5381 171.339 84.4613 171.339C84.4613 169.811 85.5826 168.548 87.061 168.548C88.5394 168.548 89.7376 169.788 89.7376 171.313V171.339H99.7369V159.259H74.4619Z" fill="#891E83"/>
<path d="M107.988 162.713H65.8442C64.6038 162.725 63.5901 161.174 63.5862 159.257C63.5862 159.135 63.5863 159.015 63.5978 158.893L67.4839 96.0354C67.6375 93.5509 68.6436 91.3813 70.1181 90.3599C69.9146 91.0587 69.7879 91.7999 69.7418 92.564L65.848 155.437C65.7251 157.345 66.6237 159.05 67.8602 159.242C67.937 159.254 68.0176 159.261 68.0944 159.261H110.239C110.239 161.181 109.233 162.736 107.988 162.736V162.717V162.713Z" fill="#E89627"/>
<path d="M87.33 9.79102C93.4657 10.304 99.3044 13.1179 104.563 17.0381C106.916 14.3676 110.377 11.7493 114.863 11.0879C115.851 14.3336 116.837 20.9751 115.009 26.8887C120.297 32.961 124.377 39.3973 126.707 43.9219C132.696 59.0249 117.919 78.2074 109.781 85.9111C114.989 90.3382 132.566 117.703 140.703 130.831C142.205 136.436 136.503 140.364 131.212 145.189C123.64 132.725 114.321 106.049 104.573 98.9316C96.6647 93.1576 88.9171 93.1022 86.9999 92.8936C85.0824 93.1022 77.3357 93.158 69.4277 98.9316C59.6797 106.049 50.3599 132.725 42.788 145.189C37.497 140.364 31.7954 136.436 33.2968 130.831C41.4342 117.703 59.0117 90.338 64.2197 85.9111C56.0822 78.2076 41.3047 59.0251 47.2939 43.9219C52.8688 33.0937 68.4645 11.3127 86.6708 9.79102V9.74414C86.7806 9.75033 86.8903 9.75795 86.9999 9.76562C87.1098 9.75794 87.22 9.75034 87.33 9.74414V9.79102ZM86.9999 25.4287C79.79 26.7626 64.1693 33.2322 56.7333 49.1299C54.4642 58.5309 57.3959 80.2557 86.9999 92.5225C116.604 80.2557 119.537 58.531 117.268 49.1299C109.831 33.232 94.2098 26.7625 86.9999 25.4287Z" fill="#32B8DE"/>
</svg>
