<svg width="174" height="240" viewBox="0 0 174 240" fill="none" xmlns="http://www.w3.org/2000/svg">
<rect width="174" height="240" fill="none"/>
<path d="M104.266 82.8291C118.247 93.5723 128.366 119.795 133.25 137.288C94.7701 176.48 55.0962 154.881 41.3232 138.551C52.5974 109.048 61.8685 91.705 70.1787 83.46C73.5401 85.4252 77.2819 86.8116 81.2686 87.4766V89.375H79.3535C79.3404 89.6178 79.3404 89.8548 79.3535 90.0977C79.5443 93.9801 82.849 96.976 86.7314 96.7793C86.9612 96.7859 87.1915 96.7924 87.4277 96.7793C91.3301 96.5953 94.3399 93.2773 94.1562 89.375H92.5205V87.4121C96.7774 86.6498 100.749 85.0645 104.266 82.8291Z" fill="#049BC6"/>
<path d="M65.8312 159.258V171.339L83.8248 171.331C83.8248 169.803 84.2952 168.547 86.7498 168.547C89.2045 168.547 89.8005 169.788 89.8005 171.312L107.796 171.339V159.258H65.8312Z" fill="#891E83"/>
<path d="M62.974 96.359C64.1318 93.1895 67.6414 91.5541 70.8129 92.7062C73.9845 93.8583 75.617 97.3616 74.4592 100.531L56.4328 149.88L44.9476 145.708L62.974 96.359Z" fill="#FFDF00"/>
<path d="M71.434 92.9167C74.2553 93.9414 75.7081 97.0572 74.6789 99.8769L56.4319 149.865L55.1976 149.415L73.6691 98.811C74.5371 96.4327 73.3965 93.8149 71.1119 92.8109C71.2195 92.8426 71.3272 92.8779 71.434 92.9167Z" fill="#E89627"/>
<path d="M111.026 96.359C109.868 93.1895 106.359 91.5541 103.187 92.7062C100.016 93.8583 98.3832 97.3616 99.5409 100.531L117.567 149.88L129.053 145.708L111.026 96.359Z" fill="#FFDF00"/>
<path d="M102.566 92.9167C99.7448 93.9414 98.292 97.0572 99.3212 99.8769L117.568 149.865L118.803 149.415L100.331 98.811C99.463 96.4327 100.604 93.8149 102.888 92.8109C102.781 92.8426 102.673 92.8779 102.566 92.9167Z" fill="#E89627"/>
<path d="M100.906 89.4141C104.704 89.4141 104.89 93.1574 104.892 93.2051L113.844 158.785C113.843 158.81 113.825 162.665 108.038 162.665H65.8103C65.8103 162.665 60.8749 162.665 60.8748 158.785C60.8748 158.785 68.6025 105.548 68.6853 101.596C68.7085 100.614 69.2136 93.2051 69.2136 93.2051C69.2139 90.2664 71.46 89.4171 73.1589 89.417C73.1589 89.417 75.3378 89.417 79.488 89.417C79.488 89.6928 79.2521 96.7158 86.9675 96.7158C87.0033 96.7158 94.2869 96.697 94.2869 89.4131C96.1766 89.4132 99.7642 89.414 100.906 89.4141Z" fill="#FFE700"/>
<path d="M65.8229 161.433L83.8229 161.45V223.054C83.8229 227.999 79.798 231.999 74.8229 231.999C69.8477 231.999 65.8229 227.999 65.8229 223.054V161.433Z" fill="#891E83"/>
<path d="M75.1824 231.999C74.699 231.999 74.2156 231.96 73.7398 231.872C77.9066 231.158 80.9606 227.427 80.9453 223.054V170.478L83.8229 170.478V223.054C83.8229 227.999 79.9554 231.999 75.1748 231.999H75.1824Z" fill="#503983"/>
<path d="M89.7903 161.433L107.79 161.433V223.065C107.79 228.004 103.765 231.999 98.7903 231.999C93.8151 231.999 89.7903 228.004 89.7903 223.065V161.433Z" fill="#891E83"/>
<path d="M99.1538 231.999C98.6702 231.999 98.1867 231.961 97.7108 231.877C101.878 231.191 104.933 227.606 104.918 223.403V161.721L107.796 161.721V223.403C107.796 228.155 103.928 231.999 99.1461 231.999H99.1538Z" fill="#503983"/>
<path d="M108.261 162.661C105.193 162.661 65.7373 162.713 65.7373 162.713C63.6368 162.713 60.8755 161.689 60.8755 158.79C60.864 158.913 60.8755 158.667 60.8755 158.79L69.2263 92.9381C69.3799 90.4536 70.943 89.6019 72.879 89.437C71.3884 91.1 71.4344 92.1739 71.3884 92.9381L63.0265 155.909C62.2544 158.79 63.4676 160.309 65.5856 160.309L113.409 160.309C112.836 161.302 111.33 162.661 108.261 162.661Z" fill="#E89627"/>
<path d="M94.149 110.508C94.0849 110.361 93.9807 110.234 93.8483 110.143C93.7159 110.052 93.5606 109.999 93.4 109.992H89.457L90.5504 105.911C90.5852 105.783 90.5901 105.649 90.5647 105.519C90.5394 105.389 90.4844 105.267 90.404 105.162C90.3238 105.058 90.2208 104.973 90.1029 104.915C89.9851 104.857 89.8554 104.827 89.7239 104.826H83.6975C83.5032 104.82 83.3123 104.879 83.1559 104.995C82.9996 105.11 82.8871 105.275 82.8366 105.463L80.5294 114.072C80.4945 114.2 80.4896 114.334 80.515 114.464C80.5404 114.594 80.5954 114.716 80.6757 114.821C80.7568 114.927 80.8612 115.012 80.9807 115.07C81.1002 115.128 81.2315 115.158 81.3644 115.157H84.6962L83.1379 120.96C83.0869 121.147 83.1005 121.346 83.1766 121.524C83.2527 121.703 83.3868 121.85 83.5572 121.943C83.7275 122.035 83.9242 122.068 84.1153 122.035C84.3064 122.002 84.4808 121.905 84.6101 121.76L93.994 111.429C94.1058 111.307 94.1798 111.155 94.2073 110.992C94.2348 110.828 94.2146 110.66 94.149 110.508ZM85.7207 117.981L86.6418 114.537C86.6767 114.41 86.6816 114.276 86.6562 114.146C86.6308 114.016 86.5758 113.894 86.4955 113.788C86.4153 113.684 86.3123 113.6 86.1944 113.542C86.0765 113.483 85.9468 113.453 85.8154 113.453H82.5095L84.3518 106.548H88.5961L87.5028 110.629C87.4677 110.759 87.4636 110.895 87.4908 111.027C87.518 111.159 87.5758 111.283 87.6596 111.388C87.7433 111.494 87.8506 111.578 87.9729 111.635C88.0952 111.691 88.2291 111.718 88.3637 111.714H91.4371L85.7207 117.981Z" fill="#333481"/>
<path d="M87.3293 10.4248C93.4652 10.9376 99.3043 13.7515 104.564 17.6719C106.916 15.0014 110.377 12.383 114.863 11.7217C115.851 14.9673 116.837 21.6089 115.009 27.5225C120.297 33.5947 124.377 40.0311 126.706 44.5557C132.695 59.6589 117.918 78.8414 109.78 86.5449C114.988 90.9717 134.766 116.135 142.903 129.264C144.405 134.869 136.503 140.998 131.212 145.823C123.64 133.359 114.32 106.682 104.572 99.5654C96.663 93.7908 88.915 93.7361 86.9992 93.5273C85.0803 93.7359 77.334 93.7924 69.4269 99.5654C59.6791 106.683 50.36 133.359 42.7882 145.823C37.497 140.998 28.9904 135.45 30.4923 129.845C38.6298 116.716 59.0107 90.9721 64.2189 86.5449C56.0814 78.8412 41.3042 59.6586 47.2931 44.5557C52.8679 33.7277 68.464 11.9471 86.6701 10.4248V10.3779C86.7798 10.3841 86.8897 10.3918 86.9992 10.3994C87.1091 10.3917 87.2191 10.3841 87.3293 10.3779V10.4248ZM86.9992 26.0625C79.7889 27.3967 64.1683 33.8665 56.7326 49.7637C54.4635 59.1647 57.3959 80.8895 86.9992 93.1562C116.604 80.8895 119.536 59.1647 117.267 49.7637C109.83 33.8653 94.2087 27.396 86.9992 26.0625Z" fill="#32B8DE"/>
</svg>
