<svg width="174" height="240" viewBox="0 0 174 240" fill="none" xmlns="http://www.w3.org/2000/svg">
<rect width="174" height="240" fill="none"/>
<path d="M101.786 84.5615C121.064 88.356 126.65 116.489 132.187 136.324C93.7073 175.516 56.5422 152.654 42.7693 136.324C55.1972 103.802 65.0193 89.578 73.7058 85.2705C76.1531 86.3573 78.758 87.155 81.4773 87.6162V89.7354H79.6511C79.638 89.9781 79.638 90.2152 79.6511 90.458C79.8421 94.3403 83.1466 97.3366 87.0291 97.1396C87.2588 97.1462 87.4891 97.1528 87.7253 97.1396C91.6275 96.9556 94.6373 93.6374 94.4539 89.7354H92.5808V87.6064C95.8391 87.0477 98.932 86.006 101.786 84.5615Z" fill="#049BC6"/>
<path d="M70.8455 159.674V171.755L85.0392 171.747C85.0392 171.755 85.1364 171.747 85.0392 171.747C85.0392 170.218 84.9221 168.963 86.7934 168.963C88.6648 168.963 88.6118 170.203 88.6118 171.728L102.839 171.755V159.674H70.8455Z" fill="#891E83"/>
<path d="M88.6063 162.419L102.845 162.419V224.925C102.845 228.836 99.6616 232.001 95.7259 232.001C91.7902 232.001 88.6063 228.836 88.6063 224.925V162.419Z" fill="#891E83"/>
<path d="M95.7252 232.001C95.3273 232.001 94.9293 231.969 94.5376 231.9C97.9679 231.335 100.482 228.384 100.47 224.925L100.495 163.122L102.839 163.122V224.925C102.839 228.836 99.6546 232.001 95.7189 232.001H95.7252Z" fill="#503983"/>
<path d="M70.8455 164.383L85.0847 164.383V225.124C85.0847 228.925 81.9008 232 77.9651 232C74.0294 232 70.8455 228.925 70.8455 225.124V164.383Z" fill="#891E83"/>
<path d="M77.9644 232C77.5665 232 77.1685 231.969 76.7768 231.9C80.2071 231.335 82.7214 228.384 82.7087 224.925V172.25L85.0777 172.25V224.925C85.0777 228.836 81.8938 232 77.9581 232H77.9644Z" fill="#503983"/>
<path d="M99.2685 89.7368C101.504 90.0114 102.917 90.9895 102.995 93.9585L104.939 159.685C104.939 161.656 104.237 162.617 103.137 162.955L102.911 163.014L70.9111 163.129C69.6708 163.137 68.9022 161.572 68.8984 159.652L70.5488 94.9067C70.7715 91.3394 72.4218 89.7368 74.7411 89.7368H79.997C79.9857 89.9652 79.9856 90.1886 79.998 90.4175C80.1866 94.247 83.4551 97.2017 87.2949 97.0073C87.5221 97.0138 87.7496 97.0203 87.9833 97.0073C91.8317 96.8263 94.8013 93.5718 94.6376 89.7368H99.2685Z" fill="#FFDF00"/>
<path d="M87.5024 118.194C89.233 118.194 90.6359 116.791 90.6359 115.06C90.6359 113.33 89.233 111.927 87.5024 111.927C85.7719 111.927 84.369 113.33 84.369 115.06C84.369 116.791 85.7719 118.194 87.5024 118.194Z" fill="#FFDF00"/>
<path d="M102.888 163.148L70.6427 163.129C69.6845 163.141 68.9013 161.589 68.8984 159.673C68.8984 159.55 68.8984 159.431 68.9073 159.308L70.5653 96.4615C70.684 93.977 70.5653 93.3857 71.2716 92.0928C71.1144 92.7917 72.0113 93.3802 71.9757 94.1444L70.6457 155.852C70.5508 157.761 70.8833 160.815 71.8386 161.007H104.793C104.597 162.028 103.849 163.148 102.888 163.148Z" fill="#E89627"/>
<path d="M100.152 97.8466C99.3629 95.6739 100.484 93.2702 102.655 92.4778C104.827 91.6854 107.226 92.8044 108.015 94.9771L126.699 146.448L118.836 149.318L100.152 97.8466Z" fill="#FFDF00"/>
<path d="M103.034 92.3623C105.615 91.4206 108.468 92.7508 109.405 95.3332L127.805 146.02L126.674 146.431L108.07 95.18C107.279 93.0001 104.935 91.8357 102.741 92.4794C102.837 92.4375 102.935 92.3986 103.034 92.3623Z" fill="#E89627"/>
<path d="M64.7156 94.8753C65.5644 92.5495 68.1391 91.3489 70.4663 92.1937C72.7936 93.0385 73.9921 95.6088 73.1433 97.9346L54.5687 148.833L46.1409 145.774L64.7156 94.8753Z" fill="#FFDF00"/>
<path d="M70.9663 92.3928C73.3729 93.2662 74.6122 95.9244 73.7347 98.3295L55.2205 149.071L54.1679 148.688L72.8735 97.4206C73.6136 95.3918 72.6404 93.1588 70.6914 92.3031C70.7832 92.3302 70.8751 92.3597 70.9663 92.3928Z" fill="#E89627"/>
<path d="M95.149 110.508C95.0849 110.361 94.9807 110.234 94.8483 110.143C94.7159 110.052 94.5606 109.999 94.4 109.992H90.457L91.5504 105.911C91.5852 105.783 91.5901 105.649 91.5647 105.519C91.5394 105.389 91.4844 105.267 91.404 105.162C91.3238 105.058 91.2208 104.973 91.1029 104.915C90.9851 104.857 90.8554 104.827 90.7239 104.826H84.6975C84.5032 104.82 84.3123 104.879 84.1559 104.995C83.9996 105.11 83.8871 105.275 83.8366 105.463L81.5294 114.072C81.4945 114.2 81.4896 114.334 81.515 114.464C81.5404 114.594 81.5954 114.716 81.6757 114.821C81.7568 114.927 81.8612 115.012 81.9807 115.07C82.1002 115.128 82.2315 115.158 82.3644 115.157H85.6962L84.1379 120.96C84.0869 121.147 84.1005 121.346 84.1766 121.524C84.2527 121.703 84.3868 121.85 84.5572 121.943C84.7275 122.035 84.9242 122.068 85.1153 122.035C85.3064 122.002 85.4808 121.905 85.6101 121.76L94.994 111.429C95.1058 111.307 95.1798 111.155 95.2073 110.992C95.2348 110.828 95.2146 110.66 95.149 110.508ZM86.7207 117.981L87.6418 114.537C87.6767 114.41 87.6816 114.276 87.6562 114.146C87.6308 114.016 87.5758 113.894 87.4955 113.788C87.4153 113.684 87.3123 113.6 87.1944 113.542C87.0765 113.483 86.9468 113.453 86.8154 113.453H83.5095L85.3518 106.548H89.5961L88.5028 110.629C88.4677 110.759 88.4636 110.895 88.4908 111.027C88.518 111.159 88.5758 111.283 88.6596 111.388C88.7433 111.494 88.8506 111.578 88.9729 111.635C89.0952 111.691 89.2291 111.718 89.3637 111.714H92.4371L86.7207 117.981Z" fill="#333481"/>
<path d="M87.8083 9.79102C93.9439 10.304 99.7827 13.1179 105.042 17.0381C107.394 14.3676 110.855 11.7493 115.341 11.0879C116.329 14.3336 117.315 20.9751 115.487 26.8887C120.775 32.961 124.856 39.3973 127.185 43.9219C133.174 59.0251 118.396 78.2076 110.258 85.9111C115.466 90.3379 131.712 118.895 139.849 132.023C141.351 137.629 136.981 140.364 131.69 145.189C124.118 132.725 114.799 106.049 105.051 98.9316C97.1431 93.1577 89.3955 93.1022 87.4782 92.8936C85.5607 93.1022 77.814 93.1579 69.9059 98.9316C60.158 106.049 50.8382 132.725 43.2663 145.189C37.9752 140.364 33.8552 138.018 35.3571 132.412C43.4946 119.284 59.49 90.3379 64.6979 85.9111C56.5605 78.2076 41.7829 59.0251 47.7722 43.9219C53.347 33.0937 68.9427 11.3127 87.1491 9.79102V9.74414C87.2589 9.75033 87.3686 9.75795 87.4782 9.76562C87.588 9.75794 87.6983 9.75034 87.8083 9.74414V9.79102ZM87.4782 25.4287C80.2683 26.7626 64.6476 33.2322 57.2116 49.1299C54.9425 58.5309 57.8741 80.2557 87.4782 92.5225C117.082 80.2557 120.015 58.531 117.746 49.1299C110.31 33.2321 94.6881 26.7626 87.4782 25.4287Z" fill="#32B8DE"/>
</svg>
