<svg width="174" height="240" viewBox="0 0 174 240" fill="none" xmlns="http://www.w3.org/2000/svg">
<rect width="174" height="240" fill="none"/>
<path d="M100.536 89.4133C103.616 89.4136 104.791 91.1287 105.02 93.3284L120.933 182.853C120.932 185.76 118.775 185.914 117.985 185.914L55.0391 185.984C53.99 185.984 51.9796 185.984 51.9796 183.448L69.2784 93.4563C69.4371 91.3746 70.778 89.4133 73.5616 89.4133H79.5919C79.5888 89.5748 79.5898 89.7353 79.5987 89.8987C79.7892 93.7714 83.0946 96.7603 86.9776 96.5637C87.2075 96.5703 87.4374 96.5768 87.6739 96.5637C91.4978 96.3839 94.4621 93.203 94.4073 89.4133H100.536Z" fill="#8F1D80"/>
<g filter="url(#filter0_d_1474_112133)">
<path d="M100.692 107.158C101.093 105.625 99.3769 104.434 98.7275 104.045C98.8404 103.401 99.0946 101.289 97.7472 100.509C96.4075 99.7332 94.7204 100.992 94.2107 101.419C94.1668 101.392 94.1151 101.36 94.0563 101.326C93.3835 100.937 91.6935 100.152 90.5348 101.275C89.296 102.475 90.0273 104.348 90.3055 104.939C89.8317 105.38 88.4656 106.824 89.0288 108.36C89.1837 108.783 89.4701 109.118 89.8806 109.356C90.7651 109.868 91.9888 109.785 92.4531 109.73C92.6711 110.143 93.2936 111.203 94.184 111.719C94.5505 111.931 94.9247 112.029 95.2967 112.01C96.812 111.931 97.4728 109.816 97.6382 109.176C98.266 109.089 100.29 108.694 100.692 107.158Z" fill="#32B8DE"/>
<path fill-rule="evenodd" clip-rule="evenodd" d="M94.9052 105.854C94.9052 105.854 95.7138 107.651 94.9827 107.765C94.2511 107.879 94.6623 105.88 94.6623 105.88C94.6623 105.88 93.1017 107.198 92.8738 106.544C92.6457 105.891 94.5638 105.656 94.5638 105.656C94.5638 105.656 92.8109 104.626 93.3802 104.156C93.9494 103.686 94.7442 105.493 94.7442 105.493C94.7442 105.493 95.1709 103.536 95.802 103.901C96.4331 104.266 94.9556 105.615 94.9556 105.615C94.9556 105.615 96.9036 105.398 96.7922 106.131C96.6814 106.865 94.9052 105.854 94.9052 105.854Z" fill="white"/>
</g>
<defs>
<filter id="filter0_d_1474_112133" x="88.8949" y="100.262" width="11.8572" height="13.7503" filterUnits="userSpaceOnUse" color-interpolation-filters="sRGB">
<feFlood flood-opacity="0" result="BackgroundImageFix"/>
<feColorMatrix in="SourceAlpha" type="matrix" values="0 0 0 0 0 0 0 0 0 0 0 0 0 0 0 0 0 0 127 0" result="hardAlpha"/>
<feOffset dy="2"/>
<feColorMatrix type="matrix" values="0 0 0 0 0 0 0 0 0 0 0 0 0 0 0 0 0 0 0.2 0"/>
<feBlend mode="normal" in2="BackgroundImageFix" result="effect1_dropShadow_1474_112133"/>
<feBlend mode="normal" in="SourceGraphic" in2="effect1_dropShadow_1474_112133" result="shape"/>
</filter>
</defs>
</svg>
