<svg width="174" height="240" viewBox="0 0 174 240" fill="none" xmlns="http://www.w3.org/2000/svg">
<rect width="174" height="240" fill="none"/>
<path d="M100.638 89.7419C100.696 89.7486 107.899 90.5688 109.348 93.0779C110.517 95.1042 111.511 98.3289 111.856 99.5134C113.835 103.193 116.057 111.373 119.137 117.821C116.077 121.571 111.194 124.128 107.1 123.82L104.712 114.925C104.714 114.96 104.973 120.668 104.973 126.441C106.704 136.421 111.557 180.936 111.574 181.092C111.545 181.109 102.773 186.311 88.7168 186.311C72.5955 186.311 61.1481 181.134 61.0547 181.092C61.0742 180.955 66.0053 146.338 69.1084 126.441C69.1084 120.324 69.4409 115.479 69.4453 115.415L66.6084 123.282C61.431 123.095 57.3104 120.759 55.6182 117.081C58.4944 111.132 61.2059 103.52 63.25 99.8503C63.5311 99.0841 65.1322 94.7796 66.4541 92.49C67.9017 89.9828 72.9235 89.7442 72.9717 89.7419L80.8525 89.8093C80.8487 89.9564 80.8494 90.1021 80.8574 90.2507C81.0156 93.4649 83.7588 95.9451 86.9814 95.782C87.1723 95.7874 87.3633 95.7929 87.5596 95.782C90.7472 95.6321 93.2144 92.9699 93.1465 89.8064L100.638 89.7419Z" fill="#ED1D87"/>
<path d="M104.947 126.185C94.1528 128.639 79.847 128.9 69.0564 126.446C69.0728 124.972 69.1348 123.296 69.1872 121.826C79.896 124.401 94.2411 124.506 104.947 121.93C104.999 123.4 104.93 124.708 104.947 126.185Z" fill="#513996"/>
<path d="M93.3412 177.889C93.3412 178.965 94.2118 179.841 95.2886 179.841C96.3653 179.841 97.2359 178.968 97.2359 177.889C97.2359 176.809 96.3653 175.937 95.2886 175.937C94.2118 175.937 93.3412 176.809 93.3412 177.889Z" fill="#FBA819"/>
<path d="M93.587 175.376C93.587 176.281 94.3168 177.013 95.2202 177.013C96.1235 177.013 96.8533 176.281 96.8533 175.376C96.8533 174.47 96.1235 173.739 95.2202 173.739C94.3168 173.739 93.587 174.47 93.587 175.376Z" fill="#FBA819"/>
<path d="M93.587 179.841C93.587 180.747 94.3168 181.479 95.2202 181.479C96.1235 181.479 96.8533 180.747 96.8533 179.841C96.8533 178.936 96.1235 178.204 95.2202 178.204C94.3168 178.204 93.587 178.936 93.587 179.841Z" fill="#FBA819"/>
<path d="M92.9942 179.247C93.8975 179.247 94.6274 178.516 94.6274 177.61C94.6274 176.705 93.8975 175.973 92.9942 175.973C92.0909 175.973 91.3611 176.705 91.3611 177.61C91.3611 178.516 92.0909 179.247 92.9942 179.247Z" fill="#FBA819"/>
<path d="M97.445 179.247C98.3484 179.247 99.0782 178.516 99.0782 177.61C99.0782 176.705 98.3484 175.973 97.445 175.973C96.5417 175.973 95.8119 176.705 95.8119 177.61C95.8119 178.516 96.5417 179.247 97.445 179.247Z" fill="#FBA819"/>
<path d="M94.3 177.607C94.3 178.115 94.7124 178.529 95.2197 178.529C95.727 178.529 96.1394 178.115 96.1394 177.607C96.1394 177.098 95.727 176.685 95.2197 176.685C94.7124 176.685 94.3 177.098 94.3 177.607Z" fill="white"/>
<path d="M99.3768 169.775C99.9528 170.687 101.154 170.956 102.064 170.379C102.974 169.801 103.242 168.597 102.666 167.685C102.09 166.773 100.889 166.504 99.979 167.081C99.0692 167.659 98.8008 168.863 99.3768 169.775Z" fill="#FBA819"/>
<path d="M98.2441 167.518C98.7252 168.282 99.7333 168.508 100.499 168.026C101.262 167.544 101.488 166.533 101.006 165.765C100.525 165.001 99.5173 164.774 98.7514 165.257C97.9889 165.739 97.763 166.75 98.2441 167.518Z" fill="#FBA819"/>
<path d="M100.624 171.294C101.105 172.059 102.113 172.285 102.879 171.803C103.641 171.32 103.867 170.31 103.386 169.542C102.905 168.778 101.897 168.551 101.131 169.033C100.368 169.516 100.142 170.526 100.624 171.294Z" fill="#FBA819"/>
<path d="M99.8051 171.107C100.568 170.625 100.793 169.614 100.312 168.846C99.8313 168.082 98.8233 167.855 98.0574 168.338C97.2948 168.82 97.069 169.831 97.5501 170.598C98.0312 171.363 99.0393 171.589 99.8051 171.107Z" fill="#FBA819"/>
<path d="M103.569 168.722C104.332 168.239 104.557 167.229 104.076 166.461C103.595 165.696 102.587 165.47 101.821 165.952C101.059 166.435 100.833 167.445 101.314 168.213C101.795 168.978 102.803 169.204 103.569 168.722Z" fill="#FBA819"/>
<path d="M100.037 169.024C100.309 169.453 100.875 169.581 101.304 169.309C101.733 169.037 101.86 168.469 101.589 168.039C101.317 167.609 100.751 167.481 100.322 167.754C99.8934 168.026 99.7657 168.594 100.037 169.024Z" fill="white"/>
<path d="M90.5752 163.843C90.1857 164.85 90.6832 165.979 91.688 166.369C92.6927 166.76 93.8186 166.261 94.2081 165.254C94.5976 164.246 94.1001 163.118 93.0953 162.727C92.0905 162.337 90.9647 162.836 90.5752 163.843Z" fill="#FBA819"/>
<path d="M91.7116 161.589C91.3843 162.432 91.8032 163.38 92.6443 163.708C93.4854 164.036 94.4313 163.616 94.7586 162.773C95.0859 161.93 94.6669 160.982 93.8258 160.653C92.9847 160.325 92.0389 160.745 91.7116 161.589Z" fill="#FBA819"/>
<path d="M90.1012 165.752C89.7739 166.596 90.1928 167.544 91.0339 167.872C91.8751 168.2 92.8209 167.78 93.1482 166.937C93.4755 166.094 93.0566 165.145 92.2154 164.817C91.3743 164.489 90.4285 164.909 90.1012 165.752Z" fill="#FBA819"/>
<path d="M89.7608 164.984C90.6019 165.313 91.5478 164.893 91.8751 164.049C92.2024 163.206 91.7835 162.258 90.9423 161.93C90.1012 161.602 89.1553 162.022 88.8281 162.865C88.5008 163.708 88.9197 164.656 89.7608 164.984Z" fill="#FBA819"/>
<path d="M93.9141 166.599C94.7552 166.927 95.701 166.507 96.0283 165.663C96.3556 164.82 95.9367 163.872 95.0956 163.544C94.2544 163.216 93.3086 163.636 92.9813 164.479C92.654 165.322 93.0729 166.27 93.9141 166.599Z" fill="#FBA819"/>
<path d="M91.5707 163.931C91.3874 164.407 91.623 164.938 92.0943 165.122C92.5689 165.306 93.0991 165.07 93.2824 164.597C93.4656 164.121 93.23 163.59 92.7587 163.406C92.2841 163.222 91.7539 163.459 91.5707 163.931Z" fill="white"/>
<path d="M95.5828 155.358C95.969 156.365 97.0949 156.867 98.0996 156.483C99.1044 156.096 99.6084 154.967 99.2222 153.96C98.836 152.953 97.7102 152.448 96.7054 152.835C95.7006 153.222 95.1966 154.351 95.5828 155.358Z" fill="#FBA819"/>
<path d="M94.9153 152.923C95.2361 153.766 96.1819 154.19 97.0231 153.865C97.8642 153.54 98.2864 152.595 97.9656 151.752C97.6449 150.909 96.699 150.485 95.8579 150.81C95.0168 151.135 94.5946 152.08 94.9153 152.923Z" fill="#FBA819"/>
<path d="M96.509 157.094C96.8297 157.937 97.7756 158.36 98.6167 158.035C99.4578 157.71 99.88 156.765 99.5593 155.922C99.2386 155.079 98.2927 154.656 97.4516 154.981C96.6104 155.305 96.1882 156.25 96.509 157.094Z" fill="#FBA819"/>
<path d="M95.7434 156.749C96.5845 156.428 97.0067 155.479 96.686 154.636C96.3652 153.793 95.4194 153.37 94.5783 153.694C93.7371 154.019 93.3149 154.964 93.6357 155.808C93.9564 156.651 94.9023 157.074 95.7434 156.749Z" fill="#FBA819"/>
<path d="M99.9002 155.154C100.741 154.833 101.164 153.885 100.843 153.041C100.522 152.198 99.5762 151.775 98.7351 152.1C97.8939 152.425 97.4717 153.37 97.7925 154.213C98.1132 155.056 99.0591 155.479 99.9002 155.154Z" fill="#FBA819"/>
<path d="M96.378 154.751C96.5613 155.227 97.0915 155.463 97.5628 155.283C98.0373 155.099 98.273 154.571 98.093 154.095C97.9097 153.619 97.3828 153.383 96.9082 153.563C96.4336 153.747 96.198 154.275 96.378 154.751Z" fill="white"/>
<path d="M95.1381 133.443C95.5243 134.451 96.6501 134.956 97.6549 134.569C98.6597 134.182 99.1637 133.053 98.7775 132.046C98.3913 131.038 97.2655 130.536 96.2607 130.92C95.2559 131.307 94.7519 132.436 95.1381 133.443Z" fill="#FBA819"/>
<path d="M94.467 131.012C94.7878 131.855 95.7337 132.279 96.5748 131.954C97.4159 131.629 97.8381 130.684 97.5174 129.841C97.1966 128.998 96.2507 128.574 95.4096 128.899C94.5685 129.224 94.1463 130.169 94.467 131.012Z" fill="#FBA819"/>
<path d="M96.0613 135.179C96.3821 136.022 97.3279 136.446 98.169 136.121C99.0102 135.796 99.4324 134.851 99.1116 134.008C98.7909 133.165 97.845 132.741 97.0039 133.066C96.1628 133.391 95.7406 134.336 96.0613 135.179Z" fill="#FBA819"/>
<path d="M95.2986 134.838C96.1398 134.517 96.562 133.568 96.2412 132.725C95.9205 131.882 94.9747 131.459 94.1335 131.783C93.2924 132.108 92.8702 133.053 93.191 133.896C93.5117 134.74 94.4575 135.163 95.2986 134.838Z" fill="#FBA819"/>
<path d="M99.4558 133.24C100.297 132.918 100.719 131.97 100.398 131.127C100.078 130.284 99.1318 129.861 98.2906 130.185C97.4495 130.51 97.0273 131.455 97.3481 132.298C97.6688 133.142 98.6146 133.565 99.4558 133.24Z" fill="#FBA819"/>
<path d="M95.9331 132.84C96.1164 133.316 96.6433 133.552 97.1179 133.371C97.5924 133.188 97.8281 132.66 97.6481 132.184C97.4648 131.708 96.9379 131.472 96.4633 131.652C95.9887 131.836 95.7531 132.368 95.9331 132.84Z" fill="white"/>
<path d="M91.934 143.52C92.3202 144.527 93.4461 145.033 94.4509 144.645C95.4557 144.258 95.9597 143.129 95.5735 142.122C95.1873 141.115 94.0614 140.61 93.0567 140.997C92.0519 141.384 91.5479 142.513 91.934 143.52Z" fill="#FBA819"/>
<path d="M91.263 141.085C91.5837 141.928 92.5296 142.352 93.3707 142.027C94.2118 141.702 94.634 140.757 94.3133 139.914C93.9925 139.071 93.0467 138.647 92.2056 138.972C91.3645 139.297 90.9423 140.242 91.263 141.085Z" fill="#FBA819"/>
<path d="M92.8573 145.256C93.178 146.099 94.1239 146.522 94.965 146.197C95.8061 145.872 96.2283 144.927 95.9076 144.084C95.5868 143.241 94.641 142.818 93.7999 143.143C92.9588 143.467 92.5366 144.412 92.8573 145.256Z" fill="#FBA819"/>
<path d="M92.0911 144.914C92.9322 144.593 93.3544 143.644 93.0336 142.801C92.7129 141.958 91.7671 141.535 90.926 141.86C90.0848 142.184 89.6626 143.129 89.9834 143.973C90.3041 144.816 91.2499 145.239 92.0911 144.914Z" fill="#FBA819"/>
<path d="M96.2473 143.313C97.0884 142.992 97.5106 142.043 97.1899 141.2C96.8691 140.357 95.9233 139.934 95.0821 140.258C94.241 140.583 93.8188 141.528 94.1396 142.371C94.4603 143.215 95.4062 143.638 96.2473 143.313Z" fill="#FBA819"/>
<path d="M92.7263 142.913C92.9096 143.388 93.4365 143.625 93.9111 143.444C94.3856 143.264 94.6213 142.732 94.4413 142.256C94.258 141.781 93.7311 141.544 93.2565 141.725C92.7819 141.905 92.5463 142.44 92.7263 142.913Z" fill="white"/>
<path d="M95.2003 118.2C95.5865 119.207 96.7124 119.712 97.7172 119.325C98.722 118.938 99.2259 117.809 98.8398 116.802C98.4536 115.795 97.3277 115.293 96.323 115.677C95.3182 116.064 94.8141 117.193 95.2003 118.2Z" fill="#FBA819"/>
<path d="M94.5325 115.765C94.8533 116.608 95.7991 117.032 96.6402 116.707C97.4814 116.382 97.9036 115.437 97.5828 114.594C97.2621 113.75 96.3162 113.327 95.4751 113.652C94.634 113.977 94.2118 114.922 94.5325 115.765Z" fill="#FBA819"/>
<path d="M96.1236 119.935C96.4443 120.778 97.3901 121.202 98.2313 120.877C99.0724 120.552 99.4946 119.607 99.1738 118.764C98.8531 117.921 97.9073 117.497 97.0662 117.822C96.225 118.147 95.8028 119.092 96.1236 119.935Z" fill="#FBA819"/>
<path d="M95.3568 119.591C96.1979 119.269 96.6201 118.321 96.2993 117.478C95.9786 116.635 95.0327 116.211 94.1916 116.536C93.3505 116.861 92.9283 117.806 93.249 118.649C93.5698 119.493 94.5156 119.916 95.3568 119.591Z" fill="#FBA819"/>
<path d="M99.5137 117.996C100.355 117.675 100.777 116.726 100.456 115.883C100.136 115.04 99.1896 114.617 98.3485 114.941C97.5074 115.266 97.0852 116.211 97.406 117.054C97.7267 117.898 98.6726 118.321 99.5137 117.996Z" fill="#FBA819"/>
<path d="M95.9955 117.593C96.1788 118.068 96.7057 118.305 97.1803 118.124C97.6549 117.944 97.8905 117.412 97.7105 116.936C97.5272 116.461 97.0003 116.224 96.5257 116.405C96.0512 116.585 95.8155 117.12 95.9955 117.593Z" fill="white"/>
<path d="M85.2968 109.98C85.683 110.988 86.8088 111.493 87.8136 111.106C88.8184 110.719 89.3224 109.59 88.9362 108.583C88.55 107.575 87.4241 107.073 86.4194 107.457C85.4146 107.844 84.9106 108.973 85.2968 109.98Z" fill="#FBA819"/>
<path d="M84.6293 107.546C84.95 108.389 85.8958 108.812 86.737 108.487C87.5781 108.163 88.0003 107.218 87.6796 106.374C87.3588 105.531 86.413 105.108 85.5719 105.433C84.7307 105.758 84.3085 106.703 84.6293 107.546Z" fill="#FBA819"/>
<path d="M86.2228 111.716C86.5435 112.559 87.4894 112.983 88.3305 112.658C89.1716 112.333 89.5938 111.388 89.2731 110.545C88.9523 109.702 88.0065 109.278 87.1654 109.603C86.3242 109.928 85.902 110.873 86.2228 111.716Z" fill="#FBA819"/>
<path d="M85.4538 111.375C86.2949 111.053 86.7171 110.105 86.3964 109.262C86.0757 108.419 85.1298 107.995 84.2887 108.32C83.4475 108.645 83.0253 109.59 83.3461 110.433C83.6668 111.277 84.6127 111.7 85.4538 111.375Z" fill="#FBA819"/>
<path d="M89.613 109.777C90.4542 109.456 90.8764 108.507 90.5556 107.664C90.2349 106.821 89.289 106.398 88.4479 106.722C87.6068 107.047 87.1846 107.992 87.5053 108.835C87.8261 109.679 88.7719 110.102 89.613 109.777Z" fill="#FBA819"/>
<path d="M86.092 109.374C86.2752 109.849 86.8022 110.085 87.2767 109.905C87.7513 109.725 87.9869 109.193 87.8069 108.717C87.6236 108.242 87.0967 108.005 86.6222 108.186C86.1476 108.366 85.9119 108.901 86.092 109.374Z" fill="white"/>
<path d="M107.137 112.064C107.523 113.071 108.649 113.577 109.654 113.19C110.658 112.802 111.162 111.674 110.776 110.666C110.39 109.659 109.264 109.154 108.259 109.541C107.255 109.928 106.754 111.057 107.137 112.064Z" fill="#FBA819"/>
<path d="M106.468 109.629C106.789 110.473 107.735 110.896 108.576 110.571C109.417 110.246 109.839 109.301 109.518 108.458C109.198 107.615 108.252 107.191 107.411 107.516C106.57 107.841 106.147 108.786 106.468 109.629Z" fill="#FBA819"/>
<path d="M108.059 113.8C108.38 114.643 109.326 115.066 110.167 114.741C111.008 114.417 111.43 113.472 111.109 112.628C110.789 111.785 109.843 111.362 109.002 111.687C108.161 112.011 107.738 112.956 108.059 113.8Z" fill="#FBA819"/>
<path d="M107.294 113.458C108.135 113.137 108.557 112.189 108.236 111.345C107.915 110.502 106.97 110.079 106.128 110.404C105.287 110.729 104.865 111.673 105.186 112.517C105.507 113.36 106.452 113.783 107.294 113.458Z" fill="#FBA819"/>
<path d="M111.453 111.86C112.294 111.539 112.717 110.591 112.396 109.747C112.075 108.904 111.129 108.481 110.288 108.806C109.447 109.131 109.025 110.075 109.346 110.919C109.666 111.762 110.612 112.185 111.453 111.86Z" fill="#FBA819"/>
<path d="M107.932 111.46C108.115 111.936 108.642 112.172 109.116 111.992C109.591 111.811 109.827 111.28 109.647 110.804C109.463 110.328 108.936 110.092 108.462 110.273C107.987 110.453 107.752 110.985 107.932 111.46Z" fill="white"/>
<path d="M100.077 100.784C100.463 101.791 101.589 102.296 102.594 101.909C103.598 101.522 104.102 100.393 103.716 99.3858C103.33 98.3786 102.204 97.8767 101.199 98.2605C100.195 98.6477 99.6906 99.7764 100.077 100.784Z" fill="#FBA819"/>
<path d="M99.4088 98.349C99.7296 99.1923 100.675 99.6156 101.517 99.2907C102.358 98.9659 102.78 98.0208 102.459 97.1776C102.138 96.3343 101.193 95.9112 100.351 96.236C99.5103 96.5608 99.0881 97.5058 99.4088 98.349Z" fill="#FBA819"/>
<path d="M101.003 102.516C101.324 103.359 102.27 103.783 103.111 103.458C103.952 103.133 104.374 102.188 104.053 101.345C103.733 100.501 102.787 100.078 101.946 100.403C101.105 100.728 100.682 101.673 101.003 102.516Z" fill="#FBA819"/>
<path d="M100.237 102.175C101.078 101.853 101.5 100.905 101.179 100.062C100.859 99.2184 99.9129 98.7952 99.0718 99.12C98.2307 99.4449 97.8085 100.39 98.1292 101.233C98.45 102.076 99.3958 102.499 100.237 102.175Z" fill="#FBA819"/>
<path d="M104.397 100.577C105.238 100.255 105.66 99.3071 105.339 98.4638C105.019 97.6206 104.073 97.1973 103.232 97.5221C102.391 97.8469 101.968 98.7919 102.289 99.6351C102.61 100.478 103.556 100.902 104.397 100.577Z" fill="#FBA819"/>
<path d="M100.871 100.176C101.055 100.652 101.582 100.888 102.056 100.708C102.531 100.528 102.766 99.996 102.586 99.5202C102.403 99.0445 101.876 98.8082 101.402 98.9886C100.927 99.1691 100.691 99.704 100.871 100.176Z" fill="white"/>
<path d="M96.6593 160.549C96.6593 160.962 96.9931 161.3 97.4087 161.3C97.8244 161.3 98.1582 160.965 98.1582 160.549C98.1582 160.132 97.8244 159.797 97.4087 159.797C96.9931 159.797 96.6593 160.132 96.6593 160.549Z" fill="#FBA819"/>
<path d="M91.2403 172.055C91.2403 172.469 91.5741 172.807 91.9898 172.807C92.4054 172.807 92.7393 172.472 92.7393 172.055C92.7393 171.638 92.4054 171.304 91.9898 171.304C91.5741 171.304 91.2403 171.638 91.2403 172.055Z" fill="#FBA819"/>
<path d="M102.695 176.721C103.109 176.721 103.445 176.384 103.445 175.97C103.445 175.555 103.109 175.218 102.695 175.218C102.281 175.218 101.946 175.555 101.946 175.97C101.946 176.384 102.281 176.721 102.695 176.721Z" fill="#FBA819"/>
<path d="M89.4691 158.143C89.4691 158.557 89.803 158.895 90.2186 158.895C90.6343 158.895 90.9681 158.56 90.9681 158.143C90.9681 157.727 90.6343 157.392 90.2186 157.392C89.803 157.392 89.4691 157.727 89.4691 158.143Z" fill="#FBA819"/>
<path d="M86.6187 169.033C87.0326 169.033 87.3682 168.697 87.3682 168.282C87.3682 167.867 87.0326 167.531 86.6187 167.531C86.2047 167.531 85.8692 167.867 85.8692 168.282C85.8692 168.697 86.2047 169.033 86.6187 169.033Z" fill="#FBA819"/>
<path d="M85.8729 178.529C85.8729 178.942 86.2067 179.28 86.6224 179.28C87.038 179.28 87.3719 178.945 87.3719 178.529C87.3719 178.112 87.038 177.777 86.6224 177.777C86.2067 177.777 85.8729 178.112 85.8729 178.529Z" fill="#FBA819"/>
<path d="M81.5755 183.135C81.5755 183.549 81.9094 183.887 82.325 183.887C82.7407 183.887 83.0745 183.552 83.0745 183.135C83.0745 182.719 82.7407 182.384 82.325 182.384C81.9094 182.384 81.5755 182.719 81.5755 183.135Z" fill="#FBA819"/>
<path d="M90.2189 182.811C90.2189 183.224 90.5528 183.562 90.9684 183.562C91.3841 183.562 91.7179 183.227 91.7179 182.811C91.7179 182.394 91.3841 182.059 90.9684 182.059C90.5528 182.059 90.2189 182.394 90.2189 182.811Z" fill="#FBA819"/>
<path d="M83.3002 158.36C83.7141 158.36 84.0497 158.024 84.0497 157.609C84.0497 157.194 83.7141 156.857 83.3002 156.857C82.8862 156.857 82.5507 157.194 82.5507 157.609C82.5507 158.024 82.8862 158.36 83.3002 158.36Z" fill="#FBA819"/>
<path d="M91.6459 148.983C91.6459 149.396 91.9798 149.734 92.3954 149.734C92.8111 149.734 93.1449 149.399 93.1449 148.983C93.1449 148.566 92.8111 148.231 92.3954 148.231C91.9798 148.231 91.6459 148.566 91.6459 148.983Z" fill="#FBA819"/>
<path d="M99.1472 147.057C99.1472 147.47 99.481 147.808 99.8967 147.808C100.312 147.808 100.646 147.473 100.646 147.057C100.646 146.64 100.312 146.305 99.8967 146.305C99.481 146.305 99.1472 146.64 99.1472 147.057Z" fill="#FBA819"/>
<path d="M103.578 158.143C103.578 158.557 103.912 158.895 104.328 158.895C104.744 158.895 105.077 158.56 105.077 158.143C105.077 157.727 104.744 157.392 104.328 157.392C103.912 157.392 103.578 157.727 103.578 158.143Z" fill="#FBA819"/>
<path d="M95.1575 110.502C95.5714 110.502 95.907 110.166 95.907 109.751C95.907 109.336 95.5714 108.999 95.1575 108.999C94.7435 108.999 94.408 109.336 94.408 109.751C94.408 110.166 94.7435 110.502 95.1575 110.502Z" fill="#FBA819"/>
<path d="M89.8725 118.938C90.2864 118.938 90.6219 118.602 90.6219 118.187C90.6219 117.772 90.2864 117.435 89.8725 117.435C89.4585 117.435 89.123 117.772 89.123 118.187C89.123 118.602 89.4585 118.938 89.8725 118.938Z" fill="#FBA819"/>
<path d="M98.1561 105.505C98.1561 105.918 98.4899 106.256 98.9056 106.256C99.3212 106.256 99.6551 105.922 99.6551 105.505C99.6551 105.088 99.3212 104.754 98.9056 104.754C98.4899 104.754 98.1561 105.088 98.1561 105.505Z" fill="#FBA819"/>
<path d="M99.8936 111.969C99.8936 112.382 100.227 112.72 100.643 112.72C101.059 112.72 101.393 112.385 101.393 111.969C101.393 111.552 101.059 111.217 100.643 111.217C100.227 111.217 99.8936 111.552 99.8936 111.969Z" fill="#FBA819"/>
<path d="M107.205 101.82C107.205 102.234 107.539 102.572 107.954 102.572C108.37 102.572 108.704 102.237 108.704 101.82C108.704 101.404 108.37 101.069 107.954 101.069C107.539 101.069 107.205 101.404 107.205 101.82Z" fill="#FBA819"/>
<path d="M104.328 107.004C104.742 107.004 105.077 106.668 105.077 106.253C105.077 105.838 104.742 105.502 104.328 105.502C103.914 105.502 103.578 105.838 103.578 106.253C103.578 106.668 103.914 107.004 104.328 107.004Z" fill="#FBA819"/>
<path d="M94.9182 104.262C94.9182 104.675 95.2521 105.013 95.6677 105.013C96.0834 105.013 96.4172 104.678 96.4172 104.262C96.4172 103.845 96.0834 103.51 95.6677 103.51C95.2521 103.51 94.9182 103.845 94.9182 104.262Z" fill="#FBA819"/>
<path d="M85.5909 103.513C85.5909 103.927 85.9247 104.265 86.3403 104.265C86.756 104.265 87.0898 103.93 87.0898 103.513C87.0898 103.097 86.756 102.762 86.3403 102.762C85.9247 102.762 85.5909 103.097 85.5909 103.513Z" fill="#FBA819"/>
<path d="M84.8383 118.187C84.8383 118.6 85.1721 118.938 85.5877 118.938C86.0034 118.938 86.3372 118.603 86.3372 118.187C86.3372 117.77 86.0034 117.435 85.5877 117.435C85.1721 117.435 84.8383 117.77 84.8383 118.187Z" fill="#FBA819"/>
<path d="M99.6215 139.615C100.035 139.615 100.371 139.279 100.371 138.864C100.371 138.449 100.035 138.112 99.6215 138.112C99.2076 138.112 98.8721 138.449 98.8721 138.864C98.8721 139.279 99.2076 139.615 99.6215 139.615Z" fill="#FBA819"/>
<path d="M87.9705 129.644C87.9705 130.057 88.3043 130.395 88.72 130.395C89.1356 130.395 89.4694 130.061 89.4694 129.644C89.4694 129.227 89.1356 128.893 88.72 128.893C88.3043 128.893 87.9705 129.227 87.9705 129.644Z" fill="#FBA819"/>
<path d="M87.9705 136.38C87.9705 136.794 88.3043 137.132 88.72 137.132C89.1356 137.132 89.4694 136.797 89.4694 136.38C89.4694 135.964 89.1356 135.629 88.72 135.629C88.3043 135.629 87.9705 135.964 87.9705 136.38Z" fill="#FBA819"/>
<path d="M105.863 178.204C105.863 178.617 106.197 178.955 106.613 178.955C107.028 178.955 107.362 178.621 107.362 178.204C107.362 177.787 107.028 177.453 106.613 177.453C106.197 177.453 105.863 177.787 105.863 178.204Z" fill="#FBA819"/>
<path d="M77.4776 179.841C78.553 179.841 79.4249 178.967 79.4249 177.889C79.4249 176.811 78.553 175.937 77.4776 175.937C76.4021 175.937 75.5302 176.811 75.5302 177.889C75.5302 178.967 76.4021 179.841 77.4776 179.841Z" fill="#FBA819"/>
<path d="M79.1796 175.376C79.1796 176.281 78.4497 177.013 77.5464 177.013C76.6431 177.013 75.9133 176.281 75.9133 175.376C75.9133 174.47 76.6431 173.739 77.5464 173.739C78.4497 173.739 79.1796 174.47 79.1796 175.376Z" fill="#FBA819"/>
<path d="M79.1796 179.841C79.1796 180.747 78.4497 181.479 77.5464 181.479C76.6431 181.479 75.9133 180.747 75.9133 179.841C75.9133 178.936 76.6431 178.204 77.5464 178.204C78.4497 178.204 79.1796 178.936 79.1796 179.841Z" fill="#FBA819"/>
<path d="M79.7748 179.247C78.8715 179.247 78.1417 178.516 78.1417 177.61C78.1417 176.705 78.8715 175.973 79.7748 175.973C80.6781 175.973 81.408 176.705 81.408 177.61C81.408 178.516 80.6781 179.247 79.7748 179.247Z" fill="#FBA819"/>
<path d="M75.3205 179.247C74.4172 179.247 73.6873 178.516 73.6873 177.61C73.6873 176.705 74.4172 175.973 75.3205 175.973C76.2238 175.973 76.9536 176.705 76.9536 177.61C76.9536 178.516 76.2238 179.247 75.3205 179.247Z" fill="#FBA819"/>
<path d="M77.546 178.529C78.0539 178.529 78.4657 178.116 78.4657 177.607C78.4657 177.098 78.0539 176.685 77.546 176.685C77.0381 176.685 76.6263 177.098 76.6263 177.607C76.6263 178.116 77.0381 178.529 77.546 178.529Z" fill="white"/>
<path d="M73.3934 169.775C72.8173 170.687 71.6162 170.956 70.7064 170.379C69.7965 169.801 69.5282 168.597 70.1042 167.685C70.6802 166.773 71.8813 166.504 72.7912 167.081C73.701 167.659 73.9694 168.863 73.3934 169.775Z" fill="#FBA819"/>
<path d="M74.5257 167.518C74.0446 168.282 73.0366 168.508 72.2707 168.026C71.5082 167.544 71.2823 166.533 71.7634 165.765C72.2445 165.001 73.2526 164.774 74.0184 165.257C74.781 165.739 75.0068 166.75 74.5257 167.518Z" fill="#FBA819"/>
<path d="M72.1433 171.294C71.6622 172.059 70.6541 172.285 69.8883 171.803C69.1257 171.32 68.8999 170.31 69.381 169.542C69.8621 168.778 70.8701 168.551 71.636 169.033C72.3986 169.516 72.6244 170.526 72.1433 171.294Z" fill="#FBA819"/>
<path d="M72.9612 171.107C72.1987 170.625 71.9728 169.614 72.4539 168.846C72.935 168.082 73.9431 167.855 74.7089 168.338C75.4715 168.82 75.6973 169.831 75.2162 170.598C74.7351 171.363 73.7271 171.589 72.9612 171.107Z" fill="#FBA819"/>
<path d="M69.2008 168.722C68.4382 168.239 68.2124 167.229 68.6935 166.461C69.1746 165.696 70.1826 165.47 70.9485 165.952C71.7111 166.435 71.9369 167.445 71.4558 168.213C70.9747 168.978 69.9666 169.204 69.2008 168.722Z" fill="#FBA819"/>
<path d="M72.7292 169.024C72.4575 169.453 71.8913 169.581 71.4626 169.309C71.0338 169.037 70.9062 168.469 71.1778 168.039C71.4495 167.609 72.0157 167.481 72.4444 167.754C72.8732 168.026 73.0008 168.594 72.7292 169.024Z" fill="white"/>
<path d="M82.1907 163.843C82.5802 164.85 82.0827 165.979 81.078 166.369C80.0732 166.76 78.9473 166.261 78.5579 165.254C78.1684 164.246 78.6659 163.118 79.6706 162.727C80.6754 162.337 81.8012 162.836 82.1907 163.843Z" fill="#FBA819"/>
<path d="M81.0552 161.589C81.3825 162.432 80.9635 163.38 80.1224 163.708C79.2813 164.036 78.3355 163.616 78.0082 162.773C77.6809 161.93 78.0998 160.982 78.9409 160.653C79.782 160.325 80.7279 160.745 81.0552 161.589Z" fill="#FBA819"/>
<path d="M82.669 165.752C82.9963 166.596 82.5773 167.544 81.7362 167.872C80.8951 168.2 79.9492 167.78 79.6219 166.937C79.2947 166.094 79.7136 165.145 80.5547 164.817C81.3958 164.489 82.3417 164.909 82.669 165.752Z" fill="#FBA819"/>
<path d="M83.006 164.984C82.1648 165.313 81.219 164.893 80.8917 164.049C80.5644 163.206 80.9833 162.258 81.8244 161.93C82.6656 161.602 83.6114 162.022 83.9387 162.865C84.266 163.708 83.8471 164.656 83.006 164.984Z" fill="#FBA819"/>
<path d="M78.8561 166.599C78.0149 166.927 77.0691 166.507 76.7418 165.663C76.4145 164.82 76.8334 163.872 77.6746 163.544C78.5157 163.216 79.4615 163.636 79.7888 164.479C80.1161 165.322 79.6972 166.27 78.8561 166.599Z" fill="#FBA819"/>
<path d="M81.1958 163.931C81.3791 164.407 81.1435 164.938 80.6722 165.122C80.1976 165.306 79.6674 165.07 79.4841 164.597C79.3008 164.125 79.5365 163.59 80.0078 163.406C80.4823 163.222 81.0125 163.459 81.1958 163.931Z" fill="white"/>
<path d="M77.1833 155.358C76.7971 156.365 75.6713 156.867 74.6665 156.483C73.6617 156.096 73.161 154.967 73.5439 153.96C73.9301 152.953 75.056 152.448 76.0607 152.835C77.0655 153.222 77.5695 154.351 77.1833 155.358Z" fill="#FBA819"/>
<path d="M77.8508 152.923C77.5301 153.766 76.5842 154.19 75.7431 153.865C74.9019 153.54 74.4797 152.595 74.8005 151.752C75.1212 150.909 76.0671 150.485 76.9082 150.81C77.7493 151.135 78.1715 152.08 77.8508 152.923Z" fill="#FBA819"/>
<path d="M76.2571 157.094C75.9363 157.937 74.9905 158.36 74.1494 158.035C73.3083 157.71 72.8861 156.765 73.2068 155.922C73.5275 155.079 74.4734 154.656 75.3145 154.981C76.1556 155.305 76.5778 156.25 76.2571 157.094Z" fill="#FBA819"/>
<path d="M77.0261 156.749C76.185 156.428 75.7628 155.479 76.0835 154.636C76.4042 153.793 77.3501 153.37 78.1912 153.694C79.0323 154.019 79.4545 154.964 79.1338 155.808C78.813 156.651 77.8672 157.074 77.0261 156.749Z" fill="#FBA819"/>
<path d="M72.8664 155.154C72.0252 154.833 71.603 153.885 71.9238 153.041C72.2445 152.198 73.1904 151.775 74.0315 152.1C74.8726 152.425 75.2948 153.37 74.9741 154.213C74.6533 155.056 73.7075 155.479 72.8664 155.154Z" fill="#FBA819"/>
<path d="M76.388 154.751C76.2047 155.227 75.6778 155.463 75.2032 155.283C74.7287 155.099 74.493 154.571 74.673 154.095C74.8563 153.619 75.3832 153.383 75.8578 153.563C76.3324 153.747 76.568 154.275 76.388 154.751Z" fill="white"/>
<path d="M77.6281 133.443C77.242 134.451 76.1161 134.956 75.1113 134.569C74.1065 134.182 73.6025 133.053 73.9887 132.046C74.3749 131.038 75.5008 130.536 76.5055 130.92C77.5103 131.307 78.0143 132.436 77.6281 133.443Z" fill="#FBA819"/>
<path d="M78.2989 131.012C77.9782 131.855 77.0323 132.279 76.1912 131.954C75.3501 131.629 74.9279 130.684 75.2486 129.841C75.5693 128.998 76.5152 128.574 77.3563 128.899C78.1975 129.224 78.6197 130.169 78.2989 131.012Z" fill="#FBA819"/>
<path d="M76.7052 135.179C76.3845 136.022 75.4386 136.446 74.5975 136.121C73.7564 135.796 73.3342 134.851 73.6549 134.008C73.9757 133.165 74.9215 132.741 75.7626 133.066C76.6038 133.391 77.026 134.336 76.7052 135.179Z" fill="#FBA819"/>
<path d="M77.4713 134.838C76.6302 134.517 76.208 133.568 76.5287 132.725C76.8494 131.882 77.7953 131.459 78.6364 131.783C79.4775 132.108 79.8997 133.053 79.579 133.896C79.2582 134.74 78.3124 135.163 77.4713 134.838Z" fill="#FBA819"/>
<path d="M73.311 133.24C72.4699 132.918 72.0477 131.97 72.3685 131.127C72.6892 130.284 73.6351 129.861 74.4762 130.185C75.3173 130.51 75.7395 131.455 75.4188 132.298C75.098 133.142 74.1521 133.565 73.311 133.24Z" fill="#FBA819"/>
<path d="M76.8332 132.84C76.6499 133.316 76.1197 133.552 75.6484 133.371C75.1738 133.188 74.9382 132.66 75.1182 132.184C75.3015 131.708 75.8284 131.472 76.303 131.652C76.7775 131.836 77.0132 132.368 76.8332 132.84Z" fill="white"/>
<path d="M80.8357 143.52C80.4495 144.527 79.3237 145.033 78.3189 144.645C77.3141 144.258 76.8101 143.129 77.1963 142.122C77.5825 141.115 78.7084 140.61 79.7131 140.997C80.7179 141.384 81.2219 142.513 80.8357 143.52Z" fill="#FBA819"/>
<path d="M81.503 141.085C81.1823 141.928 80.2365 142.352 79.3953 142.027C78.5542 141.702 78.132 140.757 78.4528 139.914C78.7735 139.071 79.7193 138.647 80.5605 138.972C81.4016 139.297 81.8238 140.242 81.503 141.085Z" fill="#FBA819"/>
<path d="M79.9094 145.256C79.5886 146.099 78.6428 146.522 77.8017 146.197C76.9606 145.872 76.5384 144.927 76.8591 144.084C77.1798 143.241 78.1257 142.818 78.9668 143.143C79.8079 143.467 80.2301 144.412 79.9094 145.256Z" fill="#FBA819"/>
<path d="M80.6751 144.914C79.834 144.593 79.4118 143.644 79.7326 142.801C80.0533 141.958 80.9991 141.535 81.8402 141.86C82.6814 142.184 83.1036 143.129 82.7828 143.973C82.4621 144.816 81.5162 145.239 80.6751 144.914Z" fill="#FBA819"/>
<path d="M76.5191 143.313C75.678 142.992 75.2558 142.043 75.5765 141.2C75.8973 140.357 76.8432 139.934 77.6843 140.258C78.5254 140.583 78.9476 141.528 78.6269 142.371C78.3061 143.215 77.3602 143.638 76.5191 143.313Z" fill="#FBA819"/>
<path d="M80.0403 142.913C79.857 143.388 79.3268 143.625 78.8555 143.444C78.381 143.26 78.1453 142.732 78.3253 142.256C78.5086 141.781 79.0355 141.544 79.5101 141.725C79.9847 141.905 80.2203 142.44 80.0403 142.913Z" fill="white"/>
<path d="M77.5688 118.2C77.1827 119.207 76.0568 119.712 75.052 119.325C74.0473 118.938 73.5432 117.809 73.9294 116.802C74.3156 115.795 75.4415 115.293 76.4463 115.677C77.451 116.064 77.955 117.193 77.5688 118.2Z" fill="#FBA819"/>
<path d="M78.2368 115.765C77.916 116.608 76.9702 117.032 76.1291 116.707C75.288 116.382 74.8658 115.437 75.1865 114.594C75.5072 113.75 76.4531 113.327 77.2942 113.652C78.1353 113.977 78.5575 114.922 78.2368 115.765Z" fill="#FBA819"/>
<path d="M76.6431 119.935C76.3223 120.778 75.3765 121.202 74.5354 120.877C73.6943 120.552 73.2721 119.607 73.5928 118.764C73.9135 117.921 74.8594 117.497 75.7005 117.822C76.5416 118.147 76.9638 119.092 76.6431 119.935Z" fill="#FBA819"/>
<path d="M77.4089 119.591C76.5677 119.269 76.1455 118.321 76.4663 117.478C76.787 116.635 77.7329 116.211 78.574 116.536C79.4151 116.861 79.8373 117.806 79.5166 118.649C79.1959 119.493 78.25 119.916 77.4089 119.591Z" fill="#FBA819"/>
<path d="M73.253 117.996C72.4119 117.675 71.9897 116.726 72.3104 115.883C72.6311 115.04 73.577 114.617 74.4181 114.941C75.2592 115.266 75.6814 116.211 75.3607 117.054C75.0399 117.898 74.0941 118.321 73.253 117.996Z" fill="#FBA819"/>
<path d="M76.774 117.593C76.5907 118.068 76.0605 118.305 75.5893 118.124C75.1147 117.94 74.879 117.412 75.0591 116.936C75.2423 116.461 75.7693 116.224 76.2438 116.405C76.7184 116.585 76.954 117.12 76.774 117.593Z" fill="white"/>
<path d="M65.6332 112.064C65.247 113.071 64.1212 113.577 63.1164 113.19C62.1116 112.802 61.6076 111.674 61.9938 110.666C62.38 109.659 63.5059 109.154 64.5106 109.541C65.5154 109.928 66.0194 111.057 65.6332 112.064Z" fill="#FBA819"/>
<path d="M66.3012 109.629C65.9804 110.473 65.0346 110.896 64.1934 110.571C63.3523 110.246 62.9301 109.301 63.2509 108.458C63.5716 107.615 64.5175 107.191 65.3586 107.516C66.1997 107.841 66.6219 108.786 66.3012 109.629Z" fill="#FBA819"/>
<path d="M64.7075 113.8C64.3868 114.643 63.4409 115.066 62.5998 114.741C61.7587 114.417 61.3365 113.472 61.6572 112.628C61.9779 111.785 62.9238 111.362 63.7649 111.687C64.6061 112.011 65.0283 112.956 64.7075 113.8Z" fill="#FBA819"/>
<path d="M65.4729 113.458C64.6318 113.137 64.2096 112.189 64.5303 111.345C64.8511 110.502 65.797 110.079 66.6381 110.404C67.4792 110.729 67.9014 111.673 67.5807 112.517C67.2599 113.36 66.314 113.783 65.4729 113.458Z" fill="#FBA819"/>
<path d="M61.3132 111.86C60.4721 111.539 60.0499 110.591 60.3706 109.747C60.6913 108.904 61.6372 108.481 62.4783 108.806C63.3194 109.131 63.7416 110.075 63.4209 110.919C63.1001 111.762 62.1543 112.185 61.3132 111.86Z" fill="#FBA819"/>
<path d="M64.8348 111.46C64.6516 111.936 64.1246 112.172 63.6501 111.992C63.1755 111.811 62.9399 111.28 63.1199 110.804C63.3032 110.328 63.8334 110.092 64.3046 110.273C64.7792 110.456 65.0149 110.985 64.8348 111.46Z" fill="white"/>
<path d="M72.6894 100.784C72.3032 101.791 71.1774 102.296 70.1726 101.909C69.1678 101.522 68.6638 100.393 69.05 99.3858C69.4362 98.3786 70.5621 97.8767 71.5668 98.2605C72.5716 98.6477 73.0756 99.7764 72.6894 100.784Z" fill="#FBA819"/>
<path d="M73.3572 98.349C73.0365 99.1923 72.0906 99.6156 71.2495 99.2907C70.4084 98.9659 69.9862 98.0208 70.3069 97.1776C70.6277 96.3343 71.5735 95.9112 72.4146 96.236C73.2557 96.5608 73.6779 97.5058 73.3572 98.349Z" fill="#FBA819"/>
<path d="M71.7637 102.516C71.443 103.359 70.4971 103.783 69.656 103.458C68.8149 103.133 68.3927 102.188 68.7134 101.345C69.0342 100.501 69.98 100.078 70.8211 100.403C71.6622 100.728 72.0844 101.673 71.7637 102.516Z" fill="#FBA819"/>
<path d="M72.5324 102.175C71.6913 101.853 71.2691 100.905 71.5898 100.062C71.9106 99.2184 72.8564 98.7952 73.6975 99.12C74.5386 99.4449 74.9608 100.39 74.6401 101.233C74.3194 102.076 73.3735 102.499 72.5324 102.175Z" fill="#FBA819"/>
<path d="M68.3693 100.577C67.5281 100.255 67.1059 99.3071 67.4267 98.4638C67.7474 97.6206 68.6933 97.1973 69.5344 97.5221C70.3755 97.8469 70.7977 98.7919 70.477 99.6351C70.1562 100.478 69.2104 100.902 68.3693 100.577Z" fill="#FBA819"/>
<path d="M71.8938 100.176C71.7106 100.652 71.1804 100.888 70.7091 100.708C70.2345 100.524 69.9989 99.996 70.1789 99.5202C70.3621 99.0445 70.8891 98.8082 71.3636 98.9886C71.8382 99.1691 72.0738 99.704 71.8938 100.176Z" fill="white"/>
<path d="M86.8185 150.949C86.4323 151.957 85.3064 152.462 84.3016 152.075C83.2968 151.688 82.7929 150.559 83.179 149.552C83.5652 148.544 84.6911 148.039 85.6959 148.426C86.7006 148.813 87.2047 149.942 86.8185 150.949Z" fill="#FBA819"/>
<path d="M88.8285 149.199C88.5078 150.043 87.5619 150.466 86.7208 150.141C85.8797 149.816 85.4575 148.871 85.7782 148.028C86.099 147.185 87.0448 146.762 87.8859 147.086C88.7271 147.411 89.1492 148.356 88.8285 149.199Z" fill="#FBA819"/>
<path d="M87.2307 153.369C86.9099 154.213 85.9641 154.636 85.123 154.311C84.2819 153.986 83.8597 153.041 84.1804 152.198C84.5011 151.355 85.447 150.932 86.2881 151.256C87.1292 151.581 87.5514 152.526 87.2307 153.369Z" fill="#FBA819"/>
<path d="M88.0004 153.028C87.1593 152.707 86.7371 151.759 87.0579 150.915C87.3786 150.072 88.3245 149.649 89.1656 149.974C90.0067 150.298 90.4289 151.243 90.1082 152.087C89.7874 152.93 88.8416 153.353 88.0004 153.028Z" fill="#FBA819"/>
<path d="M87.3622 151.03C87.1789 151.506 86.6487 151.742 86.1774 151.562C85.7029 151.378 85.4672 150.85 85.6472 150.374C85.8305 149.898 86.3574 149.662 86.832 149.842C87.3066 150.023 87.5422 150.554 87.3622 151.03Z" fill="white"/>
<path d="M76.1063 160.549C76.1063 160.962 75.7725 161.3 75.3568 161.3C74.9412 161.3 74.6074 160.965 74.6074 160.549C74.6074 160.132 74.9412 159.797 75.3568 159.797C75.7725 159.797 76.1063 160.132 76.1063 160.549Z" fill="#FBA819"/>
<path d="M80.7802 172.807C81.1941 172.807 81.5297 172.47 81.5297 172.055C81.5297 171.64 81.1941 171.304 80.7802 171.304C80.3662 171.304 80.0307 171.64 80.0307 172.055C80.0307 172.47 80.3662 172.807 80.7802 172.807Z" fill="#FBA819"/>
<path d="M70.8205 175.97C70.8205 176.383 70.4867 176.721 70.0711 176.721C69.6554 176.721 69.3216 176.386 69.3216 175.97C69.3216 175.553 69.6554 175.218 70.0711 175.218C70.4867 175.218 70.8205 175.553 70.8205 175.97Z" fill="#FBA819"/>
<path d="M80.7802 152.29C81.1941 152.29 81.5297 151.954 81.5297 151.539C81.5297 151.124 81.1941 150.787 80.7802 150.787C80.3662 150.787 80.0307 151.124 80.0307 151.539C80.0307 151.954 80.3662 152.29 80.7802 152.29Z" fill="#FBA819"/>
<path d="M73.6192 147.057C73.6192 147.47 73.2853 147.808 72.8697 147.808C72.454 147.808 72.1202 147.473 72.1202 147.057C72.1202 146.64 72.454 146.305 72.8697 146.305C73.2853 146.305 73.6192 146.64 73.6192 147.057Z" fill="#FBA819"/>
<path d="M69.1876 158.143C69.1876 158.557 68.8538 158.895 68.4381 158.895C68.0225 158.895 67.6886 158.56 67.6886 158.143C67.6886 157.727 68.0225 157.392 68.4381 157.392C68.8538 157.392 69.1876 157.727 69.1876 158.143Z" fill="#FBA819"/>
<path d="M77.6086 110.502C78.0225 110.502 78.3581 110.166 78.3581 109.751C78.3581 109.336 78.0225 108.999 77.6086 108.999C77.1946 108.999 76.8591 109.336 76.8591 109.751C76.8591 110.166 77.1946 110.502 77.6086 110.502Z" fill="#FBA819"/>
<path d="M74.6111 105.505C74.6111 105.918 74.2772 106.256 73.8616 106.256C73.4459 106.256 73.1121 105.922 73.1121 105.505C73.1121 105.088 73.4459 104.754 73.8616 104.754C74.2772 104.754 74.6111 105.088 74.6111 105.505Z" fill="#FBA819"/>
<path d="M72.1233 112.72C72.5373 112.72 72.8728 112.384 72.8728 111.969C72.8728 111.554 72.5373 111.217 72.1233 111.217C71.7094 111.217 71.3738 111.554 71.3738 111.969C71.3738 112.384 71.7094 112.72 72.1233 112.72Z" fill="#FBA819"/>
<path d="M65.5648 101.82C65.5648 102.234 65.231 102.572 64.8154 102.572C64.3997 102.572 64.0659 102.237 64.0659 101.82C64.0659 101.404 64.3997 101.069 64.8154 101.069C65.231 101.069 65.5648 101.404 65.5648 101.82Z" fill="#FBA819"/>
<path d="M68.4381 107.004C68.8521 107.004 69.1876 106.668 69.1876 106.253C69.1876 105.838 68.8521 105.502 68.4381 105.502C68.0242 105.502 67.6886 105.838 67.6886 106.253C67.6886 106.668 68.0242 107.004 68.4381 107.004Z" fill="#FBA819"/>
<path d="M77.8514 104.262C77.8514 104.675 77.5176 105.013 77.1019 105.013C76.6863 105.013 76.3524 104.678 76.3524 104.262C76.3524 103.845 76.6863 103.51 77.1019 103.51C77.5176 103.51 77.8514 103.845 77.8514 104.262Z" fill="#FBA819"/>
<path d="M73.8908 138.864C73.8908 139.277 73.557 139.615 73.1413 139.615C72.7257 139.615 72.3918 139.281 72.3918 138.864C72.3918 138.447 72.7257 138.112 73.1413 138.112C73.557 138.112 73.8908 138.447 73.8908 138.864Z" fill="#FBA819"/>
<path d="M84.7958 129.644C84.7958 130.057 84.462 130.395 84.0463 130.395C83.6307 130.395 83.2968 130.061 83.2968 129.644C83.2968 129.227 83.6307 128.893 84.0463 128.893C84.462 128.893 84.7958 129.227 84.7958 129.644Z" fill="#FBA819"/>
<path d="M84.7958 136.38C84.7958 136.794 84.462 137.132 84.0463 137.132C83.6307 137.132 83.2968 136.797 83.2968 136.38C83.2968 135.964 83.6307 135.629 84.0463 135.629C84.462 135.629 84.7958 135.964 84.7958 136.38Z" fill="#FBA819"/>
<path d="M66.903 178.204C66.903 178.617 66.5691 178.955 66.1535 178.955C65.7378 178.955 65.404 178.621 65.404 178.204C65.404 177.787 65.7378 177.453 66.1535 177.453C66.5691 177.453 66.903 177.787 66.903 178.204Z" fill="#FBA819"/>
</svg>
