<svg width="174" height="240" viewBox="0 0 174 240" fill="none" xmlns="http://www.w3.org/2000/svg">
<rect width="174" height="240" fill="none"/>
<path d="M100.895 89.4133C101.469 89.4133 102.041 89.4557 102.602 89.5745C104.267 89.9266 107.925 90.8804 109.273 92.6731C110.787 94.6852 111.899 98.2836 112.19 99.2825C114.052 102.977 115.99 110.844 119.024 117.197C115.964 120.947 111.672 123.977 107.578 123.668L106.318 118.979C106.319 119.005 106.372 120.085 106.606 125.74C108.34 135.732 117.893 181.786 117.906 181.847C117.827 181.873 100.856 187.365 86.8093 187.365C70.6534 187.364 56.1208 181.868 56.0641 181.847C56.07 181.822 64.4022 145.711 67.5104 125.781C67.7315 119.813 67.9279 119.194 67.9343 119.175L66.7175 123.066C61.54 122.879 56.7232 120.307 55.0309 116.629C57.7643 110.976 60.1566 103.03 61.8132 99.3352C62.1369 98.1576 63.3883 93.8762 65.0192 91.8723C66.9123 89.5469 72.5624 89.4145 72.614 89.4133H79.7692C79.7671 89.5598 79.768 89.7055 79.7761 89.8538C79.9597 93.5862 83.1451 96.4661 86.8874 96.2766C87.1089 96.2829 87.3304 96.2892 87.5583 96.2766C91.2344 96.1038 94.0866 93.0536 94.0485 89.4133H100.895Z" fill="#ED1D87"/>
<path d="M106.572 125.603C95.7784 128.057 78.2964 128.252 67.5058 125.797C67.5058 124.32 67.6376 122.369 67.7346 120.893C78.4433 123.468 95.7312 123.824 106.437 121.249C106.489 122.719 106.556 124.127 106.572 125.603Z" fill="#513996"/>
<path d="M92.9835 177.56C92.9835 178.636 93.8541 179.513 94.9308 179.513C96.0076 179.513 96.8782 178.64 96.8782 177.56C96.8782 176.481 96.0076 175.608 94.9308 175.608C93.8541 175.608 92.9835 176.481 92.9835 177.56Z" fill="#FBA819"/>
<path d="M93.2292 175.047C93.2292 175.953 93.9591 176.685 94.8624 176.685C95.7657 176.685 96.4955 175.953 96.4955 175.047C96.4955 174.142 95.7657 173.41 94.8624 173.41C93.9591 173.41 93.2292 174.142 93.2292 175.047Z" fill="#FBA819"/>
<path d="M93.2292 179.513C93.2292 180.418 93.9591 181.15 94.8624 181.15C95.7657 181.15 96.4955 180.418 96.4955 179.513C96.4955 178.607 95.7657 177.875 94.8624 177.875C93.9591 177.875 93.2292 178.607 93.2292 179.513Z" fill="#FBA819"/>
<path d="M92.6365 178.919C93.5398 178.919 94.2697 178.187 94.2697 177.281C94.2697 176.376 93.5398 175.644 92.6365 175.644C91.7332 175.644 91.0034 176.376 91.0034 177.281C91.0034 178.187 91.7332 178.919 92.6365 178.919Z" fill="#FBA819"/>
<path d="M97.0873 178.919C97.9906 178.919 98.7204 178.187 98.7204 177.281C98.7204 176.376 97.9906 175.644 97.0873 175.644C96.184 175.644 95.4541 176.376 95.4541 177.281C95.4541 178.187 96.184 178.919 97.0873 178.919Z" fill="#FBA819"/>
<path d="M93.9423 177.278C93.9423 177.787 94.3547 178.2 94.862 178.2C95.3693 178.2 95.7817 177.787 95.7817 177.278C95.7817 176.77 95.3693 176.356 94.862 176.356C94.3547 176.356 93.9423 176.77 93.9423 177.278Z" fill="white"/>
<path d="M99.0191 169.446C99.5951 170.359 100.796 170.628 101.706 170.05C102.616 169.473 102.884 168.268 102.308 167.356C101.732 166.444 100.531 166.175 99.6213 166.753C98.7114 167.33 98.443 168.534 99.0191 169.446Z" fill="#FBA819"/>
<path d="M97.8864 167.189C98.3675 167.953 99.3755 168.18 100.141 167.697C100.904 167.215 101.13 166.204 100.649 165.437C100.168 164.672 99.1595 164.446 98.3937 164.928C97.6311 165.411 97.4053 166.421 97.8864 167.189Z" fill="#FBA819"/>
<path d="M100.266 170.965C100.747 171.73 101.755 171.956 102.521 171.474C103.283 170.992 103.509 169.981 103.028 169.213C102.547 168.449 101.539 168.222 100.773 168.705C100.011 169.187 99.7848 170.198 100.266 170.965Z" fill="#FBA819"/>
<path d="M99.4474 170.778C100.21 170.296 100.436 169.285 99.9546 168.518C99.4735 167.753 98.4655 167.527 97.6997 168.009C96.9371 168.491 96.7112 169.502 97.1924 170.27C97.6735 171.034 98.6815 171.261 99.4474 170.778Z" fill="#FBA819"/>
<path d="M103.211 168.393C103.974 167.911 104.2 166.9 103.719 166.132C103.237 165.368 102.229 165.142 101.464 165.624C100.701 166.106 100.475 167.117 100.956 167.884C101.437 168.649 102.445 168.875 103.211 168.393Z" fill="#FBA819"/>
<path d="M99.6797 168.695C99.9513 169.125 100.518 169.253 100.946 168.981C101.375 168.708 101.503 168.141 101.231 167.711C100.959 167.281 100.393 167.153 99.9644 167.425C99.5357 167.698 99.408 168.265 99.6797 168.695Z" fill="white"/>
<path d="M90.2175 163.514C89.828 164.522 90.3255 165.65 91.3303 166.041C92.335 166.431 93.4609 165.932 93.8504 164.925C94.2399 163.918 93.7424 162.789 92.7376 162.399C91.7328 162.008 90.607 162.507 90.2175 163.514Z" fill="#FBA819"/>
<path d="M91.3538 161.26C91.0266 162.103 91.4455 163.051 92.2866 163.38C93.1277 163.708 94.0736 163.288 94.4008 162.445C94.7281 161.601 94.3092 160.653 93.4681 160.325C92.627 159.997 91.6811 160.417 91.3538 161.26Z" fill="#FBA819"/>
<path d="M89.7435 165.424C89.4162 166.267 89.8351 167.215 90.6762 167.543C91.5174 167.871 92.4632 167.452 92.7905 166.608C93.1178 165.765 92.6989 164.817 91.8577 164.489C91.0166 164.161 90.0708 164.58 89.7435 165.424Z" fill="#FBA819"/>
<path d="M89.4031 164.656C90.2442 164.984 91.1901 164.564 91.5174 163.721C91.8447 162.877 91.4258 161.929 90.5846 161.601C89.7435 161.273 88.7976 161.693 88.4704 162.536C88.1431 163.38 88.562 164.328 89.4031 164.656Z" fill="#FBA819"/>
<path d="M93.5563 166.27C94.3974 166.598 95.3433 166.178 95.6706 165.335C95.9978 164.492 95.5789 163.543 94.7378 163.215C93.8967 162.887 92.9508 163.307 92.6236 164.15C92.2963 164.994 92.7152 165.942 93.5563 166.27Z" fill="#FBA819"/>
<path d="M91.213 163.603C91.0297 164.078 91.2653 164.61 91.7366 164.794C92.2112 164.977 92.7414 164.741 92.9247 164.269C93.1079 163.793 92.8723 163.261 92.401 163.078C91.9265 162.894 91.3962 163.13 91.213 163.603Z" fill="white"/>
<path d="M95.2251 155.029C95.6113 156.037 96.7372 156.538 97.7419 156.155C98.7467 155.767 99.2507 154.639 98.8645 153.631C98.4783 152.624 97.3525 152.119 96.3477 152.506C95.3429 152.893 94.8389 154.022 95.2251 155.029Z" fill="#FBA819"/>
<path d="M94.5576 152.595C94.8783 153.438 95.8242 153.861 96.6653 153.536C97.5064 153.211 97.9286 152.266 97.6079 151.423C97.2871 150.58 96.3413 150.157 95.5001 150.481C94.659 150.806 94.2368 151.751 94.5576 152.595Z" fill="#FBA819"/>
<path d="M96.1512 156.765C96.472 157.608 97.4179 158.031 98.259 157.707C99.1001 157.382 99.5223 156.437 99.2016 155.594C98.8808 154.75 97.935 154.327 97.0938 154.652C96.2527 154.977 95.8305 155.922 96.1512 156.765Z" fill="#FBA819"/>
<path d="M95.3857 156.42C96.2268 156.099 96.649 155.151 96.3282 154.307C96.0075 153.464 95.0617 153.041 94.2205 153.366C93.3794 153.691 92.9572 154.636 93.278 155.479C93.5987 156.322 94.5445 156.745 95.3857 156.42Z" fill="#FBA819"/>
<path d="M99.5425 154.826C100.384 154.504 100.806 153.556 100.485 152.713C100.164 151.87 99.2185 151.446 98.3773 151.771C97.5362 152.096 97.114 153.041 97.4348 153.884C97.7555 154.727 98.7014 155.151 99.5425 154.826Z" fill="#FBA819"/>
<path d="M96.0202 154.422C96.2035 154.898 96.7337 155.134 97.205 154.954C97.6796 154.77 97.9152 154.242 97.7352 153.766C97.5519 153.29 97.025 153.054 96.5504 153.235C96.0759 153.418 95.8402 153.947 96.0202 154.422Z" fill="white"/>
<path d="M94.7803 133.115C95.1665 134.122 96.2924 134.627 97.2971 134.24C98.3019 133.853 98.8059 132.724 98.4197 131.717C98.0335 130.71 96.9077 130.208 95.9029 130.592C94.8982 130.979 94.3941 132.108 94.7803 133.115Z" fill="#FBA819"/>
<path d="M94.1093 130.683C94.4301 131.527 95.3759 131.95 96.2171 131.625C97.0582 131.3 97.4804 130.355 97.1596 129.512C96.8389 128.669 95.893 128.246 95.0519 128.57C94.2108 128.895 93.7886 129.84 94.1093 130.683Z" fill="#FBA819"/>
<path d="M95.7036 134.851C96.0244 135.694 96.9702 136.117 97.8114 135.792C98.6525 135.467 99.0747 134.522 98.7539 133.679C98.4332 132.836 97.4873 132.413 96.6462 132.738C95.8051 133.062 95.3829 134.007 95.7036 134.851Z" fill="#FBA819"/>
<path d="M94.9409 134.509C95.782 134.188 96.2042 133.24 95.8835 132.396C95.5627 131.553 94.6169 131.13 93.7758 131.455C92.9347 131.78 92.5125 132.725 92.8332 133.568C93.1539 134.411 94.0998 134.834 94.9409 134.509Z" fill="#FBA819"/>
<path d="M99.0981 132.911C99.9392 132.59 100.361 131.642 100.041 130.798C99.7199 129.955 98.7741 129.532 97.9329 129.857C97.0918 130.182 96.6696 131.126 96.9904 131.97C97.3111 132.813 98.2569 133.236 99.0981 132.911Z" fill="#FBA819"/>
<path d="M95.5754 132.511C95.7586 132.987 96.2856 133.223 96.7601 133.043C97.2347 132.859 97.4703 132.331 97.2903 131.855C97.107 131.379 96.5801 131.143 96.1056 131.324C95.631 131.507 95.3953 132.039 95.5754 132.511Z" fill="white"/>
<path d="M91.5764 143.191C91.9625 144.199 93.0884 144.704 94.0932 144.317C95.098 143.93 95.602 142.801 95.2158 141.793C94.8296 140.786 93.7037 140.281 92.699 140.668C91.6942 141.055 91.1902 142.184 91.5764 143.191Z" fill="#FBA819"/>
<path d="M90.9053 140.757C91.226 141.6 92.1719 142.023 93.013 141.698C93.8541 141.373 94.2763 140.428 93.9556 139.585C93.6348 138.742 92.689 138.319 91.8479 138.644C91.0067 138.968 90.5845 139.913 90.9053 140.757Z" fill="#FBA819"/>
<path d="M92.4996 144.927C92.8203 145.77 93.7662 146.193 94.6073 145.869C95.4484 145.544 95.8706 144.599 95.5499 143.755C95.2291 142.912 94.2833 142.489 93.4422 142.814C92.601 143.139 92.1788 144.084 92.4996 144.927Z" fill="#FBA819"/>
<path d="M91.7334 144.586C92.5745 144.264 92.9967 143.316 92.676 142.473C92.3552 141.629 91.4094 141.206 90.5683 141.531C89.7271 141.856 89.3049 142.801 89.6257 143.644C89.9464 144.487 90.8922 144.91 91.7334 144.586Z" fill="#FBA819"/>
<path d="M95.8895 142.985C96.7307 142.663 97.1529 141.715 96.8321 140.872C96.5114 140.028 95.5655 139.605 94.7244 139.93C93.8833 140.255 93.4611 141.2 93.7818 142.043C94.1025 142.886 95.0484 143.309 95.8895 142.985Z" fill="#FBA819"/>
<path d="M92.3686 142.584C92.5518 143.06 93.0788 143.296 93.5533 143.116C94.0279 142.935 94.2635 142.404 94.0835 141.928C93.9003 141.452 93.3733 141.216 92.8988 141.396C92.4242 141.577 92.1886 142.112 92.3686 142.584Z" fill="white"/>
<path d="M94.8426 117.871C95.2288 118.878 96.3547 119.384 97.3594 118.997C98.3642 118.609 98.8682 117.481 98.482 116.473C98.0958 115.466 96.97 114.964 95.9652 115.348C94.9604 115.735 94.4564 116.864 94.8426 117.871Z" fill="#FBA819"/>
<path d="M94.1748 115.437C94.4955 116.28 95.4414 116.703 96.2825 116.378C97.1236 116.053 97.5458 115.108 97.2251 114.265C96.9043 113.422 95.9585 112.999 95.1174 113.323C94.2763 113.648 93.8541 114.593 94.1748 115.437Z" fill="#FBA819"/>
<path d="M95.7659 119.607C96.0866 120.45 97.0324 120.873 97.8736 120.548C98.7147 120.223 99.1369 119.278 98.8162 118.435C98.4954 117.592 97.5496 117.169 96.7085 117.494C95.8673 117.818 95.4451 118.763 95.7659 119.607Z" fill="#FBA819"/>
<path d="M94.999 119.262C95.8402 118.941 96.2624 117.992 95.9416 117.149C95.6209 116.306 94.675 115.883 93.8339 116.208C92.9928 116.532 92.5706 117.477 92.8913 118.321C93.212 119.164 94.1579 119.587 94.999 119.262Z" fill="#FBA819"/>
<path d="M99.156 117.668C99.9971 117.346 100.419 116.398 100.099 115.555C99.7778 114.711 98.832 114.288 97.9908 114.613C97.1497 114.938 96.7275 115.883 97.0483 116.726C97.369 117.569 98.3149 117.992 99.156 117.668Z" fill="#FBA819"/>
<path d="M95.6378 117.264C95.8211 117.74 96.348 117.976 96.8226 117.796C97.2971 117.615 97.5328 117.084 97.3528 116.608C97.1695 116.132 96.6426 115.896 96.168 116.076C95.6934 116.257 95.4578 116.791 95.6378 117.264Z" fill="white"/>
<path d="M84.939 109.652C85.3252 110.659 86.4511 111.164 87.4558 110.777C88.4606 110.39 88.9646 109.261 88.5784 108.254C88.1922 107.247 87.0664 106.745 86.0616 107.129C85.0568 107.516 84.5528 108.644 84.939 109.652Z" fill="#FBA819"/>
<path d="M84.2715 107.217C84.5923 108.06 85.5381 108.484 86.3792 108.159C87.2204 107.834 87.6426 106.889 87.3218 106.046C87.0011 105.203 86.0553 104.779 85.2141 105.104C84.373 105.429 83.9508 106.374 84.2715 107.217Z" fill="#FBA819"/>
<path d="M85.8651 111.388C86.1858 112.231 87.1316 112.654 87.9728 112.329C88.8139 112.004 89.2361 111.06 88.9153 110.216C88.5946 109.373 87.6488 108.95 86.8076 109.275C85.9665 109.599 85.5443 110.544 85.8651 111.388Z" fill="#FBA819"/>
<path d="M85.0961 111.046C85.9372 110.725 86.3594 109.777 86.0387 108.933C85.7179 108.09 84.7721 107.667 83.9309 107.992C83.0898 108.316 82.6676 109.262 82.9883 110.105C83.3091 110.948 84.255 111.371 85.0961 111.046Z" fill="#FBA819"/>
<path d="M89.2553 109.448C90.0965 109.127 90.5187 108.179 90.1979 107.335C89.8772 106.492 88.9313 106.069 88.0902 106.394C87.2491 106.719 86.8269 107.663 87.1477 108.507C87.4684 109.35 88.4142 109.773 89.2553 109.448Z" fill="#FBA819"/>
<path d="M85.7342 109.045C85.9175 109.521 86.4444 109.757 86.919 109.576C87.3936 109.396 87.6292 108.865 87.4492 108.389C87.2659 107.913 86.739 107.677 86.2644 107.857C85.7899 108.038 85.5542 108.572 85.7342 109.045Z" fill="white"/>
<path d="M106.779 111.735C107.165 112.743 108.291 113.248 109.296 112.861C110.301 112.474 110.805 111.345 110.418 110.338C110.032 109.33 108.906 108.825 107.902 109.212C106.897 109.599 106.396 110.728 106.779 111.735Z" fill="#FBA819"/>
<path d="M106.11 109.301C106.431 110.144 107.377 110.567 108.218 110.242C109.059 109.918 109.481 108.973 109.161 108.129C108.84 107.286 107.894 106.863 107.053 107.188C106.212 107.512 105.79 108.457 106.11 109.301Z" fill="#FBA819"/>
<path d="M107.701 113.471C108.022 114.314 108.968 114.738 109.809 114.413C110.65 114.088 111.072 113.143 110.752 112.3C110.431 111.457 109.485 111.033 108.644 111.358C107.803 111.683 107.381 112.628 107.701 113.471Z" fill="#FBA819"/>
<path d="M106.936 113.13C107.777 112.808 108.199 111.86 107.879 111.017C107.558 110.174 106.612 109.75 105.771 110.075C104.93 110.4 104.507 111.345 104.828 112.188C105.149 113.031 106.095 113.455 106.936 113.13Z" fill="#FBA819"/>
<path d="M111.096 111.532C111.937 111.21 112.359 110.262 112.038 109.419C111.717 108.575 110.772 108.152 109.931 108.477C109.089 108.802 108.667 109.747 108.988 110.59C109.309 111.433 110.254 111.856 111.096 111.532Z" fill="#FBA819"/>
<path d="M107.574 111.132C107.757 111.608 108.284 111.844 108.759 111.663C109.233 111.483 109.469 110.951 109.289 110.476C109.106 110 108.579 109.764 108.104 109.944C107.63 110.124 107.394 110.656 107.574 111.132Z" fill="white"/>
<path d="M99.7191 100.455C100.105 101.462 101.231 101.968 102.236 101.581C103.241 101.193 103.745 100.065 103.358 99.0572C102.972 98.0499 101.846 97.548 100.842 97.9319C99.8369 98.3191 99.3329 99.4478 99.7191 100.455Z" fill="#FBA819"/>
<path d="M99.0512 98.0204C99.3719 98.8636 100.318 99.2869 101.159 98.9621C102 98.6373 102.422 97.6922 102.101 96.8489C101.781 96.0057 100.835 95.5826 99.9937 95.9074C99.1526 96.2322 98.7304 97.1772 99.0512 98.0204Z" fill="#FBA819"/>
<path d="M100.645 102.187C100.966 103.031 101.912 103.454 102.753 103.129C103.594 102.804 104.016 101.859 103.696 101.016C103.375 100.173 102.429 99.7495 101.588 100.074C100.747 100.399 100.325 101.344 100.645 102.187Z" fill="#FBA819"/>
<path d="M99.8792 101.846C100.72 101.524 101.143 100.576 100.822 99.733C100.501 98.8897 99.5552 98.4666 98.7141 98.7914C97.8729 99.1163 97.4507 100.061 97.7715 100.904C98.0922 101.748 99.0381 102.171 99.8792 101.846Z" fill="#FBA819"/>
<path d="M104.039 100.248C104.88 99.9267 105.302 98.9785 104.982 98.1352C104.661 97.292 103.715 96.8687 102.874 97.1935C102.033 97.5183 101.611 98.4633 101.931 99.3065C102.252 100.15 103.198 100.573 104.039 100.248Z" fill="#FBA819"/>
<path d="M100.514 99.8478C100.697 100.324 101.224 100.56 101.698 100.379C102.173 100.199 102.409 99.6674 102.229 99.1916C102.045 98.7158 101.518 98.4796 101.044 98.66C100.569 98.8405 100.334 99.3753 100.514 99.8478Z" fill="white"/>
<path d="M96.3015 160.22C96.3015 160.633 96.6353 160.971 97.051 160.971C97.4666 160.971 97.8005 160.637 97.8005 160.22C97.8005 159.803 97.4666 159.469 97.051 159.469C96.6353 159.469 96.3015 159.803 96.3015 160.22Z" fill="#FBA819"/>
<path d="M90.8826 171.727C90.8826 172.14 91.2164 172.478 91.6321 172.478C92.0477 172.478 92.3816 172.143 92.3816 171.727C92.3816 171.31 92.0477 170.975 91.6321 170.975C91.2164 170.975 90.8826 171.31 90.8826 171.727Z" fill="#FBA819"/>
<path d="M101.889 177.436C102.303 177.436 102.638 177.1 102.638 176.685C102.638 176.27 102.303 175.933 101.889 175.933C101.475 175.933 101.139 176.27 101.139 176.685C101.139 177.1 101.475 177.436 101.889 177.436Z" fill="#FBA819"/>
<path d="M111.263 172.478C111.676 172.478 112.012 172.142 112.012 171.727C112.012 171.312 111.676 170.975 111.263 170.975C110.849 170.975 110.513 171.312 110.513 171.727C110.513 172.142 110.849 172.478 111.263 172.478Z" fill="#FBA819"/>
<path d="M89.1114 157.815C89.1114 158.228 89.4452 158.566 89.8608 158.566C90.2765 158.566 90.6103 158.231 90.6103 157.815C90.6103 157.398 90.2765 157.063 89.8608 157.063C89.4452 157.063 89.1114 157.398 89.1114 157.815Z" fill="#FBA819"/>
<path d="M86.2609 168.705C86.6749 168.705 87.0104 168.368 87.0104 167.953C87.0104 167.538 86.6749 167.202 86.2609 167.202C85.847 167.202 85.5115 167.538 85.5115 167.953C85.5115 168.368 85.847 168.705 86.2609 168.705Z" fill="#FBA819"/>
<path d="M85.5152 178.2C85.5152 178.614 85.849 178.951 86.2647 178.951C86.6803 178.951 87.0142 178.617 87.0142 178.2C87.0142 177.783 86.6803 177.449 86.2647 177.449C85.849 177.449 85.5152 177.783 85.5152 178.2Z" fill="#FBA819"/>
<path d="M81.2178 182.807C81.2178 183.22 81.5517 183.558 81.9673 183.558C82.383 183.558 82.7168 183.223 82.7168 182.807C82.7168 182.39 82.383 182.056 81.9673 182.056C81.5517 182.056 81.2178 182.39 81.2178 182.807Z" fill="#FBA819"/>
<path d="M89.8612 182.482C89.8612 182.896 90.195 183.233 90.6107 183.233C91.0264 183.233 91.3602 182.899 91.3602 182.482C91.3602 182.065 91.0264 181.731 90.6107 181.731C90.195 181.731 89.8612 182.065 89.8612 182.482Z" fill="#FBA819"/>
<path d="M82.9424 158.032C83.3564 158.032 83.6919 157.695 83.6919 157.28C83.6919 156.865 83.3564 156.529 82.9424 156.529C82.5285 156.529 82.193 156.865 82.193 157.28C82.193 157.695 82.5285 158.032 82.9424 158.032Z" fill="#FBA819"/>
<path d="M91.2882 148.654C91.2882 149.068 91.6221 149.405 92.0377 149.405C92.4534 149.405 92.7872 149.071 92.7872 148.654C92.7872 148.237 92.4534 147.903 92.0377 147.903C91.6221 147.903 91.2882 148.237 91.2882 148.654Z" fill="#FBA819"/>
<path d="M98.7894 146.728C98.7894 147.141 99.1233 147.479 99.5389 147.479C99.9546 147.479 100.288 147.145 100.288 146.728C100.288 146.311 99.9546 145.977 99.5389 145.977C99.1233 145.977 98.7894 146.311 98.7894 146.728Z" fill="#FBA819"/>
<path d="M103.803 145.093C103.803 145.506 104.137 145.844 104.553 145.844C104.968 145.844 105.302 145.509 105.302 145.093C105.302 144.676 104.968 144.341 104.553 144.341C104.137 144.341 103.803 144.676 103.803 145.093Z" fill="#FBA819"/>
<path d="M103.803 159.469C103.803 159.882 104.137 160.22 104.552 160.22C104.968 160.22 105.302 159.885 105.302 159.469C105.302 159.052 104.968 158.717 104.552 158.717C104.137 158.717 103.803 159.052 103.803 159.469Z" fill="#FBA819"/>
<path d="M108.346 157.28C108.346 157.694 108.68 158.032 109.096 158.032C109.511 158.032 109.845 157.697 109.845 157.28C109.845 156.863 109.511 156.529 109.096 156.529C108.68 156.529 108.346 156.863 108.346 157.28Z" fill="#FBA819"/>
<path d="M104.504 152.894C104.504 153.308 104.838 153.646 105.254 153.646C105.669 153.646 106.003 153.311 106.003 152.894C106.003 152.478 105.669 152.143 105.254 152.143C104.838 152.143 104.504 152.478 104.504 152.894Z" fill="#FBA819"/>
<path d="M93.6088 109.833C94.0228 109.833 94.3583 109.497 94.3583 109.082C94.3583 108.667 94.0228 108.331 93.6088 108.331C93.1949 108.331 92.8594 108.667 92.8594 109.082C92.8594 109.497 93.1949 109.833 93.6088 109.833Z" fill="#FBA819"/>
<path d="M88.9748 118.439C89.3887 118.439 89.7242 118.102 89.7242 117.687C89.7242 117.272 89.3887 116.936 88.9748 116.936C88.5608 116.936 88.2253 117.272 88.2253 117.687C88.2253 118.102 88.5608 118.439 88.9748 118.439Z" fill="#FBA819"/>
<path d="M97.113 105.173C97.113 105.587 97.4468 105.925 97.8625 105.925C98.2781 105.925 98.612 105.59 98.612 105.173C98.612 104.756 98.2781 104.422 97.8625 104.422C97.4468 104.422 97.113 104.756 97.113 105.173Z" fill="#FBA819"/>
<path d="M99.5358 111.64C99.5358 112.054 99.8696 112.392 100.285 112.392C100.701 112.392 101.035 112.057 101.035 111.64C101.035 111.223 100.701 110.889 100.285 110.889C99.8696 110.889 99.5358 111.223 99.5358 111.64Z" fill="#FBA819"/>
<path d="M107.986 117.239C107.986 117.652 108.32 117.99 108.735 117.99C109.151 117.99 109.485 117.656 109.485 117.239C109.485 116.822 109.151 116.488 108.735 116.488C108.32 116.488 107.986 116.822 107.986 117.239Z" fill="#FBA819"/>
<path d="M106.847 101.492C106.847 101.905 107.181 102.243 107.597 102.243C108.012 102.243 108.346 101.909 108.346 101.492C108.346 101.075 108.012 100.74 107.597 100.74C107.181 100.74 106.847 101.075 106.847 101.492Z" fill="#FBA819"/>
<path d="M110.513 104.995C110.513 105.408 110.847 105.746 111.263 105.746C111.678 105.746 112.012 105.411 112.012 104.995C112.012 104.578 111.678 104.243 111.263 104.243C110.847 104.243 110.513 104.578 110.513 104.995Z" fill="#FBA819"/>
<path d="M113.691 113.637C113.691 114.05 114.025 114.388 114.44 114.388C114.856 114.388 115.19 114.053 115.19 113.637C115.19 113.22 114.856 112.885 114.44 112.885C114.025 112.885 113.691 113.22 113.691 113.637Z" fill="#FBA819"/>
<path d="M103.97 106.676C104.384 106.676 104.72 106.339 104.72 105.924C104.72 105.51 104.384 105.173 103.97 105.173C103.556 105.173 103.221 105.51 103.221 105.924C103.221 106.339 103.556 106.676 103.97 106.676Z" fill="#FBA819"/>
<path d="M91.5587 102.462C91.5587 102.876 91.8925 103.214 92.3082 103.214C92.7238 103.214 93.0576 102.879 93.0576 102.462C93.0576 102.045 92.7238 101.711 92.3082 101.711C91.8925 101.711 91.5587 102.045 91.5587 102.462Z" fill="#FBA819"/>
<path d="M86.3154 101.955C86.3154 102.369 86.6492 102.707 87.0649 102.707C87.4805 102.707 87.8144 102.372 87.8144 101.955C87.8144 101.539 87.4805 101.204 87.0649 101.204C86.6492 101.204 86.3154 101.539 86.3154 101.955Z" fill="#FBA819"/>
<path d="M83.8915 117.858C83.8915 118.271 84.2253 118.609 84.641 118.609C85.0566 118.609 85.3905 118.275 85.3905 117.858C85.3905 117.441 85.0566 117.107 84.641 117.107C84.2253 117.107 83.8915 117.441 83.8915 117.858Z" fill="#FBA819"/>
<path d="M99.2638 139.287C99.6777 139.287 100.013 138.95 100.013 138.535C100.013 138.12 99.6777 137.784 99.2638 137.784C98.8499 137.784 98.5143 138.12 98.5143 138.535C98.5143 138.95 98.8499 139.287 99.2638 139.287Z" fill="#FBA819"/>
<path d="M104.72 139.287C105.134 139.287 105.469 138.95 105.469 138.535C105.469 138.12 105.134 137.784 104.72 137.784C104.306 137.784 103.97 138.12 103.97 138.535C103.97 138.95 104.306 139.287 104.72 139.287Z" fill="#FBA819"/>
<path d="M104.504 133.168C104.918 133.168 105.254 132.832 105.254 132.417C105.254 132.002 104.918 131.665 104.504 131.665C104.09 131.665 103.755 132.002 103.755 132.417C103.755 132.832 104.09 133.168 104.504 133.168Z" fill="#FBA819"/>
<path d="M87.6127 129.315C87.6127 129.729 87.9466 130.067 88.3622 130.067C88.7779 130.067 89.1117 129.732 89.1117 129.315C89.1117 128.899 88.7779 128.564 88.3622 128.564C87.9466 128.564 87.6127 128.899 87.6127 129.315Z" fill="#FBA819"/>
<path d="M87.6127 136.052C87.6127 136.465 87.9466 136.803 88.3622 136.803C88.7779 136.803 89.1117 136.468 89.1117 136.052C89.1117 135.635 88.7779 135.3 88.3622 135.3C87.9466 135.3 87.6127 135.635 87.6127 136.052Z" fill="#FBA819"/>
<path d="M105.604 178.952C105.604 179.365 105.938 179.703 106.353 179.703C106.769 179.703 107.103 179.368 107.103 178.952C107.103 178.535 106.769 178.2 106.353 178.2C105.938 178.2 105.604 178.535 105.604 178.952Z" fill="#FBA819"/>
<path d="M112.544 180.176C112.544 180.589 112.878 180.927 113.293 180.927C113.709 180.927 114.043 180.593 114.043 180.176C114.043 179.759 113.709 179.425 113.293 179.425C112.878 179.425 112.544 179.759 112.544 180.176Z" fill="#FBA819"/>
<path d="M105.505 168.203C105.505 168.616 105.839 168.954 106.255 168.954C106.671 168.954 107.004 168.619 107.004 168.203C107.004 167.786 106.671 167.451 106.255 167.451C105.839 167.451 105.505 167.786 105.505 168.203Z" fill="#FBA819"/>
<path d="M109.629 163.88C109.629 164.293 109.963 164.631 110.379 164.631C110.795 164.631 111.128 164.296 111.128 163.88C111.128 163.463 110.795 163.128 110.379 163.128C109.963 163.128 109.629 163.463 109.629 163.88Z" fill="#FBA819"/>
<path d="M77.1199 179.513C78.1953 179.513 79.0672 178.638 79.0672 177.56C79.0672 176.482 78.1953 175.608 77.1199 175.608C76.0444 175.608 75.1725 176.482 75.1725 177.56C75.1725 178.638 76.0444 179.513 77.1199 179.513Z" fill="#FBA819"/>
<path d="M78.8218 175.047C78.8218 175.953 78.092 176.685 77.1887 176.685C76.2854 176.685 75.5555 175.953 75.5555 175.047C75.5555 174.142 76.2854 173.41 77.1887 173.41C78.092 173.41 78.8218 174.142 78.8218 175.047Z" fill="#FBA819"/>
<path d="M78.8218 179.513C78.8218 180.418 78.092 181.15 77.1887 181.15C76.2854 181.15 75.5555 180.418 75.5555 179.513C75.5555 178.607 76.2854 177.875 77.1887 177.875C78.092 177.875 78.8218 178.607 78.8218 179.513Z" fill="#FBA819"/>
<path d="M79.4171 178.919C78.5138 178.919 77.7839 178.187 77.7839 177.281C77.7839 176.376 78.5138 175.644 79.4171 175.644C80.3204 175.644 81.0503 176.376 81.0503 177.281C81.0503 178.187 80.3204 178.919 79.4171 178.919Z" fill="#FBA819"/>
<path d="M74.9627 178.919C74.0594 178.919 73.3296 178.187 73.3296 177.281C73.3296 176.376 74.0594 175.644 74.9627 175.644C75.866 175.644 76.5959 176.376 76.5959 177.281C76.5959 178.187 75.866 178.919 74.9627 178.919Z" fill="#FBA819"/>
<path d="M77.1882 178.2C77.6962 178.2 78.1079 177.787 78.1079 177.278C78.1079 176.769 77.6962 176.356 77.1882 176.356C76.6803 176.356 76.2686 176.769 76.2686 177.278C76.2686 177.787 76.6803 178.2 77.1882 178.2Z" fill="white"/>
<path d="M73.0356 169.446C72.4596 170.359 71.2585 170.628 70.3486 170.05C69.4388 169.473 69.1704 168.268 69.7464 167.356C70.3224 166.444 71.5236 166.175 72.4334 166.753C73.3433 167.33 73.6116 168.534 73.0356 169.446Z" fill="#FBA819"/>
<path d="M74.168 167.189C73.6869 167.953 72.6788 168.18 71.913 167.697C71.1504 167.215 70.9246 166.204 71.4057 165.437C71.8868 164.672 72.8948 164.446 73.6607 164.928C74.4232 165.411 74.6491 166.421 74.168 167.189Z" fill="#FBA819"/>
<path d="M71.7856 170.965C71.3045 171.73 70.2964 171.956 69.5306 171.474C68.768 170.992 68.5422 169.981 69.0233 169.213C69.5044 168.449 70.5124 168.222 71.2783 168.705C72.0408 169.187 72.2667 170.198 71.7856 170.965Z" fill="#FBA819"/>
<path d="M72.6035 170.778C71.8409 170.296 71.6151 169.285 72.0962 168.518C72.5773 167.753 73.5853 167.527 74.3512 168.009C75.1137 168.491 75.3396 169.502 74.8585 170.27C74.3774 171.034 73.3693 171.261 72.6035 170.778Z" fill="#FBA819"/>
<path d="M68.843 168.393C68.0805 167.911 67.8546 166.9 68.3357 166.132C68.8168 165.368 69.8249 165.142 70.5907 165.624C71.3533 166.106 71.5791 167.117 71.098 167.884C70.6169 168.649 69.6089 168.875 68.843 168.393Z" fill="#FBA819"/>
<path d="M72.3714 168.695C72.0998 169.125 71.5336 169.253 71.1048 168.981C70.6761 168.708 70.5485 168.141 70.8201 167.711C71.0918 167.281 71.658 167.153 72.0867 167.425C72.5154 167.698 72.6431 168.265 72.3714 168.695Z" fill="white"/>
<path d="M81.833 163.514C82.2225 164.522 81.725 165.65 80.7203 166.041C79.7155 166.431 78.5896 165.932 78.2002 164.925C77.8107 163.918 78.3082 162.789 79.3129 162.399C80.3177 162.008 81.4435 162.507 81.833 163.514Z" fill="#FBA819"/>
<path d="M80.6975 161.26C81.0248 162.103 80.6058 163.051 79.7647 163.38C78.9236 163.708 77.9778 163.288 77.6505 162.445C77.3232 161.601 77.7421 160.653 78.5832 160.325C79.4243 159.997 80.3702 160.417 80.6975 161.26Z" fill="#FBA819"/>
<path d="M82.3112 165.424C82.6385 166.267 82.2196 167.215 81.3785 167.543C80.5373 167.871 79.5915 167.452 79.2642 166.608C78.9369 165.765 79.3558 164.817 80.1969 164.489C81.0381 164.161 81.9839 164.58 82.3112 165.424Z" fill="#FBA819"/>
<path d="M82.6482 164.656C81.8071 164.984 80.8612 164.564 80.534 163.721C80.2067 162.877 80.6256 161.929 81.4667 161.601C82.3078 161.273 83.2537 161.693 83.581 162.536C83.9083 163.38 83.4894 164.328 82.6482 164.656Z" fill="#FBA819"/>
<path d="M78.4984 166.27C77.6572 166.598 76.7114 166.178 76.3841 165.335C76.0568 164.492 76.4757 163.543 77.3169 163.215C78.158 162.887 79.1038 163.307 79.4311 164.15C79.7584 164.994 79.3395 165.942 78.4984 166.27Z" fill="#FBA819"/>
<path d="M80.8381 163.603C81.0214 164.078 80.7858 164.61 80.3145 164.794C79.8399 164.977 79.3097 164.741 79.1264 164.269C78.9431 163.796 79.1788 163.261 79.6501 163.078C80.1246 162.894 80.6548 163.13 80.8381 163.603Z" fill="white"/>
<path d="M76.8256 155.029C76.4394 156.037 75.3136 156.538 74.3088 156.155C73.304 155.767 72.8033 154.639 73.1862 153.631C73.5724 152.624 74.6983 152.119 75.703 152.506C76.7078 152.893 77.2118 154.022 76.8256 155.029Z" fill="#FBA819"/>
<path d="M77.4931 152.595C77.1723 153.438 76.2265 153.861 75.3853 153.536C74.5442 153.211 74.122 152.266 74.4428 151.423C74.7635 150.58 75.7094 150.157 76.5505 150.481C77.3916 150.806 77.8138 151.751 77.4931 152.595Z" fill="#FBA819"/>
<path d="M75.8993 156.765C75.5786 157.608 74.6328 158.031 73.7916 157.707C72.9505 157.382 72.5283 156.437 72.8491 155.594C73.1698 154.75 74.1157 154.327 74.9568 154.652C75.7979 154.977 76.2201 155.922 75.8993 156.765Z" fill="#FBA819"/>
<path d="M76.6684 156.42C75.8272 156.099 75.405 155.151 75.7258 154.307C76.0465 153.464 76.9923 153.041 77.8335 153.366C78.6746 153.691 79.0968 154.636 78.7761 155.479C78.4553 156.322 77.5095 156.745 76.6684 156.42Z" fill="#FBA819"/>
<path d="M72.5086 154.826C71.6675 154.504 71.2453 153.556 71.566 152.713C71.8868 151.87 72.8327 151.446 73.6738 151.771C74.5149 152.096 74.9371 153.041 74.6164 153.884C74.2956 154.727 73.3497 155.151 72.5086 154.826Z" fill="#FBA819"/>
<path d="M76.0303 154.422C75.847 154.898 75.32 155.134 74.8455 154.954C74.3709 154.77 74.1353 154.242 74.3153 153.766C74.4986 153.29 75.0255 153.054 75.5001 153.235C75.9746 153.418 76.2103 153.947 76.0303 154.422Z" fill="white"/>
<path d="M77.2705 133.115C76.8843 134.122 75.7584 134.627 74.7536 134.24C73.7488 133.853 73.2448 132.724 73.631 131.717C74.0172 130.71 75.1431 130.208 76.1478 130.592C77.1526 130.979 77.6566 132.108 77.2705 133.115Z" fill="#FBA819"/>
<path d="M77.9412 130.683C77.6205 131.527 76.6746 131.95 75.8335 131.625C74.9923 131.3 74.5701 130.355 74.8909 129.512C75.2116 128.669 76.1575 128.246 76.9986 128.57C77.8397 128.895 78.2619 129.84 77.9412 130.683Z" fill="#FBA819"/>
<path d="M76.3475 134.851C76.0268 135.694 75.0809 136.117 74.2398 135.792C73.3986 135.467 72.9764 134.522 73.2972 133.679C73.6179 132.836 74.5638 132.413 75.4049 132.738C76.246 133.062 76.6682 134.007 76.3475 134.851Z" fill="#FBA819"/>
<path d="M77.1135 134.509C76.2724 134.188 75.8502 133.24 76.171 132.396C76.4917 131.553 77.4375 131.13 78.2787 131.455C79.1198 131.78 79.542 132.725 79.2212 133.568C78.9005 134.411 77.9547 134.834 77.1135 134.509Z" fill="#FBA819"/>
<path d="M72.9533 132.911C72.1122 132.59 71.69 131.642 72.0108 130.798C72.3315 129.955 73.2773 129.532 74.1184 129.857C74.9596 130.182 75.3818 131.126 75.061 131.97C74.7403 132.813 73.7944 133.236 72.9533 132.911Z" fill="#FBA819"/>
<path d="M76.4754 132.511C76.2922 132.987 75.762 133.223 75.2907 133.043C74.8161 132.859 74.5805 132.331 74.7605 131.855C74.9438 131.379 75.4707 131.143 75.9452 131.324C76.4198 131.507 76.6554 132.039 76.4754 132.511Z" fill="white"/>
<path d="M80.478 143.191C80.0918 144.199 78.966 144.704 77.9612 144.317C76.9564 143.93 76.4524 142.801 76.8386 141.793C77.2248 140.786 78.3507 140.281 79.3554 140.668C80.3602 141.055 80.8642 142.184 80.478 143.191Z" fill="#FBA819"/>
<path d="M81.1453 140.757C80.8246 141.6 79.8787 142.023 79.0376 141.698C78.1965 141.373 77.7743 140.428 78.095 139.585C78.4158 138.742 79.3616 138.319 80.2027 138.644C81.0439 138.968 81.4661 139.913 81.1453 140.757Z" fill="#FBA819"/>
<path d="M79.5516 144.927C79.2309 145.77 78.2851 146.193 77.4439 145.869C76.6028 145.544 76.1806 144.599 76.5013 143.755C76.8221 142.912 77.7679 142.489 78.609 142.814C79.4502 143.139 79.8724 144.084 79.5516 144.927Z" fill="#FBA819"/>
<path d="M80.3174 144.586C79.4762 144.264 79.0541 143.316 79.3748 142.473C79.6956 141.629 80.6414 141.206 81.4825 141.531C82.3236 141.856 82.7458 142.801 82.4251 143.644C82.1044 144.487 81.1585 144.91 80.3174 144.586Z" fill="#FBA819"/>
<path d="M76.1614 142.985C75.3203 142.663 74.8981 141.715 75.2188 140.872C75.5396 140.028 76.4854 139.605 77.3266 139.93C78.1677 140.255 78.5899 141.2 78.2691 142.043C77.9484 142.886 77.0025 143.309 76.1614 142.985Z" fill="#FBA819"/>
<path d="M79.6826 142.584C79.4993 143.06 78.9691 143.296 78.4978 143.116C78.0233 142.932 77.7876 142.404 77.9676 141.928C78.1509 141.452 78.6778 141.216 79.1524 141.396C79.627 141.577 79.8626 142.112 79.6826 142.584Z" fill="white"/>
<path d="M77.2111 117.871C76.8249 118.878 75.6991 119.384 74.6943 118.997C73.6896 118.609 73.1855 117.481 73.5717 116.473C73.9579 115.466 75.0838 114.964 76.0886 115.348C77.0933 115.735 77.5973 116.864 77.2111 117.871Z" fill="#FBA819"/>
<path d="M77.879 115.437C77.5583 116.28 76.6124 116.703 75.7713 116.378C74.9302 116.053 74.508 115.108 74.8287 114.265C75.1495 113.422 76.0953 112.999 76.9364 113.323C77.7776 113.648 78.1998 114.593 77.879 115.437Z" fill="#FBA819"/>
<path d="M76.2854 119.607C75.9646 120.45 75.0188 120.873 74.1777 120.548C73.3366 120.223 72.9144 119.278 73.2351 118.435C73.5559 117.592 74.5017 117.169 75.3428 117.494C76.1839 117.818 76.6061 118.763 76.2854 119.607Z" fill="#FBA819"/>
<path d="M77.0511 119.262C76.21 118.941 75.7878 117.992 76.1085 117.149C76.4293 116.306 77.3751 115.883 78.2163 116.208C79.0574 116.532 79.4796 117.477 79.1588 118.321C78.8381 119.164 77.8922 119.587 77.0511 119.262Z" fill="#FBA819"/>
<path d="M72.8953 117.668C72.0542 117.346 71.632 116.398 71.9527 115.555C72.2734 114.711 73.2193 114.288 74.0604 114.613C74.9015 114.938 75.3237 115.883 75.003 116.726C74.6822 117.569 73.7364 117.992 72.8953 117.668Z" fill="#FBA819"/>
<path d="M76.4163 117.264C76.233 117.74 75.7028 117.976 75.2315 117.796C74.757 117.612 74.5213 117.084 74.7013 116.608C74.8846 116.132 75.4115 115.896 75.8861 116.076C76.3607 116.257 76.5963 116.791 76.4163 117.264Z" fill="white"/>
<path d="M65.2755 111.735C64.8893 112.743 63.7635 113.248 62.7587 112.861C61.7539 112.474 61.2499 111.345 61.6361 110.338C62.0223 109.33 63.1482 108.825 64.1529 109.212C65.1577 109.599 65.6617 110.728 65.2755 111.735Z" fill="#FBA819"/>
<path d="M65.9434 109.301C65.6227 110.144 64.6768 110.567 63.8357 110.242C62.9946 109.918 62.5724 108.973 62.8931 108.129C63.2139 107.286 64.1597 106.863 65.0009 107.188C65.842 107.512 66.2642 108.457 65.9434 109.301Z" fill="#FBA819"/>
<path d="M64.3498 113.471C64.029 114.314 63.0831 114.738 62.242 114.413C61.4009 114.088 60.9787 113.143 61.2994 112.3C61.6202 111.457 62.5661 111.033 63.4072 111.358C64.2483 111.683 64.6705 112.628 64.3498 113.471Z" fill="#FBA819"/>
<path d="M65.1152 113.13C64.2741 112.808 63.8519 111.86 64.1726 111.017C64.4934 110.174 65.4392 109.75 66.2803 110.075C67.1215 110.4 67.5437 111.345 67.2229 112.188C66.9022 113.031 65.9563 113.455 65.1152 113.13Z" fill="#FBA819"/>
<path d="M60.9555 111.532C60.1143 111.21 59.6921 110.262 60.0129 109.419C60.3336 108.575 61.2795 108.152 62.1206 108.477C62.9617 108.802 63.3839 109.747 63.0632 110.59C62.7424 111.433 61.7966 111.856 60.9555 111.532Z" fill="#FBA819"/>
<path d="M64.4771 111.132C64.2938 111.608 63.7669 111.844 63.2923 111.663C62.8178 111.483 62.5821 110.951 62.7621 110.476C62.9454 110 63.4756 109.764 63.9469 109.944C64.4215 110.128 64.6571 110.656 64.4771 111.132Z" fill="white"/>
<path d="M72.3317 100.455C71.9455 101.462 70.8197 101.968 69.8149 101.581C68.8101 101.193 68.3061 100.065 68.6923 99.0572C69.0785 98.0499 70.2044 97.548 71.2091 97.9319C72.2139 98.3191 72.7179 99.4478 72.3317 100.455Z" fill="#FBA819"/>
<path d="M72.9995 98.0204C72.6788 98.8636 71.7329 99.2869 70.8918 98.9621C70.0507 98.6373 69.6285 97.6922 69.9492 96.8489C70.27 96.0057 71.2158 95.5826 72.0569 95.9074C72.898 96.2322 73.3202 97.1772 72.9995 98.0204Z" fill="#FBA819"/>
<path d="M71.4059 102.187C71.0852 103.031 70.1394 103.454 69.2982 103.129C68.4571 102.804 68.0349 101.859 68.3557 101.016C68.6764 100.173 69.6222 99.7495 70.4634 100.074C71.3045 100.399 71.7267 101.344 71.4059 102.187Z" fill="#FBA819"/>
<path d="M72.1746 101.846C71.3335 101.524 70.9113 100.576 71.2321 99.733C71.5528 98.8897 72.4986 98.4666 73.3398 98.7914C74.1809 99.1163 74.6031 100.061 74.2823 100.904C73.9616 101.748 73.0158 102.171 72.1746 101.846Z" fill="#FBA819"/>
<path d="M68.0115 100.248C67.1704 99.9267 66.7482 98.9785 67.0689 98.1352C67.3897 97.292 68.3355 96.8687 69.1766 97.1935C70.0178 97.5183 70.44 98.4633 70.1192 99.3065C69.7985 100.15 68.8526 100.573 68.0115 100.248Z" fill="#FBA819"/>
<path d="M71.5361 99.8478C71.3528 100.324 70.8226 100.56 70.3513 100.379C69.8768 100.196 69.6411 99.6674 69.8211 99.1916C70.0044 98.7158 70.5313 98.4796 71.0059 98.66C71.4805 98.8405 71.7161 99.3753 71.5361 99.8478Z" fill="white"/>
<path d="M86.4607 150.621C86.0745 151.628 84.9486 152.133 83.9439 151.746C82.9391 151.359 82.4351 150.23 82.8213 149.223C83.2075 148.216 84.3333 147.711 85.3381 148.098C86.3429 148.485 86.8469 149.614 86.4607 150.621Z" fill="#FBA819"/>
<path d="M88.4708 148.871C88.15 149.714 87.2042 150.137 86.3631 149.813C85.5219 149.488 85.0997 148.543 85.4205 147.699C85.7412 146.856 86.687 146.433 87.5282 146.758C88.3693 147.083 88.7915 148.028 88.4708 148.871Z" fill="#FBA819"/>
<path d="M86.8729 153.041C86.5522 153.884 85.6063 154.307 84.7652 153.983C83.9241 153.658 83.5019 152.713 83.8226 151.87C84.1434 151.026 85.0892 150.603 85.9303 150.928C86.7715 151.253 87.1937 152.198 86.8729 153.041Z" fill="#FBA819"/>
<path d="M87.6427 152.7C86.8016 152.378 86.3794 151.43 86.7001 150.587C87.0209 149.744 87.9668 149.32 88.8079 149.645C89.649 149.97 90.0712 150.915 89.7505 151.758C89.4297 152.601 88.4838 153.025 87.6427 152.7Z" fill="#FBA819"/>
<path d="M87.0045 150.702C86.8212 151.177 86.291 151.413 85.8197 151.233C85.3452 151.049 85.1095 150.521 85.2895 150.045C85.4728 149.57 85.9997 149.333 86.4743 149.514C86.9489 149.694 87.1845 150.226 87.0045 150.702Z" fill="white"/>
<path d="M75.7486 160.22C75.7486 160.633 75.4147 160.971 74.9991 160.971C74.5834 160.971 74.2496 160.637 74.2496 160.22C74.2496 159.803 74.5834 159.469 74.9991 159.469C75.4147 159.469 75.7486 159.803 75.7486 160.22Z" fill="#FBA819"/>
<path d="M80.4225 172.478C80.8364 172.478 81.172 172.142 81.172 171.727C81.172 171.312 80.8364 170.975 80.4225 170.975C80.0085 170.975 79.673 171.312 79.673 171.727C79.673 172.142 80.0085 172.478 80.4225 172.478Z" fill="#FBA819"/>
<path d="M70.4628 175.641C70.4628 176.054 70.129 176.392 69.7133 176.392C69.2976 176.392 68.9638 176.058 68.9638 175.641C68.9638 175.224 69.2976 174.89 69.7133 174.89C70.129 174.89 70.4628 175.224 70.4628 175.641Z" fill="#FBA819"/>
<path d="M70.4628 181.679C70.4628 182.092 70.129 182.43 69.7133 182.43C69.2976 182.43 68.9638 182.095 68.9638 181.679C68.9638 181.262 69.2976 180.927 69.7133 180.927C70.129 180.927 70.4628 181.262 70.4628 181.679Z" fill="#FBA819"/>
<path d="M65.5642 164.971C65.5642 165.385 65.2304 165.722 64.8147 165.722C64.3991 165.722 64.0652 165.388 64.0652 164.971C64.0652 164.554 64.3991 164.22 64.8147 164.22C65.2304 164.22 65.5642 164.554 65.5642 164.971Z" fill="#FBA819"/>
<path d="M64.3235 171.106C64.3235 171.519 63.9897 171.857 63.5741 171.857C63.1584 171.857 62.8246 171.522 62.8246 171.106C62.8246 170.689 63.1584 170.354 63.5741 170.354C63.9897 170.354 64.3235 170.689 64.3235 171.106Z" fill="#FBA819"/>
<path d="M80.4225 151.962C80.8364 151.962 81.172 151.625 81.172 151.21C81.172 150.795 80.8364 150.459 80.4225 150.459C80.0085 150.459 79.673 150.795 79.673 151.21C79.673 151.625 80.0085 151.962 80.4225 151.962Z" fill="#FBA819"/>
<path d="M73.2615 146.728C73.2615 147.141 72.9276 147.479 72.512 147.479C72.0963 147.479 71.7625 147.145 71.7625 146.728C71.7625 146.311 72.0963 145.977 72.512 145.977C72.9276 145.977 73.2615 146.311 73.2615 146.728Z" fill="#FBA819"/>
<path d="M68.2553 151.294C68.2553 151.707 67.9215 152.045 67.5058 152.045C67.0902 152.045 66.7563 151.71 66.7563 151.294C66.7563 150.877 67.0902 150.542 67.5058 150.542C67.9215 150.542 68.2553 150.877 68.2553 151.294Z" fill="#FBA819"/>
<path d="M68.8299 157.815C68.8299 158.228 68.4961 158.566 68.0804 158.566C67.6648 158.566 67.3309 158.231 67.3309 157.815C67.3309 157.398 67.6648 157.063 68.0804 157.063C68.4961 157.063 68.8299 157.398 68.8299 157.815Z" fill="#FBA819"/>
<path d="M79.5746 110.173C79.9885 110.173 80.3241 109.837 80.3241 109.422C80.3241 109.007 79.9885 108.671 79.5746 108.671C79.1607 108.671 78.8251 109.007 78.8251 109.422C78.8251 109.837 79.1607 110.173 79.5746 110.173Z" fill="#FBA819"/>
<path d="M75.6628 105.924C75.6628 106.338 75.329 106.676 74.9133 106.676C74.4977 106.676 74.1638 106.341 74.1638 105.924C74.1638 105.508 74.4977 105.173 74.9133 105.173C75.329 105.173 75.6628 105.508 75.6628 105.924Z" fill="#FBA819"/>
<path d="M71.7656 112.392C72.1795 112.392 72.5151 112.055 72.5151 111.64C72.5151 111.225 72.1795 110.889 71.7656 110.889C71.3517 110.889 71.0161 111.225 71.0161 111.64C71.0161 112.055 71.3517 112.392 71.7656 112.392Z" fill="#FBA819"/>
<path d="M66.155 117.777C66.5689 117.777 66.9044 117.441 66.9044 117.026C66.9044 116.611 66.5689 116.274 66.155 116.274C65.741 116.274 65.4055 116.611 65.4055 117.026C65.4055 117.441 65.741 117.777 66.155 117.777Z" fill="#FBA819"/>
<path d="M65.2071 101.492C65.2071 101.905 64.8733 102.243 64.4576 102.243C64.042 102.243 63.7081 101.909 63.7081 101.492C63.7081 101.075 64.042 100.74 64.4576 100.74C64.8733 100.74 65.2071 101.075 65.2071 101.492Z" fill="#FBA819"/>
<path d="M59.3741 115.14C59.3741 115.553 59.0402 115.891 58.6246 115.891C58.2089 115.891 57.8751 115.556 57.8751 115.14C57.8751 114.723 58.2089 114.388 58.6246 114.388C59.0402 114.388 59.3741 114.723 59.3741 115.14Z" fill="#FBA819"/>
<path d="M68.0804 106.676C68.4944 106.676 68.8299 106.339 68.8299 105.924C68.8299 105.51 68.4944 105.173 68.0804 105.173C67.6665 105.173 67.3309 105.51 67.3309 105.924C67.3309 106.339 67.6665 106.676 68.0804 106.676Z" fill="#FBA819"/>
<path d="M80.1573 102.995C80.1573 103.408 79.8235 103.746 79.4078 103.746C78.9922 103.746 78.6583 103.411 78.6583 102.995C78.6583 102.578 78.9922 102.243 79.4078 102.243C79.8235 102.243 80.1573 102.578 80.1573 102.995Z" fill="#FBA819"/>
<path d="M73.533 138.535C73.533 138.949 73.1992 139.287 72.7836 139.287C72.3679 139.287 72.0341 138.952 72.0341 138.535C72.0341 138.118 72.3679 137.784 72.7836 137.784C73.1992 137.784 73.533 138.118 73.533 138.535Z" fill="#FBA819"/>
<path d="M69.4431 134.619C69.4431 135.032 69.1093 135.37 68.6936 135.37C68.278 135.37 67.9442 135.036 67.9442 134.619C67.9442 134.202 68.278 133.867 68.6936 133.867C69.1093 133.867 69.4431 134.202 69.4431 134.619Z" fill="#FBA819"/>
<path d="M69.4431 143.058C69.4431 143.472 69.1093 143.81 68.6936 143.81C68.278 143.81 67.9442 143.475 67.9442 143.058C67.9442 142.642 68.278 142.307 68.6936 142.307C69.1093 142.307 69.4431 142.642 69.4431 143.058Z" fill="#FBA819"/>
<path d="M84.4381 129.315C84.4381 129.729 84.1042 130.067 83.6886 130.067C83.2729 130.067 82.9391 129.732 82.9391 129.315C82.9391 128.899 83.2729 128.564 83.6886 128.564C84.1042 128.564 84.4381 128.899 84.4381 129.315Z" fill="#FBA819"/>
<path d="M84.4381 136.052C84.4381 136.465 84.1042 136.803 83.6886 136.803C83.2729 136.803 82.9391 136.468 82.9391 136.052C82.9391 135.635 83.2729 135.3 83.6886 135.3C84.1042 135.3 84.4381 135.635 84.4381 136.052Z" fill="#FBA819"/>
<path d="M66.5453 177.875C66.5453 178.289 66.2114 178.627 65.7958 178.627C65.3801 178.627 65.0463 178.292 65.0463 177.875C65.0463 177.459 65.3801 177.124 65.7958 177.124C66.2114 177.124 66.5453 177.459 66.5453 177.875Z" fill="#FBA819"/>
<path d="M61.538 179.703C61.538 180.116 61.2042 180.454 60.7885 180.454C60.3729 180.454 60.0391 180.119 60.0391 179.703C60.0391 179.286 60.3729 178.951 60.7885 178.951C61.2042 178.951 61.538 179.286 61.538 179.703Z" fill="#FBA819"/>
</svg>
