<svg width="174" height="240" viewBox="0 0 174 240" fill="none" xmlns="http://www.w3.org/2000/svg">
<rect width="174" height="240" fill="none"/>
<path d="M99.3784 89.7423C101.512 89.7424 103.041 91.4186 103.042 93.6573L114.44 184.564C114.44 186.096 112.887 186.243 111.996 186.243L61.7544 186.313C60.5005 186.313 59.6178 185.963 59.6177 184.564L70.9497 93.5128C71.1083 91.4311 72.5975 89.7426 74.7437 89.7423H81.0288C81.0229 89.9039 81.0229 90.0629 81.0317 90.2257C81.1854 93.3488 83.8505 95.7592 86.9819 95.6007C87.1673 95.606 87.3528 95.6113 87.5435 95.6007C90.6581 95.4543 93.0653 92.8389 92.9712 89.7423H99.3784Z" fill="#8F1D80"/>
<g filter="url(#filter0_d_1475_116002)">
<path d="M100.692 107.487C101.093 105.954 99.3769 104.763 98.7275 104.374C98.8404 103.73 99.0946 101.618 97.7471 100.838C96.4075 100.062 94.7203 101.321 94.2107 101.748C94.1667 101.721 94.1151 101.689 94.0563 101.655C93.3834 101.266 91.6934 100.481 90.5347 101.604C89.296 102.804 90.0273 104.676 90.3055 105.268C89.8316 105.709 88.4656 107.153 89.0287 108.689C89.1836 109.112 89.4701 109.447 89.8805 109.685C90.7651 110.197 91.9888 110.114 92.453 110.059C92.671 110.472 93.2936 111.532 94.184 112.048C94.5505 112.26 94.9247 112.358 95.2967 112.339C96.8119 112.26 97.4727 110.145 97.6381 109.505C98.2659 109.418 100.29 109.023 100.692 107.487Z" fill="#32B8DE"/>
<path fill-rule="evenodd" clip-rule="evenodd" d="M94.9051 106.183C94.9051 106.183 95.7137 107.98 94.9826 108.094C94.251 108.208 94.6622 106.209 94.6622 106.209C94.6622 106.209 93.1016 107.527 92.8738 106.873C92.6457 106.22 94.5637 105.985 94.5637 105.985C94.5637 105.985 92.8109 104.955 93.3801 104.485C93.9494 104.015 94.7442 105.822 94.7442 105.822C94.7442 105.822 95.1709 103.864 95.802 104.23C96.4331 104.595 94.9556 105.944 94.9556 105.944C94.9556 105.944 96.9035 105.727 96.7921 106.46C96.6813 107.194 94.9051 106.183 94.9051 106.183Z" fill="white"/>
</g>
<defs>
<filter id="filter0_d_1475_116002" x="88.8948" y="100.591" width="11.8572" height="13.7503" filterUnits="userSpaceOnUse" color-interpolation-filters="sRGB">
<feFlood flood-opacity="0" result="BackgroundImageFix"/>
<feColorMatrix in="SourceAlpha" type="matrix" values="0 0 0 0 0 0 0 0 0 0 0 0 0 0 0 0 0 0 127 0" result="hardAlpha"/>
<feOffset dy="2"/>
<feColorMatrix type="matrix" values="0 0 0 0 0 0 0 0 0 0 0 0 0 0 0 0 0 0 0.2 0"/>
<feBlend mode="normal" in2="BackgroundImageFix" result="effect1_dropShadow_1475_116002"/>
<feBlend mode="normal" in="SourceGraphic" in2="effect1_dropShadow_1475_116002" result="shape"/>
</filter>
</defs>
</svg>
