<svg width="174" height="240" viewBox="0 0 174 240" fill="none" xmlns="http://www.w3.org/2000/svg">
<rect width="174" height="240" fill="none"/>
<path d="M100.536 89.7423C102.647 89.7427 104.06 91.4578 104.289 93.6573L113.31 153.026L114.56 160.468L115.359 164.199L116.94 171.658L119.384 183.182C119.675 184.543 118.923 185.916 117.698 186.243H117.692V186.248C117.512 186.291 117.324 186.313 117.149 186.313H56.8349C55.5809 186.313 54.5536 185.176 54.5536 183.776C54.5537 183.594 54.5714 183.417 54.6064 183.251L56.788 171.663L58.1992 164.205L58.9052 160.473L60.3105 153.026L69.9316 93.7853C70.0903 91.7036 71.4152 89.7423 73.5615 89.7423H82.5048V89.7462H81.0312C81.0206 89.9416 81.0206 90.1319 81.0312 90.3273C81.1849 93.4502 83.8502 95.8596 86.9814 95.7013C87.1668 95.7066 87.3531 95.7119 87.5439 95.7013C90.6909 95.5531 93.1169 92.8849 92.9687 89.7462H91.4589V89.7423H100.536Z" fill="#8F1D80"/>
<g filter="url(#filter0_d_1469_109498)">
<path d="M100.692 107.487C101.093 105.954 99.3769 104.763 98.7275 104.374C98.8404 103.73 99.0946 101.618 97.7471 100.838C96.4075 100.062 94.7203 101.321 94.2107 101.748C94.1667 101.721 94.1151 101.689 94.0563 101.655C93.3834 101.266 91.6935 100.481 90.5348 101.604C89.296 102.804 90.0273 104.676 90.3055 105.268C89.8316 105.709 88.4656 107.153 89.0287 108.689C89.1836 109.112 89.4701 109.447 89.8806 109.685C90.7651 110.197 91.9888 110.114 92.4531 110.059C92.671 110.472 93.2936 111.532 94.184 112.048C94.5505 112.26 94.9247 112.358 95.2967 112.339C96.812 112.26 97.4727 110.145 97.6381 109.505C98.266 109.418 100.29 109.023 100.692 107.487Z" fill="#32B8DE"/>
<path fill-rule="evenodd" clip-rule="evenodd" d="M94.9051 106.183C94.9051 106.183 95.7137 107.98 94.9826 108.094C94.251 108.208 94.6622 106.209 94.6622 106.209C94.6622 106.209 93.1016 107.527 92.8738 106.873C92.6457 106.22 94.5637 105.985 94.5637 105.985C94.5637 105.985 92.8109 104.955 93.3801 104.485C93.9494 104.015 94.7442 105.822 94.7442 105.822C94.7442 105.822 95.1709 103.864 95.802 104.23C96.4331 104.595 94.9556 105.944 94.9556 105.944C94.9556 105.944 96.9035 105.727 96.7921 106.46C96.6813 107.194 94.9051 106.183 94.9051 106.183Z" fill="white"/>
</g>
<defs>
<filter id="filter0_d_1469_109498" x="88.8949" y="100.591" width="11.8572" height="13.7503" filterUnits="userSpaceOnUse" color-interpolation-filters="sRGB">
<feFlood flood-opacity="0" result="BackgroundImageFix"/>
<feColorMatrix in="SourceAlpha" type="matrix" values="0 0 0 0 0 0 0 0 0 0 0 0 0 0 0 0 0 0 127 0" result="hardAlpha"/>
<feOffset dy="2"/>
<feColorMatrix type="matrix" values="0 0 0 0 0 0 0 0 0 0 0 0 0 0 0 0 0 0 0.2 0"/>
<feBlend mode="normal" in2="BackgroundImageFix" result="effect1_dropShadow_1469_109498"/>
<feBlend mode="normal" in="SourceGraphic" in2="effect1_dropShadow_1469_109498" result="shape"/>
</filter>
</defs>
</svg>
