<svg width="174" height="240" viewBox="0 0 174 240" fill="none" xmlns="http://www.w3.org/2000/svg">
<rect width="174" height="240" fill="none"/>
<path d="M99.3784 89.7423C101.512 89.7424 103.041 91.4186 103.042 93.6573L114.44 186.579C114.44 188.112 112.887 188.64 111.996 188.64H61.7544C60.5004 188.64 59.6177 187.936 59.6177 186.536L70.9497 93.5128C71.1083 91.4311 72.5975 89.7426 74.7437 89.7423H81.0288C81.0229 89.9039 81.0229 90.0629 81.0317 90.2257C81.1854 93.3488 83.8505 95.7592 86.9819 95.6007C87.1673 95.606 87.3528 95.6113 87.5435 95.6007C90.6581 95.4543 93.0653 92.8389 92.9712 89.7423H99.3784Z" fill="#333481"/>
</svg>
