<svg width="174" height="240" viewBox="0 0 174 240" fill="none" xmlns="http://www.w3.org/2000/svg">
<rect width="174" height="240" fill="none"/>
<path d="M100.536 89.7423C102.647 89.7427 104.059 91.4578 104.288 93.6573L113.311 153.026L114.56 160.468L115.359 164.199L116.94 171.658L120.299 186.595C120.59 187.957 118.896 189.303 117.671 189.63H56.835C55.581 189.63 54.4044 187.994 54.4044 186.595L56.7881 171.663L58.1993 164.205L58.9053 160.473L60.3106 153.026L69.9317 93.7853C70.0904 91.7036 71.4153 89.7423 73.5616 89.7423H82.5049V89.7462H81.0313C81.0207 89.9416 81.0207 90.1319 81.0313 90.3273C81.185 93.4502 83.8503 95.8597 86.9815 95.7013C87.1668 95.7066 87.3524 95.7118 87.543 95.7013C90.6902 95.5533 93.117 92.885 92.9688 89.7462H91.459V89.7423H100.536Z" fill="#333481"/>
</svg>
