<svg width="174" height="240" viewBox="0 0 174 240" fill="none" xmlns="http://www.w3.org/2000/svg">
<rect width="174" height="240" fill="none"/>
<path d="M99.2644 89.7419C99.3268 89.7474 107.149 90.431 108.598 92.9402C110.053 95.4596 111.825 99.3328 111.825 99.3328L111.813 99.3318C113.726 103.014 115.654 111.802 118.799 118.385C115.739 122.136 112.719 124.077 108.625 123.768L103.302 111.362V126.441C105.033 136.416 109.583 181.538 109.604 181.747C109.579 181.765 103.246 186.311 89.1951 186.311C73.0583 186.311 64.0376 181.775 63.9812 181.747C64.0018 181.553 67.7419 146.322 70.8425 126.441V111.362L65.696 123.177C60.5186 122.99 57.7885 120.759 56.0964 117.081C59.0574 110.956 60.9815 103.063 62.7488 99.5261C63.0665 98.4834 64.2952 94.5811 65.5476 92.4119C66.9966 89.9038 73.3952 89.7433 73.45 89.7419L79.5925 89.7947C79.5941 89.8775 79.5958 89.9609 79.6003 90.0447C79.8034 94.167 83.3216 97.3477 87.4548 97.1384C87.6995 97.1454 87.9443 97.1524 88.196 97.1384C92.1812 96.951 95.2882 93.7018 95.3621 89.78L99.2644 89.7419Z" fill="#ED1D87"/>
<path d="M103.314 126.428C92.5201 128.882 81.6381 129.071 70.8475 126.617C70.8475 125.163 70.7952 123.628 70.8476 122.158C81.5563 124.733 92.6085 125.033 103.314 122.457C103.314 123.945 103.298 124.951 103.314 126.428Z" fill="#513996"/>
<path d="M93.8195 177.889C93.8195 178.965 94.6901 179.841 95.7668 179.841C96.8436 179.841 97.7142 178.968 97.7142 177.889C97.7142 176.809 96.8436 175.937 95.7668 175.937C94.6901 175.937 93.8195 176.809 93.8195 177.889Z" fill="#FBA819"/>
<path d="M94.0653 175.376C94.0653 176.281 94.7951 177.013 95.6985 177.013C96.6018 177.013 97.3316 176.281 97.3316 175.376C97.3316 174.47 96.6018 173.739 95.6985 173.739C94.7951 173.739 94.0653 174.47 94.0653 175.376Z" fill="#FBA819"/>
<path d="M94.0653 179.841C94.0653 180.747 94.7951 181.479 95.6985 181.479C96.6018 181.479 97.3316 180.747 97.3316 179.841C97.3316 178.936 96.6018 178.204 95.6985 178.204C94.7951 178.204 94.0653 178.936 94.0653 179.841Z" fill="#FBA819"/>
<path d="M93.4725 179.247C94.3758 179.247 95.1057 178.516 95.1057 177.61C95.1057 176.705 94.3758 175.973 93.4725 175.973C92.5692 175.973 91.8394 176.705 91.8394 177.61C91.8394 178.516 92.5692 179.247 93.4725 179.247Z" fill="#FBA819"/>
<path d="M97.9233 179.247C98.8266 179.247 99.5564 178.516 99.5564 177.61C99.5564 176.705 98.8266 175.973 97.9233 175.973C97.02 175.973 96.2901 176.705 96.2901 177.61C96.2901 178.516 97.02 179.247 97.9233 179.247Z" fill="#FBA819"/>
<path d="M94.7783 177.607C94.7783 178.115 95.1907 178.529 95.698 178.529C96.2053 178.529 96.6177 178.115 96.6177 177.607C96.6177 177.098 96.2053 176.685 95.698 176.685C95.1907 176.685 94.7783 177.098 94.7783 177.607Z" fill="white"/>
<path d="M99.8551 169.775C100.431 170.687 101.632 170.956 102.542 170.379C103.452 169.801 103.72 168.597 103.144 167.685C102.568 166.773 101.367 166.504 100.457 167.081C99.5474 167.659 99.279 168.863 99.8551 169.775Z" fill="#FBA819"/>
<path d="M98.7224 167.518C99.2036 168.282 100.212 168.508 100.977 168.026C101.74 167.544 101.966 166.533 101.485 165.765C101.004 165.001 99.9956 164.774 99.2298 165.257C98.4672 165.739 98.2413 166.75 98.7224 167.518Z" fill="#FBA819"/>
<path d="M101.102 171.294C101.583 172.059 102.591 172.285 103.357 171.803C104.119 171.32 104.345 170.31 103.864 169.542C103.383 168.778 102.375 168.551 101.609 169.033C100.847 169.516 100.621 170.526 101.102 171.294Z" fill="#FBA819"/>
<path d="M100.283 171.107C101.046 170.625 101.272 169.614 100.791 168.846C100.31 168.082 99.3015 167.855 98.5357 168.338C97.7731 168.82 97.5472 169.831 98.0284 170.598C98.5095 171.363 99.5175 171.589 100.283 171.107Z" fill="#FBA819"/>
<path d="M104.047 168.722C104.81 168.239 105.036 167.229 104.555 166.461C104.074 165.696 103.066 165.47 102.3 165.952C101.537 166.435 101.311 167.445 101.792 168.213C102.273 168.978 103.282 169.204 104.047 168.722Z" fill="#FBA819"/>
<path d="M100.516 169.024C100.787 169.453 101.354 169.581 101.782 169.309C102.211 169.037 102.339 168.469 102.067 168.039C101.795 167.609 101.229 167.481 100.8 167.754C100.372 168.026 100.244 168.594 100.516 169.024Z" fill="white"/>
<path d="M91.0535 163.843C90.664 164.85 91.1615 165.979 92.1663 166.369C93.171 166.76 94.2969 166.261 94.6864 165.254C95.0759 164.246 94.5784 163.118 93.5736 162.727C92.5688 162.337 91.443 162.836 91.0535 163.843Z" fill="#FBA819"/>
<path d="M92.1898 161.589C91.8626 162.432 92.2815 163.38 93.1226 163.708C93.9637 164.036 94.9096 163.616 95.2368 162.773C95.5641 161.93 95.1452 160.982 94.3041 160.653C93.463 160.325 92.5171 160.745 92.1898 161.589Z" fill="#FBA819"/>
<path d="M90.5795 165.752C90.2522 166.596 90.6711 167.544 91.5122 167.872C92.3534 168.2 93.2992 167.78 93.6265 166.937C93.9538 166.094 93.5349 165.145 92.6937 164.817C91.8526 164.489 90.9068 164.909 90.5795 165.752Z" fill="#FBA819"/>
<path d="M90.2391 164.984C91.0802 165.313 92.0261 164.893 92.3534 164.049C92.6807 163.206 92.2618 162.258 91.4206 161.93C90.5795 161.602 89.6336 162.022 89.3064 162.865C88.9791 163.708 89.398 164.656 90.2391 164.984Z" fill="#FBA819"/>
<path d="M94.3923 166.599C95.2334 166.927 96.1793 166.507 96.5066 165.663C96.8338 164.82 96.4149 163.872 95.5738 163.544C94.7327 163.216 93.7868 163.636 93.4596 164.479C93.1323 165.322 93.5512 166.27 94.3923 166.599Z" fill="#FBA819"/>
<path d="M92.0489 163.931C91.8656 164.407 92.1013 164.938 92.5726 165.122C93.0471 165.306 93.5773 165.07 93.7606 164.597C93.9439 164.121 93.7082 163.59 93.237 163.406C92.7624 163.222 92.2322 163.459 92.0489 163.931Z" fill="white"/>
<path d="M96.0611 155.358C96.4473 156.365 97.5732 156.867 98.5779 156.483C99.5827 156.096 100.087 154.967 99.7005 153.96C99.3143 152.953 98.1885 152.448 97.1837 152.835C96.1789 153.222 95.6749 154.351 96.0611 155.358Z" fill="#FBA819"/>
<path d="M95.3936 152.923C95.7143 153.766 96.6602 154.19 97.5013 153.865C98.3424 153.54 98.7646 152.595 98.4439 151.752C98.1231 150.909 97.1773 150.485 96.3361 150.81C95.495 151.135 95.0728 152.08 95.3936 152.923Z" fill="#FBA819"/>
<path d="M96.9872 157.094C97.308 157.937 98.2539 158.36 99.095 158.035C99.9361 157.71 100.358 156.765 100.038 155.922C99.7168 155.079 98.771 154.656 97.9298 154.981C97.0887 155.305 96.6665 156.25 96.9872 157.094Z" fill="#FBA819"/>
<path d="M96.2217 156.749C97.0628 156.428 97.485 155.479 97.1642 154.636C96.8435 153.793 95.8977 153.37 95.0565 153.694C94.2154 154.019 93.7932 154.964 94.114 155.808C94.4347 156.651 95.3805 157.074 96.2217 156.749Z" fill="#FBA819"/>
<path d="M100.378 155.154C101.22 154.833 101.642 153.885 101.321 153.041C101 152.198 100.054 151.775 99.2133 152.1C98.3722 152.425 97.95 153.37 98.2708 154.213C98.5915 155.056 99.5374 155.479 100.378 155.154Z" fill="#FBA819"/>
<path d="M96.8562 154.751C97.0395 155.227 97.5697 155.463 98.041 155.283C98.5156 155.099 98.7512 154.571 98.5712 154.095C98.3879 153.619 97.861 153.383 97.3864 153.563C96.9119 153.747 96.6762 154.275 96.8562 154.751Z" fill="white"/>
<path d="M95.6163 133.443C96.0025 134.451 97.1284 134.956 98.1331 134.569C99.1379 134.182 99.6419 133.053 99.2557 132.046C98.8695 131.038 97.7437 130.536 96.7389 130.92C95.7342 131.307 95.2301 132.436 95.6163 133.443Z" fill="#FBA819"/>
<path d="M94.9453 131.012C95.2661 131.855 96.2119 132.279 97.0531 131.954C97.8942 131.629 98.3164 130.684 97.9956 129.841C97.6749 128.998 96.729 128.574 95.8879 128.899C95.0468 129.224 94.6246 130.169 94.9453 131.012Z" fill="#FBA819"/>
<path d="M96.5396 135.179C96.8604 136.022 97.8062 136.446 98.6474 136.121C99.4885 135.796 99.9107 134.851 99.5899 134.008C99.2692 133.165 98.3233 132.741 97.4822 133.066C96.6411 133.391 96.2189 134.336 96.5396 135.179Z" fill="#FBA819"/>
<path d="M95.777 134.838C96.6181 134.517 97.0403 133.568 96.7195 132.725C96.3988 131.882 95.453 131.459 94.6118 131.783C93.7707 132.108 93.3485 133.053 93.6693 133.896C93.99 134.74 94.9358 135.163 95.777 134.838Z" fill="#FBA819"/>
<path d="M99.9341 133.24C100.775 132.918 101.197 131.97 100.877 131.127C100.556 130.284 99.6101 129.861 98.7689 130.185C97.9278 130.51 97.5056 131.455 97.8264 132.298C98.1471 133.142 99.0929 133.565 99.9341 133.24Z" fill="#FBA819"/>
<path d="M96.4114 132.84C96.5946 133.316 97.1216 133.552 97.5961 133.371C98.0707 133.188 98.3063 132.66 98.1263 132.184C97.943 131.708 97.4161 131.472 96.9416 131.652C96.467 131.836 96.2313 132.368 96.4114 132.84Z" fill="white"/>
<path d="M92.4123 143.52C92.7985 144.527 93.9244 145.033 94.9291 144.645C95.9339 144.258 96.4379 143.129 96.0517 142.122C95.6655 141.115 94.5397 140.61 93.5349 140.997C92.5301 141.384 92.0261 142.513 92.4123 143.52Z" fill="#FBA819"/>
<path d="M91.7413 141.085C92.062 141.928 93.0078 142.352 93.849 142.027C94.6901 141.702 95.1123 140.757 94.7916 139.914C94.4708 139.071 93.525 138.647 92.6839 138.972C91.8427 139.297 91.4205 140.242 91.7413 141.085Z" fill="#FBA819"/>
<path d="M93.3356 145.256C93.6563 146.099 94.6021 146.522 95.4433 146.197C96.2844 145.872 96.7066 144.927 96.3859 144.084C96.0651 143.241 95.1193 142.818 94.2782 143.143C93.437 143.467 93.0148 144.412 93.3356 145.256Z" fill="#FBA819"/>
<path d="M92.5693 144.914C93.4104 144.593 93.8326 143.644 93.5119 142.801C93.1912 141.958 92.2453 141.535 91.4042 141.86C90.5631 142.184 90.1409 143.129 90.4616 143.973C90.7824 144.816 91.7282 145.239 92.5693 144.914Z" fill="#FBA819"/>
<path d="M96.7255 143.313C97.5667 142.992 97.9889 142.043 97.6681 141.2C97.3474 140.357 96.4015 139.934 95.5604 140.258C94.7193 140.583 94.2971 141.528 94.6178 142.371C94.9385 143.215 95.8844 143.638 96.7255 143.313Z" fill="#FBA819"/>
<path d="M93.2046 142.913C93.3878 143.388 93.9148 143.625 94.3893 143.444C94.8639 143.264 95.0995 142.732 94.9195 142.256C94.7363 141.781 94.2093 141.544 93.7348 141.725C93.2602 141.905 93.0246 142.44 93.2046 142.913Z" fill="white"/>
<path d="M95.6786 118.2C96.0648 119.207 97.1907 119.712 98.1954 119.325C99.2002 118.938 99.7042 117.809 99.318 116.802C98.9318 115.795 97.806 115.293 96.8012 115.677C95.7964 116.064 95.2924 117.193 95.6786 118.2Z" fill="#FBA819"/>
<path d="M95.0108 115.765C95.3315 116.608 96.2774 117.032 97.1185 116.707C97.9596 116.382 98.3818 115.437 98.0611 114.594C97.7403 113.75 96.7945 113.327 95.9534 113.652C95.1123 113.977 94.6901 114.922 95.0108 115.765Z" fill="#FBA819"/>
<path d="M96.6019 119.935C96.9226 120.778 97.8684 121.202 98.7096 120.877C99.5507 120.552 99.9729 119.607 99.6521 118.764C99.3314 117.921 98.3856 117.497 97.5445 117.822C96.7033 118.147 96.2811 119.092 96.6019 119.935Z" fill="#FBA819"/>
<path d="M95.835 119.591C96.6762 119.269 97.0984 118.321 96.7776 117.478C96.4569 116.635 95.511 116.211 94.6699 116.536C93.8288 116.861 93.4066 117.806 93.7273 118.649C94.048 119.493 94.9939 119.916 95.835 119.591Z" fill="#FBA819"/>
<path d="M99.992 117.996C100.833 117.675 101.255 116.726 100.935 115.883C100.614 115.04 99.668 114.617 98.8268 114.941C97.9857 115.266 97.5635 116.211 97.8843 117.054C98.205 117.898 99.1509 118.321 99.992 117.996Z" fill="#FBA819"/>
<path d="M96.4738 117.593C96.6571 118.068 97.184 118.305 97.6586 118.124C98.1331 117.944 98.3688 117.412 98.1888 116.936C98.0055 116.461 97.4786 116.224 97.004 116.405C96.5294 116.585 96.2938 117.12 96.4738 117.593Z" fill="white"/>
<path d="M85.775 109.98C86.1612 110.988 87.2871 111.493 88.2918 111.106C89.2966 110.719 89.8006 109.59 89.4144 108.583C89.0282 107.575 87.9024 107.073 86.8976 107.457C85.8928 107.844 85.3888 108.973 85.775 109.98Z" fill="#FBA819"/>
<path d="M85.1075 107.546C85.4283 108.389 86.3741 108.812 87.2152 108.487C88.0564 108.163 88.4786 107.218 88.1578 106.374C87.8371 105.531 86.8913 105.108 86.0501 105.433C85.209 105.758 84.7868 106.703 85.1075 107.546Z" fill="#FBA819"/>
<path d="M86.7011 111.716C87.0218 112.559 87.9676 112.983 88.8087 112.658C89.6499 112.333 90.0721 111.388 89.7513 110.545C89.4306 109.702 88.4848 109.278 87.6436 109.603C86.8025 109.928 86.3803 110.873 86.7011 111.716Z" fill="#FBA819"/>
<path d="M85.9321 111.375C86.7732 111.053 87.1954 110.105 86.8747 109.262C86.5539 108.419 85.608 107.995 84.7669 108.32C83.9258 108.645 83.5036 109.59 83.8243 110.433C84.1451 111.277 85.091 111.7 85.9321 111.375Z" fill="#FBA819"/>
<path d="M90.0913 109.777C90.9325 109.456 91.3547 108.507 91.0339 107.664C90.7132 106.821 89.7673 106.398 88.9262 106.722C88.0851 107.047 87.6629 107.992 87.9837 108.835C88.3044 109.679 89.2502 110.102 90.0913 109.777Z" fill="#FBA819"/>
<path d="M86.5702 109.374C86.7535 109.849 87.2804 110.085 87.755 109.905C88.2296 109.725 88.4652 109.193 88.2852 108.717C88.1019 108.242 87.575 108.005 87.1004 108.186C86.6259 108.366 86.3902 108.901 86.5702 109.374Z" fill="white"/>
<path d="M107.615 112.064C108.001 113.071 109.127 113.577 110.132 113.19C111.137 112.802 111.641 111.674 111.254 110.666C110.868 109.659 109.742 109.154 108.738 109.541C107.733 109.928 107.232 111.057 107.615 112.064Z" fill="#FBA819"/>
<path d="M106.946 109.629C107.267 110.473 108.213 110.896 109.054 110.571C109.895 110.246 110.317 109.301 109.997 108.458C109.676 107.615 108.73 107.191 107.889 107.516C107.048 107.841 106.626 108.786 106.946 109.629Z" fill="#FBA819"/>
<path d="M108.537 113.8C108.858 114.643 109.804 115.066 110.645 114.741C111.486 114.417 111.908 113.472 111.588 112.628C111.267 111.785 110.321 111.362 109.48 111.687C108.639 112.011 108.217 112.956 108.537 113.8Z" fill="#FBA819"/>
<path d="M107.772 113.458C108.613 113.137 109.035 112.189 108.715 111.345C108.394 110.502 107.448 110.079 106.607 110.404C105.766 110.729 105.343 111.673 105.664 112.517C105.985 113.36 106.931 113.783 107.772 113.458Z" fill="#FBA819"/>
<path d="M111.932 111.86C112.773 111.539 113.195 110.591 112.874 109.747C112.553 108.904 111.608 108.481 110.766 108.806C109.925 109.131 109.503 110.075 109.824 110.919C110.145 111.762 111.09 112.185 111.932 111.86Z" fill="#FBA819"/>
<path d="M108.41 111.46C108.593 111.936 109.12 112.172 109.595 111.992C110.069 111.811 110.305 111.28 110.125 110.804C109.942 110.328 109.415 110.092 108.94 110.273C108.466 110.453 108.23 110.985 108.41 111.46Z" fill="white"/>
<path d="M100.555 100.784C100.941 101.791 102.067 102.296 103.072 101.909C104.077 101.522 104.581 100.393 104.194 99.3858C103.808 98.3786 102.682 97.8767 101.678 98.2605C100.673 98.6477 100.169 99.7764 100.555 100.784Z" fill="#FBA819"/>
<path d="M99.8871 98.349C100.208 99.1923 101.154 99.6156 101.995 99.2907C102.836 98.9659 103.258 98.0208 102.937 97.1776C102.617 96.3343 101.671 95.9112 100.83 96.236C99.9886 96.5608 99.5664 97.5058 99.8871 98.349Z" fill="#FBA819"/>
<path d="M101.481 102.516C101.802 103.359 102.748 103.783 103.589 103.458C104.43 103.133 104.852 102.188 104.532 101.345C104.211 100.501 103.265 100.078 102.424 100.403C101.583 100.728 101.161 101.673 101.481 102.516Z" fill="#FBA819"/>
<path d="M100.715 102.175C101.556 101.853 101.979 100.905 101.658 100.062C101.337 99.2184 100.391 98.7952 99.5501 99.12C98.7089 99.4449 98.2867 100.39 98.6075 101.233C98.9282 102.076 99.8741 102.499 100.715 102.175Z" fill="#FBA819"/>
<path d="M104.875 100.577C105.716 100.255 106.138 99.3071 105.818 98.4638C105.497 97.6206 104.551 97.1973 103.71 97.5221C102.869 97.8469 102.447 98.7919 102.767 99.6351C103.088 100.478 104.034 100.902 104.875 100.577Z" fill="#FBA819"/>
<path d="M101.35 100.176C101.533 100.652 102.06 100.888 102.534 100.708C103.009 100.528 103.245 99.996 103.065 99.5202C102.881 99.0445 102.354 98.8082 101.88 98.9886C101.405 99.1691 101.17 99.704 101.35 100.176Z" fill="white"/>
<path d="M97.1376 160.549C97.1376 160.962 97.4714 161.3 97.887 161.3C98.3027 161.3 98.6365 160.965 98.6365 160.549C98.6365 160.132 98.3027 159.797 97.887 159.797C97.4714 159.797 97.1376 160.132 97.1376 160.549Z" fill="#FBA819"/>
<path d="M91.7186 172.055C91.7186 172.469 92.0524 172.807 92.4681 172.807C92.8837 172.807 93.2176 172.472 93.2176 172.055C93.2176 171.638 92.8837 171.304 92.4681 171.304C92.0524 171.304 91.7186 171.638 91.7186 172.055Z" fill="#FBA819"/>
<path d="M103.173 176.721C103.587 176.721 103.923 176.384 103.923 175.97C103.923 175.555 103.587 175.218 103.173 175.218C102.76 175.218 102.424 175.555 102.424 175.97C102.424 176.384 102.76 176.721 103.173 176.721Z" fill="#FBA819"/>
<path d="M89.9474 158.143C89.9474 158.557 90.2812 158.895 90.6968 158.895C91.1125 158.895 91.4463 158.56 91.4463 158.143C91.4463 157.727 91.1125 157.392 90.6968 157.392C90.2812 157.392 89.9474 157.727 89.9474 158.143Z" fill="#FBA819"/>
<path d="M87.0969 169.033C87.5109 169.033 87.8464 168.697 87.8464 168.282C87.8464 167.867 87.5109 167.531 87.0969 167.531C86.683 167.531 86.3475 167.867 86.3475 168.282C86.3475 168.697 86.683 169.033 87.0969 169.033Z" fill="#FBA819"/>
<path d="M86.3512 178.529C86.3512 178.942 86.685 179.28 87.1007 179.28C87.5163 179.28 87.8502 178.945 87.8502 178.529C87.8502 178.112 87.5163 177.777 87.1007 177.777C86.685 177.777 86.3512 178.112 86.3512 178.529Z" fill="#FBA819"/>
<path d="M82.0538 183.135C82.0538 183.549 82.3877 183.887 82.8033 183.887C83.219 183.887 83.5528 183.552 83.5528 183.135C83.5528 182.719 83.219 182.384 82.8033 182.384C82.3877 182.384 82.0538 182.719 82.0538 183.135Z" fill="#FBA819"/>
<path d="M90.6972 182.811C90.6972 183.224 91.031 183.562 91.4467 183.562C91.8624 183.562 92.1962 183.227 92.1962 182.811C92.1962 182.394 91.8624 182.059 91.4467 182.059C91.031 182.059 90.6972 182.394 90.6972 182.811Z" fill="#FBA819"/>
<path d="M83.7784 158.36C84.1924 158.36 84.5279 158.024 84.5279 157.609C84.5279 157.194 84.1924 156.857 83.7784 156.857C83.3645 156.857 83.029 157.194 83.029 157.609C83.029 158.024 83.3645 158.36 83.7784 158.36Z" fill="#FBA819"/>
<path d="M92.1242 148.983C92.1242 149.396 92.458 149.734 92.8737 149.734C93.2894 149.734 93.6232 149.399 93.6232 148.983C93.6232 148.566 93.2894 148.231 92.8737 148.231C92.458 148.231 92.1242 148.566 92.1242 148.983Z" fill="#FBA819"/>
<path d="M99.6254 147.057C99.6254 147.47 99.9593 147.808 100.375 147.808C100.791 147.808 101.124 147.473 101.124 147.057C101.124 146.64 100.791 146.305 100.375 146.305C99.9593 146.305 99.6254 146.64 99.6254 147.057Z" fill="#FBA819"/>
<path d="M104.057 158.143C104.057 158.557 104.391 158.895 104.806 158.895C105.222 158.895 105.556 158.56 105.556 158.143C105.556 157.727 105.222 157.392 104.806 157.392C104.391 157.392 104.057 157.727 104.057 158.143Z" fill="#FBA819"/>
<path d="M95.6357 110.502C96.0497 110.502 96.3852 110.166 96.3852 109.751C96.3852 109.336 96.0497 108.999 95.6357 108.999C95.2218 108.999 94.8863 109.336 94.8863 109.751C94.8863 110.166 95.2218 110.502 95.6357 110.502Z" fill="#FBA819"/>
<path d="M90.3508 118.938C90.7647 118.938 91.1002 118.602 91.1002 118.187C91.1002 117.772 90.7647 117.435 90.3508 117.435C89.9368 117.435 89.6013 117.772 89.6013 118.187C89.6013 118.602 89.9368 118.938 90.3508 118.938Z" fill="#FBA819"/>
<path d="M98.6343 105.505C98.6343 105.918 98.9682 106.256 99.3838 106.256C99.7995 106.256 100.133 105.922 100.133 105.505C100.133 105.088 99.7995 104.754 99.3838 104.754C98.9682 104.754 98.6343 105.088 98.6343 105.505Z" fill="#FBA819"/>
<path d="M100.372 111.969C100.372 112.382 100.706 112.72 101.121 112.72C101.537 112.72 101.871 112.385 101.871 111.969C101.871 111.552 101.537 111.217 101.121 111.217C100.706 111.217 100.372 111.552 100.372 111.969Z" fill="#FBA819"/>
<path d="M107.683 101.82C107.683 102.234 108.017 102.572 108.433 102.572C108.848 102.572 109.182 102.237 109.182 101.82C109.182 101.404 108.848 101.069 108.433 101.069C108.017 101.069 107.683 101.404 107.683 101.82Z" fill="#FBA819"/>
<path d="M104.806 107.004C105.22 107.004 105.556 106.668 105.556 106.253C105.556 105.838 105.22 105.502 104.806 105.502C104.392 105.502 104.057 105.838 104.057 106.253C104.057 106.668 104.392 107.004 104.806 107.004Z" fill="#FBA819"/>
<path d="M95.3965 104.262C95.3965 104.675 95.7303 105.013 96.146 105.013C96.5616 105.013 96.8955 104.678 96.8955 104.262C96.8955 103.845 96.5616 103.51 96.146 103.51C95.7303 103.51 95.3965 103.845 95.3965 104.262Z" fill="#FBA819"/>
<path d="M86.0691 103.513C86.0691 103.927 86.4029 104.265 86.8186 104.265C87.2342 104.265 87.5681 103.93 87.5681 103.513C87.5681 103.097 87.2342 102.762 86.8186 102.762C86.4029 102.762 86.0691 103.097 86.0691 103.513Z" fill="#FBA819"/>
<path d="M85.3165 118.187C85.3165 118.6 85.6503 118.938 86.066 118.938C86.4816 118.938 86.8155 118.603 86.8155 118.187C86.8155 117.77 86.4816 117.435 86.066 117.435C85.6503 117.435 85.3165 117.77 85.3165 118.187Z" fill="#FBA819"/>
<path d="M100.1 139.615C100.514 139.615 100.849 139.279 100.849 138.864C100.849 138.449 100.514 138.112 100.1 138.112C99.6859 138.112 99.3503 138.449 99.3503 138.864C99.3503 139.279 99.6859 139.615 100.1 139.615Z" fill="#FBA819"/>
<path d="M88.4487 129.644C88.4487 130.057 88.7826 130.395 89.1982 130.395C89.6139 130.395 89.9477 130.061 89.9477 129.644C89.9477 129.227 89.6139 128.893 89.1982 128.893C88.7826 128.893 88.4487 129.227 88.4487 129.644Z" fill="#FBA819"/>
<path d="M88.4487 136.38C88.4487 136.794 88.7826 137.132 89.1982 137.132C89.6139 137.132 89.9477 136.797 89.9477 136.38C89.9477 135.964 89.6139 135.629 89.1982 135.629C88.7826 135.629 88.4487 135.964 88.4487 136.38Z" fill="#FBA819"/>
<path d="M106.341 178.204C106.341 178.617 106.675 178.955 107.091 178.955C107.507 178.955 107.84 178.621 107.84 178.204C107.84 177.787 107.507 177.453 107.091 177.453C106.675 177.453 106.341 177.787 106.341 178.204Z" fill="#FBA819"/>
<path d="M77.9558 179.841C79.0313 179.841 79.9031 178.967 79.9031 177.889C79.9031 176.811 79.0313 175.937 77.9558 175.937C76.8803 175.937 76.0084 176.811 76.0084 177.889C76.0084 178.967 76.8803 179.841 77.9558 179.841Z" fill="#FBA819"/>
<path d="M79.6578 175.376C79.6578 176.281 78.928 177.013 78.0247 177.013C77.1214 177.013 76.3915 176.281 76.3915 175.376C76.3915 174.47 77.1214 173.739 78.0247 173.739C78.928 173.739 79.6578 174.47 79.6578 175.376Z" fill="#FBA819"/>
<path d="M79.6578 179.841C79.6578 180.747 78.928 181.479 78.0247 181.479C77.1214 181.479 76.3915 180.747 76.3915 179.841C76.3915 178.936 77.1214 178.204 78.0247 178.204C78.928 178.204 79.6578 178.936 79.6578 179.841Z" fill="#FBA819"/>
<path d="M80.2531 179.247C79.3498 179.247 78.6199 178.516 78.6199 177.61C78.6199 176.705 79.3498 175.973 80.2531 175.973C81.1564 175.973 81.8863 176.705 81.8863 177.61C81.8863 178.516 81.1564 179.247 80.2531 179.247Z" fill="#FBA819"/>
<path d="M75.7988 179.247C74.8955 179.247 74.1656 178.516 74.1656 177.61C74.1656 176.705 74.8955 175.973 75.7988 175.973C76.7021 175.973 77.4319 176.705 77.4319 177.61C77.4319 178.516 76.7021 179.247 75.7988 179.247Z" fill="#FBA819"/>
<path d="M78.0242 178.529C78.5322 178.529 78.9439 178.116 78.9439 177.607C78.9439 177.098 78.5322 176.685 78.0242 176.685C77.5163 176.685 77.1046 177.098 77.1046 177.607C77.1046 178.116 77.5163 178.529 78.0242 178.529Z" fill="white"/>
<path d="M73.8716 169.775C73.2956 170.687 72.0945 170.956 71.1846 170.379C70.2748 169.801 70.0064 168.597 70.5824 167.685C71.1584 166.773 72.3596 166.504 73.2694 167.081C74.1793 167.659 74.4476 168.863 73.8716 169.775Z" fill="#FBA819"/>
<path d="M75.004 167.518C74.5229 168.282 73.5148 168.508 72.749 168.026C71.9864 167.544 71.7606 166.533 72.2417 165.765C72.7228 165.001 73.7308 164.774 74.4967 165.257C75.2592 165.739 75.4851 166.75 75.004 167.518Z" fill="#FBA819"/>
<path d="M72.6216 171.294C72.1405 172.059 71.1324 172.285 70.3666 171.803C69.604 171.32 69.3782 170.31 69.8593 169.542C70.3404 168.778 71.3484 168.551 72.1143 169.033C72.8768 169.516 73.1027 170.526 72.6216 171.294Z" fill="#FBA819"/>
<path d="M73.4395 171.107C72.6769 170.625 72.4511 169.614 72.9322 168.846C73.4133 168.082 74.4213 167.855 75.1872 168.338C75.9497 168.82 76.1756 169.831 75.6945 170.598C75.2134 171.363 74.2053 171.589 73.4395 171.107Z" fill="#FBA819"/>
<path d="M69.679 168.722C68.9165 168.239 68.6906 167.229 69.1717 166.461C69.6528 165.696 70.6609 165.47 71.4267 165.952C72.1893 166.435 72.4151 167.445 71.934 168.213C71.4529 168.978 70.4449 169.204 69.679 168.722Z" fill="#FBA819"/>
<path d="M73.2074 169.024C72.9358 169.453 72.3696 169.581 71.9408 169.309C71.5121 169.037 71.3845 168.469 71.6561 168.039C71.9277 167.609 72.494 167.481 72.9227 167.754C73.3514 168.026 73.4791 168.594 73.2074 169.024Z" fill="white"/>
<path d="M82.669 163.843C83.0585 164.85 82.561 165.979 81.5563 166.369C80.5515 166.76 79.4256 166.261 79.0362 165.254C78.6467 164.246 79.1442 163.118 80.1489 162.727C81.1537 162.337 82.2795 162.836 82.669 163.843Z" fill="#FBA819"/>
<path d="M81.5335 161.589C81.8608 162.432 81.4418 163.38 80.6007 163.708C79.7596 164.036 78.8138 163.616 78.4865 162.773C78.1592 161.93 78.5781 160.982 79.4192 160.653C80.2603 160.325 81.2062 160.745 81.5335 161.589Z" fill="#FBA819"/>
<path d="M83.1472 165.752C83.4745 166.596 83.0556 167.544 82.2145 167.872C81.3733 168.2 80.4275 167.78 80.1002 166.937C79.7729 166.094 80.1918 165.145 81.0329 164.817C81.8741 164.489 82.8199 164.909 83.1472 165.752Z" fill="#FBA819"/>
<path d="M83.4842 164.984C82.6431 165.313 81.6972 164.893 81.37 164.049C81.0427 163.206 81.4616 162.258 82.3027 161.93C83.1438 161.602 84.0897 162.022 84.417 162.865C84.7443 163.708 84.3254 164.656 83.4842 164.984Z" fill="#FBA819"/>
<path d="M79.3344 166.599C78.4932 166.927 77.5474 166.507 77.2201 165.663C76.8928 164.82 77.3117 163.872 78.1529 163.544C78.994 163.216 79.9398 163.636 80.2671 164.479C80.5944 165.322 80.1755 166.27 79.3344 166.599Z" fill="#FBA819"/>
<path d="M81.6741 163.931C81.8574 164.407 81.6218 164.938 81.1505 165.122C80.6759 165.306 80.1457 165.07 79.9624 164.597C79.7791 164.125 80.0148 163.59 80.4861 163.406C80.9606 163.222 81.4908 163.459 81.6741 163.931Z" fill="white"/>
<path d="M77.6616 155.358C77.2754 156.365 76.1496 156.867 75.1448 156.483C74.14 156.096 73.6393 154.967 74.0222 153.96C74.4084 152.953 75.5343 152.448 76.539 152.835C77.5438 153.222 78.0478 154.351 77.6616 155.358Z" fill="#FBA819"/>
<path d="M78.3291 152.923C78.0083 153.766 77.0625 154.19 76.2213 153.865C75.3802 153.54 74.958 152.595 75.2788 151.752C75.5995 150.909 76.5454 150.485 77.3865 150.81C78.2276 151.135 78.6498 152.08 78.3291 152.923Z" fill="#FBA819"/>
<path d="M76.7353 157.094C76.4146 157.937 75.4688 158.36 74.6276 158.035C73.7865 157.71 73.3643 156.765 73.6851 155.922C74.0058 155.079 74.9517 154.656 75.7928 154.981C76.6339 155.305 77.0561 156.25 76.7353 157.094Z" fill="#FBA819"/>
<path d="M77.5044 156.749C76.6632 156.428 76.241 155.479 76.5618 154.636C76.8825 153.793 77.8283 153.37 78.6695 153.694C79.5106 154.019 79.9328 154.964 79.612 155.808C79.2913 156.651 78.3455 157.074 77.5044 156.749Z" fill="#FBA819"/>
<path d="M73.3446 155.154C72.5035 154.833 72.0813 153.885 72.402 153.041C72.7228 152.198 73.6687 151.775 74.5098 152.1C75.3509 152.425 75.7731 153.37 75.4524 154.213C75.1316 155.056 74.1857 155.479 73.3446 155.154Z" fill="#FBA819"/>
<path d="M76.8662 154.751C76.683 155.227 76.156 155.463 75.6815 155.283C75.2069 155.099 74.9713 154.571 75.1513 154.095C75.3346 153.619 75.8615 153.383 76.336 153.563C76.8106 153.747 77.0463 154.275 76.8662 154.751Z" fill="white"/>
<path d="M78.1065 133.443C77.7203 134.451 76.5944 134.956 75.5896 134.569C74.5848 134.182 74.0808 133.053 74.467 132.046C74.8532 131.038 75.9791 130.536 76.9838 130.92C77.9886 131.307 78.4926 132.436 78.1065 133.443Z" fill="#FBA819"/>
<path d="M78.7772 131.012C78.4564 131.855 77.5106 132.279 76.6695 131.954C75.8283 131.629 75.4061 130.684 75.7269 129.841C76.0476 128.998 76.9935 128.574 77.8346 128.899C78.6757 129.224 79.0979 130.169 78.7772 131.012Z" fill="#FBA819"/>
<path d="M77.1835 135.179C76.8628 136.022 75.9169 136.446 75.0758 136.121C74.2346 135.796 73.8124 134.851 74.1332 134.008C74.4539 133.165 75.3998 132.741 76.2409 133.066C77.082 133.391 77.5042 134.336 77.1835 135.179Z" fill="#FBA819"/>
<path d="M77.9495 134.838C77.1084 134.517 76.6862 133.568 77.007 132.725C77.3277 131.882 78.2735 131.459 79.1147 131.783C79.9558 132.108 80.378 133.053 80.0572 133.896C79.7365 134.74 78.7907 135.163 77.9495 134.838Z" fill="#FBA819"/>
<path d="M73.7893 133.24C72.9482 132.918 72.526 131.97 72.8467 131.127C73.1675 130.284 74.1133 129.861 74.9544 130.185C75.7956 130.51 76.2178 131.455 75.897 132.298C75.5763 133.142 74.6304 133.565 73.7893 133.24Z" fill="#FBA819"/>
<path d="M77.3114 132.84C77.1282 133.316 76.598 133.552 76.1267 133.371C75.6521 133.188 75.4165 132.66 75.5965 132.184C75.7797 131.708 76.3067 131.472 76.7812 131.652C77.2558 131.836 77.4914 132.368 77.3114 132.84Z" fill="white"/>
<path d="M81.314 143.52C80.9278 144.527 79.802 145.033 78.7972 144.645C77.7924 144.258 77.2884 143.129 77.6746 142.122C78.0608 141.115 79.1867 140.61 80.1914 140.997C81.1962 141.384 81.7002 142.513 81.314 143.52Z" fill="#FBA819"/>
<path d="M81.9813 141.085C81.6606 141.928 80.7147 142.352 79.8736 142.027C79.0325 141.702 78.6103 140.757 78.931 139.914C79.2518 139.071 80.1976 138.647 81.0387 138.972C81.8799 139.297 82.3021 140.242 81.9813 141.085Z" fill="#FBA819"/>
<path d="M80.3876 145.256C80.0669 146.099 79.121 146.522 78.2799 146.197C77.4388 145.872 77.0166 144.927 77.3373 144.084C77.6581 143.241 78.6039 142.818 79.445 143.143C80.2862 143.467 80.7084 144.412 80.3876 145.256Z" fill="#FBA819"/>
<path d="M81.1534 144.914C80.3122 144.593 79.8901 143.644 80.2108 142.801C80.5316 141.958 81.4774 141.535 82.3185 141.86C83.1596 142.184 83.5818 143.129 83.2611 143.973C82.9404 144.816 81.9945 145.239 81.1534 144.914Z" fill="#FBA819"/>
<path d="M76.9974 143.313C76.1563 142.992 75.7341 142.043 76.0548 141.2C76.3756 140.357 77.3214 139.934 78.1625 140.258C79.0037 140.583 79.4259 141.528 79.1051 142.371C78.7844 143.215 77.8385 143.638 76.9974 143.313Z" fill="#FBA819"/>
<path d="M80.5186 142.913C80.3353 143.388 79.8051 143.625 79.3338 143.444C78.8593 143.26 78.6236 142.732 78.8036 142.256C78.9869 141.781 79.5138 141.544 79.9884 141.725C80.463 141.905 80.6986 142.44 80.5186 142.913Z" fill="white"/>
<path d="M78.0471 118.2C77.6609 119.207 76.5351 119.712 75.5303 119.325C74.5256 118.938 74.0215 117.809 74.4077 116.802C74.7939 115.795 75.9198 115.293 76.9246 115.677C77.9293 116.064 78.4333 117.193 78.0471 118.2Z" fill="#FBA819"/>
<path d="M78.715 115.765C78.3943 116.608 77.4484 117.032 76.6073 116.707C75.7662 116.382 75.344 115.437 75.6647 114.594C75.9855 113.75 76.9313 113.327 77.7724 113.652C78.6136 113.977 79.0358 114.922 78.715 115.765Z" fill="#FBA819"/>
<path d="M77.1214 119.935C76.8006 120.778 75.8548 121.202 75.0137 120.877C74.1726 120.552 73.7504 119.607 74.0711 118.764C74.3918 117.921 75.3377 117.497 76.1788 117.822C77.0199 118.147 77.4421 119.092 77.1214 119.935Z" fill="#FBA819"/>
<path d="M77.8871 119.591C77.046 119.269 76.6238 118.321 76.9445 117.478C77.2653 116.635 78.2111 116.211 79.0523 116.536C79.8934 116.861 80.3156 117.806 79.9948 118.649C79.6741 119.493 78.7282 119.916 77.8871 119.591Z" fill="#FBA819"/>
<path d="M73.7313 117.996C72.8902 117.675 72.468 116.726 72.7887 115.883C73.1094 115.04 74.0553 114.617 74.8964 114.941C75.7375 115.266 76.1597 116.211 75.839 117.054C75.5182 117.898 74.5724 118.321 73.7313 117.996Z" fill="#FBA819"/>
<path d="M77.2523 117.593C77.069 118.068 76.5388 118.305 76.0675 118.124C75.593 117.94 75.3573 117.412 75.5373 116.936C75.7206 116.461 76.2475 116.224 76.7221 116.405C77.1967 116.585 77.4323 117.12 77.2523 117.593Z" fill="white"/>
<path d="M66.1115 112.064C65.7253 113.071 64.5995 113.577 63.5947 113.19C62.5899 112.802 62.0859 111.674 62.4721 110.666C62.8583 109.659 63.9842 109.154 64.9889 109.541C65.9937 109.928 66.4977 111.057 66.1115 112.064Z" fill="#FBA819"/>
<path d="M66.7794 109.629C66.4587 110.473 65.5128 110.896 64.6717 110.571C63.8306 110.246 63.4084 109.301 63.7291 108.458C64.0499 107.615 64.9957 107.191 65.8369 107.516C66.678 107.841 67.1002 108.786 66.7794 109.629Z" fill="#FBA819"/>
<path d="M65.1858 113.8C64.865 114.643 63.9191 115.066 63.078 114.741C62.2369 114.417 61.8147 113.472 62.1354 112.628C62.4562 111.785 63.4021 111.362 64.2432 111.687C65.0843 112.011 65.5065 112.956 65.1858 113.8Z" fill="#FBA819"/>
<path d="M65.9512 113.458C65.1101 113.137 64.6879 112.189 65.0086 111.345C65.3293 110.502 66.2752 110.079 67.1163 110.404C67.9575 110.729 68.3797 111.673 68.0589 112.517C67.7382 113.36 66.7923 113.783 65.9512 113.458Z" fill="#FBA819"/>
<path d="M61.7915 111.86C60.9503 111.539 60.5281 110.591 60.8489 109.747C61.1696 108.904 62.1155 108.481 62.9566 108.806C63.7977 109.131 64.2199 110.075 63.8992 110.919C63.5784 111.762 62.6326 112.185 61.7915 111.86Z" fill="#FBA819"/>
<path d="M65.3131 111.46C65.1298 111.936 64.6029 112.172 64.1283 111.992C63.6538 111.811 63.4181 111.28 63.5981 110.804C63.7814 110.328 64.3116 110.092 64.7829 110.273C65.2575 110.456 65.4931 110.985 65.3131 111.46Z" fill="white"/>
<path d="M73.1677 100.784C72.7815 101.791 71.6557 102.296 70.6509 101.909C69.6461 101.522 69.1421 100.393 69.5283 99.3858C69.9145 98.3786 71.0404 97.8767 72.0451 98.2605C73.0499 98.6477 73.5539 99.7764 73.1677 100.784Z" fill="#FBA819"/>
<path d="M73.8355 98.349C73.5148 99.1923 72.5689 99.6156 71.7278 99.2907C70.8867 98.9659 70.4645 98.0208 70.7852 97.1776C71.106 96.3343 72.0518 95.9112 72.8929 96.236C73.734 96.5608 74.1562 97.5058 73.8355 98.349Z" fill="#FBA819"/>
<path d="M72.2419 102.516C71.9212 103.359 70.9754 103.783 70.1342 103.458C69.2931 103.133 68.8709 102.188 69.1917 101.345C69.5124 100.501 70.4582 100.078 71.2994 100.403C72.1405 100.728 72.5627 101.673 72.2419 102.516Z" fill="#FBA819"/>
<path d="M73.0106 102.175C72.1695 101.853 71.7473 100.905 72.0681 100.062C72.3888 99.2184 73.3346 98.7952 74.1758 99.12C75.0169 99.4449 75.4391 100.39 75.1183 101.233C74.7976 102.076 73.8518 102.499 73.0106 102.175Z" fill="#FBA819"/>
<path d="M68.8475 100.577C68.0064 100.255 67.5842 99.3071 67.9049 98.4638C68.2257 97.6206 69.1715 97.1973 70.0126 97.5221C70.8538 97.8469 71.276 98.7919 70.9552 99.6351C70.6345 100.478 69.6886 100.902 68.8475 100.577Z" fill="#FBA819"/>
<path d="M72.3721 100.176C72.1888 100.652 71.6586 100.888 71.1873 100.708C70.7128 100.524 70.4771 99.996 70.6571 99.5202C70.8404 99.0445 71.3673 98.8082 71.8419 98.9886C72.3165 99.1691 72.5521 99.704 72.3721 100.176Z" fill="white"/>
<path d="M87.2967 150.949C86.9105 151.957 85.7846 152.462 84.7799 152.075C83.7751 151.688 83.2711 150.559 83.6573 149.552C84.0435 148.544 85.1693 148.039 86.1741 148.426C87.1789 148.813 87.6829 149.942 87.2967 150.949Z" fill="#FBA819"/>
<path d="M89.3068 149.199C88.986 150.043 88.0402 150.466 87.1991 150.141C86.3579 149.816 85.9357 148.871 86.2565 148.028C86.5772 147.185 87.523 146.762 88.3642 147.086C89.2053 147.411 89.6275 148.356 89.3068 149.199Z" fill="#FBA819"/>
<path d="M87.7089 153.369C87.3882 154.213 86.4423 154.636 85.6012 154.311C84.7601 153.986 84.3379 153.041 84.6586 152.198C84.9794 151.355 85.9252 150.932 86.7663 151.256C87.6075 151.581 88.0297 152.526 87.7089 153.369Z" fill="#FBA819"/>
<path d="M88.4787 153.028C87.6376 152.707 87.2154 151.759 87.5361 150.915C87.8569 150.072 88.8028 149.649 89.6439 149.974C90.485 150.298 90.9072 151.243 90.5865 152.087C90.2657 152.93 89.3198 153.353 88.4787 153.028Z" fill="#FBA819"/>
<path d="M87.8405 151.03C87.6572 151.506 87.127 151.742 86.6557 151.562C86.1812 151.378 85.9455 150.85 86.1255 150.374C86.3088 149.898 86.8357 149.662 87.3103 149.842C87.7849 150.023 88.0205 150.554 87.8405 151.03Z" fill="white"/>
<path d="M76.5846 160.549C76.5846 160.962 76.2507 161.3 75.8351 161.3C75.4194 161.3 75.0856 160.965 75.0856 160.549C75.0856 160.132 75.4194 159.797 75.8351 159.797C76.2507 159.797 76.5846 160.132 76.5846 160.549Z" fill="#FBA819"/>
<path d="M81.2585 172.807C81.6724 172.807 82.008 172.47 82.008 172.055C82.008 171.64 81.6724 171.304 81.2585 171.304C80.8445 171.304 80.509 171.64 80.509 172.055C80.509 172.47 80.8445 172.807 81.2585 172.807Z" fill="#FBA819"/>
<path d="M71.2988 175.97C71.2988 176.383 70.965 176.721 70.5493 176.721C70.1336 176.721 69.7998 176.386 69.7998 175.97C69.7998 175.553 70.1336 175.218 70.5493 175.218C70.965 175.218 71.2988 175.553 71.2988 175.97Z" fill="#FBA819"/>
<path d="M81.2585 152.29C81.6724 152.29 82.008 151.954 82.008 151.539C82.008 151.124 81.6724 150.787 81.2585 150.787C80.8445 150.787 80.509 151.124 80.509 151.539C80.509 151.954 80.8445 152.29 81.2585 152.29Z" fill="#FBA819"/>
<path d="M74.0975 147.057C74.0975 147.47 73.7636 147.808 73.348 147.808C72.9323 147.808 72.5985 147.473 72.5985 147.057C72.5985 146.64 72.9323 146.305 73.348 146.305C73.7636 146.305 74.0975 146.64 74.0975 147.057Z" fill="#FBA819"/>
<path d="M69.6659 158.143C69.6659 158.557 69.3321 158.895 68.9164 158.895C68.5008 158.895 68.1669 158.56 68.1669 158.143C68.1669 157.727 68.5008 157.392 68.9164 157.392C69.3321 157.392 69.6659 157.727 69.6659 158.143Z" fill="#FBA819"/>
<path d="M78.0868 110.502C78.5007 110.502 78.8363 110.166 78.8363 109.751C78.8363 109.336 78.5007 108.999 78.0868 108.999C77.6729 108.999 77.3373 109.336 77.3373 109.751C77.3373 110.166 77.6729 110.502 78.0868 110.502Z" fill="#FBA819"/>
<path d="M75.0894 105.505C75.0894 105.918 74.7555 106.256 74.3399 106.256C73.9242 106.256 73.5904 105.922 73.5904 105.505C73.5904 105.088 73.9242 104.754 74.3399 104.754C74.7555 104.754 75.0894 105.088 75.0894 105.505Z" fill="#FBA819"/>
<path d="M72.6016 112.72C73.0155 112.72 73.3511 112.384 73.3511 111.969C73.3511 111.554 73.0155 111.217 72.6016 111.217C72.1877 111.217 71.8521 111.554 71.8521 111.969C71.8521 112.384 72.1877 112.72 72.6016 112.72Z" fill="#FBA819"/>
<path d="M66.0431 101.82C66.0431 102.234 65.7093 102.572 65.2936 102.572C64.878 102.572 64.5441 102.237 64.5441 101.82C64.5441 101.404 64.878 101.069 65.2936 101.069C65.7093 101.069 66.0431 101.404 66.0431 101.82Z" fill="#FBA819"/>
<path d="M68.9164 107.004C69.3304 107.004 69.6659 106.668 69.6659 106.253C69.6659 105.838 69.3304 105.502 68.9164 105.502C68.5025 105.502 68.1669 105.838 68.1669 106.253C68.1669 106.668 68.5025 107.004 68.9164 107.004Z" fill="#FBA819"/>
<path d="M78.3297 104.262C78.3297 104.675 77.9958 105.013 77.5802 105.013C77.1645 105.013 76.8307 104.678 76.8307 104.262C76.8307 103.845 77.1645 103.51 77.5802 103.51C77.9958 103.51 78.3297 103.845 78.3297 104.262Z" fill="#FBA819"/>
<path d="M74.369 138.864C74.369 139.277 74.0352 139.615 73.6196 139.615C73.2039 139.615 72.8701 139.281 72.8701 138.864C72.8701 138.447 73.2039 138.112 73.6196 138.112C74.0352 138.112 74.369 138.447 74.369 138.864Z" fill="#FBA819"/>
<path d="M85.2741 129.644C85.2741 130.057 84.9402 130.395 84.5246 130.395C84.1089 130.395 83.7751 130.061 83.7751 129.644C83.7751 129.227 84.1089 128.893 84.5246 128.893C84.9402 128.893 85.2741 129.227 85.2741 129.644Z" fill="#FBA819"/>
<path d="M85.2741 136.38C85.2741 136.794 84.9402 137.132 84.5246 137.132C84.1089 137.132 83.7751 136.797 83.7751 136.38C83.7751 135.964 84.1089 135.629 84.5246 135.629C84.9402 135.629 85.2741 135.964 85.2741 136.38Z" fill="#FBA819"/>
<path d="M67.3813 178.204C67.3813 178.617 67.0474 178.955 66.6318 178.955C66.2161 178.955 65.8823 178.621 65.8823 178.204C65.8823 177.787 66.2161 177.453 66.6318 177.453C67.0474 177.453 67.3813 177.787 67.3813 178.204Z" fill="#FBA819"/>
</svg>
