<svg width="174" height="240" viewBox="0 0 174 240" fill="none" xmlns="http://www.w3.org/2000/svg">
<rect width="174" height="240" fill="none"/>
<path d="M100.536 89.4133C103.616 89.4136 104.791 91.2031 105.02 93.4983L120.933 186.912C120.933 189.946 118.775 190.107 117.985 190.107L55.0391 190.18C53.99 190.18 51.9797 190.18 51.9796 187.533L69.2784 93.6321C69.4371 91.4599 70.778 89.4133 73.5616 89.4133H79.5909C79.5895 89.5603 79.591 89.7068 79.5987 89.8557C79.7892 93.8967 83.0946 97.0149 86.9776 96.8098C87.2075 96.8167 87.4374 96.8235 87.6739 96.8098C91.4771 96.6232 94.4312 93.3393 94.4092 89.4133H100.536Z" fill="#333481"/>
</svg>
