<svg width="174" height="240" viewBox="0 0 174 240" fill="none" xmlns="http://www.w3.org/2000/svg">
<rect width="174" height="240" fill="none"/>
<path d="M126.617 167.278C126.613 167.266 126.607 167.254 126.603 167.241L126.192 166.109L126.617 167.278ZM104.285 92.2596C106.678 91.3864 109.322 92.6184 110.191 95.0121L131.095 152.591L122.429 155.745L101.528 98.1747C100.659 95.7809 101.893 93.133 104.285 92.2596Z" fill="#F49200"/>
<path d="M100.495 98.2419C99.6508 95.9164 100.85 93.3437 103.175 92.4956C105.499 91.6475 108.067 92.8451 108.911 95.1706L129.952 153.135L121.536 156.206L100.495 98.2419Z" fill="#FF9800"/>
<path d="M40.8423 164.429C40.8466 164.416 40.8502 164.404 40.8547 164.392L41.2665 163.263L40.8423 164.429ZM71.8755 92.828C74.2693 93.6969 75.5032 96.3404 74.6305 98.7328L53.6971 156.101L45.0306 152.947L65.961 95.5868C66.8339 93.1944 69.4816 91.9595 71.8755 92.828Z" fill="#F49200"/>
<path d="M65.0752 95.1143C65.9233 92.7902 68.496 91.5906 70.8215 92.4347C73.1469 93.2789 74.3446 95.8472 73.4964 98.1712L52.4835 155.751L44.0623 152.694L65.0752 95.1143Z" fill="#FF9800"/>
<path d="M84.3318 161.773V169.397H70.0766V106.171C70.0766 103.685 72.0913 101.671 74.5766 101.671H97.9094C100.395 101.671 102.409 103.685 102.409 106.171V169.397H88.1254V161.773H84.3318Z" fill="#EFEFEF"/>
<path d="M68.5201 169.397H84.3432V225.585C84.3432 229.313 80.8051 232.329 76.4316 232.329C72.0582 232.329 68.5201 229.313 68.5201 225.585V169.397Z" fill="#32B8DE"/>
<path d="M77.5877 232.329C77.2097 232.329 76.8318 232.299 76.4598 232.233C79.7176 231.694 82.1055 228.878 82.0935 225.577V161.767H84.3434V225.577C84.3434 229.31 81.3195 232.329 77.5817 232.329H77.5877Z" fill="#3EA4DD"/>
<path d="M89.5 169.397H105.5V225.585C105.5 229.313 101.922 232.329 97.5 232.329C93.0776 232.329 89.5 229.313 89.5 225.585V169.397Z" fill="#32B8DE"/>
<path d="M98.7444 232.329C98.3664 232.329 97.9884 232.299 97.6165 232.233C100.874 231.695 103.262 228.882 103.25 225.585V120.208H105.5V225.585C105.5 229.313 102.476 232.329 98.7384 232.329H98.7444Z" fill="#3EA4DD"/>
<path d="M69.9612 93.0339C70.5007 90.5787 72.5994 89.6328 74.5174 89.6328L99.3731 89.6329C101.049 89.6329 103.792 90.1865 104.181 92.3211L112.506 172.101C112.767 173.305 111.751 174.872 110.535 174.872C109.318 174.872 63.4835 174.872 63.4835 174.872C62.3474 174.872 61.5104 173.864 61.5104 172.62L69.9612 93.0339Z" fill="#FF9800"/>
<path d="M110.753 174.98H63.3047C62.3197 174.98 61.5104 173.972 61.5104 172.728C61.5104 172.57 61.5229 172.413 61.548 172.263L70.1696 92.5464C70.408 91.1447 71.803 90.2488 72.7444 89.9167L63.3423 170.011C63.1416 171.224 63.7564 172.413 64.7288 172.673C64.848 172.704 64.9735 172.72 65.0989 172.72H112.547C112.547 173.318 112.359 173.893 112.02 174.31C111.681 174.736 111.23 174.972 110.753 174.964V174.98Z" fill="#F49200"/>
<path d="M87.0477 6.17163C99.2607 6.17163 115.497 14.8388 119.481 26.3904L127.16 45.0691C132.144 59.5261 118.711 77.9772 105.025 84.8201L107.891 90.5525C108.45 91.6626 107.994 93.0167 106.884 93.5681C106.569 93.7256 106.229 93.8044 105.875 93.8044H89.2919L85.6464 122.995C85.4889 124.231 84.3708 125.097 83.1346 124.948C82.4261 124.861 81.8034 124.444 81.4569 123.822L65.1649 94.8445C64.8027 94.191 64.7796 93.4113 65.1102 92.7341L69.0712 84.8044C55.3936 77.9617 43.1834 60.5634 48.1678 46.0984L56.5448 26.4011C60.5294 14.8499 74.8271 6.17175 87.0477 6.17163ZM87.8417 23.9998C70.2166 23.9998 55.9305 38.2534 55.9305 55.8318C55.9308 73.41 70.2167 87.657 87.8417 87.657C105.466 87.6567 119.752 73.4099 119.752 55.8318C119.752 38.2535 105.467 24.0059 87.8417 24.0056V23.9998Z" fill="#DB307A"/>
<path d="M89.286 91.9625L85.6796 122.318C85.53 123.554 84.4119 124.428 83.1835 124.278C82.4354 124.192 81.7819 123.727 81.4433 123.058L69.0648 98.3012L81.5457 117.916C82.215 118.963 83.6008 119.27 84.6481 118.601C85.1993 118.255 85.5694 117.672 85.6639 117.026L89.2939 91.9546L89.286 91.9625Z" fill="#35393F"/>
<path d="M103.459 91.0961C104.081 91.0961 104.585 90.6 104.585 89.9701C104.585 89.852 104.561 89.7339 104.53 89.6079L104.364 89.1118C104.285 88.8913 104.908 88.6236 105.018 88.8441L105.561 89.9387C106.12 91.0489 105.663 92.4033 104.553 92.9545C104.215 93.1277 103.837 93.2065 103.459 93.1907L78.0247 92.1749C77.6468 92.1592 77.6625 91.0961 78.0484 91.0961H103.459Z" fill="#35393F"/>
<path d="M55.9227 56.1764C54.7471 46.0173 58.7825 35.9661 65.6221 31.1854L77.5111 22.8702C82.8634 19.1225 91.0719 19.6658 96.783 22.3944L110.511 31.1854C114.741 34.1563 116.586 40.5284 118.002 45.3689C116.301 42.748 114.826 40.2004 112.225 38.382L96.783 27.6083C91.4307 23.8776 84.1904 23.8776 78.8381 27.6083L66.2276 36.4015C60.5814 40.337 56.5995 47.7332 55.9227 56.1764Z" fill="#35393F"/>
</svg>
