<svg width="174" height="240" viewBox="0 0 174 240" fill="none" xmlns="http://www.w3.org/2000/svg">
<rect width="174" height="240" fill="none"/>
<path d="M65.8312 159.259V171.339L83.8248 171.332C83.8248 169.803 84.2952 168.548 86.7498 168.548C89.2045 168.548 89.8005 169.788 89.8005 171.312L107.796 171.339V159.259H65.8312Z" fill="#32B8DE"/>
<path d="M65.8229 161.433L83.8229 161.451V223.054C83.8229 227.999 79.798 231.999 74.8229 231.999C69.8477 231.999 65.8229 227.999 65.8229 223.054V161.433Z" fill="#32B8DE"/>
<path d="M75.1824 231.999C74.699 231.999 74.2156 231.96 73.7398 231.872C77.9066 231.158 80.9606 227.427 80.9453 223.054V170.478L83.8229 170.478V223.054C83.8229 227.999 79.9554 231.999 75.1748 231.999H75.1824Z" fill="#3EA4DD"/>
<path d="M89.7903 161.433L107.79 161.433V223.066C107.79 228.004 103.765 231.999 98.7903 231.999C93.8151 231.999 89.7903 228.004 89.7903 223.066V161.433Z" fill="#32B8DE"/>
<path d="M99.1538 231.999C98.6702 231.999 98.1867 231.961 97.7108 231.877C101.878 231.191 104.933 227.606 104.918 223.403V161.721L107.796 161.721V223.403C107.796 228.155 103.928 231.999 99.1461 231.999H99.1538Z" fill="#3EA4DD"/>
<path d="M62.9739 96.3612C64.1314 93.1915 67.6408 91.5559 70.8124 92.7078C73.984 93.8597 75.6168 97.3629 74.4594 100.533L54.3195 155.686L42.8341 151.514L62.9739 96.3612Z" fill="#FF9800"/>
<path d="M71.4344 92.9159C74.2556 93.9404 75.7089 97.0569 74.6802 99.8765L54.3206 155.668L53.0854 155.219L73.67 98.8115C74.538 96.4331 73.3966 93.8149 71.112 92.8111C71.2195 92.8428 71.3276 92.8772 71.4344 92.9159Z" fill="#E89627"/>
<path d="M111.026 96.3612C109.869 93.1915 106.359 91.5559 103.188 92.7078C100.016 93.8597 98.3833 97.363 99.5407 100.533L119.519 155.242L131.004 151.07L111.026 96.3612Z" fill="#FF9800"/>
<path d="M102.566 92.9159C99.7446 93.9404 98.2913 97.0569 99.32 99.8765L119.518 155.224L120.753 154.775L100.33 98.8115C99.4622 96.4331 100.604 93.8149 102.888 92.8111C102.781 92.8428 102.673 92.8772 102.566 92.9159Z" fill="#E89627"/>
<path d="M70.4394 93.0339C70.9789 90.5787 73.0776 89.6328 74.9956 89.6328L99.8513 89.6329C101.527 89.6329 104.271 90.1865 104.659 92.3211L117.001 172.101C117.001 174.872 114.898 174.872 114.025 174.872C113.153 174.872 60.9724 174.872 60.9724 174.872C59.8363 174.872 57.9965 174.872 57.9965 172.62L70.4394 93.0339Z" fill="#FF9800"/>
<path d="M114.927 174.872H60.0743C58.9356 174.872 58 173.864 58 172.62C58 172.463 58.0145 172.305 58.0435 172.156L70.2714 92.8788C71.6266 92.4995 71.514 92.8315 72.6023 92.4995L60.1178 169.904C59.8858 171.116 60.5965 172.305 61.7207 172.565C61.8585 172.597 62.0035 172.612 62.1486 172.612H117.001C117.001 173.211 116.784 173.786 116.392 174.203C116 174.628 115.478 174.864 114.927 174.857V174.872Z" fill="#F49200"/>
<path d="M87.5264 6.17163C99.7393 6.1717 115.976 14.8389 119.96 26.3904L127.638 45.0691C132.622 59.5263 119.188 77.9773 105.503 84.8201L108.369 90.5525C108.928 91.6627 108.472 93.0169 107.361 93.5681C107.046 93.7256 106.708 93.8044 106.354 93.8044H89.7705L86.125 122.995C85.9675 124.231 84.8486 125.098 83.6123 124.948C82.9039 124.861 82.282 124.444 81.9355 123.822L65.6436 94.8445C65.2813 94.1909 65.2582 93.4113 65.5889 92.7341L69.5488 84.8044C55.8713 77.9616 41.8887 60.9159 46.873 46.4509L57.0225 26.4011C61.007 14.8497 75.3056 6.17163 87.5264 6.17163ZM87.501 24.657C70.2398 24.657 56.249 38.6163 56.249 55.8318C56.2493 73.047 70.24 86.9998 87.501 86.9998C104.762 86.9996 118.752 73.0469 118.752 55.8318C118.752 38.6164 104.762 24.663 87.501 24.6628V24.657Z" fill="#DB307A"/>
<path d="M89.7642 91.9625L86.1578 122.318C86.0082 123.554 84.89 124.428 83.6616 124.278C82.9136 124.192 82.2601 123.727 81.9215 123.058L69.543 98.3012L82.0238 117.916C82.6931 118.963 84.079 119.27 85.1262 118.601C85.6774 118.255 86.0476 117.672 86.1421 117.026L89.7721 91.9546L89.7642 91.9625Z" fill="#35393F"/>
<path d="M103.937 91.0961C104.559 91.0961 105.063 90.6 105.063 89.9701C105.063 89.852 105.039 89.7339 105.008 89.6079L104.842 89.1118C104.764 88.8913 105.386 88.6236 105.496 88.8441L106.039 89.9387C106.598 91.0489 106.142 92.4033 105.031 92.9545C104.693 93.1277 104.315 93.2065 103.937 93.1907L78.5029 92.1749C78.125 92.1592 78.1408 91.0961 78.5266 91.0961H103.937Z" fill="#35393F"/>
<path d="M56.1846 56.2499C55.0091 46.0908 59.2608 35.9661 66.1004 31.1854L77.9894 22.8702C83.3417 19.1225 91.5502 19.6658 97.2613 22.3944L110.989 31.1854C115.219 34.1563 115.812 40.7267 117.228 45.5672C115.527 42.9464 115.304 40.2004 112.704 38.382L97.2613 27.6083C91.909 23.8776 84.6686 23.8776 79.3163 27.6083L66.7059 36.4015C61.0597 40.337 56.8614 47.8068 56.1846 56.2499Z" fill="#35393F"/>
</svg>
