<svg width="174" height="240" viewBox="0 0 174 240" fill="none" xmlns="http://www.w3.org/2000/svg">
<rect width="174" height="240" fill="none"/>
<path d="M85.2539 164.157V164.383H71.0159V154.318H103.016V164.383H88.8002V164.157C88.8002 163.178 88.0063 162.384 87.027 162.384C86.0477 162.384 85.2539 163.178 85.2539 164.157Z" fill="#32B8DE"/>
<path d="M71.0159 164.383L85.255 164.383V225.124C85.255 228.925 82.0711 232 78.1355 232C74.1998 232 71.0159 228.925 71.0159 225.124V164.383Z" fill="#32B8DE"/>
<path d="M78.1348 232C77.7368 232 77.3388 231.969 76.9471 231.9C80.3774 231.335 82.8917 228.384 82.8791 224.925V163.992H85.2481V224.925C85.2481 228.836 82.0641 232 78.1285 232H78.1348Z" fill="#3EA4DD"/>
<path d="M88.7767 162.419L103.016 162.419V224.924C103.016 228.836 99.8319 232 95.8963 232C91.9606 232 88.7767 228.836 88.7767 224.924V162.419Z" fill="#32B8DE"/>
<path d="M95.8956 232C95.4976 232 95.0996 231.969 94.7079 231.9C98.1382 231.335 100.653 228.384 100.64 224.925L100.666 154.334L103.009 154.334V224.925C103.009 228.836 99.8249 232 95.8893 232H95.8956Z" fill="#3EA4DD"/>
<path d="M70.8515 93.0339C71.391 90.5787 73.1037 89.6328 75.0217 89.6328L98.9014 89.6329C100.578 89.6329 102.599 90.1865 102.987 92.3211L106.076 172.101C106.336 173.305 105.399 174.872 104.183 174.872C102.966 174.872 69.9049 174.872 69.9049 174.872C68.7688 174.872 67.912 173.864 67.912 172.62L70.8515 93.0339Z" fill="#FF9800"/>
<path d="M104.776 174.98H69.2552C68.5179 174.98 67.912 173.972 67.912 172.728C67.912 172.57 67.9214 172.413 67.9401 172.263L70.2795 107.209C70.4579 105.807 71.0662 105.46 71.771 105.128L69.2834 170.011C69.1331 171.224 69.5934 172.413 70.3214 172.673C70.4106 172.704 70.5045 172.72 70.5985 172.72H106.12C106.12 173.318 105.979 173.893 105.725 174.31C105.471 174.736 105.133 174.972 104.776 174.964V174.98Z" fill="#F49200"/>
<path d="M100.252 97.7519C99.4635 95.5792 100.584 93.1755 102.756 92.3831C104.927 91.5907 107.327 92.7096 108.115 94.8824L126.8 146.354L118.937 149.223L100.252 97.7519Z" fill="#FF9800"/>
<path d="M103.135 92.2674C105.716 91.3256 108.568 92.6559 109.506 95.2382L127.905 145.925L126.775 146.336L108.171 95.085C107.379 92.9052 105.036 91.7407 102.842 92.3844C102.938 92.3426 103.035 92.3036 103.135 92.2674Z" fill="#F49200"/>
<path d="M64.7262 94.7557C65.575 92.4299 68.1497 91.2293 70.4769 92.0741C72.8042 92.9189 74.0027 95.4892 73.154 97.815L54.5793 148.713L46.1516 145.654L64.7262 94.7557Z" fill="#FF9800"/>
<path d="M70.977 92.2734C73.3835 93.1469 74.6228 95.805 73.7453 98.2101L55.2311 148.952L54.1786 148.569L72.8841 97.3012C73.6242 95.2724 72.651 93.0395 70.702 92.1837C70.7939 92.2108 70.8857 92.2403 70.977 92.2734Z" fill="#F49200"/>
<path d="M87.5521 6.17163C99.7651 6.17163 116.001 14.8388 119.986 26.3904L127.663 45.0691C132.648 59.5263 119.214 77.9773 105.529 84.8201L108.396 90.5525C108.955 91.6628 108.497 93.0169 107.387 93.5681C107.072 93.7256 106.734 93.8044 106.379 93.8044H89.7963L86.1508 122.995C85.9933 124.231 84.8751 125.097 83.639 124.948C82.9305 124.861 82.3078 124.444 81.9613 123.822L65.6693 94.8445C65.3071 94.191 65.284 93.4113 65.6146 92.7341L69.5756 84.8044C55.9743 76.4749 42.2325 64.319 48.2709 47.9529L57.0492 26.4011C61.0338 14.8498 75.3315 6.17169 87.5521 6.17163ZM88.1517 23.9998C70.6337 23.9999 56.4349 38.1667 56.4349 55.6384C56.435 73.1102 70.6337 87.2711 88.1517 87.2712C105.67 87.2712 119.869 73.1102 119.869 55.6384C119.869 38.1666 105.67 24.0056 88.1517 24.0056V23.9998Z" fill="#DB307A"/>
<path d="M89.7903 91.9625L86.1839 122.318C86.0343 123.554 84.9161 124.428 83.6877 124.278C82.9397 124.192 82.2861 123.727 81.9475 123.058L69.5691 98.3012L82.0499 117.916C82.7192 118.963 84.105 119.27 85.1523 118.601C85.7035 118.255 86.0736 117.672 86.1681 117.026L89.7982 91.9546L89.7903 91.9625Z" fill="#35393F"/>
<path d="M103.963 91.0961C104.585 91.0961 105.089 90.6 105.089 89.9701C105.089 89.852 105.065 89.7339 105.034 89.6079L104.869 89.1118C104.79 88.8913 105.412 88.6236 105.522 88.8441L106.065 89.9387C106.624 91.0489 106.168 92.4033 105.057 92.9545C104.719 93.1277 104.341 93.2065 103.963 93.1907L78.529 92.1749C78.151 92.1592 78.1668 91.0961 78.5527 91.0961H103.963Z" fill="#35393F"/>
<path d="M56.4269 56.1764C55.2514 46.0173 59.2868 35.9661 66.1263 31.1854L78.0154 22.8702C83.3677 19.1225 91.5761 19.6658 97.2872 22.3944L111.015 31.1854C115.245 34.1563 116.844 40.8571 118.26 45.6976C116.559 43.0767 115.33 40.2004 112.73 38.382L97.2872 27.6083C91.9349 23.8776 84.6946 23.8776 79.3423 27.6083L66.7319 36.4015C61.0857 40.337 57.1037 47.7332 56.4269 56.1764Z" fill="#35393F"/>
</svg>
