<svg width="174" height="240" viewBox="0 0 174 240" fill="none" xmlns="http://www.w3.org/2000/svg">
<rect width="174" height="240" fill="none"/>
<path d="M111.324 95.0607L113.594 101.493L101.975 105.589L99.7038 99.1567C98.525 95.8158 100.106 92.1706 103.257 90.7039C104.837 90.3128 106.451 90.5084 107.836 91.1766C109.411 91.9317 110.699 93.2843 111.324 95.0607Z" fill="#EFEFEF"/>
<path d="M63.4712 95.3313L61.2005 101.763L72.8203 105.859L75.091 99.427C76.2699 96.0861 74.6891 92.4412 71.5383 90.9745C69.9575 90.5833 68.344 90.7787 66.9588 91.4469C65.3834 92.202 64.0959 93.5549 63.4712 95.3313Z" fill="#EFEFEF"/>
<path d="M81.3809 89.665V89.7627H79.5566C79.5435 90.0049 79.5435 90.2412 79.5566 90.4834C79.7471 94.3514 83.0485 97.336 86.9268 97.1396C87.1563 97.1462 87.386 97.1527 87.6221 97.1396C91.5201 96.9563 94.5255 93.6504 94.3418 89.7627H92.4717V89.7109L100.042 89.7422C103.765 89.7422 104.182 92.8559 104.348 93.8408L105.895 155.599C106.08 156.757 105.539 157.898 104.686 158.15C104.574 158.18 104.458 158.198 104.346 158.198H69.9355C69.0589 158.198 68.3447 157.243 68.3408 156.061C68.3408 155.905 68.3519 155.749 68.3789 155.599L68.3711 155.604L69.5977 94.6504C69.5977 91.3522 71.2468 89.6377 74.5518 89.6377L81.3809 89.665Z" fill="white"/>
<path d="M85.6621 96.155C84.9341 96.834 81.8455 99.6184 80.5145 99.6184C79.7486 99.6184 79.113 99.3031 78.6186 98.7001C77.4235 97.2116 77.2171 93.8762 78.0591 89.7476H78.7979C77.9722 93.6806 78.1189 96.9348 79.1836 98.2494C79.5367 98.684 79.9713 98.8957 80.52 98.9012C80.9057 98.9012 81.7857 98.3364 82.7853 97.5704C83.7848 96.8044 84.1531 96.5937 85.0114 95.7951L85.6601 96.1568L85.6621 96.155Z" fill="#333481"/>
<path d="M95.3451 98.7055C94.9268 99.2162 94.4107 99.515 93.7969 99.5965C93.6828 99.6128 93.5687 99.6236 93.4492 99.6236C92.1182 99.6236 88.924 96.739 88.2015 96.06L88.929 95.7771C90.6456 97.3796 92.6778 98.9119 93.4437 98.9119C93.585 98.9119 93.7208 98.8957 93.8457 98.8631C94.2097 98.7816 94.5193 98.5807 94.7801 98.2602C95.8448 96.9401 95.9915 93.6913 95.1658 89.7583H95.3233C95.5189 89.7583 95.7199 89.7746 95.9101 89.8018C96.7412 93.9141 96.5348 97.2334 95.3451 98.7164V98.7055Z" fill="#333481"/>
<path d="M110.929 190.343L104.566 107.861L98.7456 105.833C97.8004 105.474 97.1648 104.589 97.1105 103.584L96.3798 89.7422H94.4758L93.8456 98.8467L93.7913 99.5857L92.9981 111.064C92.9058 112.422 91.7976 113.487 90.4341 113.525L86.9954 113.563L83.5567 113.525C82.1932 113.487 81.085 112.417 80.9926 111.064L80.1995 99.5857L80.1452 98.8467L79.515 89.7422H77.611L76.8803 103.584C76.8314 104.594 76.1904 105.474 75.2452 105.833L69.5974 107.679L63.6028 190.343C63.6028 194.275 63.5673 194.701 67.3537 194.761H87.028H106.483C110.27 194.701 110.929 194.194 110.929 190.343Z" fill="#333481"/>
<path d="M71.7253 174.476C71.6981 174.476 71.671 174.476 71.6438 174.476C71.1495 174.427 70.7855 173.993 70.8344 173.499L75.8865 118.702C75.9354 118.208 76.37 117.844 76.8643 117.893C77.3587 117.941 77.7226 118.376 77.6737 118.871L72.6216 173.667C72.5781 174.134 72.1871 174.482 71.7253 174.482V174.476Z" fill="#6666CC"/>
<path d="M102.239 176.269C101.783 176.269 101.392 175.922 101.343 175.46L95.9647 119.229C95.9158 118.735 96.2797 118.295 96.7741 118.251C97.2739 118.203 97.7084 118.567 97.7519 119.061L103.13 175.291C103.179 175.786 102.815 176.226 102.321 176.269C102.293 176.269 102.261 176.269 102.234 176.269H102.239Z" fill="#6666CC"/>
<path d="M87.3103 122.418C87.2506 122.423 87.1963 122.434 87.142 122.434C87.0225 122.445 86.9029 122.445 86.7889 122.434C86.8486 122.434 86.9083 122.429 86.9735 122.418C88.5109 122.217 89.5974 120.815 89.391 119.278L87.8808 102.557L87.7286 101.346C87.6635 100.862 87.2886 100.455 86.7834 100.384C86.8866 100.368 86.9898 100.368 87.0985 100.379C87.18 100.39 87.2506 100.406 87.3267 100.438C87.7287 100.574 88.0166 100.933 88.0655 101.351L88.1741 102.171L89.7386 119.283C89.9396 120.821 88.8531 122.222 87.3212 122.423L87.3103 122.418Z" fill="#333481"/>
<path d="M89.7331 119.272L88.1686 102.16L88.0599 101.34C88.011 100.922 87.7231 100.563 87.3211 100.427C87.1582 100.4 86.9789 100.379 86.7833 100.379C86.7779 100.379 86.767 100.379 86.7616 100.373C86.1477 100.292 85.5828 100.726 85.5067 101.34L85.398 102.16L83.8335 119.272C83.8064 119.501 83.8009 119.751 83.8335 119.99C83.8335 119.99 84.3985 122.624 86.7888 122.429H87.1419C87.1962 122.429 87.2505 122.423 87.3103 122.412C88.8476 122.211 89.9341 120.81 89.7277 119.272H89.7331Z" fill="#333481"/>
<path d="M88.1745 102.166C88.0984 102.307 88.0061 102.443 87.892 102.552C87.6095 102.834 87.2184 103.008 86.7892 103.008C86.3601 103.008 85.9689 102.834 85.6865 102.552C85.5724 102.438 85.48 102.307 85.404 102.166L85.5126 101.346C85.5941 100.732 86.1536 100.297 86.7675 100.379C86.7729 100.379 86.7838 100.379 86.7947 100.379C86.8979 100.363 87.0011 100.363 87.1043 100.379C87.6204 100.45 88.0115 100.857 88.0713 101.346L88.1799 102.166H88.1745Z" fill="#000066"/>
<path d="M90.2331 98.0429L88.1579 101.634C87.832 102.199 87.2453 102.465 86.6749 102.421C87.1692 102.389 87.6527 102.128 87.9352 101.634L90.0103 98.0429C90.6187 96.989 89.8583 95.6636 88.6414 95.6636H88.8641C90.0864 95.6636 90.8469 96.9836 90.2331 98.0429Z" fill="#6666CC"/>
<path d="M90.0105 98.0429L87.9353 101.634C87.6528 102.128 87.1694 102.389 86.675 102.421C86.1807 102.389 85.6972 102.128 85.4147 101.634L83.3395 98.0429C82.7311 96.989 83.4916 95.6636 84.7084 95.6636H88.6307C89.853 95.6636 90.6135 96.9836 89.9996 98.0429H90.0105Z" fill="#333481"/>
<path d="M63.752 95.3313L61.4813 101.763L73.1011 105.859L75.3718 99.427C76.5507 96.0861 74.9699 92.4412 71.8191 90.9745C70.2383 90.5833 68.6248 90.7787 67.2396 91.4469C65.6642 92.202 64.3767 93.5549 63.752 95.3313Z" fill="white"/>
<path d="M110.895 95.0607L113.165 101.493L101.545 105.589L99.2748 99.1567C98.096 95.8158 99.6767 92.1706 102.828 90.7039C104.408 90.3128 106.022 90.5084 107.407 91.1766C108.982 91.9317 110.27 93.2843 110.895 95.0607Z" fill="white"/>
</svg>
