<svg width="174" height="240" viewBox="0 0 174 240" fill="none" xmlns="http://www.w3.org/2000/svg">
<rect width="174" height="240" fill="none"/>
<path d="M111.802 94.858L114.073 101.29L102.453 105.386L100.182 98.9541C99.0033 95.6132 100.584 91.968 103.735 90.5013C105.316 90.1101 106.929 90.3058 108.314 90.9739C109.89 91.729 111.177 93.0817 111.802 94.858Z" fill="#EFEFEF"/>
<path d="M63.9494 95.1286L61.6787 101.56L73.2986 105.657L75.5693 99.2244C76.7481 95.8835 75.1673 92.2386 72.0165 90.7718C70.4357 90.3807 68.8223 90.5761 67.437 91.2443C65.8616 91.9994 64.5741 93.3522 63.9494 95.1286Z" fill="#EFEFEF"/>
<path d="M101.01 89.4351C104.732 89.4351 104.66 91.8612 104.826 92.8462L110.731 155.396C110.915 156.555 106.019 157.695 105.164 157.948C105.052 157.978 104.936 157.996 104.824 157.996H70.4138C69.5362 157.995 65.8981 157.041 65.8943 155.858L68.8494 93.9956C68.8494 90.6975 70.8386 89.4351 73.3962 89.4351H79.5964C79.588 89.6442 79.588 89.8497 79.5994 90.0601C79.7897 93.9281 83.0911 96.9127 86.9695 96.7163C87.1991 96.7229 87.4287 96.7294 87.6648 96.7163C91.5311 96.5345 94.5173 93.2815 94.3865 89.4351H101.01Z" fill="white"/>
<path d="M86.1403 95.9523C85.4123 96.6314 82.3237 99.4158 80.9927 99.4158C80.2268 99.4158 79.5912 99.1005 79.0968 98.4975C77.9017 97.009 77.6953 93.6735 78.5373 89.5449H79.2762C78.4504 93.478 78.5971 96.7322 79.6618 98.0468C80.0149 98.4814 80.4495 98.6931 80.9982 98.6985C81.3839 98.6985 82.2639 98.1337 83.2635 97.3678C84.2631 96.6018 84.6313 96.391 85.4896 95.5925L86.1383 95.9542L86.1403 95.9523Z" fill="#333481"/>
<path d="M95.8233 98.5029C95.405 99.0136 94.889 99.3124 94.2751 99.3939C94.161 99.4102 94.047 99.4209 93.9274 99.4209C92.5965 99.4209 89.4023 96.5364 88.6798 95.8573L89.4072 95.5744C91.1239 97.177 93.156 98.7093 93.922 98.7093C94.0632 98.7093 94.1991 98.6931 94.324 98.6605C94.688 98.579 94.9976 98.3781 95.2584 98.0575C96.3231 96.7375 96.4698 93.4887 95.644 89.5557H95.8016C95.9972 89.5557 96.1982 89.572 96.3883 89.5992C97.2195 93.7115 97.013 97.0307 95.8233 98.5138V98.5029Z" fill="#333481"/>
<path d="M116.092 190.14L106.143 107.941L99.224 105.63C98.2787 105.272 97.6431 104.386 97.5888 103.381L96.891 89.417H94.9869L94.3239 98.6439L94.2696 99.3829L93.4765 110.861C93.3841 112.22 92.2759 113.284 90.9124 113.322L87.4737 113.36L84.035 113.322C82.6715 113.284 81.5633 112.214 81.4709 110.861L80.6778 99.3829L80.6235 98.6439L79.3143 89.5394L76.9985 89.5394L76.3608 103.381C76.3608 105.07 73.9804 105.992 73.0352 106.351L68.1335 107.547L59.0978 190.14C59.0978 194.072 62.2007 194.499 65.9871 194.558H87.5063H107.986C111.772 194.499 116.092 193.718 116.092 190.14Z" fill="#333481"/>
<path d="M72.2035 174.274C72.1764 174.274 72.1492 174.274 72.122 174.274C71.6277 174.225 71.2637 173.79 71.3126 173.296L76.3647 118.5C76.4136 118.005 76.8482 117.641 77.3426 117.69C77.8369 117.739 78.2009 118.174 78.152 118.668L73.0998 173.464C73.0564 173.931 72.6653 174.279 72.2035 174.279V174.274Z" fill="#6666CC"/>
<path d="M102.717 176.067C102.261 176.067 101.87 175.719 101.821 175.257L96.4429 119.027C96.394 118.532 96.758 118.092 97.2523 118.049C97.7521 118 98.1866 118.364 98.2301 118.858L103.608 175.089C103.657 175.583 103.293 176.023 102.799 176.067C102.772 176.067 102.739 176.067 102.712 176.067H102.717Z" fill="#6666CC"/>
<path d="M87.7886 122.215C87.7288 122.221 87.6745 122.232 87.6202 122.232C87.5007 122.242 87.3812 122.242 87.2671 122.232C87.3269 122.232 87.3866 122.226 87.4518 122.215C88.9891 122.014 90.0757 120.613 89.8692 119.075L88.359 102.354L88.2069 101.143C88.1417 100.659 87.7669 100.252 87.2617 100.181C87.3649 100.165 87.4681 100.165 87.5767 100.176C87.6582 100.187 87.7288 100.203 87.8049 100.236C88.2069 100.372 88.4948 100.73 88.5437 101.149L88.6523 101.969L90.2168 119.081C90.4178 120.618 89.3314 122.02 87.7995 122.221L87.7886 122.215Z" fill="#333481"/>
<path d="M90.2113 119.07L88.6469 101.958L88.5382 101.138C88.4893 100.719 88.2014 100.361 87.7994 100.225C87.6364 100.198 87.4571 100.176 87.2616 100.176C87.2561 100.176 87.2453 100.176 87.2398 100.17C86.626 100.089 86.061 100.524 85.985 101.138L85.8763 101.958L84.3118 119.07C84.2846 119.298 84.2792 119.548 84.3118 119.787C84.3118 119.787 84.8768 122.422 87.267 122.226H87.6201C87.6745 122.226 87.7287 122.221 87.7885 122.21C89.3259 122.009 90.4124 120.607 90.2059 119.07H90.2113Z" fill="#333481"/>
<path d="M88.6527 101.964C88.5766 102.105 88.4844 102.241 88.3703 102.349C88.0878 102.632 87.6966 102.805 87.2675 102.805C86.8383 102.805 86.4472 102.632 86.1647 102.349C86.0506 102.235 85.9583 102.105 85.8822 101.964L85.9909 101.143C86.0724 100.529 86.6319 100.095 87.2457 100.176C87.2512 100.176 87.2621 100.176 87.2729 100.176C87.3761 100.16 87.4793 100.16 87.5825 100.176C88.0986 100.247 88.4898 100.654 88.5495 101.143L88.6581 101.964H88.6527Z" fill="#000066"/>
<path d="M90.7113 97.8403L88.6362 101.431C88.3102 101.996 87.7235 102.262 87.1531 102.219C87.6475 102.186 88.1309 101.926 88.4134 101.431L90.4886 97.8403C91.097 96.7864 90.3365 95.4609 89.1197 95.4609H89.3423C90.5646 95.4609 91.3252 96.7809 90.7113 97.8403Z" fill="#6666CC"/>
<path d="M90.4887 97.8403L88.4136 101.431C88.1311 101.926 87.6476 102.186 87.1533 102.219C86.6589 102.186 86.1754 101.926 85.8929 101.431L83.8178 97.8403C83.2094 96.7864 83.9698 95.4609 85.1867 95.4609H89.1089C90.3312 95.4609 91.0917 96.7809 90.4779 97.8403H90.4887Z" fill="#333481"/>
<path d="M63.2838 95.1286L61.0131 101.56L72.633 105.657L74.9037 99.2244C76.0825 95.8835 74.5017 92.2386 71.351 90.7718C69.7701 90.3807 68.1567 90.5761 66.7714 91.2443C65.196 91.9994 63.9085 93.3522 63.2838 95.1286Z" fill="white"/>
<path d="M111.802 94.858L114.073 101.29L102.453 105.386L100.182 98.9541C99.0033 95.6132 100.584 91.968 103.735 90.5013C105.316 90.1101 106.929 90.3058 108.314 90.9739C109.89 91.729 111.177 93.0817 111.802 94.858Z" fill="white"/>
</svg>
