<svg width="174" height="240" viewBox="0 0 174 240" fill="none" xmlns="http://www.w3.org/2000/svg">
<rect width="174" height="240" fill="none"/>
<path d="M110.658 96.3019L112.929 102.734L101.309 106.83L99.038 100.398C97.8592 97.057 99.44 93.4119 102.591 91.9451C104.172 91.554 105.785 91.7496 107.17 92.4178C108.746 93.1729 110.033 94.5255 110.658 96.3019Z" fill="#EFEFEF"/>
<path d="M63.8939 96.0188L61.6232 102.451L73.243 106.547L75.5137 100.115C76.6926 96.7736 75.1118 93.1287 71.961 91.662C70.3802 91.2708 68.7667 91.4662 67.3815 92.1344C65.8061 92.8895 64.5186 94.2424 63.8939 96.0188Z" fill="#EFEFEF"/>
<path d="M80.0339 89.6562C80.022 89.8908 80.0222 90.1196 80.0349 90.3545C80.2252 94.2226 83.5267 97.2071 87.405 97.0107C87.6346 97.0173 87.8642 97.0238 88.1003 97.0107C91.9689 96.8288 94.9557 93.5721 94.821 89.7227L99.0916 89.7422C102.814 89.7422 102.898 92.3098 102.898 93.124L105.984 155.599C105.984 156.804 106.017 157.898 105.164 158.15C105.052 158.18 104.936 158.198 104.824 158.198H70.4138C69.5372 158.198 68.823 157.243 68.8191 156.061C68.8191 155.905 68.8302 155.749 68.8572 155.599L68.8494 155.604L71.1121 94.0439C71.1121 91.2826 71.7079 89.6378 75.7791 89.6377L80.0339 89.6562Z" fill="white"/>
<path d="M86.1403 96.155C85.4123 96.834 82.3237 99.6184 80.9927 99.6184C80.2268 99.6184 79.5912 99.3031 79.0968 98.7001C77.9017 97.2116 77.6953 93.8762 78.5373 89.7476H79.2762C78.4504 93.6806 78.5971 96.9348 79.6618 98.2494C80.0149 98.684 80.4495 98.8957 80.9982 98.9012C81.3839 98.9012 82.2639 98.3364 83.2635 97.5704C84.2631 96.8044 84.6313 96.5937 85.4896 95.7951L86.1383 96.1568L86.1403 96.155Z" fill="#333481"/>
<path d="M95.8233 98.7055C95.405 99.2162 94.889 99.515 94.2751 99.5965C94.161 99.6128 94.047 99.6236 93.9274 99.6236C92.5965 99.6236 89.4023 96.739 88.6798 96.06L89.4072 95.7771C91.1239 97.3796 93.156 98.9119 93.922 98.9119C94.0632 98.9119 94.1991 98.8957 94.324 98.8631C94.688 98.7816 94.9976 98.5807 95.2584 98.2602C96.3231 96.9401 96.4698 93.6913 95.644 89.7583H95.8016C95.9972 89.7583 96.1982 89.7746 96.3883 89.8018C97.2195 93.9141 97.013 97.2334 95.8233 98.7164V98.7055Z" fill="#333481"/>
<path d="M107.84 190.343L103.712 107.922L99.2239 105.833C98.2787 105.474 97.6431 104.589 97.5887 103.584L96.8581 89.7422H94.954L94.3239 98.8467L94.2696 99.5857L93.4764 111.064C93.384 112.422 92.2758 113.487 90.9123 113.525L87.4736 113.563L84.0349 113.525C82.6714 113.487 81.5632 112.417 81.4709 111.064L80.6777 99.5857L80.6234 98.8467L79.9933 89.7422H78.0892L77.3586 103.584C77.3097 104.594 76.6687 105.474 75.7234 105.833L70.5784 107.909L65.7698 190.343C65.7698 194.275 69.2873 195.007 69.0419 194.761H87.5062H105.168C105.168 194.761 107.84 194.194 107.84 190.343Z" fill="#333481"/>
<path d="M73.8855 174.476C73.8583 174.476 73.8312 174.476 73.804 174.476C73.3096 174.427 72.9457 173.993 72.9946 173.499L78.0466 118.702C78.0955 118.208 78.5302 117.844 79.0245 117.893C79.5188 117.941 79.8828 118.376 79.8339 118.871L74.7818 173.667C74.7383 174.134 74.3472 174.482 73.8855 174.482V174.476Z" fill="#6666CC"/>
<path d="M100.971 176.269C100.514 176.269 100.123 175.922 100.074 175.46L94.6964 119.229C94.6475 118.735 95.0115 118.295 95.5058 118.251C96.0056 118.203 96.4402 118.567 96.4836 119.061L101.862 175.291C101.911 175.786 101.547 176.226 101.052 176.269C101.025 176.269 100.993 176.269 100.965 176.269H100.971Z" fill="#6666CC"/>
<path d="M87.7886 122.418C87.7288 122.423 87.6745 122.434 87.6202 122.434C87.5007 122.445 87.3812 122.445 87.2671 122.434C87.3269 122.434 87.3866 122.429 87.4518 122.418C88.9891 122.217 90.0757 120.815 89.8692 119.278L88.359 102.557L88.2069 101.346C88.1417 100.862 87.7669 100.455 87.2617 100.384C87.3649 100.368 87.4681 100.368 87.5767 100.379C87.6582 100.39 87.7288 100.406 87.8049 100.438C88.2069 100.574 88.4948 100.933 88.5437 101.351L88.6523 102.171L90.2168 119.283C90.4178 120.821 89.3314 122.222 87.7995 122.423L87.7886 122.418Z" fill="#333481"/>
<path d="M90.2113 119.272L88.6469 102.16L88.5382 101.34C88.4893 100.922 88.2014 100.563 87.7994 100.427C87.6364 100.4 87.4571 100.379 87.2616 100.379C87.2561 100.379 87.2453 100.379 87.2398 100.373C86.626 100.292 86.061 100.726 85.985 101.34L85.8763 102.16L84.3118 119.272C84.2846 119.501 84.2792 119.751 84.3118 119.99C84.3118 119.99 84.8768 122.624 87.267 122.429H87.6201C87.6745 122.429 87.7287 122.423 87.7885 122.412C89.3259 122.211 90.4124 120.81 90.2059 119.272H90.2113Z" fill="#333481"/>
<path d="M88.6527 102.166C88.5766 102.307 88.4844 102.443 88.3703 102.552C88.0878 102.834 87.6966 103.008 87.2675 103.008C86.8383 103.008 86.4472 102.834 86.1647 102.552C86.0506 102.438 85.9583 102.307 85.8822 102.166L85.9909 101.346C86.0724 100.732 86.6319 100.297 87.2457 100.379C87.2512 100.379 87.2621 100.379 87.2729 100.379C87.3761 100.363 87.4793 100.363 87.5825 100.379C88.0986 100.45 88.4898 100.857 88.5495 101.346L88.6581 102.166H88.6527Z" fill="#000066"/>
<path d="M90.7113 98.0429L88.6362 101.634C88.3102 102.199 87.7235 102.465 87.1531 102.421C87.6475 102.389 88.1309 102.128 88.4134 101.634L90.4886 98.0429C91.097 96.989 90.3365 95.6636 89.1197 95.6636H89.3423C90.5646 95.6636 91.3252 96.9836 90.7113 98.0429Z" fill="#6666CC"/>
<path d="M90.4887 98.0429L88.4136 101.634C88.1311 102.128 87.6476 102.389 87.1533 102.421C86.6589 102.389 86.1754 102.128 85.8929 101.634L83.8178 98.0429C83.2094 96.989 83.9698 95.6636 85.1867 95.6636H89.1089C90.3312 95.6636 91.0917 96.9836 90.4779 98.0429H90.4887Z" fill="#333481"/>
<path d="M64.1746 96.0188L61.9039 102.451L72.716 106.33L75.7945 100.115C76.9733 96.7736 75.3925 93.1287 72.2418 91.662C70.6609 91.2708 69.0475 91.4662 67.6622 92.1344C66.0868 92.8895 64.7994 94.2424 64.1746 96.0188Z" fill="white"/>
<path d="M110.229 96.3019L112.5 102.734L101.773 106.59L98.609 100.398C97.4302 97.057 99.011 93.4119 102.162 91.9451C103.743 91.554 105.356 91.7496 106.741 92.4178C108.317 93.1729 109.604 94.5255 110.229 96.3019Z" fill="white"/>
</svg>
