<svg width="174" height="240" viewBox="0 0 174 240" fill="none" xmlns="http://www.w3.org/2000/svg">
<rect width="174" height="240" fill="none"/>
<path d="M85.238 164.181V164.406H71V154.342H103V164.406H88.7843V164.181C88.7843 163.201 87.9904 162.408 87.0112 162.408C86.0319 162.408 85.238 163.201 85.238 164.181Z" fill="#111111"/>
<path d="M71 164.406L85.2392 164.406V225.148C85.2392 228.949 82.0553 232.024 78.1196 232.024C74.1839 232.024 71 228.949 71 225.148V164.406Z" fill="#111111"/>
<path d="M78.1189 232.024C77.7209 232.024 77.3229 231.993 76.9313 231.924C80.3616 231.359 82.8758 228.408 82.8632 224.948V164.016H85.2322V224.948C85.2322 228.86 82.0483 232.024 78.1126 232.024H78.1189Z" fill="#757575"/>
<path d="M88.7608 162.442L103 162.442V224.948C103 228.86 99.8161 232.024 95.8804 232.024C91.9447 232.024 88.7608 228.86 88.7608 224.948V162.442Z" fill="#111111"/>
<path d="M95.8797 232.024C95.4817 232.024 95.0837 231.993 94.6921 231.924C98.1224 231.359 100.637 228.408 100.624 224.948L100.65 154.357L102.993 154.357V224.948C102.993 228.86 99.8091 232.024 95.8734 232.024H95.8797Z" fill="#757575"/>
<path d="M85.238 164.165V164.391H71V154.326H103V164.391H88.7843V164.165C88.7843 163.186 87.9904 162.392 87.0112 162.392C86.0319 162.392 85.238 163.186 85.238 164.165Z" fill="#111111"/>
<path d="M71 164.391L85.2392 164.391V225.132C85.2392 228.933 82.0553 232.008 78.1196 232.008C74.1839 232.008 71 228.933 71 225.132V164.391Z" fill="#111111"/>
<path d="M78.1189 232.009C77.7209 232.009 77.3229 231.977 76.9313 231.908C80.3616 231.343 82.8758 228.392 82.8632 224.933V164H85.2322V224.933C85.2322 228.844 82.0483 232.009 78.1126 232.009H78.1189Z" fill="#757575"/>
<path d="M88.7608 162.427L103 162.427V224.932C103 228.844 99.8161 232.008 95.8804 232.008C91.9447 232.008 88.7608 228.844 88.7608 224.932V162.427Z" fill="#111111"/>
<path d="M95.8797 232.008C95.4817 232.008 95.0837 231.977 94.6921 231.908C98.1224 231.343 100.637 228.392 100.624 224.933L100.65 154.342L102.993 154.342V224.933C102.993 228.844 99.8091 232.008 95.8734 232.008H95.8797Z" fill="#757575"/>
<path d="M100.266 97.8003C99.4778 95.6275 100.599 93.2238 102.77 92.4314C104.941 91.639 107.341 92.758 108.13 94.9307L127.323 147.805L119.46 150.674L100.266 97.8003Z" fill="#41A3DB"/>
<path d="M103.149 92.3159C105.729 91.3742 108.582 92.7045 109.52 95.2868L128.47 147.492L127.34 147.903L108.185 95.1336C107.393 92.9537 105.049 91.7893 102.856 92.433C102.951 92.3912 103.049 92.3522 103.149 92.3159Z" fill="#3D2F81"/>
<path d="M64.6945 94.8514C65.5433 92.5256 68.118 91.325 70.4452 92.1698C72.7725 93.0146 73.971 95.5849 73.1223 97.9107L53.853 150.712L45.4253 147.653L64.6945 94.8514Z" fill="#41A3DB"/>
<path d="M45.7039 161.546C45.6947 161.543 45.6859 161.539 45.6767 161.535L45.7364 161.557C45.7256 161.553 45.7146 161.55 45.7039 161.546ZM70.9445 92.3694C73.3511 93.2428 74.5904 95.901 73.7129 98.3061L54.5268 150.891L53.4733 150.507L72.8517 97.3971C73.5918 95.3684 72.6186 93.1354 70.6696 92.2797C70.7614 92.3068 70.8533 92.3363 70.9445 92.3694Z" fill="#3D2F81"/>
<path d="M73.1174 89.9634C74.2272 89.4833 75.1808 89.8079 81.2101 89.7368L81.6125 89.7358V96.1597H92.6115V89.7358H93.8566L93.9357 89.7368H100.356C101.766 90.2162 102.276 90.6959 102.908 92.3608L103.149 119.268L103.401 138.183L70.6691 138.248L69.6476 119.214C69.6476 119.214 69.7155 104.326 70.2092 94.8032C70.2591 93.8422 70.5519 93.928 71.0617 92.3423C71.5717 90.756 72.0073 90.4437 73.1174 89.9634Z" fill="#41A3DB"/>
<path d="M107.544 194.976H67.0541L70.6397 138.132L103.401 137.932L107.544 194.976Z" fill="#2C2E70"/>
<path d="M103.631 142.64L70.6636 142.639L70.6636 138.423L103.3 138.119L103.631 142.64Z" fill="#2C2E70"/>
<path d="M94.9526 96.1451L93.6969 99.2944C93.6969 99.2944 93.2953 98.5543 92.8466 97.8103C92.6891 97.519 92.5119 97.2514 92.3545 96.9995C91.8388 96.1886 90.831 95.4838 89.9374 94.8815C89.8036 94.791 89.6776 94.7083 89.5438 94.6414C89.0635 94.2832 88.6345 93.8974 88.4022 93.6809C89.2092 93.3857 90.1185 93.2006 90.6539 92.5943C90.6775 92.5943 90.6972 92.5709 90.6972 92.5709C90.7641 92.504 90.8074 92.4369 90.8783 92.37C91.0357 92.1889 91.1696 92.0316 91.3271 91.8977C91.3467 91.8977 91.3468 91.8779 91.3468 91.8779C91.6381 91.5827 91.9529 91.3386 92.2443 91.0906C92.4686 90.8859 92.693 90.6892 92.8466 90.4806C93.1182 90.2089 93.319 89.9215 93.4056 89.5829C93.5394 89.2877 93.6103 88.9295 93.563 88.5044L93.9882 88.6855L95.1416 89.5043L95.2833 89.5829L95.3187 89.6342L95.6218 91.0906L95.6887 91.4291C95.7793 93.0471 95.5549 94.5981 94.9487 96.1491" fill="#246BB4"/>
<path d="M95.1968 91.5041C95.1968 93.0433 95.0472 94.5627 94.4685 95.9956L93.3978 98.5622L92.6498 97.1491C92.6498 97.1491 92.6302 97.1294 92.6302 97.1058C92.2011 96.2909 90.9374 95.3736 89.8706 94.7083C89.7447 94.6217 89.6384 94.5352 89.5045 94.4761C89.1187 94.2203 88.9337 93.929 88.7014 93.803C88.5086 93.6967 88.4535 93.6534 88.4535 93.6534L88.8865 93.5156C89.4849 93.3227 90.0635 93.0235 90.5556 92.618C90.5753 92.618 90.5989 92.5984 90.5989 92.5984C90.7721 92.4488 90.9177 92.2991 91.0713 92.1259C91.1146 92.059 91.1579 92.0197 91.1973 91.9527C91.2169 91.9527 91.2169 91.9331 91.2169 91.9331C91.4098 91.7009 91.4374 91.4411 91.583 91.1852C91.8389 90.7365 91.9846 90.3387 92.1342 89.8466C92.2837 89.3979 92.5002 89.0279 92.5002 88.5161C92.5002 88.2209 92.5042 87.6776 92.5042 87.3784L94.9173 89.5435L94.937 89.7169L95.1495 91.1931L95.1929 91.5118H95.1968V91.5041Z" fill="#41A3DB"/>
<path d="M80.1381 89.2008L80.5475 89.0078C80.39 90.9367 81.9371 91.4209 83.0905 92.8302C83.685 93.5506 84.4604 93.4207 85.3737 93.7474L85.6454 93.7238C85.6454 93.7238 82.8307 95.8534 81.8584 97.121C81.5041 97.5855 80.3743 99.6955 80.3743 99.6955L79.1973 96.5739C78.6265 95.0505 78.4021 93.5151 78.5005 91.9129L78.8666 89.9055L80.1342 89.2008H80.1381Z" fill="#246BB4"/>
<path d="M85.6454 93.6808C85.6454 93.6808 85.6256 93.6808 85.602 93.7004C85.5823 93.7201 85.4957 93.7675 85.4091 93.8502C85.3895 93.8502 85.3659 93.8698 85.3422 93.8934C84.488 94.4485 82.1969 96.0545 81.5749 97.2512L80.7837 98.7038L79.7366 96.1371C79.1579 94.7042 79.0083 93.2045 79.0083 91.6457L79.0752 91.1338L79.2681 89.9136L79.2878 89.7206V89.6774L81.4253 87.5596C81.4253 87.7721 81.4884 88.0752 81.508 88.2917C81.5277 88.9098 81.7285 89.3349 81.9411 89.8506C82.0906 90.323 82.3268 90.7284 82.6063 91.1378C83.0551 91.7795 83.6535 92.3581 84.3581 92.9368L85.6454 93.6847V93.6808Z" fill="#41A3DB"/>
<path d="M87.8093 100.625C87.9116 101.085 87.6361 101.55 87.1834 101.656C86.7307 101.762 86.2819 101.479 86.1756 101.014C86.0733 100.554 86.3489 100.089 86.8016 99.983C87.2543 99.8767 87.703 100.164 87.8093 100.625Z" fill="#2C2E71"/>
<path d="M87.8093 110.821C87.9116 111.282 87.6361 111.746 87.1834 111.852C86.7307 111.959 86.2819 111.675 86.1756 111.211C86.0733 110.75 86.3489 110.286 86.8016 110.179C87.2543 110.073 87.703 110.36 87.8093 110.821Z" fill="#2C2E71"/>
<path d="M86.6717 121.855C87.0851 121.642 87.5889 121.815 87.7976 122.24C88.0023 122.665 87.8369 123.177 87.4197 123.39C87.0063 123.603 86.5025 123.429 86.2938 123.004C86.0891 122.579 86.2584 122.067 86.6717 121.855Z" fill="#2C2E71"/>
<path d="M87.8605 133.479C87.9628 133.94 87.6873 134.404 87.2346 134.511C86.7819 134.617 86.3331 134.333 86.2268 133.869C86.1245 133.408 86.4001 132.944 86.8528 132.838C87.3055 132.731 87.7542 133.019 87.8605 133.479Z" fill="#2C2E71"/>
</svg>
