<svg width="174" height="240" viewBox="0 0 174 240" fill="none" xmlns="http://www.w3.org/2000/svg">
<rect width="174" height="240" fill="none"/>
<path d="M100.135 97.8005C99.3462 95.6278 100.467 93.2241 102.638 92.4317C104.81 91.6393 107.209 92.7582 107.998 94.9309L128.195 150.568L120.332 153.438L100.135 97.8005Z" fill="#A4D233"/>
<path d="M119.989 153.647L119.988 153.647L100.041 98.6976C100.039 98.6919 100.038 98.6855 100.036 98.6798L119.989 153.647ZM103.018 92.3163C105.598 91.3745 108.451 92.7048 109.389 95.2871L129.338 150.244L128.208 150.656L108.054 95.1339C107.262 92.9541 104.918 91.7896 102.724 92.4333C102.82 92.3915 102.918 92.3525 103.018 92.3163Z" fill="#8DAF00"/>
<path d="M64.7002 94.8516C65.5489 92.5258 68.1236 91.3252 70.4509 92.17C72.7781 93.0148 73.9767 95.5851 73.1279 97.9109L52.9345 153.245L44.5067 150.186L64.7002 94.8516Z" fill="#A4D233"/>
<path d="M70.9499 92.3691C73.3565 93.2426 74.5958 95.9007 73.7182 98.3058L53.5944 153.461L52.541 153.078L72.8571 97.3969C73.5972 95.3681 72.624 93.1352 70.6749 92.2794C70.7668 92.3065 70.8587 92.336 70.9499 92.3691Z" fill="#8DAF00"/>
<path d="M99.7056 89.7424C101.835 89.7424 102.771 91.1141 103.073 93.1458L104.954 129.943C104.954 129.973 104.995 132.898 103.833 133.06H70.0943C70.0943 133.06 69.1829 131.095 69.1773 129.959L71.0728 93.4807V93.4749C71.2852 91.3615 72.2723 89.7426 74.48 89.7424H80.1968C80.1864 89.9665 80.1856 90.1856 80.1978 90.4104C80.3883 94.2783 83.693 97.2629 87.5757 97.0667C87.8056 97.0732 88.0356 97.0797 88.272 97.0667C92.1572 96.8842 95.1554 93.6075 95.0005 89.7424H99.7056Z" fill="#A2C72D"/>
<path d="M69.2275 134.63C69.4252 132.787 70.5391 133.06 70.0663 133.06H104.007C103.912 133.06 104.672 132.774 104.92 134.575L106.684 201.588C106.684 201.588 106.684 203.282 104.934 203.282C103.185 203.282 69.2013 203.39 69.2013 203.39C67.3736 203.39 67.3737 201.588 67.3737 201.588C67.3588 201.713 67.3737 201.47 67.3737 201.588L69.2275 134.63Z" fill="#A2C72D"/>
<path d="M105.005 203.276L69.2651 203.39C67.6838 203.39 67.2679 202.049 67.3858 201.568C67.3748 201.707 67.3858 201.436 67.3858 201.568L69.2064 136.646C69.2064 136.646 69.9478 136.742 70.9531 136.742L68.9276 197C68.7653 199.204 69.4618 201.126 71.0627 201.357C71.1586 201.371 71.2619 201.377 71.3615 201.377H105.604C106.017 201.377 106.228 201.377 106.667 201.167C106.796 202.366 106.148 203.276 105.005 203.276Z" fill="#CFEA60"/>
<path d="M104.939 136.708L69.2008 136.795L69.2008 129.966L104.939 129.906V136.708Z" fill="#8DAF00"/>
</svg>
