<svg width="174" height="240" viewBox="0 0 174 240" fill="none" xmlns="http://www.w3.org/2000/svg">
<rect width="174" height="240" fill="none"/>
<path d="M66.0134 161.434L84.0134 161.451V223.054C84.0134 227.999 79.9885 232 75.0134 232C70.0382 232 66.0134 227.999 66.0134 223.054V161.434Z" fill="#111111"/>
<path d="M75.3729 232C74.8895 232 74.4061 231.96 73.9303 231.873C78.097 231.158 81.1511 227.428 81.1358 223.054V170.478L84.0134 170.478V223.054C84.0134 227.999 80.1459 232 75.3653 232H75.3729Z" fill="#757575"/>
<path d="M89.9808 161.434L107.981 161.434V223.066C107.981 228.004 103.956 232 98.9808 232C94.0056 232 89.9808 228.004 89.9808 223.066V161.434Z" fill="#111111"/>
<path d="M99.3443 232C98.8607 232 98.3772 231.962 97.9013 231.878C102.069 231.191 105.124 227.606 105.108 223.403V161.722L107.987 161.722V223.403C107.987 228.155 104.118 232 99.3366 232H99.3443Z" fill="#757575"/>
<path d="M62.805 96.1822C63.9663 92.9685 67.5146 91.3 70.7304 92.4556C73.9462 93.6111 75.6117 97.1531 74.4504 100.367L56.6215 149.705L44.976 145.521L62.805 96.1822Z" fill="#41A3DB"/>
<path d="M46.3546 161.929C46.3455 161.925 46.3364 161.921 46.3273 161.918L46.3889 161.94C46.3775 161.936 46.3659 161.933 46.3546 161.929ZM71.3651 92.6684C74.2718 93.7127 75.7785 96.9146 74.7294 99.8197L56.7084 149.721L55.4367 149.263L73.6867 98.726C74.5713 96.2757 73.3875 93.5861 71.0331 92.5613C71.1439 92.5936 71.255 92.6289 71.3651 92.6684Z" fill="#2C2E71"/>
<path d="M99.7269 100.689C98.5725 97.5054 100.216 93.9843 103.397 92.8242C106.578 91.664 110.093 93.3042 111.247 96.4875L129.152 145.858L117.631 150.06L99.7269 100.689Z" fill="#41A3DB"/>
<path d="M104.009 92.5859C106.839 91.5534 109.966 93.012 110.994 95.8437L129.14 145.847L127.902 146.298L109.53 95.6748C108.663 93.2865 106.097 92.01 103.693 92.7122C103.796 92.6673 103.902 92.625 104.009 92.5859Z" fill="#2C2E71"/>
<path d="M100.618 89.043C102.858 89.043 104.24 90.2933 104.798 92.0439L106.335 119.269L108.06 138.247H66.0636L67.712 119.214C67.7167 119.153 68.8434 104.411 69.3361 94.9082C69.3859 93.9468 69.3815 93.7739 69.5148 92.3418C69.6481 90.9098 71.4309 89.303 72.9396 89.3027C74.4483 89.3027 75.1801 89.1199 81.2101 89.0488H81.6124V96.1592H92.6115V89.0342L93.8566 89.0078H93.9357L100.618 89.043Z" fill="#41A3DB"/>
<path d="M113.985 194.976L61.0258 194.976L66.0843 138.132H108.101L113.985 194.976Z" fill="#3D2F81"/>
<path d="M108.545 142.609H65.6726L66.0959 138.119H108.06L108.545 142.609Z" fill="#2C2E70"/>
<path d="M94.9525 96.1451L93.6968 99.2944C93.6968 99.2944 93.2953 98.5543 92.8465 97.8103C92.689 97.519 92.5119 97.2514 92.3544 96.9995C91.8387 96.1886 90.831 95.4838 89.9374 94.8815C89.8035 94.791 89.6776 94.7083 89.5437 94.6414C89.0635 94.2832 88.6344 93.8974 88.4022 93.6809C89.2092 93.3857 90.1185 93.2006 90.6539 92.5943C90.6775 92.5943 90.6972 92.5709 90.6972 92.5709C90.7641 92.504 90.8074 92.4369 90.8782 92.37C91.0357 92.1889 91.1695 92.0316 91.327 91.8977C91.3467 91.8977 91.3467 91.8779 91.3467 91.8779C91.638 91.5827 91.9529 91.3386 92.2442 91.0906C92.4686 90.8859 92.693 90.6892 92.8465 90.4806C93.1181 90.2089 93.3189 89.9215 93.4055 89.5829C93.5393 89.2877 93.6102 88.9295 93.563 88.5044L93.9881 88.6855L95.1415 89.5043L95.2832 89.5829L95.3187 89.6342L95.6218 91.0906L95.6887 91.4291C95.7792 93.0471 95.5549 94.5981 94.9486 96.1491" fill="#246BB4"/>
<path d="M95.1967 91.5041C95.1967 93.0433 95.0471 94.5627 94.4684 95.9956L93.3977 98.5622L92.6498 97.1491C92.6498 97.1491 92.6301 97.1294 92.6301 97.1058C92.201 96.2909 90.9374 95.3736 89.8706 94.7083C89.7446 94.6217 89.6383 94.5352 89.5045 94.4761C89.1187 94.2203 88.9336 93.929 88.7014 93.803C88.5085 93.6967 88.4534 93.6534 88.4534 93.6534L88.8864 93.5156C89.4848 93.3227 90.0635 93.0235 90.5555 92.618C90.5752 92.618 90.5988 92.5984 90.5988 92.5984C90.772 92.4488 90.9177 92.2991 91.0712 92.1259C91.1145 92.059 91.1578 92.0197 91.1972 91.9527C91.2169 91.9527 91.2168 91.9331 91.2168 91.9331C91.4097 91.7009 91.4373 91.4411 91.583 91.1852C91.8388 90.7365 91.9845 90.3387 92.1341 89.8466C92.2837 89.3979 92.5002 89.0279 92.5002 88.5161C92.5002 88.2209 92.5041 87.6776 92.5041 87.3784L94.9172 89.5435L94.9369 89.7169L95.1495 91.1931L95.1928 91.5118H95.1967V91.5041Z" fill="#41A3DB"/>
<path d="M80.1381 89.2008L80.5475 89.0078C80.39 90.9367 81.9371 91.4209 83.0905 92.8302C83.685 93.5506 84.5429 93.3475 85.4562 93.6743L85.6454 93.7238C85.6454 93.7238 82.8307 95.8534 81.8584 97.121C81.5041 97.5855 80.3743 99.6955 80.3743 99.6955L79.1973 96.5739C78.6265 95.0505 78.4021 93.5151 78.5005 91.9129L78.8666 89.9055L80.1342 89.2008H80.1381Z" fill="#246BB4"/>
<path d="M85.511 93.6808C85.511 93.6808 85.4913 93.6808 85.4677 93.7004C85.448 93.7201 85.3614 93.7675 85.2748 93.8502C85.2551 93.8502 85.2315 93.8698 85.2079 93.8934C84.3537 94.4485 82.0626 96.0545 81.4406 97.2512L80.6494 98.7038L79.6023 96.1371C79.0236 94.7042 78.874 93.2045 78.874 91.6457L78.9409 91.1338L79.1338 89.9136L79.1535 89.7206V89.6774L81.291 87.5596C81.291 87.7721 81.354 88.0752 81.3737 88.2917C81.5543 88.8438 81.6427 89.3082 81.9966 89.7948C82.2841 90.3367 82.5244 90.6461 82.8039 91.0555C83.2527 91.6972 83.6475 92.2683 84.3521 92.847L85.511 93.6847V93.6808Z" fill="#41A3DB"/>
<path d="M87.8512 100.625C87.9536 101.085 87.678 101.55 87.2253 101.656C86.7726 101.762 86.3238 101.479 86.2175 101.014C86.1152 100.554 86.3908 100.089 86.8435 99.983C87.2962 99.8767 87.7449 100.164 87.8512 100.625Z" fill="#2C2E71"/>
<path d="M87.8512 110.821C87.9536 111.282 87.678 111.746 87.2253 111.852C86.7726 111.959 86.3238 111.675 86.2175 111.211C86.1152 110.75 86.3908 110.286 86.8435 110.179C87.2962 110.073 87.7449 110.36 87.8512 110.821Z" fill="#2C2E71"/>
<path d="M86.7136 121.855C87.1269 121.642 87.6308 121.815 87.8394 122.24C88.0441 122.665 87.8788 123.177 87.4615 123.39C87.0482 123.603 86.5443 123.429 86.3357 123.004C86.131 122.579 86.3002 122.067 86.7136 121.855Z" fill="#2C2E71"/>
<path d="M87.9024 133.479C88.0047 133.94 87.7292 134.404 87.2765 134.511C86.8238 134.617 86.375 134.333 86.2687 133.869C86.1663 133.408 86.4419 132.944 86.8946 132.838C87.3473 132.731 87.7961 133.019 87.9024 133.479Z" fill="#2C2E71"/>
</svg>
