<svg width="174" height="240" viewBox="0 0 174 240" fill="none" xmlns="http://www.w3.org/2000/svg">
<rect width="174" height="240" fill="none"/>
<path d="M110.084 95.0351C109.223 92.6754 106.61 91.4573 104.249 92.3144C101.888 93.1716 100.672 95.7793 101.533 98.1391L120.281 149.511L128.831 146.407L110.084 95.0351Z" fill="#A2C72D"/>
<path d="M103.71 92.5105C101.031 93.4832 99.6504 96.4428 100.628 99.1206L119.167 149.917L120.339 149.491L101.586 98.1086C100.762 95.85 101.846 93.364 104.016 92.4107C103.913 92.4408 103.811 92.4737 103.71 92.5105Z" fill="#8DAF00"/>
<path d="M65.1762 95.0759C66.0347 92.7236 68.6387 91.5093 70.9924 92.3637C73.3462 93.2182 74.5584 95.8177 73.6999 98.17L54.9475 149.556L46.4238 146.461L65.1762 95.0759Z" fill="#A2C72D"/>
<path d="M71.6866 92.6159C74.2842 93.5589 75.6224 96.4285 74.675 99.0245L56.0827 149.969L54.9457 149.556L73.7447 98.0426C74.5438 95.8527 73.4932 93.4429 71.3893 92.5191C71.4886 92.5484 71.588 92.5801 71.6866 92.6159Z" fill="#8DAF00"/>
<path d="M100.682 89.7424C102.811 89.7424 104.623 91.2526 104.925 93.2844L106.648 131.587C106.648 131.587 106.831 132.897 105.663 133.06H68.619C68.619 133.06 67.6939 132.753 67.6884 131.617L69.7372 93.4807V93.4749C69.9496 91.3615 71.794 89.7426 74.0018 89.7424H79.7186C79.7082 89.9665 79.7074 90.1856 79.7196 90.4104C79.9101 94.2783 83.2148 97.2629 87.0975 97.0667C87.3274 97.0732 87.5574 97.0797 87.7938 97.0667C91.679 96.8842 94.6772 93.6075 94.5223 89.7424H100.682Z" fill="#A2C72D"/>
<path d="M67.6507 134.63C67.8667 132.787 69.0834 133.06 68.567 133.06H105.642C105.539 133.06 106.369 132.774 106.639 134.575L110.513 201.171C110.513 201.171 110.513 203.282 106.656 203.282C102.799 203.282 67.6221 203.39 67.6221 203.39C63.6456 203.39 63.6456 201.464 63.6456 201.464C63.6294 201.588 63.6456 201.345 63.6456 201.464L67.6507 134.63Z" fill="#A2C72D"/>
<path d="M108.512 203.276L65.9014 203.39C64.0161 203.39 63.5202 202.049 63.6608 201.568C63.6476 201.707 63.6608 201.436 63.6608 201.568L67.5046 136.646C67.5046 136.646 67.7916 136.646 68.9901 136.646L64.944 196.949C64.7505 199.153 66.1358 201.126 68.0445 201.357C67.9257 201.357 68.1588 201.371 68.0445 201.357L109.226 201.377C109.718 201.377 109.969 201.377 110.494 201.167C110.494 202.654 109.226 203.276 108.512 203.276Z" fill="#CFEA60"/>
<path d="M106.659 136.708L67.6069 136.795L67.7317 129.966L106.659 129.906V136.708Z" fill="#8DAF00"/>
</svg>
