<svg width="174" height="240" viewBox="0 0 174 240" fill="none" xmlns="http://www.w3.org/2000/svg">
<rect width="174" height="240" fill="none"/>
<path d="M68.5 172.925H83.0109V225.922C83.0109 229.438 79.7662 232.283 75.7554 232.283C72.7004 232.283 68.5 229.901 68.5 225.922V172.925Z" fill="#101135"/>
<path d="M77.1921 232.283C76.7832 232.283 76.3743 232.254 75.972 232.189C79.4961 231.659 82.0792 228.893 82.0662 225.651V193.447L84.5 193.447V225.651C84.5 229.317 81.229 232.283 77.1856 232.283H77.1921Z" fill="#757575"/>
<path d="M89.4999 172.972H103.806V225.969C103.806 229.485 100.607 232.33 96.6531 232.33C92.6988 232.33 89.4999 229.485 89.4999 225.969V172.972Z" fill="#101135"/>
<path d="M97.9639 232.379C97.5431 232.379 97.1223 232.351 96.7082 232.288C100.335 231.78 102.994 229.128 102.98 226.018V194.995L105.485 194.995V226.018C105.485 229.534 102.119 232.379 97.9573 232.379H97.9639Z" fill="#757575"/>
<path d="M100.618 89.043C102.858 89.043 104.24 90.2933 104.798 92.0439L105.462 119.269L105.841 138.247H69.1047L69.6476 119.214C69.6479 119.157 69.7164 104.308 70.2092 94.8037C70.259 93.8423 70.2106 93.7739 70.3439 92.3418C70.4772 90.9099 71.8463 89.6536 72.9396 89.3027C74.033 88.9521 75.1801 89.1199 81.2101 89.0488H81.6125V96.1592H92.6115V89.0342L93.8566 89.0078H93.9357L100.618 89.043Z" fill="#41A3DB"/>
<path d="M107.544 194.976H66.4614L71.9416 138.132L103.401 137.932L107.544 194.976Z" fill="#2C2E70"/>
<path d="M109.044 194.976H65.9893L68.8976 138.132L105.56 137.956L109.044 194.976Z" fill="#3D2F81"/>
<path d="M105.861 142.64H71.6337L71.997 138.424L105.56 138.119L105.861 142.64Z" fill="#2C2E70"/>
<path d="M94.9526 96.1451L93.6968 99.2944C93.6968 99.2944 93.2953 98.5543 92.8465 97.8103C92.6891 97.519 92.5119 97.2514 92.3545 96.9995C91.8388 96.1886 90.831 95.4838 89.9374 94.8815C89.8036 94.791 89.6776 94.7083 89.5438 94.6414C89.0635 94.2832 88.6344 93.8974 88.4022 93.6809C89.2092 93.3857 90.1185 93.2006 90.6539 92.5943C90.6775 92.5943 90.6972 92.5709 90.6972 92.5709C90.7641 92.504 90.8074 92.4369 90.8782 92.37C91.0357 92.1889 91.1696 92.0316 91.327 91.8977C91.3467 91.8977 91.3467 91.8779 91.3467 91.8779C91.638 91.5827 91.9529 91.3386 92.2442 91.0906C92.4686 90.8859 92.693 90.6892 92.8465 90.4806C93.1181 90.2089 93.3189 89.9215 93.4055 89.5829C93.5394 89.2877 93.6102 88.9295 93.563 88.5044L93.9881 88.6855L95.1416 89.5043L95.2833 89.5829L95.3187 89.6342L95.6218 91.0906L95.6887 91.4291C95.7792 93.0471 95.5549 94.5981 94.9487 96.1491" fill="#246BB4"/>
<path d="M95.1967 91.5041C95.1967 93.0433 95.0471 94.5627 94.4685 95.9956L93.3977 98.5622L92.6498 97.1491C92.6498 97.1491 92.6301 97.1294 92.6301 97.1058C92.2011 96.2909 90.9374 95.3736 89.8706 94.7083C89.7446 94.6217 89.6383 94.5352 89.5045 94.4761C89.1187 94.2203 88.9337 93.929 88.7014 93.803C88.5085 93.6967 88.4535 93.6534 88.4535 93.6534L88.8865 93.5156C89.4848 93.3227 90.0635 93.0235 90.5556 92.618C90.5752 92.618 90.5989 92.5984 90.5989 92.5984C90.7721 92.4488 90.9177 92.2991 91.0712 92.1259C91.1145 92.059 91.1579 92.0197 91.1972 91.9527C91.2169 91.9527 91.2169 91.9331 91.2169 91.9331C91.4098 91.7009 91.4373 91.4411 91.583 91.1852C91.8389 90.7365 91.9845 90.3387 92.1341 89.8466C92.2837 89.3979 92.5002 89.0279 92.5002 88.5161C92.5002 88.2209 92.5041 87.6776 92.5041 87.3784L94.9172 89.5435L94.9369 89.7169L95.1495 91.1931L95.1928 91.5118H95.1967V91.5041Z" fill="#41A3DB"/>
<path d="M80.1381 89.2008L80.5475 89.0078C80.39 90.9367 81.9371 91.4209 83.0905 92.8302C83.685 93.5506 84.4604 93.4207 85.3737 93.7474L85.6454 93.7238C85.6454 93.7238 82.8307 95.8534 81.8584 97.121C81.5041 97.5855 80.3743 99.6955 80.3743 99.6955L79.1973 96.5739C78.6265 95.0505 78.4021 93.5151 78.5005 91.9129L78.8666 89.9055L80.1342 89.2008H80.1381Z" fill="#246BB4"/>
<path d="M85.6454 93.6808C85.6454 93.6808 85.6256 93.6808 85.602 93.7004C85.5823 93.7201 85.4957 93.7675 85.4091 93.8502C85.3895 93.8502 85.3659 93.8698 85.3422 93.8934C84.488 94.4485 82.1969 96.0545 81.5749 97.2512L80.7837 98.7038L79.7366 96.1371C79.1579 94.7042 79.0083 93.2045 79.0083 91.6457L79.0752 91.1338L79.2681 89.9136L79.2878 89.7206V89.6774L81.4253 87.5596C81.4253 87.7721 81.4884 88.0752 81.508 88.2917C81.5277 88.9098 81.7285 89.3349 81.9411 89.8506C82.0906 90.323 82.3268 90.7284 82.6063 91.1378C83.0551 91.7795 83.6535 92.3581 84.3581 92.9368L85.6454 93.6847V93.6808Z" fill="#41A3DB"/>
<path d="M88.7432 100.625C88.8455 101.085 88.57 101.55 88.1173 101.656C87.6646 101.762 87.2158 101.479 87.1095 101.014C87.0071 100.554 87.2827 100.089 87.7354 99.983C88.1881 99.8767 88.6369 100.164 88.7432 100.625Z" fill="#2C2E71"/>
<path d="M88.7432 110.821C88.8455 111.282 88.57 111.746 88.1173 111.852C87.6646 111.959 87.2158 111.675 87.1095 111.211C87.0071 110.75 87.2827 110.286 87.7354 110.179C88.1881 110.073 88.6369 110.36 88.7432 110.821Z" fill="#2C2E71"/>
<path d="M87.6056 121.855C88.0189 121.642 88.5228 121.815 88.7314 122.24C88.9361 122.665 88.7708 123.177 88.3535 123.39C87.9402 123.603 87.4363 123.429 87.2277 123.004C87.023 122.579 87.1922 122.067 87.6056 121.855Z" fill="#2C2E71"/>
<path d="M88.7943 133.479C88.8967 133.94 88.6211 134.404 88.1684 134.511C87.7157 134.617 87.2669 134.333 87.1607 133.869C87.0583 133.408 87.3339 132.944 87.7866 132.838C88.2393 132.731 88.6881 133.019 88.7943 133.479Z" fill="#2C2E71"/>
<path d="M100.501 98.4286C99.6285 96.0262 100.868 93.3683 103.269 92.4921C105.67 91.616 108.323 92.8532 109.195 95.2557L127.099 144.576L118.404 147.749L100.501 98.4286Z" fill="#41A3DB"/>
<path d="M103.97 92.2425C106.507 91.3169 109.311 92.6249 110.232 95.1635L128.03 144.211L126.919 144.615L108.92 95.0124C108.142 92.8712 105.842 91.7273 103.687 92.3568C103.779 92.3164 103.873 92.2775 103.97 92.2425Z" fill="#3D2F81"/>
<path d="M74.5459 98.6923C75.418 96.2898 74.1786 93.632 71.7777 92.7558C69.3768 91.8796 66.7235 93.1169 65.8514 95.5193L47.9478 144.84L56.6423 148.013L74.5459 98.6923Z" fill="#41A3DB"/>
<path d="M71.077 92.5061C68.54 91.5806 65.7359 92.8885 64.8146 95.4271L47.0168 144.475L48.1272 144.879L66.127 95.2761C66.9042 93.1349 69.2045 91.991 71.3597 92.6204C71.2671 92.5801 71.1731 92.5412 71.077 92.5061Z" fill="#3D2F81"/>
</svg>
