<svg width="174" height="240" viewBox="0 0 174 240" fill="none" xmlns="http://www.w3.org/2000/svg">
<rect width="174" height="240" fill="none"/>
<path d="M62.805 96.182C63.9663 92.9683 67.5146 91.2998 70.7304 92.4553C73.9462 93.6109 75.6117 97.1529 74.4504 100.367L56.6215 149.705L44.976 145.521L62.805 96.182Z" fill="#A4D233"/>
<path d="M71.3596 92.6662C74.2203 93.6938 75.7028 96.8447 74.6704 99.7038L56.6202 149.689L55.3687 149.239L73.6442 98.6275C74.5148 96.216 73.3504 93.5688 71.0334 92.5602C71.1424 92.5919 71.2513 92.6273 71.3596 92.6662Z" fill="#8DAF00"/>
<path d="M99.7269 100.689C98.5725 97.5052 100.216 93.9841 103.397 92.8239C106.578 91.6638 110.093 93.3039 111.247 96.4873L129.152 145.858L117.631 150.059L99.7269 100.689Z" fill="#A4D233"/>
<path d="M104.009 92.5857C106.839 91.5532 109.966 93.0117 110.994 95.8434L129.14 145.847L127.902 146.298L109.53 95.6746C108.663 93.2863 106.097 92.0098 103.693 92.712C103.796 92.667 103.902 92.6248 104.009 92.5857Z" fill="#8DAF00"/>
<path d="M62.9954 146.578C62.9954 146.578 68.9482 145.216 72.2008 145.216L102.873 145.217C104.864 145.217 110.797 146.91 111.123 146.91L117.073 197.946C117.073 199.991 116.091 201.075 114.061 201.075L59.8265 201.098C57.1198 201.098 57.1198 199.905 57.1198 198.356L62.9954 146.578Z" fill="#A4D233"/>
<path d="M114.358 201.091H59.7017C57.3444 201.091 57.1198 200.117 57.1198 198.29L63.1101 146.381C63.2357 145.206 64.3954 134.483 64.5823 133.848C64.5823 134.615 65.4505 139.171 65.4505 139.171L59.2077 195.829C59.2077 198.054 59.2077 199.349 59.8859 199.349L115.595 199.376C116.098 199.376 116.487 199.252 116.944 199.056C116.619 200.557 115.889 201.036 114.358 201.091Z" fill="#CFEA60"/>
<path d="M100.974 89.4163C103.588 89.4163 104.994 91.4965 104.994 93.3235L111.077 146.916C111.077 149.118 108.749 149.986 107.587 150.213H66.2221C65.0437 150.213 62.893 148.989 62.893 147.314L69.3002 93.3235C69.4645 90.8457 71.1659 89.4163 73.6098 89.4163H79.7377C79.7317 89.5987 79.7317 89.7791 79.7416 89.9631C79.9223 93.6271 83.0504 96.4537 86.726 96.2678C86.9436 96.274 87.1614 96.2802 87.3852 96.2678C91.0343 96.0964 93.8562 93.0402 93.7573 89.4163H100.974Z" fill="#A4D233"/>
<path d="M109.681 134.619L64.4028 134.98L65.2267 128.257L108.96 127.887L109.681 134.619Z" fill="#8DAF00"/>
</svg>
