<svg width="174" height="240" viewBox="0 0 174 240" fill="none" xmlns="http://www.w3.org/2000/svg">
<rect width="174" height="240" fill="none"/>
<path d="M65.8312 159.259V171.339L83.8248 171.332C83.8248 169.803 84.2952 168.548 86.7498 168.548C89.2045 168.548 89.8005 169.788 89.8005 171.313L107.796 171.339V159.259H65.8312Z" fill="#891E83"/>
<path d="M62.974 96.3594C64.1318 93.1899 67.6414 91.5544 70.8129 92.7065C73.9845 93.8586 75.617 97.362 74.4592 100.531L56.4328 149.881L44.9476 145.709L62.974 96.3594Z" fill="#FFDF00"/>
<path d="M71.434 92.917C74.2553 93.9417 75.7081 97.0576 74.6789 99.8773L56.4319 149.865L55.1976 149.416L73.6691 98.8114C74.5371 96.433 73.3965 93.8152 71.1119 92.8112C71.2195 92.843 71.3272 92.8783 71.434 92.917Z" fill="#E89627"/>
<path d="M111.026 96.3594C109.868 93.1899 106.359 91.5544 103.187 92.7065C100.016 93.8586 98.3832 97.362 99.5409 100.531L117.567 149.881L129.053 145.709L111.026 96.3594Z" fill="#FFDF00"/>
<path d="M102.566 92.917C99.7448 93.9417 98.292 97.0576 99.3212 99.8773L117.568 149.865L118.803 149.416L100.331 98.8114C99.463 96.433 100.604 93.8152 102.888 92.8112C102.781 92.843 102.673 92.8783 102.566 92.917Z" fill="#E89627"/>
<path d="M100.906 89.4143C104.704 89.4143 104.89 93.1576 104.892 93.2053L113.844 158.785C113.843 158.81 113.825 162.665 108.038 162.665H65.8103C65.8103 162.665 60.8749 162.666 60.8748 158.785C60.8748 158.785 68.6025 105.548 68.6853 101.596C68.7085 100.614 69.2136 93.2053 69.2136 93.2053C69.2139 90.2667 71.46 89.4173 73.1589 89.4172C73.1589 89.4172 75.3378 89.4172 79.488 89.4172C79.488 89.6931 79.2521 96.7161 86.9675 96.7161C87.0033 96.716 94.2869 96.6972 94.2869 89.4133C96.1766 89.4134 99.7642 89.4142 100.906 89.4143Z" fill="#FFE700"/>
<path d="M65.8229 161.433L83.8229 161.451V223.054C83.8229 227.999 79.798 232 74.8229 232C69.8477 232 65.8229 227.999 65.8229 223.054V161.433Z" fill="#891E83"/>
<path d="M75.1824 232C74.699 232 74.2156 231.96 73.7398 231.873C77.9066 231.158 80.9606 227.428 80.9453 223.054V170.478L83.8229 170.478V223.054C83.8229 227.999 79.9554 232 75.1748 232H75.1824Z" fill="#503983"/>
<path d="M89.7903 161.433L107.79 161.433V223.066C107.79 228.004 103.765 231.999 98.7903 231.999C93.8151 231.999 89.7903 228.004 89.7903 223.066V161.433Z" fill="#891E83"/>
<path d="M99.1538 231.999C98.6702 231.999 98.1867 231.961 97.7108 231.877C101.878 231.191 104.933 227.606 104.918 223.403V161.721L107.796 161.721V223.403C107.796 228.155 103.928 231.999 99.1461 231.999H99.1538Z" fill="#503983"/>
<path d="M108.261 162.661C105.193 162.661 65.7373 162.714 65.7373 162.714C63.6368 162.714 60.8755 161.69 60.8755 158.79C60.864 158.913 60.8755 158.667 60.8755 158.79L69.2263 92.9382C69.3799 90.4537 70.943 89.602 72.879 89.4371C71.3884 91.1001 71.4344 92.174 71.3884 92.9382L63.0265 155.909C62.2544 158.79 63.4676 160.309 65.5856 160.309L113.409 160.309C112.836 161.302 111.33 162.661 108.261 162.661Z" fill="#E89627"/>
<path d="M86.6521 113.293C88.7241 113.293 90.4038 111.614 90.4038 109.542C90.4038 107.47 88.7241 105.79 86.6521 105.79C84.5801 105.79 82.9004 107.47 82.9004 109.542C82.9004 111.614 84.5801 113.293 86.6521 113.293Z" fill="#D92D81"/>
<path d="M81.3412 117.045C83.4132 117.045 85.0928 115.366 85.0928 113.294C85.0928 111.222 83.4132 109.542 81.3412 109.542C79.2692 109.542 77.5895 111.222 77.5895 113.294C77.5895 115.366 79.2692 117.045 81.3412 117.045Z" fill="#D92D81"/>
<path d="M91.9588 117.045C94.0308 117.045 95.7105 115.366 95.7105 113.294C95.7105 111.222 94.0308 109.542 91.9588 109.542C89.8868 109.542 88.2072 111.222 88.2072 113.294C88.2072 115.366 89.8868 117.045 91.9588 117.045Z" fill="#D92D81"/>
<path d="M90.0314 123.615C92.1034 123.615 93.7831 121.936 93.7831 119.864C93.7831 117.792 92.1034 116.112 90.0314 116.112C87.9594 116.112 86.2797 117.792 86.2797 119.864C86.2797 121.936 87.9594 123.615 90.0314 123.615Z" fill="#D92D81"/>
<path d="M83.2653 123.615C85.3373 123.615 87.0169 121.936 87.0169 119.864C87.0169 117.792 85.3373 116.112 83.2653 116.112C81.1933 116.112 79.5135 117.792 79.5135 119.864C79.5135 121.936 81.1933 123.615 83.2653 123.615Z" fill="#D92D81"/>
<path d="M86.6522 119.833C89.2544 119.833 91.3639 117.723 91.3639 115.121C91.3639 112.519 89.2544 110.41 86.6522 110.41C84.05 110.41 81.9405 112.519 81.9405 115.121C81.9405 117.723 84.05 119.833 86.6522 119.833Z" fill="#D92D81"/>
<path d="M86.6522 118.255C88.3828 118.255 89.7857 116.852 89.7857 115.121C89.7857 113.391 88.3828 111.988 86.6522 111.988C84.9216 111.988 83.5187 113.391 83.5187 115.121C83.5187 116.852 84.9216 118.255 86.6522 118.255Z" fill="#FFDF00"/>
</svg>
