<svg width="174" height="240" viewBox="0 0 174 240" fill="none" xmlns="http://www.w3.org/2000/svg">
<rect width="174" height="240" fill="none"/>
<path d="M70.8905 159.674V171.755L85.0842 171.747C85.0842 171.755 85.1814 171.747 85.0842 171.747C85.0842 170.218 84.967 168.963 86.8384 168.963C88.7098 168.963 88.6568 170.203 88.6568 171.728L102.884 171.755V159.674H70.8905Z" fill="#891E83"/>
<path d="M88.6513 162.419L102.89 162.419V224.924C102.89 228.836 99.7066 232 95.7709 232C91.8352 232 88.6513 228.836 88.6513 224.924V162.419Z" fill="#891E83"/>
<path d="M95.7702 232C95.3722 232 94.9743 231.969 94.5826 231.9C98.0129 231.335 100.527 228.384 100.515 224.925L100.54 163.122L102.883 163.121V224.925C102.883 228.836 99.6996 232 95.7639 232H95.7702Z" fill="#503983"/>
<path d="M70.8905 164.383L85.1297 164.383V225.124C85.1297 228.925 81.9458 232 78.0101 232C74.0744 232 70.8905 228.925 70.8905 225.124V164.383Z" fill="#891E83"/>
<path d="M78.0094 232.001C77.6114 232.001 77.2134 231.969 76.8218 231.9C80.2521 231.335 82.7663 228.384 82.7537 224.925V172.251L85.1227 172.251V224.925C85.1227 228.836 81.9388 232.001 78.0031 232.001H78.0094Z" fill="#503983"/>
<path d="M99.3135 89.7366C101.549 90.0111 102.962 90.9892 103.04 93.9583L104.984 159.685C104.984 161.655 104.282 162.617 103.182 162.954L102.956 163.014L70.9561 163.129C69.7158 163.137 68.9472 161.572 68.9434 159.652L70.5938 94.9065C70.8165 91.3391 72.4668 89.7366 74.7861 89.7366H80.042C80.0307 89.9649 80.0306 90.1883 80.043 90.4172C80.2316 94.2467 83.5001 97.2015 87.3398 97.0071C87.5671 97.0136 87.7946 97.02 88.0283 97.0071C91.8767 96.826 94.8463 93.5715 94.6826 89.7366H99.3135Z" fill="#FFDF00"/>
<path d="M87.5472 113.232C89.6192 113.232 91.2989 111.552 91.2989 109.48C91.2989 107.408 89.6192 105.729 87.5472 105.729C85.4752 105.729 83.7955 107.408 83.7955 109.48C83.7955 111.552 85.4752 113.232 87.5472 113.232Z" fill="#D92D81"/>
<path d="M82.2363 116.984C84.3083 116.984 85.988 115.304 85.988 113.232C85.988 111.16 84.3083 109.48 82.2363 109.48C80.1643 109.48 78.4846 111.16 78.4846 113.232C78.4846 115.304 80.1643 116.984 82.2363 116.984Z" fill="#D92D81"/>
<path d="M92.854 116.984C94.926 116.984 96.6057 115.304 96.6057 113.232C96.6057 111.16 94.926 109.48 92.854 109.48C90.7819 109.48 89.1023 111.16 89.1023 113.232C89.1023 115.304 90.7819 116.984 92.854 116.984Z" fill="#D92D81"/>
<path d="M90.9266 123.554C92.9986 123.554 94.6783 121.874 94.6783 119.802C94.6783 117.73 92.9986 116.05 90.9266 116.05C88.8546 116.05 87.1749 117.73 87.1749 119.802C87.1749 121.874 88.8546 123.554 90.9266 123.554Z" fill="#D92D81"/>
<path d="M84.1604 123.554C86.2324 123.554 87.9121 121.874 87.9121 119.802C87.9121 117.73 86.2324 116.05 84.1604 116.05C82.0884 116.05 80.4087 117.73 80.4087 119.802C80.4087 121.874 82.0884 123.554 84.1604 123.554Z" fill="#D92D81"/>
<path d="M87.5474 119.771C90.1496 119.771 92.2591 117.662 92.2591 115.06C92.2591 112.458 90.1496 110.348 87.5474 110.348C84.9452 110.348 82.8357 112.458 82.8357 115.06C82.8357 117.662 84.9452 119.771 87.5474 119.771Z" fill="#D92D81"/>
<path d="M87.5474 118.193C89.278 118.193 90.6809 116.79 90.6809 115.06C90.6809 113.329 89.278 111.926 87.5474 111.926C85.8168 111.926 84.4139 113.329 84.4139 115.06C84.4139 116.79 85.8168 118.193 87.5474 118.193Z" fill="#FFDF00"/>
<path d="M102.933 163.147L70.6877 163.129C69.7295 163.14 68.9463 161.589 68.9434 159.673C68.9434 159.55 68.9434 159.431 68.9523 159.308L70.6103 96.461C70.729 93.9765 70.6103 93.3852 71.3166 92.0923C71.1593 92.7912 72.0563 93.3797 72.0207 94.1439L70.6907 155.852C70.5958 157.76 70.9283 160.815 71.8836 161.007H104.838C104.642 162.027 103.894 163.147 102.933 163.147Z" fill="#E89627"/>
<path d="M100.197 97.847C99.408 95.6743 100.529 93.2706 102.7 92.4782C104.872 91.6858 107.271 92.8047 108.06 94.9775L126.744 146.449L118.881 149.318L100.197 97.847Z" fill="#FFDF00"/>
<path d="M103.079 92.3623C105.66 91.4206 108.513 92.7508 109.45 95.3332L127.85 146.02L126.719 146.431L108.115 95.18C107.324 93.0001 104.98 91.8357 102.786 92.4794C102.882 92.4375 102.98 92.3986 103.079 92.3623Z" fill="#E89627"/>
<path d="M64.7606 94.8751C65.6094 92.5493 68.184 91.3487 70.5113 92.1935C72.8385 93.0383 74.0371 95.6086 73.1883 97.9344L54.6137 148.833L46.1859 145.774L64.7606 94.8751Z" fill="#FFDF00"/>
<path d="M71.0113 92.3926C73.4179 93.266 74.6572 95.9242 73.7796 98.3292L55.2655 149.071L54.2129 148.688L72.9185 97.4203C73.6586 95.3916 72.6854 93.1586 70.7363 92.3029C70.8282 92.33 70.9201 92.3595 71.0113 92.3926Z" fill="#E89627"/>
</svg>
