<svg width="174" height="240" viewBox="0 0 174 240" fill="none" xmlns="http://www.w3.org/2000/svg">
<rect width="174" height="240" fill="none"/>
<path d="M100.478 98.4837C99.6057 96.0815 100.845 93.4239 103.246 92.5478C105.646 91.6717 108.299 92.9089 109.171 95.3111L127.62 146.133L118.926 149.306L100.478 98.4837Z" fill="#FFDF00"/>
<path d="M103.953 92.3315C106.523 91.3937 109.364 92.7187 110.297 95.2901L128.619 145.763L127.493 146.173L108.968 95.138C108.18 92.9672 105.846 91.8079 103.661 92.4492C103.756 92.4075 103.854 92.3677 103.953 92.3315Z" fill="#E89627"/>
<path d="M65.0833 95.2147C65.9325 92.8877 68.5085 91.6865 70.8369 92.5318C73.1653 93.377 74.3645 95.9486 73.5153 98.2756L54.947 149.156L46.515 146.096L65.0833 95.2147Z" fill="#FFDF00"/>
<path d="M71.5203 92.7811C74.0921 93.7148 75.4171 96.5547 74.4793 99.1249L56.0713 149.566L54.9453 149.157L73.5586 98.1538C74.3504 95.9841 73.3076 93.5959 71.2215 92.6828C71.3214 92.7121 71.4212 92.7451 71.5203 92.7811Z" fill="#E89627"/>
<path d="M100.621 89.7423C102.857 90.0168 104.382 91.6489 104.459 94.6183L110.215 158.747C110.392 160.644 109.54 162.407 108.311 162.68C108.203 162.703 108.096 162.714 107.989 162.714H65.8441C64.6038 162.722 63.5901 161.174 63.5862 159.254C63.5862 159.139 63.5864 159.024 63.598 158.908L67.4837 96.0323H67.4759C67.6986 92.4651 69.6342 89.7425 71.9534 89.7423H79.5901C79.5837 89.9344 79.5836 90.1238 79.5941 90.3175C79.7825 94.1472 83.0511 97.1027 86.8909 96.9083C87.1182 96.9148 87.3456 96.9213 87.5794 96.9083C91.3928 96.729 94.3414 93.5317 94.2357 89.7423H100.621Z" fill="#FFDF00"/>
<path d="M68.5885 161.101H84.4999V224.696C84.4999 228.911 80.9408 232.329 76.5421 232.329C72.1476 232.329 68.5843 228.915 68.5843 224.696V161.101H68.5885Z" fill="#891E83"/>
<path d="M89.7543 161.101H105.48V224.696C105.48 228.911 101.962 232.329 97.6151 232.329C93.2718 232.329 89.7501 228.915 89.7501 224.696V161.101H89.7543Z" fill="#891E83"/>
<path d="M77.1423 232.325C76.7322 232.325 76.3221 232.29 75.916 232.224C79.4648 231.646 82.0593 228.62 82.0475 225.086V164.745H84.5V225.086C84.5 229.086 81.2076 232.329 77.1383 232.329L77.1423 232.325Z" fill="#503983"/>
<path d="M98.2024 232.325C97.7971 232.325 97.3918 232.29 96.9904 232.224C100.498 231.646 103.066 228.621 103.05 225.088V162.729H105.474V225.088C105.474 229.087 102.22 232.329 98.1985 232.329L98.2024 232.325Z" fill="#503983"/>
<path d="M74.4619 159.259V171.339H84.4613C84.4613 171.347 84.5381 171.339 84.4613 171.339C84.4613 169.811 85.5826 168.548 87.061 168.548C88.5394 168.548 89.7376 169.788 89.7376 171.313V171.339H99.7369V159.259H74.4619Z" fill="#891E83"/>
<path d="M87.0985 112.817C89.1705 112.817 90.8502 111.137 90.8502 109.065C90.8502 106.993 89.1705 105.313 87.0985 105.313C85.0265 105.313 83.3468 106.993 83.3468 109.065C83.3468 111.137 85.0265 112.817 87.0985 112.817Z" fill="#D92D81"/>
<path d="M81.7876 116.569C83.8596 116.569 85.5393 114.889 85.5393 112.817C85.5393 110.745 83.8596 109.065 81.7876 109.065C79.7156 109.065 78.0359 110.745 78.0359 112.817C78.0359 114.889 79.7156 116.569 81.7876 116.569Z" fill="#D92D81"/>
<path d="M92.4052 116.569C94.4772 116.569 96.1569 114.889 96.1569 112.817C96.1569 110.745 94.4772 109.065 92.4052 109.065C90.3332 109.065 88.6536 110.745 88.6536 112.817C88.6536 114.889 90.3332 116.569 92.4052 116.569Z" fill="#D92D81"/>
<path d="M90.4778 123.139C92.5498 123.139 94.2295 121.459 94.2295 119.387C94.2295 117.315 92.5498 115.635 90.4778 115.635C88.4058 115.635 86.7261 117.315 86.7261 119.387C86.7261 121.459 88.4058 123.139 90.4778 123.139Z" fill="#D92D81"/>
<path d="M83.7117 123.139C85.7837 123.139 87.4634 121.459 87.4634 119.387C87.4634 117.315 85.7837 115.635 83.7117 115.635C81.6397 115.635 79.96 117.315 79.96 119.387C79.96 121.459 81.6397 123.139 83.7117 123.139Z" fill="#D92D81"/>
<path d="M87.0986 119.356C89.7008 119.356 91.8103 117.247 91.8103 114.645C91.8103 112.042 89.7008 109.933 87.0986 109.933C84.4964 109.933 82.3869 112.042 82.3869 114.645C82.3869 117.247 84.4964 119.356 87.0986 119.356Z" fill="#D92D81"/>
<path d="M87.0986 117.778C88.8292 117.778 90.2321 116.375 90.2321 114.645C90.2321 112.914 88.8292 111.511 87.0986 111.511C85.3681 111.511 83.9651 112.914 83.9651 114.645C83.9651 116.375 85.3681 117.778 87.0986 117.778Z" fill="#FFDF00"/>
<path d="M107.988 162.714H65.8442C64.6038 162.725 63.5901 161.174 63.5862 159.258C63.5862 159.135 63.5863 159.016 63.5978 158.893L67.4839 96.0357C67.6375 93.5512 68.6436 91.3816 70.1181 90.3601C69.9146 91.059 69.7879 91.8001 69.7418 92.5643L65.848 155.437C65.7251 157.345 66.6237 159.05 67.8602 159.242C67.937 159.254 68.0176 159.261 68.0944 159.261H110.239C110.239 161.181 109.233 162.737 107.988 162.737V162.717V162.714Z" fill="#E89627"/>
</svg>
