<svg width="174" height="240" viewBox="0 0 174 240" fill="none" xmlns="http://www.w3.org/2000/svg">
<rect width="174" height="240" fill="none"/>
<path d="M103.24 155.851C104.113 161.383 104.113 188.859 104.113 188.859C104.113 188.859 93.0453 191.433 88.1542 190.653L86.9999 174.439L86.1779 190.653C86.1779 190.653 73.5675 191.318 69.9535 189.13C69.9535 189.13 69.3057 160.692 71.4388 155.546C71.4388 155.546 101.605 155.242 103.24 155.851Z" fill="#333481"/>
<path d="M99.3712 89.75C102.466 89.75 102.982 92.8389 102.982 92.8389L105.012 156.422C105.012 156.422 105.012 158.655 102.728 158.655H70.8975C70.8975 158.655 69.1085 158.655 69.1085 156.422C69.1121 156.242 70.1244 105.877 70.2071 101.932C70.2302 100.95 70.6202 93.4541 70.6202 93.4541C70.6203 90.6489 73.399 89.7529 74.6426 89.7529C74.6426 89.7529 75.9416 89.7529 80.0919 89.7529C80.0918 90.0288 79.856 97.0518 87.5714 97.0518C87.608 97.0517 94.8907 97.0325 94.8907 89.749C96.7804 89.7491 98.2293 89.7499 99.3712 89.75Z" fill="#32B8DE"/>
<path d="M71.5252 91.7925C58.6864 91.7925 58.6864 110.996 58.6864 110.996L67.7668 117.264L71.9791 105.378L74.1253 91.7925H71.5252Z" fill="#32B8DE"/>
<path d="M102.909 91.7987C113.921 91.3942 115.748 111.002 115.748 111.002L106.397 117.132L102.62 106.462L96.924 91.7987L102.914 91.7987H102.909Z" fill="#32B8DE"/>
<path d="M109.536 108.134C109.536 108.134 112.945 106.92 113.707 107.279C114.469 107.639 114.63 109.063 114.861 110.344C114.813 111.75 106.906 115.78 106.906 115.78C106.657 115.934 105.022 112.527 105.266 111.66C105.492 110.864 108.26 108.558 109.536 108.134Z" fill="#3D5058"/>
<path d="M64.3906 108.489C64.3906 108.489 60.8228 106.428 60.0609 106.788C59.4296 107.369 58.9218 108.49 58.9759 109.896C59.0245 111.302 67.2676 116.248 67.2676 116.248C67.5162 116.402 68.7869 112.677 68.5437 111.811C68.3167 111.015 65.6604 108.912 64.3906 108.489Z" fill="#3D5058"/>
</svg>
