<svg width="174" height="240" viewBox="0 0 174 240" fill="none" xmlns="http://www.w3.org/2000/svg">
<rect width="174" height="240" fill="none"/>
<path d="M106.226 152.357C106.664 157.951 106.685 184.793 106.685 184.793C106.685 184.793 93.3765 187.281 87.5406 186.501L86.849 163.819L86.5086 186.406C86.5086 186.406 71.0665 187.139 66.7544 184.951C66.7544 184.951 65.7373 155.958 68.2824 150.812C68.2824 150.812 106.032 149.942 106.221 152.362L106.226 152.357Z" fill="#333481"/>
<path d="M71.8004 91.8313C58.9616 91.8313 58.9616 111.035 58.9616 111.035L68.042 117.303L72.2543 105.417L74.4005 91.8313H71.8004Z" fill="#32B8DE"/>
<path d="M103.604 91.8375C114.616 91.433 116.443 111.041 116.443 111.041L107.093 117.171L103.155 105.423L97.6191 91.8375L103.609 91.8375H103.604Z" fill="#32B8DE"/>
<path d="M110.301 107.767C110.301 107.767 113.71 106.552 114.472 106.912C115.234 107.272 115.395 108.696 115.626 109.977C115.578 111.383 107.671 115.413 107.671 115.413C107.422 115.567 106.693 111.326 106.936 110.459C107.163 109.663 109.025 108.191 110.301 107.767Z" fill="#3D5058"/>
<path d="M64.6658 108.527C64.6658 108.527 61.098 106.467 60.3361 106.827C59.7048 107.408 59.197 108.529 59.2511 109.935C59.2997 111.341 66.2899 115.13 66.2899 115.13C66.5385 115.284 67.5038 111.253 67.2607 110.386C67.0337 109.59 65.9356 108.951 64.6658 108.527Z" fill="#3D5058"/>
<g style="mix-blend-mode:multiply">
<path d="M110.879 154.569H67.1373C66.0187 154.569 65.1163 153.632 65.1163 152.482C65.1163 152.348 65.1325 152.206 65.1541 152.078L74.4753 100.162C72.5246 105.838 72.3571 108.027 72.1842 108.92L63.371 153.811C63.1548 154.941 63.8627 156.046 64.9542 156.27C65.0839 156.296 65.219 156.315 65.3487 156.315H109.101C110.101 156.315 110.949 155.551 111.09 154.531C111.02 154.563 110.949 154.575 110.874 154.575L110.879 154.569Z" fill="#93CFF0"/>
</g>
<path d="M101.092 89.7549C102.043 89.755 103.356 90.8759 103.561 91.8389L111.111 153.812C111.349 154.935 110.652 156.052 109.566 156.296C109.426 156.328 109.274 156.341 109.133 156.341H65.3375C64.2191 156.341 63.3112 155.409 63.3112 154.254C63.3112 154.1 63.3276 153.946 63.36 153.799L63.3551 153.812L70.3502 91.8389C70.5396 90.863 71.804 89.7549 72.7711 89.7549H81.0553C81.0496 89.9175 81.0493 90.0782 81.0582 90.2422C81.2156 93.4357 83.9411 95.9001 87.1432 95.7383C87.3328 95.7437 87.5233 95.7491 87.7184 95.7383C90.9009 95.5885 93.3612 92.9181 93.2692 89.7549H101.092Z" fill="#32B8DE"/>
</svg>
