<svg width="174" height="240" viewBox="0 0 174 240" fill="none" xmlns="http://www.w3.org/2000/svg">
<rect width="174" height="240" fill="none"/>
<path d="M71.0889 157.618C70.0937 157.599 69.2838 159.422 69.0138 160.512C68.1233 164.133 67.1078 166.88 66.6847 170.074C66.1569 173.63 65.7741 177.201 66.0158 180.744C66.0521 181.301 65.9473 182.271 66.4309 183.16C66.8137 183.854 67.4101 184.402 68.1474 184.646C70.4845 185.428 75.8139 186.155 84.6425 185.156C85.3919 185.074 85.6184 184.282 85.832 183.459L87.0498 177.242L87.8516 183.459C87.9524 184.245 88.4278 184.917 89.0886 185.156C91.3693 185.994 97.1597 187.439 105.444 184.802C107.129 184.268 108.313 182.515 108.309 180.518C108.309 176.442 107.781 168.914 104.711 159.808C104.453 159.04 104.014 157.568 103.296 157.568L71.0889 157.618Z" fill="#674CA6"/>
<path d="M66.9533 169.342C71.687 170.055 75.3815 167.276 76.0044 160.908C76.0364 160.54 76.1289 159.532 76.1289 159.164C76.1396 158.971 76.1289 158.773 76.1965 158.58C76.2891 159.367 76.2143 160.149 76.1574 160.931C75.563 167.359 71.6835 170.175 66.9533 169.342Z" fill="white"/>
<path d="M107.051 169.227C102.443 170.087 98.6741 167.235 98.1094 160.816C98.0574 160.038 97.9569 159.251 98.0539 158.469C98.1198 158.662 98.1128 158.86 98.1197 159.054C98.1301 159.624 98.1717 160.236 98.2237 160.797C98.8404 167.17 102.454 169.922 107.051 169.227Z" fill="white"/>
<path opacity="0.2" d="M87.1255 158.635V167.065" stroke="white" stroke-width="0.33" stroke-miterlimit="6.61"/>
<path d="M99.3712 89.75C102.466 89.75 102.982 92.8389 102.982 92.8389L105.012 156.422C105.012 156.422 105.012 158.655 102.728 158.655H70.8975C70.8975 158.655 69.1085 158.655 69.1085 156.422C69.1121 156.242 70.1244 105.877 70.2071 101.932C70.2302 100.95 70.6202 93.4541 70.6202 93.4541C70.6203 90.6489 73.399 89.7529 74.6426 89.7529C74.6426 89.7529 75.9416 89.7529 80.0919 89.7529C80.0918 90.0288 79.856 97.0518 87.5714 97.0518C87.608 97.0517 94.8907 97.0325 94.8907 89.749C96.7804 89.7491 98.2293 89.7499 99.3712 89.75Z" fill="#FF9800"/>
<g style="mix-blend-mode:multiply">
<path d="M104.851 156.757H71.9702C71.1323 156.757 70.4777 155.803 70.4777 154.594C70.4581 154.732 70.4777 154.449 70.4777 154.594L71.186 114.456C70.6755 114.13 70.2251 113.943 69.9502 113.943L69.1116 155.96C69.0301 157.354 69.5056 158.303 70.3272 158.538C70.4254 158.568 70.7941 158.676 70.8923 158.676H102.816C103.566 158.676 104.816 158.149 104.976 156.757C104.924 156.787 104.907 156.757 104.851 156.757Z" fill="#FF9800"/>
</g>
<path d="M76.6973 89.7097C60.563 89.7097 60.2882 106.246 60.2882 106.246L73.3001 113.639L78.8682 102.985L76.6973 89.7097Z" fill="#FF9800"/>
<path d="M97.5372 89.7409C112.546 88.9674 113.395 105.657 113.395 105.657L99.4238 113.639L93.8556 102.985L97.5372 89.7409Z" fill="#FF9800"/>
</svg>
