<svg width="174" height="240" viewBox="0 0 174 240" fill="none" xmlns="http://www.w3.org/2000/svg">
<rect width="174" height="240" fill="none"/>
<path d="M71.0889 157.618C70.0937 157.599 69.2838 159.422 69.0138 160.512C68.1233 164.134 67.1078 166.881 66.6847 170.074C66.1569 173.631 65.7741 177.201 66.0158 180.744C66.0521 181.301 65.9473 182.272 66.4309 183.16C66.8137 183.855 67.4101 184.402 68.1474 184.646C70.4845 185.428 75.8139 186.155 84.6425 185.157C85.3919 185.074 85.6184 184.282 85.832 183.459L87.0498 177.243L87.8516 183.459C87.9524 184.246 88.4278 184.917 89.0886 185.157C91.3693 185.994 97.1597 187.439 105.444 184.802C107.129 184.269 108.313 182.515 108.309 180.519C108.309 176.442 107.781 168.914 104.711 159.808C104.453 159.04 104.014 157.569 103.296 157.569L71.0889 157.618Z" fill="#5EC8E5"/>
<path d="M98.4693 90.5109C101.186 90.511 101.792 94.3001 101.793 94.3029L104.957 153.491C104.965 153.54 105.77 158.47 100.963 158.47H71.0582C71.0196 158.464 68.3728 158.047 68.3726 154.635C68.3726 154.635 70.0938 106.559 70.1666 102.607C70.1871 101.626 71.4974 94.3093 71.4986 94.3029C71.4986 91.4975 73.5813 90.5138 74.6734 90.5138C74.6963 90.5138 76.3993 90.5138 80.0191 90.5138C80.0191 90.7874 79.811 97.8126 86.5875 97.8126C86.6066 97.8126 91.8214 97.8035 93.2017 93.0392C93.4844 92.3201 93.6253 91.5323 93.5865 90.7111H93.5318C93.533 90.6449 93.5347 90.5782 93.5347 90.5109C95.1942 90.5109 97.4666 90.5108 98.4693 90.5109Z" fill="#EFEFEF"/>
<path d="M66.9533 169.342C71.687 170.055 75.3815 167.276 76.0044 160.908C76.0364 160.54 76.1289 159.532 76.1289 159.164C76.1396 158.971 76.1289 158.773 76.1965 158.58C76.2891 159.367 76.2143 160.149 76.1574 160.931C75.563 167.359 71.6835 170.175 66.9533 169.342Z" fill="black"/>
<path d="M107.051 169.227C102.443 170.087 98.6741 167.235 98.1094 160.816C98.0574 160.038 97.9569 159.252 98.0539 158.469C98.1198 158.663 98.1128 158.861 98.1197 159.054C98.1301 159.624 98.1717 160.236 98.2237 160.798C98.8404 167.17 102.454 169.922 107.051 169.227Z" fill="black"/>
<path opacity="0.2" d="M87.1255 158.635V167.065" stroke="black" stroke-width="0.33" stroke-miterlimit="6.61"/>
<path d="M99.3712 89.7501C102.466 89.7501 102.982 92.8389 102.982 92.8389L105.012 154.023C105.012 154.067 105 157.708 102.982 157.708H70.8975C70.8975 157.708 69.1086 157.708 69.1085 154.023C69.1085 154.023 70.1243 105.884 70.2071 101.932C70.2302 100.95 70.6202 93.4542 70.6202 93.4542C70.6203 90.6489 73.399 89.753 74.6426 89.753C74.6426 89.753 75.9416 89.753 80.0919 89.753C80.0918 90.0288 79.856 97.0518 87.5714 97.0518C87.6081 97.0518 94.8907 97.0325 94.8907 89.7491C96.7804 89.7492 98.2293 89.75 99.3712 89.7501Z" fill="white"/>
<path d="M86.3161 105.398C86.5708 104.614 87.68 104.614 87.9348 105.398L88.8813 108.312C88.9953 108.662 89.322 108.9 89.6907 108.9H92.7538C93.5782 108.9 93.9209 109.955 93.254 110.439L90.7759 112.24C90.4776 112.456 90.3528 112.84 90.4668 113.191L91.4133 116.104C91.668 116.888 90.7707 117.54 90.1037 117.056L87.6257 115.255C87.3274 115.038 86.9235 115.038 86.6252 115.255L84.1471 117.056C83.4802 117.54 82.5828 116.888 82.8376 116.104L83.7841 113.191C83.8981 112.84 83.7733 112.456 83.475 112.24L80.9969 110.439C80.33 109.955 80.6727 108.9 81.4971 108.9H84.5602C84.9289 108.9 85.2556 108.662 85.3695 108.312L86.3161 105.398Z" fill="#FFE700"/>
</svg>
