<svg width="174" height="240" viewBox="0 0 174 240" fill="none" xmlns="http://www.w3.org/2000/svg">
<rect width="174" height="240" fill="none"/>
<path d="M65.1205 157.282C63.9243 157.264 63.9698 158.565 63.3737 159.715C61.5207 163.288 61.4708 176.907 61.4708 180.584C61.4708 182.305 62.0847 183.653 64.444 184.31C67.5047 185.163 74.2567 185.819 84.8675 184.821C85.7683 184.738 86.018 183.947 86.2746 183.123L87.162 176.907L88.1258 183.123C88.2469 183.91 88.8183 184.582 89.6125 184.821C92.3536 185.658 100.385 186.969 110.342 184.332C112.367 183.799 112.718 182.18 112.713 180.183C112.713 176.106 113.546 168.846 110.903 159.473C110.593 158.704 109.926 157.233 109.064 157.233L65.1205 157.282Z" fill="#5EC8E5"/>
<path d="M101.676 90.1748C105.013 90.1751 104.904 93.9268 104.903 93.9668L107.333 123.586L111.02 153.155C111.02 153.155 112.055 158.134 106.092 158.134H68.0272C67.9687 158.134 61.3231 158.11 61.3231 152.548C61.345 152.401 68.2372 106.123 68.327 102.176C68.3519 101.197 69.3679 92.5108 69.371 92.4844C70.3028 90.3412 72.2853 90.1787 73.6337 90.1787C73.6526 90.1787 74.4438 90.1787 78.8876 90.1787C78.8883 90.4572 79.979 98.583 88.3427 98.583C88.3513 98.5819 96.9198 97.4729 96.9198 90.1748C98.9686 90.1749 100.438 90.1747 101.676 90.1748Z" fill="#EFEFEF"/>
<path d="M63.7562 169.006C69.8758 169.719 74.6519 166.94 75.4571 160.572C75.4985 160.204 75.6181 159.197 75.6181 158.828C75.6319 158.635 75.6181 158.437 75.7055 158.244C75.8252 159.031 75.7285 159.813 75.6549 160.595C74.8865 167.023 69.8712 169.839 63.7562 169.006Z" fill="black"/>
<path d="M109.538 168.891C103.419 169.752 98.4127 166.899 97.6627 160.48C97.5937 159.703 97.4602 158.916 97.5891 158.134C97.6765 158.327 97.6672 158.525 97.6764 158.718C97.6903 159.289 97.7455 159.901 97.8145 160.462C98.6335 166.835 103.433 169.586 109.538 168.891Z" fill="black"/>
<path opacity="0.2" d="M87.4428 158.299V166.729" stroke="black" stroke-width="0.33" stroke-miterlimit="6.61"/>
<path d="M101.032 89.4143C104.829 89.4143 105.016 93.1576 105.018 93.2053L111.089 153.559C111.089 153.559 111.089 157.372 105.107 157.372H67.9925C67.9925 157.372 61.9915 157.373 61.9915 151.786C62.0165 151.615 68.7282 105.541 68.8109 101.596C68.834 100.614 69.3392 93.2053 69.3392 93.2053C69.3394 90.2667 71.5856 89.4173 73.2845 89.4172C73.2845 89.4172 75.4633 89.4172 79.6136 89.4172C79.6135 89.6931 79.3777 96.7161 87.0931 96.7161C87.1277 96.716 94.4124 96.6978 94.4124 89.4133C96.3022 89.4134 99.8897 89.4142 101.032 89.4143Z" fill="white"/>
<path d="M87.282 105.063C87.5367 104.279 88.6459 104.279 88.9007 105.063L89.8472 107.976C89.9612 108.326 90.2879 108.564 90.6566 108.564H93.7197C94.5441 108.564 94.8868 109.619 94.2199 110.103L91.7418 111.904C91.4435 112.121 91.3187 112.505 91.4326 112.855L92.3792 115.768C92.6339 116.552 91.7366 117.204 91.0696 116.72L88.5915 114.919C88.2933 114.703 87.8894 114.703 87.5911 114.919L85.113 116.72C84.4461 117.204 83.5487 116.552 83.8035 115.768L84.75 112.855C84.8639 112.505 84.7391 112.121 84.4409 111.904L81.9628 110.103C81.2958 109.619 81.6386 108.564 82.463 108.564H85.5261C85.8948 108.564 86.2215 108.326 86.3354 107.976L87.282 105.063Z" fill="#FFE700"/>
</svg>
