<svg width="174" height="240" viewBox="0 0 174 240" fill="none" xmlns="http://www.w3.org/2000/svg">
<rect width="174" height="240" fill="none"/>
<path d="M108.071 152.357C109.726 157.837 110.1 184.455 110.1 184.455C110.1 184.455 93.8547 187.281 88.0189 186.501L87.3273 163.819L86.1996 186.501C86.1996 186.501 68.29 186.643 63.9779 184.455C63.9779 184.455 63.5911 155.958 66.1362 150.812C66.1362 150.812 107.882 149.937 108.071 152.357Z" fill="#333481"/>
<path d="M69.5416 91.8313C56.7027 91.8313 57.7653 110.586 57.7653 110.586L68.5202 117.303L72.7326 105.417L74.8787 91.8313H69.5416Z" fill="#32B8DE"/>
<path d="M104.721 91.8374C115.734 91.4329 116.471 111.161 116.471 111.161L107.571 117.171L103.634 105.423L98.0974 91.8374H104.721Z" fill="#32B8DE"/>
<path d="M110.764 107.73C110.764 107.73 114.241 106.516 115.018 106.876C115.794 107.235 115.959 108.66 116.195 109.94C116.145 111.346 108.083 115.377 108.083 115.377C107.83 115.531 107.086 111.29 107.334 110.423C107.565 109.627 109.464 108.154 110.764 107.73Z" fill="#3D5058"/>
<path d="M64.5797 108.527C64.5797 108.527 60.2475 106.467 59.3223 106.827C58.5558 107.408 57.9392 108.529 58.0048 109.935C58.0638 111.341 66.5519 115.13 66.5519 115.13C66.8537 115.284 68.0259 111.253 67.7306 110.386C67.455 109.59 66.1216 108.951 64.5797 108.527Z" fill="#3D5058"/>
<g style="mix-blend-mode:multiply">
<path d="M111.357 154.569H67.6155C66.497 154.569 65.5945 153.632 65.5945 152.482C65.5945 152.348 65.6107 152.206 65.6324 152.078L74.9535 100.162C73.0028 105.838 72.8353 108.027 72.6624 108.92L63.8492 153.811C63.6331 154.941 64.3409 156.046 65.4324 156.27C65.5621 156.296 65.6972 156.315 65.8269 156.315H109.579C110.579 156.315 111.428 155.551 111.568 154.531C111.498 154.563 111.428 154.575 111.352 154.575L111.357 154.569Z" fill="#93CFF0"/>
</g>
<path d="M101.57 89.4353C102.791 89.4353 104.695 90.7976 104.695 91.8279L113.978 153.492C113.978 155.977 112.346 156.545 111.184 156.545H62.998C60.1157 156.545 60.1152 154.752 60.1152 153.646L69.6132 91.8259C69.6137 90.6423 71.5559 89.4353 73.249 89.4353H79.5995C79.5869 89.6743 79.5866 89.9071 79.5995 90.1462C79.7901 94.0186 83.0948 97.0066 86.9775 96.8103C87.2074 96.8169 87.4382 96.8234 87.6747 96.8103C91.5738 96.6268 94.5806 93.3231 94.4023 89.4353H101.57Z" fill="#32B8DE"/>
</svg>
