<svg width="174" height="240" viewBox="0 0 174 240" fill="none" xmlns="http://www.w3.org/2000/svg">
<rect width="174" height="240" fill="none"/>
<path d="M68.662 158.342C67.5135 158.323 66.579 159.128 66.2674 160.23C65.2398 163.889 64.068 166.665 63.5798 169.892C62.9707 173.487 62.5289 177.095 62.8079 180.675C62.8498 181.238 62.7289 182.219 63.2869 183.116C63.7286 183.819 64.4168 184.372 65.2677 184.618C67.9646 185.409 73.2236 185.827 83.4113 184.818C84.2762 184.735 85.0248 184.121 85.2713 183.289L87.08 177.137L88.0054 183.419C88.1216 184.214 88.6703 184.893 89.4328 185.134C92.0646 185.981 98.7464 187.441 108.306 184.776C110.25 184.237 111.617 182.465 111.612 180.447C111.612 176.328 111.003 168.721 107.46 159.519C107.163 158.742 106.395 158.226 105.568 158.226L68.6574 158.328L68.662 158.342Z" fill="#674CA6"/>
<path d="M63.6775 169.153C69.8617 169.874 74.6883 167.065 75.502 160.63C75.5438 160.258 75.6647 159.24 75.6647 158.868C75.6787 158.672 75.6647 158.472 75.753 158.277C75.8739 159.072 75.7763 159.863 75.7019 160.653C74.9254 167.149 69.8571 169.995 63.6775 169.153Z" fill="white"/>
<path d="M109.944 169.037C103.759 169.906 98.7003 167.023 97.9424 160.537C97.8727 159.751 97.7378 158.956 97.868 158.165C97.9564 158.361 97.947 158.561 97.9563 158.756C97.9703 159.332 98.0261 159.951 98.0958 160.518C98.9235 166.958 103.773 169.739 109.944 169.037Z" fill="white"/>
<path opacity="0.2" d="M87.6152 158.333V166.851" stroke="white" stroke-width="0.33" stroke-miterlimit="6.61"/>
<path d="M77.1898 89.7098C60.6816 86.6965 60.4066 106.026 60.4066 106.026L73.7925 113.639L79.3607 102.985L77.1898 89.7098Z" fill="#FF9800"/>
<path d="M96.9499 89.7409C113.458 86.7276 114.578 105.266 114.578 105.266L99.9162 113.639L94.3481 102.985L96.9499 89.7409Z" fill="#FF9800"/>
<path d="M96.9605 89.7412C97.9874 89.7412 104.397 109.943 104.624 110.944L113.443 157.441C113.702 158.623 112.953 159.799 111.771 160.059C111.616 160.089 111.46 160.113 111.304 160.113H63.9312C62.7254 160.113 61.7408 159.136 61.7359 157.924C61.7359 157.767 61.75 157.598 61.7876 157.447H61.7925L69.1587 110.947C69.3618 109.914 76.1982 89.7467 77.2359 89.7412H79.7603C79.749 89.9681 79.7489 90.1896 79.7613 90.417C79.9476 94.205 83.18 97.1276 86.9781 96.9355C87.203 96.942 87.4283 96.9484 87.6597 96.9355C91.4674 96.7565 94.4053 93.5359 94.2417 89.7412H96.9605Z" fill="#FF9800"/>
<g style="mix-blend-mode:multiply">
<path d="M113.263 158.267H65.8614C64.6535 158.267 63.6673 157.286 63.6673 156.077C63.6673 155.933 63.6815 155.788 63.7098 155.65L70.6042 111.565C69.8683 111.239 69.5428 111.041 69.1465 111.041L61.7799 157.473C61.5393 158.658 62.3084 159.813 63.4927 160.048C63.6343 160.078 63.7806 160.09 63.9221 160.09H111.338C112.418 160.09 113.338 159.29 113.494 158.219C113.418 158.249 113.343 158.267 113.263 158.267Z" fill="#FF9800"/>
</g>
</svg>
