<svg width="174" height="240" viewBox="0 0 174 240" fill="none" xmlns="http://www.w3.org/2000/svg">
<rect width="174" height="240" fill="none"/>
<path d="M68.6881 157.618C67.5516 157.6 66.6268 159.422 66.3185 160.512C65.3017 164.134 64.1422 166.881 63.659 170.074C63.0563 173.631 62.6191 177.201 62.8952 180.744C62.9366 181.301 62.817 182.272 63.3692 183.16C63.8063 183.855 64.4873 184.402 65.3293 184.646C67.998 185.428 73.2019 185.842 83.2832 184.844C84.139 184.761 84.8798 184.154 85.1237 183.33L86.9135 177.243L87.8292 183.459C87.9442 184.246 88.4871 184.917 89.2417 185.157C91.846 185.994 98.4579 187.439 107.918 184.802C109.841 184.269 111.194 182.515 111.189 180.519C111.189 176.442 110.587 168.914 107.081 159.808C106.786 159.04 106.284 157.569 105.465 157.569L68.6881 157.618Z" fill="#5EC8E5"/>
<path d="M100.042 90.5114C103.116 90.5115 103.817 94.253 103.826 94.3024L107.429 153.491C107.429 153.491 108.383 158.469 102.883 158.469H70.8768C70.8598 158.469 64.7567 158.462 64.7567 152.883C64.7722 152.718 69.0647 106.638 69.1473 102.693C69.1704 101.711 69.329 94.3024 69.329 94.3024C69.3292 91.4974 71.7006 90.5143 72.9442 90.5143C72.9576 90.5143 74.8963 90.5144 79.0321 90.5143C79.032 90.7902 78.7962 97.8132 86.5116 97.8132C86.5534 97.8131 94.4227 97.7929 94.4227 90.5104C96.3125 90.5105 98.9 90.5114 100.042 90.5114Z" fill="#EFEFEF"/>
<path d="M63.7562 169.342C69.8758 170.055 74.6519 167.276 75.4571 160.908C75.4985 160.54 75.6181 159.532 75.6181 159.164C75.6319 158.971 75.6181 158.773 75.7055 158.58C75.8251 159.367 75.7285 160.149 75.6549 160.931C74.8865 167.359 69.8712 170.175 63.7562 169.342Z" fill="black"/>
<path d="M109.538 169.227C103.419 170.087 98.4127 167.235 97.6627 160.816C97.5936 160.038 97.4602 159.252 97.589 158.469C97.6764 158.663 97.6672 158.861 97.6764 159.054C97.6902 159.624 97.7455 160.236 97.8145 160.798C98.6335 167.17 103.433 169.922 109.538 169.227Z" fill="black"/>
<path opacity="0.2" d="M87.4428 158.635V167.065" stroke="black" stroke-width="0.33" stroke-miterlimit="6.61"/>
<path d="M100.623 89.7501C103.698 89.7502 104.398 93.4917 104.408 93.5411L108.01 152.73C108.01 152.73 107.308 157.708 101.808 157.708H71.4583C71.4413 157.708 65.3382 157.701 65.3382 152.122C65.3536 151.956 69.6461 105.877 69.7288 101.932C69.7519 100.95 69.9105 93.5411 69.9105 93.5411C69.9107 90.7361 72.2821 89.753 73.5257 89.753C73.5391 89.753 75.4778 89.753 79.6136 89.753C79.6135 90.0288 79.3777 97.0518 87.0931 97.0518C87.1333 97.0518 94.4124 97.0307 94.4124 89.7491C96.3022 89.7492 99.4815 89.75 100.623 89.7501Z" fill="white"/>
<path d="M87.282 105.398C87.5367 104.614 88.6459 104.614 88.9007 105.398L89.8472 108.312C89.9612 108.662 90.2879 108.9 90.6566 108.9H93.7197C94.5441 108.9 94.8868 109.955 94.2199 110.439L91.7418 112.24C91.4435 112.456 91.3187 112.84 91.4326 113.191L92.3792 116.104C92.6339 116.888 91.7366 117.54 91.0696 117.056L88.5915 115.255C88.2933 115.038 87.8894 115.038 87.5911 115.255L85.113 117.056C84.4461 117.54 83.5487 116.888 83.8035 116.104L84.75 113.191C84.8639 112.84 84.7391 112.456 84.4409 112.24L81.9628 110.439C81.2958 109.955 81.6386 108.9 82.463 108.9H85.5261C85.8948 108.9 86.2215 108.662 86.3354 108.312L87.282 105.398Z" fill="#FFE700"/>
</svg>
