<svg width="174" height="240" viewBox="0 0 174 240" fill="none" xmlns="http://www.w3.org/2000/svg">
<rect width="174" height="240" fill="none"/>
<path d="M65.1155 157.282C63.9274 157.264 63.9727 158.565 63.3806 159.715C61.5401 163.288 61.4905 176.907 61.4905 180.584C61.4905 182.305 62.1003 183.653 64.4436 184.31C67.4836 185.163 74.1899 185.819 84.7288 184.821C85.6235 184.738 85.8715 183.947 86.1264 183.123L87.0078 176.907L87.965 183.123C88.0852 183.91 88.6528 184.582 89.4417 184.821C92.1642 185.658 100.142 186.969 110.031 184.332C112.042 183.799 112.391 182.18 112.386 180.183C112.386 176.106 113.213 168.846 110.588 159.473C110.28 158.704 109.618 157.233 108.761 157.233L65.1155 157.282Z" fill="#674CA6"/>
<path d="M63.7562 169.006C69.8758 169.719 74.6518 166.94 75.457 160.572C75.4985 160.204 75.6181 159.197 75.6181 158.829C75.6319 158.635 75.6181 158.437 75.7055 158.244C75.8251 159.031 75.7285 159.813 75.6549 160.595C74.8865 167.023 69.8712 169.839 63.7562 169.006Z" fill="white"/>
<path d="M109.538 168.891C103.419 169.752 98.4126 166.899 97.6626 160.48C97.5936 159.703 97.4602 158.916 97.589 158.134C97.6764 158.327 97.6672 158.525 97.6764 158.718C97.6902 159.289 97.7454 159.901 97.8144 160.462C98.6335 166.835 103.433 169.586 109.538 168.891Z" fill="white"/>
<path opacity="0.2" d="M87.4428 158.299V166.729" stroke="white" stroke-width="0.33" stroke-miterlimit="6.61"/>
<path d="M101.02 89.4143C104.818 89.4143 105.004 93.1576 105.006 93.2053L113.957 158.785C113.957 158.81 113.939 162.665 108.152 162.665H65.9242C65.9242 162.665 60.9888 162.666 60.9886 158.785C60.9886 158.785 68.7164 105.548 68.7992 101.596C68.8223 100.614 69.3275 93.2053 69.3275 93.2053C69.3277 90.2667 71.5739 89.4173 73.2728 89.4172C73.2728 89.4172 75.4517 89.4172 79.6019 89.4172C79.6018 89.6931 79.366 96.7161 87.0814 96.7161C87.1172 96.716 94.4008 96.6972 94.4008 89.4133C96.2905 89.4134 99.8781 89.4142 101.02 89.4143Z" fill="#FF9800"/>
<g style="mix-blend-mode:multiply">
<path d="M108.375 162.661C105.307 162.661 65.8512 162.714 65.8512 162.714C63.7507 162.714 60.9895 161.69 60.9895 158.79C60.978 158.913 60.9895 158.668 60.9895 158.79L67.2294 114.599C67.2294 114.599 67.4839 114.963 68.6653 115.326L63.1404 155.909C62.3683 158.79 63.5815 160.309 65.6995 160.309L113.523 160.309C112.95 161.302 111.444 162.661 108.375 162.661Z" fill="#FF9800"/>
</g>
<path d="M73.2628 92.0709C56.7546 89.0576 56.4796 108.387 56.4796 108.387L69.8655 116L75.4337 105.346L73.2628 92.0709Z" fill="#FF9800"/>
<path d="M99.6686 92.1022C116.177 89.0889 117.297 107.628 117.297 107.628L102.635 116L97.0667 105.346L99.6686 92.1022Z" fill="#FF9800"/>
</svg>
