<svg width="174" height="240" viewBox="0 0 174 240" fill="none" xmlns="http://www.w3.org/2000/svg">
<rect width="174" height="240" fill="none"/>
<path d="M98.6835 89.7424C101.689 89.7424 103.077 91.4313 103.304 94.5012L104.73 146.921C104.73 149.122 104.457 149.986 103.295 150.213H70.7802C69.6019 150.213 69.0195 149.022 69.0195 147.346L70.4355 94.5012C70.4356 91.6637 71.7574 89.7426 74.0078 89.7424H79.5986C79.5881 89.9677 79.5873 90.1883 79.5995 90.4143C79.7911 94.3019 83.1107 97.301 87.0107 97.1038C87.2415 97.1103 87.4725 97.1169 87.7099 97.1038C91.6124 96.9204 94.6243 93.6274 94.4687 89.7424H98.6835Z" fill="#A2C72D"/>
<path d="M69.027 150.082C69.3793 146.577 69.7213 146.577 72.6363 146.577L100.022 146.829C101.807 146.829 104.227 146.829 104.889 148.43L111.502 218.231C111.754 220.365 110.374 222.319 108.432 222.594C108.284 222.614 108.131 222.626 107.982 222.626H66.2583C64.2986 222.626 62.7075 220.884 62.7075 218.724C62.7075 218.596 62.712 218.468 62.7255 218.333L69.027 150.082Z" fill="#DA2F7A"/>
<path d="M108.246 222.538L65.9909 222.698C64.0863 222.698 62.4391 220.598 62.7522 217.964L68.9231 148.444C69.0454 146.805 69.6764 147.259 70.799 146.577C70.6461 147.024 70.3151 150.601 70.2801 151.094L65.9909 216.359C65.9909 220.44 67.8462 220.202 67.8462 220.202C67.7283 220.202 67.9598 220.217 67.8462 220.202L109.976 220.225C110.465 220.225 110.95 220.089 111.395 219.815C110.836 221.469 109.604 222.531 108.25 222.531L108.246 222.538Z" fill="#B52466"/>
<path d="M104.92 148.475H68.9219L69.0469 146.525H104.74L104.92 148.475Z" fill="#8DAF00"/>
</svg>
