<svg width="174" height="240" viewBox="0 0 174 240" fill="none" xmlns="http://www.w3.org/2000/svg">
<rect width="174" height="240" fill="none"/>
<path d="M100.974 89.4163C103.588 89.4163 104.994 91.4965 104.994 93.3235L114.129 146.916C114.129 149.118 112.239 149.986 111.077 150.213H62.8922C61.7137 150.213 59.4059 149.022 59.4059 147.346L69.3004 93.3235C69.4647 90.8459 71.1654 89.4164 73.609 89.4163H79.7379C79.7319 89.5987 79.7318 89.7791 79.7418 89.9631C79.9224 93.6272 83.0505 96.4538 86.7262 96.2678C86.9438 96.274 87.1615 96.2802 87.3854 96.2678C91.0345 96.0964 93.8564 93.0402 93.7574 89.4163H100.974Z" fill="#A2C72D"/>
<path d="M58.8877 150.082C58.8777 146.57 69.0305 146.577 72.2831 146.577L102.841 146.829C104.832 146.829 113.683 146.829 114.422 148.43L126.33 218.231C126.611 220.365 125.22 222.319 123.053 222.594L49.0785 222.626C46.8918 222.626 46.0929 220.962 46.0929 218.803L58.8877 150.082Z" fill="#DA2F7A"/>
<path d="M122.624 222.616H49.5674C46.9544 222.616 46.1163 221.258 46.1163 218.71L58.8165 150.049C58.9843 148.411 60.6985 147.951 62.2143 147.436C61.155 148.192 60.5242 149.254 60.4763 149.747L48.9071 215.278C48.3662 218.338 47.7171 220.187 49.8137 220.187L124.278 220.225C124.949 220.225 125.614 220.088 126.226 219.815C125.839 221.247 124.482 222.616 122.624 222.616Z" fill="#B52466"/>
<path d="M114.649 149.572H58.9767L59.5296 146.525H114.076L114.649 149.572Z" fill="#8DAF00"/>
</svg>
