<svg width="174" height="240" viewBox="0 0 174 240" fill="none" xmlns="http://www.w3.org/2000/svg">
<rect width="174" height="240" fill="none"/>
<path d="M99.8173 89.7424C102.823 89.7424 104.211 91.4312 104.438 94.5012L107.497 146.921C107.497 149.122 106.562 149.985 105.4 150.213H68.623C67.4448 150.213 66.5146 149.022 66.5146 147.346L69.9101 94.5012C69.9102 91.6638 71.2712 89.7427 73.5214 89.7424H79.5654C79.5549 89.9677 79.5551 90.1883 79.5673 90.4143C79.7589 94.3019 83.0776 97.301 86.9775 97.1038C87.2084 97.1103 87.4401 97.1169 87.6777 97.1038C91.58 96.9202 94.5911 93.6273 94.4355 89.7424H99.8173Z" fill="#A2C72D"/>
<path d="M67.7775 150.082C67.7675 146.57 68.5523 146.577 71.8049 146.577L102.363 146.829C104.354 146.829 107.054 146.829 107.793 148.43L115.172 218.231C115.453 220.365 113.913 222.319 111.746 222.594C111.581 222.614 111.41 222.626 111.245 222.626H64.6882C62.5016 222.626 60.7261 220.884 60.7261 218.724C60.7261 218.596 60.7312 218.468 60.7462 218.333L67.7775 150.082Z" fill="#DA2F7A"/>
<path d="M111.903 222.538H65.0456C62.8449 222.538 61.063 220.468 61.063 217.919C61.063 217.768 61.0681 217.616 61.0833 217.457L66.4652 148.444C66.6065 146.805 67.3356 147.259 68.6328 146.577C68.4562 147.024 68.0736 150.601 68.0332 151.094L63.077 215.136C62.8549 217.669 64.445 219.937 66.6356 220.202C66.7669 220.217 66.9082 220.225 67.0444 220.225H113.901C114.467 220.225 115.027 220.089 115.542 219.815C114.896 221.469 113.472 222.531 111.908 222.531L111.903 222.538Z" fill="#B52466"/>
<path d="M107.84 148.475H66.4194L66.5729 146.525H107.632L107.84 148.475Z" fill="#8DAF00"/>
</svg>
