<svg width="174" height="240" viewBox="0 0 174 240" fill="none" xmlns="http://www.w3.org/2000/svg">
<rect width="174" height="240" fill="none"/>
<path d="M85.238 164.173V164.398H71V154.334H103V164.398H88.7843V164.173C88.7843 163.194 87.9904 162.4 87.0112 162.4C86.0319 162.4 85.238 163.194 85.238 164.173Z" fill="#DB307A"/>
<path d="M71 164.398L85.2392 164.398V225.14C85.2392 228.941 82.0553 232.016 78.1196 232.016C74.1839 232.016 71 228.941 71 225.14V164.398Z" fill="#DB307A"/>
<path d="M78.1189 232.016C77.7209 232.016 77.3229 231.985 76.9313 231.916C80.3616 231.351 82.8758 228.4 82.8632 224.94V164.008H85.2322V224.94C85.2322 228.852 82.0483 232.016 78.1126 232.016H78.1189Z" fill="#32B8DE"/>
<path d="M88.7608 162.435L103 162.435V224.94C103 228.852 99.8161 232.016 95.8804 232.016C91.9447 232.016 88.7608 228.852 88.7608 224.94V162.435Z" fill="#DB307A"/>
<path d="M95.8797 232.016C95.4817 232.016 95.0837 231.985 94.6921 231.916C98.1224 231.351 100.637 228.4 100.624 224.94L100.65 154.35L102.993 154.35V224.94C102.993 228.852 99.8091 232.016 95.8734 232.016H95.8797Z" fill="#32B8DE"/>
<path d="M100.227 97.8466C99.4387 95.6739 100.56 93.2702 102.731 92.4778C104.902 91.6854 107.302 92.8044 108.091 94.9771L127.284 147.851L119.421 150.721L100.227 97.8466Z" fill="#942483"/>
<path d="M103.11 92.3623C105.69 91.4206 108.543 92.7508 109.481 95.3332L128.431 147.538L127.301 147.949L108.145 95.18C107.354 93.0001 105.01 91.8357 102.816 92.4794C102.912 92.4375 103.01 92.3986 103.11 92.3623Z" fill="#A5D8D6"/>
<path d="M64.6999 94.6614C65.5487 92.3356 68.1234 91.135 70.4506 91.9799C72.7779 92.8247 73.9764 95.3949 73.1276 97.7208L53.8584 150.523L45.4307 147.463L64.6999 94.6614Z" fill="#942483"/>
<path d="M45.7093 161.356C45.7001 161.353 45.6912 161.349 45.6821 161.345L45.7417 161.367C45.731 161.363 45.72 161.36 45.7093 161.356ZM70.9499 92.1794C73.3565 93.0529 74.5958 95.7111 73.7182 98.1161L54.5322 150.701L53.4787 150.317L72.8571 97.2072C73.5972 95.1784 72.624 92.9455 70.6749 92.0897C70.7668 92.1168 70.8587 92.1463 70.9499 92.1794Z" fill="#A5D8D6"/>
<path d="M70.5874 97.2871C70.5874 91.1158 71.2247 89.7449 74.657 89.7449H78.2328V87.4927H94.6132V89.7449L99.2887 89.7269C102.976 89.6423 103.379 91.3255 103.452 97.2871L112.082 191.183C112.082 192.989 111.708 193.936 110.057 193.936L65.9988 193.964C64.4967 193.964 62.877 192.74 62.877 191.228C62.8674 191.314 62.877 191.142 62.877 191.228L70.5874 97.2871Z" fill="#942483"/>
<path d="M70.3686 112.064C78.176 111.365 84.3665 105.175 85.0649 97.3674V90.2202H87.8014V97.0421C87.8014 105.519 78.5396 114.791 70.0528 114.791L70.3686 112.054V112.064Z" fill="#A5D8D6"/>
<path d="M78.2332 90.2295H80.9696C81.1132 91.6742 82.2517 92.8128 83.706 92.9659H89.1598C90.6046 92.8224 91.7432 91.6838 91.8963 90.2295H94.6327C94.4413 93.1573 92.1068 95.4918 89.179 95.6832H83.7252C80.7974 95.4918 78.4629 93.1573 78.2715 90.2295H78.2619H78.2332Z" fill="#A5D8D6"/>
<path d="M94.6327 87.4927H78.2332V90.2291H94.6327V87.4927Z" fill="#A5D8D6"/>
<path d="M109.994 193.974L65.265 193.964C63.9601 193.964 62.888 192.732 62.888 191.211C62.888 191.125 62.888 191.028 62.8963 190.942L70.501 96.9379C70.7254 94.3774 70.5438 91.0632 72.2903 90.2201C72.2903 91.5385 72.7186 93.452 72.7186 94.8646L65.2733 188.189C65.132 189.7 66.0795 191.048 67.3761 191.211C67.4592 191.221 67.5424 191.221 67.6255 191.221H112.082C112.082 192.732 111.953 193.974 109.994 193.974Z" fill="#A5D8D6"/>
</svg>
