<svg width="174" height="240" viewBox="0 0 174 240" fill="none" xmlns="http://www.w3.org/2000/svg">
<rect width="174" height="240" fill="none"/>
<path d="M100.252 97.6945C99.4635 95.5218 100.584 93.1181 102.756 92.3257C104.927 91.5333 107.327 92.6523 108.115 94.825L126.8 146.296L118.937 149.166L100.252 97.6945Z" fill="#FF9800"/>
<path d="M118.556 149.27L118.555 149.271L100.158 98.5913C100.156 98.5856 100.155 98.5792 100.153 98.5735L118.556 149.27ZM103.135 92.2099C105.716 91.2682 108.568 92.5984 109.506 95.1808L127.906 145.867L126.775 146.279L108.171 95.0276C107.379 92.8477 105.036 91.6833 102.842 92.327C102.938 92.2851 103.035 92.2462 103.135 92.2099Z" fill="#F49200"/>
<path d="M64.7002 94.8748C65.5489 92.549 68.1236 91.3484 70.4509 92.1932C72.7781 93.038 73.9767 95.6083 73.1279 97.9341L54.5532 148.833L46.1255 145.773L64.7002 94.8748Z" fill="#FF9800"/>
<path d="M70.9509 92.3926C73.3574 93.266 74.5968 95.9242 73.7192 98.3292L55.2051 149.071L54.1525 148.688L72.858 97.4203C73.5982 95.3916 72.625 93.1586 70.6759 92.3029C70.7678 92.33 70.8596 92.3595 70.9509 92.3926Z" fill="#F49200"/>
<path d="M105.055 142.843C105.673 157.225 104.149 224.06 104.149 224.06C104.149 224.06 96.7752 227.777 88.3187 226.113L87.4918 166.937L85.676 226.113C85.676 226.113 76.6909 228.702 69.8832 224.06C69.8832 224.06 67.8242 155.679 69.167 142.876C69.167 142.876 97.9317 142.843 105.055 142.843Z" fill="#8F1D80"/>
<path d="M99.7723 89.7312C100.979 89.7313 103.138 91.1064 103.138 94.0046L104.949 143.058C104.949 144.882 102.971 144.893 102.946 144.893H70.9783C69.8388 144.893 69.0389 144.893 69.0389 143.017L70.8904 93.8679C70.8904 91.2376 72.6832 89.7312 74.6522 89.7312H79.5955C79.5895 89.8948 79.59 90.0563 79.6004 90.2214C79.7909 93.5596 83.0955 96.136 86.9783 95.9666C87.2082 95.9722 87.4382 95.9778 87.6746 95.9666C91.5263 95.8103 94.5051 93.0294 94.4051 89.7312H99.7723Z" fill="#FF9800"/>
<path d="M69.9214 147.36L66.0738 202.488C66.0738 202.488 85.8623 190.937 91.7151 190.097C97.5678 189.257 111.005 179.779 111.005 179.779L105.174 147.36L69.9214 147.36Z" fill="#A4D233"/>
<mask id="mask0_1476_117855" style="mask-type:alpha" maskUnits="userSpaceOnUse" x="60" y="144" width="55" height="59">
<path d="M60.4802 162.053L60.5448 164.593L61.1986 164.571L61.238 166.201L60.5844 166.228L60.649 168.763L63.253 165.301L60.4802 162.053Z" fill="#FFE700"/>
<path d="M64.2905 159.241L62.2231 161.988L64.4254 164.566L66.4928 161.82L64.2905 159.241Z" fill="#FFE700"/>
<path d="M60.3906 158.533L60.4804 162.054L61.8452 160.24L60.3906 158.533Z" fill="#FFE700"/>
<path d="M64.1581 156.929L66.0761 159.178L67.9545 156.683L64.2335 156.83L64.0755 156.835L60.351 156.983L62.3515 159.326L64.1581 156.929Z" fill="#FFE700"/>
<path d="M62.5886 168.687L66.4712 168.535L64.4706 166.193L62.5886 168.687Z" fill="#FFE700"/>
<path d="M68.0837 161.754L65.4798 165.216L68.2561 168.468L70.8637 165.005L68.0837 161.754ZM67.5342 165.955L67.4948 164.325L68.8021 164.275L68.8452 165.906L67.5342 165.955Z" fill="#FFE700"/>
<path d="M71.8967 158.941L69.8293 161.688L72.0317 164.266L74.099 161.519L71.8967 158.941Z" fill="#FFE700"/>
<path d="M67.9973 158.235L66.6281 160.054L68.0868 161.762L69.456 159.943L67.9973 158.235Z" fill="#FFE700"/>
<path d="M71.6792 156.535L67.9547 156.683L69.9588 159.026L71.7618 156.634L73.6798 158.878L75.5618 156.383L71.8372 156.531L71.6792 156.535Z" fill="#FFE700"/>
<path d="M70.1959 168.387L74.0784 168.235L72.0779 165.892L70.1959 168.387Z" fill="#FFE700"/>
<path d="M75.6874 161.453L73.0835 164.916L75.8599 168.168L78.4675 164.705L75.6874 161.453ZM75.1416 165.65L75.0984 164.02L76.4058 163.966L76.4489 165.597L75.1416 165.65Z" fill="#FFE700"/>
<path d="M79.5004 158.644L77.433 161.39L79.6354 163.969L81.7027 161.222L79.5004 158.644Z" fill="#FFE700"/>
<path d="M75.6031 157.936L74.2338 159.755L75.6925 161.462L77.0617 159.643L75.6031 157.936Z" fill="#FFE700"/>
<path d="M79.2864 156.235L75.5619 156.383L77.5625 158.725L79.3655 156.329L81.287 158.578L83.169 156.083L79.4445 156.231L79.2864 156.235Z" fill="#FFE700"/>
<path d="M77.803 168.087L81.682 167.935L79.6814 165.592L77.803 168.087Z" fill="#FFE700"/>
<path d="M83.2947 161.153L80.6907 164.616L83.4671 167.867L86.0746 164.405L83.2947 161.153ZM82.7451 165.35L82.702 163.72L84.0094 163.666L84.0489 165.296L82.7416 165.35H82.7451Z" fill="#FFE700"/>
<path d="M87.1067 158.344L85.0393 161.09L87.2415 163.668L89.3089 160.922L87.1067 158.344Z" fill="#FFE700"/>
<path d="M83.2069 157.634L81.8376 159.453L83.2962 161.161L84.6654 159.342L83.2069 157.634Z" fill="#FFE700"/>
<path d="M86.8897 155.935L83.1687 156.083L85.1693 158.425L86.9723 156.029L88.8938 158.282L90.7722 155.783L87.0477 155.931L86.8897 155.935Z" fill="#FFE700"/>
<path d="M85.4064 167.791L89.289 167.635L87.2849 165.292L85.4064 167.791Z" fill="#FFE700"/>
<path d="M90.8981 160.853L88.2941 164.315L91.0705 167.563L93.678 164.1L90.8981 160.853ZM90.3521 165.05L90.3091 163.42L91.6164 163.366L91.6559 164.996L90.3485 165.05H90.3521Z" fill="#FFE700"/>
<path d="M94.7128 158.049L92.6454 160.796L94.8478 163.374L96.9151 160.627L94.7128 158.049Z" fill="#FFE700"/>
<path d="M90.8094 157.334L89.4402 159.153L90.8988 160.86L92.2679 159.041L90.8094 157.334Z" fill="#FFE700"/>
<path d="M94.4968 155.635L90.7722 155.782L92.7764 158.125L94.5758 155.733L96.4974 157.977L98.3758 155.482L94.6512 155.626L94.4968 155.635Z" fill="#FFE700"/>
<path d="M93.0137 167.487L96.8926 167.335L94.8921 164.992L93.0137 167.487Z" fill="#FFE700"/>
<path d="M98.5017 160.553L95.9014 164.015L98.6777 167.267L101.285 163.805L98.5053 160.553H98.5017ZM97.9558 164.755L97.9127 163.124L99.22 163.075L99.2596 164.705L97.9523 164.755H97.9558Z" fill="#FFE700"/>
<path d="M102.316 157.741L100.249 160.488L102.451 163.066L104.519 160.32L102.316 157.741Z" fill="#FFE700"/>
<path d="M98.4196 157.033L97.0504 158.852L98.5089 160.56L99.8781 158.741L98.4196 157.033Z" fill="#FFE700"/>
<path d="M102.1 155.334L98.3759 155.482L100.38 157.825L102.183 155.428L104.105 157.677L105.983 155.182L102.258 155.33L102.1 155.334Z" fill="#FFE700"/>
<path d="M100.617 167.191L104.496 167.035L102.495 164.692L100.617 167.191Z" fill="#FFE700"/>
<path d="M106.109 160.257L103.501 163.72L106.278 166.972L108.889 163.514L106.109 160.262V160.257ZM105.559 164.45L105.516 162.819L106.823 162.77L106.863 164.401L105.556 164.45H105.559Z" fill="#FFE700"/>
<path d="M109.923 157.441L107.855 160.188L110.058 162.766L112.125 160.019L109.923 157.441Z" fill="#FFE700"/>
<path d="M106.02 156.728L104.651 158.547L106.11 160.255L107.479 158.436L106.02 156.728Z" fill="#FFE700"/>
<path d="M109.704 155.035L105.983 155.182L107.984 157.525L109.79 155.129L111.708 157.377L113.587 154.882L109.866 155.03L109.704 155.035Z" fill="#FFE700"/>
<path d="M108.22 166.887L112.103 166.734L110.102 164.392L108.22 166.887Z" fill="#FFE700"/>
<path d="M113.17 164.15L113.127 162.519L113.781 162.492L113.72 159.953L111.112 163.415L113.885 166.667L113.824 164.123L113.17 164.15Z" fill="#FFE700"/>
<path d="M113.719 159.953L113.626 156.432L112.261 158.246L113.719 159.953Z" fill="#FFE700"/>
<path d="M66.6581 176.454L67.6206 176.418L64.5498 172.822L61.6657 176.656L62.6247 176.616L64.5785 174.022L66.6581 176.454Z" fill="#FFE700"/>
<path d="M60.7462 172.969L60.8396 176.683L63.7237 172.853L60.7462 172.969Z" fill="#FFE700"/>
<path d="M64.6037 175.07L63.4688 176.584L65.8177 176.49L64.6037 175.07Z" fill="#FFE700"/>
<path d="M70.2316 176.316L72.1819 173.722L74.265 176.159L75.2276 176.118L72.1531 172.522L69.269 176.351L70.2316 176.316Z" fill="#FFE700"/>
<path d="M71.3272 172.553L65.3723 172.79L68.4431 176.383L71.3272 172.553Z" fill="#FFE700"/>
<path d="M71.0721 176.28L73.4211 176.19L72.2107 174.77L71.0721 176.28Z" fill="#FFE700"/>
<path d="M72.958 171.801L80.5651 171.505L88.1722 171.205L95.7757 170.905L103.383 170.604L110.986 170.304L113.964 170.183L113.949 169.615L110.972 169.735L103.368 170.036L95.7614 170.336L88.1579 170.636L80.5507 170.936L72.9436 171.236L65.3401 171.536L60.7141 171.72L60.7284 172.284L65.3545 172.105L72.958 171.801Z" fill="#FFE700"/>
<path d="M72.9326 170.774L80.5397 170.474L88.1468 170.174L95.7503 169.874L103.354 169.574L110.961 169.274L113.938 169.157L113.924 168.588L110.947 168.709L103.34 169.005L95.736 169.305L88.1325 169.61L80.5254 169.905L72.9182 170.206L65.3147 170.506L60.6887 170.689L60.703 171.258L65.3291 171.074L72.9326 170.774Z" fill="#FFE700"/>
<path d="M77.8354 176.015L79.7892 173.422L81.8688 175.854L82.8313 175.818L79.7568 172.222L76.8727 176.051L77.8354 176.015Z" fill="#FFE700"/>
<path d="M78.9343 172.253L72.9794 172.49L76.0502 176.087L78.9343 172.253Z" fill="#FFE700"/>
<path d="M78.6791 175.984L81.0281 175.886L79.8142 174.47L78.6791 175.984Z" fill="#FFE700"/>
<path d="M85.4425 175.715L87.3964 173.117L89.4759 175.554L90.4349 175.518L87.364 171.921L84.48 175.755L85.4425 175.715Z" fill="#FFE700"/>
<path d="M86.5378 171.952L80.5828 172.19L83.6573 175.787L86.5378 171.952Z" fill="#FFE700"/>
<path d="M86.2828 175.679L88.6353 175.59L87.4214 174.17L86.2828 175.679Z" fill="#FFE700"/>
<path d="M93.0495 175.415L94.9997 172.822L97.0793 175.254L98.0419 175.218L94.971 171.621L92.0869 175.451L93.0495 175.415Z" fill="#FFE700"/>
<path d="M94.145 171.653L88.1901 171.886L91.2609 175.487L94.145 171.653Z" fill="#FFE700"/>
<path d="M93.8862 175.379L96.2387 175.29L95.0247 173.87L93.8862 175.379Z" fill="#FFE700"/>
<path d="M100.653 175.115L102.607 172.522L104.686 174.954L105.645 174.918L102.574 171.321L99.6902 175.155L100.653 175.115Z" fill="#FFE700"/>
<path d="M101.752 171.353L95.7935 171.59L98.8678 175.187L101.752 171.353Z" fill="#FFE700"/>
<path d="M101.493 175.084L103.846 174.99L102.632 173.57L101.493 175.084Z" fill="#FFE700"/>
<path d="M108.257 174.815L110.21 172.217L112.29 174.653L113.253 174.618L110.182 171.021L107.298 174.85L108.257 174.815Z" fill="#FFE700"/>
<path d="M109.356 171.052L103.397 171.285L106.472 174.882L109.356 171.052Z" fill="#FFE700"/>
<path d="M109.097 174.784L111.45 174.69L110.239 173.27L109.097 174.784Z" fill="#FFE700"/>
<path d="M73.1266 178.345L80.7301 178.045L88.3373 177.745L95.9408 177.444L103.548 177.144L111.151 176.844L114.132 176.728L114.097 175.272L111.115 175.388L103.508 175.688L95.9048 175.988L88.3013 176.289L80.6943 176.589L73.0907 176.889L65.4836 177.189L60.8576 177.373L60.8935 178.828L65.5232 178.645L73.1266 178.345Z" fill="#FFE700"/>
<path d="M114.075 174.586L113.985 170.873L111.004 170.99L114.075 174.586Z" fill="#FFE700"/>
<path d="M60.4802 185.718L60.5448 188.253L61.1986 188.23L61.238 189.861L60.5844 189.888L60.649 192.427L63.253 188.965L60.4802 185.718Z" fill="#FFE700"/>
<path d="M64.2895 182.905L62.2221 185.651L64.4244 188.229L66.4918 185.483L64.2895 182.905Z" fill="#FFE700"/>
<path d="M60.3906 182.192L60.4804 185.717L61.8452 183.899L60.3906 182.192Z" fill="#FFE700"/>
<path d="M64.1581 180.593L66.0761 182.837L67.9545 180.342L64.2335 180.49L64.0755 180.499L60.351 180.642L62.3515 182.985L64.1581 180.593Z" fill="#FFE700"/>
<path d="M62.5886 192.347L66.4712 192.199L64.4706 189.852L62.5886 192.347Z" fill="#FFE700"/>
<path d="M68.0837 185.413L65.4798 188.875L68.2561 192.127L70.8637 188.665L68.0837 185.413ZM67.5342 189.614L67.4948 187.984L68.8021 187.935L68.8452 189.565L67.5342 189.614Z" fill="#FFE700"/>
<path d="M71.896 182.604L69.8287 185.351L72.031 187.929L74.0983 185.182L71.896 182.604Z" fill="#FFE700"/>
<path d="M67.9934 181.896L66.6242 183.715L68.0827 185.422L69.452 183.603L67.9934 181.896Z" fill="#FFE700"/>
<path d="M71.6792 180.194L67.9547 180.342L69.9588 182.689L71.7618 180.293L73.6798 182.542L75.5618 180.042L71.8372 180.19L71.6792 180.194Z" fill="#FFE700"/>
<path d="M70.1959 192.051L74.0784 191.894L72.0779 189.552L70.1959 192.051Z" fill="#FFE700"/>
<path d="M75.6874 185.117L73.0835 188.58L75.8599 191.832L78.4675 188.369L75.6874 185.117ZM75.1416 189.314L75.0984 187.684L76.4058 187.63L76.4489 189.261L75.1416 189.314Z" fill="#FFE700"/>
<path d="M79.5004 182.304L77.433 185.051L79.6354 187.629L81.7027 184.882L79.5004 182.304Z" fill="#FFE700"/>
<path d="M75.5999 181.596L74.2307 183.415L75.6892 185.122L77.0585 183.303L75.5999 181.596Z" fill="#FFE700"/>
<path d="M79.2864 179.894L75.5619 180.042L77.5625 182.385L79.3655 179.993L81.287 182.241L83.169 179.747L79.4445 179.89L79.2864 179.894Z" fill="#FFE700"/>
<path d="M77.803 191.751L81.682 191.598L79.6814 189.251L77.803 191.751Z" fill="#FFE700"/>
<path d="M83.2947 184.817L80.6907 188.28L83.4671 191.532L86.0746 188.069L83.2947 184.817ZM82.7451 189.01L82.702 187.379L84.0094 187.326L84.0489 188.956L82.7416 189.01H82.7451Z" fill="#FFE700"/>
<path d="M87.1094 182.007L85.0421 184.753L87.2442 187.331L89.3116 184.585L87.1094 182.007Z" fill="#FFE700"/>
<path d="M83.2033 181.294L81.8341 183.113L83.2928 184.82L84.662 183.001L83.2033 181.294Z" fill="#FFE700"/>
<path d="M86.8897 179.599L83.1687 179.747L85.1693 182.085L86.9723 179.693L88.8938 181.941L90.7722 179.442L87.0477 179.59L86.8897 179.599Z" fill="#FFE700"/>
<path d="M85.4064 191.446L89.289 191.294L87.2849 188.951L85.4064 191.446Z" fill="#FFE700"/>
<path d="M90.8981 184.512L88.2941 187.975L91.0705 191.222L93.678 187.76L90.8981 184.512ZM90.3521 188.714L90.3091 187.083L91.6164 187.03L91.6559 188.66L90.3485 188.714H90.3521Z" fill="#FFE700"/>
<path d="M94.7095 181.705L92.6422 184.451L94.8445 187.03L96.9118 184.283L94.7095 181.705Z" fill="#FFE700"/>
<path d="M90.8123 180.996L89.4431 182.815L90.9016 184.523L92.2708 182.704L90.8123 180.996Z" fill="#FFE700"/>
<path d="M94.4968 179.298L90.7722 179.442L92.7764 181.789L94.5758 179.392L96.4974 181.641L98.3758 179.142L94.6512 179.289L94.4968 179.298Z" fill="#FFE700"/>
<path d="M93.0137 191.151L96.8926 190.994L94.8921 188.656L93.0137 191.151Z" fill="#FFE700"/>
<path d="M98.5017 184.217L95.9014 187.679L98.6777 190.931L101.285 187.469L98.5053 184.217H98.5017ZM97.9558 188.414L97.9127 186.783L99.22 186.734L99.2596 188.365L97.9523 188.414H97.9558Z" fill="#FFE700"/>
<path d="M102.319 181.405L100.252 184.151L102.454 186.729L104.522 183.983L102.319 181.405Z" fill="#FFE700"/>
<path d="M98.4165 180.699L97.0472 182.519L98.5058 184.226L99.875 182.407L98.4165 180.699Z" fill="#FFE700"/>
<path d="M102.1 178.994L98.3759 179.142L100.38 181.485L102.183 179.093L104.105 181.342L105.983 178.842L102.258 178.99L102.1 178.994Z" fill="#FFE700"/>
<path d="M100.617 190.851L104.496 190.698L102.495 188.351L100.617 190.851Z" fill="#FFE700"/>
<path d="M106.109 183.912L103.501 187.375L106.278 190.627L108.889 187.169L106.109 183.917V183.912ZM105.559 188.114L105.516 186.483L106.823 186.434L106.863 188.064L105.556 188.114H105.559Z" fill="#FFE700"/>
<path d="M109.926 181.104L107.858 183.851L110.06 186.429L112.128 183.683L109.926 181.104Z" fill="#FFE700"/>
<path d="M106.021 180.395L104.652 182.214L106.11 183.922L107.479 182.103L106.021 180.395Z" fill="#FFE700"/>
<path d="M109.704 178.699L105.983 178.842L107.984 181.189L109.79 178.793L111.708 181.037L113.587 178.542L109.866 178.69L109.704 178.699Z" fill="#FFE700"/>
<path d="M108.22 190.55L112.103 190.398L110.102 188.051L108.22 190.55Z" fill="#FFE700"/>
<path d="M113.17 187.814L113.127 186.184L113.781 186.157L113.72 183.617L111.112 187.075L113.885 190.327L113.824 187.787L113.17 187.814Z" fill="#FFE700"/>
<path d="M113.719 183.617L113.626 180.092L112.261 181.91L113.719 183.617Z" fill="#FFE700"/>
<path d="M66.6581 200.118L67.6206 200.078L64.5498 196.481L61.6657 200.315L62.6247 200.275L64.5785 197.682L66.6581 200.118Z" fill="#FFE700"/>
<path d="M60.7462 196.634L60.8396 200.347L63.7237 196.513L60.7462 196.634Z" fill="#FFE700"/>
<path d="M64.6037 198.73L63.4688 200.244L65.8177 200.15L64.6037 198.73Z" fill="#FFE700"/>
<path d="M70.2316 199.975L72.1819 197.382L74.265 199.818L75.2276 199.778L72.1531 196.181L69.269 200.015L70.2316 199.975Z" fill="#FFE700"/>
<path d="M71.3272 196.217L65.3723 196.45L68.4431 200.046L71.3272 196.217Z" fill="#FFE700"/>
<path d="M71.0721 199.943L73.4211 199.849L72.2107 198.429L71.0721 199.943Z" fill="#FFE700"/>
<path d="M72.958 195.464L80.5651 195.164L88.1722 194.864L95.7757 194.564L103.383 194.264L110.986 193.964L113.964 193.847L113.949 193.278L110.972 193.395L103.368 193.695L95.7614 193.999L88.1579 194.295L80.5507 194.595L72.9436 194.895L65.3401 195.196L60.7141 195.379L60.7284 195.944L65.3545 195.764L72.958 195.464Z" fill="#FFE700"/>
<path d="M72.9326 194.434L80.5397 194.138L88.1468 193.838L95.7503 193.534L103.354 193.238L110.961 192.934L113.938 192.817L113.924 192.253L110.947 192.365L103.34 192.669L95.736 192.969L88.1325 193.269L80.5254 193.57L72.9182 193.865L65.3147 194.17L60.6887 194.349L60.703 194.918L65.3291 194.734L72.9326 194.434Z" fill="#FFE700"/>
<path d="M77.8354 199.675L79.7892 197.081L81.8688 199.518L82.8313 199.478L79.7568 195.885L76.8727 199.715L77.8354 199.675Z" fill="#FFE700"/>
<path d="M78.9343 195.917L72.9794 196.15L76.0502 199.746L78.9343 195.917Z" fill="#FFE700"/>
<path d="M78.6791 199.644L81.0281 199.55L79.8142 198.13L78.6791 199.644Z" fill="#FFE700"/>
<path d="M85.4425 199.379L87.3964 196.781L89.4759 199.218L90.4349 199.178L87.364 195.581L84.48 199.41L85.4425 199.379Z" fill="#FFE700"/>
<path d="M86.5378 195.612L80.5828 195.85L83.6573 199.446L86.5378 195.612Z" fill="#FFE700"/>
<path d="M86.2828 199.344L88.6353 199.249L87.4214 197.83L86.2828 199.344Z" fill="#FFE700"/>
<path d="M93.0495 199.074L94.9997 196.481L97.0793 198.913L98.0419 198.877L94.971 195.281L92.0869 199.115L93.0495 199.074Z" fill="#FFE700"/>
<path d="M94.145 195.316L88.1901 195.549L91.2609 199.146L94.145 195.316Z" fill="#FFE700"/>
<path d="M93.8862 199.043L96.2387 198.949L95.0247 197.534L93.8862 199.043Z" fill="#FFE700"/>
<path d="M100.653 198.775L102.607 196.181L104.686 198.618L105.645 198.577L102.574 194.981L99.6902 198.815L100.653 198.775Z" fill="#FFE700"/>
<path d="M101.752 195.012L95.7935 195.249L98.8678 198.846L101.752 195.012Z" fill="#FFE700"/>
<path d="M101.493 198.743L103.846 198.649L102.632 197.229L101.493 198.743Z" fill="#FFE700"/>
<path d="M108.257 198.479L110.21 195.881L112.29 198.318L113.253 198.277L110.182 194.68L107.298 198.515L108.257 198.479Z" fill="#FFE700"/>
<path d="M109.356 194.712L103.397 194.949L106.472 198.546L109.356 194.712Z" fill="#FFE700"/>
<path d="M109.097 198.443L111.45 198.349L110.239 196.934L109.097 198.443Z" fill="#FFE700"/>
<path d="M73.1266 202.004L80.7301 201.704L88.3373 201.404L95.9408 201.108L103.548 200.808L111.151 200.504L114.132 200.387L114.097 198.931L111.115 199.048L103.508 199.348L95.9048 199.648L88.3013 199.948L80.6943 200.253L73.0907 200.548L65.4836 200.848L60.8576 201.032L60.8935 202.488L65.5232 202.304L73.1266 202.004Z" fill="#FFE700"/>
<path d="M114.075 198.246L113.985 194.528L111.004 194.649L114.075 198.246Z" fill="#FFE700"/>
<path d="M66.0582 152.759L67.0208 152.723L63.9463 149.126L61.0622 152.956L62.0248 152.92L63.9787 150.327L66.0582 152.759Z" fill="#FFE700"/>
<path d="M60.1465 149.278L60.2399 152.992L63.1203 149.157L60.1465 149.278Z" fill="#FFE700"/>
<path d="M64.004 151.375L62.8654 152.885L65.2144 152.795L64.004 151.375Z" fill="#FFE700"/>
<path d="M69.632 152.62L71.5823 150.022L73.6654 152.459L74.6244 152.423L71.55 148.826L68.6695 152.656L69.632 152.62Z" fill="#FFE700"/>
<path d="M70.7273 148.858L64.7723 149.095L67.8432 152.692L70.7273 148.858Z" fill="#FFE700"/>
<path d="M70.4723 152.589L72.8212 152.49L71.6072 151.075L70.4723 152.589Z" fill="#FFE700"/>
<path d="M72.3584 148.11L79.9655 147.81L87.569 147.505L95.176 147.209L102.78 146.905L110.387 146.605L113.364 146.493L113.35 145.924L110.372 146.04L102.765 146.341L95.1618 146.641L87.5582 146.936L79.9511 147.241L72.344 147.541L64.7404 147.841L60.1108 148.02L60.1252 148.589L64.7512 148.406L72.3584 148.11Z" fill="#FFE700"/>
<path d="M72.3328 147.079L79.9398 146.779L87.5433 146.479L95.1469 146.179L102.754 145.879L110.361 145.579L113.339 145.462L113.324 144.893L110.343 145.01L102.74 145.314L95.1361 145.61L87.529 145.91L79.9255 146.21L72.3184 146.51L64.7149 146.811L60.0888 146.994L60.0996 147.563L64.7257 147.379L72.3328 147.079Z" fill="#FFE700"/>
<path d="M77.2354 152.32L79.1893 149.722L81.2688 152.159L82.2279 152.123L79.157 148.526L76.2729 152.356L77.2354 152.32Z" fill="#FFE700"/>
<path d="M78.3346 148.558L72.376 148.791L75.4505 152.387L78.3346 148.558Z" fill="#FFE700"/>
<path d="M78.076 152.284L80.425 152.195L79.2146 150.775L78.076 152.284Z" fill="#FFE700"/>
<path d="M84.8426 152.02L86.7929 149.426L88.876 151.863L89.835 151.818L86.7641 148.226L83.88 152.056L84.8426 152.02Z" fill="#FFE700"/>
<path d="M85.9379 148.257L79.983 148.49L83.0574 152.092L85.9379 148.257Z" fill="#FFE700"/>
<path d="M85.683 151.984L88.0319 151.894L86.8215 150.474L85.683 151.984Z" fill="#FFE700"/>
<path d="M92.4459 151.72L94.3998 149.126L96.4793 151.558L97.4419 151.523L94.3674 147.926L91.4834 151.76L92.4459 151.72Z" fill="#FFE700"/>
<path d="M93.5452 147.962L87.5867 148.195L90.6611 151.791L93.5452 147.962Z" fill="#FFE700"/>
<path d="M93.2864 151.688L95.6389 151.594L94.425 150.175L93.2864 151.688Z" fill="#FFE700"/>
<path d="M100.05 151.42L102.004 148.826L104.083 151.263L105.046 151.222L101.975 147.626L99.0908 151.455L100.05 151.42Z" fill="#FFE700"/>
<path d="M101.149 147.657L95.1939 147.895L98.2648 151.487L101.149 147.657Z" fill="#FFE700"/>
<path d="M100.894 151.384L103.243 151.294L102.032 149.874L100.894 151.384Z" fill="#FFE700"/>
<path d="M107.657 151.119L109.607 148.526L111.69 150.958L112.653 150.922L109.578 147.326L106.694 151.155L107.657 151.119Z" fill="#FFE700"/>
<path d="M108.752 147.357L102.797 147.594L105.868 151.191L108.752 147.357Z" fill="#FFE700"/>
<path d="M108.497 151.088L110.846 150.994L109.636 149.574L108.497 151.088Z" fill="#FFE700"/>
<path d="M72.5236 154.649L80.1307 154.349L87.7342 154.049L95.3414 153.749L102.948 153.449L110.552 153.149L113.529 153.032L113.493 151.576L110.516 151.693L102.909 151.993L95.3018 152.293L87.6984 152.593L80.0948 152.893L72.4913 153.189L64.8842 153.494L60.2581 153.677L60.2941 155.133L64.9201 154.949L72.5236 154.649Z" fill="#FFE700"/>
<path d="M113.475 150.891L113.382 147.173L110.404 147.294L113.475 150.891Z" fill="#FFE700"/>
</mask>
<g mask="url(#mask0_1476_117855)">
<path d="M69.7813 147.36L65.9337 202.488C65.9337 202.488 85.7221 190.937 91.5749 190.097C97.4277 189.257 110.865 179.778 110.865 179.778L105.034 147.36L69.7813 147.36Z" fill="#FFE700"/>
</g>
<path d="M69.7813 147.36L65.9337 202.488C65.9337 202.488 85.7221 190.937 91.5749 190.097C97.4277 189.257 110.865 179.778 110.865 179.778L105.034 147.36L69.7813 147.36Z" fill="#111111" fill-opacity="0.2"/>
<path d="M68.6854 147.31L61.4324 210.984L104.038 189.994L97.4232 147.393L68.6854 147.31Z" fill="#A4D233"/>
<mask id="mask1_1476_117855" style="mask-type:alpha" maskUnits="userSpaceOnUse" x="52" y="147" width="63" height="64">
<path d="M52.7155 165.84L52.7896 168.616L53.5387 168.586L53.584 170.373L52.839 170.403L52.9089 173.174L55.8929 169.389L52.7155 165.84Z" fill="#FFE700"/>
<path d="M57.0804 162.768L54.7113 165.771L57.235 168.589L59.6041 165.587L57.0804 162.768Z" fill="#FFE700"/>
<path d="M52.6128 161.991L52.7157 165.84L54.2839 163.852L52.6128 161.991Z" fill="#FFE700"/>
<path d="M56.9306 160.239L59.1285 162.697L61.2811 159.969L57.017 160.131L56.836 160.136L52.5679 160.292L54.8603 162.858L56.9306 160.239Z" fill="#FFE700"/>
<path d="M55.1317 173.091L59.5808 172.925L57.2884 170.364L55.1317 173.091Z" fill="#FFE700"/>
<path d="M61.4289 165.512L58.4449 169.297L61.6264 172.851L64.6145 169.067L61.4289 165.512ZM60.7992 170.105L60.7539 168.322L62.2521 168.268L62.3015 170.051L60.7992 170.105Z" fill="#FFE700"/>
<path d="M65.7939 162.439L63.4248 165.441L65.9485 168.259L68.3176 165.257L65.7939 162.439Z" fill="#FFE700"/>
<path d="M61.3282 161.67L59.7591 163.658L61.4306 165.525L62.9997 163.536L61.3282 161.67Z" fill="#FFE700"/>
<path d="M65.549 159.808L61.2809 159.969L63.5776 162.53L65.6436 159.91L67.8415 162.368L69.9982 159.641L65.7301 159.798L65.549 159.808Z" fill="#FFE700"/>
<path d="M63.8492 172.763L68.2984 172.596L66.0059 170.036L63.8492 172.763Z" fill="#FFE700"/>
<path d="M70.1423 165.184L67.1583 168.968L70.3399 172.523L73.328 168.738L70.1423 165.184ZM69.5167 169.771L69.4673 167.989L70.9655 167.93L71.0148 169.713L69.5167 169.771Z" fill="#FFE700"/>
<path d="M74.5106 162.11L72.1415 165.113L74.6651 167.931L77.0342 164.928L74.5106 162.11Z" fill="#FFE700"/>
<path d="M70.0458 161.333L68.4767 163.321L70.1481 165.188L71.7172 163.199L70.0458 161.333Z" fill="#FFE700"/>
<path d="M74.2662 159.48L69.998 159.641L72.2906 162.202L74.3568 159.583L76.5587 162.04L78.7154 159.308L74.4473 159.475L74.2662 159.48Z" fill="#FFE700"/>
<path d="M72.5668 172.435L77.0119 172.268L74.7194 169.703L72.5668 172.435Z" fill="#FFE700"/>
<path d="M78.8599 164.856L75.8759 168.641L79.0575 172.195L82.0456 168.411L78.8599 164.856ZM78.2302 169.444L78.1808 167.661L79.679 167.603L79.7243 169.385L78.2261 169.444H78.2302Z" fill="#FFE700"/>
<path d="M83.2268 161.782L80.8578 164.784L83.3814 167.602L85.7504 164.6L83.2268 161.782Z" fill="#FFE700"/>
<path d="M78.7547 161.003L77.1857 162.991L78.8573 164.858L80.4263 162.87L78.7547 161.003Z" fill="#FFE700"/>
<path d="M82.9796 159.152L78.7156 159.309L81.0081 161.874L83.0743 159.255L85.2763 161.712L87.4289 158.985L83.1607 159.147L82.9796 159.152Z" fill="#FFE700"/>
<path d="M81.2798 172.107L85.7291 171.94L83.4325 169.38L81.2798 172.107Z" fill="#FFE700"/>
<path d="M87.5729 164.528L84.5889 168.313L87.7705 171.862L90.7586 168.078L87.5729 164.528ZM86.9473 169.116L86.898 167.333L88.3961 167.275L88.4414 169.057L86.9432 169.116H86.9473Z" fill="#FFE700"/>
<path d="M91.9444 161.452L89.5753 164.454L92.0991 167.273L94.4681 164.27L91.9444 161.452Z" fill="#FFE700"/>
<path d="M87.4743 160.678L85.9052 162.667L87.5766 164.533L89.1457 162.545L87.4743 160.678Z" fill="#FFE700"/>
<path d="M91.6968 158.824L87.4287 158.985L89.7253 161.546L91.7873 158.926L93.9894 161.384L96.1419 158.657L91.8739 158.814L91.6968 158.824Z" fill="#FFE700"/>
<path d="M89.9969 171.779L94.4421 171.613L92.1495 169.047L89.9969 171.779Z" fill="#FFE700"/>
<path d="M96.286 164.2L93.3061 167.984L96.4876 171.539L99.4758 167.755L96.2901 164.2H96.286ZM95.6603 168.788L95.6109 167.005L97.1091 166.951L97.1544 168.734L95.6562 168.788H95.6603Z" fill="#FFE700"/>
<path d="M100.66 161.124L98.2913 164.126L100.815 166.945L103.184 163.942L100.66 161.124Z" fill="#FFE700"/>
<path d="M96.1891 160.35L94.62 162.338L96.2914 164.205L97.8605 162.216L96.1891 160.35Z" fill="#FFE700"/>
<path d="M100.414 158.495L96.1422 158.657L98.4388 161.218L100.505 158.598L102.707 161.056L104.86 158.329L100.591 158.49L100.414 158.495Z" fill="#FFE700"/>
<path d="M98.7104 171.451L103.156 171.285L100.863 168.724L98.7104 171.451Z" fill="#FFE700"/>
<path d="M105.004 163.872L102.016 167.656L105.197 171.211L108.189 167.431L105.004 163.876V163.872ZM104.378 168.459L104.329 166.677L105.827 166.623L105.872 168.405L104.374 168.459H104.378Z" fill="#FFE700"/>
<path d="M109.377 160.795L107.008 163.798L109.532 166.616L111.901 163.614L109.377 160.795Z" fill="#FFE700"/>
<path d="M104.901 160.028L103.332 162.017L105.004 163.883L106.573 161.895L104.901 160.028Z" fill="#FFE700"/>
<path d="M109.128 158.168L104.859 158.329L107.152 160.89L109.218 158.27L111.42 160.728L113.573 158.001L109.309 158.163L109.128 158.168Z" fill="#FFE700"/>
<path d="M107.424 171.123L111.873 170.956L109.58 168.396L107.424 171.123Z" fill="#FFE700"/>
<path d="M113.095 168.131L113.046 166.344L113.795 166.32L113.725 163.543L110.737 167.328L113.918 170.878L113.844 168.102L113.095 168.131Z" fill="#FFE700"/>
<path d="M113.725 163.544L113.618 159.69L112.054 161.678L113.725 163.544Z" fill="#FFE700"/>
<path d="M59.7951 181.581L60.8982 181.542L57.3791 177.61L54.0741 181.802L55.173 181.753L57.412 178.918L59.7951 181.581Z" fill="#FFE700"/>
<path d="M53.0204 177.772L53.1274 181.831L56.4324 177.644L53.0204 177.772Z" fill="#FFE700"/>
<path d="M57.4448 180.068L56.1401 181.718L58.8319 181.616L57.4448 180.068Z" fill="#FFE700"/>
<path d="M63.8901 181.429L66.1251 178.59L68.5123 181.253L69.6153 181.214L66.0922 177.282L62.7871 181.469L63.8901 181.429Z" fill="#FFE700"/>
<path d="M65.1456 177.317L58.3216 177.571L61.8406 181.503L65.1456 177.317Z" fill="#FFE700"/>
<path d="M64.8535 181.39L67.5453 181.292L66.1582 179.735L64.8535 181.39Z" fill="#FFE700"/>
<path d="M67.0184 176.494L75.7317 176.166L84.4491 175.843L93.1624 175.51L101.88 175.186L110.593 174.858L114.005 174.726L113.989 174.104L110.581 174.236L101.863 174.564L93.1459 174.892L84.4326 175.221L75.7153 175.549L67.002 175.877L58.2846 176.205L52.9833 176.406L52.9998 177.022L58.3011 176.827L67.0184 176.494Z" fill="#FFE700"/>
<path d="M66.9854 175.373L75.7029 175.044L84.4202 174.716L93.1334 174.388L101.851 174.06L110.564 173.732L113.976 173.605L113.96 172.983L110.548 173.111L101.834 173.439L93.117 173.767L84.4037 174.095L75.6864 174.423L66.969 174.751L58.2557 175.079L52.9545 175.279L52.971 175.901L58.2722 175.701L66.9854 175.373Z" fill="#FFE700"/>
<path d="M72.6036 181.102L74.8426 178.267L77.2257 180.926L78.3287 180.882L74.8097 176.95L71.5006 181.141L72.6036 181.102Z" fill="#FFE700"/>
<path d="M73.8628 176.988L67.0387 177.248L70.5578 181.179L73.8628 176.988Z" fill="#FFE700"/>
<path d="M73.5706 181.062L76.2624 180.959L74.8713 179.412L73.5706 181.062Z" fill="#FFE700"/>
<path d="M81.3208 180.773L83.5598 177.933L85.9429 180.597L87.0459 180.558L83.5228 176.626L80.2178 180.812L81.3208 180.773Z" fill="#FFE700"/>
<path d="M82.5762 176.661L75.7562 176.915L79.2752 180.847L82.5762 176.661Z" fill="#FFE700"/>
<path d="M82.2881 180.734L84.9799 180.636L83.5887 179.084L82.2881 180.734Z" fill="#FFE700"/>
<path d="M90.0383 180.445L92.2732 177.61L94.6604 180.269L95.7594 180.23L92.2403 176.298L88.9352 180.485L90.0383 180.445Z" fill="#FFE700"/>
<path d="M91.2937 176.333L84.4696 176.587L87.9887 180.519L91.2937 176.333Z" fill="#FFE700"/>
<path d="M91.0017 180.406L93.6935 180.308L92.3023 178.756L91.0017 180.406Z" fill="#FFE700"/>
<path d="M98.7515 180.117L100.99 177.277L103.374 179.941L104.472 179.902L100.953 175.965L97.6484 180.156L98.7515 180.117Z" fill="#FFE700"/>
<path d="M100.011 176.004L93.1828 176.264L96.706 180.196L100.011 176.004Z" fill="#FFE700"/>
<path d="M99.7148 180.082L102.411 179.975L101.02 178.427L99.7148 180.082Z" fill="#FFE700"/>
<path d="M107.465 179.784L109.704 176.949L112.087 179.613L113.19 179.573L109.671 175.642L106.366 179.828L107.465 179.784Z" fill="#FFE700"/>
<path d="M108.724 175.676L101.896 175.931L105.419 179.863L108.724 175.676Z" fill="#FFE700"/>
<path d="M108.428 179.75L111.124 179.652L109.737 178.1L108.428 179.75Z" fill="#FFE700"/>
<path d="M67.2079 183.647L75.9253 183.319L84.6385 182.991L93.3518 182.663L102.069 182.335L110.782 182.007L114.199 181.875L114.153 180.283L110.741 180.416L102.024 180.739L93.3107 181.072L84.5973 181.4L75.88 181.728L67.1668 182.056L58.4493 182.379L53.1481 182.58L53.1892 184.176L58.4946 183.975L67.2079 183.647Z" fill="#FFE700"/>
<path d="M114.133 179.535L114.03 175.476L110.613 175.603L114.133 179.535Z" fill="#FFE700"/>
<path d="M52.7155 191.707L52.7896 194.478L53.5387 194.449L53.584 196.236L52.839 196.265L52.9089 199.036L55.8929 195.257L52.7155 191.707Z" fill="#FFE700"/>
<path d="M57.0795 188.629L54.7104 191.631L57.2342 194.45L59.6032 191.447L57.0795 188.629Z" fill="#FFE700"/>
<path d="M52.6128 187.853L52.7157 191.707L54.2839 189.719L52.6128 187.853Z" fill="#FFE700"/>
<path d="M56.9306 186.105L59.1285 188.558L61.2811 185.831L57.017 185.987L56.836 185.997L52.5679 186.159L54.8603 188.72L56.9306 186.105Z" fill="#FFE700"/>
<path d="M55.1317 198.953L59.5808 198.787L57.2884 196.226L55.1317 198.953Z" fill="#FFE700"/>
<path d="M61.4289 191.374L58.4449 195.158L61.6264 198.713L64.6145 194.928L61.4289 191.374ZM60.7992 195.966L60.7539 194.184L62.2521 194.13L62.3015 195.912L60.7992 195.966Z" fill="#FFE700"/>
<path d="M65.7942 188.301L63.4252 191.303L65.9489 194.122L68.318 191.119L65.7942 188.301Z" fill="#FFE700"/>
<path d="M61.3282 187.532L59.7591 189.52L61.4305 191.387L62.9996 189.398L61.3282 187.532Z" fill="#FFE700"/>
<path d="M65.549 185.67L61.2809 185.831L63.5776 188.392L65.6436 185.772L67.8415 188.235L69.9982 185.503L65.7301 185.665L65.549 185.67Z" fill="#FFE700"/>
<path d="M63.8492 198.63L68.2984 198.459L66.0059 195.898L63.8492 198.63Z" fill="#FFE700"/>
<path d="M70.1423 191.051L67.1583 194.836L70.3399 198.39L73.328 194.605L70.1423 191.051ZM69.5167 195.638L69.4673 193.856L70.9655 193.798L71.0148 195.58L69.5167 195.638Z" fill="#FFE700"/>
<path d="M74.5138 187.976L72.1447 190.978L74.6683 193.796L77.0374 190.794L74.5138 187.976Z" fill="#FFE700"/>
<path d="M70.0417 187.202L68.4726 189.19L70.1441 191.057L71.7132 189.069L70.0417 187.202Z" fill="#FFE700"/>
<path d="M74.2662 185.342L69.998 185.503L72.2906 188.064L74.3568 185.444L76.5587 187.907L78.7154 185.175L74.4473 185.337L74.2662 185.342Z" fill="#FFE700"/>
<path d="M72.5668 198.302L77.0119 198.131L74.7194 195.57L72.5668 198.302Z" fill="#FFE700"/>
<path d="M78.8599 190.718L75.8759 194.502L79.0575 198.057L82.0456 194.272L78.8599 190.718ZM78.2302 195.305L78.1808 193.523L79.679 193.464L79.7243 195.247L78.2261 195.305H78.2302Z" fill="#FFE700"/>
<path d="M83.2229 187.651L80.8539 190.653L83.3776 193.472L85.7467 190.469L83.2229 187.651Z" fill="#FFE700"/>
<path d="M78.7579 186.869L77.1889 188.857L78.8605 190.724L80.4295 188.735L78.7579 186.869Z" fill="#FFE700"/>
<path d="M82.9796 185.018L78.7156 185.175L81.0081 187.736L83.0743 185.121L85.2763 187.574L87.4289 184.847L83.1607 185.009L82.9796 185.018Z" fill="#FFE700"/>
<path d="M81.2798 197.969L85.7291 197.802L83.4325 195.241L81.2798 197.969Z" fill="#FFE700"/>
<path d="M87.5729 190.389L84.5889 194.174L87.7705 197.724L90.7586 193.939L87.5729 190.389ZM86.9473 194.982L86.898 193.2L88.3961 193.141L88.4414 194.923L86.9432 194.982H86.9473Z" fill="#FFE700"/>
<path d="M91.9403 187.315L89.5713 190.317L92.0949 193.135L94.4639 190.133L91.9403 187.315Z" fill="#FFE700"/>
<path d="M87.4715 186.544L85.9024 188.532L87.5738 190.399L89.1429 188.411L87.4715 186.544Z" fill="#FFE700"/>
<path d="M91.6968 184.685L87.4287 184.847L89.7253 187.412L91.7873 184.788L93.9894 187.251L96.1419 184.519L91.8739 184.68L91.6968 184.685Z" fill="#FFE700"/>
<path d="M89.9969 197.646L94.4421 197.474L92.1495 194.914L89.9969 197.646Z" fill="#FFE700"/>
<path d="M96.286 190.066L93.3061 193.851L96.4876 197.406L99.4758 193.621L96.2901 190.066H96.286ZM95.6603 194.649L95.6109 192.867L97.1091 192.813L97.1544 194.595L95.6562 194.649H95.6603Z" fill="#FFE700"/>
<path d="M100.657 186.986L98.2877 189.989L100.811 192.807L103.18 189.804L100.657 186.986Z" fill="#FFE700"/>
<path d="M96.1882 186.215L94.6191 188.204L96.2905 190.07L97.8596 188.082L96.1882 186.215Z" fill="#FFE700"/>
<path d="M100.414 184.358L96.1422 184.519L98.4388 187.08L100.505 184.461L102.707 186.919L104.86 184.191L100.591 184.353L100.414 184.358Z" fill="#FFE700"/>
<path d="M98.7104 197.313L103.156 197.146L100.863 194.585L98.7104 197.313Z" fill="#FFE700"/>
<path d="M105.004 189.733L102.016 193.518L105.197 197.073L108.189 193.293L105.004 189.738V189.733ZM104.378 194.321L104.329 192.539L105.827 192.485L105.872 194.267L104.374 194.321H104.378Z" fill="#FFE700"/>
<path d="M109.373 186.665L107.004 189.667L109.528 192.485L111.897 189.483L109.373 186.665Z" fill="#FFE700"/>
<path d="M104.902 185.891L103.333 187.879L105.004 189.746L106.573 187.758L104.902 185.891Z" fill="#FFE700"/>
<path d="M109.128 184.035L104.859 184.191L107.152 186.752L109.218 184.137L111.42 186.59L113.573 183.863L109.309 184.025L109.128 184.035Z" fill="#FFE700"/>
<path d="M107.424 196.985L111.873 196.818L109.58 194.258L107.424 196.985Z" fill="#FFE700"/>
<path d="M113.095 193.998L113.046 192.211L113.795 192.186L113.725 189.405L110.737 193.19L113.918 196.745L113.844 193.969L113.095 193.998Z" fill="#FFE700"/>
<path d="M113.725 189.405L113.618 185.557L112.054 187.545L113.725 189.405Z" fill="#FFE700"/>
<path d="M59.7951 207.448L60.8982 207.404L57.3791 203.472L54.0741 207.659L55.173 207.62L57.412 204.785L59.7951 207.448Z" fill="#FFE700"/>
<path d="M53.0204 203.639L53.1274 207.697L56.4324 203.506L53.0204 203.639Z" fill="#FFE700"/>
<path d="M57.4448 205.93L56.1401 207.581L58.8319 207.482L57.4448 205.93Z" fill="#FFE700"/>
<path d="M63.8901 207.292L66.1251 204.457L68.5123 207.115L69.6153 207.076L66.0922 203.144L62.7871 207.336L63.8901 207.292Z" fill="#FFE700"/>
<path d="M65.1456 203.184L58.3216 203.438L61.8406 207.37L65.1456 203.184Z" fill="#FFE700"/>
<path d="M64.8535 207.257L67.5453 207.154L66.1582 205.602L64.8535 207.257Z" fill="#FFE700"/>
<path d="M67.0184 202.361L75.7317 202.033L84.4491 201.705L93.1624 201.377L101.88 201.049L110.593 200.721L114.005 200.594L113.989 199.972L110.581 200.099L101.863 200.427L93.1459 200.755L84.4326 201.083L75.7153 201.411L67.002 201.739L58.2846 202.067L52.9833 202.268L52.9998 202.885L58.3011 202.684L67.0184 202.361Z" fill="#FFE700"/>
<path d="M66.9854 201.235L75.7029 200.912L84.4202 200.579L93.1334 200.251L101.851 199.922L110.564 199.594L113.976 199.467L113.96 198.845L110.548 198.973L101.834 199.306L93.117 199.629L84.4037 199.957L75.6864 200.29L66.969 200.613L58.2557 200.946L52.9545 201.142L52.971 201.764L58.2722 201.563L66.9854 201.235Z" fill="#FFE700"/>
<path d="M72.6036 206.963L74.8426 204.123L77.2257 206.792L78.3287 206.748L74.8097 202.816L71.5006 207.007L72.6036 206.963Z" fill="#FFE700"/>
<path d="M73.8628 202.85L67.0387 203.11L70.5578 207.042L73.8628 202.85Z" fill="#FFE700"/>
<path d="M73.5706 206.924L76.2624 206.826L74.8713 205.274L73.5706 206.924Z" fill="#FFE700"/>
<path d="M81.3208 206.635L83.5598 203.8L85.9429 206.464L87.0459 206.42L83.5228 202.488L80.2178 206.674L81.3208 206.635Z" fill="#FFE700"/>
<path d="M82.5762 202.522L75.7562 202.782L79.2752 206.714L82.5762 202.522Z" fill="#FFE700"/>
<path d="M82.2881 206.596L84.9799 206.498L83.5887 204.946L82.2881 206.596Z" fill="#FFE700"/>
<path d="M90.0383 206.307L92.2732 203.472L94.6604 206.131L95.7594 206.091L92.2403 202.16L88.9352 206.351L90.0383 206.307Z" fill="#FFE700"/>
<path d="M91.2937 202.194L84.4696 202.453L87.9887 206.385L91.2937 202.194Z" fill="#FFE700"/>
<path d="M91.0017 206.273L93.6935 206.17L92.3023 204.618L91.0017 206.273Z" fill="#FFE700"/>
<path d="M98.7515 205.979L100.99 203.144L103.374 205.808L104.472 205.764L100.953 201.832L97.6484 206.018L98.7515 205.979Z" fill="#FFE700"/>
<path d="M100.011 201.867L93.1828 202.126L96.706 206.053L100.011 201.867Z" fill="#FFE700"/>
<path d="M99.7148 205.945L102.411 205.842L101.02 204.29L99.7148 205.945Z" fill="#FFE700"/>
<path d="M107.465 205.651L109.704 202.816L112.087 205.48L113.19 205.436L109.671 201.504L106.366 205.69L107.465 205.651Z" fill="#FFE700"/>
<path d="M108.724 201.539L101.896 201.798L105.419 205.73L108.724 201.539Z" fill="#FFE700"/>
<path d="M108.428 205.617L111.124 205.514L109.737 203.962L108.428 205.617Z" fill="#FFE700"/>
<path d="M67.2079 209.509L75.9253 209.181L84.6385 208.853L93.3518 208.525L102.069 208.197L110.782 207.869L114.199 207.742L114.153 206.151L110.741 206.278L102.024 206.606L93.3107 206.934L84.5973 207.262L75.88 207.59L67.1668 207.918L58.4493 208.246L53.1481 208.447L53.1892 210.038L58.4946 209.837L67.2079 209.509Z" fill="#FFE700"/>
<path d="M114.133 205.401L114.03 201.338L110.613 201.47L114.133 205.401Z" fill="#FFE700"/>
<path d="M59.1077 155.68L60.2108 155.636L56.6876 151.705L53.3826 155.896L54.4857 155.857L56.7247 153.022L59.1077 155.68Z" fill="#FFE700"/>
<path d="M52.3331 151.871L52.4401 155.93L55.741 151.739L52.3331 151.871Z" fill="#FFE700"/>
<path d="M56.7537 154.167L55.449 155.817L58.1407 155.719L56.7537 154.167Z" fill="#FFE700"/>
<path d="M63.2028 155.528L65.4377 152.689L67.8249 155.352L68.928 155.313L65.4048 151.376L62.0956 155.568L63.2028 155.528Z" fill="#FFE700"/>
<path d="M64.4583 151.416L57.6342 151.675L61.1532 155.602L64.4583 151.416Z" fill="#FFE700"/>
<path d="M64.1661 155.494L66.8579 155.386L65.4667 153.839L64.1661 155.494Z" fill="#FFE700"/>
<path d="M66.3278 150.593L75.0452 150.265L83.7584 149.937L92.4758 149.613L101.193 149.281L109.906 148.952L113.318 148.825L113.302 148.203L109.89 148.331L101.177 148.664L92.4594 148.992L83.7461 149.315L75.0287 149.648L66.3113 149.976L57.5981 150.299L52.2968 150.5L52.3092 151.122L57.6145 150.921L66.3278 150.593Z" fill="#FFE700"/>
<path d="M66.298 149.467L75.0154 149.144L83.7287 148.816L92.4461 148.488L101.159 148.16L109.877 147.832L113.289 147.704L113.272 147.082L109.856 147.21L101.143 147.538L92.4296 147.866L83.7163 148.194L74.999 148.522L66.2815 148.85L57.5683 149.178L52.267 149.379L52.2794 149.996L57.5807 149.8L66.298 149.467Z" fill="#FFE700"/>
<path d="M71.9162 155.195L74.1553 152.36L76.5384 155.024L77.6414 154.985L74.1182 151.053L70.8132 155.239L71.9162 155.195Z" fill="#FFE700"/>
<path d="M73.1754 151.088L66.3472 151.342L69.8703 155.274L73.1754 151.088Z" fill="#FFE700"/>
<path d="M72.8831 155.161L75.5708 155.063L74.1837 153.506L72.8831 155.161Z" fill="#FFE700"/>
<path d="M80.6338 154.872L82.8687 152.037L85.2559 154.696L86.3548 154.652L82.8357 150.725L79.5307 154.911L80.6338 154.872Z" fill="#FFE700"/>
<path d="M81.8888 150.76L75.0647 151.014L78.5879 154.946L81.8888 150.76Z" fill="#FFE700"/>
<path d="M89.3469 154.544L91.5859 151.704L93.969 154.368L95.072 154.329L91.5489 150.397L88.2438 154.583L89.3469 154.544Z" fill="#FFE700"/>
<path d="M90.6065 150.431L83.7783 150.691L87.3015 154.623L90.6065 150.431Z" fill="#FFE700"/>
<path d="M90.3098 154.505L93.0057 154.402L91.6144 152.855L90.3098 154.505Z" fill="#FFE700"/>
<path d="M98.0598 154.211L100.299 151.376L102.682 154.039L103.785 154L100.266 150.069L96.9609 154.255L98.0598 154.211Z" fill="#FFE700"/>
<path d="M99.3195 150.103L92.4954 150.358L96.0145 154.29L99.3195 150.103Z" fill="#FFE700"/>
<path d="M99.0273 154.177L101.719 154.079L100.332 152.527L99.0273 154.177Z" fill="#FFE700"/>
<path d="M106.777 153.888L109.012 151.053L111.399 153.712L112.502 153.668L108.983 149.736L105.674 153.927L106.777 153.888Z" fill="#FFE700"/>
<path d="M108.037 149.775L101.209 150.03L104.728 153.966L108.037 149.775Z" fill="#FFE700"/>
<path d="M107.741 153.849L110.437 153.751L109.046 152.199L107.741 153.849Z" fill="#FFE700"/>
<path d="M66.5206 157.747L75.2338 157.418L83.9472 157.09L92.6645 156.762L101.382 156.434L110.095 156.101L113.507 155.979L113.466 154.383L110.054 154.51L101.337 154.843L92.6233 155.166L83.906 155.499L75.1927 155.827L66.4794 156.15L57.762 156.483L52.4609 156.679L52.502 158.27L57.8032 158.075L66.5206 157.747Z" fill="#FFE700"/>
<path d="M113.445 153.633L113.338 149.574L109.926 149.702L113.445 153.633Z" fill="#FFE700"/>
</mask>
<g mask="url(#mask1_1476_117855)">
<path d="M68.9629 147.31L62.0825 210.327L102.499 189.553L96.2243 147.392L68.9629 147.31Z" fill="#FFE700"/>
</g>
<path d="M105.079 142.843H69.0562L68.6683 149.332L105.502 149.165L105.079 142.843Z" fill="#DB307A"/>
</svg>
