<svg width="174" height="240" viewBox="0 0 174 240" fill="none" xmlns="http://www.w3.org/2000/svg">
<rect width="174" height="240" fill="none"/>
<path d="M100.436 98.4983C99.5615 96.0895 100.804 93.4245 103.212 92.546C105.619 91.6675 108.279 92.9081 109.154 95.3169L129.521 151.423L120.803 154.604L100.436 98.4983Z" fill="#942483"/>
<path d="M128.848 160.411C128.838 160.414 128.827 160.418 128.817 160.421L128.882 160.397C128.871 160.402 128.859 160.407 128.848 160.411ZM104.109 92.2619C106.642 91.3379 109.44 92.6423 110.36 95.1758L130.606 150.949L129.34 151.409L108.909 95.128C108.109 92.9223 105.689 91.7763 103.48 92.543C103.68 92.4362 103.89 92.3419 104.109 92.2619Z" fill="#A5D8D6"/>
<path d="M64.9623 95.1132C65.8674 92.6331 68.6129 91.3528 71.0946 92.2537C73.5762 93.1545 74.8543 95.8954 73.9492 98.3755L53.52 154.355L44.5332 151.093L64.9623 95.1132Z" fill="#942483"/>
<path d="M71.6449 92.4543C74.1786 93.3741 75.4837 96.173 74.5597 98.7052L54.123 154.706L53.0135 154.302L73.6525 97.7483C74.4324 95.6113 73.4062 93.2594 71.3521 92.3592C71.4499 92.388 71.5478 92.4191 71.6449 92.4543Z" fill="#A5D8D6"/>
<path d="M68.5001 155.923H84.2866V224.171C84.2866 228.697 80.755 232.361 76.3934 232.361C72.0318 232.361 68.5001 229.615 68.5001 224.171V155.923Z" fill="#DB307A"/>
<path d="M76.288 232.361C75.8287 232.361 75.379 232.323 74.9197 232.247C78.8617 231.586 81.7608 228.171 81.7417 224.171V155.923H84.4782V224.171C84.4782 228.697 80.8136 232.361 76.288 232.361Z" fill="#32B8DE"/>
<path d="M89.3096 155.923H104.939V224.171C104.939 228.697 101.442 232.361 97.1241 232.361C92.806 232.361 89.3096 228.697 89.3096 224.171V155.923Z" fill="#DB307A"/>
<path d="M97.3098 232.361C96.8506 232.361 96.3914 232.323 95.9417 232.247C99.8837 231.586 102.783 228.171 102.764 224.171V155.923H105.5V224.171C105.5 228.697 101.835 232.361 97.3098 232.361Z" fill="#32B8DE"/>
<path d="M68.7991 99.649C69.2392 95.5679 72.7506 92.4697 76.9414 92.479H95.1396C99.2538 92.479 102.717 95.4649 103.263 99.4431L115.567 190.941C115.758 192.401 114.706 193.74 113.213 193.936C113.089 193.946 112.984 193.964 112.859 193.964H61.6804C60.1783 193.964 58.944 192.766 58.944 191.287C58.944 191.203 58.944 191.11 58.9536 191.025L68.7799 99.649H68.7991Z" fill="white"/>
<path d="M69.2606 96.4754C69.7007 92.3038 70.7464 89.7449 74.1788 89.7449H77.7546V87.4927H94.1349V89.7449L99.2931 89.7269C102.98 89.6423 104.527 90.8632 104.6 96.8249L115.567 190.874C115.758 192.366 114.706 193.735 113.213 193.936C113.089 193.945 112.984 193.964 112.859 193.964H61.6804C60.1783 193.964 58.944 192.74 58.944 191.228C58.944 191.142 58.944 191.046 58.9536 190.96L69.2606 96.4754Z" fill="#942483"/>
<path d="M69.8903 112.064C77.6978 111.365 83.8882 105.175 84.5867 97.3674V90.2202H87.3231V97.0421C87.3231 105.519 78.0613 114.791 69.5745 114.791L69.8903 112.054V112.064Z" fill="#A5D8D6"/>
<path d="M77.755 90.2295H80.4914C80.6349 91.6742 81.7735 92.8128 83.2278 92.9659H88.6816C90.1264 92.8224 91.2649 91.6838 91.418 90.2295H94.1544C93.9631 93.1573 91.6285 95.4918 88.7008 95.6832H83.247C80.3192 95.4918 77.9846 93.1573 77.7933 90.2295H77.7837H77.755Z" fill="#A5D8D6"/>
<path d="M94.1544 87.4927H77.755V90.2291H94.1544V87.4927Z" fill="#A5D8D6"/>
<path d="M112.869 193.964H61.6905C60.1883 193.964 58.9541 192.732 58.9541 191.211C58.9541 191.125 58.9541 191.028 58.9636 190.942L68.7899 96.992C69.0483 94.4315 69.3353 91.9509 71.5264 90.6225C70.8949 91.6621 71.1041 93.0663 71.5264 94.239L61.7001 188.189C61.5374 189.7 62.6282 191.048 64.1208 191.211C64.2165 191.221 64.3122 191.221 64.4079 191.221H115.587C115.587 192.732 114.362 193.974 112.85 193.974L112.869 193.964Z" fill="#A5D8D6"/>
</svg>
