<svg width="174" height="240" viewBox="0 0 174 240" fill="none" xmlns="http://www.w3.org/2000/svg">
<rect width="174" height="240" fill="none"/>
<path d="M67.0855 160.5H106.1C107.28 160.5 108.237 161.46 108.237 162.637V186.811C108.237 188.37 106.972 189.632 105.416 189.632H67.7669C66.2078 189.632 64.9457 188.367 64.9457 186.811V162.637C64.9457 161.455 65.9056 160.5 67.0828 160.5H67.0855Z" fill="#513996"/>
<path d="M79.7066 89.8007C79.7066 89.8007 77.6078 87.3481 74.2165 89.8008C68.2056 87.0936 58.2515 97.3004 61.9057 103.63L69.4434 112.496C69.2975 114.121 69.365 122.887 69.0005 127.136C67.7994 133.314 66.0209 139.784 61.9058 162.123C61.7467 162.985 82.1892 163.43 86.4448 163.226C90.6978 163.427 112.806 162.995 112.862 162.123C112.894 161.624 107.168 134.186 105.02 127.136C104.556 122.222 104.807 112.459 104.661 110.836L113.498 104.335C115.948 95.1884 103.938 86.963 99.0229 89.8008C95.6289 87.3481 94.4296 89.8008 94.4296 89.8008C93.6277 92.7932 80.4018 92.3955 79.7066 89.8007Z" fill="#AAD044"/>
<path d="M61.8942 103.674C61.8942 103.674 60.5923 104.735 60.6559 105.225C60.9529 107.439 67.4525 112.683 69.6718 112.434C70.1438 112.381 71.0007 110.129 71.0007 110.129L61.8915 103.671L61.8942 103.674Z" fill="#ED1D87"/>
<path d="M113.323 103.756C113.323 103.756 114.747 105.233 114.597 105.821C113.927 108.476 107.788 111.839 105.139 111.22C104.576 111.087 103.831 109.287 103.831 109.287L113.32 103.756H113.323Z" fill="#ED1D87"/>
<path d="M104.926 110.314C104.911 110.29 104.909 110.261 104.923 110.232C104.948 110.173 105.019 110.136 105.087 110.147L106.554 110.425L107.087 109.121C107.099 109.092 107.124 109.068 107.153 109.052C107.181 109.036 107.218 109.031 107.249 109.036L108.716 109.314L109.249 108.01C109.275 107.952 109.346 107.914 109.414 107.925L110.88 108.203L111.414 106.899C111.425 106.87 111.451 106.846 111.479 106.83C111.507 106.814 111.544 106.809 111.576 106.814L113.042 107.092L113.576 105.788C113.601 105.729 113.672 105.692 113.74 105.703C113.805 105.716 113.839 105.772 113.817 105.833L113.238 107.246C113.212 107.304 113.142 107.342 113.073 107.331L111.607 107.053L111.073 108.357C111.062 108.386 111.036 108.41 111.008 108.426C110.98 108.442 110.943 108.447 110.912 108.442L109.445 108.164L108.912 109.468C108.9 109.497 108.875 109.521 108.846 109.537C108.818 109.553 108.781 109.558 108.75 109.553L107.283 109.275L106.75 110.579C106.724 110.637 106.653 110.675 106.585 110.664L104.999 110.362C104.965 110.354 104.943 110.338 104.928 110.314H104.926Z" fill="#B0A930"/>
<path d="M104.9 109.389C104.886 109.365 104.883 109.336 104.897 109.306C104.923 109.248 104.994 109.211 105.062 109.222L105.944 109.389L106.478 108.084C106.489 108.055 106.514 108.031 106.543 108.015C106.571 107.999 106.608 107.994 106.639 107.999L108.106 108.278L108.639 106.973C108.665 106.915 108.736 106.878 108.804 106.888L110.271 107.167L110.804 105.862C110.815 105.833 110.841 105.809 110.869 105.793C110.898 105.777 110.935 105.772 110.966 105.777L112.432 106.056L112.773 105.223C112.798 105.165 112.869 105.128 112.937 105.138C113.006 105.149 113.037 105.207 113.014 105.268L112.628 106.207C112.603 106.265 112.532 106.302 112.464 106.292L110.997 106.013L110.464 107.318C110.452 107.347 110.427 107.371 110.398 107.387C110.37 107.403 110.333 107.408 110.302 107.403L108.835 107.124L108.302 108.429C108.29 108.458 108.265 108.482 108.237 108.498C108.208 108.514 108.171 108.519 108.14 108.514L106.673 108.235L106.14 109.54C106.114 109.598 106.043 109.635 105.975 109.625L104.971 109.434C104.937 109.426 104.914 109.41 104.9 109.386V109.389Z" fill="#B0A930"/>
<path d="M104.614 109.784C104.6 109.76 104.597 109.731 104.611 109.702C104.636 109.643 104.707 109.606 104.775 109.617L106.242 109.895L106.776 108.591C106.787 108.561 106.812 108.537 106.841 108.522C106.869 108.506 106.906 108.5 106.937 108.506L108.404 108.784L108.937 107.48C108.963 107.421 109.034 107.384 109.102 107.395L110.569 107.673L111.102 106.368C111.113 106.339 111.139 106.316 111.167 106.3C111.196 106.284 111.233 106.278 111.264 106.284L112.73 106.562L113.264 105.258C113.289 105.199 113.36 105.162 113.428 105.173C113.494 105.186 113.528 105.242 113.505 105.303L112.926 106.716C112.901 106.774 112.83 106.811 112.762 106.801L111.295 106.522L110.762 107.827C110.75 107.856 110.725 107.88 110.696 107.896C110.668 107.912 110.631 107.917 110.6 107.912L109.133 107.633L108.6 108.938C108.588 108.967 108.563 108.991 108.535 109.007C108.506 109.023 108.469 109.028 108.438 109.023L106.971 108.744L106.438 110.049C106.412 110.107 106.342 110.144 106.273 110.134L104.688 109.831C104.653 109.823 104.631 109.808 104.617 109.784H104.614Z" fill="#B0A930"/>
<path d="M69.8082 111.721C69.8271 111.694 69.8334 111.661 69.824 111.624C69.8082 111.55 69.7356 111.492 69.6631 111.499L68.0734 111.614L67.7076 109.956C67.6981 109.919 67.6791 109.888 67.6476 109.861C67.6161 109.835 67.5814 109.824 67.5467 109.828L65.957 109.942L65.5911 108.284C65.5754 108.21 65.5028 108.153 65.4303 108.16L63.8406 108.274L63.4747 106.616C63.4652 106.579 63.4463 106.549 63.4148 106.522C63.3833 106.495 63.3485 106.485 63.3138 106.488L61.7242 106.603L61.3583 104.945C61.3425 104.871 61.27 104.813 61.1974 104.82C61.128 104.823 61.0807 104.888 61.0965 104.965L61.4939 106.754C61.5097 106.829 61.5822 106.886 61.6548 106.879L63.2445 106.764L63.6103 108.423C63.6198 108.46 63.6387 108.49 63.6703 108.517C63.7018 108.544 63.7365 108.554 63.7712 108.551L65.3609 108.436L65.7268 110.094C65.7362 110.131 65.7552 110.161 65.7867 110.188C65.8182 110.215 65.8529 110.225 65.8876 110.222L67.4773 110.107L67.8432 111.765C67.8589 111.84 67.9315 111.897 68.004 111.89L69.723 111.765C69.7577 111.765 69.7861 111.745 69.8051 111.718L69.8082 111.721Z" fill="#B0A930"/>
<path d="M69.9751 110.606C69.994 110.579 70.0004 110.545 69.9909 110.508C69.9751 110.434 69.9026 110.377 69.83 110.383L68.8743 110.451L68.5085 108.793C68.499 108.756 68.4801 108.725 68.4485 108.699C68.417 108.672 68.3823 108.661 68.3476 108.665L66.7579 108.779L66.392 107.121C66.3763 107.047 66.3037 106.99 66.2312 106.997L64.6415 107.111L64.2756 105.453C64.2662 105.416 64.2472 105.386 64.2157 105.359C64.1841 105.332 64.1495 105.322 64.1148 105.325L62.5251 105.44L62.2917 104.385C62.2759 104.311 62.2034 104.254 62.1308 104.261C62.0583 104.267 62.0141 104.328 62.0299 104.405L62.2948 105.598C62.3106 105.672 62.3831 105.73 62.4557 105.723L64.0454 105.608L64.4112 107.266C64.4207 107.303 64.4396 107.334 64.4712 107.361C64.5027 107.388 64.5374 107.398 64.5721 107.394L66.1618 107.28L66.5277 108.938C66.5371 108.975 66.556 109.005 66.5876 109.032C66.6191 109.059 66.6538 109.069 66.6885 109.066L68.2782 108.951L68.6441 110.609C68.6599 110.683 68.7324 110.741 68.8049 110.734L69.8931 110.656C69.9278 110.656 69.9562 110.636 69.9751 110.609V110.606Z" fill="#B0A930"/>
<path d="M70.2178 111.125C70.2368 111.098 70.2431 111.064 70.2336 111.027C70.2179 110.953 70.1453 110.896 70.0728 110.903L68.4831 111.017L68.1172 109.359C68.1077 109.322 68.0888 109.292 68.0573 109.265C68.0257 109.238 67.9911 109.228 67.9564 109.231L66.3667 109.346L66.0008 107.688C65.985 107.614 65.9125 107.556 65.8399 107.563L64.2503 107.678L63.8844 106.02C63.8749 105.983 63.856 105.952 63.8244 105.926C63.7929 105.899 63.7582 105.888 63.7235 105.892L62.1338 106.006L61.768 104.348C61.7522 104.274 61.6797 104.217 61.6071 104.224C61.5377 104.227 61.4904 104.291 61.5062 104.369L61.9036 106.158C61.9193 106.232 61.9919 106.289 62.0644 106.283L63.6541 106.168L64.02 107.826C64.0294 107.863 64.0484 107.893 64.0799 107.92C64.1115 107.947 64.1462 107.958 64.1808 107.954L65.7705 107.84L66.1364 109.498C66.1459 109.535 66.1648 109.565 66.1963 109.592C66.2279 109.619 66.2626 109.629 66.2973 109.626L67.8869 109.511L68.2528 111.169C68.2686 111.243 68.3412 111.3 68.4137 111.294L70.1327 111.169C70.1674 111.169 70.1958 111.149 70.2147 111.122L70.2178 111.125Z" fill="#B0A930"/>
<path d="M98.3421 158.808C97.4591 158.808 96.7432 158.018 96.7432 157.135C96.7432 156.252 97.4591 155.536 98.3421 155.536C99.225 155.536 99.941 156.252 99.941 157.135C99.941 158.018 99.225 158.808 98.3421 158.808Z" fill="#FF8915"/>
<path d="M98.342 158.172C97.8011 158.172 97.3636 157.69 97.3636 157.151C97.3636 156.613 97.8011 156.173 98.342 156.173C98.8829 156.173 99.3204 156.61 99.3204 157.151C99.3204 157.692 98.8829 158.172 98.342 158.172Z" fill="#AAD044"/>
<path d="M103.907 158.66C101.834 158.66 100.153 156.807 100.153 154.733C100.153 152.66 101.834 150.981 103.905 150.981C105.975 150.981 107.657 152.662 107.657 154.733C107.657 156.804 105.975 158.66 103.905 158.66H103.907Z" fill="#FBA819"/>
<path d="M96.6049 151.769C96.6049 151.57 96.7296 151.382 96.9284 151.313C99.3201 150.483 102.722 150.496 103.838 150.498H104.016C104.281 150.498 104.498 150.713 104.498 150.981C104.498 151.249 104.284 151.464 104.016 151.464H103.836C102.759 151.461 99.4818 151.448 97.2439 152.222C96.992 152.309 96.7189 152.177 96.6314 151.925C96.6129 151.872 96.6049 151.819 96.6049 151.766V151.769Z" fill="#ED1D87"/>
<path d="M98.4427 152.058C98.5541 152.084 98.6257 152.196 98.5992 152.307C98.5726 152.418 98.4613 152.49 98.3473 152.463C98.2333 152.437 98.1643 152.326 98.1908 152.214C98.2173 152.103 98.3287 152.031 98.4427 152.058Z" fill="#4F2208"/>
<path d="M97.7452 152.405C97.8566 152.431 97.9281 152.543 97.9016 152.654C97.8751 152.766 97.7638 152.837 97.6497 152.811C97.5357 152.784 97.4668 152.673 97.4933 152.561C97.5198 152.45 97.6312 152.378 97.7452 152.405Z" fill="#4F2208"/>
<path d="M97.0697 152.824C97.181 152.851 97.2527 152.962 97.2261 153.073C97.1996 153.185 97.0882 153.256 96.9742 153.23C96.8602 153.203 96.7913 153.092 96.8178 152.981C96.8443 152.869 96.9557 152.798 97.0697 152.824Z" fill="#4F2208"/>
<path d="M99.6729 154.733C99.6729 152.397 101.571 150.496 103.91 150.496C106.249 150.496 108.147 152.395 108.147 154.733C108.147 157.072 106.206 159.14 103.91 159.14C101.614 159.14 99.6729 157.122 99.6729 154.733ZM107.179 154.733C107.179 152.93 105.713 151.464 103.91 151.464C102.107 151.464 100.641 152.93 100.641 154.733C100.641 156.536 102.139 158.177 103.91 158.177C105.681 158.177 107.179 156.6 107.179 154.733Z" fill="#ED1D87"/>
<path d="M96.6286 156.756C96.6286 152.742 101.584 150.65 101.796 150.565C102.043 150.464 102.324 150.581 102.425 150.825C102.526 151.069 102.409 151.353 102.165 151.453C102.12 151.472 97.5937 153.389 97.5937 156.754C97.5937 157.223 97.7104 157.568 97.9331 157.751C98.1426 157.923 98.3892 157.907 98.5191 157.883C98.7789 157.833 99.0335 158.005 99.0838 158.265C99.1342 158.525 98.9619 158.779 98.702 158.83C98.1982 158.928 97.6971 158.806 97.3206 158.496C97.0051 158.236 96.6312 157.724 96.6312 156.754L96.6286 156.756Z" fill="#ED1D87"/>
<path d="M103.908 157.456C102.484 157.456 101.33 156.184 101.33 154.76C101.33 153.336 102.486 152.182 103.908 152.182C105.329 152.182 106.485 153.338 106.485 154.76C106.485 156.181 105.329 157.456 103.908 157.456Z" fill="#8B3B16"/>
<path d="M103.908 155.658C103.454 155.658 103.089 155.253 103.089 154.799C103.089 154.346 103.457 153.98 103.908 153.98C104.359 153.98 104.727 154.348 104.727 154.799C104.727 155.25 104.359 155.658 103.908 155.658Z" fill="#ED1D87"/>
<path d="M105.021 154.813C105.021 154.762 105.048 154.723 105.188 154.624C105.194 154.622 105.671 154.296 105.806 154.346C105.851 154.362 105.91 154.386 105.91 154.773C105.91 155.195 105.851 155.245 105.833 155.261C105.78 155.309 105.705 155.29 105.602 155.242C105.597 155.242 105.021 154.961 105.021 154.81V154.813ZM105.724 154.513C105.626 154.553 105.332 154.723 105.22 154.81C105.326 154.895 105.605 155.065 105.721 155.107C105.727 155.054 105.74 154.929 105.74 154.773C105.74 154.635 105.732 154.556 105.724 154.513Z" fill="white"/>
<path d="M101.755 154.855C101.755 154.433 101.813 154.383 101.831 154.367C101.884 154.319 101.959 154.338 102.062 154.386C102.067 154.386 102.643 154.667 102.643 154.818C102.643 154.871 102.603 154.919 102.478 155.006C102.473 155.009 101.993 155.338 101.858 155.287C101.813 155.269 101.755 155.247 101.755 154.858V154.855ZM101.943 154.518C101.937 154.571 101.924 154.696 101.924 154.852C101.924 154.99 101.932 155.072 101.94 155.112C102.038 155.072 102.333 154.903 102.444 154.815C102.338 154.73 102.059 154.561 101.943 154.518Z" fill="white"/>
<path d="M103.356 156.74C103.356 156.626 103.69 156.003 103.833 156.003C103.987 156.003 104.308 156.653 104.308 156.748L104.3 156.791C104.279 156.846 104.221 156.865 104.162 156.876C104.035 156.899 103.468 156.915 103.38 156.817L103.359 156.793L103.354 156.743L103.356 156.74ZM103.833 156.202C103.746 156.308 103.576 156.592 103.536 156.706C103.648 156.724 104.008 156.73 104.133 156.706C104.093 156.61 103.924 156.313 103.833 156.202Z" fill="white"/>
<path d="M103.356 152.88L103.364 152.837C103.385 152.782 103.443 152.763 103.502 152.752C103.634 152.729 104.194 152.71 104.284 152.811L104.305 152.835L104.31 152.885C104.31 152.999 103.976 153.622 103.833 153.622C103.679 153.622 103.358 152.973 103.358 152.877L103.356 152.88ZM104.127 152.922C104.019 152.904 103.669 152.901 103.539 152.922C103.584 153.041 103.743 153.32 103.83 153.426C103.918 153.32 104.088 153.036 104.127 152.922Z" fill="white"/>
<path d="M104.639 155.754C104.639 155.722 104.642 155.682 104.674 155.653C104.714 155.613 104.775 155.611 104.923 155.637C104.928 155.637 105.499 155.746 105.56 155.879L105.568 155.921C105.568 155.947 105.568 156.032 105.26 156.321C105.013 156.552 104.955 156.549 104.926 156.547C104.738 156.533 104.637 155.794 104.637 155.754H104.639ZM105.382 155.939C105.286 155.897 104.955 155.81 104.817 155.796C104.83 155.947 104.913 156.258 104.966 156.364C105.056 156.3 105.316 156.046 105.387 155.942L105.382 155.939Z" fill="#4F2208"/>
<path d="M102.097 153.707C102.097 153.68 102.097 153.596 102.404 153.307C102.651 153.076 102.709 153.078 102.738 153.081C102.927 153.092 103.027 153.834 103.027 153.874C103.027 153.906 103.025 153.948 102.993 153.975C102.958 154.009 102.911 154.02 102.741 153.988C102.736 153.988 102.166 153.879 102.105 153.747L102.097 153.704V153.707ZM102.704 153.267C102.614 153.33 102.354 153.585 102.282 153.688C102.378 153.728 102.704 153.816 102.847 153.832C102.831 153.67 102.752 153.37 102.701 153.264L102.704 153.267Z" fill="#4F2208"/>
<path d="M102.099 155.918V155.913C102.102 155.844 102.17 155.802 102.277 155.762C102.282 155.762 102.886 155.55 102.992 155.656C103.022 155.685 103.027 155.725 103.027 155.754C103.027 155.852 102.905 156.48 102.77 156.541C102.711 156.568 102.653 156.528 102.627 156.512C102.513 156.438 102.102 156.046 102.102 155.916L102.099 155.918ZM102.852 155.796C102.717 155.81 102.406 155.887 102.29 155.94C102.367 156.051 102.603 156.292 102.706 156.364C102.746 156.271 102.833 155.953 102.849 155.796H102.852Z" fill="#4F2208"/>
<path d="M104.639 153.871C104.639 153.773 104.761 153.145 104.897 153.084C104.955 153.057 105.013 153.097 105.04 153.113C105.154 153.187 105.565 153.58 105.565 153.71C105.562 153.787 105.493 153.826 105.387 153.866C105.382 153.866 104.777 154.078 104.671 153.972C104.642 153.943 104.637 153.903 104.637 153.871H104.639ZM104.958 153.264C104.918 153.357 104.83 153.675 104.815 153.832C104.952 153.818 105.273 153.739 105.379 153.683C105.316 153.593 105.061 153.333 104.958 153.261V153.264Z" fill="#4F2208"/>
<path d="M98.3418 157.517C98.1561 157.517 98.005 157.35 98.005 157.167C98.005 156.984 98.1561 156.83 98.3418 156.83C98.5274 156.83 98.6785 156.981 98.6785 157.167C98.6785 157.353 98.5274 157.517 98.3418 157.517Z" fill="#4F2208"/>
<path d="M95.6561 133.359C95.6561 132.792 96.1626 132.336 96.7273 132.336C97.2921 132.336 97.7508 132.794 97.7508 133.359C97.7508 133.924 97.2921 134.383 96.7273 134.383C96.1626 134.383 95.6561 133.924 95.6561 133.359Z" fill="#FF8915"/>
<path d="M96.0644 133.359C96.0644 133.015 96.372 132.734 96.7193 132.734C97.0667 132.734 97.3451 133.015 97.3451 133.359C97.3451 133.704 97.064 133.985 96.7193 133.985C96.3746 133.985 96.0644 133.704 96.0644 133.359Z" fill="#AAD044"/>
<path d="M95.7514 136.923C95.7514 135.597 96.9367 134.521 98.2651 134.521C99.5935 134.521 100.667 135.597 100.667 136.923C100.667 138.249 99.5908 139.325 98.2651 139.325C96.9393 139.325 95.7514 138.251 95.7514 136.923Z" fill="#FBA819"/>
<path d="M100.161 132.248C100.288 132.248 100.407 132.328 100.452 132.455C100.983 133.985 100.975 136.162 100.972 136.878V136.992C100.972 137.161 100.834 137.299 100.665 137.299C100.495 137.299 100.357 137.161 100.357 136.992V136.875C100.36 136.186 100.368 134.088 99.8718 132.657C99.8161 132.495 99.9009 132.32 100.063 132.264C100.097 132.251 100.129 132.246 100.163 132.246L100.161 132.248Z" fill="#ED1D87"/>
<path d="M99.975 133.426C99.9591 133.497 99.8875 133.542 99.8159 133.526C99.7443 133.511 99.6993 133.439 99.7152 133.367C99.7311 133.296 99.8027 133.251 99.8743 133.267C99.9459 133.283 99.991 133.354 99.975 133.426Z" fill="#4F2208"/>
<path d="M99.753 132.98C99.7371 133.052 99.6655 133.097 99.5939 133.081C99.5223 133.065 99.4772 132.993 99.4932 132.922C99.5091 132.85 99.5806 132.805 99.6522 132.821C99.7238 132.837 99.7689 132.908 99.753 132.98Z" fill="#4F2208"/>
<path d="M99.488 132.545C99.4721 132.617 99.4005 132.662 99.3289 132.646C99.2573 132.63 99.2122 132.558 99.2281 132.487C99.244 132.415 99.3156 132.37 99.3872 132.386C99.4588 132.402 99.5039 132.474 99.488 132.545Z" fill="#4F2208"/>
<path d="M98.2646 134.213C99.76 134.213 100.974 135.43 100.974 136.923C100.974 138.416 99.7574 139.633 98.2646 139.633C96.7718 139.633 95.4434 138.392 95.4434 136.923C95.4434 135.454 96.7347 134.213 98.2646 134.213ZM98.2646 139.015C99.4207 139.015 100.357 138.076 100.357 136.923C100.357 135.77 99.418 134.831 98.2646 134.831C97.1112 134.831 96.0612 135.791 96.0612 136.923C96.0612 138.055 97.0714 139.015 98.2646 139.015Z" fill="#ED1D87"/>
<path d="M96.969 132.264C99.5356 132.264 100.875 135.435 100.93 135.571C100.994 135.73 100.92 135.91 100.763 135.974C100.607 136.037 100.424 135.966 100.36 135.807C100.347 135.778 99.122 132.882 96.9663 132.882C96.664 132.882 96.444 132.956 96.3273 133.099C96.216 133.232 96.2265 133.391 96.2425 133.473C96.2743 133.64 96.1656 133.802 95.9985 133.834C95.8315 133.866 95.6697 133.757 95.6379 133.59C95.5743 133.266 95.6538 132.946 95.8527 132.707C96.0197 132.505 96.3459 132.264 96.9663 132.264H96.969Z" fill="#ED1D87"/>
<path d="M96.5206 136.923C96.5206 136.011 97.3346 135.271 98.2468 135.271C99.1589 135.271 99.8986 136.011 99.8986 136.923C99.8986 137.835 99.1589 138.575 98.2468 138.575C97.3346 138.575 96.5206 137.835 96.5206 136.925V136.923Z" fill="#8B3B16"/>
<path d="M97.6717 136.923C97.6717 136.634 97.9315 136.398 98.2205 136.398C98.5096 136.398 98.7455 136.634 98.7455 136.923C98.7455 137.212 98.5096 137.448 98.2205 137.448C97.9315 137.448 97.6717 137.212 97.6717 136.923Z" fill="#ED1D87"/>
<path d="M98.2148 137.636C98.2466 137.636 98.2731 137.652 98.3368 137.742C98.3368 137.745 98.5489 138.05 98.5144 138.137C98.5038 138.166 98.4906 138.203 98.2413 138.203C97.9709 138.203 97.939 138.166 97.9284 138.153C97.8993 138.119 97.9099 138.071 97.9417 138.005C97.9417 138.002 98.122 137.633 98.2175 137.633L98.2148 137.636ZM98.4031 138.084C98.3792 138.02 98.2705 137.835 98.2122 137.763C98.1591 137.83 98.0504 138.01 98.0239 138.084C98.0584 138.087 98.1379 138.095 98.2387 138.095C98.3262 138.095 98.3792 138.089 98.4057 138.084H98.4031Z" fill="white"/>
<path d="M98.1861 135.544C98.4565 135.544 98.4883 135.581 98.4989 135.594C98.5281 135.629 98.5175 135.677 98.4857 135.743C98.4857 135.745 98.3054 136.114 98.2099 136.114C98.1754 136.114 98.1462 136.088 98.0906 136.008C98.0906 136.005 97.8785 135.698 97.9129 135.61C97.9235 135.581 97.9368 135.544 98.1861 135.544ZM98.4008 135.666C98.3663 135.663 98.2868 135.655 98.1861 135.655C98.0986 135.655 98.0455 135.661 98.019 135.666C98.0429 135.73 98.1542 135.915 98.2099 135.987C98.2629 135.92 98.3716 135.74 98.3982 135.666H98.4008Z" fill="white"/>
<path d="M96.9791 136.57C97.0533 136.57 97.4511 136.785 97.4511 136.875C97.4511 136.973 97.0348 137.178 96.9738 137.178L96.9473 137.172C96.9128 137.159 96.8996 137.119 96.8943 137.085C96.8784 137.005 96.8677 136.642 96.9314 136.586L96.9473 136.573H96.9818L96.9791 136.57ZM97.3238 136.875C97.2549 136.82 97.0745 136.711 97.0003 136.684C96.987 136.753 96.987 136.987 97.0003 137.066C97.0613 137.042 97.2522 136.931 97.3238 136.875Z" fill="white"/>
<path d="M99.4502 136.57L99.4768 136.576C99.5113 136.589 99.5245 136.629 99.5298 136.663C99.5457 136.748 99.5563 137.106 99.4927 137.162L99.4768 137.175H99.4423C99.3681 137.177 98.9703 136.965 98.9703 136.873C98.9703 136.775 99.3866 136.57 99.4476 136.57H99.4502ZM99.4237 137.063C99.437 136.995 99.437 136.772 99.4237 136.687C99.3468 136.716 99.1692 136.82 99.1003 136.873C99.1692 136.928 99.3495 137.037 99.4237 137.063Z" fill="white"/>
<path d="M97.6103 137.392C97.6315 137.392 97.6554 137.392 97.674 137.413C97.6978 137.437 97.7005 137.477 97.6819 137.572C97.6819 137.575 97.613 137.941 97.5281 137.978L97.499 137.984C97.4804 137.984 97.43 137.983 97.2444 137.787C97.0959 137.628 97.0986 137.594 97.0986 137.572C97.1065 137.451 97.5812 137.387 97.605 137.387H97.6077L97.6103 137.392ZM97.491 137.867C97.5175 137.806 97.5732 137.596 97.5838 137.504C97.4884 137.512 97.2895 137.565 97.2206 137.599C97.263 137.657 97.4247 137.822 97.491 137.867Z" fill="#4F2208"/>
<path d="M98.9202 135.764C98.9388 135.764 98.9892 135.764 99.1748 135.96C99.3233 136.119 99.3206 136.154 99.3206 136.175C99.3126 136.297 98.838 136.361 98.8142 136.361C98.793 136.361 98.7664 136.361 98.7505 136.34C98.7293 136.318 98.7214 136.286 98.7426 136.18C98.7426 136.178 98.8115 135.812 98.8964 135.775L98.9255 135.769H98.9229L98.9202 135.764ZM99.2013 136.151C99.1589 136.093 98.9971 135.929 98.9308 135.884C98.9043 135.945 98.8486 136.154 98.838 136.247C98.9414 136.236 99.135 136.188 99.2013 136.154V136.151Z" fill="#4F2208"/>
<path d="M97.5071 135.764H97.5097C97.5548 135.767 97.5786 135.809 97.6052 135.878C97.6052 135.881 97.7404 136.268 97.6741 136.337C97.6555 136.355 97.629 136.358 97.6105 136.358C97.5468 136.358 97.1464 136.281 97.1067 136.194C97.0881 136.157 97.1146 136.119 97.1252 136.103C97.173 136.029 97.4222 135.767 97.5044 135.767L97.5071 135.764ZM97.584 136.247C97.576 136.162 97.5256 135.96 97.4938 135.889C97.4222 135.939 97.2684 136.09 97.2234 136.154C97.2817 136.178 97.4885 136.236 97.5866 136.247H97.584Z" fill="#4F2208"/>
<path d="M98.8137 137.39C98.8773 137.39 99.2777 137.467 99.3175 137.554C99.336 137.591 99.3095 137.628 99.2989 137.644C99.2512 137.718 99.0019 137.978 98.9197 137.978C98.8694 137.976 98.8455 137.933 98.819 137.864C98.819 137.862 98.6838 137.474 98.7501 137.406C98.7686 137.387 98.7951 137.384 98.8137 137.384V137.39ZM99.2035 137.594C99.1451 137.57 98.9383 137.512 98.8402 137.501C98.8482 137.588 98.8985 137.793 98.9357 137.864C98.994 137.822 99.1584 137.66 99.2035 137.594Z" fill="#4F2208"/>
<path d="M96.4832 133.359C96.4832 133.24 96.5892 133.144 96.7085 133.144C96.8278 133.144 96.9233 133.24 96.9233 133.359C96.9233 133.478 96.8278 133.574 96.7085 133.574C96.5892 133.574 96.4832 133.478 96.4832 133.359Z" fill="#4F2208"/>
<path d="M90.9048 116.156C90.9048 115.589 91.4113 115.133 91.976 115.133C92.5408 115.133 92.9995 115.591 92.9995 116.156C92.9995 116.721 92.5408 117.18 91.976 117.18C91.4113 117.18 90.9048 116.721 90.9048 116.156Z" fill="#FF8915"/>
<path d="M91.3131 116.156C91.3131 115.811 91.6207 115.53 91.968 115.53C92.3154 115.53 92.5938 115.811 92.5938 116.156C92.5938 116.501 92.3127 116.782 91.968 116.782C91.6233 116.782 91.3131 116.501 91.3131 116.156Z" fill="#AAD044"/>
<path d="M91.0002 119.72C91.0002 118.394 92.1854 117.318 93.5138 117.318C94.8422 117.318 95.9161 118.394 95.9161 119.72C95.9161 121.046 94.8396 122.122 93.5138 122.122C92.1881 122.122 91.0002 121.048 91.0002 119.72Z" fill="#FBA819"/>
<path d="M95.4095 115.045C95.5368 115.045 95.6561 115.125 95.7012 115.252C96.2315 116.782 96.2235 118.959 96.2209 119.675V119.789C96.2209 119.958 96.083 120.096 95.9133 120.096C95.7436 120.096 95.6057 119.958 95.6057 119.789V119.672C95.6084 118.983 95.6163 116.885 95.1205 115.453C95.0648 115.292 95.1497 115.117 95.3114 115.061C95.3459 115.048 95.3777 115.042 95.4122 115.042L95.4095 115.045Z" fill="#ED1D87"/>
<path d="M95.2238 116.222C95.2079 116.294 95.1363 116.339 95.0647 116.323C94.9931 116.307 94.948 116.236 94.9639 116.164C94.9798 116.093 95.0514 116.048 95.123 116.063C95.1946 116.079 95.2397 116.151 95.2238 116.222Z" fill="#4F2208"/>
<path d="M95.0012 115.774C94.9853 115.846 94.9136 115.891 94.8421 115.875C94.7705 115.859 94.7254 115.788 94.7413 115.716C94.7572 115.645 94.8288 115.599 94.9004 115.615C94.972 115.631 95.0171 115.703 95.0012 115.774Z" fill="#4F2208"/>
<path d="M94.7356 115.342C94.7197 115.414 94.648 115.459 94.5765 115.443C94.5049 115.427 94.4598 115.355 94.4757 115.284C94.4916 115.212 94.5632 115.167 94.6348 115.183C94.7064 115.199 94.7515 115.271 94.7356 115.342Z" fill="#4F2208"/>
<path d="M93.5133 117.01C95.0088 117.01 96.2232 118.227 96.2232 119.72C96.2232 121.213 95.0061 122.43 93.5133 122.43C92.0205 122.43 90.6921 121.189 90.6921 119.72C90.6921 118.251 91.9834 117.01 93.5133 117.01ZM93.5133 121.812C94.6694 121.812 95.6054 120.873 95.6054 119.72C95.6054 118.566 94.6668 117.628 93.5133 117.628C92.3599 117.628 91.3099 118.588 91.3099 119.72C91.3099 120.852 92.3202 121.812 93.5133 121.812Z" fill="#ED1D87"/>
<path d="M92.2172 115.061C94.7838 115.061 96.1228 118.233 96.1785 118.368C96.2421 118.527 96.1679 118.707 96.0115 118.771C95.855 118.834 95.6721 118.763 95.6084 118.604C95.5952 118.574 94.3702 115.679 92.2145 115.679C91.9122 115.679 91.6922 115.753 91.5755 115.896C91.4641 116.029 91.4748 116.188 91.4907 116.27C91.5225 116.437 91.4138 116.599 91.2467 116.631C91.0797 116.663 90.9179 116.554 90.8861 116.387C90.8225 116.064 90.902 115.743 91.1009 115.504C91.2679 115.303 91.5941 115.061 92.2145 115.061H92.2172Z" fill="#ED1D87"/>
<path d="M91.7688 119.72C91.7688 118.808 92.5828 118.068 93.4949 118.068C94.4071 118.068 95.1468 118.808 95.1468 119.72C95.1468 120.632 94.4071 121.372 93.4949 121.372C92.5828 121.372 91.7688 120.632 91.7688 119.723V119.72Z" fill="#8B3B16"/>
<path d="M92.9226 119.72C92.9226 119.431 93.1825 119.195 93.4715 119.195C93.7605 119.195 93.9965 119.431 93.9965 119.72C93.9965 120.009 93.7605 120.245 93.4715 120.245C93.1825 120.245 92.9226 120.009 92.9226 119.72Z" fill="#ED1D87"/>
<path d="M93.4636 120.433C93.4954 120.433 93.5219 120.449 93.5855 120.539C93.5855 120.542 93.7977 120.847 93.7632 120.934C93.7526 120.964 93.7393 121.001 93.4901 121.001C93.2196 121.001 93.1878 120.964 93.1772 120.95C93.1481 120.916 93.1587 120.868 93.1905 120.802C93.1905 120.799 93.3708 120.431 93.4662 120.431L93.4636 120.433ZM93.6518 120.881C93.628 120.818 93.5193 120.632 93.4609 120.561C93.4079 120.627 93.2992 120.807 93.2727 120.881C93.3072 120.884 93.3867 120.892 93.4874 120.892C93.5749 120.892 93.628 120.887 93.6545 120.881H93.6518Z" fill="white"/>
<path d="M93.4337 118.341C93.7042 118.341 93.736 118.378 93.7466 118.391C93.7758 118.426 93.7651 118.474 93.7333 118.54C93.7333 118.543 93.553 118.911 93.4576 118.911C93.4231 118.911 93.3939 118.885 93.3382 118.805C93.3382 118.802 93.1261 118.495 93.1606 118.407C93.1712 118.378 93.1845 118.341 93.4337 118.341ZM93.6511 118.463C93.6166 118.46 93.5371 118.452 93.4364 118.452C93.3489 118.452 93.2958 118.458 93.2693 118.463C93.2932 118.527 93.4045 118.712 93.4602 118.784C93.5132 118.718 93.6219 118.537 93.6485 118.463H93.6511Z" fill="white"/>
<path d="M92.2273 119.367C92.3015 119.367 92.6992 119.582 92.6992 119.672C92.6992 119.77 92.283 119.975 92.222 119.975L92.1954 119.969C92.161 119.956 92.1477 119.916 92.1424 119.882C92.1265 119.802 92.1159 119.439 92.1795 119.383L92.1954 119.37H92.2299L92.2273 119.367ZM92.572 119.672C92.503 119.617 92.3227 119.508 92.2485 119.481C92.2352 119.55 92.2352 119.784 92.2485 119.863C92.3095 119.839 92.5004 119.728 92.572 119.672Z" fill="white"/>
<path d="M94.699 119.367L94.7255 119.373C94.76 119.386 94.7732 119.426 94.7786 119.46C94.7945 119.545 94.8051 119.903 94.7415 119.959L94.7255 119.972H94.6911C94.6168 119.975 94.2191 119.762 94.2191 119.67C94.2191 119.572 94.6354 119.367 94.6964 119.367H94.699ZM94.6725 119.861C94.6858 119.792 94.6858 119.569 94.6725 119.484C94.5956 119.513 94.4179 119.617 94.349 119.67C94.4179 119.725 94.5983 119.834 94.6725 119.861Z" fill="white"/>
<path d="M92.8586 120.189C92.8798 120.189 92.9036 120.189 92.9222 120.21C92.9461 120.234 92.9487 120.274 92.9302 120.369C92.9302 120.372 92.8612 120.738 92.7764 120.775L92.7472 120.78C92.7287 120.78 92.6783 120.78 92.4926 120.584C92.3442 120.425 92.3468 120.391 92.3468 120.369C92.3548 120.248 92.8294 120.184 92.8533 120.184H92.8559L92.8586 120.189ZM92.7393 120.661C92.7658 120.6 92.8214 120.391 92.832 120.298C92.7366 120.306 92.5377 120.359 92.4688 120.393C92.5112 120.452 92.673 120.616 92.7393 120.661Z" fill="#4F2208"/>
<path d="M94.1684 118.559C94.187 118.559 94.2374 118.559 94.423 118.755C94.5715 118.914 94.5688 118.948 94.5688 118.97C94.5609 119.092 94.0862 119.155 94.0624 119.155C94.0412 119.155 94.0146 119.155 93.9987 119.134C93.9775 119.113 93.9696 119.081 93.9908 118.975C93.9908 118.972 94.0597 118.606 94.1446 118.569L94.1737 118.564H94.1711L94.1684 118.559ZM94.4521 118.948C94.4097 118.89 94.248 118.726 94.1817 118.681C94.1552 118.742 94.0995 118.951 94.0889 119.044C94.1923 119.033 94.3859 118.985 94.4521 118.951V118.948Z" fill="#4F2208"/>
<path d="M92.7558 118.561H92.7584C92.8035 118.564 92.8274 118.606 92.8539 118.675C92.8539 118.678 92.9891 119.065 92.9228 119.134C92.9043 119.152 92.8777 119.155 92.8592 119.155C92.7955 119.155 92.3952 119.078 92.3554 118.991C92.3369 118.954 92.3634 118.917 92.374 118.901C92.4217 118.826 92.671 118.564 92.7531 118.564L92.7558 118.561ZM92.8327 119.041C92.8247 118.956 92.7744 118.755 92.7425 118.683C92.6709 118.734 92.5171 118.885 92.4721 118.948C92.5304 118.972 92.7372 119.031 92.8353 119.041H92.8327Z" fill="#4F2208"/>
<path d="M94.0625 120.187C94.1261 120.187 94.5265 120.264 94.5662 120.351C94.5848 120.388 94.5583 120.425 94.5477 120.441C94.4999 120.515 94.2507 120.775 94.1685 120.775C94.1181 120.773 94.0943 120.73 94.0678 120.661C94.0678 120.659 93.9325 120.272 93.9988 120.203C94.0174 120.184 94.0439 120.181 94.0625 120.181V120.187ZM94.4522 120.391C94.3939 120.367 94.1871 120.309 94.089 120.298C94.0969 120.386 94.1473 120.59 94.1844 120.661C94.2427 120.619 94.4071 120.457 94.4522 120.391Z" fill="#4F2208"/>
<path d="M91.7319 116.156C91.7319 116.037 91.838 115.941 91.9573 115.941C92.0766 115.941 92.1721 116.037 92.1721 116.156C92.1721 116.276 92.0766 116.371 91.9573 116.371C91.838 116.371 91.7319 116.276 91.7319 116.156Z" fill="#4F2208"/>
<path d="M76.1568 117.578C76.1568 117.01 76.6633 116.554 77.228 116.554C77.7928 116.554 78.2515 117.013 78.2515 117.578C78.2515 118.142 77.7928 118.601 77.228 118.601C76.6633 118.601 76.1568 118.142 76.1568 117.578Z" fill="#FF8915"/>
<path d="M76.5651 117.578C76.5651 117.233 76.8727 116.952 77.22 116.952C77.5674 116.952 77.8458 117.233 77.8458 117.578C77.8458 117.922 77.5647 118.203 77.22 118.203C76.8753 118.203 76.5651 117.922 76.5651 117.578Z" fill="#AAD044"/>
<path d="M76.2549 121.139C76.2549 119.813 77.4402 118.736 78.7686 118.736C80.097 118.736 81.1709 119.813 81.1709 121.139C81.1709 122.464 80.0943 123.541 78.7686 123.541C77.4428 123.541 76.2549 122.467 76.2549 121.139Z" fill="#FBA819"/>
<path d="M80.6648 116.466C80.7921 116.466 80.9114 116.546 80.9565 116.673C81.4868 118.203 81.4788 120.38 81.4762 121.096V121.21C81.4762 121.379 81.3383 121.517 81.1686 121.517C80.9989 121.517 80.861 121.379 80.861 121.21V121.093C80.8637 120.404 80.8716 118.306 80.3758 116.875C80.3201 116.713 80.405 116.538 80.5667 116.482C80.6012 116.469 80.633 116.464 80.6675 116.464L80.6648 116.466Z" fill="#ED1D87"/>
<path d="M80.4791 117.641C80.4632 117.713 80.3916 117.758 80.32 117.742C80.2484 117.726 80.2033 117.654 80.2193 117.583C80.2352 117.511 80.3068 117.466 80.3783 117.482C80.4499 117.498 80.495 117.569 80.4791 117.641Z" fill="#4F2208"/>
<path d="M80.256 117.196C80.24 117.267 80.1684 117.312 80.0968 117.296C80.0253 117.281 79.9802 117.209 79.9961 117.137C80.012 117.066 80.0836 117.021 80.1552 117.037C80.2268 117.053 80.2719 117.124 80.256 117.196Z" fill="#4F2208"/>
<path d="M79.9882 116.763C79.9723 116.835 79.9007 116.88 79.8291 116.864C79.7575 116.848 79.7124 116.777 79.7283 116.705C79.7442 116.634 79.8158 116.588 79.8874 116.604C79.959 116.62 80.0041 116.692 79.9882 116.763Z" fill="#4F2208"/>
<path d="M78.7687 118.429C80.2641 118.429 81.4785 119.646 81.4785 121.138C81.4785 122.631 80.2615 123.848 78.7687 123.848C77.2759 123.848 75.9475 122.607 75.9475 121.138C75.9475 119.67 77.2387 118.429 78.7687 118.429ZM78.7687 123.231C79.9247 123.231 80.8607 122.292 80.8607 121.138C80.8607 119.985 79.9221 119.047 78.7687 119.047C77.6152 119.047 76.5653 120.006 76.5653 121.138C76.5653 122.271 77.5755 123.231 78.7687 123.231Z" fill="#ED1D87"/>
<path d="M77.4698 116.482C80.0364 116.482 81.3754 119.653 81.4311 119.789C81.4947 119.948 81.4205 120.128 81.2641 120.192C81.1076 120.255 80.9247 120.184 80.861 120.025C80.8478 119.996 79.6228 117.1 77.4671 117.1C77.1648 117.1 76.9448 117.174 76.8281 117.318C76.7167 117.45 76.7273 117.609 76.7433 117.691C76.7751 117.858 76.6663 118.02 76.4993 118.052C76.3323 118.084 76.1705 117.975 76.1387 117.808C76.0751 117.484 76.1546 117.164 76.3535 116.925C76.5205 116.724 76.8467 116.482 77.4671 116.482H77.4698Z" fill="#ED1D87"/>
<path d="M77.0236 121.138C77.0236 120.226 77.8376 119.487 78.7497 119.487C79.6618 119.487 80.4016 120.226 80.4016 121.138C80.4016 122.051 79.6618 122.79 78.7497 122.79C77.8376 122.79 77.0236 122.051 77.0236 121.141V121.138Z" fill="#8B3B16"/>
<path d="M78.1746 121.138C78.1746 120.849 78.4345 120.613 78.7235 120.613C79.0125 120.613 79.2485 120.849 79.2485 121.138C79.2485 121.427 79.0125 121.663 78.7235 121.663C78.4345 121.663 78.1746 121.427 78.1746 121.138Z" fill="#ED1D87"/>
<path d="M78.7155 121.851C78.7473 121.851 78.7738 121.867 78.8375 121.958C78.8375 121.96 79.0496 122.265 79.0151 122.353C79.0045 122.382 78.9913 122.419 78.742 122.419C78.4716 122.419 78.4398 122.382 78.4292 122.369C78.4 122.334 78.4106 122.286 78.4424 122.22C78.4424 122.217 78.6227 121.849 78.7182 121.849L78.7155 121.851ZM78.9064 122.3C78.8825 122.236 78.7738 122.05 78.7155 121.979C78.6625 122.045 78.5538 122.225 78.5273 122.3C78.5617 122.302 78.6413 122.31 78.742 122.31C78.8295 122.31 78.8825 122.305 78.9091 122.3H78.9064Z" fill="white"/>
<path d="M78.6889 119.76C78.9594 119.76 78.9912 119.797 79.0018 119.81C79.031 119.845 79.0204 119.892 78.9886 119.959C78.9886 119.961 78.8083 120.33 78.7128 120.33C78.6783 120.33 78.6492 120.303 78.5935 120.224C78.5935 120.221 78.3814 119.914 78.4158 119.826C78.4264 119.797 78.4397 119.76 78.6889 119.76ZM78.9037 119.882C78.8692 119.879 78.7897 119.871 78.6889 119.871C78.6014 119.871 78.5484 119.876 78.5219 119.882C78.5458 119.945 78.6571 120.131 78.7128 120.203C78.7658 120.136 78.8745 119.956 78.9011 119.882H78.9037Z" fill="white"/>
<path d="M77.4826 120.786C77.5568 120.786 77.9545 121.001 77.9545 121.091C77.9545 121.189 77.5382 121.393 77.4773 121.393L77.4507 121.388C77.4163 121.374 77.403 121.335 77.3977 121.3C77.3818 121.221 77.3712 120.857 77.4349 120.802L77.4507 120.788H77.4852L77.4826 120.786ZM77.8273 121.091C77.7583 121.035 77.578 120.926 77.5038 120.9C77.4905 120.969 77.4905 121.202 77.5038 121.282C77.5648 121.258 77.7557 121.146 77.8273 121.091Z" fill="white"/>
<path d="M79.9516 120.786L79.9781 120.791C80.0126 120.804 80.0258 120.844 80.0311 120.878C80.0471 120.963 80.0577 121.321 79.994 121.377L79.9781 121.39H79.9437C79.8694 121.393 79.4717 121.181 79.4717 121.088C79.4717 120.99 79.888 120.786 79.949 120.786H79.9516ZM79.9251 121.279C79.9384 121.21 79.9384 120.987 79.9251 120.902C79.8482 120.932 79.6705 121.035 79.6016 121.088C79.6705 121.144 79.8509 121.252 79.9251 121.279Z" fill="white"/>
<path d="M78.1111 121.608C78.1323 121.608 78.1562 121.608 78.1747 121.629C78.1986 121.653 78.2012 121.692 78.1827 121.788C78.1827 121.791 78.1138 122.156 78.0289 122.194L77.9997 122.199C77.9812 122.199 77.9308 122.199 77.7452 122.003C77.5967 121.844 77.5994 121.809 77.5994 121.788C77.6073 121.666 78.0819 121.602 78.1058 121.602H78.1084L78.1111 121.608ZM77.9944 122.082C78.021 122.021 78.0766 121.812 78.0872 121.719C77.9918 121.727 77.7929 121.78 77.724 121.814C77.7664 121.873 77.9282 122.037 77.9944 122.082Z" fill="#4F2208"/>
<path d="M79.4232 119.98C79.4417 119.98 79.4921 119.98 79.6777 120.176C79.8262 120.335 79.8236 120.37 79.8236 120.391C79.8156 120.513 79.341 120.576 79.3171 120.576C79.2959 120.576 79.2694 120.576 79.2535 120.555C79.2323 120.534 79.2243 120.502 79.2455 120.396C79.2455 120.393 79.3144 120.027 79.3993 119.99L79.4285 119.985H79.4258L79.4232 119.98ZM79.7042 120.37C79.6618 120.311 79.5 120.147 79.4338 120.102C79.4072 120.163 79.3516 120.372 79.341 120.465C79.4444 120.454 79.6379 120.407 79.7042 120.372V120.37Z" fill="#4F2208"/>
<path d="M78.0078 119.982H78.0105C78.0555 119.985 78.0794 120.028 78.1059 120.096C78.1059 120.099 78.2411 120.486 78.1749 120.555C78.1563 120.574 78.1298 120.576 78.1112 120.576C78.0476 120.576 77.6472 120.499 77.6074 120.412C77.5889 120.375 77.6154 120.338 77.626 120.322C77.6737 120.248 77.923 119.985 78.0052 119.985L78.0078 119.982ZM78.0847 120.462C78.0768 120.378 78.0264 120.176 77.9946 120.104C77.923 120.155 77.7692 120.306 77.7241 120.37C77.7824 120.393 77.9893 120.452 78.0874 120.462H78.0847Z" fill="#4F2208"/>
<path d="M79.3145 121.608C79.3781 121.608 79.7785 121.685 79.8183 121.772C79.8368 121.809 79.8103 121.846 79.7997 121.862C79.752 121.936 79.5027 122.196 79.4205 122.196C79.3702 122.194 79.3463 122.151 79.3198 122.082C79.3198 122.08 79.1845 121.692 79.2508 121.624C79.2694 121.605 79.2959 121.602 79.3145 121.602V121.608ZM79.7042 121.812C79.6459 121.788 79.4391 121.73 79.341 121.719C79.3489 121.806 79.3993 122.011 79.4364 122.082C79.4948 122.04 79.6592 121.878 79.7042 121.812Z" fill="#4F2208"/>
<path d="M76.9839 117.578C76.9839 117.458 77.09 117.363 77.2093 117.363C77.3286 117.363 77.4241 117.458 77.4241 117.578C77.4241 117.697 77.3286 117.792 77.2093 117.792C77.09 117.792 76.9839 117.697 76.9839 117.578Z" fill="#4F2208"/>
<path d="M82.3848 128.701C82.3848 127.823 83.1696 127.11 84.0473 127.11C84.9249 127.11 85.6355 127.82 85.6355 128.701C85.6355 129.581 84.9249 130.291 84.0473 130.291C83.1696 130.291 82.3848 129.581 82.3848 128.701Z" fill="#FF8915"/>
<path d="M83.0162 128.701C83.0162 128.165 83.4962 127.73 84.0318 127.73C84.5674 127.73 85.0022 128.165 85.0022 128.701C85.0022 129.236 84.5674 129.671 84.0318 129.671C83.4962 129.671 83.0162 129.236 83.0162 128.701Z" fill="#AAD044"/>
<path d="M82.5336 134.229C82.5336 132.169 84.3764 130.498 86.4339 130.498C88.4915 130.498 90.1646 132.169 90.1646 134.229C90.1646 136.289 88.4941 137.96 86.4339 137.96C84.3737 137.96 82.5336 136.289 82.5336 134.229Z" fill="#FBA819"/>
<path d="M89.3798 126.974C89.5786 126.974 89.7642 127.099 89.8332 127.298C90.6578 129.674 90.6445 133.054 90.6419 134.165V134.343C90.6419 134.608 90.4271 134.82 90.162 134.82C89.8968 134.82 89.6847 134.605 89.6847 134.343V134.163C89.6873 133.091 89.7006 129.835 88.929 127.613C88.8442 127.364 88.9741 127.091 89.226 127.003C89.279 126.985 89.332 126.977 89.3824 126.977L89.3798 126.974Z" fill="#ED1D87"/>
<path d="M89.0909 128.801C89.0643 128.913 88.953 128.982 88.8416 128.958C88.7303 128.931 88.6613 128.82 88.6852 128.709C88.7117 128.597 88.8231 128.528 88.9344 128.552C89.0458 128.579 89.1147 128.69 89.0909 128.801Z" fill="#4F2208"/>
<path d="M88.7459 128.109C88.7194 128.221 88.6081 128.29 88.4967 128.266C88.3854 128.239 88.3164 128.128 88.3403 128.017C88.3668 127.905 88.4782 127.836 88.5895 127.86C88.7009 127.887 88.7698 127.998 88.7459 128.109Z" fill="#4F2208"/>
<path d="M88.3322 127.436C88.3056 127.547 88.1943 127.616 88.0829 127.592C87.9715 127.566 87.9026 127.454 87.9265 127.343C87.953 127.232 88.0644 127.163 88.1757 127.187C88.2871 127.213 88.356 127.324 88.3322 127.436Z" fill="#4F2208"/>
<path d="M86.4339 130.021C88.754 130.021 90.6419 131.909 90.6419 134.229C90.6419 136.549 88.754 138.437 86.4339 138.437C84.1139 138.437 82.0536 136.509 82.0536 134.229C82.0536 131.949 84.0608 130.021 86.4339 130.021ZM86.4339 137.48C88.2264 137.48 89.6847 136.021 89.6847 134.232C89.6847 132.442 88.2264 130.983 86.4339 130.983C84.6415 130.983 83.0108 132.471 83.0108 134.234C83.0108 135.998 84.5779 137.482 86.4339 137.482V137.48Z" fill="#ED1D87"/>
<path d="M84.4241 126.998C88.412 126.998 90.4907 131.922 90.5782 132.132C90.679 132.376 90.5623 132.657 90.3184 132.757C90.0745 132.858 89.7934 132.742 89.6926 132.498C89.6741 132.453 87.7703 127.955 84.4241 127.955C83.9574 127.955 83.6154 128.072 83.4324 128.292C83.2627 128.499 83.2787 128.746 83.3025 128.873C83.3529 129.133 83.1832 129.385 82.9233 129.435C82.6661 129.485 82.4116 129.316 82.3612 129.056C82.2658 128.557 82.3851 128.056 82.6927 127.682C82.9499 127.37 83.4616 126.998 84.4241 126.998Z" fill="#ED1D87"/>
<path d="M83.727 134.229C83.727 132.816 84.9918 131.667 86.4077 131.667C87.8236 131.667 88.9691 132.816 88.9691 134.229C88.9691 135.642 87.8209 136.79 86.4077 136.79C84.9944 136.79 83.727 135.642 83.727 134.229Z" fill="#8B3B16"/>
<path d="M85.5139 134.229C85.5139 133.778 85.9169 133.415 86.3677 133.415C86.8185 133.415 87.1817 133.778 87.1817 134.229C87.1817 134.68 86.8185 135.043 86.3677 135.043C85.9169 135.043 85.5139 134.68 85.5139 134.229Z" fill="#ED1D87"/>
<path d="M86.3567 135.337C86.4044 135.337 86.4469 135.364 86.545 135.504C86.5476 135.509 86.8737 135.981 86.8207 136.119C86.8048 136.164 86.7809 136.223 86.3938 136.223C85.9749 136.223 85.9245 136.164 85.9059 136.146C85.8582 136.093 85.8768 136.019 85.9245 135.915C85.9245 135.91 86.2056 135.337 86.3541 135.337H86.3567ZM86.651 136.034C86.6113 135.939 86.4416 135.645 86.3541 135.536C86.2692 135.639 86.0995 135.918 86.0597 136.034C86.1127 136.04 86.2374 136.05 86.3938 136.05C86.5317 136.05 86.6113 136.042 86.651 136.034Z" fill="white"/>
<path d="M86.3147 132.092C86.7337 132.092 86.7841 132.15 86.8026 132.169C86.8503 132.222 86.8318 132.296 86.7841 132.399C86.7841 132.405 86.503 132.977 86.3545 132.977C86.3015 132.977 86.2537 132.938 86.1689 132.813C86.1662 132.808 85.8401 132.33 85.8905 132.195C85.9064 132.15 85.9303 132.092 86.3174 132.092H86.3147ZM86.6462 132.28C86.5932 132.275 86.4685 132.264 86.3121 132.264C86.1742 132.264 86.0947 132.272 86.0549 132.28C86.0947 132.375 86.2644 132.67 86.3519 132.778C86.4367 132.675 86.6064 132.397 86.6462 132.28Z" fill="white"/>
<path d="M84.4406 133.683C84.5546 133.683 85.1724 134.014 85.1724 134.157C85.1724 134.309 84.5255 134.629 84.4327 134.629L84.3902 134.621C84.3346 134.6 84.316 134.542 84.3054 134.484C84.2815 134.356 84.2656 133.794 84.3637 133.707L84.3876 133.685L84.438 133.68L84.4406 133.683ZM84.9762 134.157C84.8702 134.073 84.5891 133.903 84.4724 133.86C84.4539 133.972 84.4512 134.327 84.4724 134.452C84.5679 134.412 84.8622 134.242 84.9709 134.155L84.9762 134.157Z" fill="white"/>
<path d="M88.2737 133.683L88.3161 133.691C88.3718 133.712 88.3904 133.77 88.401 133.829C88.4249 133.959 88.4434 134.518 88.3427 134.606L88.3188 134.627L88.2684 134.632C88.1544 134.632 87.5366 134.301 87.5366 134.157C87.5366 134.006 88.1836 133.686 88.2764 133.686L88.2737 133.683ZM88.234 134.452C88.2525 134.346 88.2552 133.998 88.234 133.866C88.1147 133.911 87.8389 134.07 87.7328 134.155C87.8389 134.24 88.12 134.409 88.2366 134.452H88.234Z" fill="white"/>
<path d="M85.4187 134.958C85.4505 134.958 85.4903 134.961 85.5195 134.993C85.5593 135.032 85.5619 135.091 85.5354 135.242C85.5354 135.247 85.4267 135.815 85.2941 135.876L85.2517 135.884C85.2252 135.884 85.143 135.884 84.8566 135.581C84.6259 135.337 84.6312 135.279 84.6312 135.25C84.6445 135.062 85.379 134.964 85.4187 134.964V134.958ZM85.2358 135.698C85.2755 135.603 85.363 135.276 85.3789 135.136C85.2305 135.149 84.9202 135.231 84.8142 135.282C84.8778 135.372 85.1297 135.629 85.2358 135.698Z" fill="#4F2208"/>
<path d="M87.4549 132.431C87.4814 132.431 87.5636 132.431 87.8499 132.734C88.0806 132.978 88.0753 133.036 88.0753 133.065C88.0647 133.253 87.3276 133.351 87.2878 133.351C87.256 133.351 87.2162 133.349 87.1871 133.317C87.1526 133.283 87.142 133.237 87.1738 133.068C87.1738 133.062 87.2825 132.495 87.4125 132.437L87.4549 132.429V132.431ZM87.8924 133.036C87.8287 132.946 87.5768 132.689 87.4708 132.62C87.431 132.715 87.3435 133.041 87.3276 133.182C87.4867 133.166 87.7863 133.089 87.8924 133.039V133.036Z" fill="#4F2208"/>
<path d="M85.2567 132.434H85.262C85.3309 132.436 85.3707 132.503 85.4105 132.609C85.4105 132.614 85.6199 133.216 85.5165 133.319C85.4874 133.349 85.4476 133.354 85.4184 133.354C85.323 133.354 84.6972 133.235 84.6362 133.097C84.6097 133.038 84.6495 132.98 84.6654 132.954C84.7396 132.84 85.1268 132.434 85.2567 132.434ZM85.3786 133.182C85.3654 133.049 85.2885 132.739 85.2354 132.625C85.1241 132.699 84.8828 132.938 84.8139 133.038C84.904 133.075 85.2248 133.166 85.376 133.182H85.3786Z" fill="#4F2208"/>
<path d="M87.288 134.958C87.3835 134.958 88.0093 135.077 88.0703 135.212C88.0968 135.271 88.057 135.329 88.0411 135.356C87.9668 135.47 87.5797 135.875 87.4498 135.875C87.3729 135.873 87.3331 135.806 87.2933 135.698C87.2933 135.692 87.0839 135.09 87.1873 134.987C87.2164 134.958 87.2562 134.953 87.2854 134.953L87.288 134.958ZM87.8926 135.273C87.8024 135.236 87.4816 135.146 87.3305 135.13C87.3437 135.268 87.4233 135.584 87.4763 135.692C87.5665 135.629 87.821 135.377 87.8926 135.271V135.273Z" fill="#4F2208"/>
<path d="M83.6686 128.7C83.6686 128.518 83.833 128.366 84.0186 128.366C84.2042 128.366 84.3527 128.515 84.3527 128.7C84.3527 128.886 84.2042 129.035 84.0186 129.035C83.833 129.035 83.6686 128.886 83.6686 128.7Z" fill="#4F2208"/>
<path d="M86.4074 105.762C86.4074 105.195 85.9009 104.739 85.3362 104.739C84.7714 104.739 84.3127 105.198 84.3127 105.762C84.3127 106.327 84.7714 106.786 85.3362 106.786C85.9009 106.786 86.4074 106.327 86.4074 105.762Z" fill="#FF8915"/>
<path d="M85.9995 105.762C85.9995 105.418 85.6919 105.136 85.3446 105.136C84.9972 105.136 84.7188 105.418 84.7188 105.762C84.7188 106.107 84.9999 106.388 85.3446 106.388C85.6893 106.388 85.9995 106.107 85.9995 105.762Z" fill="#AAD044"/>
<path d="M86.3095 109.323C86.3095 107.997 85.1242 106.921 83.7958 106.921C82.4674 106.921 81.3936 107.997 81.3936 109.323C81.3936 110.649 82.4701 111.725 83.7958 111.725C85.1216 111.725 86.3095 110.652 86.3095 109.323Z" fill="#FBA819"/>
<path d="M81.9002 104.651C81.7729 104.651 81.6536 104.731 81.6085 104.858C81.0782 106.388 81.0861 108.565 81.0888 109.281V109.395C81.0888 109.565 81.2267 109.702 81.3964 109.702C81.5661 109.702 81.7039 109.565 81.7039 109.395V109.278C81.7013 108.589 81.6933 106.492 82.1892 105.06C82.2448 104.898 82.16 104.723 81.9983 104.667C81.9638 104.654 81.932 104.649 81.8975 104.649L81.9002 104.651Z" fill="#ED1D87"/>
<path d="M82.0882 105.829C82.1041 105.9 82.1757 105.945 82.2473 105.929C82.3189 105.913 82.3639 105.842 82.348 105.77C82.3321 105.699 82.2605 105.654 82.1889 105.669C82.1174 105.685 82.0723 105.757 82.0882 105.829Z" fill="#4F2208"/>
<path d="M82.3109 105.381C82.3268 105.452 82.3984 105.497 82.47 105.481C82.5415 105.465 82.5866 105.394 82.5707 105.322C82.5548 105.251 82.4832 105.206 82.4116 105.221C82.34 105.237 82.295 105.309 82.3109 105.381Z" fill="#4F2208"/>
<path d="M82.5786 104.948C82.5945 105.02 82.6662 105.065 82.7377 105.049C82.8093 105.033 82.8544 104.962 82.8385 104.89C82.8226 104.818 82.751 104.773 82.6794 104.789C82.6078 104.805 82.5627 104.877 82.5786 104.948Z" fill="#4F2208"/>
<path d="M83.7987 106.616C82.3032 106.616 81.0888 107.833 81.0888 109.326C81.0888 110.819 82.3059 112.036 83.7987 112.036C85.2915 112.036 86.6199 110.795 86.6199 109.326C86.6199 107.857 85.3286 106.616 83.7987 106.616ZM83.7987 111.418C82.6426 111.418 81.7066 110.479 81.7066 109.326C81.7066 108.172 82.6453 107.234 83.7987 107.234C84.9521 107.234 86.0021 108.194 86.0021 109.326C86.0021 110.458 84.9919 111.418 83.7987 111.418Z" fill="#ED1D87"/>
<path d="M85.095 104.667C82.5284 104.667 81.1893 107.838 81.1337 107.974C81.07 108.133 81.1443 108.313 81.3007 108.377C81.4572 108.44 81.6401 108.369 81.7037 108.21C81.717 108.181 82.942 105.285 85.0977 105.285C85.3999 105.285 85.62 105.359 85.7367 105.503C85.848 105.635 85.8375 105.794 85.8215 105.876C85.7897 106.043 85.8984 106.205 86.0655 106.237C86.2325 106.269 86.3942 106.16 86.4261 105.993C86.4897 105.67 86.4102 105.349 86.2113 105.11C86.0443 104.909 85.7181 104.667 85.0977 104.667H85.095Z" fill="#ED1D87"/>
<path d="M85.5429 109.323C85.5429 108.411 84.7289 107.671 83.8168 107.671C82.9047 107.671 82.1649 108.411 82.1649 109.323C82.1649 110.235 82.9047 110.975 83.8168 110.975C84.7289 110.975 85.5429 110.235 85.5429 109.326V109.323Z" fill="#8B3B16"/>
<path d="M84.3926 109.323C84.3926 109.034 84.1327 108.798 83.8437 108.798C83.5547 108.798 83.3187 109.034 83.3187 109.323C83.3187 109.612 83.5547 109.848 83.8437 109.848C84.1327 109.848 84.3926 109.612 84.3926 109.323Z" fill="#ED1D87"/>
<path d="M83.8491 110.037C83.8173 110.037 83.7908 110.053 83.7272 110.143C83.7272 110.145 83.515 110.45 83.5495 110.538C83.5601 110.567 83.5734 110.604 83.8226 110.604C84.0931 110.604 84.1249 110.567 84.1355 110.554C84.1647 110.519 84.1541 110.471 84.1222 110.405C84.1222 110.402 83.9419 110.034 83.8465 110.034L83.8491 110.037ZM83.6582 110.487C83.6821 110.424 83.7908 110.238 83.8491 110.167C83.9022 110.233 84.0109 110.413 84.0374 110.487C84.0029 110.49 83.9234 110.498 83.8226 110.498C83.7351 110.498 83.6821 110.493 83.6556 110.487H83.6582Z" fill="white"/>
<path d="M83.8757 107.947C83.6052 107.947 83.5734 107.984 83.5628 107.997C83.5337 108.032 83.5442 108.08 83.5761 108.146C83.5761 108.149 83.7564 108.517 83.8518 108.517C83.8863 108.517 83.9155 108.491 83.9711 108.411C83.9711 108.408 84.1833 108.101 84.1488 108.013C84.1382 107.984 84.1249 107.947 83.8757 107.947ZM83.6636 108.066C83.698 108.064 83.7776 108.056 83.8783 108.056C83.9658 108.056 84.0189 108.061 84.0454 108.066C84.0215 108.13 83.9102 108.316 83.8545 108.387C83.8015 108.321 83.6927 108.141 83.6662 108.066H83.6636Z" fill="white"/>
<path d="M85.085 108.973C85.0107 108.973 84.613 109.188 84.613 109.278C84.613 109.376 85.0293 109.581 85.0903 109.581L85.1168 109.575C85.1513 109.562 85.1645 109.522 85.1698 109.488C85.1857 109.408 85.1963 109.045 85.1327 108.989L85.1168 108.976H85.0823L85.085 108.973ZM84.7403 109.276C84.8092 109.22 84.9895 109.111 85.0638 109.085C85.077 109.154 85.077 109.387 85.0638 109.467C85.0028 109.443 84.8119 109.331 84.7403 109.276Z" fill="white"/>
<path d="M82.6131 108.973L82.5866 108.979C82.5521 108.992 82.5389 109.032 82.5336 109.066C82.5177 109.151 82.5071 109.509 82.5707 109.565L82.5866 109.578H82.6211C82.6953 109.581 83.093 109.368 83.093 109.276C83.093 109.178 82.6767 108.973 82.6157 108.973H82.6131ZM82.6396 109.467C82.6264 109.398 82.6264 109.175 82.6396 109.09C82.7165 109.119 82.8942 109.223 82.9631 109.276C82.8942 109.331 82.7139 109.44 82.6396 109.467Z" fill="white"/>
<path d="M84.4538 109.793C84.4326 109.793 84.4087 109.793 84.3901 109.814C84.3663 109.838 84.3636 109.878 84.3822 109.973C84.3822 109.976 84.4511 110.342 84.5359 110.379L84.5651 110.384C84.5837 110.384 84.6341 110.384 84.8197 110.188C84.9682 110.029 84.9655 109.994 84.9655 109.973C84.9575 109.851 84.4829 109.787 84.4591 109.787H84.4564L84.4538 109.793ZM84.5704 110.27C84.5439 110.209 84.4882 110 84.4776 109.907C84.5731 109.915 84.7719 109.968 84.8409 110.002C84.7985 110.06 84.6367 110.225 84.5704 110.27Z" fill="#4F2208"/>
<path d="M83.1411 108.165C83.1225 108.165 83.0721 108.164 82.8865 108.361C82.738 108.52 82.7407 108.554 82.7407 108.575C82.7486 108.697 83.2232 108.761 83.2471 108.761C83.2683 108.761 83.2948 108.761 83.3107 108.74C83.332 108.719 83.3399 108.687 83.3187 108.581C83.3187 108.578 83.2498 108.212 83.1649 108.175L83.1358 108.17H83.1384L83.1411 108.165ZM82.8627 108.554C82.9051 108.496 83.0668 108.332 83.1331 108.287C83.1596 108.347 83.2153 108.557 83.2259 108.65C83.1225 108.639 82.9289 108.591 82.8627 108.557V108.554Z" fill="#4F2208"/>
<path d="M84.557 108.167H84.5543C84.5092 108.17 84.4854 108.212 84.4589 108.281C84.4589 108.284 84.3236 108.671 84.3899 108.74C84.4085 108.759 84.435 108.761 84.4536 108.761C84.5172 108.761 84.9176 108.684 84.9574 108.597C84.9759 108.56 84.9494 108.523 84.9388 108.507C84.8911 108.432 84.6418 108.17 84.5596 108.17L84.557 108.167ZM84.4801 108.647C84.488 108.562 84.5384 108.361 84.5702 108.289C84.6418 108.34 84.7956 108.491 84.8407 108.554C84.7823 108.578 84.5755 108.637 84.4774 108.647H84.4801Z" fill="#4F2208"/>
<path d="M83.2498 109.793C83.1862 109.793 82.7858 109.87 82.746 109.957C82.7275 109.994 82.754 110.031 82.7646 110.047C82.8123 110.121 83.0616 110.381 83.1438 110.381C83.1941 110.379 83.218 110.336 83.2445 110.267C83.2445 110.265 83.3798 109.878 83.3135 109.809C83.2949 109.79 83.2684 109.787 83.2498 109.787V109.793ZM82.8601 109.997C82.9184 109.973 83.1252 109.915 83.2233 109.904C83.2154 109.992 83.165 110.196 83.1279 110.267C83.0695 110.225 82.9051 110.063 82.8601 109.997Z" fill="#4F2208"/>
<path d="M85.5799 105.762C85.5799 105.643 85.4739 105.548 85.3546 105.548C85.2352 105.548 85.1398 105.643 85.1398 105.762C85.1398 105.882 85.2352 105.977 85.3546 105.977C85.4739 105.977 85.5799 105.882 85.5799 105.762Z" fill="#4F2208"/>
<path d="M94.3651 99.9689C94.3651 100.528 94.8636 100.982 95.4257 100.982C95.9878 100.982 96.4385 100.528 96.4385 99.9689C96.4385 99.4094 95.9852 98.9561 95.4257 98.9561C94.8662 98.9561 94.3651 99.4094 94.3651 99.9689Z" fill="#FF8915"/>
<path d="M94.7679 99.9689C94.7679 100.311 95.0728 100.587 95.4149 100.587C95.7569 100.587 96.0327 100.311 96.0327 99.9689C96.0327 99.6269 95.7569 99.3511 95.4149 99.3511C95.0728 99.3511 94.7679 99.6269 94.7679 99.9689Z" fill="#AAD044"/>
<path d="M94.4604 96.4475C94.4604 97.76 95.6324 98.8234 96.9449 98.8234C98.2574 98.8234 99.3207 97.76 99.3207 96.4475C99.3207 95.135 98.2574 94.0718 96.9449 94.0718C95.6324 94.0718 94.4604 95.135 94.4604 96.4475Z" fill="#FBA819"/>
<path d="M98.8221 101.069C98.9494 101.069 99.0687 100.99 99.1111 100.865C99.6361 99.3509 99.6282 97.1979 99.6255 96.49V96.3786C99.6255 96.2116 99.4876 96.0737 99.3206 96.0737C99.1535 96.0737 99.0157 96.2116 99.0157 96.3786V96.4927C99.0183 97.1741 99.0263 99.2502 98.5358 100.666C98.4827 100.825 98.5649 101 98.724 101.056C98.7585 101.069 98.7903 101.074 98.8248 101.074H98.8221V101.069Z" fill="#ED1D87"/>
<path d="M98.639 99.9052C98.623 99.8336 98.5515 99.7886 98.4825 99.8045C98.4109 99.8204 98.3659 99.892 98.3818 99.9636C98.3977 100.035 98.4693 100.08 98.5382 100.064C98.6098 100.048 98.6549 99.9768 98.639 99.9052Z" fill="#4F2208"/>
<path d="M98.4164 100.345C98.4005 100.274 98.3289 100.229 98.2599 100.245C98.1883 100.261 98.1433 100.332 98.1592 100.404C98.1751 100.475 98.2467 100.52 98.3156 100.504C98.3872 100.489 98.4323 100.417 98.4164 100.345Z" fill="#4F2208"/>
<path d="M98.1541 100.775C98.1382 100.703 98.0666 100.658 97.9976 100.674C97.926 100.69 97.881 100.761 97.8969 100.833C97.9128 100.905 97.9844 100.95 98.0533 100.934C98.1249 100.918 98.17 100.846 98.1541 100.775Z" fill="#4F2208"/>
<path d="M96.944 99.1257C98.4209 99.1257 99.6247 97.9246 99.6247 96.445C99.6247 94.9655 98.4236 93.7644 96.944 93.7644C95.4645 93.7644 94.1546 94.992 94.1546 96.445C94.1546 97.8981 95.4327 99.1257 96.944 99.1257ZM96.944 94.3769C98.0842 94.3769 99.0149 95.3048 99.0149 96.4476C99.0149 97.5904 98.0868 98.5185 96.944 98.5185C95.8012 98.5185 94.7645 97.5692 94.7645 96.4476C94.7645 95.326 95.7641 94.3769 96.944 94.3769Z" fill="#ED1D87"/>
<path d="M95.664 101.053C98.2042 101.053 99.5273 97.9165 99.5829 97.7839C99.6466 97.6275 99.5723 97.4498 99.4185 97.3862C99.2621 97.3226 99.0845 97.3942 99.0208 97.5506C99.0076 97.5798 97.7959 100.443 95.6667 100.443C95.3697 100.443 95.1523 100.369 95.0356 100.229C94.9269 100.096 94.9375 99.9396 94.9534 99.8601C94.9852 99.6957 94.8792 99.5339 94.7121 99.5021C94.5477 99.4703 94.386 99.5764 94.3542 99.7434C94.2932 100.062 94.3701 100.383 94.5637 100.618C94.728 100.817 95.0515 101.056 95.6667 101.056L95.664 101.053Z" fill="#ED1D87"/>
<path d="M95.2214 96.4475C95.2214 97.3491 96.0274 98.0783 96.929 98.0783C97.8305 98.0783 98.5596 97.3464 98.5596 96.4475C98.5596 95.5487 97.8278 94.8169 96.929 94.8169C96.0301 94.8169 95.2214 95.5487 95.2214 96.4475Z" fill="#8B3B16"/>
<path d="M96.3586 96.4474C96.3586 96.7338 96.6131 96.9672 96.9021 96.9672C97.1911 96.9672 97.4218 96.7338 97.4218 96.4474C97.4218 96.1611 97.1885 95.9277 96.9021 95.9277C96.6158 95.9277 96.3586 96.1611 96.3586 96.4474Z" fill="#ED1D87"/>
<path d="M96.8942 95.7423C96.9233 95.7423 96.9525 95.7264 97.0135 95.6363C97.0135 95.6336 97.223 95.3313 97.1911 95.2464C97.1805 95.2173 97.1673 95.1829 96.9207 95.1829C96.6555 95.1829 96.6211 95.22 96.6104 95.2332C96.5813 95.2677 96.5919 95.3128 96.6237 95.3817C96.6237 95.3844 96.8013 95.7502 96.8968 95.7502L96.8942 95.7423ZM97.0824 95.2968C97.0586 95.3578 96.9499 95.5461 96.8942 95.615C96.8411 95.5487 96.7324 95.371 96.7059 95.2968C96.7404 95.2941 96.8173 95.2862 96.918 95.2862C97.0055 95.2862 97.0559 95.2915 97.0824 95.2968Z" fill="white"/>
<path d="M96.8676 97.8106C97.1328 97.8106 97.1673 97.7735 97.1779 97.7603C97.207 97.7258 97.1964 97.6807 97.1646 97.6118C97.1646 97.6091 96.987 97.2432 96.8915 97.2432C96.857 97.2432 96.8279 97.2698 96.7748 97.3493C96.7748 97.352 96.5654 97.6569 96.5972 97.7417C96.6078 97.7709 96.621 97.8053 96.8676 97.8053V97.8106ZM97.0798 97.6887C97.0453 97.6913 96.9684 97.6993 96.8676 97.6993C96.7801 97.6993 96.7297 97.694 96.7032 97.6887C96.7271 97.6277 96.8358 97.4395 96.8915 97.3706C96.9445 97.4368 97.0532 97.6144 97.0798 97.6887Z" fill="white"/>
<path d="M95.6746 96.7948C95.7462 96.7948 96.1413 96.5827 96.1413 96.4926C96.1413 96.3971 95.7303 96.1929 95.6693 96.1929L95.6428 96.1982C95.6083 96.2114 95.5951 96.2486 95.5898 96.2831C95.5739 96.3627 95.5659 96.7232 95.6269 96.7763L95.6428 96.7895H95.6773V96.7922L95.6746 96.7948ZM96.0167 96.4926C95.9504 96.5456 95.7701 96.6543 95.6958 96.6808C95.6826 96.6119 95.6826 96.3838 95.6958 96.3016C95.7568 96.3255 95.9451 96.4342 96.014 96.4899L96.0167 96.4926Z" fill="white"/>
<path d="M98.1165 96.795L98.143 96.7897C98.1775 96.7764 98.1907 96.7394 98.196 96.7023C98.2119 96.6201 98.2225 96.2647 98.1589 96.209L98.143 96.1958H98.1085C98.037 96.1932 97.6419 96.4053 97.6419 96.4954C97.6419 96.5909 98.0529 96.795 98.1139 96.795H98.1165ZM98.09 96.3072C98.1032 96.3761 98.1032 96.5962 98.09 96.6811C98.0157 96.6519 97.8381 96.5512 97.7718 96.4981C97.8381 96.4451 98.0184 96.3364 98.0926 96.3099L98.09 96.3072Z" fill="white"/>
<path d="M96.2977 95.981C96.3189 95.981 96.3427 95.981 96.3613 95.9598C96.3852 95.9359 96.3878 95.8961 96.3692 95.8007C96.3692 95.798 96.3003 95.4348 96.2155 95.3976L96.1889 95.3923C96.1704 95.3923 96.12 95.3923 95.937 95.5859C95.7886 95.7423 95.7939 95.7795 95.7939 95.7954C95.8018 95.9147 96.2712 95.9784 96.295 95.9784L96.2977 95.981ZM96.181 95.5117C96.2075 95.57 96.2632 95.7822 96.2711 95.8697C96.1757 95.8617 95.9795 95.8113 95.9105 95.7769C95.9503 95.7185 96.112 95.5568 96.1783 95.5117H96.181Z" fill="#4F2208"/>
<path d="M97.5945 97.5931C97.6131 97.5931 97.6635 97.5931 97.8464 97.3995C97.9949 97.2431 97.9896 97.2059 97.9896 97.19C97.9816 97.0707 97.5123 97.0071 97.4885 97.0071C97.4672 97.0071 97.4434 97.0071 97.4248 97.0283C97.4036 97.0495 97.3957 97.0812 97.4169 97.1873C97.4169 97.19 97.4858 97.5506 97.5706 97.5903L97.5971 97.5956L97.5945 97.5931ZM97.8729 97.2085C97.8305 97.2669 97.6714 97.4286 97.6051 97.4737C97.5786 97.4154 97.5256 97.2059 97.515 97.1157C97.6157 97.1263 97.8066 97.1741 97.8756 97.2059L97.8729 97.2085Z" fill="#4F2208"/>
<path d="M96.1941 97.5904H96.1968C96.2419 97.5877 96.2657 97.5453 96.2922 97.479C96.2922 97.4764 96.4248 97.0946 96.3585 97.0256C96.34 97.0071 96.3134 97.0044 96.2949 97.0044C96.2339 97.0044 95.8362 97.0787 95.7964 97.1662C95.7778 97.2034 95.8043 97.2404 95.8149 97.2563C95.8627 97.3279 96.1093 97.5878 96.1915 97.5878L96.1941 97.5904ZM96.271 97.1131C96.263 97.198 96.2153 97.3942 96.1809 97.4658C96.1119 97.4154 95.9555 97.2669 95.9131 97.2033C95.9714 97.1794 96.1729 97.1238 96.2737 97.1131H96.271Z" fill="#4F2208"/>
<path d="M97.4888 95.9834C97.5498 95.9834 97.9475 95.9092 97.9873 95.8217C98.0059 95.7846 97.9793 95.7475 97.9687 95.7316C97.921 95.66 97.6744 95.4001 97.5922 95.4001C97.5418 95.4028 97.518 95.4452 97.4915 95.5115C97.4915 95.5141 97.3589 95.8959 97.4252 95.9649C97.4437 95.9834 97.4702 95.9861 97.4888 95.9861V95.9834ZM97.8733 95.7819C97.8149 95.8058 97.6134 95.8615 97.5127 95.8721C97.5206 95.7872 97.571 95.5831 97.6055 95.5142C97.6638 95.554 97.8255 95.713 97.8706 95.7819H97.8733Z" fill="#4F2208"/>
<path d="M95.1839 99.9689C95.1839 100.086 95.29 100.181 95.4066 100.181C95.5233 100.181 95.6188 100.086 95.6188 99.9689C95.6188 99.8522 95.5233 99.7568 95.4066 99.7568C95.29 99.7568 95.1839 99.8522 95.1839 99.9689Z" fill="#4F2208"/>
<path d="M91.0658 92.425C91.1295 92.3958 91.209 92.3932 91.278 92.425C92.5878 93.0534 93.6219 95.5644 93.6643 95.6731C93.7147 95.8003 93.6511 95.9409 93.5291 95.9939C93.4018 96.0443 93.2587 95.9859 93.2083 95.8586C93.1977 95.8347 92.2033 93.4166 91.0658 92.8704C90.9439 92.812 90.8909 92.6636 90.9492 92.5416C90.9757 92.4886 91.0181 92.4488 91.0658 92.425Z" fill="#4F2208"/>
<path d="M83.9732 100.067C84.0024 100.069 84.0316 100.067 84.0634 100.059C84.196 100.022 84.2729 99.8863 84.2358 99.7564C83.3979 96.7337 84.6096 93.7719 84.6229 93.7427C84.6759 93.6155 84.6149 93.4724 84.4903 93.4193C84.3657 93.3663 84.2198 93.4273 84.1668 93.5519C84.1138 93.6792 82.8755 96.6965 83.7611 99.8863C83.7903 99.987 83.8778 100.056 83.9759 100.067H83.9732Z" fill="#4F2208"/>
<path d="M89.5997 100.067C89.5705 100.069 89.5413 100.067 89.5095 100.059C89.3769 100.022 89.3001 99.8863 89.3372 99.7564C90.1751 96.7337 88.9633 93.7719 88.95 93.7427C88.897 93.6155 88.958 93.4724 89.0826 93.4193C89.2072 93.3663 89.3531 93.4273 89.4061 93.5519C89.4591 93.6792 90.6974 96.6965 89.8118 99.8863C89.7826 99.987 89.6951 100.056 89.597 100.067H89.5997Z" fill="#4F2208"/>
<path d="M87.023 98.1763C87.092 98.1577 87.153 98.1126 87.1848 98.041C87.7973 96.7232 87.0018 94.1274 86.9673 94.0161C86.9276 93.8861 86.7897 93.8171 86.6598 93.8542C86.5298 93.894 86.4556 94.0319 86.498 94.1618C86.506 94.1857 87.2723 96.6861 86.7393 97.8289C86.681 97.9535 86.7367 98.0993 86.8586 98.1576C86.9117 98.1815 86.97 98.1868 87.023 98.1735V98.1763Z" fill="#4F2208"/>
<path d="M82.934 92.6105C82.8704 92.5814 82.7908 92.5787 82.7219 92.6105C81.412 93.2389 80.378 95.7499 80.3355 95.8586C80.2851 95.9859 80.3488 96.1264 80.4708 96.1794C80.598 96.2298 80.7412 96.1716 80.7916 96.0443C80.8022 96.0204 81.7965 93.6022 82.934 93.056C83.056 92.9977 83.109 92.8491 83.0507 92.7272C83.0242 92.6741 82.9817 92.6344 82.934 92.6105Z" fill="#4F2208"/>
<path d="M65.4666 102.821C65.3552 102.744 65.2995 102.606 65.334 102.468C66.4185 98.1253 69.8866 95.4023 70.0325 95.2883C70.1783 95.1769 70.3878 95.2007 70.4991 95.3465C70.6105 95.4924 70.584 95.7019 70.4408 95.8133C70.4063 95.8398 67.0071 98.5151 65.9809 102.628C65.9359 102.805 65.7556 102.914 65.5753 102.871C65.5355 102.861 65.4957 102.842 65.4639 102.821H65.4666Z" fill="#4F2208"/>
<path d="M67.4446 104.659C67.3836 104.616 67.3359 104.553 67.3147 104.476C67.2643 104.298 67.3677 104.115 67.5453 104.065C69.1893 103.606 71.0825 100.623 71.101 100.594C71.1991 100.437 71.4033 100.39 71.5597 100.488C71.7135 100.589 71.7639 100.79 71.6658 100.946C71.5836 101.079 69.6162 104.179 67.723 104.706C67.6222 104.736 67.5188 104.714 67.4419 104.656L67.4446 104.659Z" fill="#4F2208"/>
<path d="M107.186 103.204C107.149 103.22 107.109 103.23 107.067 103.233C106.884 103.241 106.727 103.1 106.717 102.915C106.507 98.6801 103.694 95.395 103.668 95.3605C103.546 95.2226 103.562 95.0104 103.702 94.8885C103.84 94.7665 104.052 94.7825 104.171 94.923C104.293 95.0636 107.165 98.4097 107.385 102.88C107.393 103.023 107.311 103.148 107.186 103.201V103.204Z" fill="#4F2208"/>
<path d="M104.888 104.62C104.8 104.66 104.694 104.659 104.602 104.612C102.849 103.726 101.523 100.303 101.467 100.157C101.401 99.9849 101.494 99.794 101.661 99.7251C101.833 99.6588 102.024 99.7463 102.093 99.9186C102.106 99.9531 103.382 103.246 104.906 104.015C105.071 104.097 105.137 104.299 105.055 104.463C105.018 104.535 104.959 104.588 104.893 104.617L104.888 104.62Z" fill="#4F2208"/>
<path d="M69.0538 158.808C68.1709 158.808 67.455 158.018 67.455 157.135C67.455 156.252 68.1709 155.536 69.0538 155.536C69.9368 155.536 70.6527 156.252 70.6527 157.135C70.6527 158.018 69.9368 158.808 69.0538 158.808Z" fill="#FF8915"/>
<path d="M69.0532 158.172C68.5123 158.172 68.0748 157.69 68.0748 157.151C68.0748 156.613 68.5123 156.173 69.0532 156.173C69.5941 156.173 70.0316 156.61 70.0316 157.151C70.0316 157.692 69.5941 158.172 69.0532 158.172Z" fill="#AAD044"/>
<path d="M74.6163 158.66C72.5429 158.66 70.8618 156.807 70.8618 154.733C70.8618 152.66 72.5428 150.981 74.6137 150.981C76.6845 150.981 78.3656 152.662 78.3656 154.733C78.3656 156.804 76.6845 158.66 74.6137 158.66H74.6163Z" fill="#FBA819"/>
<path d="M67.3138 151.769C67.3138 151.57 67.4385 151.382 67.6373 151.313C70.029 150.483 73.4309 150.496 74.5472 150.498H74.7248C74.9899 150.498 75.2074 150.713 75.2074 150.981C75.2074 151.249 74.9926 151.464 74.7248 151.464H74.5445C73.468 151.461 70.1907 151.448 67.9529 152.222C67.701 152.309 67.4279 152.177 67.3404 151.925C67.3218 151.872 67.3138 151.819 67.3138 151.766V151.769Z" fill="#ED1D87"/>
<path d="M69.1539 152.058C69.2653 152.084 69.3369 152.196 69.3103 152.307C69.2838 152.418 69.1724 152.49 69.0584 152.463C68.9444 152.437 68.8755 152.326 68.902 152.214C68.9285 152.103 69.0399 152.031 69.1539 152.058Z" fill="#4F2208"/>
<path d="M68.4542 152.405C68.5656 152.431 68.6371 152.543 68.6106 152.654C68.5841 152.766 68.4728 152.837 68.3588 152.811C68.2447 152.784 68.1758 152.673 68.2023 152.561C68.2288 152.45 68.3402 152.378 68.4542 152.405Z" fill="#4F2208"/>
<path d="M67.778 152.824C67.8894 152.851 67.961 152.962 67.9345 153.073C67.9079 153.185 67.7966 153.256 67.6826 153.23C67.5686 153.203 67.4996 153.092 67.5261 152.981C67.5527 152.869 67.664 152.798 67.778 152.824Z" fill="#4F2208"/>
<path d="M70.3819 154.733C70.3819 152.397 72.2804 150.496 74.619 150.496C76.9576 150.496 78.8561 152.395 78.8561 154.733C78.8561 157.072 76.9152 159.14 74.619 159.14C72.3228 159.14 70.3819 157.122 70.3819 154.733ZM77.8883 154.733C77.8883 152.93 76.422 151.464 74.619 151.464C72.816 151.464 71.3497 152.93 71.3497 154.733C71.3497 156.536 72.8478 158.177 74.619 158.177C76.3902 158.177 77.8883 156.6 77.8883 154.733Z" fill="#ED1D87"/>
<path d="M67.3376 156.756C67.3376 152.742 72.2933 150.65 72.5054 150.565C72.752 150.464 73.033 150.581 73.1338 150.825C73.2345 151.069 73.1179 151.353 72.8739 151.453C72.8289 151.472 68.3027 153.389 68.3027 156.754C68.3027 157.223 68.4194 157.568 68.6421 157.751C68.8516 157.923 69.0982 157.907 69.2281 157.883C69.488 157.833 69.7425 158.005 69.7929 158.265C69.8433 158.525 69.6709 158.779 69.4111 158.83C68.9073 158.928 68.4061 158.806 68.0296 158.496C67.7141 158.236 67.3402 157.724 67.3402 156.754L67.3376 156.756Z" fill="#ED1D87"/>
<path d="M74.6165 157.456C73.1926 157.456 72.0392 156.184 72.0392 154.76C72.0392 153.336 73.1953 152.182 74.6165 152.182C76.0377 152.182 77.1938 153.338 77.1938 154.76C77.1938 156.181 76.0377 157.456 74.6165 157.456Z" fill="#8B3B16"/>
<path d="M74.6168 155.658C74.1634 155.658 73.7975 155.253 73.7975 154.799C73.7975 154.346 74.166 153.98 74.6168 153.98C75.0676 153.98 75.4361 154.348 75.4361 154.799C75.4361 155.25 75.0676 155.658 74.6168 155.658Z" fill="#ED1D87"/>
<path d="M75.7326 154.813C75.7326 154.762 75.7591 154.723 75.8996 154.624C75.9049 154.622 76.3822 154.296 76.5174 154.346C76.5625 154.362 76.6208 154.386 76.6208 154.773C76.6208 155.195 76.5625 155.245 76.544 155.261C76.4909 155.309 76.4167 155.29 76.3133 155.242C76.308 155.242 75.7326 154.961 75.7326 154.81V154.813ZM76.4326 154.513C76.3345 154.553 76.0401 154.723 75.9288 154.81C76.0348 154.895 76.3133 155.065 76.4299 155.107C76.4352 155.054 76.4485 154.929 76.4485 154.773C76.4485 154.635 76.4405 154.556 76.4326 154.513Z" fill="white"/>
<path d="M72.4635 154.855C72.4635 154.433 72.5218 154.383 72.5404 154.367C72.5934 154.319 72.6677 154.338 72.7711 154.386C72.7764 154.386 73.3518 154.667 73.3518 154.818C73.3518 154.871 73.312 154.919 73.1874 155.006C73.1821 155.009 72.7022 155.338 72.5669 155.287C72.5219 155.269 72.4635 155.247 72.4635 154.858V154.855ZM72.6518 154.518C72.6465 154.571 72.6332 154.696 72.6332 154.852C72.6332 154.99 72.6412 155.072 72.6491 155.112C72.7472 155.072 73.0416 154.903 73.1529 154.815C73.0469 154.73 72.7684 154.561 72.6518 154.518Z" fill="white"/>
<path d="M74.0674 156.74C74.0674 156.626 74.4015 156.003 74.5447 156.003C74.6985 156.003 75.0193 156.653 75.0193 156.748L75.0113 156.791C74.9901 156.846 74.9318 156.865 74.8735 156.876C74.7462 156.899 74.1788 156.915 74.0913 156.817L74.07 156.793L74.0647 156.743L74.0674 156.74ZM74.5447 156.202C74.4572 156.308 74.2875 156.592 74.2477 156.706C74.3591 156.724 74.7197 156.73 74.8443 156.706C74.8045 156.61 74.6348 156.313 74.5447 156.202Z" fill="white"/>
<path d="M74.0674 152.88L74.0754 152.837C74.0966 152.782 74.155 152.763 74.2133 152.752C74.3459 152.729 74.9053 152.71 74.9955 152.811L75.0167 152.835L75.022 152.885C75.022 152.999 74.6879 153.622 74.5447 153.622C74.3909 153.622 74.0701 152.973 74.0701 152.877L74.0674 152.88ZM74.839 152.922C74.7303 152.904 74.3803 152.901 74.2504 152.922C74.2955 153.041 74.4546 153.32 74.5421 153.426C74.6296 153.32 74.7993 153.036 74.839 152.922Z" fill="white"/>
<path d="M75.3507 155.754C75.3507 155.722 75.3533 155.682 75.3851 155.653C75.4249 155.613 75.4859 155.611 75.6344 155.637C75.6397 155.637 76.2098 155.746 76.2707 155.879L76.2787 155.921C76.2787 155.947 76.2787 156.032 75.9711 156.321C75.7245 156.552 75.6662 156.549 75.637 156.547C75.4488 156.533 75.348 155.794 75.348 155.754H75.3507ZM76.0931 155.939C75.9976 155.897 75.6662 155.81 75.5283 155.796C75.5416 155.947 75.6238 156.258 75.6768 156.364C75.767 156.3 76.0268 156.046 76.0984 155.942L76.0931 155.939Z" fill="#4F2208"/>
<path d="M72.8057 153.707C72.8057 153.68 72.8057 153.596 73.1132 153.307C73.3598 153.076 73.4182 153.078 73.4473 153.081C73.6356 153.092 73.7363 153.834 73.7363 153.874C73.7363 153.906 73.7337 153.948 73.7019 153.975C73.6674 154.009 73.6197 154.02 73.45 153.988C73.4447 153.988 72.8746 153.879 72.8136 153.747L72.8057 153.704V153.707ZM73.4129 153.267C73.3227 153.33 73.0629 153.585 72.9913 153.688C73.0867 153.728 73.4129 153.816 73.5561 153.832C73.5402 153.67 73.4606 153.37 73.4102 153.264L73.4129 153.267Z" fill="#4F2208"/>
<path d="M72.8079 155.918V155.913C72.8105 155.844 72.8795 155.802 72.9856 155.762C72.9909 155.762 73.5954 155.55 73.7014 155.656C73.7306 155.685 73.7359 155.725 73.7359 155.754C73.7359 155.852 73.614 156.48 73.4787 156.541C73.4204 156.568 73.3621 156.528 73.3355 156.512C73.2215 156.438 72.8105 156.046 72.8105 155.916L72.8079 155.918ZM73.5636 155.796C73.4283 155.81 73.1181 155.887 73.0014 155.94C73.0783 156.051 73.3143 156.292 73.4178 156.364C73.4575 156.271 73.545 155.953 73.5609 155.796H73.5636Z" fill="#4F2208"/>
<path d="M75.3507 153.871C75.3507 153.773 75.4726 153.145 75.6079 153.084C75.6662 153.057 75.7245 153.097 75.751 153.113C75.865 153.187 76.2761 153.58 76.2761 153.71C76.2734 153.787 76.2044 153.826 76.0984 153.866C76.0931 153.866 75.4886 154.078 75.3825 153.972C75.3533 153.943 75.348 153.903 75.348 153.871H75.3507ZM75.6662 153.264C75.6264 153.357 75.5389 153.675 75.523 153.832C75.6609 153.818 75.9817 153.739 76.0878 153.683C76.0241 153.593 75.7696 153.333 75.6662 153.261V153.264Z" fill="#4F2208"/>
<path d="M69.0535 157.517C68.8679 157.517 68.7167 157.35 68.7167 157.167C68.7167 156.984 68.8679 156.83 69.0535 156.83C69.2391 156.83 69.3902 156.981 69.3902 157.167C69.3902 157.353 69.2391 157.517 69.0535 157.517Z" fill="#4F2208"/>
<path d="M74.8814 140.956C74.8814 141.515 74.3829 141.969 73.8208 141.969C73.2587 141.969 72.8079 141.515 72.8079 140.956C72.8079 140.396 73.2613 139.943 73.8208 139.943C74.3803 139.943 74.8814 140.396 74.8814 140.956Z" fill="#FF8915"/>
<path d="M74.4787 140.956C74.4787 141.298 74.1738 141.574 73.8317 141.574C73.4897 141.574 73.214 141.298 73.214 140.956C73.214 140.614 73.4897 140.338 73.8317 140.338C74.1738 140.338 74.4787 140.614 74.4787 140.956Z" fill="#AAD044"/>
<path d="M74.7891 137.435C74.7891 138.747 73.6171 139.81 72.3046 139.81C70.9921 139.81 69.9289 138.747 69.9289 137.435C69.9289 136.122 70.9921 135.059 72.3046 135.059C73.6171 135.059 74.7891 136.122 74.7891 137.435Z" fill="#FBA819"/>
<path d="M70.4242 142.056C70.297 142.056 70.1777 141.977 70.1352 141.852C69.6102 140.338 69.6182 138.185 69.6208 137.477V137.366C69.6208 137.199 69.7587 137.061 69.9258 137.061C70.0928 137.061 70.2307 137.199 70.2307 137.366V137.48C70.228 138.161 70.2201 140.237 70.7106 141.653C70.7637 141.812 70.6814 141.987 70.5223 142.043C70.4879 142.056 70.4561 142.062 70.4216 142.062H70.4242V142.056Z" fill="#ED1D87"/>
<path d="M70.6098 140.892C70.6257 140.82 70.6973 140.775 70.7663 140.791C70.8378 140.807 70.8829 140.879 70.867 140.95C70.8511 141.022 70.7795 141.067 70.7106 141.051C70.639 141.035 70.5939 140.964 70.6098 140.892Z" fill="#4F2208"/>
<path d="M70.8303 141.332C70.8462 141.261 70.9177 141.216 70.9867 141.232C71.0583 141.248 71.1033 141.319 71.0874 141.391C71.0715 141.462 70.9999 141.507 70.931 141.492C70.8594 141.476 70.8143 141.404 70.8303 141.332Z" fill="#4F2208"/>
<path d="M71.0953 141.762C71.1112 141.69 71.1828 141.645 71.2517 141.661C71.3233 141.677 71.3684 141.748 71.3525 141.82C71.3365 141.892 71.265 141.937 71.196 141.921C71.1244 141.905 71.0794 141.833 71.0953 141.762Z" fill="#4F2208"/>
<path d="M72.3016 140.115C70.8248 140.115 69.6209 138.914 69.6209 137.435C69.6209 135.955 70.8221 134.754 72.3016 134.754C73.7812 134.754 75.091 135.982 75.091 137.435C75.091 138.888 73.813 140.115 72.3016 140.115ZM72.3016 135.364C71.1615 135.364 70.2308 136.292 70.2308 137.435C70.2308 138.577 71.1588 139.505 72.3016 139.505C73.4444 139.505 74.4812 138.556 74.4812 137.435C74.4812 136.313 73.4816 135.364 72.3016 135.364Z" fill="#ED1D87"/>
<path d="M73.582 142.04C71.0418 142.04 69.7187 138.904 69.663 138.771C69.5994 138.615 69.6736 138.437 69.8274 138.373C69.9839 138.31 70.1615 138.381 70.2252 138.538C70.2384 138.567 71.4502 141.431 73.5793 141.431C73.8763 141.431 74.0937 141.356 74.2104 141.216C74.3191 141.083 74.3085 140.927 74.2926 140.847C74.2607 140.683 74.3668 140.521 74.5339 140.489C74.6982 140.457 74.86 140.563 74.8918 140.73C74.9528 141.049 74.8759 141.369 74.6824 141.605C74.518 141.804 74.1945 142.043 73.5793 142.043L73.582 142.04Z" fill="#ED1D87"/>
<path d="M74.0276 137.435C74.0276 138.336 73.2215 139.065 72.32 139.065C71.4185 139.065 70.6893 138.333 70.6893 137.435C70.6893 136.536 71.4212 135.804 72.32 135.804C73.2189 135.804 74.0276 136.536 74.0276 137.435Z" fill="#8B3B16"/>
<path d="M72.8876 137.435C72.8876 137.721 72.6331 137.954 72.3441 137.954C72.055 137.954 71.8244 137.721 71.8244 137.435C71.8244 137.148 72.0577 136.915 72.3441 136.915C72.6304 136.915 72.8876 137.148 72.8876 137.435Z" fill="#ED1D87"/>
<path d="M72.3516 136.729C72.3225 136.729 72.2933 136.713 72.2323 136.623C72.2323 136.62 72.0228 136.318 72.0547 136.233C72.0653 136.204 72.0785 136.17 72.3251 136.17C72.5903 136.17 72.6247 136.207 72.6353 136.22C72.6645 136.255 72.6539 136.3 72.6221 136.369C72.6221 136.371 72.4444 136.737 72.349 136.737L72.3516 136.729ZM72.1634 136.284C72.1872 136.345 72.2959 136.533 72.3516 136.602C72.4046 136.536 72.5133 136.358 72.5399 136.284C72.5054 136.281 72.4285 136.273 72.3278 136.273C72.2403 136.273 72.1899 136.278 72.1634 136.284Z" fill="white"/>
<path d="M72.3787 138.797C72.1135 138.797 72.0791 138.76 72.0685 138.747C72.0393 138.713 72.0499 138.668 72.0817 138.599C72.0817 138.596 72.2594 138.23 72.3548 138.23C72.3893 138.23 72.4184 138.257 72.4715 138.336C72.4715 138.339 72.681 138.644 72.6491 138.729C72.6385 138.758 72.6253 138.792 72.3787 138.792V138.797ZM72.1666 138.678C72.201 138.681 72.2779 138.689 72.3787 138.689C72.4662 138.689 72.5166 138.683 72.5431 138.678C72.5192 138.617 72.4105 138.429 72.3548 138.36C72.3018 138.426 72.1931 138.604 72.1666 138.678Z" fill="white"/>
<path d="M73.5715 137.782C73.4999 137.782 73.1049 137.57 73.1049 137.48C73.1049 137.384 73.5159 137.18 73.5768 137.18L73.6033 137.185C73.6378 137.198 73.6511 137.236 73.6564 137.27C73.6723 137.35 73.6803 137.71 73.6193 137.763L73.6033 137.777H73.5689V137.779L73.5715 137.782ZM73.2321 137.48C73.2984 137.533 73.4787 137.641 73.553 137.668C73.5662 137.599 73.5662 137.371 73.553 137.289C73.492 137.313 73.3037 137.421 73.2348 137.477L73.2321 137.48Z" fill="white"/>
<path d="M71.1298 137.782L71.1032 137.777C71.0688 137.763 71.0555 137.726 71.0502 137.689C71.0343 137.607 71.0237 137.252 71.0873 137.196L71.1032 137.183H71.1377C71.2093 137.18 71.6044 137.392 71.6044 137.482C71.6044 137.578 71.1934 137.782 71.1324 137.782H71.1298ZM71.1563 137.294C71.143 137.363 71.143 137.583 71.1563 137.668C71.2305 137.639 71.4082 137.538 71.4745 137.485C71.4082 137.432 71.2279 137.323 71.1536 137.297L71.1563 137.294Z" fill="white"/>
<path d="M72.9489 136.968C72.9277 136.968 72.9038 136.968 72.8853 136.947C72.8614 136.923 72.8588 136.883 72.8773 136.788C72.8773 136.785 72.9463 136.422 73.0311 136.385L73.0576 136.379C73.0762 136.379 73.1266 136.379 73.3095 136.573C73.458 136.729 73.4527 136.767 73.4527 136.782C73.4448 136.902 72.9754 136.965 72.9516 136.965L72.9489 136.968ZM73.0656 136.499C73.0391 136.557 72.9834 136.769 72.9754 136.857C73.0709 136.849 73.2671 136.798 73.336 136.764C73.2963 136.706 73.1345 136.544 73.0682 136.499H73.0656Z" fill="#4F2208"/>
<path d="M71.652 138.58C71.6334 138.58 71.583 138.58 71.4001 138.387C71.2516 138.23 71.2569 138.193 71.2569 138.177C71.2648 138.058 71.7342 137.994 71.758 137.994C71.7792 137.994 71.8031 137.994 71.8217 138.015C71.8429 138.036 71.8508 138.068 71.8296 138.174C71.8296 138.177 71.7607 138.538 71.6758 138.577L71.6493 138.583L71.652 138.58ZM71.3762 138.196C71.4186 138.254 71.5777 138.416 71.644 138.461C71.6705 138.402 71.7236 138.193 71.7342 138.103C71.6334 138.113 71.4425 138.161 71.3736 138.193L71.3762 138.196Z" fill="#4F2208"/>
<path d="M73.052 138.577H73.0493C73.0043 138.575 72.9804 138.532 72.9539 138.466C72.9539 138.463 72.8213 138.082 72.8876 138.013C72.9062 137.994 72.9327 137.991 72.9512 137.991C73.0122 137.991 73.41 138.066 73.4497 138.153C73.4683 138.19 73.4418 138.227 73.4311 138.243C73.3834 138.315 73.1369 138.575 73.0547 138.575L73.052 138.577ZM72.9751 138.103C72.9831 138.188 73.0308 138.384 73.0653 138.455C73.1342 138.405 73.2906 138.257 73.333 138.193C73.2747 138.169 73.0732 138.113 72.9724 138.103H72.9751Z" fill="#4F2208"/>
<path d="M71.7579 136.971C71.6969 136.971 71.2992 136.896 71.2594 136.809C71.2408 136.772 71.2673 136.735 71.2779 136.719C71.3257 136.647 71.5723 136.387 71.6545 136.387C71.7048 136.39 71.7287 136.433 71.7552 136.499C71.7552 136.501 71.8878 136.883 71.8215 136.952C71.8029 136.971 71.7764 136.973 71.7579 136.973V136.971ZM71.3734 136.769C71.4317 136.793 71.6333 136.849 71.734 136.859C71.7261 136.775 71.6757 136.57 71.6412 136.501C71.5829 136.541 71.4211 136.7 71.376 136.769H71.3734Z" fill="#4F2208"/>
<path d="M74.0642 140.956C74.0642 141.073 73.9582 141.168 73.8415 141.168C73.7249 141.168 73.6294 141.073 73.6294 140.956C73.6294 140.839 73.7249 140.744 73.8415 140.744C73.9582 140.744 74.0642 140.839 74.0642 140.956Z" fill="#4F2208"/>
<path d="M78.8563 99.9689C78.8563 100.528 78.3578 100.982 77.7957 100.982C77.2336 100.982 76.7828 100.528 76.7828 99.9689C76.7828 99.4094 77.2362 98.9561 77.7957 98.9561C78.3551 98.9561 78.8563 99.4094 78.8563 99.9689Z" fill="#FF8915"/>
<path d="M78.4531 99.9689C78.4531 100.311 78.1482 100.587 77.8061 100.587C77.4641 100.587 77.1883 100.311 77.1883 99.9689C77.1883 99.6269 77.4641 99.3511 77.8061 99.3511C78.1482 99.3511 78.4531 99.6269 78.4531 99.9689Z" fill="#AAD044"/>
<path d="M78.7602 96.4475C78.7602 97.76 77.5882 98.8234 76.2757 98.8234C74.9632 98.8234 73.9 97.76 73.9 96.4475C73.9 95.135 74.9632 94.0718 76.2757 94.0718C77.5882 94.0718 78.7602 95.135 78.7602 96.4475Z" fill="#FBA819"/>
<path d="M74.3992 101.069C74.2719 101.069 74.1526 100.99 74.1101 100.865C73.5851 99.3509 73.5931 97.1979 73.5958 96.49V96.3786C73.5958 96.2116 73.7336 96.0737 73.9007 96.0737C74.0677 96.0737 74.2056 96.2116 74.2056 96.3786V96.4927C74.2029 97.1741 74.195 99.2502 74.6855 100.666C74.7386 100.825 74.6563 101 74.4973 101.056C74.4628 101.069 74.431 101.074 74.3965 101.074H74.3992V101.069Z" fill="#ED1D87"/>
<path d="M74.5847 99.9052C74.6006 99.8336 74.6722 99.7886 74.7412 99.8045C74.8128 99.8204 74.8578 99.892 74.8419 99.9636C74.826 100.035 74.7544 100.08 74.6855 100.064C74.6139 100.048 74.5688 99.9768 74.5847 99.9052Z" fill="#4F2208"/>
<path d="M74.8024 100.345C74.8183 100.274 74.8899 100.229 74.9588 100.245C75.0304 100.261 75.0755 100.332 75.0596 100.404C75.0437 100.475 74.9721 100.52 74.9031 100.504C74.8316 100.489 74.7865 100.417 74.8024 100.345Z" fill="#4F2208"/>
<path d="M75.0674 100.775C75.0833 100.703 75.1549 100.658 75.2238 100.674C75.2954 100.69 75.3405 100.761 75.3246 100.833C75.3087 100.905 75.2371 100.95 75.1682 100.934C75.0966 100.918 75.0515 100.846 75.0674 100.775Z" fill="#4F2208"/>
<path d="M76.276 99.1257C74.7991 99.1257 73.5953 97.9246 73.5953 96.445C73.5953 94.9655 74.7964 93.7644 76.276 93.7644C77.7555 93.7644 79.0653 94.992 79.0653 96.445C79.0653 97.8981 77.7873 99.1257 76.276 99.1257ZM76.276 94.3769C75.1358 94.3769 74.2051 95.3048 74.2051 96.4476C74.2051 97.5904 75.1332 98.5185 76.276 98.5185C77.4188 98.5185 78.4555 97.5692 78.4555 96.4476C78.4555 95.326 77.4559 94.3769 76.276 94.3769Z" fill="#ED1D87"/>
<path d="M77.5591 101.053C75.0189 101.053 73.6958 97.9165 73.6401 97.7839C73.5765 97.6275 73.6507 97.4498 73.8045 97.3862C73.9609 97.3226 74.1386 97.3942 74.2022 97.5506C74.2155 97.5798 75.4272 100.443 77.5564 100.443C77.8534 100.443 78.0708 100.369 78.1875 100.229C78.2962 100.096 78.2855 99.9396 78.2696 99.8601C78.2378 99.6957 78.3439 99.5339 78.5109 99.5021C78.6753 99.4703 78.8371 99.5764 78.8689 99.7434C78.9299 100.062 78.853 100.383 78.6594 100.618C78.495 100.817 78.1715 101.056 77.5564 101.056L77.5591 101.053Z" fill="#ED1D87"/>
<path d="M77.9997 96.4475C77.9997 97.3491 77.1936 98.0783 76.2921 98.0783C75.3906 98.0783 74.6614 97.3464 74.6614 96.4475C74.6614 95.5487 75.3933 94.8169 76.2921 94.8169C77.191 94.8169 77.9997 95.5487 77.9997 96.4475Z" fill="#8B3B16"/>
<path d="M76.8619 96.4474C76.8619 96.7338 76.6074 96.9672 76.3184 96.9672C76.0293 96.9672 75.7987 96.7338 75.7987 96.4474C75.7987 96.1611 76.032 95.9277 76.3184 95.9277C76.6047 95.9277 76.8619 96.1611 76.8619 96.4474Z" fill="#ED1D87"/>
<path d="M76.3265 95.7423C76.2973 95.7423 76.2682 95.7264 76.2072 95.6363C76.2072 95.6336 75.9977 95.3313 76.0295 95.2464C76.0401 95.2173 76.0534 95.1829 76.3 95.1829C76.5651 95.1829 76.5996 95.22 76.6102 95.2332C76.6394 95.2677 76.6287 95.3128 76.5969 95.3817C76.5969 95.3844 76.4193 95.7502 76.3238 95.7502L76.3265 95.7423ZM76.1382 95.2968C76.1621 95.3578 76.2708 95.5461 76.3265 95.615C76.3795 95.5487 76.4882 95.371 76.5147 95.2968C76.4802 95.2941 76.4034 95.2862 76.3026 95.2862C76.2151 95.2862 76.1647 95.2915 76.1382 95.2968Z" fill="white"/>
<path d="M76.353 97.8106C76.0879 97.8106 76.0534 97.7735 76.0428 97.7603C76.0137 97.7258 76.0243 97.6807 76.0561 97.6118C76.0561 97.6091 76.2337 97.2432 76.3292 97.2432C76.3637 97.2432 76.3928 97.2698 76.4459 97.3493C76.4459 97.352 76.6553 97.6569 76.6235 97.7417C76.6129 97.7709 76.5996 97.8053 76.353 97.8053V97.8106ZM76.1409 97.6887C76.1754 97.6913 76.2523 97.6993 76.353 97.6993C76.4405 97.6993 76.4909 97.694 76.5174 97.6887C76.4936 97.6277 76.3849 97.4395 76.3292 97.3706C76.2762 97.4368 76.1675 97.6144 76.1409 97.6887Z" fill="white"/>
<path d="M77.5459 96.7948C77.4743 96.7948 77.0792 96.5827 77.0792 96.4926C77.0792 96.3971 77.4902 96.1929 77.5512 96.1929L77.5777 96.1982C77.6122 96.2114 77.6255 96.2486 77.6308 96.2831C77.6467 96.3627 77.6546 96.7232 77.5936 96.7763L77.5777 96.7895H77.5432V96.7922L77.5459 96.7948ZM77.2065 96.4926C77.2728 96.5456 77.4531 96.6543 77.5273 96.6808C77.5406 96.6119 77.5406 96.3838 77.5273 96.3016C77.4664 96.3255 77.2781 96.4342 77.2091 96.4899L77.2065 96.4926Z" fill="white"/>
<path d="M75.1041 96.795L75.0776 96.7897C75.0431 96.7764 75.0299 96.7394 75.0246 96.7023C75.0087 96.6201 74.9981 96.2647 75.0617 96.209L75.0776 96.1958H75.1121C75.1837 96.1932 75.5788 96.4053 75.5788 96.4954C75.5788 96.5909 75.1678 96.795 75.1068 96.795H75.1041ZM75.128 96.3072C75.1147 96.3761 75.1147 96.5962 75.128 96.6811C75.2022 96.6519 75.3799 96.5512 75.4462 96.4981C75.3799 96.4451 75.1996 96.3364 75.1253 96.3099L75.128 96.3072Z" fill="white"/>
<path d="M76.9233 95.981C76.9021 95.981 76.8782 95.981 76.8596 95.9598C76.8358 95.9359 76.8331 95.8961 76.8517 95.8007C76.8517 95.798 76.9206 95.4348 77.0055 95.3976L77.032 95.3923C77.0506 95.3923 77.1009 95.3923 77.2839 95.5859C77.4324 95.7423 77.4271 95.7795 77.4271 95.7954C77.4191 95.9147 76.9498 95.9784 76.9259 95.9784L76.9233 95.981ZM77.04 95.5117C77.0134 95.57 76.9577 95.7822 76.9498 95.8697C77.0452 95.8617 77.2415 95.8113 77.3104 95.7769C77.2706 95.7185 77.1089 95.5568 77.0426 95.5117H77.04Z" fill="#4F2208"/>
<path d="M75.6262 97.5931C75.6077 97.5931 75.5573 97.5931 75.3744 97.3995C75.2259 97.2431 75.2312 97.2059 75.2312 97.19C75.2391 97.0707 75.7084 97.0071 75.7323 97.0071C75.7535 97.0071 75.7774 97.0071 75.7959 97.0283C75.8171 97.0495 75.8251 97.0812 75.8039 97.1873C75.8039 97.19 75.735 97.5506 75.6501 97.5903L75.6236 97.5956L75.6262 97.5931ZM75.3478 97.2085C75.3903 97.2669 75.5494 97.4286 75.6157 97.4737C75.6422 97.4154 75.6952 97.2059 75.7058 97.1157C75.605 97.1263 75.4141 97.1741 75.3452 97.2059L75.3478 97.2085Z" fill="#4F2208"/>
<path d="M77.0269 97.5904H77.0243C76.9792 97.5877 76.9553 97.5453 76.9288 97.479C76.9288 97.4764 76.7962 97.0946 76.8625 97.0256C76.8811 97.0071 76.9076 97.0044 76.9262 97.0044C76.9871 97.0044 77.3849 97.0787 77.4246 97.1662C77.4432 97.2034 77.4167 97.2404 77.4061 97.2563C77.3584 97.3279 77.1118 97.5878 77.0296 97.5878L77.0269 97.5904ZM76.95 97.1131C76.958 97.198 77.0057 97.3942 77.0402 97.4658C77.1091 97.4154 77.2656 97.2669 77.308 97.2033C77.2497 97.1794 77.0481 97.1238 76.9474 97.1131H76.95Z" fill="#4F2208"/>
<path d="M75.7322 95.9834C75.6712 95.9834 75.2735 95.9092 75.2337 95.8217C75.2152 95.7846 75.2417 95.7475 75.2523 95.7316C75.3001 95.66 75.5466 95.4001 75.6288 95.4001C75.6792 95.4028 75.7031 95.4452 75.7296 95.5115C75.7296 95.5141 75.8622 95.8959 75.7959 95.9649C75.7773 95.9834 75.7508 95.9861 75.7322 95.9861V95.9834ZM75.3451 95.7819C75.4035 95.8058 75.605 95.8615 75.7057 95.8721C75.6978 95.7872 75.6474 95.5831 75.6129 95.5142C75.5546 95.554 75.3928 95.713 75.3478 95.7819H75.3451Z" fill="#4F2208"/>
<path d="M78.0397 99.9689C78.0397 100.086 77.9337 100.181 77.817 100.181C77.7003 100.181 77.6049 100.086 77.6049 99.9689C77.6049 99.8522 77.7003 99.7568 77.817 99.7568C77.9337 99.7568 78.0397 99.8522 78.0397 99.9689Z" fill="#4F2208"/>
<path d="M89.2685 154.54C89.2685 155.099 88.77 155.552 88.2079 155.552C87.6458 155.552 87.195 155.099 87.195 154.54C87.195 153.98 87.6484 153.527 88.2079 153.527C88.7673 153.527 89.2685 153.98 89.2685 154.54Z" fill="#FF8915"/>
<path d="M88.8625 154.539C88.8625 154.881 88.5576 155.157 88.2155 155.157C87.8735 155.157 87.5977 154.881 87.5977 154.539C87.5977 154.197 87.8735 153.922 88.2155 153.922C88.5576 153.922 88.8625 154.197 88.8625 154.539Z" fill="#AAD044"/>
<path d="M89.1729 151.018C89.1729 152.331 88.0009 153.394 86.6884 153.394C85.3759 153.394 84.3127 152.331 84.3127 151.018C84.3127 149.706 85.3759 148.643 86.6884 148.643C88.0009 148.643 89.1729 149.706 89.1729 151.018Z" fill="#FBA819"/>
<path d="M84.8113 155.64C84.6841 155.64 84.5647 155.56 84.5223 155.436C83.9973 153.922 84.0053 151.769 84.0079 151.061V150.949C84.0079 150.782 84.1458 150.645 84.3128 150.645C84.4799 150.645 84.6178 150.782 84.6178 150.949V151.063C84.6151 151.745 84.6071 153.821 85.0977 155.237C85.1507 155.396 85.0685 155.571 84.9094 155.627C84.875 155.64 84.8431 155.645 84.8087 155.645H84.8113V155.64Z" fill="#ED1D87"/>
<path d="M84.997 154.476C85.0129 154.404 85.0845 154.359 85.1534 154.375C85.225 154.391 85.2701 154.463 85.2542 154.534C85.2382 154.606 85.1666 154.651 85.0977 154.635C85.0261 154.619 84.9811 154.547 84.997 154.476Z" fill="#4F2208"/>
<path d="M85.214 154.919C85.2299 154.847 85.3015 154.802 85.3704 154.818C85.442 154.834 85.4871 154.905 85.4712 154.977C85.4553 155.049 85.3837 155.094 85.3148 155.078C85.2432 155.062 85.1981 154.99 85.214 154.919Z" fill="#4F2208"/>
<path d="M85.4796 155.345C85.4955 155.274 85.5671 155.229 85.6361 155.245C85.7077 155.261 85.7527 155.332 85.7368 155.404C85.7209 155.475 85.6493 155.521 85.5804 155.505C85.5088 155.489 85.4637 155.417 85.4796 155.345Z" fill="#4F2208"/>
<path d="M86.6887 153.699C85.2118 153.699 84.008 152.498 84.008 151.018C84.008 149.539 85.2092 148.338 86.6887 148.338C88.1682 148.338 89.4781 149.565 89.4781 151.018C89.4781 152.471 88.2001 153.699 86.6887 153.699ZM86.6887 148.947C85.5485 148.947 84.6179 149.875 84.6179 151.018C84.6179 152.161 85.5459 153.089 86.6887 153.089C87.8315 153.089 88.8683 152.14 88.8683 151.018C88.8683 149.897 87.8686 148.947 86.6887 148.947Z" fill="#ED1D87"/>
<path d="M87.969 155.624C85.4289 155.624 84.1058 152.487 84.0501 152.355C83.9864 152.198 84.0607 152.021 84.2145 151.957C84.3709 151.893 84.5486 151.965 84.6122 152.121C84.6255 152.151 85.8372 155.014 87.9664 155.014C88.2633 155.014 88.4808 154.94 88.5974 154.799C88.7061 154.667 88.6955 154.51 88.6796 154.431C88.6478 154.266 88.7539 154.105 88.9209 154.073C89.0853 154.041 89.247 154.147 89.2789 154.314C89.3398 154.632 89.263 154.953 89.0694 155.189C88.905 155.388 88.5815 155.627 87.9664 155.627L87.969 155.624Z" fill="#ED1D87"/>
<path d="M88.4119 151.018C88.4119 151.92 87.6059 152.649 86.7044 152.649C85.8028 152.649 85.0737 151.917 85.0737 151.018C85.0737 150.119 85.8055 149.388 86.7044 149.388C87.6032 149.388 88.4119 150.119 88.4119 151.018Z" fill="#8B3B16"/>
<path d="M87.2747 151.018C87.2747 151.305 87.0202 151.538 86.7311 151.538C86.4421 151.538 86.2115 151.305 86.2115 151.018C86.2115 150.732 86.4448 150.499 86.7311 150.499C87.0175 150.499 87.2747 150.732 87.2747 151.018Z" fill="#ED1D87"/>
<path d="M86.7393 150.313C86.7101 150.313 86.681 150.297 86.62 150.207C86.62 150.204 86.4105 149.902 86.4423 149.817C86.4529 149.788 86.4662 149.753 86.7128 149.753C86.9779 149.753 87.0124 149.791 87.023 149.804C87.0521 149.838 87.0416 149.883 87.0097 149.952C87.0097 149.955 86.8321 150.321 86.7366 150.321L86.7393 150.313ZM86.5484 149.87C86.5722 149.931 86.6809 150.119 86.7366 150.188C86.7897 150.122 86.8984 149.944 86.9249 149.87C86.8904 149.868 86.8135 149.86 86.7128 149.86C86.6253 149.86 86.5749 149.865 86.5484 149.87Z" fill="white"/>
<path d="M86.7653 152.381C86.5001 152.381 86.4657 152.344 86.4551 152.331C86.4259 152.296 86.4365 152.251 86.4683 152.182C86.4683 152.18 86.646 151.814 86.7414 151.814C86.7759 151.814 86.805 151.84 86.8581 151.92C86.8581 151.923 87.0675 152.227 87.0357 152.312C87.0251 152.341 87.0119 152.376 86.7653 152.376V152.381ZM86.5532 152.262C86.5876 152.264 86.6645 152.272 86.7653 152.272C86.8528 152.272 86.9031 152.267 86.9297 152.262C86.9058 152.201 86.7971 152.013 86.7414 151.944C86.6884 152.01 86.5797 152.188 86.5532 152.262Z" fill="white"/>
<path d="M87.9586 151.366C87.887 151.366 87.4919 151.154 87.4919 151.063C87.4919 150.968 87.9029 150.764 87.9639 150.764L87.9904 150.769C88.0249 150.782 88.0382 150.819 88.0435 150.854C88.0594 150.933 88.0673 151.294 88.0064 151.347L87.9904 151.36H87.956V151.363L87.9586 151.366ZM87.6166 151.066C87.6828 151.119 87.8632 151.228 87.9374 151.254C87.9507 151.185 87.9507 150.957 87.9374 150.875C87.8764 150.899 87.6881 151.008 87.6192 151.063L87.6166 151.066Z" fill="white"/>
<path d="M85.5164 151.366L85.4898 151.36C85.4554 151.347 85.4421 151.31 85.4368 151.273C85.4209 151.191 85.4103 150.835 85.4739 150.78L85.4898 150.766H85.5243C85.5959 150.764 85.991 150.976 85.991 151.066C85.991 151.161 85.58 151.366 85.519 151.366H85.5164ZM85.5402 150.878C85.5269 150.947 85.5269 151.167 85.5402 151.252C85.6144 151.222 85.7921 151.122 85.8584 151.069C85.7921 151.016 85.6118 150.907 85.5376 150.88L85.5402 150.878Z" fill="white"/>
<path d="M87.3361 150.554C87.3149 150.554 87.291 150.554 87.2725 150.533C87.2486 150.509 87.2459 150.469 87.2645 150.374C87.2645 150.371 87.3334 150.008 87.4183 149.971L87.4448 149.966C87.4634 149.966 87.5137 149.966 87.6967 150.159C87.8452 150.316 87.8399 150.353 87.8399 150.369C87.8319 150.488 87.3626 150.552 87.3387 150.552L87.3361 150.554ZM87.4527 150.085C87.4262 150.143 87.3706 150.355 87.3626 150.443C87.4581 150.435 87.6543 150.384 87.7232 150.35C87.6834 150.292 87.5217 150.13 87.4554 150.085H87.4527Z" fill="#4F2208"/>
<path d="M86.039 152.166C86.0205 152.166 85.9701 152.166 85.7872 151.973C85.6387 151.816 85.644 151.779 85.644 151.763C85.6519 151.644 86.1213 151.58 86.1451 151.58C86.1663 151.58 86.1902 151.58 86.2087 151.602C86.23 151.623 86.2379 151.655 86.2167 151.761C86.2167 151.763 86.1477 152.124 86.0629 152.164L86.0364 152.169L86.039 152.166ZM85.7606 151.779C85.803 151.838 85.9621 151.999 86.0284 152.044C86.0549 151.986 86.108 151.777 86.1186 151.686C86.0178 151.697 85.8269 151.745 85.758 151.777L85.7606 151.779Z" fill="#4F2208"/>
<path d="M87.4363 152.161H87.4337C87.3886 152.159 87.3648 152.116 87.3382 152.05C87.3382 152.047 87.2057 151.665 87.2719 151.596C87.2905 151.578 87.317 151.575 87.3356 151.575C87.3966 151.575 87.7943 151.649 87.8341 151.737C87.8526 151.774 87.8261 151.811 87.8155 151.827C87.7678 151.899 87.5212 152.159 87.439 152.159L87.4363 152.161ZM87.3594 151.687C87.3674 151.771 87.4151 151.968 87.4496 152.039C87.5185 151.989 87.675 151.84 87.7174 151.777C87.6591 151.753 87.4575 151.697 87.3568 151.687H87.3594Z" fill="#4F2208"/>
<path d="M86.145 150.554C86.084 150.554 85.6862 150.48 85.6465 150.392C85.6279 150.355 85.6544 150.318 85.665 150.302C85.7127 150.231 85.9593 149.971 86.0415 149.971C86.0919 149.974 86.1158 150.016 86.1423 150.082C86.1423 150.085 86.2749 150.467 86.2086 150.536C86.19 150.554 86.1635 150.557 86.145 150.557V150.554ZM85.7578 150.353C85.8162 150.377 86.0177 150.432 86.1184 150.443C86.1105 150.358 86.0601 150.154 86.0256 150.085C85.9673 150.125 85.8055 150.284 85.7605 150.353H85.7578Z" fill="#4F2208"/>
<path d="M88.4492 154.54C88.4492 154.656 88.3431 154.752 88.2264 154.752C88.1098 154.752 88.0143 154.656 88.0143 154.54C88.0143 154.423 88.1098 154.327 88.2264 154.327C88.3431 154.327 88.4492 154.423 88.4492 154.54Z" fill="#4F2208"/>
<path d="M81.3194 181.808C84.6919 181.808 87.4258 179.074 87.4258 175.701C87.4258 172.329 84.6919 169.595 81.3194 169.595C77.9469 169.595 75.213 172.329 75.213 175.701C75.213 179.074 77.9469 181.808 81.3194 181.808Z" fill="#FBA819"/>
<path d="M81.3191 179.485C83.4088 179.485 85.1028 177.791 85.1028 175.701C85.1028 173.612 83.4088 171.917 81.3191 171.917C79.2294 171.917 77.5354 173.612 77.5354 175.701C77.5354 177.791 79.2294 179.485 81.3191 179.485Z" fill="#AAD044"/>
<path d="M74.4201 175.789C74.4201 171.862 77.6072 168.547 81.3776 168.547C81.8151 168.547 82.1704 168.9 82.1704 169.34C82.1704 169.78 81.8151 170.133 81.3776 170.133C78.4636 170.133 76.003 172.726 76.003 175.791C76.003 178.856 78.4132 181.166 81.3776 181.166C84.342 181.166 86.7522 178.756 86.7522 175.791C86.7522 175.354 87.1075 174.998 87.545 174.998C87.9825 174.998 88.3378 175.351 88.3378 175.791C88.3378 179.628 85.217 182.749 81.3803 182.749C77.5436 182.749 74.4227 179.628 74.4227 175.791L74.4201 175.789Z" fill="#4F2208"/>
<path d="M93.01 182.696C92.7899 182.595 92.6918 182.338 92.7899 182.115C92.888 181.893 93.1505 181.797 93.3706 181.895C93.5906 181.993 93.6887 182.253 93.5906 182.476C93.4925 182.699 93.23 182.794 93.01 182.696Z" fill="#4F2208"/>
<path d="M94.6012 182.407C94.3811 182.306 94.283 182.049 94.3811 181.826C94.4792 181.604 94.7417 181.508 94.9618 181.606C95.1819 181.704 95.28 181.964 95.1819 182.187C95.0838 182.41 94.8213 182.505 94.6012 182.407Z" fill="#4F2208"/>
<path d="M96.1677 181.831C95.9476 181.731 95.8495 181.473 95.9476 181.251C96.0457 181.028 96.3082 180.933 96.5283 181.031C96.7484 181.129 96.8465 181.389 96.7484 181.611C96.6503 181.834 96.3878 181.93 96.1677 181.831Z" fill="#4F2208"/>
<path d="M84.1485 168.261C84.5383 168.261 84.8539 168.611 84.8539 168.998C84.8539 169.385 84.5383 169.703 84.1485 169.703C83.7588 169.703 83.4432 169.388 83.4432 168.998C83.4432 168.608 83.7588 168.261 84.1485 168.261Z" fill="#4F2208"/>
<path d="M81.3194 177.008C82.0413 177.008 82.6266 176.423 82.6266 175.701C82.6266 174.979 82.0413 174.394 81.3194 174.394C80.5974 174.394 80.0122 174.979 80.0122 175.701C80.0122 176.423 80.5974 177.008 81.3194 177.008Z" fill="#8B3B16"/>
<path d="M92.8453 178.456C94.563 178.456 95.9555 177.064 95.9555 175.346C95.9555 173.628 94.563 172.236 92.8453 172.236C91.1276 172.236 89.7351 173.628 89.7351 175.346C89.7351 177.064 91.1276 178.456 92.8453 178.456Z" fill="#8B3B16"/>
<path d="M92.8453 176.422C92.2514 176.422 91.7688 175.94 91.7688 175.346C91.7688 174.752 92.2514 174.269 92.8453 174.269C93.4393 174.269 93.9218 174.752 93.9218 175.346C93.9218 175.94 93.4393 176.422 92.8453 176.422Z" fill="#09BEF0"/>
<path d="M76.456 182.717C76.456 182.595 76.4958 182.471 76.578 182.367C76.7716 182.126 77.1242 182.084 77.3655 182.274C77.5034 182.383 80.6772 184.801 84.6943 182.593C84.9647 182.444 85.3068 182.542 85.4579 182.813C85.6091 183.083 85.5083 183.425 85.2378 183.574C80.55 186.151 76.8273 183.277 76.6708 183.155C76.5303 183.043 76.4587 182.879 76.4587 182.715L76.456 182.717Z" fill="#AAD044"/>
<path d="M91.3495 167.776C91.3495 167.529 91.5192 167.306 91.7711 167.248C95.3135 166.434 97.4798 168.587 97.5699 168.68C97.7794 168.895 97.7768 169.237 97.562 169.446C97.3499 169.656 97.0052 169.653 96.7983 169.441C96.7241 169.367 94.9503 167.63 92.015 168.306C91.7234 168.372 91.4343 168.19 91.3654 167.901C91.3575 167.861 91.3522 167.818 91.3522 167.778L91.3495 167.776Z" fill="#ED1D87"/>
<path d="M86.7492 174.834C86.7492 174.397 87.1045 174.041 87.542 174.041C87.9795 174.041 88.3348 174.394 88.3348 174.834C88.3348 178.265 90.6761 179.83 92.8503 179.83C95.1969 179.83 97.1776 177.738 97.1776 175.266C97.1776 172.795 95.2367 170.939 92.8503 170.939C92.4128 170.939 92.0575 170.586 92.0575 170.146C92.0575 169.706 92.4128 169.354 92.8503 169.354C96.109 169.354 98.7605 172.005 98.7605 175.264C98.7605 178.522 96.0534 181.413 92.8503 181.413C89.8197 181.413 86.7492 179.151 86.7492 174.834Z" fill="#4F2208"/>
</svg>
