<svg width="174" height="240" viewBox="0 0 174 240" fill="none" xmlns="http://www.w3.org/2000/svg">
<rect width="174" height="240" fill="none"/>
<path d="M62.9483 96.4322C64.1208 93.2225 67.6749 91.5664 70.8867 92.7332C74.0984 93.8999 75.7516 97.4477 74.5791 100.657L56.5783 149.934L44.9475 145.708L62.9483 96.4322Z" fill="#FF9800"/>
<path d="M71.5151 92.9463C74.3723 93.984 75.8437 97.14 74.8014 99.9954L56.5772 149.918L55.3273 149.463L73.779 98.9156C74.658 96.5071 73.5028 93.8559 71.1893 92.8392C71.2982 92.8713 71.407 92.9071 71.5151 92.9463Z" fill="#E89627"/>
<path d="M111.074 96.3651C109.912 93.1844 106.39 91.5432 103.207 92.6994C100.025 93.8556 98.3864 97.3713 99.5482 100.552L117.568 149.881L129.093 145.694L111.074 96.3651Z" fill="#FF9800"/>
<path d="M102.585 92.9102C99.7537 93.9383 98.2958 97.0657 99.3287 99.8954L117.569 149.865L118.808 149.414L100.341 98.8254C99.4702 96.4386 100.615 93.8113 102.908 92.804C102.8 92.8359 102.692 92.8713 102.585 92.9102Z" fill="#E89627"/>
<path d="M100.906 89.4143C104.704 89.4143 104.89 93.1576 104.892 93.2053L113.844 158.785C113.843 158.81 113.825 162.665 108.038 162.665H65.8103C65.8103 162.665 60.8749 162.666 60.8748 158.785C60.8748 158.785 68.6025 105.548 68.6853 101.596C68.7085 100.614 69.2136 93.2053 69.2136 93.2053C69.2139 90.2667 71.46 89.4173 73.1589 89.4172C73.1589 89.4172 75.6102 89.4143 79.7605 89.4143C79.7601 89.6954 79.386 96.8137 87.0984 96.8137C87.1535 96.8129 94.361 96.691 94.3611 89.4172C96.2508 89.4173 99.7642 89.4142 100.906 89.4143Z" fill="#FF9800"/>
<path d="M109.753 142.843C113.773 199.309 108.118 224.333 108.118 224.333C108.118 224.333 98.0953 228.122 89.8965 226.113L87.4918 166.937L83.7868 226.113C83.7868 226.113 71.4608 229.346 65.4 223.734C65.4 223.734 59.9559 189.648 66.9668 142.843C66.9668 142.843 102.629 142.843 109.753 142.843Z" fill="#8F1D80"/>
<path d="M64.4299 147.36L59.213 202.488C59.213 202.488 86.0436 190.937 93.9792 190.097C101.915 189.257 120.134 179.779 120.134 179.779L112.228 147.36L64.4299 147.36Z" fill="#A4D233"/>
<mask id="mask0_1475_114333" style="mask-type:alpha" maskUnits="userSpaceOnUse" x="51" y="144" width="74" height="59">
<path d="M51.6289 162.053L51.7165 164.593L52.6029 164.571L52.6564 166.201L51.7701 166.228L51.8578 168.763L55.3884 165.301L51.6289 162.053Z" fill="#FFE700"/>
<path d="M56.7951 159.241L53.992 161.988L56.978 164.566L59.7811 161.82L56.7951 159.241Z" fill="#FFE700"/>
<path d="M51.5073 158.533L51.629 162.054L53.4796 160.24L51.5073 158.533Z" fill="#FFE700"/>
<path d="M56.6157 156.929L59.2162 159.178L61.7631 156.683L56.718 156.83L56.5037 156.835L51.4537 156.983L54.1662 159.326L56.6157 156.929Z" fill="#FFE700"/>
<path d="M54.4875 168.687L59.7518 168.535L57.0393 166.193L54.4875 168.687Z" fill="#FFE700"/>
<path d="M61.9383 161.754L58.4077 165.216L62.172 168.468L65.7075 165.005L61.9383 161.754ZM61.1932 165.955L61.1397 164.325L62.9122 164.275L62.9707 165.906L61.1932 165.955Z" fill="#FFE700"/>
<path d="M67.1081 158.941L64.3051 161.688L67.2912 164.266L70.0942 161.519L67.1081 158.941Z" fill="#FFE700"/>
<path d="M61.8211 158.235L59.9646 160.054L61.9423 161.762L63.7988 159.943L61.8211 158.235Z" fill="#FFE700"/>
<path d="M66.8132 156.535L61.7632 156.683L64.4805 159.026L66.9252 156.634L69.5257 158.878L72.0775 156.383L67.0274 156.531L66.8132 156.535Z" fill="#FFE700"/>
<path d="M64.8019 168.387L70.0661 168.235L67.3537 165.892L64.8019 168.387Z" fill="#FFE700"/>
<path d="M72.2478 161.453L68.7172 164.916L72.4817 168.168L76.0172 164.705L72.2478 161.453ZM71.5077 165.65L71.4492 164.02L73.2218 163.966L73.2803 165.597L71.5077 165.65Z" fill="#FFE700"/>
<path d="M77.4176 158.644L74.6146 161.39L77.6007 163.969L80.4037 161.222L77.4176 158.644Z" fill="#FFE700"/>
<path d="M72.1335 157.936L70.277 159.755L72.2547 161.462L74.1112 159.643L72.1335 157.936Z" fill="#FFE700"/>
<path d="M77.1276 156.235L72.0776 156.383L74.7901 158.725L77.2348 156.329L79.8401 158.578L82.3918 156.083L77.3419 156.231L77.1276 156.235Z" fill="#FFE700"/>
<path d="M75.1164 168.087L80.3758 167.935L77.6633 165.592L75.1164 168.087Z" fill="#FFE700"/>
<path d="M82.5623 161.153L79.0317 164.616L82.796 167.867L86.3315 164.405L82.5623 161.153ZM81.8172 165.35L81.7587 163.72L83.5314 163.666L83.5849 165.296L81.8123 165.35H81.8172Z" fill="#FFE700"/>
<path d="M87.7308 158.344L84.9277 161.09L87.9136 163.668L90.7167 160.922L87.7308 158.344Z" fill="#FFE700"/>
<path d="M82.4432 157.634L80.5867 159.453L82.5643 161.161L84.4208 159.342L82.4432 157.634Z" fill="#FFE700"/>
<path d="M87.4368 155.935L82.3916 156.083L85.1041 158.425L87.5488 156.029L90.154 158.282L92.7009 155.783L87.651 155.931L87.4368 155.935Z" fill="#FFE700"/>
<path d="M85.4256 167.791L90.6899 167.635L87.9725 165.292L85.4256 167.791Z" fill="#FFE700"/>
<path d="M92.8714 160.853L89.3408 164.315L93.1052 167.563L96.6407 164.1L92.8714 160.853ZM92.1312 165.05L92.0728 163.42L93.8454 163.366L93.899 164.996L92.1263 165.05H92.1312Z" fill="#FFE700"/>
<path d="M98.0438 158.049L95.2408 160.796L98.2268 163.374L101.03 160.627L98.0438 158.049Z" fill="#FFE700"/>
<path d="M92.7513 157.334L90.8949 159.153L92.8725 160.86L94.7289 159.041L92.7513 157.334Z" fill="#FFE700"/>
<path d="M97.7509 155.635L92.7009 155.782L95.4183 158.125L97.858 155.733L100.463 157.977L103.01 155.482L97.9603 155.626L97.7509 155.635Z" fill="#FFE700"/>
<path d="M95.74 167.487L100.999 167.335L98.2869 164.992L95.74 167.487Z" fill="#FFE700"/>
<path d="M103.181 160.553L99.6553 164.015L103.42 167.267L106.955 163.805L103.186 160.553H103.181ZM102.441 164.755L102.382 163.124L104.155 163.075L104.209 164.705L102.436 164.755H102.441Z" fill="#FFE700"/>
<path d="M108.353 157.741L105.55 160.488L108.536 163.066L111.339 160.32L108.353 157.741Z" fill="#FFE700"/>
<path d="M103.07 157.033L101.213 158.852L103.191 160.56L105.047 158.741L103.07 157.033Z" fill="#FFE700"/>
<path d="M108.06 155.334L103.01 155.482L105.728 157.825L108.172 155.428L110.778 157.677L113.325 155.182L108.275 155.33L108.06 155.334Z" fill="#FFE700"/>
<path d="M106.049 167.191L111.309 167.035L108.596 164.692L106.049 167.191Z" fill="#FFE700"/>
<path d="M113.495 160.257L109.96 163.72L113.724 166.972L117.264 163.514L113.495 160.262V160.257ZM112.75 164.45L112.692 162.819L114.464 162.77L114.518 164.401L112.745 164.45H112.75Z" fill="#FFE700"/>
<path d="M118.666 157.441L115.863 160.188L118.849 162.766L121.652 160.019L118.666 157.441Z" fill="#FFE700"/>
<path d="M113.375 156.728L111.519 158.547L113.496 160.255L115.353 158.436L113.375 156.728Z" fill="#FFE700"/>
<path d="M118.37 155.035L113.325 155.182L116.037 157.525L118.487 155.129L121.087 157.377L123.634 154.882L118.589 155.03L118.37 155.035Z" fill="#FFE700"/>
<path d="M116.358 166.887L121.623 166.734L118.91 164.392L116.358 166.887Z" fill="#FFE700"/>
<path d="M123.069 164.15L123.011 162.519L123.897 162.492L123.814 159.953L120.279 163.415L124.038 166.667L123.956 164.123L123.069 164.15Z" fill="#FFE700"/>
<path d="M123.814 159.953L123.687 156.432L121.837 158.246L123.814 159.953Z" fill="#FFE700"/>
<path d="M60.0052 176.454L61.3103 176.418L57.1467 172.822L53.2362 176.656L54.5364 176.616L57.1855 174.022L60.0052 176.454Z" fill="#FFE700"/>
<path d="M51.9895 172.969L52.1161 176.683L56.0266 172.853L51.9895 172.969Z" fill="#FFE700"/>
<path d="M57.2199 175.07L55.6811 176.584L58.8658 176.49L57.2199 175.07Z" fill="#FFE700"/>
<path d="M64.8505 176.316L67.4949 173.722L70.3193 176.159L71.6245 176.118L67.4559 172.522L63.5454 176.351L64.8505 176.316Z" fill="#FFE700"/>
<path d="M66.336 172.553L58.2618 172.79L62.4255 176.383L66.336 172.553Z" fill="#FFE700"/>
<path d="M65.9901 176.28L69.175 176.19L67.5338 174.77L65.9901 176.28Z" fill="#FFE700"/>
<path d="M68.5471 171.801L78.8613 171.505L89.1755 171.205L99.4849 170.905L109.799 170.604L120.108 170.304L124.146 170.183L124.126 169.615L120.089 169.735L109.78 170.036L99.4654 170.336L89.1561 170.636L78.8418 170.936L68.5276 171.236L58.2182 171.536L51.9459 171.72L51.9654 172.284L58.2377 172.105L68.5471 171.801Z" fill="#FFE700"/>
<path d="M68.5126 170.774L78.8268 170.474L89.1411 170.174L99.4505 169.874L109.76 169.574L120.074 169.274L124.111 169.157L124.092 168.588L120.055 168.709L109.74 169.005L99.431 169.305L89.1216 169.61L78.8074 169.905L68.4931 170.206L58.1837 170.506L51.9115 170.689L51.9309 171.258L58.2032 171.074L68.5126 170.774Z" fill="#FFE700"/>
<path d="M75.1602 176.015L77.8094 173.422L80.629 175.854L81.9341 175.818L77.7655 172.222L73.855 176.051L75.1602 176.015Z" fill="#FFE700"/>
<path d="M76.6502 172.253L68.5762 172.49L72.7398 176.087L76.6502 172.253Z" fill="#FFE700"/>
<path d="M76.3043 175.984L79.4891 175.886L77.8432 174.47L76.3043 175.984Z" fill="#FFE700"/>
<path d="M85.4745 175.715L88.1237 173.117L90.9433 175.554L92.2435 175.518L88.0798 171.921L84.1694 175.755L85.4745 175.715Z" fill="#FFE700"/>
<path d="M86.9596 171.952L78.8854 172.19L83.054 175.787L86.9596 171.952Z" fill="#FFE700"/>
<path d="M86.6137 175.679L89.8035 175.59L88.1575 174.17L86.6137 175.679Z" fill="#FFE700"/>
<path d="M95.7885 175.415L98.4327 172.822L101.252 175.254L102.558 175.218L98.3939 171.621L94.4834 175.451L95.7885 175.415Z" fill="#FFE700"/>
<path d="M97.2739 171.653L89.1997 171.886L93.3634 175.487L97.2739 171.653Z" fill="#FFE700"/>
<path d="M96.9229 175.379L100.113 175.29L98.4665 173.87L96.9229 175.379Z" fill="#FFE700"/>
<path d="M106.098 175.115L108.747 172.522L111.567 174.954L112.867 174.918L108.703 171.321L104.793 175.155L106.098 175.115Z" fill="#FFE700"/>
<path d="M107.588 171.353L99.509 171.59L103.677 175.187L107.588 171.353Z" fill="#FFE700"/>
<path d="M107.237 175.084L110.427 174.99L108.781 173.57L107.237 175.084Z" fill="#FFE700"/>
<path d="M116.407 174.815L119.057 172.217L121.876 174.653L123.181 174.618L119.018 171.021L115.107 174.85L116.407 174.815Z" fill="#FFE700"/>
<path d="M117.898 171.052L109.819 171.285L113.987 174.882L117.898 171.052Z" fill="#FFE700"/>
<path d="M117.547 174.784L120.737 174.69L119.096 173.27L117.547 174.784Z" fill="#FFE700"/>
<path d="M68.7759 178.345L79.0852 178.045L89.3995 177.745L99.7089 177.444L110.023 177.144L120.333 176.844L124.374 176.728L124.326 175.272L120.284 175.388L109.97 175.688L99.6601 175.988L89.3508 176.289L79.0366 176.589L68.7271 176.889L58.4129 177.189L52.1407 177.373L52.1893 178.828L58.4666 178.645L68.7759 178.345Z" fill="#FFE700"/>
<path d="M124.296 174.586L124.175 170.873L120.133 170.99L124.296 174.586Z" fill="#FFE700"/>
<path d="M51.6289 185.718L51.7165 188.253L52.6029 188.23L52.6564 189.861L51.7701 189.888L51.8578 192.427L55.3884 188.965L51.6289 185.718Z" fill="#FFE700"/>
<path d="M56.7937 182.905L53.9906 185.651L56.9766 188.229L59.7797 185.483L56.7937 182.905Z" fill="#FFE700"/>
<path d="M51.5073 182.192L51.629 185.717L53.4796 183.899L51.5073 182.192Z" fill="#FFE700"/>
<path d="M56.6157 180.593L59.2162 182.837L61.7631 180.342L56.718 180.49L56.5037 180.499L51.4537 180.642L54.1662 182.985L56.6157 180.593Z" fill="#FFE700"/>
<path d="M54.4875 192.347L59.7518 192.199L57.0393 189.852L54.4875 192.347Z" fill="#FFE700"/>
<path d="M61.9383 185.413L58.4077 188.875L62.172 192.127L65.7075 188.665L61.9383 185.413ZM61.1932 189.614L61.1397 187.984L62.9122 187.935L62.9707 189.565L61.1932 189.614Z" fill="#FFE700"/>
<path d="M67.1071 182.604L64.3041 185.351L67.2901 187.929L70.0931 185.182L67.1071 182.604Z" fill="#FFE700"/>
<path d="M61.8158 181.896L59.9593 183.715L61.9369 185.422L63.7934 183.603L61.8158 181.896Z" fill="#FFE700"/>
<path d="M66.8132 180.194L61.7632 180.342L64.4805 182.689L66.9252 180.293L69.5257 182.542L72.0775 180.042L67.0274 180.19L66.8132 180.194Z" fill="#FFE700"/>
<path d="M64.8019 192.051L70.0661 191.894L67.3537 189.552L64.8019 192.051Z" fill="#FFE700"/>
<path d="M72.2478 185.117L68.7172 188.58L72.4817 191.832L76.0172 188.369L72.2478 185.117ZM71.5077 189.314L71.4492 187.684L73.2218 187.63L73.2803 189.261L71.5077 189.314Z" fill="#FFE700"/>
<path d="M77.4176 182.304L74.6146 185.051L77.6007 187.629L80.4037 184.882L77.4176 182.304Z" fill="#FFE700"/>
<path d="M72.1292 181.596L70.2727 183.415L72.2503 185.122L74.1068 183.303L72.1292 181.596Z" fill="#FFE700"/>
<path d="M77.1276 179.894L72.0776 180.042L74.7901 182.385L77.2348 179.993L79.8401 182.241L82.3918 179.747L77.3419 179.89L77.1276 179.894Z" fill="#FFE700"/>
<path d="M75.1164 191.751L80.3758 191.598L77.6633 189.251L75.1164 191.751Z" fill="#FFE700"/>
<path d="M82.5623 184.817L79.0317 188.28L82.796 191.532L86.3315 188.069L82.5623 184.817ZM81.8172 189.01L81.7587 187.379L83.5314 187.326L83.5849 188.956L81.8123 189.01H81.8172Z" fill="#FFE700"/>
<path d="M87.7346 182.007L84.9315 184.753L87.9174 187.331L90.7205 184.585L87.7346 182.007Z" fill="#FFE700"/>
<path d="M82.4385 181.294L80.582 183.113L82.5597 184.82L84.4162 183.001L82.4385 181.294Z" fill="#FFE700"/>
<path d="M87.4368 179.599L82.3916 179.747L85.1041 182.085L87.5488 179.693L90.154 181.941L92.7009 179.442L87.651 179.59L87.4368 179.599Z" fill="#FFE700"/>
<path d="M85.4256 191.446L90.6899 191.294L87.9725 188.951L85.4256 191.446Z" fill="#FFE700"/>
<path d="M92.8714 184.512L89.3408 187.975L93.1052 191.222L96.6407 187.76L92.8714 184.512ZM92.1312 188.714L92.0728 187.083L93.8454 187.03L93.899 188.66L92.1263 188.714H92.1312Z" fill="#FFE700"/>
<path d="M98.0394 181.705L95.2364 184.451L98.2224 187.03L101.025 184.283L98.0394 181.705Z" fill="#FFE700"/>
<path d="M92.7551 180.996L90.8987 182.815L92.8763 184.523L94.7327 182.704L92.7551 180.996Z" fill="#FFE700"/>
<path d="M97.7509 179.298L92.7009 179.442L95.4183 181.789L97.858 179.392L100.463 181.641L103.01 179.142L97.9603 179.289L97.7509 179.298Z" fill="#FFE700"/>
<path d="M95.74 191.151L100.999 190.994L98.2869 188.656L95.74 191.151Z" fill="#FFE700"/>
<path d="M103.181 184.217L99.6553 187.679L103.42 190.931L106.955 187.469L103.186 184.217H103.181ZM102.441 188.414L102.382 186.783L104.155 186.734L104.209 188.365L102.436 188.414H102.441Z" fill="#FFE700"/>
<path d="M108.357 181.405L105.554 184.151L108.54 186.729L111.343 183.983L108.357 181.405Z" fill="#FFE700"/>
<path d="M103.065 180.699L101.209 182.519L103.186 184.226L105.043 182.407L103.065 180.699Z" fill="#FFE700"/>
<path d="M108.06 178.994L103.01 179.142L105.728 181.485L108.172 179.093L110.778 181.342L113.325 178.842L108.275 178.99L108.06 178.994Z" fill="#FFE700"/>
<path d="M106.049 190.851L111.309 190.698L108.596 188.351L106.049 190.851Z" fill="#FFE700"/>
<path d="M113.495 183.912L109.96 187.375L113.724 190.627L117.264 187.169L113.495 183.917V183.912ZM112.75 188.114L112.692 186.483L114.464 186.434L114.518 188.064L112.745 188.114H112.75Z" fill="#FFE700"/>
<path d="M118.67 181.104L115.867 183.851L118.853 186.429L121.656 183.683L118.67 181.104Z" fill="#FFE700"/>
<path d="M113.376 180.395L111.519 182.214L113.497 183.922L115.353 182.103L113.376 180.395Z" fill="#FFE700"/>
<path d="M118.37 178.699L113.325 178.842L116.037 181.189L118.487 178.793L121.087 181.037L123.634 178.542L118.589 178.69L118.37 178.699Z" fill="#FFE700"/>
<path d="M116.358 190.55L121.623 190.398L118.91 188.051L116.358 190.55Z" fill="#FFE700"/>
<path d="M123.069 187.814L123.011 186.184L123.897 186.157L123.814 183.617L120.279 187.075L124.038 190.327L123.956 187.787L123.069 187.814Z" fill="#FFE700"/>
<path d="M123.814 183.617L123.687 180.092L121.837 181.91L123.814 183.617Z" fill="#FFE700"/>
<path d="M60.0052 200.118L61.3103 200.078L57.1467 196.481L53.2362 200.315L54.5364 200.275L57.1855 197.682L60.0052 200.118Z" fill="#FFE700"/>
<path d="M51.9895 196.634L52.1161 200.347L56.0266 196.513L51.9895 196.634Z" fill="#FFE700"/>
<path d="M57.2199 198.73L55.6811 200.244L58.8658 200.15L57.2199 198.73Z" fill="#FFE700"/>
<path d="M64.8505 199.975L67.4949 197.382L70.3193 199.818L71.6245 199.778L67.4559 196.181L63.5454 200.015L64.8505 199.975Z" fill="#FFE700"/>
<path d="M66.336 196.217L58.2618 196.45L62.4255 200.046L66.336 196.217Z" fill="#FFE700"/>
<path d="M65.9901 199.943L69.175 199.849L67.5338 198.429L65.9901 199.943Z" fill="#FFE700"/>
<path d="M68.5471 195.464L78.8613 195.164L89.1755 194.864L99.4849 194.564L109.799 194.264L120.108 193.964L124.146 193.847L124.126 193.278L120.089 193.395L109.78 193.695L99.4654 193.999L89.1561 194.295L78.8418 194.595L68.5276 194.895L58.2182 195.196L51.9459 195.379L51.9654 195.944L58.2377 195.764L68.5471 195.464Z" fill="#FFE700"/>
<path d="M68.5126 194.434L78.8268 194.138L89.1411 193.838L99.4505 193.534L109.76 193.238L120.074 192.934L124.111 192.817L124.092 192.253L120.055 192.365L109.74 192.669L99.431 192.969L89.1216 193.269L78.8074 193.57L68.4931 193.865L58.1837 194.17L51.9115 194.349L51.9309 194.918L58.2032 194.734L68.5126 194.434Z" fill="#FFE700"/>
<path d="M75.1602 199.675L77.8094 197.081L80.629 199.518L81.9341 199.478L77.7655 195.885L73.855 199.715L75.1602 199.675Z" fill="#FFE700"/>
<path d="M76.6502 195.917L68.5762 196.15L72.7398 199.746L76.6502 195.917Z" fill="#FFE700"/>
<path d="M76.3043 199.644L79.4891 199.55L77.8432 198.13L76.3043 199.644Z" fill="#FFE700"/>
<path d="M85.4745 199.379L88.1237 196.781L90.9433 199.218L92.2435 199.178L88.0798 195.581L84.1694 199.41L85.4745 199.379Z" fill="#FFE700"/>
<path d="M86.9596 195.612L78.8854 195.85L83.054 199.446L86.9596 195.612Z" fill="#FFE700"/>
<path d="M86.6137 199.344L89.8035 199.249L88.1575 197.83L86.6137 199.344Z" fill="#FFE700"/>
<path d="M95.7885 199.074L98.4327 196.481L101.252 198.913L102.558 198.877L98.3939 195.281L94.4834 199.115L95.7885 199.074Z" fill="#FFE700"/>
<path d="M97.2739 195.316L89.1997 195.549L93.3634 199.146L97.2739 195.316Z" fill="#FFE700"/>
<path d="M96.9229 199.043L100.113 198.949L98.4665 197.534L96.9229 199.043Z" fill="#FFE700"/>
<path d="M106.098 198.775L108.747 196.181L111.567 198.618L112.867 198.577L108.703 194.981L104.793 198.815L106.098 198.775Z" fill="#FFE700"/>
<path d="M107.588 195.012L99.509 195.249L103.677 198.846L107.588 195.012Z" fill="#FFE700"/>
<path d="M107.237 198.743L110.427 198.649L108.781 197.229L107.237 198.743Z" fill="#FFE700"/>
<path d="M116.407 198.479L119.057 195.881L121.876 198.318L123.181 198.277L119.018 194.68L115.107 198.515L116.407 198.479Z" fill="#FFE700"/>
<path d="M117.898 194.712L109.819 194.949L113.987 198.546L117.898 194.712Z" fill="#FFE700"/>
<path d="M117.547 198.443L120.737 198.349L119.096 196.934L117.547 198.443Z" fill="#FFE700"/>
<path d="M68.7759 202.004L79.0852 201.704L89.3995 201.404L99.7089 201.108L110.023 200.808L120.333 200.504L124.374 200.387L124.326 198.931L120.284 199.048L109.97 199.348L99.6601 199.648L89.3508 199.948L79.0366 200.253L68.7271 200.548L58.4129 200.848L52.1407 201.032L52.1893 202.488L58.4666 202.304L68.7759 202.004Z" fill="#FFE700"/>
<path d="M124.296 198.246L124.175 194.528L120.133 194.649L124.296 198.246Z" fill="#FFE700"/>
<path d="M59.1919 152.759L60.497 152.723L56.3284 149.126L52.418 152.956L53.7232 152.92L56.3723 150.327L59.1919 152.759Z" fill="#FFE700"/>
<path d="M51.1764 149.278L51.303 152.992L55.2085 149.157L51.1764 149.278Z" fill="#FFE700"/>
<path d="M56.4067 151.375L54.8629 152.885L58.0478 152.795L56.4067 151.375Z" fill="#FFE700"/>
<path d="M64.0376 152.62L66.6818 150.022L69.5063 152.459L70.8065 152.423L66.6381 148.826L62.7325 152.656L64.0376 152.62Z" fill="#FFE700"/>
<path d="M65.5225 148.858L57.4483 149.095L61.612 152.692L65.5225 148.858Z" fill="#FFE700"/>
<path d="M65.1769 152.589L68.3616 152.49L66.7157 151.075L65.1769 152.589Z" fill="#FFE700"/>
<path d="M67.7336 148.11L78.0478 147.81L88.3571 147.505L98.6713 147.209L108.981 146.905L119.295 146.605L123.332 146.493L123.313 145.924L119.275 146.04L108.961 146.341L98.6519 146.641L88.3425 146.936L78.0283 147.241L67.7141 147.541L57.4046 147.841L51.1275 148.02L51.147 148.589L57.4192 148.406L67.7336 148.11Z" fill="#FFE700"/>
<path d="M67.6994 147.079L78.0136 146.779L88.3229 146.479L98.6324 146.179L108.947 145.879L119.261 145.579L123.298 145.462L123.278 144.893L119.237 145.01L108.927 145.314L98.6178 145.61L88.3036 145.91L77.9941 146.21L67.6799 146.51L57.3706 146.811L51.0982 146.994L51.1128 147.563L57.3852 147.379L67.6994 147.079Z" fill="#FFE700"/>
<path d="M74.3467 152.32L76.9958 149.722L79.8155 152.159L81.1158 152.123L76.9521 148.526L73.0416 152.356L74.3467 152.32Z" fill="#FFE700"/>
<path d="M75.8371 148.558L67.7581 148.791L71.9266 152.387L75.8371 148.558Z" fill="#FFE700"/>
<path d="M75.4866 152.284L78.6714 152.195L77.0303 150.775L75.4866 152.284Z" fill="#FFE700"/>
<path d="M84.6611 152.02L87.3054 149.426L90.1299 151.863L91.4301 151.818L87.2664 148.226L83.356 152.056L84.6611 152.02Z" fill="#FFE700"/>
<path d="M86.146 148.257L78.0719 148.49L82.2404 152.092L86.146 148.257Z" fill="#FFE700"/>
<path d="M85.8005 151.984L88.9853 151.894L87.3442 150.474L85.8005 151.984Z" fill="#FFE700"/>
<path d="M94.9702 151.72L97.6194 149.126L100.439 151.558L101.744 151.523L97.5755 147.926L93.6652 151.76L94.9702 151.72Z" fill="#FFE700"/>
<path d="M96.4607 147.962L88.3817 148.195L92.5502 151.791L96.4607 147.962Z" fill="#FFE700"/>
<path d="M96.1097 151.688L99.2994 151.594L97.6535 150.175L96.1097 151.688Z" fill="#FFE700"/>
<path d="M105.28 151.42L107.929 148.826L110.749 151.263L112.054 151.222L107.89 147.626L103.98 151.455L105.28 151.42Z" fill="#FFE700"/>
<path d="M106.77 147.657L98.6962 147.895L102.86 151.487L106.77 147.657Z" fill="#FFE700"/>
<path d="M106.424 151.384L109.609 151.294L107.968 149.874L106.424 151.384Z" fill="#FFE700"/>
<path d="M115.594 151.119L118.238 148.526L121.063 150.958L122.368 150.922L118.199 147.326L114.289 151.155L115.594 151.119Z" fill="#FFE700"/>
<path d="M117.079 147.357L109.005 147.594L113.169 151.191L117.079 147.357Z" fill="#FFE700"/>
<path d="M116.734 151.088L119.918 150.994L118.277 149.574L116.734 151.088Z" fill="#FFE700"/>
<path d="M67.9575 154.649L78.2717 154.349L88.5811 154.049L98.8954 153.749L109.21 153.449L119.519 153.149L123.556 153.032L123.507 151.576L119.47 151.693L109.156 151.993L98.8418 152.293L88.5324 152.593L78.223 152.893L67.9137 153.189L57.5995 153.494L51.3271 153.677L51.3758 155.133L57.6481 154.949L67.9575 154.649Z" fill="#FFE700"/>
<path d="M123.483 150.891L123.356 147.173L119.319 147.294L123.483 150.891Z" fill="#FFE700"/>
</mask>
<g mask="url(#mask0_1475_114333)">
<path d="M64.24 147.36L59.0231 202.488C59.0231 202.488 85.8537 190.937 93.7893 190.097C101.725 189.257 119.944 179.778 119.944 179.778L112.038 147.36L64.24 147.36Z" fill="#FFE700"/>
</g>
<path d="M64.24 147.36L59.0231 202.488C59.0231 202.488 85.8537 190.937 93.7893 190.097C101.725 189.257 119.944 179.778 119.944 179.778L112.038 147.36L64.24 147.36Z" fill="#111111" fill-opacity="0.2"/>
<path d="M62.7541 147.31L52.9199 210.984L110.687 189.994L101.719 147.393L62.7541 147.31Z" fill="#A4D233"/>
<mask id="mask1_1475_114333" style="mask-type:alpha" maskUnits="userSpaceOnUse" x="40" y="147" width="85" height="64">
<path d="M41.1011 165.84L41.2015 168.616L42.2172 168.586L42.2786 170.373L41.2685 170.403L41.3633 173.174L45.4093 169.389L41.1011 165.84Z" fill="#FFE700"/>
<path d="M47.0191 162.768L43.807 165.771L47.2289 168.589L50.441 165.587L47.0191 162.768Z" fill="#FFE700"/>
<path d="M40.9617 161.991L41.1012 165.84L43.2274 163.852L40.9617 161.991Z" fill="#FFE700"/>
<path d="M46.8161 160.239L49.7961 162.697L52.7148 159.969L46.9332 160.131L46.6877 160.136L40.9008 160.292L44.009 162.858L46.8161 160.239Z" fill="#FFE700"/>
<path d="M44.377 173.091L50.4094 172.925L47.3012 170.364L44.377 173.091Z" fill="#FFE700"/>
<path d="M52.9151 165.512L48.8692 169.297L53.183 172.851L57.2345 169.067L52.9151 165.512ZM52.0614 170.105L52 168.322L54.0312 168.268L54.0983 170.051L52.0614 170.105Z" fill="#FFE700"/>
<path d="M58.8334 162.439L55.6213 165.441L59.0431 168.259L62.2553 165.257L58.8334 162.439Z" fill="#FFE700"/>
<path d="M52.7786 161.67L50.6511 163.658L52.9175 165.525L55.045 163.536L52.7786 161.67Z" fill="#FFE700"/>
<path d="M58.5014 159.808L52.7144 159.969L55.8284 162.53L58.6297 159.91L61.6098 162.368L64.534 159.641L58.747 159.798L58.5014 159.808Z" fill="#FFE700"/>
<path d="M56.1968 172.763L62.2294 172.596L59.121 170.036L56.1968 172.763Z" fill="#FFE700"/>
<path d="M64.7295 165.184L60.6836 168.968L64.9974 172.523L69.0488 168.738L64.7295 165.184ZM63.8812 169.771L63.8142 167.989L65.8456 167.93L65.9125 169.713L63.8812 169.771Z" fill="#FFE700"/>
<path d="M70.6523 162.11L67.4401 165.113L70.8617 167.931L74.0739 164.928L70.6523 162.11Z" fill="#FFE700"/>
<path d="M64.5985 161.333L62.471 163.321L64.7372 165.188L66.8647 163.199L64.5985 161.333Z" fill="#FFE700"/>
<path d="M70.3209 159.48L64.5338 159.641L67.6422 162.202L70.4436 159.583L73.4291 162.04L76.3533 159.308L70.5664 159.475L70.3209 159.48Z" fill="#FFE700"/>
<path d="M68.0166 172.435L74.0436 172.268L70.9352 169.703L68.0166 172.435Z" fill="#FFE700"/>
<path d="M76.5493 164.856L72.5034 168.641L76.8171 172.195L80.8686 168.411L76.5493 164.856ZM75.6954 169.444L75.6285 167.661L77.6598 167.603L77.7212 169.385L75.6898 169.444H75.6954Z" fill="#FFE700"/>
<path d="M82.4703 161.782L79.2582 164.784L82.6798 167.602L85.892 164.6L82.4703 161.782Z" fill="#FFE700"/>
<path d="M76.4067 161.003L74.2794 162.991L76.5458 164.858L78.6731 162.87L76.4067 161.003Z" fill="#FFE700"/>
<path d="M82.1351 159.152L76.3536 159.309L79.462 161.874L82.2634 159.255L85.2491 161.712L88.1677 158.985L82.3806 159.147L82.1351 159.152Z" fill="#FFE700"/>
<path d="M79.8304 172.107L85.8631 171.94L82.7492 169.38L79.8304 172.107Z" fill="#FFE700"/>
<path d="M88.363 164.528L84.3171 168.313L88.6309 171.862L92.6824 168.078L88.363 164.528ZM87.5148 169.116L87.4479 167.333L89.4792 167.275L89.5406 169.057L87.5092 169.116H87.5148Z" fill="#FFE700"/>
<path d="M94.2901 161.452L91.0779 164.454L94.4998 167.273L97.7119 164.27L94.2901 161.452Z" fill="#FFE700"/>
<path d="M88.2293 160.678L86.1018 162.667L88.368 164.533L90.4955 162.545L88.2293 160.678Z" fill="#FFE700"/>
<path d="M93.9544 158.824L88.1674 158.985L91.2813 161.546L94.0771 158.926L97.0628 161.384L99.9814 158.657L94.1945 158.814L93.9544 158.824Z" fill="#FFE700"/>
<path d="M91.6497 171.779L97.6768 171.613L94.5683 169.047L91.6497 171.779Z" fill="#FFE700"/>
<path d="M100.177 164.2L96.1365 167.984L100.45 171.539L104.502 167.755L100.182 164.2H100.177ZM99.3286 168.788L99.2616 167.005L101.293 166.951L101.354 168.734L99.323 168.788H99.3286Z" fill="#FFE700"/>
<path d="M106.108 161.124L102.896 164.126L106.318 166.945L109.53 163.942L106.108 161.124Z" fill="#FFE700"/>
<path d="M100.045 160.35L97.9178 162.338L100.184 164.205L102.312 162.216L100.045 160.35Z" fill="#FFE700"/>
<path d="M105.774 158.495L99.9818 158.657L103.096 161.218L105.897 158.598L108.883 161.056L111.801 158.329L106.014 158.49L105.774 158.495Z" fill="#FFE700"/>
<path d="M103.464 171.451L109.491 171.285L106.383 168.724L103.464 171.451Z" fill="#FFE700"/>
<path d="M111.997 163.872L107.945 167.656L112.259 171.211L116.316 167.431L111.997 163.876V163.872ZM111.149 168.459L111.082 166.677L113.113 166.623L113.174 168.405L111.143 168.459H111.149Z" fill="#FFE700"/>
<path d="M117.927 160.795L114.714 163.798L118.136 166.616L121.348 163.614L117.927 160.795Z" fill="#FFE700"/>
<path d="M111.858 160.028L109.731 162.017L111.997 163.883L114.124 161.895L111.858 160.028Z" fill="#FFE700"/>
<path d="M117.588 158.168L111.801 158.329L114.91 160.89L117.711 158.27L120.697 160.728L123.615 158.001L117.834 158.163L117.588 158.168Z" fill="#FFE700"/>
<path d="M115.278 171.123L121.311 170.956L118.202 168.396L115.278 171.123Z" fill="#FFE700"/>
<path d="M122.968 168.131L122.901 166.344L123.916 166.32L123.822 163.543L119.77 167.328L124.084 170.878L123.983 168.102L122.968 168.131Z" fill="#FFE700"/>
<path d="M123.822 163.544L123.677 159.69L121.556 161.678L123.822 163.544Z" fill="#FFE700"/>
<path d="M50.6999 181.581L52.1956 181.542L47.4242 177.61L42.943 181.802L44.433 181.753L47.4688 178.918L50.6999 181.581Z" fill="#FFE700"/>
<path d="M41.5143 177.772L41.6594 181.831L46.1406 177.644L41.5143 177.772Z" fill="#FFE700"/>
<path d="M47.5131 180.068L45.7441 181.718L49.3938 181.616L47.5131 180.068Z" fill="#FFE700"/>
<path d="M56.2523 181.429L59.2826 178.59L62.5194 181.253L64.0149 181.214L59.2379 177.282L54.7567 181.469L56.2523 181.429Z" fill="#FFE700"/>
<path d="M57.9544 177.317L48.702 177.571L53.4732 181.503L57.9544 177.317Z" fill="#FFE700"/>
<path d="M57.5585 181.39L61.2082 181.292L59.3275 179.735L57.5585 181.39Z" fill="#FFE700"/>
<path d="M60.4939 176.494L72.3079 176.166L84.1277 175.843L95.9417 175.51L107.761 175.186L119.575 174.858L124.202 174.726L124.179 174.104L119.559 174.236L107.739 174.564L95.9193 174.892L84.1053 175.221L72.2857 175.549L60.4716 175.877L48.652 176.205L41.4642 176.406L41.4865 177.022L48.6743 176.827L60.4939 176.494Z" fill="#FFE700"/>
<path d="M60.449 175.373L72.2687 175.044L84.0883 174.716L95.9023 174.388L107.722 174.06L119.536 173.732L124.162 173.605L124.14 172.983L119.514 173.111L107.7 173.439L95.8799 173.767L84.0659 174.095L72.2464 174.423L60.4268 174.751L48.6126 175.079L41.4249 175.279L41.4473 175.901L48.635 175.701L60.449 175.373Z" fill="#FFE700"/>
<path d="M68.0667 181.102L71.1025 178.267L74.3337 180.926L75.8292 180.882L71.0578 176.95L66.5712 181.141L68.0667 181.102Z" fill="#FFE700"/>
<path d="M69.7739 176.988L60.5212 177.248L65.2926 181.179L69.7739 176.988Z" fill="#FFE700"/>
<path d="M69.3777 181.062L73.0274 180.959L71.1412 179.412L69.3777 181.062Z" fill="#FFE700"/>
<path d="M79.8859 180.773L82.9217 177.933L86.1529 180.597L87.6484 180.558L82.8716 176.626L78.3904 180.812L79.8859 180.773Z" fill="#FFE700"/>
<path d="M81.5882 176.661L72.3411 176.915L77.1125 180.847L81.5882 176.661Z" fill="#FFE700"/>
<path d="M81.1974 180.734L84.8472 180.636L82.9609 179.084L81.1974 180.734Z" fill="#FFE700"/>
<path d="M91.7058 180.445L94.7361 177.61L97.9727 180.269L99.4628 180.23L94.6914 176.298L90.2102 180.485L91.7058 180.445Z" fill="#FFE700"/>
<path d="M93.408 176.333L84.1554 176.587L88.9268 180.519L93.408 176.333Z" fill="#FFE700"/>
<path d="M93.012 180.406L96.6617 180.308L94.7754 178.756L93.012 180.406Z" fill="#FFE700"/>
<path d="M103.52 180.117L106.555 177.277L109.787 179.941L111.277 179.902L106.505 175.965L102.024 180.156L103.52 180.117Z" fill="#FFE700"/>
<path d="M105.227 176.004L95.9693 176.264L100.746 180.196L105.227 176.004Z" fill="#FFE700"/>
<path d="M104.826 180.082L108.481 179.975L106.595 178.427L104.826 180.082Z" fill="#FFE700"/>
<path d="M115.334 179.784L118.37 176.949L121.601 179.613L123.096 179.573L118.325 175.642L113.844 179.828L115.334 179.784Z" fill="#FFE700"/>
<path d="M117.041 175.676L107.783 175.931L112.56 179.863L117.041 175.676Z" fill="#FFE700"/>
<path d="M116.64 179.75L120.295 179.652L118.414 178.1L116.64 179.75Z" fill="#FFE700"/>
<path d="M60.7506 183.647L72.5703 183.319L84.3843 182.991L96.1983 182.663L108.018 182.335L119.832 182.007L124.464 181.875L124.402 180.283L119.776 180.416L107.957 180.739L96.1426 181.072L84.3284 181.4L72.5089 181.728L60.6949 182.056L48.8751 182.379L41.6874 182.58L41.7432 184.176L48.9366 183.975L60.7506 183.647Z" fill="#FFE700"/>
<path d="M124.374 179.535L124.235 175.476L119.603 175.603L124.374 179.535Z" fill="#FFE700"/>
<path d="M41.1011 191.707L41.2015 194.478L42.2172 194.449L42.2786 196.236L41.2685 196.265L41.3633 199.036L45.4093 195.257L41.1011 191.707Z" fill="#FFE700"/>
<path d="M47.018 188.629L43.8059 191.631L47.2278 194.45L50.4399 191.447L47.018 188.629Z" fill="#FFE700"/>
<path d="M40.9617 187.853L41.1012 191.707L43.2274 189.719L40.9617 187.853Z" fill="#FFE700"/>
<path d="M46.8161 186.105L49.7961 188.558L52.7148 185.831L46.9332 185.987L46.6877 185.997L40.9008 186.159L44.009 188.72L46.8161 186.105Z" fill="#FFE700"/>
<path d="M44.377 198.953L50.4094 198.787L47.3012 196.226L44.377 198.953Z" fill="#FFE700"/>
<path d="M52.9151 191.374L48.8692 195.158L53.183 198.713L57.2345 194.928L52.9151 191.374ZM52.0614 195.966L52 194.184L54.0312 194.13L54.0983 195.912L52.0614 195.966Z" fill="#FFE700"/>
<path d="M58.8339 188.301L55.6218 191.303L59.0437 194.122L62.2558 191.119L58.8339 188.301Z" fill="#FFE700"/>
<path d="M52.7786 187.532L50.6511 189.52L52.9173 191.387L55.0448 189.398L52.7786 187.532Z" fill="#FFE700"/>
<path d="M58.5014 185.67L52.7144 185.831L55.8284 188.392L58.6297 185.772L61.6098 188.235L64.534 185.503L58.747 185.665L58.5014 185.67Z" fill="#FFE700"/>
<path d="M56.1968 198.63L62.2294 198.459L59.121 195.898L56.1968 198.63Z" fill="#FFE700"/>
<path d="M64.7295 191.051L60.6836 194.836L64.9974 198.39L69.0488 194.605L64.7295 191.051ZM63.8812 195.638L63.8142 193.856L65.8456 193.798L65.9125 195.58L63.8812 195.638Z" fill="#FFE700"/>
<path d="M70.6566 187.976L67.4444 190.978L70.8661 193.796L74.0783 190.794L70.6566 187.976Z" fill="#FFE700"/>
<path d="M64.5929 187.202L62.4655 189.19L64.7319 191.057L66.8593 189.069L64.5929 187.202Z" fill="#FFE700"/>
<path d="M70.3209 185.342L64.5338 185.503L67.6422 188.064L70.4436 185.444L73.4291 187.907L76.3533 185.175L70.5664 185.337L70.3209 185.342Z" fill="#FFE700"/>
<path d="M68.0166 198.302L74.0436 198.131L70.9352 195.57L68.0166 198.302Z" fill="#FFE700"/>
<path d="M76.5493 190.718L72.5034 194.502L76.8171 198.057L80.8686 194.272L76.5493 190.718ZM75.6954 195.305L75.6285 193.523L77.6598 193.464L77.7212 195.247L75.6898 195.305H75.6954Z" fill="#FFE700"/>
<path d="M82.465 187.651L79.2529 190.653L82.6747 193.472L85.8868 190.469L82.465 187.651Z" fill="#FFE700"/>
<path d="M76.4111 186.869L74.2837 188.857L76.5501 190.724L78.6775 188.735L76.4111 186.869Z" fill="#FFE700"/>
<path d="M82.1351 185.018L76.3536 185.175L79.462 187.736L82.2634 185.121L85.2491 187.574L88.1677 184.847L82.3806 185.009L82.1351 185.018Z" fill="#FFE700"/>
<path d="M79.8304 197.969L85.8631 197.802L82.7492 195.241L79.8304 197.969Z" fill="#FFE700"/>
<path d="M88.363 190.389L84.3171 194.174L88.6309 197.724L92.6824 193.939L88.363 190.389ZM87.5148 194.982L87.4479 193.2L89.4792 193.141L89.5406 194.923L87.5092 194.982H87.5148Z" fill="#FFE700"/>
<path d="M94.2848 187.315L91.0726 190.317L94.4943 193.135L97.7064 190.133L94.2848 187.315Z" fill="#FFE700"/>
<path d="M88.2255 186.544L86.0981 188.532L88.3643 190.399L90.4917 188.411L88.2255 186.544Z" fill="#FFE700"/>
<path d="M93.9544 184.685L88.1674 184.847L91.2813 187.412L94.0771 184.788L97.0628 187.251L99.9814 184.519L94.1945 184.68L93.9544 184.685Z" fill="#FFE700"/>
<path d="M91.6497 197.646L97.6768 197.474L94.5683 194.914L91.6497 197.646Z" fill="#FFE700"/>
<path d="M100.177 190.066L96.1365 193.851L100.45 197.406L104.502 193.621L100.182 190.066H100.177ZM99.3286 194.649L99.2616 192.867L101.293 192.813L101.354 194.595L99.323 194.649H99.3286Z" fill="#FFE700"/>
<path d="M106.103 186.986L102.891 189.989L106.312 192.807L109.525 189.804L106.103 186.986Z" fill="#FFE700"/>
<path d="M100.044 186.215L97.9167 188.204L100.183 190.07L102.31 188.082L100.044 186.215Z" fill="#FFE700"/>
<path d="M105.774 184.358L99.9818 184.519L103.096 187.08L105.897 184.461L108.883 186.919L111.801 184.191L106.014 184.353L105.774 184.358Z" fill="#FFE700"/>
<path d="M103.464 197.313L109.491 197.146L106.383 194.585L103.464 197.313Z" fill="#FFE700"/>
<path d="M111.997 189.733L107.945 193.518L112.259 197.073L116.316 193.293L111.997 189.738V189.733ZM111.149 194.321L111.082 192.539L113.113 192.485L113.174 194.267L111.143 194.321H111.149Z" fill="#FFE700"/>
<path d="M117.922 186.665L114.71 189.667L118.131 192.485L121.344 189.483L117.922 186.665Z" fill="#FFE700"/>
<path d="M111.858 185.891L109.731 187.879L111.997 189.746L114.125 187.758L111.858 185.891Z" fill="#FFE700"/>
<path d="M117.588 184.035L111.801 184.191L114.91 186.752L117.711 184.137L120.697 186.59L123.615 183.863L117.834 184.025L117.588 184.035Z" fill="#FFE700"/>
<path d="M115.278 196.985L121.311 196.818L118.202 194.258L115.278 196.985Z" fill="#FFE700"/>
<path d="M122.968 193.998L122.901 192.211L123.916 192.186L123.822 189.405L119.77 193.19L124.084 196.745L123.983 193.969L122.968 193.998Z" fill="#FFE700"/>
<path d="M123.822 189.405L123.677 185.557L121.556 187.545L123.822 189.405Z" fill="#FFE700"/>
<path d="M50.6999 207.448L52.1956 207.404L47.4242 203.472L42.943 207.659L44.433 207.62L47.4688 204.785L50.6999 207.448Z" fill="#FFE700"/>
<path d="M41.5143 203.639L41.6594 207.697L46.1406 203.506L41.5143 203.639Z" fill="#FFE700"/>
<path d="M47.5131 205.93L45.7441 207.581L49.3938 207.482L47.5131 205.93Z" fill="#FFE700"/>
<path d="M56.2523 207.292L59.2826 204.457L62.5194 207.115L64.0149 207.076L59.2379 203.144L54.7567 207.336L56.2523 207.292Z" fill="#FFE700"/>
<path d="M57.9544 203.184L48.702 203.438L53.4732 207.37L57.9544 203.184Z" fill="#FFE700"/>
<path d="M57.5585 207.257L61.2082 207.154L59.3275 205.602L57.5585 207.257Z" fill="#FFE700"/>
<path d="M60.4939 202.361L72.3079 202.033L84.1277 201.705L95.9417 201.377L107.761 201.049L119.575 200.721L124.202 200.594L124.179 199.972L119.559 200.099L107.739 200.427L95.9193 200.755L84.1053 201.083L72.2857 201.411L60.4716 201.739L48.652 202.067L41.4642 202.268L41.4865 202.885L48.6743 202.684L60.4939 202.361Z" fill="#FFE700"/>
<path d="M60.449 201.235L72.2687 200.912L84.0883 200.579L95.9023 200.251L107.722 199.922L119.536 199.594L124.162 199.467L124.14 198.845L119.514 198.973L107.7 199.306L95.8799 199.629L84.0659 199.957L72.2464 200.29L60.4268 200.613L48.6126 200.946L41.4249 201.142L41.4473 201.764L48.635 201.563L60.449 201.235Z" fill="#FFE700"/>
<path d="M68.0667 206.963L71.1025 204.123L74.3337 206.792L75.8292 206.748L71.0578 202.816L66.5712 207.007L68.0667 206.963Z" fill="#FFE700"/>
<path d="M69.7739 202.85L60.5212 203.11L65.2926 207.042L69.7739 202.85Z" fill="#FFE700"/>
<path d="M69.3777 206.924L73.0274 206.826L71.1412 205.274L69.3777 206.924Z" fill="#FFE700"/>
<path d="M79.8859 206.635L82.9217 203.8L86.1529 206.464L87.6484 206.42L82.8716 202.488L78.3904 206.674L79.8859 206.635Z" fill="#FFE700"/>
<path d="M81.5882 202.522L72.3411 202.782L77.1125 206.714L81.5882 202.522Z" fill="#FFE700"/>
<path d="M81.1974 206.596L84.8472 206.498L82.9609 204.946L81.1974 206.596Z" fill="#FFE700"/>
<path d="M91.7058 206.307L94.7361 203.472L97.9727 206.131L99.4628 206.091L94.6914 202.16L90.2102 206.351L91.7058 206.307Z" fill="#FFE700"/>
<path d="M93.408 202.194L84.1554 202.453L88.9268 206.385L93.408 202.194Z" fill="#FFE700"/>
<path d="M93.012 206.273L96.6617 206.17L94.7754 204.618L93.012 206.273Z" fill="#FFE700"/>
<path d="M103.52 205.979L106.555 203.144L109.787 205.808L111.277 205.764L106.505 201.832L102.024 206.018L103.52 205.979Z" fill="#FFE700"/>
<path d="M105.227 201.867L95.9693 202.126L100.746 206.053L105.227 201.867Z" fill="#FFE700"/>
<path d="M104.826 205.945L108.481 205.842L106.595 204.29L104.826 205.945Z" fill="#FFE700"/>
<path d="M115.334 205.651L118.37 202.816L121.601 205.48L123.096 205.436L118.325 201.504L113.844 205.69L115.334 205.651Z" fill="#FFE700"/>
<path d="M117.041 201.539L107.783 201.798L112.56 205.73L117.041 201.539Z" fill="#FFE700"/>
<path d="M116.64 205.617L120.295 205.514L118.414 203.962L116.64 205.617Z" fill="#FFE700"/>
<path d="M60.7506 209.509L72.5703 209.181L84.3843 208.853L96.1983 208.525L108.018 208.197L119.832 207.869L124.464 207.742L124.402 206.151L119.776 206.278L107.957 206.606L96.1426 206.934L84.3284 207.262L72.5089 207.59L60.6949 207.918L48.8751 208.246L41.6874 208.447L41.7432 210.038L48.9366 209.837L60.7506 209.509Z" fill="#FFE700"/>
<path d="M124.374 205.401L124.235 201.338L119.603 201.47L124.374 205.401Z" fill="#FFE700"/>
<path d="M49.7679 155.68L51.2634 155.636L46.4864 151.705L42.0054 155.896L43.5009 155.857L46.5367 153.022L49.7679 155.68Z" fill="#FFE700"/>
<path d="M40.5827 151.871L40.7278 155.93L45.2034 151.739L40.5827 151.871Z" fill="#FFE700"/>
<path d="M46.5762 154.167L44.8072 155.817L48.4568 155.719L46.5762 154.167Z" fill="#FFE700"/>
<path d="M55.3203 155.528L58.3505 152.689L61.5872 155.352L63.0829 155.313L58.3059 151.376L53.8192 155.568L55.3203 155.528Z" fill="#FFE700"/>
<path d="M57.0224 151.416L47.7698 151.675L52.5412 155.602L57.0224 151.416Z" fill="#FFE700"/>
<path d="M56.6263 155.494L60.2761 155.386L58.3898 153.839L56.6263 155.494Z" fill="#FFE700"/>
<path d="M59.5564 150.593L71.376 150.265L83.19 149.937L95.0097 149.613L106.829 149.281L118.643 148.952L123.27 148.825L123.247 148.203L118.621 148.331L106.807 148.664L94.9874 148.992L83.1734 149.315L71.3537 149.648L59.5341 149.976L47.7201 150.299L40.5322 150.5L40.549 151.122L47.7423 150.921L59.5564 150.593Z" fill="#FFE700"/>
<path d="M59.517 149.467L71.3366 149.144L83.1508 148.816L94.9704 148.488L106.784 148.16L118.604 147.832L123.23 147.704L123.208 147.082L118.576 147.21L106.762 147.538L94.948 147.866L83.134 148.194L71.3144 148.522L59.4947 148.85L47.6807 149.178L40.4929 149.379L40.5096 149.996L47.6974 149.8L59.517 149.467Z" fill="#FFE700"/>
<path d="M67.1345 155.195L70.1705 152.36L73.4016 155.024L74.8972 154.985L70.1202 151.053L65.639 155.239L67.1345 155.195Z" fill="#FFE700"/>
<path d="M68.8418 151.088L59.5837 151.342L64.3606 155.274L68.8418 151.088Z" fill="#FFE700"/>
<path d="M68.4456 155.161L72.0897 155.063L70.209 153.506L68.4456 155.161Z" fill="#FFE700"/>
<path d="M78.9546 154.872L81.9848 152.037L85.2215 154.696L86.7115 154.652L81.9401 150.725L77.4589 154.911L78.9546 154.872Z" fill="#FFE700"/>
<path d="M80.6562 150.76L71.4036 151.014L76.1806 154.946L80.6562 150.76Z" fill="#FFE700"/>
<path d="M90.7683 154.544L93.804 151.704L97.0352 154.368L98.5308 154.329L93.7539 150.397L89.2727 154.583L90.7683 154.544Z" fill="#FFE700"/>
<path d="M92.4762 150.431L83.218 150.691L87.995 154.623L92.4762 150.431Z" fill="#FFE700"/>
<path d="M92.0739 154.505L95.7291 154.402L93.8428 152.855L92.0739 154.505Z" fill="#FFE700"/>
<path d="M102.582 154.211L105.618 151.376L108.849 154.039L110.345 154L105.573 150.069L101.092 154.255L102.582 154.211Z" fill="#FFE700"/>
<path d="M104.29 150.103L95.0373 150.358L99.8087 154.29L104.29 150.103Z" fill="#FFE700"/>
<path d="M103.894 154.177L107.543 154.079L105.663 152.527L103.894 154.177Z" fill="#FFE700"/>
<path d="M114.401 153.888L117.432 151.053L120.668 153.712L122.164 153.668L117.393 149.736L112.906 153.927L114.401 153.888Z" fill="#FFE700"/>
<path d="M116.11 149.775L106.852 150.03L111.623 153.966L116.11 149.775Z" fill="#FFE700"/>
<path d="M115.708 153.849L119.363 153.751L117.477 152.199L115.708 153.849Z" fill="#FFE700"/>
<path d="M59.8182 157.747L71.6322 157.418L83.4463 157.09L95.2659 156.762L107.086 156.434L118.9 156.101L123.526 155.979L123.47 154.383L118.844 154.51L107.024 154.843L95.2101 155.166L83.3905 155.499L71.5765 155.827L59.7623 156.15L47.9428 156.483L40.7551 156.679L40.8108 158.27L47.9986 158.075L59.8182 157.747Z" fill="#FFE700"/>
<path d="M123.442 153.633L123.297 149.574L118.671 149.702L123.442 153.633Z" fill="#FFE700"/>
</mask>
<g mask="url(#mask1_1475_114333)">
<path d="M63.1304 147.31L53.8014 210.327L108.601 189.553L100.093 147.392L63.1304 147.31Z" fill="#FFE700"/>
</g>
<path d="M111.712 142.843H63.1115L62.2597 149.332H112.61L111.712 142.843Z" fill="#DB307A"/>
</svg>
