<svg width="174" height="240" viewBox="0 0 174 240" fill="none" xmlns="http://www.w3.org/2000/svg">
<rect width="174" height="240" fill="none"/>
<path d="M62.805 96.1818C63.9663 92.968 67.5146 91.2995 70.7304 92.4551C73.9462 93.6106 75.6117 97.1526 74.4504 100.366L56.6215 149.705L44.976 145.52L62.805 96.1818Z" fill="#942483"/>
<path d="M46.3546 161.928C46.3455 161.925 46.3364 161.921 46.3273 161.917L46.3889 161.94C46.3775 161.936 46.3659 161.932 46.3546 161.928ZM71.3651 92.6679C74.2718 93.7122 75.7785 96.9141 74.7294 99.8192L56.7084 149.721L55.4367 149.263L73.6867 98.7256C74.5713 96.2752 73.3875 93.5857 71.0331 92.5608C71.1439 92.5931 71.255 92.6284 71.3651 92.6679Z" fill="#A5D8D6"/>
<path d="M99.7269 100.688C98.5725 97.5049 100.216 93.9838 103.397 92.8237C106.578 91.6635 110.093 93.3037 111.247 96.487L129.152 145.858L117.631 150.059L99.7269 100.688Z" fill="#942483"/>
<path d="M104.009 92.5854C106.839 91.5529 109.966 93.0115 110.994 95.8432L129.14 145.847L127.902 146.297L109.53 95.6743C108.663 93.286 106.097 92.0095 103.693 92.7118C103.796 92.6668 103.902 92.6245 104.009 92.5854Z" fill="#A5D8D6"/>
<path d="M66.0134 161.433L84.0134 161.45V223.054C84.0134 227.999 79.9885 231.999 75.0134 231.999C70.0382 231.999 66.0134 227.999 66.0134 223.054V161.433Z" fill="#DB307A"/>
<path d="M75.3729 231.999C74.8895 231.999 74.4061 231.96 73.9303 231.872C78.097 231.158 81.1511 227.427 81.1358 223.054V170.478L84.0134 170.478V223.054C84.0134 227.999 80.1459 231.999 75.3653 231.999H75.3729Z" fill="#32B8DE"/>
<path d="M89.9808 161.433L107.981 161.433V223.065C107.981 228.004 103.956 231.999 98.9808 231.999C94.0056 231.999 89.9808 228.004 89.9808 223.065V161.433Z" fill="#DB307A"/>
<path d="M99.3443 231.999C98.8607 231.999 98.3772 231.961 97.9013 231.877C102.069 231.191 105.124 227.606 105.108 223.403V161.721L107.987 161.721V223.403C107.987 228.155 104.118 231.999 99.3366 231.999H99.3443Z" fill="#32B8DE"/>
<path d="M69.2773 99.6417C69.7174 95.5605 73.2288 92.4623 77.4196 92.4717H95.6178C99.732 92.4717 103.196 95.4576 103.741 99.4358L116.045 190.934C116.237 192.394 115.184 193.732 113.692 193.929C113.567 193.938 113.462 193.957 113.338 193.957H62.1587C60.6565 193.957 59.4222 192.759 59.4222 191.28C59.4222 191.196 59.4223 191.102 59.4318 191.018L69.2581 99.6417H69.2773Z" fill="white"/>
<path d="M69.1198 94.6188C69.3019 89.9838 71.7721 89.4305 72.9992 89.4305H78.3152L78.2328 87.4858H94.6131V89.4142H100.357C104.044 89.3296 105.232 91.5405 105.232 94.5738L116.993 190.867C116.993 193.957 114.972 193.957 114.972 193.957H58.7858C57.2881 193.957 56.9299 192.041 56.9299 191.221L69.1198 94.6188Z" fill="#942483"/>
<path d="M68.4005 112.056C77.0893 111.358 83.9786 105.168 84.756 97.3601V90.2129H87.8013V97.0348C87.8013 105.512 77.4939 114.783 68.049 114.783L68.4005 112.047V112.056Z" fill="#A5D8D6"/>
<path d="M78.2332 90.2227H80.9696C81.1131 91.6674 82.2517 92.806 83.706 92.9591H89.1598C90.6045 92.8155 91.7431 91.677 91.8962 90.2227H94.6326C94.4413 93.1504 92.1067 95.485 89.1789 95.6763H83.7251C80.7974 95.485 78.4628 93.1504 78.2715 90.2227H78.2619H78.2332Z" fill="#A5D8D6"/>
<path d="M94.6326 87.4858H78.2332V90.2222H94.6326V87.4858Z" fill="#A5D8D6"/>
<path d="M115.018 194.047H59.3724C57.0651 194.047 56.9465 192.627 56.9465 191.106C56.9369 191.193 56.9465 191.02 56.9465 191.106L67.8551 96.8871C68.1134 94.3266 68.4004 91.846 70.5915 90.5176C69.96 91.5572 70.1693 92.9614 70.5915 94.1341L60.1254 188.255C60.1254 190.566 61.6933 190.943 63.1859 191.106C63.2816 191.116 63.3773 191.116 63.473 191.116L116.993 191.116C116.993 192.627 116.53 194.047 115.018 194.047Z" fill="#A5D8D6"/>
</svg>
