<svg width="174" height="240" viewBox="0 0 174 240" fill="none" xmlns="http://www.w3.org/2000/svg">
<rect width="174" height="240" fill="none"/>
<path d="M62.8534 96.1818C64.0147 92.968 67.563 91.2995 70.7788 92.4551C73.9946 93.6106 75.6601 97.1526 74.4988 100.366L56.6699 149.705L45.0244 145.52L62.8534 96.1818Z" fill="#684DA8"/>
<path d="M71.408 92.6659C74.2687 93.6936 75.7512 96.8444 74.7188 99.7035L56.6686 149.689L55.4171 149.238L73.6926 98.6272C74.5632 96.2157 73.3989 93.5685 71.0818 92.5599C71.1908 92.5917 71.2997 92.627 71.408 92.6659Z" fill="#5937A8"/>
<path d="M99.841 100.688C98.6865 97.5049 100.33 93.9838 103.511 92.8237C106.692 91.6635 110.207 93.3037 111.361 96.487L129.266 145.858L117.745 150.059L99.841 100.688Z" fill="#684DA8"/>
<path d="M104.123 92.5854C106.953 91.5529 110.08 93.0115 111.108 95.8432L129.254 145.847L128.016 146.297L109.644 95.6743C108.777 93.286 106.211 92.0095 103.807 92.7118C103.911 92.6668 104.016 92.6245 104.123 92.5854Z" fill="#5937A8"/>
<path d="M117.381 223.219C117.37 223.262 117.353 223.293 117.336 223.324C117.285 223.44 117.228 223.557 117.166 223.667C117.103 223.79 117.03 223.9 116.95 224.022C116.876 224.127 116.803 224.225 116.723 224.329C116.394 224.74 115.997 225.09 115.554 225.347C115.486 225.39 115.418 225.427 115.35 225.464C115.321 225.482 115.287 225.494 115.259 225.519C115.191 225.549 115.123 225.586 115.049 225.611C114.742 225.734 114.424 225.832 114.095 225.881C114.078 225.887 114.05 225.893 114.033 225.893C113.959 225.899 113.885 225.911 113.806 225.911C113.732 225.911 113.664 225.924 113.59 225.924C113.539 225.924 113.482 225.924 113.431 225.924H63.7956C62.9045 225.924 62.0474 225.574 61.3776 224.942C58.9597 222.649 59.0278 221.754 59.1016 220.852L60.3446 207.686L60.5546 205.527L60.986 200.916L61.196 198.757L65.6232 140.206C65.6402 140.077 65.6516 139.942 65.68 139.813C65.6913 139.739 65.7084 139.672 65.7197 139.605C65.7367 139.507 65.7651 139.408 65.7935 139.31C65.8559 139.102 65.9297 138.899 66.0148 138.709C66.0432 138.63 66.0829 138.562 66.117 138.488C66.1851 138.36 66.2646 138.225 66.3327 138.096C66.4178 137.98 66.4916 137.863 66.5767 137.746C66.6392 137.667 66.6959 137.599 66.7584 137.526C66.8208 137.452 66.8832 137.379 66.9514 137.317C66.9911 137.262 67.0365 137.225 67.0876 137.182C67.1557 137.115 67.2238 137.06 67.3033 136.992C67.3884 136.925 67.4679 136.857 67.553 136.808C67.5814 136.784 67.6211 136.753 67.6608 136.735C67.7517 136.667 67.8482 136.612 67.956 136.557C67.9844 136.544 68.0071 136.532 68.0354 136.52C68.0581 136.508 68.0865 136.489 68.1092 136.483C68.6484 136.213 69.2444 136.072 69.8631 136.072H104.276C106.427 136.072 108.243 137.795 108.51 140.095L115.1 198.77L115.35 200.928L115.367 201.063L115.65 203.424L115.889 205.448L115.9 205.54L116.161 207.698L117.705 220.742C117.813 221.631 117.705 222.465 117.381 223.219Z" fill="#684DA8"/>
<path d="M117.406 223.178C117.333 223.282 117.223 223.792 116.797 224.264C116.47 224.675 116.111 225.096 115.671 225.354C115.604 225.397 115.536 225.433 115.468 225.47C115.44 225.489 115.406 225.501 115.378 225.525C115.31 225.556 115.243 225.593 115.169 225.617C114.865 225.74 114.549 225.838 114.222 225.887C114.132 225.899 114.03 225.918 113.934 225.918C113.884 225.918 113.833 225.924 113.782 225.93C113.731 225.93 113.675 225.93 113.624 225.93H64.2556C63.3703 225.93 62.5188 225.581 61.8534 224.949C59.4512 222.655 59.5189 221.76 59.5922 220.859L60.8272 207.692L61.0358 205.534L61.47 200.922L61.673 198.764L66.0713 140.212C66.0883 140.083 66.1052 139.948 66.1277 139.819C66.139 139.746 66.1559 139.678 66.1728 139.611C66.1898 139.513 66.2123 139.415 66.2461 139.317C66.3082 139.108 66.3815 138.906 66.4661 138.716C66.4943 138.636 66.5337 138.569 66.5676 138.495C66.6352 138.366 66.7142 138.231 66.7819 138.102C66.8664 137.986 66.9397 137.87 67.0243 137.753C67.0863 137.673 67.1427 137.606 67.2048 137.532C67.2668 137.458 67.3288 137.385 67.3965 137.324C67.4359 137.275 67.4811 137.238 67.5318 137.189C67.5995 137.121 67.6671 137.066 67.7461 136.999C67.8307 136.931 67.9096 136.864 67.9942 136.815C68.0224 136.79 68.0619 136.76 68.1013 136.741C68.1916 136.674 68.2931 136.619 68.3946 136.563C68.4453 136.539 68.5017 136.508 68.5468 136.483C68.5468 136.483 68.5355 136.514 68.5299 136.527C68.3495 136.962 68.2423 137.428 68.1916 137.912L63.5733 198.776L63.3703 200.934L62.9361 205.546L62.7331 207.705L61.7124 218.559C61.47 221.092 63.1616 223.361 65.4905 223.618C65.6371 223.63 65.7781 223.643 65.9247 223.643H115.739C116.337 223.643 116.871 223.442 117.406 223.178Z" fill="#5937A8"/>
<path d="M68.4441 105.669C68.6254 103.308 73.4176 101.499 75.3144 101.499H98.2374C100.07 101.499 105.462 103.185 105.722 105.454L109.09 147.26C109.09 149.896 108.297 149.872 105.094 149.872C105.006 149.89 104.918 149.896 104.829 149.896H70.3053C65.7109 149.896 65.0764 149.887 65.0764 147.594L68.4441 105.675H71.6434L68.4441 105.669Z" fill="#684DA8"/>
<path d="M106.98 149.831H67.4533C66.2861 149.837 65.3378 148.807 65.3378 147.538C65.3378 147.458 65.3377 147.378 65.349 147.292L68.9908 105.61C69.1367 103.96 70.0794 102.525 71.4599 101.851C71.2691 102.311 71.1456 102.807 71.1063 103.31L67.4533 145.005C67.341 146.268 68.1828 147.403 69.3387 147.526C69.4117 147.532 69.4846 147.538 69.5632 147.538H109.09C109.09 148.813 108.142 149.838 106.986 149.838V149.825L106.98 149.831Z" fill="#5937A8"/>
<path d="M100.415 133.484H96.7346V225.93H100.415V133.484Z" fill="#7A66A8"/>
<path d="M87.5995 12.2568C100.494 12.2568 114.853 22.493 119.059 34.6924L124.672 50.9707C125.644 53.7995 126.137 56.8496 126.194 59.9941V60.0127C125.961 72.9256 119.636 87.1918 109.016 93.3926L125.885 134.743C125.954 134.882 126.011 135.034 126.049 135.18C125.903 135.704 125.575 136.183 125.107 136.505H108.753L57.0693 136.373C53.4452 136.366 51.1027 132.553 52.7314 129.313C57.7198 119.406 66.699 102.496 66.9453 101.997L71.5546 94.666C57.1137 87.4484 47.7626 64.565 53.0351 49.2969L58.6484 33.0186C60.7195 27.0072 65.2599 21.4761 70.8671 17.4033C75.123 14.7829 79.8458 13.0083 84.4931 12.4463C85.5348 12.32 86.5704 12.2569 87.5995 12.2568ZM87.3974 24.4277C68.3468 24.4279 52.9062 39.8337 52.9062 58.834C52.9062 77.8343 68.3467 93.2342 87.3974 93.2344C106.448 93.2344 121.89 77.8344 121.89 58.834C121.89 39.8336 106.448 24.4336 87.3974 24.4336V24.4277Z" fill="#684DA8"/>
<path d="M87.5995 12.2637C100.494 12.2637 117.465 21.8182 121.671 34.0176L127.689 45.7979C129.195 48.745 130.45 51.8512 130.621 55.1562C130.753 57.7156 130.617 61.0272 129.652 64.4824C128.946 67.0116 127.551 69.2755 126.082 71.4521L121.671 77.9883L109.305 92.7129C109.622 92.896 109.882 93.0291 110.136 93.8301L125.884 134.744C125.953 134.883 126.01 135.035 126.048 135.18C126.313 136.146 125.934 137.188 125.107 137.756C125.013 137.819 124.924 137.876 124.823 137.92C124.495 138.084 124.129 138.173 123.763 138.173H106.246L54.5624 138.04C50.9379 138.034 48.5954 134.22 50.2245 130.98C54.5565 121.092 63.5024 94.7791 63.5272 94.7061C50.1567 88.0236 41.8127 68.1559 44.829 53.1289C45.3049 50.7577 46.3897 48.5695 47.6083 46.4805L50.1825 42.0664C53.2976 36.7262 55.8202 30.8683 60.0614 26.3701C62.6339 23.6418 65.7726 20.925 68.6122 18.8994C69.3445 18.3755 70.0959 17.8773 70.8661 17.4102C75.122 14.7897 79.8456 13.0151 84.493 12.4531C85.5348 12.3269 86.5703 12.2637 87.5995 12.2637ZM87.6981 26.9346C70.2148 26.9346 56.0438 41.0727 56.0438 58.5098C56.0438 75.9468 70.2148 90.0801 87.6981 90.0801C105.181 90.0798 119.351 75.9466 119.351 58.5098C119.351 41.0729 105.181 26.9397 87.6981 26.9395V26.9346Z" fill="#5937A8"/>
<path d="M109.635 25.722C98.7928 17.5764 87.6667 18.0501 87.6667 18.0501C73.5287 18.9783 65.7619 25.7158 65.7619 25.7158C47.8163 41.5524 57.2122 69.9419 57.2122 69.9419C57.2122 69.9419 63.4761 93.3873 87.6983 93.16C111.92 92.9264 118.184 69.9419 118.184 69.9419C118.184 69.9419 127.58 41.5522 109.635 25.722ZM88.3866 87.8242H87.0163C87.0163 87.8242 60.8746 86.2646 60.6283 54.3579C60.5715 47.1721 62.5542 41.4513 65.1305 36.7534L87.7235 36.5764L110.266 36.7534C112.842 41.4513 114.825 47.1721 114.768 54.3579C114.522 86.2582 88.3802 87.8242 88.3802 87.8242H88.3866Z" fill="#684DA8"/>
<path d="M66.8479 32.3153C71.4197 25.8366 79.193 21.6689 87.1557 21.0817C93.3125 20.6207 99.8039 22.8626 104.003 27.4406C105.392 28.8867 106.497 30.5474 107.331 32.3218C103.87 30.4464 100.688 28.8171 97.398 27.9204C86.9789 24.9336 76.8187 28.7856 66.8416 32.3218L66.8479 32.3153Z" fill="#5937A8"/>
</svg>
