<svg width="174" height="240" viewBox="0 0 174 240" fill="none" xmlns="http://www.w3.org/2000/svg">
<rect width="174" height="240" fill="none"/>
<path d="M103.054 118.884C103.439 116.328 102.331 103.918 102.284 102.318C101.945 103.845 98.6948 115.273 97.2383 115.512C97.2383 115.512 87.2596 118.221 74.8544 115.482C81.1857 119.492 95.7933 120.059 103.054 118.884Z" fill="#DB307A"/>
<path d="M74.5625 115.416C74.5437 115.416 74.5343 115.406 74.5154 115.406C74.5154 115.406 73.2724 114.596 72.0482 113.215C70.2088 111.141 68.429 107.769 71.1474 103.972C76.063 97.1075 103.071 102.482 103.071 102.482C103.139 103.508 102.91 111.256 103.071 114.623C102.088 115.061 98.1175 115.54 97.2221 115.77C97.2221 115.77 87.0995 118.261 74.5594 115.416H74.5625Z" fill="#FF9800"/>
<path d="M73.009 102.362C80.5676 98.0036 103.073 102.498 103.073 102.498C103.073 101.659 103.073 101.235 103.043 100.696C92.521 97.9805 80.4954 98.2227 73.0059 102.362H73.009Z" fill="#DB307A"/>
<path d="M78.5115 111.131C75.2909 110.564 71.747 108.639 70.1776 105.764C69.013 108.818 70.504 111.473 72.0484 113.216C73.2726 114.597 74.5252 115.417 74.5252 115.417C74.5064 115.417 74.544 115.417 74.5252 115.417C87.0685 118.261 97.3389 115.762 97.3389 115.762C98.0044 115.527 102.41 113.715 102.819 113.176C102.819 113.176 102.563 108.034 102.38 105.227C96.0357 111.022 86.5786 112.681 78.5115 111.128V111.131Z" fill="#CC7A0E"/>
<mask id="mask0_1475_116810" style="mask-type:luminance" maskUnits="userSpaceOnUse" x="69" y="100" width="34" height="17">
<path d="M74.2336 115.255C74.2148 115.255 74.2054 115.245 74.1865 115.245C74.1865 115.245 72.9435 114.454 71.7193 113.104C69.8799 111.075 68.1001 107.778 70.8184 104.066C75.734 97.3546 101.962 102.47 101.962 102.47C101.934 103.492 102.566 111.338 102.566 114.597C102.079 115.055 98.5707 115.39 97.9021 115.623C97.9021 115.623 86.7706 118.036 74.2305 115.255H74.2336Z" fill="white"/>
</mask>
<g mask="url(#mask0_1475_116810)">
<path d="M76.5797 115.291H76.5734C76.3443 115.291 76.112 115.278 75.8797 115.248L75.9205 114.889C76.1371 114.913 76.3568 114.929 76.5734 114.926L76.5797 115.288V115.291ZM76.9313 115.278L76.9093 114.916C77.129 114.903 77.3519 114.876 77.5653 114.836L77.625 115.195C77.399 115.238 77.1635 115.268 76.9313 115.281V115.278ZM75.5344 115.198C75.3084 115.155 75.0793 115.099 74.8533 115.026L74.9506 114.677C75.164 114.743 75.3775 114.796 75.5941 114.836L75.5344 115.195V115.198ZM77.9703 115.122L77.8918 114.767C78.1052 114.717 78.3187 114.647 78.5258 114.567L78.6451 114.909C78.4254 114.992 78.2025 115.069 77.9765 115.122H77.9703ZM74.5174 114.913C74.3008 114.833 74.0811 114.727 73.8708 114.617L74.0246 114.295C74.2223 114.402 74.4264 114.494 74.6304 114.571L74.5143 114.913H74.5174ZM78.9653 114.77L78.8272 114.435C79.0281 114.345 79.2258 114.236 79.4173 114.123L79.5931 114.435C79.3922 114.557 79.1819 114.67 78.9684 114.767L78.9653 114.77ZM73.5663 114.445C73.3623 114.322 73.1645 114.182 72.9825 114.036L73.1865 113.744C73.3623 113.884 73.5475 114.013 73.7389 114.129L73.5694 114.441L73.5663 114.445ZM79.8913 114.242L79.7029 113.94C79.885 113.811 80.0639 113.671 80.2334 113.522L80.4563 113.797C80.2774 113.957 80.089 114.106 79.8944 114.239L79.8913 114.242ZM72.7031 113.807C72.5242 113.648 72.3547 113.479 72.1914 113.3L72.4394 113.051C72.5901 113.22 72.7533 113.379 72.9197 113.525L72.6999 113.807H72.7031ZM80.7106 113.548L80.4783 113.286C80.6352 113.127 80.789 112.954 80.9303 112.778L81.1908 113.007C81.0401 113.197 80.8801 113.376 80.7106 113.548ZM71.9592 113.024C71.8085 112.835 71.6704 112.636 71.5417 112.43L71.8273 112.231C71.9497 112.423 72.0816 112.612 72.2228 112.792L71.9592 113.024ZM81.4105 112.719L81.1374 112.503C81.2693 112.317 81.3917 112.118 81.5016 111.919L81.7998 112.101C81.6836 112.314 81.5549 112.523 81.4137 112.719H81.4105ZM71.3565 112.118C71.2372 111.905 71.1336 111.68 71.0394 111.454L71.3533 111.311C71.4412 111.524 71.5417 111.73 71.6515 111.935L71.3565 112.121V112.118ZM81.963 111.776L81.6554 111.61C81.7527 111.401 81.8406 111.185 81.9159 110.969L82.2361 111.096C82.1576 111.321 82.0666 111.55 81.9598 111.773L81.963 111.776ZM70.9076 111.112C70.8291 110.883 70.7601 110.644 70.7036 110.405L71.0363 110.319C71.0865 110.545 71.1524 110.767 71.2278 110.989L70.9076 111.112ZM82.3522 110.74L82.0226 110.638C82.0854 110.415 82.1356 110.186 82.1733 109.957L82.5123 110.02C82.4715 110.263 82.4181 110.508 82.3522 110.744V110.74ZM70.6345 110.04C70.5937 109.798 70.5655 109.552 70.5529 109.303L70.895 109.283C70.9107 109.516 70.9359 109.748 70.9735 109.977L70.6345 110.04ZM82.5594 109.652L82.2204 109.615C82.2455 109.383 82.2581 109.144 82.2581 108.915L82.6002 108.885V108.911C82.6002 109.157 82.5876 109.406 82.5594 109.652ZM70.5403 108.935V108.918C70.5403 108.676 70.5529 108.434 70.578 108.195L70.9202 108.238C70.8951 108.46 70.8825 108.693 70.8825 108.922L70.5403 108.935ZM82.2455 108.54C82.2329 108.311 82.2047 108.075 82.167 107.843L82.506 107.776C82.5468 108.022 82.5751 108.271 82.5908 108.513L82.2455 108.536V108.54ZM70.9673 107.889L70.6282 107.826C70.6691 107.58 70.7224 107.342 70.7852 107.106L71.1148 107.209C71.052 107.428 71.0018 107.657 70.9641 107.886L70.9673 107.889ZM82.098 107.501C82.0446 107.275 81.9818 107.049 81.9065 106.83L82.2267 106.708C82.3083 106.937 82.3773 107.176 82.4307 107.415L82.098 107.501ZM71.2184 106.877L70.895 106.754C70.9735 106.522 71.0677 106.293 71.1713 106.07L71.4789 106.233C71.3816 106.442 71.2906 106.658 71.2184 106.877ZM81.7809 106.508C81.693 106.293 81.5926 106.084 81.4827 105.885L81.7778 105.702C81.8971 105.911 82.0007 106.14 82.0948 106.359L81.7809 106.505V106.508ZM71.6359 105.928L71.3376 105.742C71.4538 105.526 71.5856 105.32 71.7206 105.124L72 105.34C71.8681 105.526 71.7489 105.725 71.6359 105.928ZM81.307 105.589C81.1845 105.397 81.0527 105.207 80.9114 105.031L81.172 104.796C81.3226 104.988 81.4639 105.181 81.5926 105.387L81.307 105.589ZM72.204 105.065L71.9435 104.829C72.0941 104.643 72.2542 104.457 72.4237 104.291L72.6591 104.553C72.5022 104.713 72.3515 104.882 72.2071 105.061L72.204 105.065ZM80.6917 104.769C80.541 104.603 80.3778 104.444 80.2083 104.295L80.4249 104.012C80.607 104.172 80.7765 104.341 80.9365 104.52L80.6886 104.769H80.6917ZM72.9008 104.321L72.678 104.046C72.8569 103.89 73.0452 103.737 73.2367 103.604L73.4282 103.903C73.243 104.032 73.0672 104.172 72.8977 104.321H72.9008ZM79.9446 104.075C79.7689 103.936 79.5837 103.807 79.3953 103.69L79.5648 103.378C79.7657 103.501 79.9666 103.637 80.155 103.787L79.9509 104.075H79.9446ZM73.7107 103.72L73.5381 103.408C73.7358 103.289 73.9461 103.173 74.1627 103.073L74.3008 103.405C74.0968 103.498 73.899 103.604 73.7107 103.72ZM79.1003 103.531C78.9025 103.432 78.6985 103.339 78.4913 103.256L78.6074 102.917C78.8272 103.003 79.0438 103.1 79.2541 103.209L79.1034 103.535L79.1003 103.531ZM74.6053 103.272L74.486 102.93C74.7026 102.844 74.9286 102.771 75.1546 102.715L75.2362 103.066C75.0228 103.123 74.8093 103.189 74.6053 103.269V103.272ZM78.1806 103.149C77.9702 103.083 77.7537 103.03 77.5371 102.99L77.5967 102.635C77.8259 102.675 78.055 102.731 78.2779 102.801L78.1837 103.149H78.1806ZM75.5595 103L75.4999 102.642C75.7259 102.599 75.9613 102.572 76.1936 102.555L76.2156 102.917C75.9958 102.93 75.7761 102.96 75.5595 103ZM77.2075 102.944C76.9972 102.92 76.7837 102.904 76.5671 102.907L76.5452 102.542H76.5671C76.7963 102.542 77.0223 102.552 77.2452 102.582L77.2075 102.944Z" fill="#032E33"/>
<path d="M76.5737 113.844C76.332 113.844 76.0935 113.824 75.8549 113.784L75.9083 113.426C76.1249 113.466 76.3477 113.482 76.5737 113.482H76.6208L76.6271 113.844H76.5706H76.5737ZM76.9881 113.824L76.9598 113.466C77.1795 113.442 77.4024 113.406 77.619 113.346L77.7006 113.698C77.4652 113.761 77.2266 113.804 76.9881 113.824ZM75.5002 113.711C75.2679 113.655 75.0388 113.575 74.8159 113.482L74.9446 113.144C75.1487 113.237 75.3652 113.31 75.5818 113.363L75.5002 113.715V113.711ZM78.0428 113.589L77.936 113.247C78.1463 113.174 78.3535 113.081 78.5513 112.971L78.7114 113.29C78.4948 113.409 78.2719 113.505 78.0459 113.585L78.0428 113.589ZM74.4863 113.32C74.2729 113.207 74.0657 113.077 73.868 112.928L74.0689 112.632C74.2509 112.772 74.4424 112.891 74.6401 112.998L74.4863 113.32ZM79.0221 113.104L78.8401 112.795C79.0252 112.672 79.2073 112.533 79.3768 112.377L79.5997 112.652C79.4145 112.818 79.2199 112.971 79.0221 113.101V113.104ZM73.5823 112.696C73.3971 112.53 73.2245 112.354 73.0675 112.161L73.3249 111.926C73.4724 112.098 73.6325 112.264 73.8052 112.417L73.5823 112.699V112.696ZM79.8665 112.397L79.6217 112.141C79.7786 111.975 79.9261 111.796 80.058 111.604L80.3373 111.819C80.1961 112.025 80.0391 112.218 79.8696 112.397H79.8665ZM72.8415 111.866C72.6971 111.663 72.5684 111.444 72.4554 111.222L72.7599 111.053C72.8635 111.262 72.9859 111.457 73.1178 111.643L72.8447 111.862L72.8415 111.866ZM80.5351 111.497L80.2432 111.308C80.3562 111.109 80.4597 110.897 80.5476 110.684L80.8615 110.824C80.7674 111.059 80.6575 111.288 80.5288 111.501L80.5351 111.497ZM72.2953 110.877C72.2012 110.641 72.1196 110.399 72.0599 110.156L72.3927 110.067C72.4492 110.292 72.5214 110.515 72.6092 110.731L72.2953 110.877ZM80.9934 110.465L80.6669 110.352C80.7391 110.13 80.7925 109.898 80.827 109.669L81.166 109.728C81.1252 109.977 81.0687 110.223 80.9902 110.468L80.9934 110.465ZM71.9846 109.785C71.9438 109.536 71.9187 109.28 71.9155 109.025H72.2577C72.264 109.254 72.2859 109.489 72.3236 109.722L71.9846 109.785ZM81.21 109.346L80.871 109.317C80.8804 109.187 80.8867 109.048 80.8867 108.915C80.8867 108.815 80.8867 108.713 80.8772 108.61L81.2194 108.586C81.2257 108.693 81.2288 108.806 81.2288 108.915C81.2288 109.061 81.2194 109.204 81.21 109.346ZM72.264 108.669L71.9218 108.649C71.9344 108.397 71.9658 108.138 72.016 107.896L72.3518 107.969C72.3048 108.198 72.2765 108.43 72.264 108.669ZM80.8396 108.261C80.8082 108.032 80.758 107.796 80.692 107.571L81.0185 107.465C81.0907 107.707 81.144 107.959 81.1754 108.208L80.8364 108.261H80.8396ZM72.4303 107.627L72.1039 107.528C72.1729 107.282 72.2577 107.043 72.3644 106.814L72.672 106.973C72.5779 107.182 72.4962 107.408 72.4335 107.63L72.4303 107.627ZM80.5822 107.236C80.5006 107.02 80.4032 106.804 80.2902 106.605L80.5853 106.419C80.7077 106.641 80.8145 106.867 80.9023 107.103L80.5822 107.236ZM72.8227 106.651L72.5245 106.469C72.6438 106.25 72.7819 106.037 72.9294 105.838L73.1962 106.067C73.0581 106.246 72.9325 106.445 72.8195 106.651H72.8227ZM80.1082 106.306C79.9826 106.114 79.8382 105.931 79.6844 105.758L79.9324 105.509C80.0988 105.695 80.2526 105.891 80.3907 106.097L80.1082 106.306ZM73.4222 105.802L73.1711 105.559C73.3343 105.374 73.5133 105.201 73.7047 105.042L73.915 105.324C73.7393 105.47 73.576 105.632 73.4222 105.798V105.802ZM79.4427 105.52C79.2764 105.357 79.0975 105.217 78.9123 105.088L79.1006 104.786C79.2983 104.922 79.493 105.078 79.6719 105.247L79.4427 105.52ZM74.1819 105.118L73.9935 104.816C74.1913 104.676 74.4047 104.55 74.6213 104.444L74.7657 104.773C74.5679 104.872 74.3671 104.988 74.1819 105.118ZM78.6266 104.909C78.432 104.796 78.2248 104.7 78.0176 104.62L78.1307 104.278C78.3567 104.364 78.5795 104.471 78.7898 104.593L78.6266 104.909ZM75.0733 104.64L74.954 104.298C75.1769 104.212 75.4092 104.139 75.6477 104.092L75.7168 104.444C75.4971 104.494 75.2805 104.557 75.0765 104.64H75.0733ZM77.6975 104.507C77.484 104.451 77.2674 104.408 77.0414 104.378L77.0791 104.019C77.3208 104.046 77.5562 104.095 77.7854 104.162L77.6975 104.507ZM76.0433 104.388L76.0024 104.033C76.241 103.996 76.4858 103.989 76.7213 103.996L76.7119 104.361C76.4921 104.351 76.2661 104.361 76.0433 104.391V104.388Z" fill="#032E33"/>
<path d="M76.5763 112.39C76.3283 112.39 76.0866 112.364 75.8544 112.307L75.9297 111.956C76.14 112.002 76.3566 112.029 76.5732 112.029L76.5983 112.277L76.5763 112.39ZM76.9718 112.364L76.931 112.005C77.1445 111.975 77.3548 111.926 77.5588 111.849L77.6718 112.191C77.4458 112.278 77.2104 112.334 76.9687 112.367L76.9718 112.364ZM75.5059 112.205C75.2799 112.122 75.0602 112.012 74.853 111.882L75.0351 111.571C75.2203 111.69 75.418 111.79 75.6189 111.866L75.5059 112.205ZM78.0045 112.042L77.8539 111.717C78.0453 111.617 78.2305 111.494 78.4 111.351L78.6103 111.634C78.422 111.793 78.218 111.929 78.0014 112.042H78.0045ZM74.558 111.66C74.3696 111.504 74.1938 111.328 74.04 111.129L74.3037 110.9C74.4418 111.076 74.5988 111.235 74.7683 111.375L74.558 111.663V111.66ZM78.8866 111.381L78.6449 111.122C78.7987 110.96 78.9337 110.78 79.0498 110.591L79.3386 110.787C79.2099 111.003 79.0592 111.202 78.8866 111.381ZM73.8266 110.824C73.6948 110.611 73.5849 110.382 73.5001 110.147L73.8203 110.017C73.8956 110.229 73.9961 110.435 74.1122 110.625L73.8266 110.824ZM79.5175 110.455L79.2099 110.293C79.304 110.087 79.3794 109.874 79.4328 109.649L79.7655 109.735C79.7058 109.984 79.6242 110.223 79.5175 110.452V110.455ZM73.3871 109.781C73.3275 109.532 73.293 109.28 73.2867 109.028L73.6288 109.018C73.632 109.247 73.6665 109.473 73.7167 109.695L73.3871 109.781ZM79.8283 109.36L79.4893 109.317C79.5049 109.187 79.5144 109.051 79.5112 108.915C79.5112 108.819 79.5081 108.726 79.4987 108.633L79.8377 108.597C79.8502 108.703 79.8534 108.809 79.8534 108.915C79.8534 109.068 79.844 109.217 79.8251 109.36H79.8283ZM73.6351 108.669L73.293 108.643C73.3118 108.387 73.3557 108.132 73.4311 107.89L73.7575 107.999C73.6947 108.215 73.6508 108.44 73.6351 108.669ZM79.4547 108.291C79.4139 108.069 79.3449 107.85 79.257 107.641L79.5709 107.491C79.6682 107.727 79.7435 107.966 79.7906 108.218L79.4547 108.291ZM73.8705 107.68L73.5566 107.534C73.6508 107.305 73.7732 107.08 73.9145 106.87L74.1907 107.086C74.0651 107.269 73.9553 107.468 73.8705 107.677V107.68ZM79.1063 107.339C78.9996 107.146 78.8646 106.96 78.7202 106.791L78.9682 106.545C79.1346 106.731 79.2758 106.937 79.4014 107.156L79.1032 107.339H79.1063ZM74.3947 106.817L74.1436 106.575C74.3069 106.386 74.4889 106.217 74.6867 106.074L74.8844 106.369C74.7086 106.502 74.5454 106.651 74.3979 106.821L74.3947 106.817ZM78.4848 106.555C78.3216 106.409 78.1395 106.276 77.9512 106.167L78.1144 105.848C78.3247 105.968 78.5256 106.117 78.7108 106.28L78.4879 106.555H78.4848ZM75.1575 106.187L74.9911 105.868C75.2015 105.749 75.4274 105.649 75.6597 105.579L75.7539 105.924C75.5499 105.988 75.3458 106.074 75.1575 106.187ZM77.6593 106.024C77.4584 105.941 77.2512 105.878 77.0346 105.842L77.088 105.486C77.3265 105.523 77.5619 105.593 77.7848 105.689L77.6593 106.027V106.024ZM76.0678 105.848L76.0113 105.493C76.2467 105.45 76.4916 105.433 76.7301 105.45L76.7144 105.812C76.5041 105.802 76.2813 105.812 76.0678 105.848Z" fill="#032E33"/>
<path d="M76.5928 110.94H76.5708C76.3228 110.94 76.0874 110.89 75.8614 110.794L75.987 110.459C76.1722 110.535 76.3699 110.578 76.5708 110.578L76.5928 110.943V110.94ZM76.9569 110.897L76.8879 110.545C77.0825 110.498 77.2677 110.419 77.434 110.302L77.6255 110.605C77.4215 110.744 77.1955 110.844 76.9569 110.893V110.897ZM75.5381 110.618C75.3341 110.478 75.1551 110.306 75.0139 110.097L75.2933 109.881C75.4125 110.057 75.5538 110.203 75.7233 110.319L75.5381 110.621V110.618ZM77.908 110.366L77.6663 110.107C77.8107 109.957 77.9268 109.788 78.0053 109.592L78.3192 109.742C78.2188 109.977 78.0807 110.186 77.9049 110.366H77.908ZM74.8318 109.761C74.7314 109.529 74.6718 109.28 74.6561 109.021L75.0013 109.005C75.0108 109.217 75.061 109.423 75.1426 109.615L74.8318 109.768V109.761ZM78.4354 109.377L78.1026 109.294C78.1309 109.171 78.1434 109.044 78.1434 108.918C78.1434 108.835 78.1372 108.749 78.1246 108.666L78.4636 108.616C78.4793 108.716 78.4856 108.819 78.4856 108.922C78.4856 109.078 78.4699 109.234 78.4354 109.38V109.377ZM75.0139 108.686L74.6749 108.636C74.7094 108.381 74.7879 108.138 74.9103 107.916L75.2085 108.095C75.1081 108.281 75.0453 108.48 75.017 108.689L75.0139 108.686ZM78.0524 108.361C77.9834 108.162 77.8829 107.979 77.7511 107.82L78.0053 107.581C78.1685 107.777 78.291 107.996 78.3757 108.238L78.0555 108.357L78.0524 108.361ZM75.3812 107.833L75.1206 107.597C75.2807 107.398 75.4722 107.242 75.6856 107.119L75.8426 107.441C75.6668 107.541 75.5099 107.67 75.378 107.833H75.3812ZM77.5345 107.601C77.3775 107.471 77.1955 107.375 77.004 107.315L77.1013 106.97C77.3367 107.04 77.5502 107.156 77.7448 107.315L77.5345 107.601ZM76.1188 107.322L76.0215 106.977C76.2506 106.904 76.4986 106.88 76.7403 106.904L76.7121 107.265C76.5206 107.249 76.3134 107.265 76.122 107.328L76.1188 107.322Z" fill="#032E33"/>
<path d="M86.728 122.653H86.7218C86.4926 122.653 86.2572 122.64 86.028 122.613L86.0657 122.251C86.2823 122.275 86.502 122.291 86.7186 122.291L86.728 122.653ZM87.0765 122.64L87.0545 122.278C87.2774 122.261 87.4971 122.235 87.7137 122.195L87.7733 122.547C87.5442 122.593 87.3119 122.62 87.0765 122.636V122.64ZM85.6828 122.557C85.4536 122.514 85.2276 122.457 85.0016 122.387L85.0989 122.042C85.3124 122.109 85.5258 122.162 85.7424 122.202L85.6828 122.56V122.557ZM88.1155 122.477L88.0401 122.125C88.2504 122.072 88.4639 122.002 88.6742 121.923L88.7935 122.265C88.5737 122.351 88.3477 122.424 88.1186 122.477H88.1155ZM84.6657 122.271C84.4491 122.188 84.2294 122.089 84.0223 121.979L84.1761 121.654C84.3707 121.76 84.5778 121.853 84.7819 121.929L84.6626 122.268L84.6657 122.271ZM89.1136 122.129L88.9755 121.797C89.1796 121.704 89.3742 121.598 89.5657 121.481L89.7414 121.793C89.5374 121.919 89.3271 122.029 89.1136 122.129ZM83.7146 121.807C83.5138 121.68 83.316 121.544 83.1308 121.402L83.3348 121.11C83.5106 121.249 83.6989 121.375 83.8873 121.495L83.7178 121.81L83.7146 121.807ZM90.0365 121.601L89.8481 121.295C90.0302 121.169 90.2091 121.027 90.3755 120.877L90.5984 121.153C90.4194 121.312 90.2311 121.461 90.0365 121.594V121.601ZM82.8514 121.169C82.6725 121.01 82.4999 120.841 82.3398 120.662L82.5909 120.413C82.7416 120.582 82.9048 120.741 83.0712 120.891L82.8514 121.169ZM90.862 120.914L90.6266 120.648C90.7867 120.489 90.9374 120.316 91.0786 120.14L91.3391 120.373C91.1885 120.565 91.0284 120.744 90.8589 120.914H90.862ZM82.1075 120.386C81.9568 120.197 81.8187 120.001 81.6869 119.795L81.9725 119.596C82.0918 119.792 82.2268 119.978 82.368 120.157L82.1044 120.389L82.1075 120.386ZM91.5589 120.077L91.2858 119.862C91.4176 119.676 91.5401 119.476 91.6468 119.277L91.945 119.457C91.8288 119.669 91.7001 119.882 91.5589 120.074V120.077ZM81.5017 119.477C81.3824 119.261 81.2788 119.042 81.1878 118.816L81.5017 118.67C81.5896 118.879 81.6869 119.091 81.7999 119.291L81.5017 119.477ZM92.1113 119.131L91.8037 118.969C91.9042 118.76 91.992 118.544 92.0642 118.325L92.3844 118.448C92.3028 118.677 92.2118 118.909 92.1051 119.131H92.1113ZM81.0559 118.474C80.9775 118.245 80.9084 118.006 80.8519 117.764L81.1847 117.681C81.238 117.903 81.3008 118.129 81.3761 118.351L81.0559 118.474ZM92.4974 118.102L92.171 118C92.2338 117.774 92.284 117.548 92.3216 117.316L92.6575 117.379C92.6167 117.621 92.5633 117.867 92.4974 118.102ZM80.786 117.399C80.7452 117.156 80.7169 116.911 80.7012 116.662L81.0465 116.642C81.0591 116.874 81.0873 117.103 81.1219 117.332L80.786 117.395V117.399ZM92.7077 117.01L92.3687 116.967C92.3938 116.738 92.4033 116.503 92.4064 116.27L92.7517 116.24V116.27C92.7517 116.516 92.7391 116.765 92.7109 117.01H92.7077ZM80.6918 116.293V116.283C80.6918 116.041 80.7044 115.796 80.7295 115.557L81.0717 115.596C81.0497 115.822 81.0371 116.051 81.0371 116.28L80.695 116.29L80.6918 116.293ZM92.3938 115.899C92.3813 115.666 92.353 115.437 92.3154 115.205L92.6512 115.142C92.692 115.384 92.7203 115.633 92.736 115.875L92.3938 115.899ZM81.1156 115.248L80.7797 115.185C80.8205 114.939 80.8707 114.7 80.9367 114.465L81.2631 114.564C81.2003 114.787 81.1533 115.016 81.1125 115.245L81.1156 115.248ZM92.2463 114.863C92.1929 114.634 92.1333 114.411 92.0548 114.192L92.375 114.066C92.4566 114.299 92.5257 114.538 92.579 114.777L92.2463 114.863ZM81.3667 114.236L81.0465 114.113C81.125 113.884 81.216 113.655 81.3228 113.432L81.6304 113.592C81.5299 113.801 81.4452 114.016 81.3667 114.236ZM91.9324 113.867C91.8445 113.651 91.7441 113.442 91.6311 113.243L91.9261 113.057C92.0454 113.27 92.149 113.492 92.2463 113.714L91.9324 113.86V113.867ZM81.7842 113.286L81.486 113.107C81.6021 112.891 81.734 112.682 81.8689 112.49L82.1452 112.705C82.0133 112.891 81.8909 113.09 81.781 113.29L81.7842 113.286ZM91.4584 112.948C91.336 112.755 91.2042 112.569 91.0629 112.393L91.3235 112.158C91.4741 112.344 91.6154 112.546 91.7441 112.749L91.4584 112.948ZM82.3523 112.427L82.0887 112.191C82.2393 111.998 82.3994 111.819 82.5689 111.653L82.8043 111.915C82.6474 112.075 82.4936 112.247 82.3523 112.427ZM90.8401 112.131C90.6894 111.965 90.5262 111.806 90.3567 111.656L90.5764 111.378C90.7553 111.537 90.9279 111.706 91.088 111.886L90.8401 112.134V112.131ZM83.0492 111.683L82.8295 111.404C83.0084 111.245 83.1936 111.096 83.3882 110.963L83.5797 111.265C83.3976 111.391 83.2187 111.534 83.0492 111.683ZM90.0961 111.438C89.9172 111.301 89.732 111.172 89.5437 111.059L89.7132 110.744C89.9109 110.863 90.1118 110.999 90.3002 111.149L90.0961 111.441V111.438ZM83.859 111.079L83.6864 110.764C83.8841 110.641 84.0945 110.528 84.3079 110.432L84.446 110.764C84.242 110.857 84.0442 110.966 83.8559 111.082L83.859 111.079ZM89.2486 110.89C89.054 110.787 88.8468 110.691 88.6397 110.614L88.7589 110.272C88.9787 110.359 89.1953 110.455 89.4056 110.564L89.2518 110.89H89.2486ZM84.7536 110.634L84.6344 110.292C84.8509 110.206 85.0801 110.133 85.3061 110.08L85.3846 110.432C85.1711 110.485 84.9608 110.551 84.7505 110.634H84.7536ZM88.3289 110.508C88.1186 110.442 87.902 110.389 87.6854 110.352L87.7419 109.994C87.9711 110.037 88.2033 110.093 88.4231 110.16L88.3289 110.508ZM85.711 110.362L85.6514 110C85.8805 109.957 86.1128 109.931 86.3451 109.914L86.3671 110.276C86.1473 110.289 85.9245 110.319 85.711 110.362ZM87.3558 110.299C87.1486 110.276 86.9321 110.263 86.7155 110.263L86.6935 109.901H86.7123C86.9415 109.901 87.1675 109.914 87.3935 109.941L87.3527 110.299H87.3558Z" fill="#032E33"/>
<path d="M86.7218 121.202C86.4801 121.202 86.2384 121.186 86.003 121.142L86.0564 120.784C86.2761 120.82 86.4989 120.84 86.7218 120.84H86.7689L86.7783 121.202H86.7218ZM87.1361 121.186L87.1079 120.821C87.3276 120.797 87.5505 120.761 87.7671 120.701L87.8487 121.056C87.6164 121.116 87.3747 121.156 87.1361 121.182V121.186ZM85.6483 121.066C85.4191 121.01 85.1837 120.933 84.964 120.837L85.0958 120.499C85.2998 120.588 85.5164 120.661 85.7299 120.714L85.6514 121.066H85.6483ZM88.194 120.95L88.0841 120.608C88.2913 120.532 88.5016 120.439 88.6993 120.329L88.8594 120.655C88.6428 120.774 88.4231 120.87 88.194 120.95ZM84.6344 120.678C84.4241 120.565 84.2138 120.435 84.016 120.286L84.2169 119.991C84.399 120.13 84.5905 120.253 84.7882 120.359L84.6344 120.678ZM89.1702 120.462L88.9881 120.157C89.1733 120.031 89.3554 119.895 89.5249 119.742L89.7477 120.014C89.5625 120.18 89.3679 120.329 89.167 120.462H89.1702ZM83.7304 120.054C83.5483 119.888 83.3725 119.712 83.2187 119.519L83.473 119.28C83.6205 119.456 83.7806 119.622 83.9501 119.775L83.7304 120.054ZM90.0146 119.755L89.7729 119.5C89.9298 119.334 90.0742 119.154 90.206 118.965L90.4854 119.178C90.341 119.38 90.1872 119.576 90.0177 119.755H90.0146ZM82.9896 119.224C82.8452 119.022 82.7165 118.806 82.6035 118.58L82.9048 118.411C83.0084 118.62 83.1277 118.819 83.2627 119.005L82.9896 119.221V119.224ZM90.6832 118.862L90.3912 118.67C90.5042 118.471 90.6078 118.258 90.6957 118.042L91.0096 118.182C90.9186 118.417 90.8056 118.643 90.68 118.859L90.6832 118.862ZM82.4466 118.235C82.3524 117.999 82.2708 117.76 82.2111 117.518L82.5439 117.428C82.5972 117.651 82.6726 117.876 82.7605 118.092L82.4466 118.235ZM91.1414 117.823L90.815 117.707C90.8841 117.488 90.9406 117.259 90.9751 117.027L91.3141 117.086C91.2733 117.335 91.2136 117.584 91.1383 117.827L91.1414 117.823ZM82.1358 117.146C82.0918 116.894 82.0699 116.642 82.0636 116.386L82.4089 116.379C82.412 116.612 82.434 116.847 82.4748 117.083L82.1389 117.146H82.1358ZM91.358 116.705L91.0159 116.675C91.0253 116.542 91.0316 116.409 91.0316 116.276C91.0316 116.177 91.0284 116.074 91.0222 115.971L91.3643 115.948C91.3706 116.054 91.3737 116.164 91.3737 116.273C91.3737 116.419 91.3674 116.562 91.358 116.705ZM82.412 116.028L82.0699 116.008C82.0824 115.755 82.1138 115.5 82.164 115.251L82.4968 115.327C82.4497 115.556 82.4214 115.792 82.4089 116.028H82.412ZM90.9908 115.619C90.9562 115.387 90.9092 115.158 90.8433 114.929L91.1697 114.823C91.2419 115.065 91.2921 115.317 91.3266 115.566L90.9876 115.619H90.9908ZM82.5784 114.985L82.2488 114.879C82.3179 114.633 82.4057 114.395 82.5093 114.169L82.817 114.328C82.7228 114.537 82.6412 114.76 82.5784 114.985ZM90.7302 114.597C90.6486 114.381 90.5513 114.169 90.4383 113.966L90.7302 113.781C90.8527 114.003 90.9594 114.229 91.0473 114.464L90.7302 114.597ZM82.9739 114.01L82.6757 113.83C82.795 113.611 82.9331 113.399 83.0806 113.203L83.3474 113.429C83.2093 113.615 83.0869 113.807 82.9708 114.01H82.9739ZM90.2563 113.664C90.1307 113.475 89.9894 113.289 89.8325 113.123L90.0805 112.874C90.2468 113.057 90.4006 113.253 90.5356 113.462L90.2531 113.668L90.2563 113.664ZM83.5703 113.16L83.3192 112.911C83.4824 112.725 83.6645 112.552 83.8497 112.396L84.06 112.682C83.8842 112.825 83.721 112.987 83.5671 113.156L83.5703 113.16ZM89.5939 112.878C89.4276 112.718 89.2487 112.576 89.0635 112.446L89.2487 112.141C89.4464 112.28 89.641 112.436 89.8231 112.602L89.5939 112.874V112.878ZM84.3331 112.476L84.1447 112.177C84.3425 112.035 84.5528 111.908 84.7725 111.806L84.9169 112.138C84.7192 112.237 84.5214 112.35 84.3362 112.479L84.3331 112.476ZM88.7747 112.264C88.5801 112.154 88.376 112.058 88.1657 111.978L88.2819 111.636C88.5079 111.723 88.7307 111.826 88.941 111.948L88.7778 112.26L88.7747 112.264ZM85.2214 111.995L85.1021 111.656C85.325 111.57 85.5573 111.497 85.7958 111.447L85.8649 111.806C85.6483 111.852 85.4286 111.912 85.2214 111.998V111.995ZM87.8487 111.872C87.6352 111.809 87.4124 111.766 87.1895 111.743L87.2303 111.381C87.4689 111.411 87.7074 111.454 87.9397 111.523L87.8518 111.872H87.8487ZM86.1913 111.749L86.1505 111.391C86.3859 111.358 86.6308 111.348 86.8693 111.354L86.8568 111.716C86.6402 111.706 86.4142 111.719 86.1882 111.749H86.1913Z" fill="#032E33"/>
<path d="M86.7253 119.752C86.4774 119.752 86.2388 119.722 86.0034 119.673L86.0787 119.317C86.289 119.367 86.5025 119.39 86.7222 119.39L86.7473 119.636L86.7285 119.752H86.7253ZM87.1209 119.729L87.0769 119.367C87.2935 119.337 87.5038 119.287 87.7078 119.208L87.8209 119.55C87.5948 119.636 87.3594 119.696 87.1209 119.729ZM85.655 119.566C85.429 119.487 85.2092 119.374 85.0021 119.241L85.181 118.929C85.3662 119.048 85.5639 119.148 85.7648 119.224L85.6518 119.566H85.655ZM88.1536 119.4L88.0029 119.078C88.1944 118.976 88.3796 118.856 88.5491 118.713L88.7625 118.995C88.5711 119.155 88.367 119.291 88.1536 119.4ZM84.707 119.022C84.5187 118.866 84.3429 118.69 84.1891 118.491L84.4527 118.262C84.5909 118.441 84.7478 118.594 84.9173 118.736L84.707 119.025V119.022ZM89.0356 118.74L88.7939 118.484C88.9477 118.325 89.0858 118.146 89.202 117.95L89.4876 118.149C89.3589 118.361 89.2083 118.561 89.0356 118.743V118.74ZM83.9725 118.182C83.8407 117.97 83.7308 117.741 83.6429 117.502L83.9631 117.376C84.0384 117.585 84.1389 117.791 84.2581 117.98L83.9725 118.179V118.182ZM89.6634 117.814L89.3558 117.654C89.45 117.449 89.5253 117.233 89.5755 117.014L89.9082 117.1C89.8517 117.349 89.7701 117.588 89.6603 117.814H89.6634ZM83.5393 117.14C83.4797 116.891 83.4451 116.639 83.4357 116.383L83.781 116.373C83.7873 116.596 83.8155 116.828 83.872 117.05L83.5393 117.14ZM89.9805 116.718L89.6414 116.675C89.6571 116.542 89.6634 116.41 89.6666 116.274C89.6666 116.181 89.6603 116.088 89.654 115.991L89.9961 115.955C90.0056 116.061 90.0087 116.164 90.0087 116.274C90.0087 116.423 89.9993 116.576 89.9836 116.718H89.9805ZM83.7841 116.031L83.442 116.002C83.464 115.746 83.5079 115.494 83.5801 115.251L83.9066 115.358C83.8438 115.573 83.803 115.799 83.7873 116.028L83.7841 116.031ZM89.6038 115.65C89.5598 115.427 89.4939 115.211 89.406 115.002L89.7199 114.856C89.8204 115.089 89.8957 115.331 89.9428 115.58L89.6069 115.65H89.6038ZM84.0196 115.036L83.7057 114.89C83.7998 114.657 83.9223 114.435 84.0667 114.226L84.3429 114.441C84.2173 114.624 84.1075 114.823 84.0227 115.032L84.0196 115.036ZM89.2553 114.7C89.1455 114.501 89.0136 114.319 88.8661 114.153L89.1141 113.907C89.2805 114.093 89.4249 114.299 89.5473 114.518L89.2491 114.704L89.2553 114.7ZM84.5469 114.179L84.2927 113.937C84.4559 113.744 84.638 113.578 84.8357 113.432L85.0335 113.731C84.8577 113.861 84.6944 114.013 84.5469 114.179ZM88.6338 113.917C88.4706 113.768 88.2917 113.635 88.1002 113.529L88.2634 113.21C88.4737 113.33 88.6746 113.476 88.8598 113.641L88.637 113.917H88.6338ZM85.3066 113.549L85.1402 113.23C85.3505 113.107 85.5734 113.008 85.8088 112.938L85.9029 113.29C85.6958 113.353 85.4949 113.439 85.3066 113.549ZM87.8083 113.386C87.6074 113.303 87.3971 113.24 87.1836 113.203L87.237 112.845C87.4787 112.881 87.711 112.951 87.9307 113.044L87.8051 113.383L87.8083 113.386ZM86.22 113.213L86.1603 112.855C86.3958 112.812 86.6437 112.795 86.8792 112.805L86.8603 113.17C86.6532 113.16 86.4303 113.173 86.2168 113.213H86.22Z" fill="#032E33"/>
<path d="M86.7405 118.301H86.7185C86.4737 118.301 86.2351 118.252 86.0091 118.155L86.1347 117.82C86.323 117.9 86.5176 117.94 86.7217 117.94L86.7405 118.301ZM87.1046 118.258L87.0387 117.903C87.2333 117.86 87.4154 117.784 87.5849 117.664L87.7732 117.966C87.5692 118.112 87.3463 118.209 87.1046 118.262V118.258ZM85.6858 117.98C85.4818 117.84 85.306 117.664 85.1616 117.452L85.441 117.239C85.5602 117.412 85.7046 117.558 85.8741 117.678L85.6889 117.98H85.6858ZM88.0557 117.724L87.814 117.462C87.9584 117.316 88.0745 117.143 88.153 116.947L88.4669 117.093C88.3665 117.329 88.2283 117.541 88.0526 117.721L88.0557 117.724ZM84.9795 117.123C84.8759 116.888 84.8194 116.642 84.8069 116.38L85.149 116.363C85.1585 116.572 85.2087 116.778 85.2934 116.971L84.9827 117.123H84.9795ZM88.5831 116.732L88.2503 116.649C88.2786 116.529 88.2911 116.406 88.2911 116.277C88.2911 116.194 88.2848 116.108 88.2754 116.025L88.6144 115.971C88.627 116.071 88.6333 116.174 88.6364 116.277C88.6364 116.433 88.6207 116.589 88.5831 116.735V116.732ZM85.1616 116.048L84.8226 115.998C84.8571 115.742 84.9356 115.5 85.058 115.278L85.3562 115.457C85.2558 115.643 85.1898 115.842 85.1647 116.048H85.1616ZM88.2001 115.719C88.131 115.52 88.0306 115.338 87.8956 115.178L88.1561 114.939C88.3162 115.135 88.4418 115.357 88.5203 115.596L88.2001 115.719ZM85.5257 115.195L85.2652 114.959C85.4253 114.76 85.6167 114.601 85.8302 114.481L85.9903 114.803C85.8145 114.899 85.6544 115.032 85.5257 115.195ZM87.6822 114.962C87.5252 114.83 87.3463 114.737 87.1517 114.677L87.2459 114.332C87.4813 114.398 87.6979 114.518 87.8925 114.677L87.6822 114.962ZM86.2665 114.68L86.1692 114.335C86.4015 114.262 86.6432 114.239 86.888 114.262L86.8566 114.621C86.662 114.604 86.458 114.621 86.2665 114.684V114.68Z" fill="#032E33"/>
<path d="M87.4725 109.463H87.4662C87.2371 109.463 87.0048 109.446 86.7725 109.423L86.8102 109.061C87.0268 109.087 87.2465 109.101 87.4662 109.101L87.4725 109.463ZM87.8209 109.453L87.799 109.091C88.0187 109.077 88.2415 109.048 88.455 109.011L88.5146 109.366C88.2855 109.413 88.0532 109.439 87.8209 109.453ZM86.4241 109.37C86.195 109.326 85.969 109.27 85.743 109.2L85.8403 108.852C86.0506 108.918 86.2703 108.975 86.4837 109.014L86.4241 109.37ZM88.8599 109.29L88.7815 108.938C88.9949 108.885 89.2083 108.819 89.4124 108.739L89.5317 109.077C89.3119 109.164 89.0891 109.237 88.8599 109.29ZM85.4102 109.084C85.1905 109.001 84.9739 108.902 84.7667 108.789L84.9174 108.464C85.112 108.57 85.3161 108.663 85.5232 108.739L85.4071 109.081L85.4102 109.084ZM89.8581 108.941L89.72 108.61C89.9209 108.517 90.1218 108.41 90.3101 108.294L90.4828 108.606C90.2787 108.732 90.0684 108.842 89.855 108.941H89.8581ZM84.456 108.613C84.2519 108.49 84.0542 108.354 83.869 108.205L84.073 107.916C84.2488 108.052 84.4309 108.185 84.6255 108.294L84.456 108.606V108.613ZM90.7778 108.414L90.5926 108.108C90.7747 107.979 90.9536 107.839 91.12 107.69L91.3428 107.969C91.1639 108.128 90.9756 108.278 90.781 108.414H90.7778ZM83.5928 107.979C83.4138 107.819 83.2443 107.65 83.0811 107.471L83.3291 107.222C83.4798 107.391 83.6399 107.551 83.8094 107.703L83.5896 107.982L83.5928 107.979ZM91.6034 107.72L91.368 107.458C91.528 107.298 91.6818 107.129 91.8231 106.95L92.0868 107.179C91.9361 107.371 91.776 107.551 91.6065 107.72H91.6034ZM82.8488 107.195C82.6982 107.006 82.5569 106.807 82.4282 106.601L82.7139 106.399C82.8394 106.595 82.9681 106.784 83.1094 106.96L82.8488 107.195ZM92.3002 106.89L92.0271 106.674C92.159 106.489 92.2814 106.293 92.3881 106.09L92.6863 106.269C92.5733 106.482 92.4415 106.694 92.3002 106.89ZM82.2462 106.289C82.1269 106.074 82.0233 105.851 81.9323 105.626L82.2462 105.479C82.3309 105.695 82.4314 105.904 82.5444 106.107L82.2462 106.289ZM92.8527 105.944L92.5451 105.778C92.6455 105.569 92.7302 105.353 92.8087 105.134L93.1289 105.26C93.0504 105.489 92.9563 105.719 92.8527 105.941V105.944ZM81.8004 105.284C81.7188 105.055 81.6529 104.816 81.5964 104.573L81.9291 104.49C81.9793 104.716 82.0453 104.938 82.1206 105.161L81.8004 105.287V105.284ZM93.2388 104.909L92.9123 104.806C92.9751 104.587 93.0253 104.358 93.063 104.125L93.402 104.188C93.3612 104.434 93.3078 104.676 93.2419 104.909H93.2388ZM81.5242 104.212C81.4834 103.973 81.4583 103.724 81.4426 103.478L81.7847 103.455C81.8004 103.687 81.8255 103.923 81.8601 104.152L81.5211 104.215L81.5242 104.212ZM93.4491 103.823L93.1101 103.783C93.1383 103.551 93.1509 103.315 93.1477 103.083L93.4899 103.053V103.083C93.4899 103.325 93.4773 103.578 93.4491 103.823ZM81.4332 103.103V103.09C81.4332 102.847 81.4457 102.602 81.4708 102.363L81.8098 102.406C81.7847 102.628 81.7753 102.857 81.7753 103.09L81.4332 103.103ZM93.1352 102.705C93.1226 102.476 93.0944 102.243 93.0567 102.014L93.3957 101.948C93.4396 102.19 93.4648 102.439 93.4773 102.685L93.1352 102.705ZM81.8601 102.057L81.5211 102.001C81.5619 101.752 81.6152 101.513 81.678 101.277L82.0045 101.377C81.9417 101.599 81.8946 101.825 81.8569 102.057H81.8601ZM92.9908 101.669C92.9374 101.443 92.8715 101.221 92.7962 100.999L93.1163 100.872C93.198 101.105 93.267 101.344 93.3204 101.583L92.9876 101.669H92.9908ZM82.1112 101.048L81.791 100.925C81.8695 100.693 81.9637 100.464 82.0672 100.242L82.3749 100.401C82.2775 100.61 82.1896 100.826 82.1143 101.045L82.1112 101.048ZM92.6737 100.677C92.5859 100.464 92.4854 100.252 92.3693 100.053L92.6675 99.8667C92.7868 100.079 92.8935 100.301 92.9845 100.531L92.6737 100.677ZM82.5287 100.099L82.2305 99.9166C82.3466 99.7042 82.4753 99.4949 82.6134 99.2991L82.8896 99.5148C82.7578 99.6974 82.6354 99.8933 82.5287 100.099ZM92.1998 99.7638C92.0773 99.5646 91.9424 99.3821 91.8011 99.2028L92.0616 98.9706C92.2123 99.1565 92.3536 99.3555 92.4823 99.5613L92.1966 99.7638H92.1998ZM83.0937 99.2361L82.8331 99.0004C82.9838 98.8145 83.1439 98.6287 83.3103 98.4594L83.5457 98.7217C83.3887 98.881 83.2349 99.0536 83.0937 99.2328V99.2361ZM91.5783 98.9406C91.4276 98.7747 91.2675 98.6153 91.098 98.4627L91.3177 98.1871C91.4998 98.3431 91.6693 98.5158 91.8294 98.6917L91.5814 98.9406H91.5783ZM83.7905 98.4959L83.5676 98.2204C83.7466 98.0611 83.9349 97.9117 84.1264 97.7789L84.3179 98.081C84.1358 98.2104 83.9569 98.3499 83.7874 98.5025L83.7905 98.4959ZM90.8406 98.2504C90.6617 98.1109 90.4765 97.9814 90.2882 97.8685L90.4576 97.5533C90.6585 97.6761 90.8594 97.8154 91.0446 97.9581L90.8406 98.2504ZM84.6035 97.8885L84.4277 97.5765C84.6286 97.4537 84.8389 97.3408 85.0524 97.2379L85.1905 97.5732C84.9896 97.6662 84.7919 97.7757 84.6035 97.8852V97.8885ZM89.9931 97.6959C89.7953 97.5963 89.5913 97.5035 89.3841 97.4272L89.5003 97.082C89.72 97.165 89.9366 97.2645 90.1469 97.374L89.9931 97.6959ZM85.495 97.4437L85.3757 97.1019C85.5923 97.0156 85.8183 96.9425 86.0443 96.8861L86.1259 97.2379C85.9125 97.2943 85.699 97.3641 85.4918 97.4437H85.495ZM89.0702 97.3176C88.8599 97.2513 88.6433 97.2014 88.4268 97.1616L88.4833 96.8031C88.7124 96.8462 88.9447 96.9027 89.1644 96.9724L89.0671 97.3176H89.0702ZM86.4523 97.1716L86.3927 96.8131C86.6187 96.77 86.8541 96.74 87.0864 96.7267L87.1084 97.0852C86.8887 97.1018 86.6658 97.1284 86.4523 97.1682V97.1716ZM88.0972 97.1118C87.89 97.0853 87.6734 97.0719 87.4568 97.0719L87.438 96.7102H87.4568C87.686 96.7102 87.912 96.7234 88.1348 96.7467L88.094 97.1084L88.0972 97.1118Z" fill="#032E33"/>
<path d="M87.4623 108.009C87.2206 108.009 86.9789 107.992 86.7435 107.952L86.7969 107.594C87.0135 107.634 87.2395 107.65 87.4623 107.65H87.5094L87.5157 108.009H87.4623ZM87.8767 107.992L87.8453 107.634C88.0682 107.611 88.2879 107.571 88.5045 107.521L88.5892 107.869C88.3538 107.933 88.1153 107.972 87.8767 107.996V107.992ZM86.392 107.883C86.1565 107.826 85.9274 107.743 85.7045 107.647L85.8364 107.315C86.0435 107.401 86.257 107.478 86.4736 107.531L86.3951 107.886L86.392 107.883ZM88.9345 107.76L88.8278 107.415C89.0381 107.342 89.2421 107.249 89.4399 107.139L89.6 107.458C89.3865 107.577 89.1637 107.68 88.9345 107.76ZM85.3749 107.491C85.1646 107.378 84.9543 107.245 84.7566 107.096L84.9543 106.801C85.1364 106.937 85.331 107.063 85.5256 107.162L85.3718 107.488L85.3749 107.491ZM89.9107 107.275L89.7287 106.967C89.9139 106.844 90.0991 106.704 90.2654 106.548L90.4883 106.827C90.3062 106.993 90.1085 107.146 89.9076 107.275H89.9107ZM84.4741 106.864C84.292 106.701 84.1194 106.522 83.9624 106.329L84.2198 106.094C84.3642 106.27 84.5274 106.432 84.6969 106.585L84.4741 106.864ZM90.752 106.565L90.5103 106.309C90.6672 106.143 90.8147 105.964 90.9434 105.775L91.2228 105.987C91.0784 106.19 90.9246 106.389 90.7551 106.565H90.752ZM83.7301 106.037C83.5857 105.835 83.457 105.619 83.344 105.393L83.6485 105.221C83.7521 105.43 83.8745 105.632 84.0064 105.815L83.7301 106.034V106.037ZM91.4237 105.669L91.1349 105.476C91.2479 105.277 91.3515 105.068 91.4394 104.852L91.7533 104.992C91.6591 105.227 91.5493 105.456 91.4237 105.669ZM83.1871 105.051C83.0929 104.816 83.0113 104.573 82.9517 104.331L83.2844 104.238C83.3409 104.467 83.4131 104.686 83.501 104.905L83.1871 105.051ZM91.882 104.636L91.5587 104.524C91.6277 104.298 91.6842 104.069 91.7156 103.836L92.0546 103.9C92.0138 104.149 91.9573 104.401 91.882 104.64V104.636ZM82.8732 103.956C82.8324 103.707 82.8104 103.451 82.8041 103.199L83.1494 103.189C83.1526 103.425 83.1777 103.661 83.2153 103.893L82.8763 103.956H82.8732ZM92.0986 103.518L91.7596 103.485C91.769 103.352 91.7784 103.219 91.7753 103.083C91.7753 102.983 91.7721 102.877 91.7658 102.781L92.1048 102.755C92.1111 102.864 92.1143 102.977 92.1143 103.083C92.1143 103.229 92.108 103.372 92.0954 103.515L92.0986 103.518ZM83.1526 102.837L82.8073 102.821C82.823 102.569 82.8544 102.313 82.9014 102.068L83.2342 102.14C83.1871 102.369 83.1588 102.605 83.1463 102.837H83.1526ZM91.7313 102.429C91.6968 102.197 91.6497 101.968 91.5806 101.739L91.9102 101.633C91.9793 101.878 92.0327 102.127 92.0672 102.376L91.7282 102.426L91.7313 102.429ZM83.3221 101.799L82.9956 101.692C83.0647 101.447 83.1494 101.211 83.253 100.982L83.5638 101.141C83.4696 101.347 83.388 101.573 83.3252 101.799H83.3221ZM91.4708 101.41C91.3923 101.195 91.2919 100.979 91.1789 100.773L91.4739 100.587C91.5963 100.81 91.7031 101.038 91.791 101.271L91.4708 101.407V101.41ZM83.7144 100.823L83.4162 100.644C83.5355 100.424 83.6736 100.212 83.8243 100.013L84.0911 100.242C83.953 100.425 83.8243 100.62 83.7144 100.823ZM90.9968 100.478C90.8681 100.285 90.73 100.102 90.573 99.9298L90.821 99.6809C90.9874 99.8634 91.1412 100.063 91.2762 100.268L90.9937 100.478H90.9968ZM84.3108 99.9731L84.0597 99.7241C84.2229 99.5383 84.4019 99.3656 84.5902 99.2096L84.8005 99.4951C84.6247 99.6379 84.4615 99.8005 84.3108 99.9731ZM90.3314 99.6875C90.165 99.5282 89.9861 99.3855 89.8009 99.2561L89.9861 98.9507C90.1838 99.0835 90.3784 99.2462 90.5573 99.4122L90.3282 99.6843L90.3314 99.6875ZM85.0736 99.2893L84.8821 98.9872C85.083 98.8478 85.2965 98.7216 85.5099 98.6154L85.6543 98.9441C85.4534 99.0437 85.2588 99.1599 85.0705 99.2893H85.0736ZM89.5184 99.0802C89.3206 98.9674 89.1166 98.871 88.9094 98.788L89.0224 98.4529C89.2484 98.5358 89.4713 98.6421 89.6816 98.7616L89.5184 99.0802ZM85.9619 98.808L85.8426 98.4662C86.0655 98.3799 86.2978 98.3069 86.5364 98.2571L86.6054 98.6122C86.3888 98.6586 86.1722 98.725 85.9619 98.808ZM88.5892 98.6851C88.3758 98.622 88.1529 98.5789 87.9332 98.5524L87.974 98.1939C88.2157 98.2204 88.4511 98.2704 88.6834 98.3334L88.5924 98.6851H88.5892ZM86.9319 98.5624L86.8911 98.2005C87.1296 98.1673 87.3744 98.1574 87.6099 98.1641L87.6005 98.5292C87.3839 98.5192 87.1547 98.5326 86.9319 98.5624Z" fill="#032E33"/>
<path d="M87.466 106.562C87.218 106.562 86.9794 106.535 86.744 106.479L86.8162 106.124C87.0265 106.173 87.2431 106.2 87.4629 106.2L87.488 106.442L87.4691 106.558L87.466 106.562ZM87.8615 106.535L87.8207 106.177C88.0341 106.147 88.2445 106.097 88.4485 106.021L88.5615 106.359C88.3355 106.445 88.1001 106.505 87.8615 106.535ZM86.3956 106.379C86.1696 106.293 85.9499 106.187 85.7427 106.054L85.9185 105.745C86.1037 105.865 86.3014 105.961 86.5055 106.037L86.3925 106.382L86.3956 106.379ZM88.9005 106.21L88.7498 105.885C88.9413 105.785 89.1265 105.662 89.296 105.519L89.5063 105.805C89.318 105.964 89.1108 106.1 88.8974 106.21H88.9005ZM85.4477 105.835C85.2593 105.675 85.0835 105.5 84.9297 105.3L85.1934 105.068C85.3315 105.241 85.4885 105.4 85.6611 105.543L85.4477 105.831V105.835ZM89.7763 105.549L89.5346 105.294C89.6884 105.134 89.8265 104.955 89.9426 104.759L90.2314 104.959C90.0996 105.171 89.9489 105.373 89.7794 105.549H89.7763ZM84.7131 104.995C84.5813 104.783 84.4714 104.554 84.3867 104.318L84.7037 104.188C84.7822 104.401 84.8826 104.607 85.0019 104.793L84.7131 104.992V104.995ZM90.4072 104.627L90.1027 104.467C90.1969 104.258 90.2722 104.042 90.3224 103.823L90.6552 103.91C90.5955 104.159 90.5139 104.398 90.4072 104.627ZM84.28 103.95C84.2203 103.701 84.1858 103.448 84.1795 103.196L84.5217 103.186C84.5279 103.412 84.5593 103.637 84.6127 103.86L84.28 103.95ZM90.7211 103.531L90.3821 103.485C90.3978 103.355 90.4072 103.219 90.4072 103.083C90.4072 102.99 90.404 102.891 90.3946 102.801L90.7336 102.768C90.7431 102.874 90.7493 102.98 90.7493 103.083C90.7493 103.236 90.7399 103.382 90.7211 103.531ZM84.5248 102.841L84.1858 102.811C84.2046 102.555 84.2486 102.303 84.3208 102.064L84.6472 102.17C84.5844 102.386 84.5436 102.612 84.5279 102.841H84.5248ZM90.3444 102.463C90.3005 102.24 90.2345 102.021 90.1467 101.812L90.4605 101.663C90.5579 101.898 90.6332 102.141 90.6834 102.386L90.3475 102.459L90.3444 102.463ZM84.7602 101.848L84.4463 101.702C84.5436 101.47 84.6629 101.248 84.8073 101.039L85.0835 101.251C84.9548 101.437 84.8481 101.636 84.7633 101.845L84.7602 101.848ZM89.996 101.506C89.8893 101.314 89.7574 101.128 89.6099 100.962L89.8579 100.713C90.0242 100.902 90.1686 101.105 90.2911 101.321L89.9928 101.506H89.996ZM85.2876 100.992L85.0333 100.75C85.1965 100.561 85.3786 100.391 85.5763 100.245L85.7741 100.541C85.5983 100.673 85.4351 100.823 85.2876 100.992ZM89.3776 100.727C89.2144 100.577 89.0323 100.444 88.844 100.342L89.0041 100.019C89.2175 100.139 89.4153 100.282 89.6005 100.451L89.3776 100.727ZM86.0472 100.358L85.884 100.043C86.0943 99.92 86.3171 99.8238 86.5494 99.7508L86.6436 100.096C86.4364 100.159 86.2355 100.249 86.0472 100.358ZM88.5489 100.192C88.348 100.109 88.1377 100.049 87.9243 100.01L87.9776 99.6545C88.2162 99.6943 88.4516 99.7607 88.6745 99.8569L88.5489 100.192ZM86.9606 100.016L86.901 99.6577C87.1364 99.6179 87.3844 99.6013 87.6198 99.6112L87.6041 99.9731C87.3938 99.9632 87.1709 99.9764 86.9606 100.016Z" fill="#032E33"/>
<path d="M87.4812 105.111H87.4624C87.2175 105.111 86.9758 105.062 86.7498 104.965L86.8785 104.63C87.0637 104.71 87.2615 104.75 87.4624 104.75L87.4844 105.108L87.4812 105.111ZM87.8453 105.072L87.7794 104.72C87.974 104.677 88.1561 104.597 88.3256 104.477L88.5139 104.783C88.3099 104.922 88.087 105.022 87.8453 105.075V105.072ZM86.4265 104.793C86.2256 104.653 86.0467 104.474 85.9023 104.268L86.1817 104.056C86.301 104.229 86.4422 104.375 86.6117 104.488L86.4234 104.796L86.4265 104.793ZM88.7964 104.537L88.5547 104.278C88.6991 104.129 88.8153 103.956 88.8937 103.764L89.2076 103.91C89.1072 104.146 88.9691 104.358 88.7933 104.537H88.7964ZM85.7203 103.933C85.6198 103.701 85.5602 103.452 85.5476 103.193L85.8898 103.17C85.8992 103.385 85.9463 103.591 86.031 103.784L85.7171 103.933H85.7203ZM89.3238 103.548L88.991 103.465C89.0193 103.346 89.0319 103.216 89.0319 103.087C89.0319 103.004 89.0287 102.917 89.0162 102.838L89.3552 102.788C89.3709 102.888 89.3771 102.99 89.3771 103.093C89.3771 103.246 89.3614 103.402 89.3269 103.555L89.3238 103.548ZM85.9023 102.858L85.5633 102.808C85.5978 102.552 85.6763 102.307 85.7987 102.081L86.0969 102.267C85.9965 102.449 85.9306 102.649 85.9055 102.861L85.9023 102.858ZM88.9408 102.532C88.8749 102.333 88.7713 102.147 88.6395 101.991L88.8969 101.752C89.0601 101.948 89.1825 102.167 89.2641 102.41L88.944 102.532H88.9408ZM86.2664 102.005L86.0059 101.769C86.166 101.573 86.3543 101.414 86.5709 101.294L86.7279 101.616C86.5521 101.713 86.3951 101.845 86.2633 102.008L86.2664 102.005ZM88.4229 101.772C88.2628 101.643 88.0902 101.547 87.8924 101.484L87.9897 101.138C88.2251 101.208 88.4417 101.328 88.6363 101.484L88.426 101.769L88.4229 101.772ZM87.0072 101.497L86.9099 101.148C87.1422 101.075 87.3839 101.049 87.6287 101.069L87.5974 101.43C87.4027 101.41 87.1956 101.431 87.0072 101.494V101.497Z" fill="#032E33"/>
<path d="M97.8185 116.453H97.8091C97.5799 116.453 97.3477 116.436 97.1185 116.41L97.1562 116.051C97.3728 116.075 97.5925 116.088 97.8091 116.088L97.8185 116.453ZM98.1701 116.44L98.1481 116.078C98.371 116.061 98.5907 116.035 98.8073 115.995L98.8669 116.353C98.6378 116.397 98.4055 116.426 98.1701 116.44ZM96.7732 116.357C96.5441 116.314 96.3118 116.257 96.0889 116.188L96.1863 115.839C96.3966 115.905 96.6132 115.958 96.8329 115.998L96.7732 116.353V116.357ZM99.2059 116.28L99.1274 115.929C99.3409 115.875 99.5512 115.806 99.7615 115.729L99.8808 116.068C99.6611 116.154 99.4351 116.227 99.2091 116.284L99.2059 116.28ZM95.7531 116.071C95.5365 115.988 95.3168 115.892 95.1096 115.779L95.2665 115.454C95.4612 115.557 95.6652 115.65 95.8724 115.729L95.7531 116.068V116.071ZM100.204 115.929L100.066 115.597C100.267 115.504 100.465 115.397 100.656 115.285L100.829 115.597C100.628 115.719 100.418 115.832 100.204 115.929ZM94.8051 115.607C94.6011 115.481 94.4033 115.344 94.2213 115.202L94.4253 114.906C94.6011 115.046 94.7894 115.172 94.9778 115.291L94.8083 115.603L94.8051 115.607ZM101.127 115.401L100.935 115.099C101.118 114.969 101.296 114.83 101.466 114.677L101.686 114.956C101.507 115.115 101.318 115.265 101.127 115.397V115.401ZM93.9419 114.966C93.763 114.81 93.5904 114.641 93.4303 114.461L93.6782 114.213C93.8289 114.378 93.9921 114.538 94.1585 114.69L93.9388 114.966H93.9419ZM101.949 114.71L101.714 114.448C101.871 114.289 102.025 114.12 102.166 113.94L102.43 114.173C102.279 114.362 102.116 114.541 101.949 114.714V114.71ZM93.198 114.183C93.0473 113.994 92.9061 113.798 92.7774 113.592L93.063 113.393C93.1886 113.588 93.3204 113.774 93.4616 113.954L93.2011 114.186L93.198 114.183ZM102.649 113.881L102.373 113.665C102.505 113.476 102.627 113.28 102.737 113.084L103.032 113.263C102.919 113.479 102.787 113.681 102.649 113.881ZM92.5922 113.277C92.4729 113.061 92.3693 112.838 92.2751 112.613L92.589 112.47C92.6769 112.682 92.7742 112.892 92.8872 113.091L92.589 113.277H92.5922ZM103.202 112.935L102.894 112.772C102.991 112.563 103.079 112.347 103.155 112.128L103.475 112.254C103.396 112.48 103.302 112.709 103.199 112.931L103.202 112.935ZM92.1464 112.274C92.0648 112.045 91.9989 111.806 91.9424 111.564L92.2751 111.481C92.3254 111.703 92.3881 111.929 92.4635 112.151L92.1433 112.277L92.1464 112.274ZM103.588 111.899L103.258 111.799C103.321 111.577 103.371 111.348 103.412 111.119L103.748 111.182C103.707 111.424 103.654 111.667 103.588 111.902V111.899ZM91.8733 111.199C91.8325 110.96 91.8043 110.711 91.7917 110.465L92.1339 110.449C92.1433 110.678 92.1747 110.913 92.2092 111.139L91.8702 111.202L91.8733 111.199ZM103.801 110.814L103.459 110.77C103.484 110.541 103.5 110.306 103.5 110.073L103.842 110.044V110.073C103.842 110.316 103.826 110.568 103.801 110.814ZM91.7792 110.093V110.083C91.7792 109.841 91.7917 109.596 91.8168 109.357L92.1559 109.4C92.1307 109.625 92.1182 109.854 92.1213 110.083L91.7792 110.097V110.093ZM103.481 109.698C103.465 109.466 103.44 109.237 103.406 109.005L103.742 108.942C103.783 109.187 103.811 109.43 103.826 109.675L103.484 109.698H103.481ZM92.2029 109.051L91.8671 108.991C91.9079 108.743 91.9581 108.503 92.024 108.268L92.3505 108.374C92.2908 108.59 92.2406 108.822 92.1998 109.051H92.2029ZM103.337 108.66C103.283 108.434 103.218 108.211 103.142 107.992L103.462 107.866C103.547 108.095 103.613 108.334 103.666 108.573L103.337 108.66ZM92.4572 108.039L92.137 107.913C92.2186 107.684 92.3097 107.451 92.4132 107.229L92.7209 107.388C92.6236 107.597 92.5357 107.813 92.4603 108.036L92.4572 108.039ZM103.02 107.67C102.932 107.458 102.828 107.246 102.718 107.046L103.013 106.864C103.133 107.076 103.236 107.299 103.334 107.521L103.02 107.667V107.67ZM92.8715 107.086L92.5733 106.904C92.6895 106.688 92.8182 106.482 92.9563 106.286L93.2294 106.502C93.1007 106.688 92.9782 106.884 92.8684 107.086H92.8715ZM102.546 106.751C102.423 106.558 102.292 106.369 102.147 106.193L102.411 105.958C102.561 106.144 102.703 106.346 102.831 106.549L102.546 106.751ZM93.4397 106.227L93.176 105.991C93.3267 105.802 93.4836 105.619 93.6563 105.453L93.8917 105.715C93.7347 105.875 93.5809 106.047 93.4397 106.227ZM101.927 105.931C101.777 105.765 101.613 105.603 101.444 105.457L101.664 105.178C101.846 105.337 102.015 105.503 102.175 105.682L101.927 105.931ZM94.1397 105.483L93.9168 105.208C94.0989 105.048 94.284 104.899 94.4755 104.763L94.667 105.065C94.4818 105.198 94.306 105.337 94.1365 105.486L94.1397 105.483ZM101.183 105.237C101.008 105.098 100.819 104.969 100.634 104.856L100.804 104.544C101.005 104.663 101.202 104.799 101.391 104.949L101.187 105.241L101.183 105.237ZM94.9464 104.879L94.7737 104.567C94.9746 104.444 95.1818 104.331 95.3984 104.235L95.5365 104.567C95.3325 104.66 95.1347 104.766 94.9464 104.882V104.879ZM100.336 104.69C100.144 104.59 99.9373 104.494 99.727 104.418L99.8431 104.076C100.06 104.159 100.279 104.258 100.49 104.368L100.336 104.693V104.69ZM95.8441 104.434L95.7248 104.092C95.9414 104.009 96.1674 103.936 96.3934 103.88L96.475 104.232C96.2584 104.285 96.0481 104.351 95.841 104.434H95.8441ZM99.4162 104.308C99.2059 104.245 98.9893 104.189 98.7727 104.152L98.8324 103.794C99.0615 103.837 99.2907 103.89 99.5136 103.966L99.4162 104.311V104.308ZM96.7984 104.159L96.7387 103.8C96.9679 103.757 97.2001 103.727 97.4324 103.714L97.4544 104.076C97.2347 104.092 97.0149 104.119 96.7984 104.159ZM98.4463 104.102C98.236 104.079 98.0226 104.066 97.806 104.066L97.784 103.701H97.8028C98.032 103.701 98.258 103.717 98.484 103.744L98.4432 104.102H98.4463Z" fill="#032E33"/>
<path d="M97.8084 115.002C97.5667 115.002 97.325 114.982 97.0896 114.943L97.1429 114.584C97.3595 114.621 97.5855 114.637 97.8084 114.637H97.8555L97.8618 114.999H97.8053L97.8084 115.002ZM98.2227 114.982L98.1945 114.617C98.4142 114.594 98.6339 114.558 98.8505 114.501L98.9321 114.853C98.6967 114.913 98.4582 114.956 98.2196 114.979L98.2227 114.982ZM96.738 114.87C96.5057 114.813 96.2766 114.737 96.0506 114.641L96.1793 114.302C96.3833 114.392 96.5999 114.465 96.8134 114.518L96.7349 114.866L96.738 114.87ZM99.2806 114.747L99.1739 114.405C99.3842 114.332 99.5913 114.239 99.7891 114.126L99.946 114.451C99.7357 114.567 99.5097 114.667 99.2806 114.747ZM95.7242 114.481C95.5076 114.368 95.3035 114.236 95.1089 114.086L95.3067 113.791C95.4887 113.93 95.6802 114.05 95.878 114.156L95.7242 114.481ZM100.257 114.262L100.075 113.953C100.26 113.831 100.445 113.691 100.615 113.535L100.837 113.811C100.655 113.977 100.461 114.129 100.257 114.259V114.262ZM94.8201 113.854C94.6381 113.695 94.4623 113.515 94.3053 113.32L94.5627 113.084C94.7103 113.256 94.8703 113.422 95.043 113.578L94.8201 113.854ZM101.101 113.555L100.859 113.3C101.016 113.134 101.161 112.954 101.293 112.765L101.569 112.981C101.428 113.183 101.271 113.379 101.101 113.558V113.555ZM94.0793 113.024C93.935 112.822 93.8062 112.606 93.6932 112.383L93.9977 112.211C94.1013 112.417 94.2206 112.619 94.3556 112.805L94.0825 113.024H94.0793ZM101.77 112.659L101.478 112.466C101.591 112.267 101.694 112.055 101.782 111.839L102.096 111.979C102.005 112.214 101.892 112.44 101.767 112.656L101.77 112.659ZM93.5363 112.035C93.439 111.799 93.3574 111.56 93.3009 111.315L93.6336 111.225C93.687 111.447 93.7623 111.673 93.8502 111.889L93.5363 112.035ZM102.228 111.623L101.902 111.51C101.971 111.288 102.027 111.059 102.062 110.823L102.401 110.883C102.36 111.132 102.303 111.381 102.225 111.623H102.228ZM93.2224 110.946C93.1816 110.697 93.1533 110.445 93.1502 110.189H93.4923C93.4986 110.418 93.5175 110.654 93.5551 110.887L93.2193 110.95L93.2224 110.946ZM102.448 110.508L102.106 110.478C102.115 110.345 102.121 110.209 102.124 110.08C102.124 109.974 102.118 109.871 102.115 109.771L102.457 109.748C102.467 109.858 102.467 109.964 102.467 110.077C102.467 110.223 102.46 110.365 102.448 110.508ZM93.5018 109.828L93.1596 109.808C93.1722 109.556 93.2036 109.3 93.2538 109.051L93.5897 109.124C93.5426 109.353 93.5143 109.589 93.5018 109.824V109.828ZM102.077 109.419C102.043 109.19 101.996 108.955 101.93 108.729L102.256 108.623C102.329 108.869 102.382 109.117 102.416 109.37L102.077 109.423V109.419ZM93.6681 108.785L93.3417 108.686C93.4076 108.437 93.4986 108.201 93.5991 107.972L93.9067 108.132C93.8125 108.341 93.7309 108.563 93.6681 108.789V108.785ZM101.82 108.397C101.738 108.181 101.641 107.966 101.525 107.767L101.82 107.577C101.946 107.8 102.049 108.029 102.134 108.264L101.817 108.397H101.82ZM94.0636 107.816L93.7654 107.634C93.8847 107.415 94.0197 107.202 94.1735 107.003L94.4403 107.229C94.3022 107.415 94.1735 107.61 94.0636 107.813V107.816ZM101.346 107.468C101.22 107.275 101.076 107.089 100.922 106.923L101.17 106.674C101.337 106.857 101.49 107.056 101.625 107.262L101.343 107.471L101.346 107.468ZM94.6569 106.96L94.4058 106.711C94.569 106.525 94.7511 106.356 94.9363 106.197L95.1497 106.485C94.9739 106.628 94.8107 106.787 94.66 106.96H94.6569ZM100.681 106.678C100.511 106.522 100.335 106.376 100.15 106.25L100.335 105.941C100.533 106.08 100.728 106.236 100.907 106.402L100.677 106.674L100.681 106.678ZM95.4197 106.276L95.2282 105.974C95.4259 105.835 95.6425 105.709 95.856 105.602L96.0004 105.928C95.8026 106.027 95.6049 106.14 95.4197 106.273V106.276ZM99.8644 106.067C99.6667 105.954 99.4626 105.858 99.2555 105.778L99.3716 105.436C99.5976 105.523 99.8205 105.629 100.031 105.748L99.8676 106.067H99.8644ZM96.3111 105.798L96.1919 105.46C96.4147 105.373 96.6501 105.304 96.8856 105.251L96.9546 105.606C96.738 105.655 96.5214 105.719 96.3111 105.798ZM98.9353 105.672C98.7218 105.609 98.499 105.569 98.2761 105.543L98.3169 105.181C98.5555 105.211 98.7909 105.26 99.0232 105.323L98.9353 105.672ZM97.2811 105.549L97.2403 105.191C97.4757 105.161 97.7205 105.148 97.9591 105.154L97.9497 105.519C97.7331 105.509 97.5071 105.519 97.2842 105.549H97.2811Z" fill="#032E33"/>
<path d="M97.8151 113.549C97.5671 113.549 97.3255 113.522 97.0932 113.469L97.1685 113.114C97.3788 113.164 97.5923 113.19 97.812 113.19L97.8371 113.436L97.8183 113.549H97.8151ZM98.2106 113.525L98.1667 113.167C98.3833 113.137 98.5936 113.087 98.7945 113.008L98.9106 113.349C98.6846 113.432 98.4492 113.492 98.2106 113.525ZM96.7448 113.366C96.5187 113.283 96.299 113.173 96.0918 113.041L96.2708 112.732C96.456 112.852 96.6537 112.948 96.8546 113.024L96.7416 113.369L96.7448 113.366ZM99.2433 113.203L99.0927 112.878C99.2842 112.778 99.4694 112.656 99.6389 112.513L99.8523 112.798C99.6608 112.958 99.4568 113.094 99.2433 113.207V113.203ZM95.7936 112.822C95.6053 112.666 95.4295 112.49 95.2757 112.291L95.5394 112.058C95.6775 112.237 95.8344 112.394 96.0039 112.536L95.7936 112.822ZM100.122 112.543L99.8806 112.281C100.034 112.118 100.172 111.942 100.289 111.746L100.574 111.942C100.446 112.158 100.295 112.357 100.122 112.54V112.543ZM95.0623 111.982C94.9304 111.769 94.8206 111.54 94.7358 111.305L95.056 111.175C95.1313 111.391 95.2318 111.594 95.3511 111.783L95.0654 111.982H95.0623ZM100.753 111.613L100.449 111.454C100.543 111.248 100.618 111.033 100.668 110.81L101.001 110.896C100.945 111.142 100.86 111.384 100.753 111.61V111.613ZM94.626 110.94C94.5663 110.691 94.5318 110.435 94.5255 110.183L94.8708 110.173C94.8802 110.402 94.9085 110.628 94.9587 110.85L94.626 110.94ZM101.067 110.518L100.728 110.475C100.744 110.342 100.75 110.209 100.75 110.077C100.75 109.98 100.747 109.884 100.741 109.791L101.083 109.761C101.092 109.868 101.098 109.97 101.098 110.08C101.098 110.229 101.089 110.379 101.07 110.521L101.067 110.518ZM94.8708 109.831L94.5318 109.808C94.5506 109.549 94.5946 109.3 94.6699 109.054L94.9964 109.161C94.9336 109.376 94.8928 109.602 94.8771 109.831H94.8708ZM100.69 109.453C100.646 109.23 100.581 109.011 100.493 108.802L100.807 108.656C100.904 108.885 100.982 109.131 101.029 109.38L100.694 109.453H100.69ZM95.1094 108.839L94.7955 108.696C94.8928 108.464 95.0121 108.241 95.1564 108.032L95.4327 108.245C95.304 108.43 95.1972 108.629 95.1125 108.835L95.1094 108.839ZM100.342 108.497C100.235 108.301 100.103 108.122 99.9528 107.952L100.204 107.707C100.37 107.893 100.518 108.098 100.637 108.314L100.339 108.497H100.342ZM95.6336 107.979L95.3793 107.737C95.5425 107.547 95.7246 107.381 95.9223 107.235L96.1201 107.531C95.9443 107.664 95.7811 107.813 95.6336 107.982V107.979ZM99.7236 107.72C99.5572 107.567 99.3783 107.438 99.1868 107.328L99.3501 107.01C99.5604 107.129 99.7613 107.275 99.9433 107.441L99.7205 107.717L99.7236 107.72ZM96.3932 107.348L96.2268 107.033C96.4371 106.907 96.6631 106.811 96.8954 106.738L96.9896 107.086C96.7824 107.149 96.5815 107.235 96.3932 107.348ZM98.8949 107.186C98.6972 107.099 98.4869 107.04 98.2734 107.003L98.3268 106.645C98.5653 106.681 98.8008 106.751 99.0236 106.847L98.8949 107.186ZM97.3066 107.006L97.247 106.651C97.4824 106.608 97.7304 106.591 97.9658 106.601L97.9501 106.967C97.7398 106.957 97.5138 106.97 97.3035 107.006H97.3066Z" fill="#032E33"/>
<path d="M97.8303 112.098H97.8084C97.5667 112.098 97.325 112.048 97.099 111.955L97.2245 111.62C97.4097 111.7 97.6075 111.74 97.8084 111.74L97.8303 112.101V112.098ZM98.1913 112.062L98.1223 111.707C98.3169 111.663 98.5021 111.584 98.6685 111.467L98.8568 111.77C98.6528 111.916 98.4299 112.012 98.1882 112.065L98.1913 112.062ZM96.7757 111.783C96.5716 111.643 96.3959 111.467 96.2515 111.255L96.5277 111.043C96.647 111.215 96.7914 111.361 96.9577 111.477L96.7725 111.783H96.7757ZM99.1424 111.524L98.9039 111.265C99.0451 111.119 99.1613 110.946 99.2429 110.754L99.5568 110.9C99.4563 111.136 99.3151 111.348 99.1424 111.524ZM96.0663 110.92C95.9658 110.684 95.9062 110.438 95.8936 110.176L96.2358 110.16C96.2452 110.372 96.2954 110.575 96.3801 110.77L96.0663 110.923V110.92ZM99.6729 110.538L99.3402 110.452C99.3684 110.332 99.381 110.203 99.381 110.077C99.381 109.99 99.3747 109.907 99.3653 109.828L99.7043 109.771C99.72 109.871 99.7231 109.974 99.7263 110.077C99.7263 110.233 99.7106 110.385 99.676 110.538H99.6729ZM96.2515 109.844L95.9124 109.795C95.947 109.542 96.0255 109.293 96.1479 109.074L96.4461 109.254C96.3456 109.439 96.2797 109.639 96.2546 109.844H96.2515ZM99.29 109.522C99.224 109.32 99.1205 109.141 98.9886 108.978L99.246 108.742C99.4092 108.938 99.5317 109.157 99.6133 109.4L99.29 109.522ZM96.6156 108.998L96.3551 108.762C96.5183 108.563 96.7035 108.407 96.9201 108.288L97.077 108.606C96.8981 108.706 96.7443 108.835 96.6124 108.998H96.6156ZM98.7689 108.762C98.6088 108.633 98.4299 108.537 98.2384 108.477L98.3326 108.132C98.568 108.201 98.7846 108.321 98.9761 108.477L98.7658 108.766L98.7689 108.762ZM97.3564 108.483L97.2591 108.138C97.4913 108.065 97.733 108.042 97.9779 108.065L97.9465 108.424C97.7519 108.407 97.5479 108.427 97.3564 108.487V108.483Z" fill="#032E33"/>
</g>
<path d="M112.037 177.841C111.654 177.841 111.336 177.451 111.322 176.963C111.062 166.995 106.873 153.871 105.499 149.557C105.147 148.453 104.987 147.794 105.024 147.578C105.104 147.089 105.485 146.768 105.871 146.874C106.163 146.953 106.378 147.25 106.429 147.602C106.478 147.776 106.647 148.313 106.827 148.874C108.226 153.263 112.487 166.612 112.753 176.901C112.767 177.404 112.455 177.824 112.06 177.841H112.035H112.037Z" fill="#FF9800"/>
<path d="M109.414 175.769C109.396 175.769 109.379 175.769 109.365 175.769C108.973 175.735 108.673 175.301 108.698 174.799C108.701 174.717 109.125 166.396 107.145 159.002C107.019 158.527 107.216 158.011 107.591 157.847C107.966 157.683 108.372 157.939 108.498 158.414C110.575 166.164 110.146 174.573 110.126 174.925C110.1 175.404 109.786 175.773 109.414 175.773V175.769Z" fill="#FF9800"/>
<path d="M68.5039 136.212C64.6286 143.081 58.4776 169.321 58.4776 169.321C58.4776 169.321 69.0653 174.709 72.998 178.137C76.9306 181.565 82.1068 186.765 87.4097 186.269C92.7156 185.773 95.9933 177.02 100.684 173.829C105.374 170.637 115.693 173.231 115.693 173.231C115.693 173.231 113.659 150.292 108.166 143.695C102.672 137.099 98.6402 134.002 98.6402 134.002C98.6402 134.002 93.3524 139.552 84.0082 137.956C74.664 136.36 70.683 134.697 70.683 134.697C70.683 134.697 69.515 134.414 68.5039 136.212Z" fill="#C57D3D"/>
<path d="M114.775 178.92C114.371 178.92 114.036 178.542 114.021 178.057C113.689 168.049 110.818 153.649 105.162 144.04C104.924 143.635 105.005 143.075 105.346 142.788C105.687 142.501 106.158 142.602 106.397 143.007C112.231 152.917 115.189 167.715 115.53 177.982C115.545 178.478 115.222 178.897 114.805 178.914H114.772L114.775 178.92Z" fill="#DB307A"/>
<path d="M104.997 178.104C104.583 178.104 104.245 177.705 104.242 177.216C104.167 168.768 103.219 147.927 96.0903 136.89C95.8367 136.499 95.9001 135.932 96.2291 135.632C96.5581 135.331 97.0319 135.406 97.2885 135.797C104.695 147.262 105.673 168.569 105.751 177.196C105.754 177.692 105.422 178.1 105.003 178.104H104.994H104.997Z" fill="#DB307A"/>
<path d="M100.678 183.077C100.367 183.077 100.074 182.847 99.9655 182.476C99.9052 182.277 99.9052 182.22 99.878 180.445C99.5732 159.911 97.7261 145.825 94.394 138.567C94.1948 138.132 94.3276 137.585 94.6958 137.346C95.061 137.106 95.5198 137.268 95.722 137.703C99.1718 145.214 101.079 159.584 101.39 180.408C101.402 181.171 101.411 181.832 101.423 182.011C101.49 182.439 101.287 182.874 100.931 183.023C100.847 183.06 100.762 183.073 100.681 183.073L100.678 183.077Z" fill="#DB307A"/>
<path d="M96.694 187.986C96.6608 187.986 96.6246 187.986 96.5914 187.976C96.1779 187.909 95.8881 187.453 95.9485 186.964C98.2272 167.385 94.6235 144.89 91.1406 138.007C90.9263 137.582 91.041 137.032 91.3971 136.772C91.7533 136.512 92.2181 136.654 92.4323 137.079C96.027 144.188 99.7665 167.25 97.4425 187.21C97.3912 187.659 97.0682 187.983 96.697 187.983L96.694 187.986Z" fill="#DB307A"/>
<path d="M91.7831 193.678C91.7499 193.678 91.7167 193.678 91.6865 193.671C91.273 193.607 90.9803 193.155 91.0346 192.666C93.3676 171.332 91.3907 144.499 88.1553 139.272C87.9078 138.874 87.9802 138.311 88.3152 138.017C88.6502 137.723 89.1241 137.808 89.3716 138.206C91.9551 142.38 92.9089 154.384 93.2469 161.166C93.7872 172.014 93.5216 183.877 92.5346 192.895C92.4833 193.347 92.1604 193.678 91.7861 193.678H91.7831Z" fill="#DB307A"/>
<path d="M112.412 174.858C112.026 174.858 111.697 174.51 111.661 174.045C110.055 154.071 106.18 142.829 98.7069 136.462C98.3688 136.172 98.2904 135.612 98.5318 135.21C98.7763 134.809 99.2471 134.714 99.5852 135.004C107.45 141.705 111.513 153.332 113.164 173.876C113.203 174.369 112.898 174.807 112.485 174.855C112.461 174.855 112.436 174.858 112.412 174.858Z" fill="#DB307A"/>
<path d="M77.6342 194.569C77.5769 194.569 77.5165 194.562 77.4591 194.545C77.0547 194.43 76.8042 193.944 76.9008 193.462C78.6573 184.723 78.4581 172.526 78.2801 161.763C78.1352 152.998 77.9994 144.721 78.9652 139.721C79.0588 139.239 79.4632 138.935 79.8676 139.046C80.2751 139.158 80.5286 139.64 80.435 140.122C79.5145 144.907 79.6473 153.079 79.7892 161.73C79.9672 172.601 80.1695 184.922 78.3676 193.88C78.2831 194.292 77.9753 194.569 77.6342 194.569Z" fill="#DB307A"/>
<path d="M75.672 189.481C75.2978 189.481 74.9688 189.15 74.9235 188.695C74.9145 188.614 74.1026 180.678 73.9426 170.998C73.7283 157.937 74.7334 148.078 76.9336 141.695C77.0906 141.236 77.5312 141.017 77.9206 141.206C78.3069 141.394 78.491 141.921 78.334 142.376C73.2545 157.107 76.3904 188.165 76.4236 188.475C76.4749 188.968 76.1791 189.417 75.7686 189.477C75.7354 189.481 75.7082 189.484 75.675 189.484H75.672V189.481Z" fill="#DB307A"/>
<path d="M66.6091 180.651H66.594C66.1775 180.641 65.8455 180.229 65.8546 179.734C65.8757 178.637 66.422 152.708 72.917 137.731C73.1072 137.289 73.5629 137.117 73.9342 137.346C74.3054 137.572 74.4503 138.115 74.2601 138.554C67.925 153.167 67.3727 179.511 67.3667 179.774C67.3576 180.263 67.0226 180.651 66.6121 180.651H66.6091Z" fill="#DB307A"/>
<path d="M63.2102 178.92C62.8058 178.92 62.4707 178.539 62.4556 178.056C62.4285 177.115 61.852 154.826 69.9739 139.92C70.2003 139.502 70.6681 139.384 71.0182 139.654C71.3683 139.923 71.4679 140.48 71.2415 140.895C63.3822 155.322 63.9587 177.766 63.9647 177.989C63.9798 178.485 63.6539 178.9 63.2374 178.92H63.2102Z" fill="#DB307A"/>
<path d="M59.1837 178.103C58.7883 178.103 58.4563 177.739 58.4322 177.263C57.7441 164.493 61.5167 145.916 70.0611 135.115C70.3479 134.754 70.8247 134.737 71.1296 135.078C71.4314 135.419 71.4495 135.986 71.1628 136.347C63.0047 146.658 59.2924 165.063 59.9443 177.145C59.9714 177.641 59.6545 178.066 59.238 178.1H59.1867L59.1837 178.103Z" fill="#DB307A"/>
<path d="M72.6512 186.485C72.2709 186.485 71.9419 186.141 71.8997 185.678C71.8151 184.727 69.8896 162.28 72.8594 149.479C72.9711 149.003 73.3846 148.723 73.789 148.851C74.1934 148.983 74.4289 149.479 74.3142 149.954C71.4198 162.428 73.3816 185.26 73.3997 185.486C73.4449 185.979 73.1431 186.421 72.7266 186.471C72.6995 186.471 72.6723 186.475 72.6481 186.475L72.6512 186.485Z" fill="#DB307A"/>
<path d="M83.9031 190.827C83.8457 190.827 83.7884 190.82 83.731 190.803C83.3236 190.692 83.0701 190.21 83.1666 189.727C86.5832 172.219 84.9775 150.305 83.1666 140.602C83.0761 140.119 83.3327 139.637 83.7401 139.532C84.1445 139.424 84.549 139.731 84.6425 140.214C86.4836 150.069 88.1104 172.338 84.6425 190.132C84.561 190.547 84.2502 190.827 83.9091 190.827H83.9061H83.9031Z" fill="#DB307A"/>
<path d="M93.3647 189.481C93.3466 189.481 93.3255 189.481 93.3074 189.481C92.8909 189.444 92.58 189.012 92.6102 188.516C93.4039 175.975 94.3909 160.367 91.7862 147.785C91.6866 147.303 91.9341 146.817 92.3385 146.699C92.743 146.577 93.1534 146.874 93.253 147.357C95.915 160.218 94.916 175.985 94.1162 188.651C94.086 189.123 93.754 189.484 93.3647 189.484V189.481Z" fill="#DB307A"/>
<path d="M87.6302 196.816C87.5668 196.816 87.5004 196.806 87.434 196.786C87.0296 196.657 86.7911 196.165 86.8998 195.686C87.4491 193.236 90.099 167.294 88.6413 150.65C88.596 150.157 88.8978 149.715 89.3143 149.664C89.7278 149.617 90.099 149.971 90.1443 150.464C91.6987 168.161 88.8043 194.161 88.3606 196.148C88.27 196.549 87.9652 196.816 87.6302 196.816Z" fill="#DB307A"/>
<path d="M79.8736 188.88C79.8011 188.88 79.7227 188.867 79.6502 188.84C79.2518 188.692 79.0285 188.192 79.1522 187.716C82.777 173.782 81.8656 159.678 80.9812 146.037L80.9601 145.69C80.9269 145.194 81.2408 144.765 81.6543 144.725C82.0738 144.674 82.433 145.056 82.4662 145.552L82.4873 145.899C83.3807 159.706 84.3042 173.984 80.5949 188.246C80.4953 188.631 80.1965 188.88 79.8736 188.88Z" fill="#DB307A"/>
<path d="M109.204 175.431C108.818 175.431 108.489 175.081 108.453 174.612C107.638 163.859 105.77 149.573 101.493 142.555C101.248 142.154 101.324 141.59 101.662 141.3C102 141.01 102.471 141.098 102.718 141.502C107.197 148.851 109.129 163.477 109.959 174.45C109.998 174.946 109.69 175.381 109.274 175.425C109.25 175.425 109.228 175.428 109.207 175.428L109.204 175.431Z" fill="#DB307A"/>
<path d="M101.52 181.515C101.486 181.515 101.45 181.515 101.417 181.508C100.865 181.44 100.46 180.853 100.521 180.195C101.26 171.686 99.6303 149.111 95.4501 140.595C95.1694 140.025 95.3324 139.289 95.8123 138.958C96.2922 138.628 96.9109 138.817 97.1886 139.39C101.634 148.453 103.306 171.44 102.522 180.445C102.467 181.059 102.03 181.521 101.523 181.521L101.52 181.515Z" fill="#FF9800"/>
<path d="M60.2315 178.171C59.827 178.171 59.492 177.79 59.4769 177.304C59.4679 176.933 59.4528 176.542 59.4377 176.13C59.2325 169.945 58.8914 159.597 63.7929 149.725C64.0042 149.3 64.466 149.158 64.8251 149.408C65.1843 149.661 65.305 150.211 65.0907 150.639C60.4156 160.06 60.7446 170.077 60.9438 176.062C60.9589 176.474 60.9709 176.869 60.983 177.243C60.9981 177.739 60.6721 178.154 60.2556 178.171H60.2285H60.2315Z" fill="#FF9800"/>
<path d="M76.1519 188.951C75.7777 188.951 75.4517 188.62 75.4035 188.165C74.0936 175.89 75.1499 153.851 76.9004 145.086C76.997 144.603 77.4045 144.303 77.8089 144.418C78.2133 144.532 78.4639 145.015 78.3703 145.501C76.65 154.124 75.6117 175.836 76.9035 187.939C76.9548 188.431 76.662 188.88 76.2485 188.941C76.2153 188.944 76.1851 188.948 76.1519 188.948V188.951Z" fill="#FF9800"/>
<path d="M77.6344 188.05H77.5982C77.1817 188.027 76.8587 187.605 76.8768 187.112C76.8859 186.886 77.7642 164.22 77.4684 153.403C77.4533 152.907 77.7823 152.492 78.1988 152.475C78.6062 152.438 78.9654 152.846 78.9775 153.342C79.2732 164.23 78.395 186.964 78.3859 187.19C78.3678 187.672 78.0328 188.047 77.6314 188.047L77.6344 188.05Z" fill="#FF9800"/>
<path d="M85.8283 194.636C85.7801 194.636 85.7318 194.633 85.6835 194.619C85.276 194.525 85.0074 194.053 85.0859 193.567C87.938 176.073 86.9783 146.415 85.2308 141.445C85.0708 140.99 85.2519 140.463 85.6382 140.271C86.0245 140.082 86.4652 140.298 86.6251 140.754C88.6684 146.574 89.3596 176.788 86.5678 193.908C86.4984 194.336 86.1815 194.633 85.8283 194.633V194.636Z" fill="#FF9800"/>
<path d="M97.8678 181.218H97.8195C97.403 181.187 97.0861 180.762 97.1102 180.266C97.4935 172.884 97.6444 158.821 94.3396 147.589C94.2007 147.12 94.409 146.607 94.8014 146.445C95.1937 146.283 95.6253 146.53 95.7641 146.995C99.1565 158.524 99.0056 172.857 98.6163 180.378C98.5921 180.853 98.2601 181.221 97.8648 181.221L97.8678 181.218Z" fill="#FF9800"/>
<path d="M86.4988 196.883C86.4716 196.883 86.4475 196.883 86.4233 196.88C86.0098 196.829 85.705 196.391 85.7473 195.898C85.7563 195.77 85.8046 195.416 85.874 194.862C88.7594 172.034 88.7262 152.212 85.7714 139.04C85.6627 138.56 85.9042 138.068 86.3056 137.94C86.71 137.811 87.1205 138.095 87.2292 138.574C90.2353 151.975 90.2835 172.061 87.368 195.125C87.3046 195.632 87.2624 195.956 87.2533 196.074C87.2141 196.536 86.8851 196.883 86.5018 196.883H86.4988Z" fill="#FF9800"/>
<path d="M82.9734 194.636C82.9039 194.636 82.8315 194.626 82.7621 194.599C82.3607 194.461 82.1313 193.961 82.246 193.486C85.0559 182.011 84.244 151.557 82.2248 137.761C82.1524 137.271 82.4271 136.806 82.8406 136.721C83.248 136.634 83.6434 136.964 83.7158 137.454C85.7501 151.354 86.6555 181.896 83.6977 193.988C83.6011 194.38 83.2993 194.636 82.9734 194.636Z" fill="#FF9800"/>
<path d="M89.3932 194.937C89.2725 194.937 89.1518 194.91 89.0341 194.856C88.515 194.619 88.2554 193.924 88.4546 193.31C90.6307 186.552 91.008 154.192 86.6799 139.195C86.5019 138.571 86.7795 137.889 87.3077 137.673C87.8329 137.457 88.4063 137.791 88.5874 138.419C93.1267 154.152 92.6498 186.981 90.3379 194.167C90.184 194.643 89.8037 194.937 89.3993 194.937H89.3932Z" fill="#FF9800"/>
<path d="M78.82 193.746C78.7597 193.746 78.6963 193.735 78.6329 193.719C78.2285 193.597 77.984 193.108 78.0866 192.625C80.7185 180.327 80.2567 164.982 79.8885 152.654C79.7315 147.495 79.5866 142.619 79.7013 138.773C79.7164 138.277 80.0756 137.882 80.483 137.909C80.8996 137.926 81.2255 138.341 81.2104 138.841C81.0987 142.623 81.2436 147.468 81.3975 152.593C81.7718 165.036 82.2336 180.52 79.5504 193.071C79.4629 193.476 79.1551 193.746 78.817 193.746H78.82Z" fill="#FF9800"/>
<path d="M116.535 180.403H116.496C116.079 180.376 115.76 179.954 115.781 179.458C116.442 164.204 108.887 140.674 99.1295 134.948C98.7552 134.729 98.6013 134.189 98.7854 133.747C98.9695 133.302 99.4253 133.12 99.7965 133.339C108.407 138.386 118.129 160.129 117.287 179.549C117.266 180.028 116.931 180.403 116.532 180.403H116.535Z" fill="#FF9800"/>
<path d="M77.0545 191.444C76.6561 191.444 76.3211 191.073 76.2999 190.591C76.2335 189.062 74.7063 152.964 78.968 134.464C79.0766 133.985 79.4931 133.702 79.8946 133.837C80.299 133.968 80.5344 134.461 80.4227 134.94C76.2245 153.163 77.7909 190.125 77.806 190.5C77.8271 190.996 77.5072 191.417 77.0907 191.444H77.0514H77.0545Z" fill="#FF9800"/>
<path d="M68.2474 180.968C68.2233 180.968 68.1991 180.968 68.175 180.968C67.6197 180.921 67.2001 180.351 67.2424 179.69C67.3299 178.188 69.4668 142.856 74.8783 134.583C75.2194 134.06 75.8532 133.969 76.2908 134.374C76.7285 134.778 76.8099 135.534 76.4689 136.054C71.4286 143.76 69.2736 179.497 69.2525 179.858C69.2132 180.489 68.7726 180.972 68.2504 180.972L68.2474 180.968Z" fill="#FF9800"/>
<path d="M98.7793 181.565C98.7581 181.565 98.734 181.565 98.7128 181.562C98.2994 181.518 97.9915 181.083 98.0277 180.587C99.2833 163.812 97.3154 149.55 91.8375 135.696C91.6594 135.247 91.8224 134.714 92.1997 134.501C92.5769 134.289 93.0266 134.485 93.2047 134.933C98.8034 149.084 100.813 163.643 99.5338 180.749C99.5006 181.215 99.1686 181.569 98.7823 181.569L98.7793 181.565Z" fill="#FF9800"/>
<path d="M75.1679 190.459C74.8268 190.459 74.519 190.186 74.4345 189.774C72.2524 179.123 70.9998 155.704 76.9335 138.206C77.0905 137.747 77.5281 137.525 77.9175 137.71C78.3038 137.896 78.4909 138.419 78.3339 138.878C72.533 155.98 73.7645 178.91 75.9013 189.346C75.9979 189.828 75.7504 190.314 75.346 190.432C75.2856 190.449 75.2252 190.459 75.1679 190.459Z" fill="#FF9800"/>
<path d="M105.781 177.891C105.76 177.891 105.736 177.891 105.715 177.888C105.301 177.844 104.993 177.405 105.03 176.913C105.627 169.031 104.9 153.737 101.438 145.926C101.245 145.487 101.387 144.944 101.752 144.711C102.12 144.478 102.579 144.647 102.772 145.089C106.376 153.221 107.145 168.984 106.53 177.075C106.494 177.54 106.165 177.895 105.778 177.895L105.781 177.891Z" fill="#333481"/>
<path d="M57.4214 176.474C57.0109 176.474 56.6729 176.083 56.6669 175.59C56.4103 156.976 66.5725 136.192 70.9669 131.425C71.2748 131.091 71.7516 131.118 72.0353 131.482C72.319 131.846 72.2949 132.416 71.987 132.75C67.8703 137.221 57.9345 157.762 58.179 175.563C58.185 176.059 57.853 176.468 57.4365 176.474H57.4214Z" fill="#333481"/>
<path d="M65.3502 180.968C64.9096 180.968 64.5051 180.624 64.3814 180.094C62.483 172.027 66.7144 143.53 73.4781 132.652C73.8101 132.119 74.4409 132.008 74.8876 132.403C75.3343 132.794 75.4279 133.547 75.0989 134.076C68.3684 144.903 64.7315 172.692 66.3221 179.446C66.473 180.081 66.1591 180.745 65.6249 180.924C65.5343 180.955 65.4438 180.968 65.3533 180.968H65.3502Z" fill="#333481"/>
<path d="M103.361 179.919H103.343C102.787 179.909 102.343 179.362 102.353 178.701C102.528 166.436 99.5306 144.273 94.2518 136.04C93.9138 135.514 94.0013 134.762 94.442 134.363C94.8856 133.962 95.5164 134.063 95.8514 134.589C101.613 143.571 104.544 166.399 104.363 178.741C104.354 179.396 103.904 179.919 103.355 179.919H103.358H103.361Z" fill="#333481"/>
<path d="M107.475 177.375H107.436C106.88 177.348 106.449 176.791 106.47 176.13C106.865 164.351 106.05 150.299 97.0109 135.406C96.6849 134.869 96.7875 134.12 97.2372 133.732C97.6869 133.348 98.3177 133.466 98.6437 134.002C108.042 149.489 108.89 164.034 108.483 176.221C108.462 176.866 108.015 177.372 107.478 177.372L107.475 177.375Z" fill="#333481"/>
<path d="M94.1767 191.744C94.0861 191.744 93.9925 191.728 93.899 191.697C93.3648 191.515 93.0539 190.85 93.2078 190.216C95.0368 182.601 96.3165 150.339 88.5448 135.959C88.243 135.402 88.3788 134.66 88.8466 134.305C89.3144 133.948 89.9392 134.11 90.238 134.663C98.4624 149.876 97.0952 182.749 95.1425 190.874C95.0157 191.4 94.6143 191.744 94.1736 191.744H94.1767Z" fill="#333481"/>
<path d="M81.0834 192.946C80.9989 192.946 80.9083 192.932 80.8238 192.905C80.2866 192.737 79.9667 192.079 80.1085 191.441C84.1528 173.377 82.1186 150.956 80.7695 136.118L80.7091 135.439C80.6488 134.782 81.0502 134.191 81.6025 134.12C82.1518 134.053 82.6528 134.525 82.7102 135.183L82.7705 135.861C84.1317 150.872 86.1931 173.559 82.0522 192.055C81.9315 192.592 81.5271 192.946 81.0804 192.946H81.0834Z" fill="#333481"/>
<path d="M61.8247 178.192C61.2875 178.192 60.8378 177.682 60.8196 177.038C60.2824 159.294 64.3117 143.922 72.8017 131.34C73.1488 130.824 73.7826 130.74 74.2172 131.155C74.6488 131.566 74.7213 132.322 74.3742 132.838C66.198 144.958 62.3136 159.8 62.8327 176.953C62.8539 177.615 62.4193 178.168 61.8639 178.192H61.8247Z" fill="#333481"/>
<path d="M70.8189 181.866C70.3209 181.866 69.8924 181.43 69.823 180.83C68.7666 171.575 71.7516 142.879 77.4227 133.982C77.7607 133.456 78.3915 133.351 78.8321 133.749C79.2728 134.147 79.3633 134.9 79.0253 135.426C73.8069 143.611 70.7888 171.501 71.8149 180.506C71.8874 181.161 71.5041 181.765 70.9517 181.852C70.9065 181.859 70.8612 181.862 70.8129 181.862L70.8189 181.866Z" fill="#333481"/>
<path d="M110.671 174.139C110.278 174.139 109.946 173.778 109.919 173.306C108.489 149.32 104.29 143.804 99.4281 137.413C98.5921 136.317 97.7289 135.18 96.8657 133.931C96.6001 133.547 96.6484 132.98 96.9683 132.666C97.2882 132.352 97.7651 132.406 98.0307 132.791C98.8697 134.009 99.7209 135.126 100.545 136.209C105.386 142.565 109.955 148.574 111.422 173.178C111.452 173.674 111.139 174.102 110.722 174.136C110.704 174.136 110.686 174.136 110.668 174.136L110.671 174.139Z" fill="#333481"/>
<path d="M84.736 194.91C84.6968 194.91 84.6575 194.906 84.6153 194.899C84.2048 194.822 83.9241 194.36 83.9875 193.87C85.7863 180.496 87.8115 153.669 84.0086 137.957C83.8939 137.481 84.1233 136.981 84.5247 136.846C84.9261 136.708 85.3457 136.985 85.4604 137.46C89.3387 153.473 87.2984 180.631 85.4815 194.15C85.4211 194.592 85.1012 194.906 84.736 194.906V194.91Z" fill="#333481"/>
<path d="M102.926 136.528C100.533 137.394 92.0398 140.207 81.8079 139.104C71.5792 138.007 68.4108 134.984 68.4108 134.984C68.4108 134.984 68.4171 134.745 68.6821 134.265C68.7601 134.124 68.863 133.952 68.994 133.769C69.1094 133.607 69.2497 133.429 69.415 133.229C69.5085 133.122 69.6052 133.01 69.7175 132.896C69.7892 132.811 69.7508 132.269 69.7929 132.149C69.8292 131.706 69.8299 130.354 69.8299 130.23C69.8947 129.915 69.8688 129.312 69.9451 128.791C69.9451 128.791 77.0419 131.833 85.3964 133.229C93.7656 134.089 102.627 129.296 102.627 129.296L102.708 130.437L102.746 131.945L102.926 136.528Z" fill="#333481"/>
<path d="M102.746 132.103C97.7347 136.516 90.9946 138.77 85.7739 138.77C78.0849 138.77 71.2915 135.645 68.6765 134.265C68.7545 134.124 68.8574 133.952 68.9885 133.769C73.429 136.087 90.6504 142.165 102.727 131.652L102.746 132.103Z" fill="#FF9800"/>
<path d="M102.708 131.315C98.7283 134.716 92.0662 137.356 86.2866 137.356C84.8652 137.356 83.3938 137.248 81.8692 137.042C76.677 136.333 71.9253 134.474 69.3886 133.229C69.4823 133.121 69.5792 133.01 69.6916 132.895C72.2346 134.123 76.8645 135.912 81.9192 136.596C89.4951 137.632 97.8411 134.801 102.708 130.682V131.315Z" fill="#FF9800"/>
<path d="M100.376 131.704C95.4979 135.174 90.2393 136.516 85.3571 136.516C78.8632 136.516 72.8933 134.353 69.7572 132.689C69.7572 132.689 69.7767 132.176 69.7961 131.995C74.7938 134.6 86.6909 138.776 96.9331 133.27C101.485 130.825 101.488 130.823 96.9425 133.263C97.4985 132.963 98.0576 132.636 98.6105 132.275C99.0759 131.974 102.216 130.254 102.668 129.909L102.694 130.314L100.376 131.704Z" fill="#FF9800"/>
<path d="M98.6722 132.693C98.1145 132.895 97.563 133.088 97.0272 133.27C96.6668 133.391 96.6637 133.391 97.0178 133.277C92.7751 134.667 89.1091 135.24 85.841 135.24C80.1382 135.24 74.0442 132.601 69.8204 130.384C69.8204 130.292 69.8629 129.89 69.8629 129.721C76.6905 133.264 86.1825 136.789 98.5594 132.261C98.6064 132.244 98.6597 132.251 98.7004 132.278C98.7474 132.302 98.7819 132.349 98.8038 132.41C98.8351 132.524 98.7756 132.649 98.6722 132.69V132.693Z" fill="#FF9800"/>
</svg>
