<svg width="174" height="240" viewBox="0 0 174 240" fill="none" xmlns="http://www.w3.org/2000/svg">
<rect width="174" height="240" fill="none"/>
<path d="M104.764 118.224C104.764 115.892 104.449 102.811 104.397 101.163C104.028 102.736 100.488 114.506 98.9022 114.752C98.9022 114.752 88.0351 117.541 74.5256 114.721C81.4205 118.85 96.857 119.434 104.764 118.224Z" fill="#DB307A"/>
<path d="M74.2077 114.653C74.1872 114.653 74.1769 114.642 74.1564 114.642C74.1564 114.642 72.8027 113.808 71.4696 112.386C69.4664 110.25 67.5281 106.777 70.4885 102.866C75.8417 95.7969 104.393 101.171 104.393 101.171C104.467 102.228 104.682 110.439 104.682 113.887C103.612 114.337 99.8597 114.78 98.8845 115.017C98.8845 115.017 87.8608 117.582 74.2043 114.653H74.2077Z" fill="#FF9800"/>
<path d="M72.516 101.208C80.7475 96.7199 104.401 101.193 104.401 101.193C104.401 100.329 104.447 99.8175 104.365 99.2979C92.9068 96.5016 80.6688 96.9455 72.5125 101.208H72.516Z" fill="#DB307A"/>
<path d="M78.5083 110.24C75.001 109.655 71.1417 107.673 69.4325 104.712C68.1642 107.857 69.788 110.592 71.4698 112.386C72.803 113.809 74.1567 114.643 74.1567 114.643C74.1772 114.643 74.1875 114.653 74.208 114.653C87.8679 117.583 99.0119 115.009 99.0119 115.009C99.7366 114.766 104.258 113.001 104.704 112.446C104.704 112.446 104.501 107.114 104.501 104.159C97.5927 110.127 87.2936 111.836 78.5083 110.236V110.24Z" fill="#CC7A0E"/>
<mask id="mask0_1470_110834" style="mask-type:luminance" maskUnits="userSpaceOnUse" x="68" y="99" width="37" height="17">
<path d="M74.2312 114.455C74.2107 114.455 74.2004 114.445 74.1799 114.445C74.1799 114.445 72.8262 113.611 71.493 112.189C69.4898 110.052 67.5516 106.58 70.5119 102.669C75.8652 95.5997 104.428 100.988 104.428 100.988C104.397 102.064 104.701 110.404 104.701 113.836C104.171 114.318 100.735 114.597 100.007 114.843C100.007 114.843 87.8843 117.385 74.2277 114.455H74.2312Z" fill="white"/>
</mask>
<g mask="url(#mask0_1470_110834)">
<path d="M75.6885 114.524H75.6817C75.4321 114.524 75.1792 114.51 74.9262 114.479L74.9707 114.11C75.2065 114.134 75.4458 114.151 75.6817 114.148L75.6885 114.52V114.524ZM76.0714 114.51L76.0475 114.138C76.2867 114.124 76.5294 114.097 76.7619 114.056L76.8268 114.425C76.5807 114.469 76.3244 114.5 76.0714 114.514V114.51ZM74.5502 114.428C74.3041 114.384 74.0545 114.326 73.8084 114.25L73.9144 113.891C74.1468 113.96 74.3793 114.014 74.6151 114.056L74.5502 114.425V114.428ZM77.2029 114.349L77.1174 113.984C77.3499 113.932 77.5823 113.861 77.8079 113.779L77.9378 114.131C77.6985 114.216 77.4558 114.295 77.2097 114.349H77.2029ZM73.4426 114.134C73.2068 114.052 72.9675 113.943 72.7384 113.83L72.9059 113.498C73.1213 113.608 73.3435 113.703 73.5657 113.782L73.4392 114.134H73.4426ZM78.2865 113.987L78.1361 113.642C78.3549 113.55 78.5702 113.437 78.7788 113.321L78.9702 113.642C78.7514 113.768 78.5224 113.885 78.2899 113.984L78.2865 113.987ZM72.4069 113.652C72.1847 113.526 71.9693 113.382 71.771 113.232L71.9932 112.931C72.1847 113.074 72.3863 113.208 72.5949 113.327L72.4103 113.649L72.4069 113.652ZM79.2949 113.444L79.0898 113.133C79.2881 112.999 79.4829 112.856 79.6675 112.702L79.9102 112.986C79.7154 113.15 79.5103 113.304 79.2984 113.44L79.2949 113.444ZM71.4668 112.996C71.2719 112.832 71.0873 112.657 70.9096 112.473L71.1797 112.216C71.3437 112.391 71.5215 112.555 71.7027 112.705L71.4634 112.996H71.4668ZM80.1871 112.729L79.9342 112.459C80.1051 112.295 80.2726 112.117 80.4264 111.936L80.7102 112.172C80.5461 112.367 80.3717 112.551 80.1871 112.729ZM70.6566 112.189C70.4926 111.994 70.3421 111.789 70.202 111.577L70.5131 111.372C70.6464 111.57 70.79 111.765 70.9438 111.95L70.6566 112.189ZM80.9494 111.875L80.652 111.652C80.7956 111.461 80.9289 111.256 81.0486 111.051L81.3733 111.239C81.2468 111.458 81.1067 111.673 80.9529 111.875H80.9494ZM70.0003 111.256C69.8704 111.037 69.7576 110.805 69.655 110.572L69.9969 110.425C70.0926 110.644 70.202 110.856 70.3216 111.068L70.0003 111.259V111.256ZM81.5511 110.904L81.2161 110.733C81.322 110.518 81.4178 110.295 81.4998 110.073L81.8485 110.203C81.763 110.435 81.6639 110.671 81.5477 110.9L81.5511 110.904ZM69.5115 110.22C69.426 109.984 69.3508 109.738 69.2893 109.492L69.6516 109.403C69.7063 109.636 69.7781 109.865 69.8601 110.094L69.5115 110.22ZM81.975 109.837L81.616 109.731C81.6844 109.502 81.7391 109.266 81.7801 109.031L82.1493 109.096C82.1049 109.345 82.0467 109.598 81.975 109.841V109.837ZM69.2141 109.116C69.1696 108.866 69.1389 108.613 69.1252 108.357L69.4978 108.337C69.5149 108.576 69.5422 108.815 69.5833 109.051L69.2141 109.116ZM82.2006 108.716L81.8314 108.678C81.8587 108.439 81.8724 108.193 81.8724 107.957L82.245 107.926V107.954C82.245 108.207 82.2313 108.463 82.2006 108.716ZM69.1115 107.978V107.96C69.1115 107.711 69.1252 107.462 69.1525 107.215L69.5251 107.26C69.4978 107.489 69.4841 107.728 69.4841 107.964L69.1115 107.978ZM81.8587 107.571C81.8451 107.335 81.8143 107.092 81.7733 106.853L82.1425 106.785C82.1869 107.038 82.2177 107.294 82.2348 107.544L81.8587 107.567V107.571ZM69.5764 106.901L69.2072 106.836C69.2517 106.583 69.3098 106.337 69.3782 106.094L69.7371 106.2C69.6687 106.426 69.614 106.662 69.573 106.897L69.5764 106.901ZM81.6981 106.501C81.6399 106.268 81.5716 106.036 81.4895 105.81L81.8382 105.684C81.9271 105.92 82.0023 106.166 82.0604 106.412L81.6981 106.501ZM69.8499 105.858L69.4978 105.732C69.5833 105.492 69.6858 105.257 69.7986 105.027L70.1336 105.195C70.0277 105.41 69.9285 105.633 69.8499 105.858ZM81.3528 105.479C81.2571 105.257 81.1477 105.041 81.0281 104.836L81.3494 104.648C81.4793 104.863 81.5921 105.099 81.6946 105.325L81.3528 105.475V105.479ZM70.3046 104.881L69.9798 104.689C70.1063 104.467 70.2498 104.255 70.3968 104.053L70.7011 104.276C70.5575 104.467 70.4276 104.672 70.3046 104.881ZM80.8366 104.532C80.7033 104.334 80.5597 104.139 80.4059 103.958L80.6896 103.715C80.8537 103.913 81.0076 104.112 81.1477 104.323L80.8366 104.532ZM70.9233 103.992L70.6395 103.749C70.8036 103.558 70.978 103.366 71.1626 103.195L71.4189 103.465C71.248 103.629 71.0839 103.804 70.9267 103.988L70.9233 103.992ZM80.1666 103.688C80.0025 103.517 79.8248 103.353 79.6402 103.199L79.8761 102.908C80.0743 103.072 80.2589 103.247 80.4333 103.431L80.1632 103.688H80.1666ZM71.6822 103.226L71.4394 102.942C71.6343 102.782 71.8394 102.624 72.0479 102.488L72.2564 102.795C72.0548 102.929 71.8633 103.072 71.6787 103.226H71.6822ZM79.353 102.973C79.1616 102.83 78.9599 102.696 78.7548 102.577L78.9394 102.255C79.1582 102.382 79.377 102.522 79.5821 102.676L79.3599 102.973H79.353ZM72.5641 102.607L72.3761 102.286C72.5915 102.163 72.8205 102.043 73.0564 101.941L73.2068 102.283C72.9846 102.378 72.7692 102.488 72.5641 102.607ZM78.4335 102.412C78.2181 102.31 77.9959 102.214 77.7703 102.129L77.8968 101.78C78.1361 101.869 78.372 101.968 78.601 102.081L78.4369 102.416L78.4335 102.412ZM73.5383 102.146L73.4084 101.794C73.6443 101.705 73.8904 101.63 74.1366 101.572L74.2254 101.934C73.993 101.992 73.7605 102.06 73.5383 102.142V102.146ZM77.4319 102.019C77.2029 101.951 76.967 101.896 76.7311 101.855L76.7961 101.49C77.0456 101.531 77.2952 101.589 77.5379 101.661L77.4353 102.019H77.4319ZM74.5776 101.865L74.5126 101.496C74.7587 101.452 75.0151 101.425 75.2681 101.407L75.292 101.78C75.0527 101.794 74.8134 101.824 74.5776 101.865ZM76.3722 101.807C76.1432 101.783 75.9107 101.766 75.6748 101.77L75.6509 101.394H75.6748C75.9244 101.394 76.1705 101.404 76.4132 101.435L76.3722 101.807Z" fill="#032E33"/>
<path d="M75.6821 113.033C75.4189 113.033 75.1591 113.013 74.8993 112.972L74.9574 112.603C75.1932 112.644 75.436 112.661 75.6821 112.661H75.7333L75.7402 113.033H75.6787H75.6821ZM76.1333 113.013L76.1025 112.644C76.3418 112.62 76.5845 112.582 76.8204 112.521L76.9093 112.883C76.6529 112.948 76.3931 112.992 76.1333 113.013ZM74.513 112.897C74.26 112.839 74.0105 112.756 73.7678 112.661L73.9079 112.312C74.1301 112.408 74.366 112.483 74.6019 112.538L74.513 112.9V112.897ZM77.2819 112.77L77.1656 112.418C77.3947 112.343 77.6203 112.247 77.8357 112.134L78.01 112.462C77.7741 112.586 77.5314 112.685 77.2853 112.767L77.2819 112.77ZM73.4088 112.493C73.1764 112.377 72.9508 112.244 72.7354 112.09L72.9542 111.786C73.1525 111.929 73.361 112.052 73.5763 112.162L73.4088 112.493ZM78.3484 112.271L78.1502 111.953C78.3518 111.827 78.5501 111.683 78.7347 111.522L78.9774 111.806C78.7757 111.977 78.5638 112.134 78.3484 112.268V112.271ZM72.4243 111.851C72.2226 111.68 72.0346 111.499 71.8637 111.3L72.144 111.058C72.3047 111.235 72.479 111.406 72.667 111.563L72.4243 111.854V111.851ZM79.268 111.543L79.0014 111.28C79.1723 111.109 79.3329 110.924 79.4765 110.726L79.7807 110.948C79.6269 111.16 79.456 111.358 79.2714 111.543H79.268ZM71.6176 110.996C71.4603 110.788 71.3202 110.562 71.1971 110.333L71.5287 110.159C71.6415 110.374 71.7748 110.576 71.9184 110.767L71.621 110.993L71.6176 110.996ZM79.9961 110.617L79.6782 110.422C79.8012 110.217 79.914 109.998 80.0098 109.779L80.3516 109.923C80.249 110.165 80.1294 110.401 79.9893 110.62L79.9961 110.617ZM71.0228 109.977C70.9202 109.735 70.8314 109.485 70.7664 109.236L71.1288 109.143C71.1903 109.376 71.2689 109.605 71.3646 109.827L71.0228 109.977ZM80.4952 109.554L80.1397 109.437C80.2183 109.208 80.2764 108.969 80.314 108.733L80.6832 108.795C80.6388 109.051 80.5772 109.304 80.4918 109.557L80.4952 109.554ZM70.6844 108.853C70.6399 108.596 70.6126 108.333 70.6092 108.07H70.9818C70.9886 108.306 71.0125 108.548 71.0536 108.788L70.6844 108.853ZM80.7311 108.401L80.3619 108.371C80.3721 108.237 80.379 108.094 80.379 107.957C80.379 107.855 80.379 107.749 80.3687 107.643L80.7413 107.619C80.7481 107.728 80.7516 107.844 80.7516 107.957C80.7516 108.108 80.7413 108.254 80.7311 108.401ZM70.9886 107.704L70.616 107.684C70.6297 107.424 70.6639 107.157 70.7186 106.908L71.0843 106.983C71.033 107.219 71.0023 107.458 70.9886 107.704ZM80.3277 107.284C80.2935 107.048 80.2388 106.805 80.167 106.573L80.5225 106.463C80.6011 106.713 80.6593 106.973 80.6934 107.229L80.3243 107.284H80.3277ZM71.1698 106.631L70.8143 106.528C70.8895 106.275 70.9818 106.029 71.098 105.793L71.433 105.957C71.3305 106.173 71.2416 106.405 71.1732 106.634L71.1698 106.631ZM80.0474 106.227C79.9585 106.005 79.8525 105.783 79.7295 105.578L80.0508 105.387C80.1841 105.616 80.3003 105.848 80.396 106.091L80.0474 106.227ZM71.5971 105.626L71.2723 105.438C71.4022 105.212 71.5527 104.993 71.7133 104.788L72.0039 105.024C71.8535 105.209 71.7167 105.414 71.5937 105.626H71.5971ZM79.5312 105.27C79.3945 105.072 79.2372 104.884 79.0697 104.706L79.3398 104.45C79.5209 104.641 79.6884 104.843 79.8388 105.055L79.5312 105.27ZM72.25 104.751L71.9765 104.501C72.1543 104.31 72.3491 104.132 72.5577 103.968L72.7867 104.258C72.5953 104.409 72.4175 104.576 72.25 104.747V104.751ZM78.8065 104.46C78.6253 104.293 78.4305 104.149 78.2288 104.016L78.4339 103.705C78.6492 103.845 78.8612 104.005 79.056 104.18L78.8065 104.46ZM73.0773 104.047L72.8721 103.735C73.0875 103.592 73.32 103.462 73.5558 103.353L73.7131 103.691C73.4977 103.794 73.2789 103.913 73.0773 104.047ZM77.9177 103.831C77.7058 103.715 77.4801 103.616 77.2545 103.534L77.3776 103.182C77.6237 103.27 77.8664 103.38 78.0955 103.506L77.9177 103.831ZM74.0481 103.554L73.9182 103.202C74.1609 103.113 74.4138 103.038 74.6736 102.99L74.7489 103.353C74.5096 103.404 74.2737 103.469 74.0515 103.554H74.0481ZM76.9059 103.417C76.6734 103.359 76.4375 103.315 76.1914 103.284L76.2324 102.915C76.4957 102.942 76.752 102.994 77.0016 103.062L76.9059 103.417ZM75.1044 103.294L75.0599 102.929C75.3197 102.891 75.5864 102.884 75.8427 102.891L75.8325 103.267C75.5932 103.257 75.3471 103.267 75.1044 103.298V103.294Z" fill="#032E33"/>
<path d="M75.6848 111.536C75.4147 111.536 75.1515 111.509 74.8985 111.451L74.9806 111.089C75.2096 111.137 75.4455 111.164 75.6813 111.164L75.7087 111.42L75.6848 111.536ZM76.1155 111.509L76.071 111.14C76.3035 111.109 76.5325 111.058 76.7547 110.979L76.8778 111.331C76.6317 111.42 76.3753 111.478 76.1121 111.512L76.1155 111.509ZM74.5191 111.345C74.273 111.26 74.0337 111.147 73.8081 111.013L74.0063 110.692C74.208 110.815 74.4234 110.918 74.6422 110.996L74.5191 111.345ZM77.2401 111.177L77.0761 110.842C77.2846 110.74 77.4863 110.613 77.6709 110.466L77.8999 110.757C77.6948 110.921 77.4726 111.061 77.2367 111.177H77.2401ZM73.4867 110.784C73.2816 110.624 73.0902 110.443 72.9227 110.237L73.2098 110.002C73.3603 110.183 73.5312 110.347 73.7158 110.49L73.4867 110.788V110.784ZM78.2007 110.497L77.9375 110.231C78.105 110.063 78.252 109.878 78.3785 109.684L78.6929 109.885C78.5528 110.108 78.3887 110.313 78.2007 110.497ZM72.6902 109.923C72.5467 109.704 72.427 109.468 72.3347 109.226L72.6834 109.092C72.7654 109.311 72.8748 109.523 73.0013 109.718L72.6902 109.923ZM78.8878 109.544L78.5528 109.376C78.6553 109.164 78.7374 108.945 78.7955 108.713L79.1578 108.802C79.0929 109.058 79.004 109.304 78.8878 109.54V109.544ZM72.2117 108.85C72.1467 108.593 72.1091 108.333 72.1023 108.074L72.4749 108.063C72.4783 108.299 72.5159 108.532 72.5706 108.761L72.2117 108.85ZM79.2262 108.415L78.857 108.371C78.8741 108.238 78.8844 108.098 78.881 107.957C78.881 107.858 78.8775 107.762 78.8673 107.667L79.2365 107.629C79.2501 107.739 79.2536 107.848 79.2536 107.957C79.2536 108.115 79.2433 108.268 79.2228 108.415H79.2262ZM72.4817 107.704L72.1091 107.677C72.1296 107.414 72.1775 107.151 72.2595 106.901L72.615 107.014C72.5467 107.236 72.4988 107.468 72.4817 107.704ZM78.8194 107.315C78.775 107.086 78.6998 106.86 78.6041 106.645L78.9459 106.491C79.0519 106.734 79.1339 106.98 79.1852 107.239L78.8194 107.315ZM72.7381 106.686L72.3963 106.535C72.4988 106.299 72.6321 106.067 72.7859 105.852L73.0868 106.074C72.95 106.262 72.8304 106.467 72.7381 106.682V106.686ZM78.44 106.334C78.3238 106.135 78.1768 105.944 78.0195 105.77L78.2896 105.517C78.4708 105.708 78.6246 105.92 78.7613 106.146L78.4366 106.334H78.44ZM73.309 105.797L73.0355 105.547C73.2133 105.352 73.4115 105.178 73.6269 105.031L73.8422 105.336C73.6508 105.472 73.4731 105.626 73.3124 105.8L73.309 105.797ZM77.7631 105.527C77.5854 105.377 77.3871 105.24 77.182 105.127L77.3598 104.799C77.5888 104.922 77.8076 105.076 78.0093 105.243L77.7666 105.527H77.7631ZM74.1396 105.147L73.9585 104.819C74.1875 104.696 74.4336 104.594 74.6866 104.522L74.7891 104.877C74.5669 104.942 74.3447 105.031 74.1396 105.147ZM76.8641 104.98C76.6453 104.895 76.4197 104.829 76.1838 104.792L76.242 104.426C76.5018 104.464 76.7581 104.536 77.0008 104.635L76.8641 104.983V104.98ZM75.131 104.799L75.0695 104.433C75.3258 104.389 75.5925 104.372 75.8523 104.389L75.8352 104.761C75.6061 104.751 75.3634 104.761 75.131 104.799Z" fill="#032E33"/>
<path d="M75.7027 110.043H75.6788C75.4087 110.043 75.1523 109.991 74.9062 109.892L75.0429 109.547C75.2446 109.626 75.46 109.67 75.6788 109.67L75.7027 110.046V110.043ZM76.0992 109.998L76.024 109.636C76.236 109.588 76.4376 109.506 76.6188 109.386L76.8273 109.697C76.6051 109.841 76.359 109.943 76.0992 109.995V109.998ZM74.5541 109.711C74.3319 109.567 74.137 109.39 73.9832 109.174L74.2875 108.952C74.4174 109.133 74.5712 109.284 74.7558 109.403L74.5541 109.715V109.711ZM77.135 109.451L76.8718 109.185C77.029 109.031 77.1555 108.856 77.241 108.655L77.5828 108.809C77.4734 109.051 77.323 109.267 77.1316 109.451H77.135ZM73.785 108.829C73.6756 108.59 73.6106 108.333 73.5935 108.067L73.9696 108.05C73.9798 108.269 74.0345 108.48 74.1234 108.679L73.785 108.836V108.829ZM77.7093 108.433L77.3469 108.347C77.3777 108.221 77.3914 108.091 77.3914 107.961C77.3914 107.875 77.3845 107.787 77.3709 107.701L77.7401 107.65C77.7571 107.752 77.764 107.858 77.764 107.964C77.764 108.125 77.7469 108.286 77.7093 108.436V108.433ZM73.9832 107.722L73.614 107.67C73.6516 107.407 73.7371 107.157 73.8704 106.928L74.1952 107.113C74.0858 107.304 74.0174 107.51 73.9866 107.725L73.9832 107.722ZM77.2922 107.387C77.217 107.181 77.1076 106.993 76.9641 106.829L77.241 106.583C77.4187 106.785 77.552 107.011 77.6443 107.26L77.2956 107.383L77.2922 107.387ZM74.3832 106.843L74.0995 106.6C74.2738 106.395 74.4823 106.235 74.7148 106.108L74.8857 106.44C74.6943 106.542 74.5233 106.675 74.3798 106.843H74.3832ZM76.7282 106.604C76.5573 106.47 76.359 106.371 76.1505 106.31L76.2565 105.954C76.5128 106.026 76.7453 106.146 76.9572 106.31L76.7282 106.604ZM75.1865 106.316L75.0805 105.961C75.3301 105.886 75.6001 105.862 75.8633 105.886L75.8326 106.258C75.6241 106.241 75.3984 106.258 75.1899 106.323L75.1865 106.316Z" fill="#032E33"/>
<path d="M86.7403 122.106H86.7335C86.4839 122.106 86.2275 122.092 85.978 122.065L86.019 121.692C86.2549 121.716 86.4942 121.733 86.73 121.733L86.7403 122.106ZM87.1198 122.092L87.0958 121.72C87.3385 121.702 87.5778 121.675 87.8137 121.634L87.8786 121.996C87.6291 122.044 87.3761 122.072 87.1198 122.089V122.092ZM85.602 122.007C85.3524 121.962 85.1063 121.904 84.8602 121.832L84.9661 121.477C85.1986 121.545 85.4311 121.6 85.6669 121.641L85.602 122.01V122.007ZM88.2512 121.925L88.1692 121.562C88.3982 121.508 88.6307 121.436 88.8597 121.354L88.9896 121.706C88.7503 121.795 88.5042 121.87 88.2546 121.925H88.2512ZM84.4944 121.713C84.2585 121.627 84.0192 121.525 83.7936 121.412L83.9611 121.077C84.1731 121.186 84.3987 121.282 84.6209 121.361L84.491 121.709L84.4944 121.713ZM89.3383 121.566L89.1879 121.224C89.4101 121.128 89.622 121.019 89.8305 120.899L90.022 121.221C89.7998 121.35 89.5707 121.463 89.3383 121.566ZM83.4586 121.234C83.2399 121.104 83.0245 120.964 82.8228 120.817L83.045 120.516C83.2364 120.66 83.4415 120.79 83.6466 120.913L83.4621 121.238L83.4586 121.234ZM90.3433 121.022L90.1382 120.708C90.3365 120.578 90.5313 120.431 90.7125 120.277L90.9552 120.561C90.7603 120.725 90.5552 120.879 90.3433 121.015V121.022ZM82.5186 120.578C82.3237 120.414 82.1357 120.24 81.9614 120.055L82.2348 119.799C82.3989 119.973 82.5767 120.137 82.7579 120.291L82.5186 120.578ZM91.2423 120.315L90.986 120.041C91.1603 119.877 91.3244 119.699 91.4782 119.518L91.7619 119.758C91.5978 119.956 91.4235 120.14 91.2389 120.315H91.2423ZM81.7084 119.771C81.5443 119.576 81.3939 119.375 81.2503 119.163L81.5614 118.957C81.6913 119.159 81.8383 119.351 81.9922 119.535L81.705 119.775L81.7084 119.771ZM92.0012 119.453L91.7038 119.231C91.8474 119.04 91.9807 118.834 92.0969 118.629L92.4217 118.814C92.2952 119.033 92.155 119.252 92.0012 119.45V119.453ZM81.0487 118.834C80.9188 118.612 80.806 118.387 80.7068 118.154L81.0487 118.004C81.1444 118.219 81.2503 118.438 81.3734 118.643L81.0487 118.834ZM92.6029 118.479L92.2679 118.312C92.3773 118.096 92.473 117.874 92.5516 117.648L92.9003 117.775C92.8114 118.011 92.7122 118.25 92.596 118.479H92.6029ZM80.5632 117.802C80.4778 117.566 80.4026 117.32 80.3411 117.071L80.7034 116.985C80.7615 117.214 80.8299 117.447 80.9119 117.676L80.5632 117.802ZM93.0233 117.419L92.6678 117.313C92.7362 117.081 92.7909 116.848 92.8319 116.609L93.1977 116.674C93.1532 116.924 93.0951 117.177 93.0233 117.419ZM80.2693 116.695C80.2248 116.445 80.1941 116.192 80.177 115.936L80.553 115.915C80.5667 116.154 80.5974 116.39 80.635 116.626L80.2693 116.691V116.695ZM93.2523 116.295L92.8832 116.25C92.9105 116.014 92.9208 115.772 92.9242 115.532L93.3002 115.502V115.532C93.3002 115.785 93.2865 116.042 93.2558 116.295H93.2523ZM80.1667 115.556V115.546C80.1667 115.296 80.1804 115.043 80.2077 114.797L80.5804 114.838C80.5564 115.071 80.5427 115.307 80.5427 115.543L80.1701 115.553L80.1667 115.556ZM92.9105 115.15C92.8968 114.91 92.8661 114.674 92.825 114.435L93.1908 114.37C93.2353 114.62 93.266 114.876 93.2831 115.126L92.9105 115.15ZM80.6282 114.48L80.2624 114.415C80.3069 114.162 80.3616 113.915 80.4333 113.673L80.7889 113.775C80.7205 114.004 80.6692 114.24 80.6248 114.476L80.6282 114.48ZM92.7498 114.083C92.6917 113.847 92.6268 113.618 92.5413 113.392L92.89 113.263C92.9789 113.502 93.0541 113.748 93.1122 113.994L92.7498 114.083ZM80.9017 113.437L80.553 113.31C80.6385 113.075 80.7376 112.839 80.8538 112.61L81.1888 112.774C81.0794 112.989 80.9871 113.211 80.9017 113.437ZM92.408 113.057C92.3123 112.835 92.2029 112.62 92.0798 112.415L92.4012 112.223C92.5311 112.442 92.6439 112.671 92.7498 112.9L92.408 113.051V113.057ZM81.3563 112.459L81.0316 112.275C81.158 112.052 81.3016 111.837 81.4486 111.639L81.7494 111.861C81.6059 112.052 81.4725 112.257 81.3529 112.463L81.3563 112.459ZM91.8918 112.111C91.7585 111.912 91.6149 111.721 91.4611 111.54L91.7448 111.297C91.9089 111.488 92.0628 111.697 92.2029 111.905L91.8918 112.111ZM81.975 111.574L81.6879 111.331C81.852 111.133 82.0263 110.948 82.2109 110.777L82.4673 111.047C82.2964 111.212 82.1289 111.389 81.975 111.574ZM91.2184 111.27C91.0543 111.099 90.8766 110.935 90.692 110.781L90.9313 110.494C91.1261 110.658 91.3141 110.832 91.4885 111.017L91.2184 111.273V111.27ZM82.7339 110.808L82.4946 110.521C82.6895 110.357 82.8912 110.203 83.1031 110.066L83.3116 110.377C83.1134 110.507 82.9185 110.654 82.7339 110.808ZM90.4083 110.555C90.2134 110.415 90.0117 110.282 89.8066 110.166L89.9912 109.841C90.2066 109.964 90.4253 110.104 90.6304 110.258L90.4083 110.559V110.555ZM83.6159 110.186L83.4279 109.861C83.6432 109.735 83.8723 109.619 84.1047 109.519L84.2551 109.861C84.0329 109.957 83.8176 110.07 83.6125 110.189L83.6159 110.186ZM89.4853 109.991C89.2733 109.885 89.0477 109.786 88.8221 109.707L88.952 109.355C89.1913 109.444 89.4272 109.543 89.6562 109.656L89.4887 109.991H89.4853ZM84.5901 109.728L84.4602 109.376C84.6961 109.287 84.9456 109.212 85.1918 109.157L85.2772 109.519C85.0448 109.574 84.8157 109.642 84.5867 109.728H84.5901ZM88.4837 109.598C88.2547 109.53 88.0188 109.475 87.7829 109.437L87.8445 109.068C88.094 109.113 88.347 109.171 88.5862 109.239L88.4837 109.598ZM85.6327 109.448L85.5678 109.075C85.8173 109.031 86.0703 109.003 86.3233 108.986L86.3472 109.359C86.1079 109.372 85.8652 109.403 85.6327 109.448ZM87.424 109.383C87.1984 109.359 86.9625 109.345 86.7266 109.345L86.7027 108.972H86.7232C86.9727 108.972 87.2189 108.986 87.465 109.013L87.4206 109.383H87.424Z" fill="#032E33"/>
<path d="M86.7334 120.612C86.4702 120.612 86.207 120.595 85.9506 120.55L86.0087 120.181C86.248 120.219 86.4907 120.239 86.7334 120.239H86.7847L86.795 120.612H86.7334ZM87.1846 120.595L87.1539 120.219C87.3932 120.195 87.6359 120.157 87.8717 120.096L87.9606 120.461C87.7077 120.523 87.4444 120.564 87.1846 120.591V120.595ZM85.5643 120.472C85.3148 120.414 85.0584 120.335 84.8191 120.236L84.9627 119.887C85.1849 119.979 85.4208 120.055 85.6532 120.109L85.5678 120.472H85.5643ZM88.3367 120.352L88.217 120C88.4426 119.921 88.6717 119.826 88.887 119.713L89.0614 120.048C88.8255 120.171 88.5862 120.27 88.3367 120.352ZM84.4602 120.072C84.2312 119.955 84.0021 119.822 83.7868 119.668L84.0055 119.364C84.2038 119.508 84.4123 119.634 84.6277 119.744L84.4602 120.072ZM89.3998 119.85L89.2015 119.535C89.4032 119.405 89.6015 119.265 89.7861 119.108L90.0288 119.388C89.8271 119.559 89.6151 119.713 89.3964 119.85H89.3998ZM83.4757 119.429C83.2774 119.258 83.086 119.077 82.9185 118.879L83.1954 118.633C83.356 118.814 83.5304 118.985 83.715 119.142L83.4757 119.429ZM90.3193 119.121L90.0561 118.858C90.227 118.687 90.3843 118.503 90.5279 118.308L90.8321 118.527C90.6748 118.735 90.5074 118.937 90.3228 119.121H90.3193ZM82.669 118.575C82.5117 118.366 82.3716 118.144 82.2485 117.911L82.5767 117.737C82.6895 117.952 82.8194 118.157 82.9664 118.349L82.669 118.571V118.575ZM91.0475 118.202L90.7295 118.004C90.8526 117.799 90.9654 117.58 91.0611 117.358L91.403 117.501C91.3038 117.744 91.1808 117.976 91.044 118.198L91.0475 118.202ZM82.0776 117.556C81.975 117.313 81.8861 117.067 81.8212 116.817L82.1835 116.725C82.2417 116.954 82.3237 117.187 82.4194 117.409L82.0776 117.556ZM91.5465 117.132L91.191 117.012C91.2662 116.787 91.3278 116.551 91.3654 116.311L91.7346 116.373C91.6901 116.629 91.6251 116.886 91.5431 117.135L91.5465 117.132ZM81.7391 116.435C81.6913 116.175 81.6674 115.915 81.6605 115.652L82.0365 115.645C82.04 115.884 82.0639 116.127 82.1083 116.37L81.7426 116.435H81.7391ZM91.7824 115.98L91.4098 115.949C91.4201 115.812 91.4269 115.676 91.4269 115.539C91.4269 115.436 91.4235 115.33 91.4166 115.224L91.7892 115.201C91.7961 115.31 91.7995 115.423 91.7995 115.536C91.7995 115.686 91.7927 115.833 91.7824 115.98ZM82.04 115.282L81.6674 115.262C81.681 115.002 81.7152 114.739 81.7699 114.483L82.1323 114.561C82.081 114.797 82.0502 115.04 82.0365 115.282H82.04ZM91.3825 114.862C91.3449 114.623 91.2936 114.387 91.2218 114.151L91.5773 114.042C91.6559 114.291 91.7106 114.551 91.7482 114.807L91.379 114.862H91.3825ZM82.2211 114.209L81.8622 114.1C81.9374 113.847 82.0331 113.601 82.1459 113.368L82.4809 113.532C82.3784 113.748 82.2895 113.977 82.2211 114.209ZM91.0987 113.809C91.0098 113.587 90.9039 113.368 90.7808 113.16L91.0987 112.968C91.232 113.197 91.3483 113.43 91.444 113.672L91.0987 113.809ZM82.6519 113.204L82.3271 113.02C82.457 112.794 82.6074 112.575 82.7681 112.374L83.0587 112.606C82.9082 112.797 82.7749 112.996 82.6484 113.204H82.6519ZM90.5825 112.849C90.4458 112.654 90.292 112.462 90.1211 112.291L90.3911 112.035C90.5723 112.223 90.7398 112.425 90.8868 112.64L90.5791 112.852L90.5825 112.849ZM83.3014 112.329L83.0279 112.073C83.2056 111.881 83.4039 111.703 83.6056 111.543L83.8346 111.837C83.6432 111.984 83.4654 112.151 83.2979 112.326L83.3014 112.329ZM89.8613 112.039C89.6801 111.874 89.4852 111.728 89.2836 111.594L89.4852 111.28C89.7006 111.423 89.9126 111.584 90.1108 111.755L89.8613 112.035V112.039ZM84.132 111.625L83.9269 111.317C84.1423 111.17 84.3713 111.04 84.6106 110.934L84.7679 111.276C84.5525 111.379 84.3371 111.495 84.1354 111.628L84.132 111.625ZM88.9691 111.406C88.7571 111.293 88.5349 111.194 88.3059 111.112L88.4324 110.76C88.6785 110.849 88.9212 110.955 89.1502 111.081L88.9725 111.403L88.9691 111.406ZM85.0994 111.129L84.9695 110.78C85.2122 110.692 85.4652 110.616 85.725 110.565L85.8002 110.934C85.5643 110.982 85.325 111.044 85.0994 111.133V111.129ZM87.9606 111.003C87.7282 110.938 87.4855 110.893 87.2428 110.869L87.2872 110.497C87.547 110.528 87.8068 110.572 88.0598 110.644L87.9641 111.003H87.9606ZM86.1557 110.876L86.1113 110.507C86.3677 110.473 86.6343 110.463 86.8941 110.47L86.8804 110.842C86.6446 110.832 86.3984 110.846 86.1523 110.876H86.1557Z" fill="#032E33"/>
<path d="M86.7374 119.118C86.4674 119.118 86.2076 119.088 85.9512 119.036L86.0333 118.67C86.2623 118.722 86.4948 118.746 86.734 118.746L86.7614 118.999L86.7409 119.118H86.7374ZM87.1682 119.094L87.1203 118.722C87.3562 118.691 87.5852 118.64 87.8074 118.558L87.9305 118.91C87.6844 118.999 87.428 119.06 87.1682 119.094ZM85.5718 118.927C85.3257 118.845 85.0864 118.729 84.8607 118.592L85.0556 118.271C85.2573 118.394 85.4726 118.496 85.6914 118.575L85.5684 118.927H85.5718ZM88.2928 118.756L88.1287 118.424C88.3373 118.318 88.5389 118.195 88.7235 118.048L88.956 118.339C88.7475 118.503 88.5253 118.643 88.2928 118.756ZM84.5394 118.366C84.3343 118.206 84.1429 118.024 83.9754 117.819L84.2625 117.584C84.4129 117.768 84.5839 117.925 84.7685 118.072L84.5394 118.37V118.366ZM89.2534 118.076L88.9902 117.813C89.1577 117.648 89.3081 117.464 89.4346 117.262L89.7457 117.467C89.6055 117.686 89.4414 117.891 89.2534 118.079V118.076ZM83.7395 117.501C83.5959 117.283 83.4763 117.047 83.3806 116.801L83.7293 116.671C83.8113 116.886 83.9207 117.098 84.0506 117.293L83.7395 117.498V117.501ZM89.9371 117.122L89.6021 116.958C89.7046 116.746 89.7867 116.524 89.8414 116.298L90.2037 116.387C90.1422 116.643 90.0533 116.89 89.9337 117.122H89.9371ZM83.2678 116.428C83.2028 116.172 83.1652 115.912 83.155 115.649L83.531 115.638C83.5378 115.867 83.5686 116.107 83.6301 116.336L83.2678 116.428ZM90.2823 115.994L89.9132 115.949C89.9302 115.813 89.9371 115.676 89.9405 115.536C89.9405 115.44 89.9337 115.344 89.9268 115.245L90.2994 115.208C90.3097 115.317 90.3131 115.423 90.3131 115.536C90.3131 115.69 90.3028 115.847 90.2857 115.994H90.2823ZM83.5344 115.286L83.1618 115.256C83.1857 114.992 83.2336 114.732 83.3122 114.483L83.6677 114.592C83.5994 114.815 83.5549 115.047 83.5378 115.283L83.5344 115.286ZM89.8721 114.893C89.8243 114.664 89.7525 114.442 89.6568 114.227L89.9986 114.076C90.108 114.315 90.19 114.565 90.2413 114.821L89.8756 114.893H89.8721ZM83.7908 114.261L83.4489 114.11C83.5515 113.871 83.6848 113.642 83.8421 113.427L84.1429 113.649C84.0062 113.837 83.8865 114.042 83.7942 114.257L83.7908 114.261ZM89.4927 113.915C89.373 113.71 89.2295 113.522 89.0688 113.351L89.3389 113.099C89.52 113.29 89.6773 113.502 89.8106 113.728L89.4859 113.919L89.4927 113.915ZM84.3651 113.379L84.0882 113.129C84.2659 112.931 84.4642 112.76 84.6796 112.61L84.8949 112.917C84.7035 113.051 84.5257 113.208 84.3651 113.379ZM88.8158 113.109C88.6381 112.955 88.4432 112.818 88.2347 112.709L88.4125 112.381C88.6415 112.504 88.8603 112.654 89.062 112.825L88.8193 113.109H88.8158ZM85.1923 112.729L85.0112 112.401C85.2402 112.275 85.4829 112.172 85.7393 112.1L85.8418 112.463C85.6162 112.528 85.3974 112.617 85.1923 112.729ZM87.9168 112.562C87.698 112.476 87.469 112.411 87.2365 112.374L87.2946 112.005C87.5579 112.042 87.8108 112.114 88.0501 112.21L87.9134 112.558L87.9168 112.562ZM86.1871 112.384L86.1221 112.015C86.3785 111.971 86.6486 111.953 86.905 111.964L86.8845 112.34C86.6588 112.329 86.4161 112.343 86.1837 112.384H86.1871Z" fill="#032E33"/>
<path d="M86.7538 117.624H86.7299C86.4633 117.624 86.2035 117.573 85.9574 117.474L86.0941 117.129C86.2992 117.211 86.5111 117.252 86.7333 117.252L86.7538 117.624ZM87.1504 117.58L87.0786 117.214C87.2905 117.17 87.4888 117.091 87.6734 116.968L87.8785 117.279C87.6563 117.43 87.4136 117.529 87.1504 117.583V117.58ZM85.6052 117.293C85.3831 117.149 85.1916 116.968 85.0344 116.749L85.3386 116.531C85.4685 116.708 85.6258 116.859 85.8104 116.982L85.6087 117.293H85.6052ZM88.1862 117.03L87.9229 116.76C88.0802 116.609 88.2067 116.431 88.2921 116.23L88.634 116.38C88.5246 116.623 88.3742 116.842 88.1827 117.026L88.1862 117.03ZM84.8361 116.411C84.7233 116.168 84.6618 115.915 84.6481 115.645L85.0207 115.628C85.031 115.843 85.0857 116.055 85.1779 116.254L84.8395 116.411H84.8361ZM88.7604 116.007L88.3981 115.922C88.4289 115.799 88.4425 115.672 88.4425 115.539C88.4425 115.454 88.4357 115.365 88.4254 115.279L88.7946 115.225C88.8083 115.327 88.8151 115.433 88.8186 115.539C88.8186 115.7 88.8015 115.861 88.7604 116.011V116.007ZM85.0344 115.303L84.6652 115.252C84.7028 114.989 84.7883 114.739 84.9216 114.51L85.2463 114.695C85.1369 114.886 85.0652 115.091 85.0378 115.303H85.0344ZM88.3434 114.965C88.2682 114.76 88.1588 114.572 88.0118 114.408L88.2955 114.162C88.4699 114.363 88.6066 114.592 88.6921 114.838L88.3434 114.965ZM85.4309 114.425L85.1472 114.182C85.3215 113.977 85.5301 113.813 85.7625 113.69L85.9368 114.021C85.7454 114.121 85.5711 114.257 85.4309 114.425ZM87.7794 114.185C87.6084 114.049 87.4136 113.953 87.2017 113.892L87.3042 113.536C87.5606 113.604 87.7965 113.727 88.0084 113.892L87.7794 114.185ZM86.2377 113.895L86.1317 113.54C86.3847 113.464 86.6479 113.44 86.9145 113.464L86.8803 113.833C86.6684 113.816 86.4462 113.833 86.2377 113.898V113.895Z" fill="#032E33"/>
<path d="M87.5511 108.521H87.5442C87.2947 108.521 87.0417 108.504 86.7888 108.48L86.8298 108.107C87.0657 108.135 87.3049 108.149 87.5442 108.149L87.5511 108.521ZM87.9305 108.511L87.9066 108.138C88.1459 108.125 88.3886 108.094 88.621 108.056L88.686 108.422C88.4364 108.47 88.1835 108.497 87.9305 108.511ZM86.4093 108.425C86.1598 108.381 85.9137 108.323 85.6675 108.251L85.7735 107.892C86.0025 107.961 86.2418 108.019 86.4743 108.06L86.4093 108.425ZM89.062 108.343L88.9765 107.981C89.209 107.926 89.4414 107.858 89.6636 107.776L89.7935 108.125C89.5542 108.213 89.3115 108.289 89.062 108.343ZM85.3052 108.131C85.0659 108.046 84.83 107.943 84.6044 107.827L84.7685 107.492C84.9804 107.602 85.2026 107.697 85.4282 107.776L85.3018 108.128L85.3052 108.131ZM90.1491 107.984L89.9986 107.643C90.2174 107.547 90.4362 107.437 90.6413 107.318L90.8293 107.639C90.6071 107.769 90.3781 107.882 90.1456 107.984H90.1491ZM84.266 107.646C84.0438 107.519 83.8284 107.379 83.6267 107.226L83.8489 106.928C84.0404 107.068 84.2386 107.205 84.4506 107.318L84.266 107.639V107.646ZM91.1506 107.441L90.9489 107.126C91.1472 106.993 91.3421 106.85 91.5232 106.696L91.766 106.983C91.5711 107.147 91.366 107.301 91.1541 107.441H91.1506ZM83.3259 106.993C83.1311 106.829 82.9465 106.655 82.7687 106.47L83.0388 106.214C83.2029 106.388 83.3772 106.552 83.5618 106.709L83.3225 106.997L83.3259 106.993ZM92.0497 106.726L91.7933 106.456C91.9676 106.292 92.1351 106.118 92.289 105.933L92.5761 106.169C92.412 106.368 92.2377 106.552 92.0531 106.726H92.0497ZM82.5158 106.186C82.3517 105.991 82.1978 105.786 82.0577 105.574L82.3688 105.366C82.5055 105.568 82.6457 105.762 82.7995 105.944L82.5158 106.186ZM92.8086 105.872L92.5112 105.65C92.6547 105.458 92.7881 105.256 92.9043 105.048L93.229 105.233C93.106 105.451 92.9624 105.67 92.8086 105.872ZM81.8594 105.253C81.7295 105.031 81.6167 104.802 81.5176 104.569L81.8594 104.419C81.9517 104.641 82.0611 104.857 82.1842 105.065L81.8594 105.253ZM93.4102 104.898L93.0752 104.727C93.1846 104.511 93.2769 104.289 93.3623 104.064L93.711 104.193C93.6256 104.429 93.523 104.665 93.4102 104.894V104.898ZM81.374 104.217C81.2851 103.982 81.2134 103.735 81.1518 103.486L81.5142 103.4C81.5689 103.633 81.6406 103.862 81.7227 104.091L81.374 104.221V104.217ZM93.8307 103.831L93.4752 103.725C93.5435 103.5 93.5982 103.264 93.6392 103.024L94.0084 103.089C93.964 103.342 93.9059 103.592 93.8341 103.831H93.8307ZM81.0732 103.113C81.0288 102.867 81.0014 102.611 80.9843 102.358L81.3569 102.334C81.374 102.573 81.4014 102.816 81.439 103.052L81.0698 103.117L81.0732 103.113ZM94.0597 102.713L93.6905 102.672C93.7213 102.433 93.735 102.19 93.7315 101.951L94.1041 101.92V101.951C94.1041 102.2 94.0905 102.46 94.0597 102.713ZM80.9741 101.971V101.958C80.9741 101.708 80.9877 101.455 81.0151 101.209L81.3843 101.254C81.3569 101.483 81.3467 101.718 81.3467 101.958L80.9741 101.971ZM93.7179 101.561C93.7042 101.325 93.6734 101.086 93.6324 100.85L94.0016 100.782C94.0494 101.031 94.0768 101.288 94.0905 101.541L93.7179 101.561ZM81.439 100.895L81.0698 100.837C81.1142 100.58 81.1723 100.334 81.2407 100.091L81.5962 100.194C81.5278 100.423 81.4766 100.655 81.4356 100.895H81.439ZM93.5606 100.495C93.5025 100.262 93.4307 100.033 93.3487 99.8042L93.6974 99.6744C93.7862 99.9136 93.8614 100.16 93.9195 100.406L93.5572 100.495H93.5606ZM81.7124 99.8555L81.3638 99.7289C81.4492 99.4897 81.5518 99.2539 81.6646 99.0249L81.9996 99.189C81.8936 99.4043 81.7979 99.6265 81.7158 99.8521L81.7124 99.8555ZM93.2153 99.4726C93.1196 99.2538 93.0103 99.035 92.8838 98.8299L93.2085 98.6385C93.3384 98.8573 93.4546 99.0863 93.5538 99.3222L93.2153 99.4726ZM82.1671 98.8779L81.8423 98.6899C81.9688 98.4711 82.109 98.2557 82.2594 98.054L82.5602 98.2761C82.4166 98.4641 82.2833 98.6659 82.1671 98.8779ZM92.6992 98.5325C92.5659 98.3274 92.4189 98.1394 92.265 97.9548L92.5488 97.7156C92.7128 97.9071 92.8667 98.1121 93.0068 98.324L92.6958 98.5325H92.6992ZM82.7824 97.989L82.4987 97.7463C82.6628 97.5549 82.8371 97.3635 83.0183 97.1892L83.2747 97.4593C83.1037 97.6233 82.9362 97.8011 82.7824 97.9857V97.989ZM92.0223 97.6848C91.8582 97.5138 91.6839 97.3498 91.4993 97.1925L91.7386 96.9088C91.9369 97.0694 92.1215 97.2472 92.2958 97.4284L92.0258 97.6848H92.0223ZM83.5413 97.2267L83.2986 96.943C83.4934 96.7789 83.6985 96.6251 83.9071 96.4883L84.1156 96.7994C83.9173 96.9328 83.7225 97.0763 83.5379 97.2336L83.5413 97.2267ZM91.219 96.9739C91.0242 96.8303 90.8225 96.6968 90.6174 96.5806L90.802 96.256C91.0207 96.3825 91.2395 96.5259 91.4412 96.6729L91.219 96.9739ZM84.4267 96.6012L84.2352 96.2798C84.454 96.1534 84.683 96.0371 84.9155 95.9312L85.0659 96.2765C84.8471 96.3722 84.6318 96.485 84.4267 96.5978V96.6012ZM90.296 96.4029C90.0807 96.3003 89.8585 96.2047 89.6329 96.1261L89.7594 95.7706C89.9986 95.8561 90.2345 95.9586 90.4635 96.0714L90.296 96.4029ZM85.3975 96.1431L85.2676 95.7911C85.5034 95.7022 85.7496 95.6269 85.9957 95.5688L86.0846 95.9312C85.8521 95.9893 85.6197 96.0611 85.394 96.1431H85.3975ZM89.291 96.0133C89.062 95.9449 88.8261 95.8936 88.5903 95.8525L88.6518 95.4833C88.9013 95.5278 89.1543 95.586 89.3936 95.6578L89.2876 96.0133H89.291ZM86.4401 95.8629L86.3751 95.4937C86.6213 95.4492 86.8776 95.4184 87.1306 95.4047L87.1545 95.7739C86.9152 95.791 86.6725 95.8184 86.4401 95.8594V95.8629ZM88.2313 95.8013C88.0057 95.774 87.7698 95.7602 87.534 95.7602L87.5135 95.3877H87.534C87.7835 95.3877 88.0297 95.4013 88.2724 95.4253L88.2279 95.7978L88.2313 95.8013Z" fill="#032E33"/>
<path d="M87.5401 107.024C87.2769 107.024 87.0136 107.007 86.7573 106.966L86.8154 106.597C87.0512 106.638 87.2974 106.655 87.5401 106.655H87.5913L87.5982 107.024H87.5401ZM87.9913 107.007L87.9571 106.638C88.1998 106.614 88.4391 106.573 88.675 106.521L88.7673 106.88C88.5109 106.945 88.2511 106.986 87.9913 107.01V107.007ZM86.3744 106.894C86.118 106.836 85.8685 106.75 85.6258 106.651L85.7693 106.309C85.995 106.398 86.2274 106.477 86.4633 106.532L86.3778 106.898L86.3744 106.894ZM89.1433 106.768L89.0271 106.412C89.2561 106.337 89.4783 106.241 89.6937 106.128L89.868 106.457C89.6356 106.58 89.3929 106.686 89.1433 106.768ZM85.2668 106.491C85.0378 106.375 84.8088 106.238 84.5934 106.084L84.8088 105.78C85.007 105.92 85.219 106.05 85.4309 106.152L85.2634 106.487L85.2668 106.491ZM90.2064 106.269L90.0082 105.951C90.2098 105.824 90.4115 105.681 90.5927 105.52L90.8354 105.807C90.6372 105.978 90.4218 106.135 90.203 106.269H90.2064ZM84.2858 105.845C84.0875 105.677 83.8995 105.493 83.7286 105.294L84.0089 105.052C84.1661 105.233 84.3439 105.4 84.5285 105.558L84.2858 105.845ZM91.1226 105.537L90.8593 105.274C91.0303 105.103 91.1909 104.918 91.3311 104.723L91.6353 104.942C91.4781 105.151 91.3106 105.356 91.126 105.537H91.1226ZM83.4756 104.994C83.3183 104.785 83.1782 104.563 83.0551 104.33L83.3867 104.153C83.4995 104.368 83.6328 104.577 83.7764 104.765L83.4756 104.99V104.994ZM91.8541 104.614L91.5396 104.416C91.6627 104.211 91.7755 103.995 91.8712 103.773L92.213 103.917C92.1105 104.159 91.9908 104.395 91.8541 104.614ZM82.8842 103.978C82.7817 103.735 82.6928 103.486 82.6278 103.236L82.9902 103.141C83.0517 103.377 83.1303 103.602 83.2261 103.828L82.8842 103.978ZM92.3532 103.551L92.0011 103.435C92.0763 103.202 92.1378 102.966 92.172 102.727L92.5412 102.792C92.4968 103.048 92.4352 103.308 92.3532 103.554V103.551ZM82.5424 102.85C82.4979 102.594 82.474 102.331 82.4672 102.071L82.8432 102.061C82.8466 102.303 82.874 102.546 82.915 102.785L82.5458 102.85H82.5424ZM92.5891 102.399L92.2199 102.365C92.2301 102.228 92.2404 102.091 92.237 101.951C92.237 101.848 92.2335 101.739 92.2267 101.64L92.5959 101.613C92.6027 101.726 92.6061 101.842 92.6061 101.951C92.6061 102.101 92.5993 102.249 92.5856 102.396L92.5891 102.399ZM82.8466 101.698L82.4706 101.681C82.4877 101.421 82.5219 101.158 82.5731 100.905L82.9355 100.98C82.8842 101.216 82.8535 101.459 82.8398 101.698H82.8466ZM92.1891 101.278C92.1515 101.038 92.1002 100.803 92.025 100.567L92.3839 100.457C92.4591 100.71 92.5173 100.967 92.5549 101.223L92.1857 101.274L92.1891 101.278ZM83.0312 100.628L82.6757 100.519C82.7509 100.266 82.8432 100.023 82.956 99.7873L83.2944 99.9514C83.1919 100.163 83.103 100.396 83.0346 100.628H83.0312ZM91.9054 100.228C91.8199 100.006 91.7105 99.7838 91.5875 99.5719L91.9088 99.3806C92.0421 99.6096 92.1583 99.8453 92.254 100.085L91.9054 100.225V100.228ZM83.4585 99.6233L83.1338 99.4387C83.2637 99.2131 83.4141 98.9941 83.5781 98.789L83.8687 99.0251C83.7183 99.2131 83.5782 99.4148 83.4585 99.6233ZM91.3892 99.2677C91.249 99.0695 91.0986 98.8813 90.9277 98.7036L91.1978 98.4472C91.3789 98.6352 91.5464 98.8403 91.6934 99.0523L91.3858 99.2677H91.3892ZM84.108 98.7481L83.8345 98.4918C84.0123 98.3003 84.2071 98.1225 84.4122 97.9618L84.6413 98.2559C84.4499 98.4029 84.2721 98.5704 84.108 98.7481ZM90.6645 98.454C90.4833 98.29 90.2885 98.143 90.0868 98.0097L90.2885 97.6953C90.5038 97.832 90.7158 97.9995 90.9106 98.1705L90.6611 98.4507L90.6645 98.454ZM84.9387 98.0439L84.7301 97.7328C84.9489 97.5892 85.1814 97.4593 85.4138 97.3499L85.5711 97.6884C85.3523 97.791 85.1404 97.9106 84.9353 98.0439H84.9387ZM89.7791 97.8286C89.5638 97.7124 89.3416 97.6131 89.116 97.5277L89.239 97.1825C89.4851 97.268 89.7279 97.3774 89.9569 97.5005L89.7791 97.8286ZM85.9061 97.5482L85.7762 97.1962C86.0189 97.1073 86.2718 97.0321 86.5316 96.9809L86.6069 97.3466C86.371 97.3944 86.1351 97.4627 85.9061 97.5482ZM88.7673 97.4217C88.5348 97.3567 88.2921 97.3123 88.0528 97.285L88.0973 96.9158C88.3605 96.9431 88.6169 96.9945 88.8698 97.0595L88.7707 97.4217H88.7673ZM86.9624 97.2953L86.9179 96.9226C87.1777 96.8884 87.4444 96.8782 87.7007 96.8851L87.6905 97.2611C87.4546 97.2509 87.2051 97.2646 86.9624 97.2953Z" fill="#032E33"/>
<path d="M87.5439 105.534C87.2738 105.534 87.014 105.506 86.7576 105.448L86.8363 105.082C87.0653 105.134 87.3012 105.161 87.5405 105.161L87.5678 105.411L87.5473 105.53L87.5439 105.534ZM87.9746 105.506L87.9302 105.137C88.1626 105.106 88.3917 105.055 88.6139 104.976L88.7369 105.325C88.4908 105.414 88.2344 105.476 87.9746 105.506ZM86.3782 105.346C86.1321 105.257 85.8928 105.147 85.6672 105.011L85.8586 104.693C86.0603 104.816 86.2757 104.915 86.4979 104.994L86.3748 105.349L86.3782 105.346ZM89.1061 105.171L88.942 104.836C89.1505 104.734 89.3522 104.607 89.5368 104.46L89.7658 104.754C89.5607 104.918 89.3351 105.059 89.1027 105.171H89.1061ZM85.3459 104.785C85.1408 104.621 84.9493 104.44 84.7818 104.235L85.069 103.995C85.2194 104.173 85.3903 104.337 85.5783 104.484L85.3459 104.782V104.785ZM90.0598 104.491L89.7966 104.228C89.9641 104.064 90.1145 103.879 90.241 103.677L90.5555 103.883C90.4119 104.101 90.2478 104.31 90.0632 104.491H90.0598ZM84.5459 103.92C84.4024 103.701 84.2827 103.465 84.1904 103.223L84.5357 103.089C84.6211 103.308 84.7305 103.52 84.8604 103.712L84.5459 103.917V103.92ZM90.7469 103.541L90.4153 103.377C90.5179 103.161 90.5999 102.939 90.6546 102.714L91.017 102.802C90.952 103.059 90.8632 103.305 90.7469 103.541ZM84.0742 102.843C84.0093 102.587 83.9717 102.327 83.9648 102.067L84.3374 102.057C84.3443 102.29 84.3784 102.522 84.4366 102.751L84.0742 102.843ZM91.0888 102.413L90.7196 102.365C90.7367 102.232 90.7469 102.091 90.7469 101.951C90.7469 101.855 90.7435 101.753 90.7332 101.661L91.1024 101.626C91.1127 101.736 91.1195 101.845 91.1195 101.951C91.1195 102.108 91.1093 102.259 91.0888 102.413ZM84.3408 101.702L83.9717 101.671C83.9922 101.408 84.04 101.148 84.1186 100.902L84.4742 101.011C84.4058 101.233 84.3613 101.466 84.3443 101.702H84.3408ZM90.6786 101.312C90.6307 101.083 90.5589 100.857 90.4632 100.642L90.805 100.488C90.911 100.731 90.9931 100.98 91.0477 101.233L90.682 101.308L90.6786 101.312ZM84.5972 100.68L84.2554 100.529C84.3614 100.29 84.4912 100.061 84.6485 99.8455L84.9493 100.064C84.8092 100.256 84.6929 100.461 84.6006 100.676L84.5972 100.68ZM90.2991 100.327C90.1829 100.129 90.0393 99.9378 89.8786 99.7669L90.1487 99.5105C90.3299 99.7053 90.4871 99.9139 90.6204 100.136L90.2957 100.327H90.2991ZM85.1715 99.7976L84.8946 99.548C85.0724 99.3532 85.2706 99.1788 85.486 99.0284L85.7014 99.3327C85.5099 99.4694 85.3322 99.6232 85.1715 99.7976ZM89.6257 99.5242C89.4479 99.3703 89.2497 99.2335 89.0446 99.1276L89.2189 98.7959C89.4513 98.919 89.6667 99.0661 89.8684 99.2404L89.6257 99.5242ZM85.9988 99.1446L85.821 98.82C86.05 98.6935 86.2927 98.5944 86.5457 98.5192L86.6483 98.8745C86.4227 98.9395 86.2039 99.0318 85.9988 99.1446ZM88.7232 98.9737C88.5044 98.8882 88.2754 98.8268 88.043 98.7857L88.1011 98.42C88.3609 98.461 88.6173 98.5294 88.86 98.6285L88.7232 98.9737ZM86.9935 98.7926L86.9286 98.4234C87.1849 98.3823 87.455 98.3652 87.7114 98.3755L87.6943 98.7482C87.4653 98.7379 87.2225 98.7516 86.9935 98.7926Z" fill="#032E33"/>
<path d="M87.5605 104.04H87.54C87.2733 104.04 87.0101 103.989 86.764 103.889L86.9042 103.544C87.1058 103.626 87.3212 103.667 87.54 103.667L87.5639 104.036L87.5605 104.04ZM87.957 103.999L87.8852 103.636C88.0972 103.592 88.2954 103.51 88.48 103.387L88.6851 103.701C88.4629 103.845 88.2202 103.947 87.957 104.002V103.999ZM86.4119 103.712C86.1931 103.568 85.9983 103.384 85.841 103.172L86.1453 102.953C86.2752 103.131 86.429 103.281 86.6136 103.397L86.4085 103.715L86.4119 103.712ZM88.9928 103.448L88.7296 103.182C88.8868 103.028 89.0133 102.85 89.0988 102.652L89.4406 102.802C89.3312 103.045 89.1808 103.264 88.9894 103.448H88.9928ZM85.6428 102.826C85.5334 102.587 85.4684 102.331 85.4547 102.064L85.8274 102.04C85.8376 102.262 85.8889 102.474 85.9812 102.673L85.6393 102.826H85.6428ZM89.5671 102.43L89.2047 102.344C89.2355 102.221 89.2492 102.088 89.2492 101.955C89.2492 101.869 89.2458 101.78 89.2321 101.698L89.6013 101.647C89.6184 101.75 89.6252 101.855 89.6252 101.961C89.6252 102.119 89.6081 102.279 89.5705 102.437L89.5671 102.43ZM85.841 101.719L85.4719 101.668C85.5095 101.404 85.5949 101.151 85.7282 100.919L86.053 101.11C85.9436 101.298 85.8718 101.503 85.8444 101.722L85.841 101.719ZM89.15 101.384C89.0782 101.179 88.9655 100.987 88.8219 100.827L89.1022 100.58C89.2799 100.782 89.4133 101.008 89.5021 101.257L89.1535 101.384H89.15ZM86.2376 100.84L85.9538 100.597C86.1282 100.396 86.3333 100.232 86.5691 100.109L86.7401 100.44C86.5486 100.539 86.3777 100.676 86.2341 100.844L86.2376 100.84ZM88.586 100.601C88.4117 100.468 88.2237 100.368 88.0083 100.304L88.1143 99.948C88.3706 100.02 88.6065 100.143 88.8185 100.304L88.5894 100.597L88.586 100.601ZM87.0443 100.317L86.9383 99.9583C87.1913 99.8831 87.4545 99.8557 87.7211 99.8762L87.687 100.249C87.475 100.228 87.2494 100.249 87.0443 100.314V100.317Z" fill="#032E33"/>
<path d="M98.8181 115.721H98.8078C98.5583 115.721 98.3053 115.704 98.0558 115.676L98.0968 115.307C98.3327 115.331 98.572 115.345 98.8078 115.345L98.8181 115.721ZM99.2009 115.707L99.177 115.334C99.4197 115.317 99.659 115.29 99.8949 115.249L99.9598 115.618C99.7103 115.663 99.4573 115.693 99.2009 115.707ZM97.6798 115.621C97.4302 115.577 97.1773 115.519 96.9345 115.447L97.0405 115.088C97.2695 115.156 97.5054 115.211 97.7447 115.252L97.6798 115.618V115.621ZM100.329 115.543L100.244 115.18C100.476 115.126 100.705 115.054 100.934 114.975L101.064 115.324C100.825 115.413 100.579 115.488 100.332 115.546L100.329 115.543ZM96.5688 115.327C96.3329 115.242 96.0936 115.143 95.868 115.027L96.0389 114.692C96.2509 114.798 96.4731 114.893 96.6987 114.975L96.5688 115.324V115.327ZM101.416 115.18L101.266 114.839C101.484 114.743 101.7 114.634 101.908 114.517L102.096 114.839C101.878 114.965 101.649 115.081 101.416 115.18ZM95.5364 114.849C95.3142 114.719 95.0989 114.579 94.9006 114.432L95.1228 114.128C95.3142 114.271 95.5193 114.401 95.7244 114.524L95.5398 114.845L95.5364 114.849ZM102.421 114.637L102.213 114.326C102.411 114.193 102.606 114.049 102.79 113.892L103.03 114.179C102.835 114.343 102.63 114.497 102.421 114.633V114.637ZM94.5964 114.189C94.4015 114.028 94.2135 113.854 94.0392 113.67L94.3092 113.413C94.4733 113.584 94.6511 113.748 94.8322 113.905L94.593 114.189H94.5964ZM103.317 113.926L103.06 113.656C103.231 113.492 103.399 113.317 103.553 113.133L103.84 113.372C103.676 113.567 103.498 113.751 103.317 113.929V113.926ZM93.7862 113.382C93.6221 113.188 93.4683 112.986 93.3281 112.774L93.6392 112.569C93.7759 112.77 93.9195 112.962 94.0733 113.146L93.7896 113.386L93.7862 113.382ZM104.079 113.071L103.778 112.849C103.922 112.654 104.055 112.453 104.175 112.251L104.496 112.436C104.373 112.658 104.229 112.866 104.079 113.071ZM93.1264 112.449C92.9965 112.227 92.8838 111.998 92.7812 111.766L93.123 111.618C93.2188 111.837 93.3247 112.053 93.4478 112.258L93.123 112.449H93.1264ZM104.681 112.097L104.346 111.93C104.452 111.714 104.547 111.492 104.629 111.266L104.978 111.396C104.893 111.629 104.79 111.865 104.677 112.094L104.681 112.097ZM92.641 111.417C92.5522 111.181 92.4804 110.935 92.4189 110.685L92.7812 110.6C92.8359 110.829 92.9043 111.061 92.9863 111.29L92.6376 111.42L92.641 111.417ZM105.101 111.03L104.742 110.928C104.811 110.699 104.865 110.463 104.91 110.227L105.275 110.292C105.231 110.542 105.173 110.791 105.101 111.034V111.03ZM92.3436 110.309C92.2992 110.063 92.2684 109.807 92.2548 109.554L92.6274 109.537C92.6376 109.773 92.6718 110.015 92.7094 110.248L92.3402 110.313L92.3436 110.309ZM105.334 109.913L104.961 109.868C104.988 109.632 105.005 109.39 105.005 109.15L105.378 109.12V109.15C105.378 109.4 105.361 109.66 105.334 109.913ZM92.2411 109.171V109.161C92.2411 108.911 92.2548 108.658 92.2821 108.412L92.6513 108.456C92.624 108.689 92.6103 108.925 92.6137 109.161L92.2411 109.174V109.171ZM104.985 108.764C104.968 108.525 104.94 108.289 104.903 108.05L105.269 107.985C105.313 108.238 105.344 108.487 105.361 108.74L104.988 108.764H104.985ZM92.7026 108.098L92.3368 108.036C92.3812 107.78 92.4359 107.533 92.5077 107.291L92.8632 107.4C92.7983 107.622 92.7436 107.862 92.6991 108.098H92.7026ZM104.828 107.694C104.77 107.462 104.698 107.233 104.616 107.007L104.964 106.877C105.057 107.113 105.128 107.359 105.187 107.605L104.828 107.694ZM92.9795 107.055L92.6308 106.925C92.7197 106.689 92.8188 106.45 92.9316 106.221L93.2666 106.385C93.1606 106.6 93.0649 106.823 92.9829 107.052L92.9795 107.055ZM104.482 106.676C104.387 106.457 104.274 106.238 104.154 106.033L104.476 105.845C104.605 106.064 104.718 106.293 104.824 106.522L104.482 106.672V106.676ZM93.4307 106.074L93.1059 105.886C93.2324 105.664 93.3726 105.452 93.523 105.25L93.8204 105.472C93.6802 105.664 93.5469 105.865 93.4273 106.074H93.4307ZM103.966 105.729C103.833 105.53 103.689 105.335 103.532 105.154L103.819 104.912C103.983 105.103 104.137 105.312 104.277 105.52L103.966 105.729ZM94.0494 105.189L93.7623 104.946C93.9264 104.751 94.0973 104.563 94.2853 104.392L94.5417 104.662C94.3707 104.826 94.2032 105.004 94.0494 105.189ZM103.293 104.884C103.129 104.713 102.951 104.546 102.766 104.395L103.006 104.108C103.204 104.272 103.388 104.443 103.563 104.628L103.293 104.884ZM94.8117 104.423L94.569 104.139C94.7673 103.975 94.969 103.821 95.1775 103.681L95.386 103.992C95.1843 104.129 94.9929 104.272 94.8083 104.426L94.8117 104.423ZM102.483 104.17C102.291 104.026 102.086 103.893 101.884 103.777L102.069 103.455C102.288 103.579 102.503 103.719 102.708 103.872L102.486 104.173L102.483 104.17ZM95.6902 103.801L95.5022 103.479C95.721 103.353 95.9466 103.237 96.1825 103.137L96.3329 103.479C96.1107 103.575 95.8953 103.684 95.6902 103.804V103.801ZM101.56 103.606C101.351 103.503 101.126 103.404 100.896 103.325L101.023 102.973C101.259 103.059 101.498 103.161 101.727 103.274L101.56 103.609V103.606ZM96.6679 103.343L96.538 102.99C96.7739 102.905 97.02 102.83 97.2661 102.772L97.355 103.134C97.1191 103.189 96.8901 103.257 96.6645 103.343H96.6679ZM100.558 103.213C100.329 103.148 100.093 103.09 99.8573 103.052L99.9222 102.683C100.172 102.727 100.421 102.782 100.664 102.861L100.558 103.216V103.213ZM97.7071 103.059L97.6422 102.69C97.8917 102.645 98.1447 102.615 98.3976 102.601L98.4216 102.973C98.1823 102.99 97.943 103.018 97.7071 103.059ZM99.5018 103.001C99.2727 102.977 99.0403 102.963 98.8044 102.963L98.7805 102.587H98.801C99.0505 102.587 99.2967 102.604 99.5428 102.632L99.4983 103.001H99.5018Z" fill="#032E33"/>
<path d="M98.8072 114.227C98.544 114.227 98.2808 114.206 98.0244 114.165L98.0825 113.796C98.3183 113.834 98.5645 113.851 98.8072 113.851H98.8585L98.8653 114.223H98.8038L98.8072 114.227ZM99.2584 114.206L99.2277 113.83C99.4669 113.806 99.7062 113.769 99.9421 113.71L100.031 114.073C99.7746 114.134 99.5148 114.179 99.255 114.203L99.2584 114.206ZM97.6415 114.09C97.3886 114.032 97.139 113.953 96.8929 113.854L97.033 113.505C97.2552 113.598 97.4911 113.673 97.7236 113.727L97.6381 114.086L97.6415 114.09ZM100.41 113.963L100.294 113.611C100.523 113.536 100.749 113.44 100.964 113.324L101.135 113.659C100.906 113.779 100.66 113.881 100.41 113.963ZM96.5374 113.69C96.3015 113.574 96.0793 113.437 95.8674 113.283L96.0827 112.979C96.281 113.122 96.4895 113.246 96.7049 113.355L96.5374 113.69ZM101.474 113.464L101.275 113.146C101.477 113.02 101.679 112.876 101.863 112.716L102.106 112.999C101.908 113.17 101.696 113.328 101.474 113.461V113.464ZM95.5529 113.044C95.3546 112.88 95.1632 112.695 94.9923 112.494L95.2726 112.251C95.4332 112.429 95.6076 112.599 95.7956 112.76L95.5529 113.044ZM102.393 112.736L102.13 112.473C102.301 112.302 102.458 112.118 102.602 111.923L102.902 112.145C102.749 112.353 102.578 112.555 102.393 112.74V112.736ZM94.7461 112.189C94.5889 111.981 94.4487 111.758 94.3257 111.529L94.6573 111.352C94.7701 111.564 94.8999 111.772 95.0469 111.964L94.7495 112.189H94.7461ZM103.121 111.813L102.803 111.615C102.926 111.41 103.039 111.191 103.135 110.969L103.477 111.112C103.378 111.355 103.255 111.588 103.118 111.81L103.121 111.813ZM94.1547 111.171C94.0488 110.928 93.9599 110.682 93.8984 110.429L94.2607 110.336C94.3188 110.566 94.4009 110.798 94.4966 111.02L94.1547 111.171ZM103.62 110.747L103.265 110.63C103.34 110.401 103.402 110.166 103.439 109.923L103.808 109.984C103.764 110.241 103.702 110.497 103.617 110.747H103.62ZM93.8129 110.049C93.7685 109.793 93.7377 109.533 93.7343 109.27H94.1069C94.1137 109.506 94.1342 109.749 94.1752 109.988L93.8095 110.053L93.8129 110.049ZM103.86 109.598L103.487 109.567C103.497 109.431 103.504 109.29 103.507 109.157C103.507 109.048 103.501 108.942 103.497 108.839L103.87 108.815C103.88 108.928 103.88 109.038 103.88 109.154C103.88 109.304 103.873 109.451 103.86 109.598ZM94.1171 108.897L93.7445 108.877C93.7582 108.617 93.7924 108.354 93.8471 108.098L94.2129 108.173C94.1616 108.408 94.1308 108.651 94.1171 108.894V108.897ZM103.456 108.477C103.419 108.241 103.367 107.998 103.296 107.766L103.651 107.657C103.73 107.909 103.788 108.166 103.825 108.426L103.456 108.48V108.477ZM94.2983 107.824L93.9428 107.721C94.0146 107.465 94.1137 107.222 94.2231 106.987L94.5581 107.151C94.4556 107.366 94.3667 107.595 94.2983 107.827V107.824ZM103.176 107.424C103.087 107.202 102.981 106.98 102.855 106.775L103.176 106.58C103.313 106.809 103.425 107.045 103.518 107.287L103.172 107.424H103.176ZM94.729 106.826L94.4043 106.638C94.5342 106.412 94.6812 106.193 94.8487 105.988L95.1392 106.221C94.9888 106.412 94.8487 106.614 94.729 106.822V106.826ZM102.66 106.467C102.523 106.269 102.366 106.077 102.198 105.906L102.468 105.65C102.649 105.838 102.817 106.043 102.964 106.255L102.656 106.47L102.66 106.467ZM95.3751 105.944L95.1016 105.687C95.2794 105.496 95.4777 105.322 95.6794 105.158L95.9118 105.455C95.7204 105.602 95.5426 105.766 95.3785 105.944H95.3751ZM101.935 105.653C101.75 105.493 101.559 105.342 101.357 105.212L101.559 104.894C101.774 105.038 101.986 105.199 102.181 105.369L101.932 105.65L101.935 105.653ZM96.2058 105.24L95.9973 104.929C96.2126 104.785 96.4485 104.655 96.6809 104.546L96.8382 104.881C96.6228 104.983 96.4075 105.1 96.2058 105.236V105.24ZM101.046 105.024C100.831 104.908 100.609 104.809 100.383 104.727L100.51 104.375C100.756 104.464 100.998 104.573 101.227 104.696L101.05 105.024H101.046ZM97.1766 104.747L97.0467 104.399C97.2894 104.31 97.5458 104.238 97.8022 104.183L97.8774 104.549C97.6415 104.6 97.4056 104.665 97.1766 104.747ZM100.034 104.618C99.8019 104.553 99.5592 104.512 99.3165 104.484L99.361 104.112C99.6208 104.142 99.8772 104.194 100.13 104.259L100.034 104.618ZM98.2329 104.491L98.1884 104.122C98.4448 104.091 98.7115 104.077 98.9713 104.084L98.961 104.46C98.7251 104.45 98.479 104.46 98.2363 104.491H98.2329Z" fill="#032E33"/>
<path d="M98.8144 112.729C98.5444 112.729 98.2811 112.702 98.0282 112.647L98.1102 112.282C98.3393 112.333 98.5717 112.36 98.811 112.36L98.8383 112.613L98.8178 112.729H98.8144ZM99.2451 112.706L99.1973 112.336C99.4331 112.306 99.6622 112.254 99.8809 112.172L100.007 112.524C99.7613 112.61 99.5049 112.671 99.2451 112.706ZM97.6487 112.541C97.4026 112.456 97.1633 112.343 96.9377 112.206L97.1326 111.888C97.3342 112.012 97.5496 112.111 97.7684 112.189L97.6453 112.545L97.6487 112.541ZM100.37 112.374L100.206 112.039C100.414 111.936 100.616 111.81 100.8 111.663L101.033 111.957C100.824 112.121 100.602 112.261 100.37 112.377V112.374ZM96.613 111.981C96.4079 111.82 96.2164 111.639 96.0489 111.434L96.3361 111.194C96.4865 111.379 96.6574 111.54 96.842 111.687L96.613 111.981ZM101.327 111.694L101.064 111.424C101.231 111.256 101.382 111.075 101.508 110.873L101.819 111.075C101.679 111.297 101.515 111.502 101.327 111.69V111.694ZM95.8165 111.116C95.6729 110.897 95.5533 110.661 95.461 110.418L95.8096 110.285C95.8917 110.507 96.0011 110.716 96.131 110.911L95.8199 111.116H95.8165ZM102.014 110.736L101.682 110.572C101.785 110.36 101.867 110.138 101.922 109.909L102.284 109.998C102.223 110.251 102.13 110.501 102.014 110.733V110.736ZM95.3413 110.043C95.2764 109.786 95.2388 109.523 95.2319 109.263L95.6079 109.253C95.6182 109.489 95.649 109.721 95.7037 109.95L95.3413 110.043ZM102.356 109.608L101.987 109.564C102.004 109.427 102.011 109.291 102.011 109.154C102.011 109.055 102.007 108.956 102 108.86L102.373 108.829C102.383 108.938 102.39 109.044 102.39 109.157C102.39 109.311 102.38 109.465 102.359 109.612L102.356 109.608ZM95.6079 108.901L95.2388 108.877C95.2593 108.61 95.3071 108.354 95.3892 108.101L95.7447 108.21C95.6763 108.432 95.6319 108.665 95.6148 108.901H95.6079ZM101.946 108.511C101.898 108.282 101.826 108.057 101.73 107.841L102.072 107.691C102.178 107.926 102.264 108.18 102.315 108.436L101.949 108.511H101.946ZM95.8678 107.879L95.5259 107.732C95.6319 107.492 95.7618 107.263 95.919 107.048L96.2199 107.267C96.0797 107.458 95.9635 107.663 95.8712 107.875L95.8678 107.879ZM101.566 107.527C101.45 107.325 101.306 107.14 101.142 106.966L101.416 106.713C101.597 106.904 101.758 107.116 101.888 107.339L101.563 107.527H101.566ZM96.4386 106.993L96.1617 106.744C96.3395 106.549 96.5378 106.378 96.7531 106.228L96.9685 106.532C96.7771 106.669 96.5993 106.822 96.4386 106.997V106.993ZM100.893 106.727C100.712 106.569 100.517 106.436 100.308 106.323L100.486 105.995C100.715 106.118 100.934 106.269 101.132 106.44L100.889 106.723L100.893 106.727ZM97.2659 106.344L97.0847 106.019C97.3137 105.889 97.5599 105.79 97.8128 105.715L97.9154 106.074C97.6898 106.139 97.471 106.228 97.2659 106.344ZM99.9903 106.176C99.775 106.088 99.546 106.026 99.3135 105.988L99.3716 105.619C99.6314 105.657 99.8878 105.729 100.131 105.828L99.9903 106.176ZM98.2606 105.992L98.1957 105.626C98.4521 105.581 98.7221 105.564 98.9785 105.575L98.9614 105.951C98.7324 105.94 98.4862 105.954 98.2572 105.992H98.2606Z" fill="#032E33"/>
<path d="M98.831 111.235H98.8071C98.5439 111.235 98.2807 111.184 98.0345 111.089L98.1713 110.743C98.3729 110.825 98.5883 110.866 98.8071 110.866L98.831 111.239V111.235ZM99.2241 111.198L99.1489 110.832C99.3609 110.788 99.5626 110.706 99.7437 110.586L99.9488 110.897C99.7266 111.048 99.4839 111.147 99.2207 111.201L99.2241 111.198ZM97.6824 110.911C97.4602 110.767 97.2688 110.586 97.1116 110.367L97.4124 110.149C97.5423 110.326 97.6995 110.477 97.8807 110.596L97.679 110.911H97.6824ZM100.26 110.644L100 110.378C100.154 110.227 100.28 110.049 100.369 109.851L100.711 110.001C100.602 110.244 100.448 110.463 100.26 110.644ZM96.9099 110.022C96.8005 109.779 96.7355 109.526 96.7219 109.256L97.0945 109.239C97.1047 109.458 97.1594 109.666 97.2517 109.868L96.9099 110.025V110.022ZM100.838 109.629L100.475 109.54C100.506 109.417 100.52 109.284 100.52 109.154C100.52 109.065 100.513 108.979 100.503 108.897L100.872 108.839C100.889 108.942 100.892 109.048 100.896 109.154C100.896 109.314 100.879 109.472 100.841 109.629H100.838ZM97.1116 108.914L96.7424 108.863C96.78 108.603 96.8654 108.347 96.9988 108.121L97.3235 108.306C97.2141 108.497 97.1423 108.702 97.115 108.914H97.1116ZM100.421 108.583C100.349 108.374 100.236 108.19 100.092 108.022L100.373 107.78C100.55 107.981 100.684 108.207 100.773 108.456L100.421 108.583ZM97.5081 108.043L97.2244 107.8C97.4021 107.595 97.6038 107.434 97.8397 107.311L98.0106 107.639C97.8158 107.742 97.6482 107.875 97.5047 108.043H97.5081ZM99.8531 107.8C99.6788 107.667 99.4839 107.567 99.2754 107.506L99.378 107.151C99.6343 107.222 99.8702 107.345 100.079 107.506L99.8497 107.803L99.8531 107.8ZM98.3148 107.513L98.2089 107.157C98.4618 107.082 98.7251 107.058 98.9917 107.082L98.9575 107.451C98.7455 107.434 98.5234 107.455 98.3148 107.516V107.513Z" fill="#032E33"/>
</g>
<path d="M119.693 177.841C119.235 177.841 118.855 177.451 118.838 176.963C118.527 166.995 113.523 153.871 111.882 149.557C111.461 148.453 111.27 147.794 111.314 147.578C111.41 147.089 111.865 146.768 112.326 146.874C112.675 146.953 112.931 147.25 112.993 147.602C113.051 147.776 113.252 148.313 113.468 148.874C115.139 153.263 120.229 166.612 120.547 176.901C120.564 177.404 120.192 177.824 119.72 177.841H119.689H119.693Z" fill="#FF9800"/>
<path d="M116.558 175.769C116.538 175.769 116.517 175.769 116.5 175.769C116.032 175.735 115.673 175.301 115.704 174.799C115.707 174.717 116.213 166.396 113.847 159.002C113.697 158.527 113.933 158.011 114.381 157.847C114.829 157.683 115.314 157.939 115.464 158.414C117.946 166.164 117.433 174.573 117.409 174.925C117.379 175.404 117.003 175.773 116.558 175.773V175.769Z" fill="#FF9800"/>
<path d="M67.5828 135.91C63.1936 142.87 56.2269 169.455 56.2269 169.455C56.2269 169.455 68.2186 174.914 72.6728 178.387C77.127 181.86 82.9895 187.128 88.9957 186.625C95.0052 186.123 98.7176 177.255 104.03 174.022C109.342 170.788 121.03 173.416 121.03 173.416C121.03 173.416 118.726 150.175 112.504 143.492C106.283 136.809 101.716 133.671 101.716 133.671C101.716 133.671 95.7265 139.294 85.1432 137.677C74.5598 136.06 70.0509 134.375 70.0509 134.375C70.0509 134.375 68.728 134.088 67.5828 135.91Z" fill="#C57D3D"/>
<path d="M119.99 179.18C119.532 179.18 119.152 178.797 119.135 178.305C118.759 168.166 115.508 153.576 109.102 143.841C108.832 143.43 108.925 142.863 109.311 142.572C109.697 142.282 110.23 142.384 110.5 142.795C117.108 152.834 120.458 167.827 120.845 178.23C120.862 178.732 120.496 179.156 120.024 179.173H119.987L119.99 179.18Z" fill="#DB307A"/>
<path d="M108.915 178.353C108.447 178.353 108.064 177.949 108.061 177.454C107.975 168.894 106.902 147.779 98.8274 136.597C98.5403 136.201 98.6121 135.626 98.9847 135.322C99.3573 135.018 99.894 135.093 100.185 135.49C108.573 147.105 109.681 168.692 109.77 177.433C109.773 177.936 109.397 178.349 108.922 178.353H108.912H108.915Z" fill="#DB307A"/>
<path d="M104.023 183.391C103.671 183.391 103.34 183.159 103.217 182.783C103.148 182.581 103.148 182.523 103.117 180.725C102.772 159.921 100.68 145.649 96.9062 138.296C96.6806 137.855 96.831 137.301 97.2481 137.059C97.6617 136.816 98.1813 136.98 98.4103 137.421C102.318 145.03 104.478 159.589 104.83 180.687C104.844 181.46 104.854 182.13 104.868 182.311C104.943 182.745 104.714 183.186 104.311 183.337C104.215 183.374 104.119 183.388 104.027 183.388L104.023 183.391Z" fill="#DB307A"/>
<path d="M99.5112 188.365C99.4736 188.365 99.4326 188.365 99.395 188.355C98.9266 188.287 98.5985 187.825 98.6668 187.33C101.248 167.493 97.1662 144.702 93.2213 137.729C92.9786 137.298 93.1085 136.741 93.5119 136.478C93.9153 136.214 94.4417 136.358 94.6844 136.789C98.7557 143.991 102.991 167.356 100.359 187.579C100.301 188.034 99.9351 188.362 99.5146 188.362L99.5112 188.365Z" fill="#DB307A"/>
<path d="M93.9491 194.132C93.9115 194.132 93.8739 194.132 93.8397 194.125C93.3714 194.06 93.0398 193.602 93.1013 193.106C95.7438 171.492 93.5047 144.306 89.8402 139.01C89.5599 138.607 89.6419 138.036 90.0214 137.739C90.4008 137.441 90.9375 137.527 91.2178 137.93C94.1439 142.159 95.2242 154.321 95.607 161.192C96.2189 172.183 95.9181 184.202 94.8003 193.339C94.7422 193.797 94.3764 194.132 93.9525 194.132H93.9491Z" fill="#DB307A"/>
<path d="M117.314 175.064C116.876 175.064 116.504 174.712 116.463 174.241C114.644 154.004 110.255 142.614 101.791 136.163C101.408 135.869 101.319 135.302 101.593 134.895C101.87 134.488 102.403 134.392 102.786 134.686C111.694 141.475 116.295 153.255 118.165 174.07C118.21 174.569 117.864 175.013 117.396 175.061C117.369 175.061 117.341 175.064 117.314 175.064Z" fill="#DB307A"/>
<path d="M77.9238 195.034C77.8589 195.034 77.7905 195.027 77.7255 195.01C77.2675 194.894 76.9837 194.402 77.0931 193.913C79.0826 185.059 78.857 172.702 78.6553 161.797C78.4913 152.916 78.3374 144.531 79.4313 139.465C79.5373 138.976 79.9954 138.669 80.4534 138.781C80.9149 138.894 81.2021 139.383 81.0961 139.872C80.0535 144.719 80.2039 152.998 80.3645 161.763C80.5662 172.777 80.7953 185.261 78.7545 194.337C78.6588 194.754 78.3101 195.034 77.9238 195.034Z" fill="#DB307A"/>
<path d="M75.7015 189.879C75.2776 189.879 74.905 189.544 74.8537 189.083C74.8434 189.001 73.9239 180.961 73.7427 171.153C73.5 157.921 74.6383 147.932 77.1303 141.465C77.3081 141 77.8072 140.778 78.2482 140.969C78.6857 141.161 78.8942 141.694 78.7165 142.155C72.9633 157.08 76.515 188.546 76.5526 188.861C76.6108 189.36 76.2757 189.814 75.8108 189.876C75.7732 189.879 75.7425 189.883 75.7049 189.883H75.7015V189.879Z" fill="#DB307A"/>
<path d="M65.4367 180.934H65.4197C64.9479 180.924 64.5719 180.506 64.5821 180.004C64.6061 178.893 65.2248 152.623 72.5812 137.449C72.7966 137.001 73.3127 136.826 73.7332 137.059C74.1537 137.288 74.3177 137.838 74.1024 138.283C66.9272 153.088 66.3016 179.778 66.2948 180.045C66.2845 180.541 65.9051 180.934 65.4402 180.934H65.4367Z" fill="#DB307A"/>
<path d="M61.5869 179.18C61.1288 179.18 60.7494 178.794 60.7323 178.305C60.7015 177.351 60.0486 154.769 69.2475 139.667C69.5039 139.243 70.0337 139.123 70.4303 139.397C70.8268 139.67 70.9396 140.234 70.6832 140.655C61.7817 155.272 62.4346 178.011 62.4415 178.236C62.4586 178.739 62.0894 179.159 61.6177 179.18H61.5869Z" fill="#DB307A"/>
<path d="M57.0267 178.353C56.5789 178.353 56.2028 177.983 56.1755 177.501C55.3961 164.563 59.6691 145.741 69.3466 134.799C69.6713 134.433 70.2114 134.416 70.5567 134.761C70.8985 135.107 70.919 135.681 70.5943 136.047C61.3544 146.493 57.1497 165.141 57.8881 177.382C57.9189 177.884 57.5599 178.315 57.0882 178.349H57.0301L57.0267 178.353Z" fill="#DB307A"/>
<path d="M72.2799 186.844C71.8492 186.844 71.4766 186.495 71.4288 186.027C71.333 185.063 69.1521 162.32 72.5158 149.351C72.6423 148.869 73.1106 148.585 73.5687 148.715C74.0267 148.849 74.2934 149.351 74.1635 149.833C70.8852 162.471 73.1072 185.603 73.1277 185.832C73.179 186.331 72.8371 186.779 72.3654 186.83C72.3346 186.83 72.3039 186.834 72.2765 186.834L72.2799 186.844Z" fill="#DB307A"/>
<path d="M85.024 191.243C84.959 191.243 84.8941 191.237 84.8291 191.22C84.3676 191.107 84.0805 190.618 84.1899 190.129C88.0595 172.391 86.2409 150.189 84.1899 140.357C84.0873 139.869 84.3779 139.38 84.8394 139.274C85.2974 139.164 85.7555 139.476 85.8615 139.964C87.9467 149.949 89.7892 172.511 85.8615 190.539C85.7692 190.96 85.4171 191.243 85.0308 191.243H85.0274H85.024Z" fill="#DB307A"/>
<path d="M95.7404 189.88C95.7199 189.88 95.696 189.88 95.6755 189.88C95.2037 189.842 94.8516 189.405 94.8858 188.902C95.7848 176.196 96.9026 160.382 93.9526 147.635C93.8398 147.146 94.1201 146.654 94.5781 146.535C95.0362 146.412 95.5011 146.712 95.6139 147.201C98.629 160.232 97.4975 176.206 96.5916 189.039C96.5574 189.517 96.1814 189.883 95.7404 189.883V189.88Z" fill="#DB307A"/>
<path d="M89.2454 197.311C89.1736 197.311 89.0984 197.301 89.0232 197.28C88.5652 197.15 88.2951 196.651 88.4182 196.166C89.0403 193.684 92.0417 167.4 90.3906 150.537C90.3393 150.038 90.6811 149.59 91.1529 149.539C91.6212 149.491 92.0417 149.85 92.0929 150.349C93.8534 168.279 90.5752 194.621 90.0727 196.634C89.9701 197.041 89.6249 197.311 89.2454 197.311Z" fill="#DB307A"/>
<path d="M80.4602 189.271C80.3782 189.271 80.2893 189.258 80.2073 189.23C79.756 189.08 79.5031 188.574 79.6432 188.092C83.7487 173.974 82.7164 159.685 81.7148 145.864L81.6908 145.512C81.6532 145.01 82.0087 144.576 82.4771 144.535C82.9522 144.484 83.359 144.87 83.3966 145.372L83.4205 145.724C84.4324 159.712 85.4784 174.179 81.2772 188.628C81.1644 189.018 80.826 189.271 80.4602 189.271Z" fill="#DB307A"/>
<path d="M113.68 175.645C113.243 175.645 112.87 175.29 112.829 174.815C111.906 163.92 109.79 149.447 104.946 142.337C104.67 141.93 104.755 141.359 105.138 141.065C105.521 140.771 106.054 140.86 106.334 141.27C111.407 148.715 113.595 163.534 114.535 174.651C114.579 175.153 114.231 175.594 113.759 175.639C113.732 175.639 113.708 175.642 113.684 175.642L113.68 175.645Z" fill="#DB307A"/>
<path d="M104.977 181.809C104.939 181.809 104.898 181.809 104.861 181.802C104.235 181.733 103.777 181.139 103.845 180.472C104.683 171.851 102.837 148.978 98.1024 140.35C97.7845 139.773 97.9691 139.027 98.5126 138.692C99.0561 138.357 99.7569 138.549 100.071 139.13C105.107 148.312 107 171.601 106.112 180.725C106.05 181.347 105.554 181.815 104.98 181.815L104.977 181.809Z" fill="#FF9800"/>
<path d="M58.2133 178.421C57.7553 178.421 57.3758 178.035 57.3587 177.543C57.3485 177.167 57.3314 176.77 57.3143 176.353C57.0818 170.087 56.6955 159.603 62.247 149.601C62.4863 149.17 63.0093 149.026 63.4161 149.279C63.8229 149.536 63.9597 150.093 63.717 150.527C58.4219 160.071 58.7944 170.22 59.0201 176.285C59.0371 176.702 59.0508 177.102 59.0645 177.481C59.0816 177.984 58.7124 178.404 58.2407 178.421H58.2099H58.2133Z" fill="#FF9800"/>
<path d="M76.245 189.343C75.8211 189.343 75.4519 189.008 75.3972 188.546C73.9136 176.11 75.1101 153.781 77.0927 144.9C77.2021 144.411 77.6636 144.107 78.1217 144.223C78.5797 144.34 78.8635 144.829 78.7575 145.321C76.809 154.058 75.6331 176.056 77.0961 188.317C77.1543 188.816 76.8227 189.271 76.3544 189.332C76.3168 189.336 76.2826 189.339 76.245 189.339V189.343Z" fill="#FF9800"/>
<path d="M77.924 188.43H77.883C77.4112 188.406 77.0455 187.979 77.066 187.48C77.0762 187.251 78.071 164.286 77.736 153.327C77.7189 152.824 78.0915 152.404 78.5632 152.387C79.0247 152.349 79.4315 152.763 79.4452 153.265C79.7802 164.296 78.7854 187.329 78.7752 187.558C78.7547 188.047 78.3752 188.427 77.9206 188.427L77.924 188.43Z" fill="#FF9800"/>
<path d="M87.2045 195.103C87.1499 195.103 87.0952 195.099 87.0405 195.086C86.579 194.99 86.2748 194.511 86.3636 194.019C89.594 176.295 88.507 146.247 86.5277 141.212C86.3465 140.751 86.5516 140.217 86.9892 140.022C87.4267 139.831 87.9258 140.05 88.107 140.511C90.4213 146.408 91.2041 177.02 88.0421 194.365C87.9634 194.799 87.6045 195.099 87.2045 195.099V195.103Z" fill="#FF9800"/>
<path d="M100.841 181.508H100.786C100.314 181.477 99.9553 181.046 99.9826 180.544C100.417 173.064 100.588 158.816 96.8445 147.437C96.6873 146.962 96.9232 146.442 97.3676 146.278C97.812 146.114 98.3008 146.363 98.458 146.835C102.3 158.516 102.129 173.037 101.688 180.657C101.661 181.139 101.285 181.511 100.837 181.511L100.841 181.508Z" fill="#FF9800"/>
<path d="M87.9639 197.379C87.9332 197.379 87.9058 197.379 87.8785 197.376C87.4102 197.325 87.0649 196.88 87.1128 196.381C87.123 196.251 87.1777 195.892 87.2563 195.332C90.5243 172.203 90.4867 152.12 87.1401 138.775C87.017 138.289 87.2905 137.79 87.7452 137.66C88.2032 137.53 88.6681 137.817 88.7912 138.303C92.1959 151.881 92.2506 172.23 88.9484 195.598C88.8767 196.111 88.8288 196.439 88.8185 196.559C88.7741 197.027 88.4015 197.379 87.9674 197.379H87.9639Z" fill="#FF9800"/>
<path d="M83.9709 195.103C83.8923 195.103 83.8103 195.092 83.7317 195.065C83.277 194.925 83.0172 194.419 83.1471 193.937C86.3296 182.311 85.4101 151.457 83.1232 137.479C83.0411 136.983 83.3522 136.512 83.8205 136.426C84.282 136.337 84.7298 136.672 84.8119 137.168C87.1159 151.252 88.1414 182.195 84.7913 194.446C84.682 194.843 84.3401 195.103 83.9709 195.103Z" fill="#FF9800"/>
<path d="M91.2422 195.407C91.1055 195.407 90.9688 195.38 90.8354 195.325C90.2475 195.086 89.9535 194.382 90.1791 193.759C92.6438 186.912 93.0711 154.127 88.1691 138.932C87.9674 138.299 88.2819 137.609 88.8801 137.39C89.4749 137.171 90.1244 137.51 90.3295 138.146C95.4708 154.086 94.9307 187.346 92.3122 194.628C92.1378 195.11 91.7071 195.407 91.2491 195.407H91.2422Z" fill="#FF9800"/>
<path d="M79.2669 194.2C79.1985 194.2 79.1267 194.19 79.055 194.173C78.5969 194.05 78.32 193.554 78.4362 193.065C81.4171 180.605 80.894 165.059 80.477 152.568C80.2992 147.341 80.1352 142.402 80.2651 138.505C80.2822 138.002 80.689 137.602 81.1504 137.629C81.6222 137.647 81.9914 138.067 81.9743 138.573C81.8478 142.405 82.0119 147.314 82.1862 152.506C82.6101 165.113 83.1331 180.8 80.0941 193.517C79.995 193.927 79.6463 194.2 79.2635 194.2H79.2669Z" fill="#FF9800"/>
<path d="M121.984 179.888H121.939C121.467 179.86 121.105 179.433 121.129 178.93C121.878 163.476 113.321 139.636 102.27 133.835C101.846 133.613 101.671 133.066 101.88 132.618C102.088 132.167 102.605 131.982 103.025 132.204C112.778 137.318 123.788 159.346 122.835 179.023C122.811 179.508 122.431 179.888 121.98 179.888H121.984Z" fill="#FF9800"/>
<path d="M77.2672 191.869C76.816 191.869 76.4366 191.493 76.4126 191.004C76.3374 189.456 74.6077 152.882 79.4345 134.139C79.5576 133.654 80.0293 133.367 80.484 133.504C80.942 133.637 81.2087 134.136 81.0822 134.621C76.3272 153.084 78.1013 190.532 78.1184 190.912C78.1423 191.414 77.78 191.842 77.3083 191.869H77.2638H77.2672Z" fill="#FF9800"/>
<path d="M67.2923 181.255C67.265 181.255 67.2376 181.255 67.2103 181.255C66.5813 181.207 66.1061 180.63 66.154 179.96C66.2531 178.438 68.6734 142.641 74.8026 134.259C75.1888 133.729 75.9067 133.637 76.4024 134.047C76.898 134.457 76.9903 135.223 76.604 135.75C70.8953 143.557 68.4546 179.765 68.4307 180.13C68.3862 180.77 67.8871 181.258 67.2957 181.258L67.2923 181.255Z" fill="#FF9800"/>
<path d="M101.873 181.86C101.849 181.86 101.822 181.86 101.798 181.857C101.329 181.812 100.981 181.371 101.022 180.869C102.444 163.873 100.215 149.423 94.0107 135.387C93.809 134.932 93.9936 134.392 94.4209 134.177C94.8482 133.962 95.3575 134.16 95.5592 134.615C101.9 148.951 104.177 163.702 102.728 181.033C102.69 181.505 102.314 181.863 101.876 181.863L101.873 181.86Z" fill="#FF9800"/>
<path d="M75.1305 190.871C74.7442 190.871 74.3955 190.594 74.2998 190.177C71.8283 179.385 70.4097 155.658 77.1303 137.93C77.308 137.465 77.8037 137.24 78.2447 137.428C78.6822 137.616 78.8941 138.146 78.7164 138.611C72.1462 155.938 73.5409 179.17 75.9611 189.743C76.0705 190.232 75.7902 190.724 75.3322 190.843C75.2638 190.861 75.1954 190.871 75.1305 190.871Z" fill="#FF9800"/>
<path d="M109.804 178.137C109.78 178.137 109.752 178.137 109.728 178.134C109.26 178.09 108.911 177.645 108.952 177.146C109.629 169.161 108.805 153.665 104.884 145.752C104.666 145.307 104.826 144.757 105.24 144.521C105.657 144.285 106.177 144.456 106.395 144.904C110.477 153.142 111.349 169.113 110.651 177.31C110.61 177.782 110.238 178.141 109.8 178.141L109.804 178.137Z" fill="#333481"/>
<path d="M55.0306 176.702C54.5657 176.702 54.1828 176.305 54.176 175.806C53.8854 156.947 65.3952 135.89 70.3724 131.06C70.7211 130.721 71.2612 130.748 71.5825 131.118C71.9038 131.487 71.8765 132.064 71.5278 132.403C66.8651 136.932 55.6117 157.743 55.8886 175.779C55.8955 176.281 55.5194 176.695 55.0477 176.702H55.0306Z" fill="#333481"/>
<path d="M64.0108 181.255C63.5117 181.255 63.0536 180.906 62.9135 180.369C60.7633 172.196 65.5559 143.324 73.2165 132.303C73.5925 131.763 74.307 131.651 74.8129 132.051C75.3188 132.447 75.4248 133.209 75.0522 133.746C67.4292 144.716 63.31 172.869 65.1115 179.713C65.2824 180.356 64.9269 181.029 64.3218 181.21C64.2193 181.241 64.1168 181.255 64.0142 181.255H64.0108Z" fill="#333481"/>
<path d="M107.062 180.192H107.041C106.412 180.182 105.91 179.628 105.92 178.958C106.118 166.532 102.724 144.077 96.7451 135.736C96.3623 135.203 96.4614 134.44 96.9605 134.037C97.463 133.63 98.1774 133.733 98.5569 134.266C105.083 143.366 108.402 166.494 108.197 178.999C108.187 179.662 107.677 180.192 107.055 180.192H107.058H107.062Z" fill="#333481"/>
<path d="M111.722 177.614H111.677C111.048 177.587 110.559 177.023 110.583 176.353C111.031 164.419 110.108 150.182 99.8701 135.093C99.501 134.55 99.6172 133.791 100.127 133.398C100.636 133.008 101.35 133.127 101.72 133.671C112.364 149.361 113.325 164.098 112.863 176.445C112.84 177.098 112.334 177.611 111.725 177.611L111.722 177.614Z" fill="#333481"/>
<path d="M96.66 192.173C96.5574 192.173 96.4514 192.156 96.3455 192.125C95.7404 191.94 95.3883 191.267 95.5627 190.625C97.6342 182.909 99.0836 150.223 90.2812 135.654C89.9394 135.089 90.0932 134.337 90.6231 133.978C91.1529 133.616 91.8605 133.78 92.199 134.341C101.514 149.754 99.9656 183.06 97.7539 191.291C97.6103 191.824 97.1556 192.173 96.6566 192.173H96.66Z" fill="#333481"/>
<path d="M81.8305 193.39C81.7348 193.39 81.6322 193.377 81.5365 193.349C80.928 193.178 80.5657 192.512 80.7263 191.866C85.307 173.564 83.003 150.848 81.4749 135.814L81.4066 135.127C81.3382 134.461 81.7929 133.862 82.4184 133.791C83.0406 133.722 83.608 134.201 83.673 134.867L83.7413 135.555C85.283 150.763 87.6178 173.748 82.9278 192.488C82.791 193.031 82.333 193.39 81.8271 193.39H81.8305Z" fill="#333481"/>
<path d="M60.0178 178.442C59.4093 178.442 58.8999 177.926 58.8794 177.273C58.271 159.295 62.8345 143.721 72.4505 130.974C72.8436 130.451 73.5615 130.366 74.0537 130.786C74.5425 131.203 74.6246 131.969 74.2315 132.492C64.971 144.771 60.5715 159.808 61.1595 177.187C61.1834 177.857 60.6912 178.418 60.0622 178.442H60.0178Z" fill="#333481"/>
<path d="M70.2048 182.164C69.6407 182.164 69.1553 181.723 69.0767 181.115C67.8802 171.738 71.261 142.665 77.6842 133.65C78.0671 133.117 78.7815 133.011 79.2806 133.415C79.7797 133.818 79.8822 134.58 79.4994 135.114C73.589 143.407 70.1706 171.663 71.3328 180.787C71.4149 181.45 70.9807 182.062 70.3552 182.151C70.3039 182.157 70.2526 182.161 70.1979 182.161L70.2048 182.164Z" fill="#333481"/>
<path d="M115.341 174.336C114.897 174.336 114.521 173.97 114.49 173.492C112.87 149.19 108.115 143.601 102.608 137.127C101.661 136.016 100.683 134.864 99.7056 133.599C99.4047 133.209 99.4594 132.635 99.8218 132.317C100.184 131.999 100.724 132.054 101.025 132.444C101.975 133.678 102.939 134.809 103.873 135.907C109.356 142.347 114.531 148.435 116.192 173.362C116.227 173.864 115.871 174.298 115.399 174.333C115.379 174.333 115.358 174.333 115.338 174.333L115.341 174.336Z" fill="#333481"/>
<path d="M85.9674 195.38C85.923 195.38 85.8786 195.376 85.8307 195.369C85.3658 195.291 85.0479 194.822 85.1197 194.327C87.157 180.776 89.4508 153.597 85.1436 137.677C85.0137 137.195 85.2735 136.689 85.7281 136.553C86.1828 136.413 86.658 136.693 86.7879 137.175C91.1805 153.398 88.8697 180.913 86.8118 194.61C86.7434 195.058 86.3811 195.376 85.9674 195.376V195.38Z" fill="#333481"/>
<path d="M105.073 136.329C102.45 137.206 93.3784 139.957 82.1627 138.84C70.9503 137.729 67.4772 134.666 67.4772 134.666C67.4772 134.666 67.4841 134.423 67.7746 133.938C67.8601 133.794 67.9729 133.62 68.1165 133.435C68.243 133.271 68.3968 133.09 68.5779 132.888C68.6805 132.779 68.7865 132.666 68.9095 132.55C68.9882 132.464 68.9473 131.889 69.0328 131.803C68.9097 131.92 69.1422 131.701 69.0328 131.803C69.0725 131.354 69.0328 129.975 69.0328 129.849C68.8961 129.952 69.1593 129.753 69.0328 129.849C69.1038 129.53 69.0328 128.856 69.1591 128.391C69.1591 128.391 76.9383 131.473 86.0962 132.888C95.2703 133.759 104.888 128.643 104.888 128.643L105.073 130.059V131.663V136.329Z" fill="#333481"/>
<path d="M105.058 131.766C99.5685 136.237 92.2265 138.501 86.5076 138.501C78.0846 138.501 70.6428 135.336 67.7781 133.938C67.8636 133.794 67.9764 133.62 68.12 133.435C72.9844 135.784 91.8292 141.936 105.058 131.284V131.766Z" fill="#FF9800"/>
<path d="M105.044 130.949C100.689 134.394 93.3989 137.069 87.0749 137.069C85.5195 137.069 83.9095 136.959 82.2413 136.751C76.5599 136.033 71.3605 134.149 68.5848 132.888C68.6873 132.779 68.7933 132.666 68.9164 132.55C71.6989 133.794 76.765 135.606 82.296 136.3C90.5856 137.349 99.718 134.481 105.044 130.307V130.949Z" fill="#FF9800"/>
<path d="M102.506 131.343C97.1674 134.858 91.4124 136.218 86.0695 136.218C78.9626 136.218 72.2848 133.951 68.8527 132.266C68.9621 132.163 68.901 131.743 69.0241 131.627C74.4935 134.266 87.5291 138.508 98.7381 132.929C103.72 130.452 103.723 130.45 98.7483 132.922C99.3568 132.618 99.9687 132.287 100.574 131.921C101.083 131.617 104.373 129.941 104.869 129.592L105.058 129.928L102.506 131.343Z" fill="#FF9800"/>
<path d="M100.547 132.345C99.9385 132.55 99.3368 132.745 98.7523 132.929C98.3592 133.052 98.3557 133.052 98.742 132.936C94.1135 134.344 90.114 134.925 86.5486 134.925C80.3271 134.925 73.6009 132.221 68.9929 129.975C69.1194 129.879 68.9341 129.408 69.0708 129.305C76.5195 132.894 86.9212 136.495 100.424 131.907C100.475 131.89 100.533 131.897 100.578 131.924C100.629 131.948 100.667 131.996 100.691 132.057C100.725 132.174 100.66 132.3 100.547 132.341V132.345Z" fill="#FF9800"/>
</svg>
