<svg width="174" height="240" viewBox="0 0 174 240" fill="none" xmlns="http://www.w3.org/2000/svg">
<rect width="174" height="240" fill="none"/>
<path d="M100.23 97.7138C99.441 95.5411 100.562 93.1374 102.733 92.345C104.905 91.5526 107.304 92.6716 108.093 94.8443L127.286 147.718L119.423 150.588L100.23 97.7138Z" fill="#684DA8"/>
<path d="M103.112 92.2295C105.693 91.2878 108.545 92.618 109.483 95.2004L128.433 147.405L127.303 147.817L108.148 95.0472C107.356 92.8673 105.013 91.7029 102.819 92.3466C102.914 92.3047 103.012 92.2658 103.112 92.2295Z" fill="#5937A8"/>
<path d="M64.8478 94.8758C65.6966 92.55 68.2713 91.3494 70.5985 92.1942C72.9258 93.039 74.1243 95.6093 73.2755 97.9351L54.0063 150.737L45.5786 147.678L64.8478 94.8758Z" fill="#684DA8"/>
<path d="M45.8572 161.571C45.848 161.567 45.8391 161.563 45.83 161.56L45.8896 161.581C45.8789 161.578 45.8679 161.574 45.8572 161.571ZM71.0978 92.3938C73.5044 93.2672 74.7437 95.9254 73.8661 98.3305L54.68 150.915L53.6266 150.532L73.0049 97.4215C73.7451 95.3928 72.7719 93.1598 70.8228 92.3041C70.9147 92.3312 71.0066 92.3607 71.0978 92.3938Z" fill="#5937A8"/>
<path d="M110.333 223.219C110.324 223.262 110.31 223.293 110.297 223.324C110.257 223.44 110.212 223.557 110.163 223.667C110.114 223.79 110.056 223.9 109.993 224.022C109.935 224.127 109.877 224.225 109.814 224.329C109.555 224.74 109.242 225.09 108.894 225.347C108.84 225.39 108.787 225.427 108.733 225.464C108.711 225.482 108.684 225.494 108.662 225.519C108.608 225.549 108.554 225.586 108.496 225.611C108.255 225.734 108.005 225.832 107.746 225.881C107.732 225.887 107.71 225.893 107.696 225.893C107.638 225.899 107.58 225.911 107.518 225.911C107.46 225.911 107.406 225.924 107.348 225.924C107.308 225.924 107.263 225.924 107.223 225.924H68.1483C67.4468 225.924 66.7721 225.574 66.2449 224.942C64.3414 222.649 64.395 221.754 64.4531 220.852L65.4317 207.686L65.597 205.527L65.9366 200.916L66.1019 198.757L69.5871 140.206C69.6005 140.077 69.6094 139.942 69.6318 139.813C69.6407 139.739 69.6541 139.672 69.6631 139.605C69.6765 139.507 69.6988 139.408 69.7211 139.31C69.7703 139.102 69.8284 138.899 69.8954 138.709C69.9177 138.63 69.949 138.562 69.9758 138.488C70.0294 138.36 70.092 138.225 70.1456 138.096C70.2126 137.98 70.2707 137.863 70.3377 137.746C70.3869 137.667 70.4316 137.599 70.4807 137.526C70.5299 137.452 70.579 137.379 70.6326 137.317C70.6639 137.262 70.6997 137.225 70.7399 137.182C70.7935 137.115 70.8471 137.06 70.9097 136.992C70.9767 136.925 71.0393 136.857 71.1063 136.808C71.1286 136.784 71.1599 136.753 71.1912 136.735C71.2627 136.667 71.3386 136.612 71.4235 136.557C71.4459 136.544 71.4637 136.532 71.4861 136.52C71.5039 136.508 71.5263 136.489 71.5442 136.483C71.9686 136.213 72.4378 136.072 72.9248 136.072H100.016C101.709 136.072 103.139 137.795 103.349 140.095L108.536 198.77L108.733 200.928L108.746 201.063L108.97 203.424L109.157 205.448L109.166 205.54L109.372 207.698L110.587 220.742C110.672 221.631 110.565 222.483 110.31 223.238L110.333 223.219Z" fill="#684DA8"/>
<path d="M110.293 223.219C110.279 223.262 110.27 223.287 110.252 223.33C110.212 223.446 110.168 223.563 110.118 223.673C110.069 223.796 110.011 223.906 109.949 224.029C109.891 224.133 109.832 224.231 109.77 224.336C109.511 224.747 109.198 225.096 108.849 225.354C108.796 225.397 108.742 225.433 108.689 225.47C108.666 225.489 108.639 225.501 108.617 225.525C108.564 225.556 108.51 225.593 108.452 225.617C108.211 225.74 107.96 225.838 107.701 225.887C107.63 225.899 107.549 225.918 107.473 225.918C107.433 225.918 107.393 225.924 107.353 225.93C107.312 225.93 107.268 225.93 107.227 225.93H68.1084C67.4069 225.93 66.7322 225.581 66.2049 224.949C64.3015 222.655 64.3551 221.76 64.4132 220.859L65.3917 207.692L65.5571 205.534L65.9011 200.922L66.062 198.764L69.5472 140.212C69.5606 140.083 69.574 139.948 69.5918 139.819C69.6008 139.746 69.6142 139.678 69.6276 139.611C69.641 139.513 69.6589 139.415 69.6857 139.317C69.7348 139.108 69.7929 138.906 69.8599 138.716C69.8823 138.636 69.9136 138.569 69.9404 138.495C69.994 138.366 70.0565 138.231 70.1102 138.102C70.1772 137.986 70.2353 137.87 70.3023 137.753C70.3514 137.673 70.3961 137.606 70.4453 137.532C70.4944 137.458 70.5436 137.385 70.5972 137.324C70.6285 137.275 70.6642 137.238 70.7044 137.189C70.758 137.121 70.8116 137.066 70.8742 136.999C70.9412 136.931 71.0038 136.864 71.0708 136.815C71.0931 136.79 71.1244 136.76 71.1557 136.741C71.2272 136.674 71.3076 136.619 71.3881 136.563C71.4283 136.539 71.4729 136.508 71.5087 136.483C71.5087 136.483 71.4998 136.514 71.4953 136.527C71.3523 136.962 71.2674 137.428 71.2272 137.912L67.5677 198.776L67.4069 200.934L67.0628 205.546L66.902 207.705L66.0932 218.559C65.9011 221.092 67.2416 223.361 69.0869 223.618C69.2031 223.63 69.3148 223.643 69.431 223.643H108.903C109.377 223.643 109.85 223.508 110.275 223.244C110.561 223.066 110.561 223.066 110.279 223.244L110.293 223.219Z" fill="#5937A8"/>
<path d="M72.144 105.669C72.3093 103.308 73.7571 101.499 75.4863 101.499H96.3847C98.0558 101.499 99.4723 103.185 99.7091 105.454L104.061 147.26C104.191 148.523 103.556 149.688 102.636 149.872C102.555 149.89 102.475 149.896 102.395 149.896H70.9197C69.9903 149.896 69.2351 148.872 69.2351 147.603C69.2351 147.523 69.2351 147.449 69.2441 147.37L72.144 105.675H72.1395L72.144 105.669Z" fill="#684DA8"/>
<path d="M102.219 149.831H70.7441C69.8147 149.837 69.0596 148.807 69.0596 147.538C69.0596 147.458 69.0596 147.378 69.0685 147.292L71.9685 105.61C72.0846 103.96 72.8353 102.525 73.9345 101.851C73.7826 102.311 73.6843 102.807 73.653 103.31L70.7441 145.005C70.6547 146.268 71.325 147.403 72.2455 147.526C72.3036 147.532 72.3617 147.538 72.4242 147.538H103.899C103.899 148.813 103.144 149.838 102.224 149.838V149.825L102.219 149.831Z" fill="#5937A8"/>
<path d="M98.3701 133.484H95.0146V225.93H98.3701V133.484Z" fill="#7A66A8"/>
<path d="M87.5995 12.2568C100.494 12.2568 114.853 22.493 119.058 34.6924L124.672 50.9707C125.644 53.7995 126.137 56.8496 126.194 59.9941V60.0127C125.961 72.9256 118.667 87.0512 108.046 93.252C107.56 93.5297 107.074 93.8017 106.575 94.0479L125.885 134.743C125.954 134.882 126.011 135.034 126.049 135.18C125.903 135.704 125.574 136.183 125.107 136.505H108.753L57.0692 136.373C53.4451 136.366 51.1026 132.553 52.7313 129.313C57.7197 119.406 66.6989 102.496 66.9452 101.997L71.5546 94.666C57.1137 87.4484 47.7625 64.565 53.035 49.2969L58.6483 33.0186C60.7194 27.0072 65.2598 21.4761 70.8671 17.4033C75.1229 14.7829 79.8457 13.0083 84.493 12.4463C85.5348 12.32 86.5704 12.2569 87.5995 12.2568ZM87.3973 24.4277C68.3467 24.4279 52.9061 39.8337 52.9061 58.834C52.9061 77.8343 68.3467 93.2342 87.3973 93.2344C106.448 93.2344 121.89 77.8344 121.89 58.834C121.89 39.8336 106.448 24.4336 87.3973 24.4336V24.4277Z" fill="#684DA8"/>
<path d="M87.5989 12.2637C100.493 12.2637 117.465 21.8182 121.67 34.0176L127.689 45.7979C129.195 48.745 130.451 51.8511 130.621 55.1562C130.753 57.7156 130.617 61.0272 129.652 64.4824C128.945 67.0116 127.551 69.2755 126.082 71.4521L121.67 77.9883L109.095 92.585C108.609 92.8623 109.128 92.3388 108.629 92.585L125.884 134.744C125.953 134.883 126.01 135.035 126.048 135.18C126.313 136.146 125.934 137.188 125.107 137.756C125.012 137.819 124.924 137.876 124.823 137.92C124.494 138.084 124.128 138.173 123.762 138.173H106.245L54.5618 138.04C50.9376 138.033 48.5949 134.22 50.2239 130.98C55.2123 121.073 61.6107 103.103 61.6107 103.103L64.889 94.2109C51.5221 87.5305 42.0125 68.0963 44.848 53.1338C45.2983 50.7576 46.3891 48.5695 47.6077 46.4805L50.1829 42.0664C53.2981 36.7262 55.8205 30.8683 60.0618 26.3701C62.6343 23.6418 65.7721 20.925 68.6116 18.8994C69.3441 18.3753 70.0962 17.8774 70.8665 17.4102C75.1224 14.7898 79.8452 13.0151 84.4925 12.4531C85.5343 12.3269 86.5698 12.2637 87.5989 12.2637ZM87.6976 26.9346C70.2143 26.9346 56.0443 41.0728 56.0443 58.5098C56.0443 75.9468 70.2143 90.08 87.6976 90.0801C105.181 90.0801 119.351 75.9468 119.351 58.5098C119.351 41.0727 105.181 26.9395 87.6976 26.9395V26.9346Z" fill="#5937A8"/>
<path d="M109.635 25.722C98.7927 17.5764 87.6666 18.0501 87.6666 18.0501C73.5286 18.9783 65.7619 25.7158 65.7619 25.7158C47.8163 41.5524 57.2121 69.9419 57.2121 69.9419C57.2121 69.9419 63.4761 93.3873 87.6982 93.16C111.92 92.9264 118.184 69.9419 118.184 69.9419C118.184 69.9419 127.58 41.5522 109.635 25.722ZM88.3865 87.8242H87.0163C87.0163 87.8242 60.8745 86.2646 60.6283 54.3579C60.5714 47.1721 62.5541 41.4513 65.1304 36.7534L87.7235 36.5764L110.266 36.7534C112.842 41.4513 114.825 47.1721 114.768 54.3579C114.522 86.2582 88.3802 87.8242 88.3802 87.8242H88.3865Z" fill="#684DA8"/>
<path d="M66.8479 32.3153C71.4197 25.8366 79.1929 21.6689 87.1556 21.0817C93.3124 20.6207 99.8038 22.8626 104.003 27.4406C105.392 28.8867 106.497 30.5474 107.331 32.3218C103.87 30.4464 100.688 28.8171 97.398 27.9204C86.9789 24.9336 76.8186 28.7856 66.8416 32.3218L66.8479 32.3153Z" fill="#5937A8"/>
</svg>
