<svg width="174" height="240" viewBox="0 0 174 240" fill="none" xmlns="http://www.w3.org/2000/svg">
<rect width="174" height="240" fill="none"/>
<path d="M65.3163 160.5H108.884C110.201 160.5 111.27 161.46 111.27 162.637V186.811C111.27 188.37 109.858 189.632 108.12 189.632H66.0773C64.3362 189.632 62.9268 188.367 62.9268 186.811V162.637C62.9268 161.455 63.9987 160.5 65.3134 160.5H65.3163Z" fill="#513996"/>
<path d="M79.8074 89.3606C79.8074 89.3606 77.0949 86.9079 73.7036 89.3606C67.6926 86.6534 58.189 95.2235 60.295 103.064L68.108 112.496C67.9622 114.121 67.7094 122.887 67.345 127.136C66.1439 133.314 63.1433 139.221 59.0282 161.56C58.8691 162.422 81.5583 163.43 85.8139 163.226C90.067 163.427 114.91 162.433 114.966 161.56C114.997 161.062 108.728 134.186 106.58 127.136C106.58 122.139 106.073 112.618 105.927 110.995L113.986 103.59C116.436 94.4439 105.578 86.5229 100.663 89.3606C97.2689 86.908 94.4498 89.3606 94.4498 89.3606C94.4498 93.2252 79.8074 93.2979 79.8074 89.3606Z" fill="#AAD044"/>
<path d="M60.3134 103.022C60.3134 103.022 58.8936 104.179 58.963 104.714C59.2868 107.128 66.3751 112.847 68.7954 112.575C69.3101 112.517 70.2447 110.061 70.2447 110.061L60.3105 103.019L60.3134 103.022Z" fill="#ED1D87"/>
<path d="M113.823 103.437C113.823 103.437 115.389 105.061 115.224 105.707C114.488 108.627 107.738 112.324 104.826 111.643C104.206 111.498 103.387 109.519 103.387 109.519L113.82 103.437H113.823Z" fill="#ED1D87"/>
<path d="M104.591 110.648C104.575 110.621 104.572 110.589 104.587 110.557C104.615 110.493 104.693 110.452 104.768 110.464L106.381 110.77L106.967 109.336C106.98 109.304 107.008 109.277 107.039 109.26C107.07 109.242 107.111 109.236 107.145 109.242L108.758 109.548L109.344 108.114C109.373 108.05 109.45 108.009 109.525 108.021L111.138 108.327L111.725 106.892C111.737 106.86 111.765 106.834 111.796 106.817C111.827 106.799 111.868 106.793 111.902 106.799L113.515 107.105L114.101 105.671C114.13 105.607 114.208 105.566 114.282 105.578C114.354 105.592 114.392 105.653 114.367 105.72L113.73 107.274C113.702 107.339 113.624 107.379 113.549 107.368L111.937 107.062L111.35 108.496C111.338 108.528 111.31 108.554 111.278 108.572C111.247 108.589 111.207 108.595 111.172 108.589L109.56 108.283L108.973 109.718C108.961 109.75 108.933 109.776 108.901 109.793C108.87 109.811 108.83 109.817 108.795 109.811L107.183 109.505L106.596 110.939C106.568 111.003 106.49 111.044 106.415 111.032L104.672 110.7C104.634 110.691 104.609 110.674 104.594 110.648H104.591Z" fill="#B0A930"/>
<path d="M104.563 109.63C104.547 109.604 104.544 109.572 104.559 109.54C104.588 109.476 104.665 109.435 104.74 109.446L105.71 109.63L106.297 108.196C106.309 108.164 106.337 108.138 106.369 108.12C106.4 108.103 106.44 108.097 106.475 108.103L108.087 108.409L108.674 106.974C108.702 106.91 108.78 106.869 108.855 106.881L110.468 107.187L111.054 105.753C111.066 105.721 111.095 105.694 111.126 105.677C111.157 105.659 111.197 105.654 111.232 105.659L112.844 105.966L113.219 105.05C113.247 104.986 113.325 104.945 113.4 104.957C113.475 104.968 113.509 105.033 113.484 105.1L113.06 106.132C113.032 106.196 112.954 106.237 112.879 106.225L111.266 105.919L110.68 107.353C110.667 107.385 110.639 107.412 110.608 107.429C110.577 107.447 110.536 107.452 110.502 107.447L108.889 107.14L108.303 108.575C108.29 108.607 108.262 108.633 108.231 108.651C108.2 108.668 108.159 108.674 108.125 108.668L106.512 108.362L105.926 109.796C105.898 109.861 105.82 109.901 105.745 109.89L104.641 109.68C104.603 109.671 104.578 109.654 104.563 109.627V109.63Z" fill="#B0A930"/>
<path d="M104.248 110.065C104.232 110.038 104.229 110.006 104.245 109.974C104.273 109.91 104.351 109.869 104.425 109.881L106.038 110.187L106.625 108.753C106.637 108.721 106.665 108.694 106.696 108.677C106.728 108.659 106.768 108.653 106.802 108.659L108.415 108.965L109.002 107.531C109.03 107.467 109.108 107.426 109.182 107.438L110.795 107.744L111.382 106.309C111.394 106.277 111.422 106.251 111.453 106.234C111.485 106.216 111.525 106.21 111.559 106.216L113.172 106.522L113.759 105.088C113.787 105.024 113.865 104.983 113.939 104.995C114.011 105.009 114.049 105.07 114.024 105.137L113.387 106.691C113.359 106.756 113.281 106.796 113.206 106.785L111.594 106.479L111.007 107.913C110.995 107.945 110.967 107.971 110.936 107.989C110.904 108.006 110.864 108.012 110.829 108.006L109.217 107.7L108.63 109.135C108.618 109.167 108.59 109.193 108.559 109.21C108.527 109.228 108.487 109.234 108.453 109.228L106.84 108.922L106.253 110.356C106.225 110.42 106.147 110.461 106.072 110.449L104.329 110.117C104.291 110.108 104.266 110.091 104.251 110.065H104.248Z" fill="#B0A930"/>
<path d="M68.9442 111.798C68.9648 111.769 68.9717 111.732 68.9614 111.692C68.9442 111.611 68.865 111.548 68.7859 111.556L67.0523 111.681L66.6533 109.873C66.643 109.832 66.6223 109.799 66.5879 109.77C66.5535 109.74 66.5157 109.729 66.4779 109.733L64.7442 109.858L64.3452 108.05C64.328 107.969 64.2489 107.906 64.1698 107.914L62.4361 108.039L62.0371 106.231C62.0268 106.19 62.0061 106.157 61.9717 106.128C61.9373 106.098 61.8995 106.087 61.8616 106.091L60.128 106.216L59.729 104.408C59.7118 104.327 59.6327 104.264 59.5536 104.272C59.4779 104.276 59.4263 104.345 59.4435 104.43L59.8769 106.381C59.8941 106.462 59.9732 106.525 60.0523 106.517L61.786 106.392L62.185 108.201C62.1953 108.241 62.2159 108.274 62.2503 108.303C62.2847 108.333 62.3226 108.344 62.3604 108.34L64.0941 108.215L64.4931 110.023C64.5034 110.064 64.5241 110.097 64.5585 110.126C64.5929 110.156 64.6307 110.167 64.6685 110.163L66.4022 110.038L66.8012 111.846C66.8184 111.927 66.8975 111.989 66.9766 111.982L68.8513 111.846C68.8891 111.846 68.9201 111.824 68.9407 111.795L68.9442 111.798Z" fill="#B0A930"/>
<path d="M69.1262 110.582C69.1469 110.552 69.1538 110.516 69.1434 110.475C69.1262 110.394 69.0471 110.332 68.968 110.339L67.9257 110.413L67.5268 108.604C67.5164 108.564 67.4958 108.531 67.4614 108.502C67.427 108.472 67.3892 108.461 67.3513 108.465L65.6177 108.59L65.2186 106.782C65.2014 106.701 65.1223 106.638 65.0432 106.646L63.3096 106.771L62.9106 104.963C62.9002 104.922 62.8796 104.889 62.8452 104.86C62.8108 104.83 62.773 104.819 62.7351 104.823L61.0015 104.948L60.7469 103.798C60.7297 103.717 60.6506 103.654 60.5715 103.662C60.4924 103.669 60.4442 103.735 60.4614 103.82L60.7504 105.121C60.7676 105.201 60.8467 105.264 60.9258 105.257L62.6595 105.132L63.0584 106.94C63.0688 106.98 63.0894 107.013 63.1238 107.043C63.1582 107.072 63.196 107.083 63.2339 107.079L64.9675 106.954L65.3666 108.763C65.3769 108.803 65.3975 108.836 65.4319 108.865C65.4663 108.895 65.5042 108.906 65.542 108.902L67.2756 108.777L67.6746 110.585C67.6918 110.666 67.771 110.729 67.8501 110.721L69.0368 110.637C69.0746 110.637 69.1056 110.615 69.1262 110.585V110.582Z" fill="#B0A930"/>
<path d="M69.391 111.148C69.4116 111.119 69.4185 111.082 69.4082 111.041C69.391 110.961 69.3119 110.898 69.2328 110.905L67.4991 111.03L67.1001 109.222C67.0897 109.182 67.0691 109.149 67.0347 109.119C67.0003 109.09 66.9625 109.079 66.9247 109.083L65.191 109.207L64.792 107.399C64.7748 107.319 64.6957 107.256 64.6165 107.263L62.8829 107.388L62.4839 105.58C62.4736 105.54 62.4529 105.507 62.4185 105.477C62.3841 105.448 62.3463 105.437 62.3085 105.441L60.5748 105.566L60.1758 103.757C60.1586 103.677 60.0795 103.614 60.0004 103.621C59.9247 103.625 59.8731 103.695 59.8903 103.78L60.3237 105.731C60.3409 105.812 60.42 105.874 60.4991 105.867L62.2328 105.742L62.6318 107.55C62.6421 107.591 62.6628 107.624 62.6972 107.653C62.7316 107.682 62.7694 107.693 62.8072 107.69L64.5409 107.565L64.9399 109.373C64.9502 109.413 64.9708 109.446 65.0052 109.476C65.0396 109.505 65.0775 109.516 65.1153 109.513L66.849 109.388L67.248 111.196C67.2652 111.277 67.3443 111.339 67.4234 111.332L69.2981 111.196C69.3359 111.196 69.3669 111.174 69.3875 111.144L69.391 111.148Z" fill="#B0A930"/>
<path d="M97.7113 158.808C96.8283 158.808 96.1124 158.018 96.1124 157.135C96.1124 156.252 96.8283 155.536 97.7113 155.536C98.5942 155.536 99.3102 156.252 99.3102 157.135C99.3102 158.018 98.5942 158.808 97.7113 158.808Z" fill="#FF8915"/>
<path d="M97.7112 158.172C97.1703 158.172 96.7328 157.69 96.7328 157.151C96.7328 156.613 97.1703 156.173 97.7112 156.173C98.2521 156.173 98.6896 156.61 98.6896 157.151C98.6896 157.692 98.2521 158.172 97.7112 158.172Z" fill="#AAD044"/>
<path d="M103.277 158.66C101.203 158.66 99.522 156.807 99.522 154.733C99.522 152.66 101.203 150.981 103.274 150.981C105.345 150.981 107.026 152.662 107.026 154.733C107.026 156.804 105.345 158.66 103.274 158.66H103.277Z" fill="#FBA819"/>
<path d="M95.9741 151.769C95.9741 151.57 96.0988 151.382 96.2976 151.313C98.6893 150.483 102.091 150.496 103.207 150.498H103.385C103.65 150.498 103.868 150.713 103.868 150.981C103.868 151.249 103.653 151.464 103.385 151.464H103.205C102.128 151.461 98.851 151.448 96.6131 152.222C96.3613 152.309 96.0881 152.177 96.0006 151.925C95.9821 151.872 95.9741 151.819 95.9741 151.766V151.769Z" fill="#ED1D87"/>
<path d="M97.8119 152.058C97.9233 152.084 97.9948 152.196 97.9683 152.307C97.9418 152.418 97.8305 152.49 97.7164 152.463C97.6024 152.437 97.5335 152.326 97.56 152.214C97.5865 152.103 97.6979 152.031 97.8119 152.058Z" fill="#4F2208"/>
<path d="M97.1144 152.405C97.2258 152.431 97.2973 152.543 97.2708 152.654C97.2443 152.766 97.133 152.837 97.0189 152.811C96.9049 152.784 96.836 152.673 96.8625 152.561C96.889 152.45 97.0004 152.378 97.1144 152.405Z" fill="#4F2208"/>
<path d="M96.4388 152.824C96.5502 152.851 96.6218 152.962 96.5953 153.073C96.5688 153.185 96.4574 153.256 96.3434 153.23C96.2294 153.203 96.1604 153.092 96.1869 152.981C96.2135 152.869 96.3248 152.798 96.4388 152.824Z" fill="#4F2208"/>
<path d="M99.042 154.733C99.042 152.397 100.94 150.496 103.279 150.496C105.618 150.496 107.516 152.395 107.516 154.733C107.516 157.072 105.575 159.14 103.279 159.14C100.983 159.14 99.042 157.122 99.042 154.733ZM106.548 154.733C106.548 152.93 105.082 151.464 103.279 151.464C101.476 151.464 100.01 152.93 100.01 154.733C100.01 156.536 101.508 158.177 103.279 158.177C105.05 158.177 106.548 156.6 106.548 154.733Z" fill="#ED1D87"/>
<path d="M95.9977 156.756C95.9977 152.742 100.953 150.65 101.166 150.565C101.412 150.464 101.693 150.581 101.794 150.825C101.895 151.069 101.778 151.353 101.534 151.453C101.489 151.472 96.9629 153.389 96.9629 156.754C96.9629 157.223 97.0795 157.568 97.3023 157.751C97.5117 157.923 97.7583 157.907 97.8883 157.883C98.1481 157.833 98.4026 158.005 98.453 158.265C98.5034 158.525 98.3311 158.779 98.0712 158.83C97.5674 158.928 97.0663 158.806 96.6898 158.496C96.3743 158.236 96.0004 157.724 96.0004 156.754L95.9977 156.756Z" fill="#ED1D87"/>
<path d="M103.277 157.456C101.853 157.456 100.699 156.184 100.699 154.76C100.699 153.336 101.856 152.182 103.277 152.182C104.698 152.182 105.854 153.338 105.854 154.76C105.854 156.181 104.698 157.456 103.277 157.456Z" fill="#8B3B16"/>
<path d="M103.277 155.658C102.824 155.658 102.458 155.253 102.458 154.799C102.458 154.346 102.826 153.98 103.277 153.98C103.728 153.98 104.096 154.348 104.096 154.799C104.096 155.25 103.728 155.658 103.277 155.658Z" fill="#ED1D87"/>
<path d="M104.391 154.813C104.391 154.762 104.417 154.723 104.558 154.624C104.563 154.622 105.04 154.296 105.175 154.346C105.221 154.362 105.279 154.386 105.279 154.773C105.279 155.195 105.221 155.245 105.202 155.261C105.149 155.309 105.075 155.29 104.971 155.242C104.966 155.242 104.391 154.961 104.391 154.81V154.813ZM105.093 154.513C104.995 154.553 104.701 154.723 104.589 154.81C104.695 154.895 104.974 155.065 105.091 155.107C105.096 155.054 105.109 154.929 105.109 154.773C105.109 154.635 105.101 154.556 105.093 154.513Z" fill="white"/>
<path d="M101.124 154.855C101.124 154.433 101.182 154.383 101.201 154.367C101.254 154.319 101.328 154.338 101.431 154.386C101.437 154.386 102.012 154.667 102.012 154.818C102.012 154.871 101.972 154.919 101.848 155.006C101.842 155.009 101.362 155.338 101.227 155.287C101.182 155.269 101.124 155.247 101.124 154.858V154.855ZM101.312 154.518C101.307 154.571 101.293 154.696 101.293 154.852C101.293 154.99 101.301 155.072 101.309 155.112C101.407 155.072 101.702 154.903 101.813 154.815C101.707 154.73 101.429 154.561 101.312 154.518Z" fill="white"/>
<path d="M102.725 156.74C102.725 156.626 103.059 156.003 103.203 156.003C103.356 156.003 103.677 156.653 103.677 156.748L103.669 156.791C103.648 156.846 103.59 156.865 103.531 156.876C103.404 156.899 102.837 156.915 102.749 156.817L102.728 156.793L102.723 156.743L102.725 156.74ZM103.203 156.202C103.115 156.308 102.945 156.592 102.906 156.706C103.017 156.724 103.378 156.73 103.502 156.706C103.462 156.61 103.293 156.313 103.203 156.202Z" fill="white"/>
<path d="M102.725 152.88L102.733 152.837C102.754 152.782 102.812 152.763 102.871 152.752C103.003 152.729 103.563 152.71 103.653 152.811L103.674 152.835L103.679 152.885C103.679 152.999 103.345 153.622 103.202 153.622C103.048 153.622 102.728 152.973 102.728 152.877L102.725 152.88ZM103.496 152.922C103.388 152.904 103.038 152.901 102.908 152.922C102.953 153.041 103.112 153.32 103.199 153.426C103.287 153.32 103.457 153.036 103.496 152.922Z" fill="white"/>
<path d="M104.009 155.754C104.009 155.722 104.011 155.682 104.043 155.653C104.083 155.613 104.144 155.611 104.292 155.637C104.298 155.637 104.868 155.746 104.929 155.879L104.937 155.921C104.937 155.947 104.937 156.032 104.629 156.321C104.382 156.552 104.324 156.549 104.295 156.547C104.107 156.533 104.006 155.794 104.006 155.754H104.009ZM104.751 155.939C104.656 155.897 104.324 155.81 104.186 155.796C104.2 155.947 104.282 156.258 104.335 156.364C104.425 156.3 104.685 156.046 104.756 155.942L104.751 155.939Z" fill="#4F2208"/>
<path d="M101.466 153.707C101.466 153.68 101.466 153.596 101.773 153.307C102.02 153.076 102.078 153.078 102.108 153.081C102.296 153.092 102.397 153.834 102.397 153.874C102.397 153.906 102.394 153.948 102.362 153.975C102.328 154.009 102.28 154.02 102.11 153.988C102.105 153.988 101.535 153.879 101.474 153.747L101.466 153.704V153.707ZM102.073 153.267C101.983 153.33 101.723 153.585 101.652 153.688C101.747 153.728 102.073 153.816 102.216 153.832C102.2 153.67 102.121 153.37 102.07 153.264L102.073 153.267Z" fill="#4F2208"/>
<path d="M101.468 155.918V155.913C101.471 155.844 101.54 155.802 101.646 155.762C101.651 155.762 102.256 155.55 102.362 155.656C102.391 155.685 102.396 155.725 102.396 155.754C102.396 155.852 102.274 156.48 102.139 156.541C102.08 156.568 102.022 156.528 101.996 156.512C101.882 156.438 101.471 156.046 101.471 155.916L101.468 155.918ZM102.221 155.796C102.086 155.81 101.776 155.887 101.659 155.94C101.736 156.051 101.972 156.292 102.075 156.364C102.115 156.271 102.202 155.953 102.218 155.796H102.221Z" fill="#4F2208"/>
<path d="M104.009 153.871C104.009 153.773 104.131 153.145 104.266 153.084C104.324 153.057 104.383 153.097 104.409 153.113C104.523 153.187 104.934 153.58 104.934 153.71C104.931 153.787 104.862 153.826 104.756 153.866C104.751 153.866 104.147 154.078 104.04 153.972C104.011 153.943 104.006 153.903 104.006 153.871H104.009ZM104.327 153.264C104.287 153.357 104.2 153.675 104.184 153.832C104.322 153.818 104.642 153.739 104.748 153.683C104.685 153.593 104.43 153.333 104.327 153.261V153.264Z" fill="#4F2208"/>
<path d="M97.7109 157.517C97.5253 157.517 97.3741 157.35 97.3741 157.167C97.3741 156.984 97.5253 156.83 97.7109 156.83C97.8965 156.83 98.0476 156.981 98.0476 157.167C98.0476 157.353 97.8965 157.517 97.7109 157.517Z" fill="#4F2208"/>
<path d="M95.0253 133.359C95.0253 132.792 95.5317 132.336 96.0965 132.336C96.6613 132.336 97.12 132.794 97.12 133.359C97.12 133.924 96.6613 134.383 96.0965 134.383C95.5317 134.383 95.0253 133.924 95.0253 133.359Z" fill="#FF8915"/>
<path d="M95.4336 133.359C95.4336 133.015 95.7412 132.734 96.0885 132.734C96.4359 132.734 96.7143 133.015 96.7143 133.359C96.7143 133.704 96.4332 133.985 96.0885 133.985C95.7438 133.985 95.4336 133.704 95.4336 133.359Z" fill="#AAD044"/>
<path d="M95.1206 136.923C95.1206 135.597 96.3058 134.521 97.6342 134.521C98.9626 134.521 100.037 135.597 100.037 136.923C100.037 138.249 98.96 139.325 97.6342 139.325C96.3085 139.325 95.1206 138.251 95.1206 136.923Z" fill="#FBA819"/>
<path d="M99.53 132.248C99.6572 132.248 99.7765 132.328 99.8216 132.455C100.352 133.985 100.344 136.162 100.341 136.878V136.992C100.341 137.161 100.203 137.299 100.034 137.299C99.8641 137.299 99.7262 137.161 99.7262 136.992V136.875C99.7288 136.186 99.7368 134.088 99.241 132.657C99.1853 132.495 99.2701 132.32 99.4319 132.264C99.4663 132.251 99.4981 132.246 99.5326 132.246L99.53 132.248Z" fill="#ED1D87"/>
<path d="M99.3442 133.426C99.3283 133.497 99.2567 133.542 99.1851 133.526C99.1135 133.511 99.0685 133.439 99.0844 133.367C99.1003 133.296 99.1719 133.251 99.2435 133.267C99.3151 133.283 99.3602 133.354 99.3442 133.426Z" fill="#4F2208"/>
<path d="M99.1222 132.98C99.1063 133.052 99.0347 133.097 98.9631 133.081C98.8915 133.065 98.8464 132.993 98.8623 132.922C98.8782 132.85 98.9498 132.805 99.0214 132.821C99.093 132.837 99.1381 132.908 99.1222 132.98Z" fill="#4F2208"/>
<path d="M98.8572 132.545C98.8412 132.617 98.7697 132.662 98.6981 132.646C98.6265 132.63 98.5814 132.558 98.5973 132.487C98.6132 132.415 98.6848 132.37 98.7564 132.386C98.828 132.402 98.8731 132.474 98.8572 132.545Z" fill="#4F2208"/>
<path d="M97.6338 134.213C99.1292 134.213 100.344 135.43 100.344 136.923C100.344 138.416 99.1266 139.633 97.6338 139.633C96.141 139.633 94.8126 138.392 94.8126 136.923C94.8126 135.454 96.1038 134.213 97.6338 134.213ZM97.6338 139.015C98.7898 139.015 99.7258 138.076 99.7258 136.923C99.7258 135.77 98.7872 134.831 97.6338 134.831C96.4804 134.831 95.4304 135.791 95.4304 136.923C95.4304 138.055 96.4406 139.015 97.6338 139.015Z" fill="#ED1D87"/>
<path d="M96.3381 132.264C98.9048 132.264 100.244 135.435 100.3 135.571C100.363 135.73 100.289 135.91 100.132 135.974C99.976 136.037 99.7931 135.966 99.7294 135.807C99.7162 135.778 98.4912 132.882 96.3355 132.882C96.0332 132.882 95.8132 132.956 95.6965 133.099C95.5851 133.232 95.5957 133.391 95.6116 133.473C95.6434 133.64 95.5348 133.802 95.3677 133.834C95.2007 133.866 95.0389 133.757 95.0071 133.59C94.9434 133.266 95.023 132.946 95.2219 132.707C95.3889 132.505 95.715 132.264 96.3355 132.264H96.3381Z" fill="#ED1D87"/>
<path d="M95.8898 136.923C95.8898 136.011 96.7038 135.271 97.6159 135.271C98.528 135.271 99.2678 136.011 99.2678 136.923C99.2678 137.835 98.528 138.575 97.6159 138.575C96.7038 138.575 95.8898 137.835 95.8898 136.925V136.923Z" fill="#8B3B16"/>
<path d="M97.0408 136.923C97.0408 136.634 97.3007 136.398 97.5897 136.398C97.8787 136.398 98.1147 136.634 98.1147 136.923C98.1147 137.212 97.8787 137.448 97.5897 137.448C97.3007 137.448 97.0408 137.212 97.0408 136.923Z" fill="#ED1D87"/>
<path d="M97.584 137.636C97.6158 137.636 97.6423 137.652 97.706 137.742C97.706 137.745 97.9181 138.05 97.8836 138.137C97.873 138.166 97.8597 138.203 97.6105 138.203C97.3401 138.203 97.3082 138.166 97.2976 138.153C97.2684 138.119 97.2791 138.071 97.3109 138.005C97.3109 138.002 97.4912 137.633 97.5866 137.633L97.584 137.636ZM97.7722 138.084C97.7484 138.02 97.6397 137.835 97.5813 137.763C97.5283 137.83 97.4196 138.01 97.3931 138.084C97.4275 138.087 97.5071 138.095 97.6079 138.095C97.6954 138.095 97.7484 138.089 97.7749 138.084H97.7722Z" fill="white"/>
<path d="M97.5552 135.544C97.8257 135.544 97.8575 135.581 97.8681 135.594C97.8972 135.629 97.8867 135.677 97.8548 135.743C97.8548 135.745 97.6745 136.114 97.5791 136.114C97.5446 136.114 97.5154 136.088 97.4597 136.008C97.4597 136.005 97.2476 135.698 97.2821 135.61C97.2927 135.581 97.306 135.544 97.5552 135.544ZM97.77 135.666C97.7355 135.663 97.656 135.655 97.5552 135.655C97.4677 135.655 97.4147 135.661 97.3882 135.666C97.412 135.73 97.5234 135.915 97.5791 135.987C97.6321 135.92 97.7408 135.74 97.7673 135.666H97.77Z" fill="white"/>
<path d="M96.3483 136.57C96.4225 136.57 96.8202 136.785 96.8202 136.875C96.8202 136.973 96.4039 137.178 96.343 137.178L96.3165 137.172C96.282 137.159 96.2687 137.119 96.2634 137.085C96.2475 137.005 96.2369 136.642 96.3005 136.586L96.3165 136.573H96.3509L96.3483 136.57ZM96.693 136.875C96.624 136.82 96.4437 136.711 96.3695 136.684C96.3562 136.753 96.3562 136.987 96.3695 137.066C96.4305 137.042 96.6214 136.931 96.693 136.875Z" fill="white"/>
<path d="M98.8194 136.57L98.8459 136.576C98.8804 136.589 98.8936 136.629 98.8989 136.663C98.9149 136.748 98.9255 137.106 98.8618 137.162L98.8459 137.175H98.8115C98.7372 137.177 98.3395 136.965 98.3395 136.873C98.3395 136.775 98.7558 136.57 98.8168 136.57H98.8194ZM98.7929 137.063C98.8061 136.995 98.8061 136.772 98.7929 136.687C98.716 136.716 98.5383 136.82 98.4694 136.873C98.5383 136.928 98.7186 137.037 98.7929 137.063Z" fill="white"/>
<path d="M96.9795 137.392C97.0007 137.392 97.0246 137.392 97.0432 137.413C97.067 137.437 97.0697 137.477 97.0511 137.572C97.0511 137.575 96.9822 137.941 96.8973 137.978L96.8682 137.984C96.8496 137.984 96.7992 137.983 96.6136 137.787C96.4651 137.628 96.4678 137.594 96.4678 137.572C96.4757 137.451 96.9504 137.387 96.9742 137.387H96.9769L96.9795 137.392ZM96.8602 137.867C96.8867 137.806 96.9424 137.596 96.953 137.504C96.8576 137.512 96.6587 137.565 96.5898 137.599C96.6322 137.657 96.7939 137.822 96.8602 137.867Z" fill="#4F2208"/>
<path d="M98.2893 135.764C98.3079 135.764 98.3583 135.764 98.5439 135.96C98.6924 136.119 98.6897 136.154 98.6897 136.175C98.6818 136.297 98.2072 136.361 98.1833 136.361C98.1621 136.361 98.1356 136.361 98.1197 136.34C98.0985 136.318 98.0905 136.286 98.1117 136.18C98.1117 136.178 98.1806 135.812 98.2655 135.775L98.2947 135.769H98.292L98.2893 135.764ZM98.5704 136.151C98.528 136.093 98.3663 135.929 98.3 135.884C98.2735 135.945 98.2178 136.154 98.2072 136.247C98.3106 136.236 98.5041 136.188 98.5704 136.154V136.151Z" fill="#4F2208"/>
<path d="M96.8762 135.764H96.8789C96.924 135.767 96.9478 135.809 96.9743 135.878C96.9743 135.881 97.1096 136.268 97.0433 136.337C97.0247 136.355 96.9982 136.358 96.9796 136.358C96.916 136.358 96.5156 136.281 96.4758 136.194C96.4573 136.157 96.4838 136.119 96.4944 136.103C96.5421 136.029 96.7914 135.767 96.8736 135.767L96.8762 135.764ZM96.9531 136.247C96.9452 136.162 96.8948 135.96 96.863 135.889C96.7914 135.939 96.6376 136.09 96.5925 136.154C96.6509 136.178 96.8577 136.236 96.9558 136.247H96.9531Z" fill="#4F2208"/>
<path d="M98.1829 137.39C98.2465 137.39 98.6469 137.467 98.6866 137.554C98.7052 137.591 98.6787 137.628 98.6681 137.644C98.6204 137.718 98.3711 137.978 98.2889 137.978C98.2385 137.976 98.2147 137.933 98.1882 137.864C98.1882 137.862 98.053 137.474 98.1192 137.406C98.1378 137.387 98.1643 137.384 98.1829 137.384V137.39ZM98.5726 137.594C98.5143 137.57 98.3075 137.512 98.2094 137.501C98.2173 137.588 98.2677 137.793 98.3048 137.864C98.3632 137.822 98.5276 137.66 98.5726 137.594Z" fill="#4F2208"/>
<path d="M95.8523 133.359C95.8523 133.24 95.9583 133.144 96.0777 133.144C96.197 133.144 96.2925 133.24 96.2925 133.359C96.2925 133.478 96.197 133.574 96.0777 133.574C95.9583 133.574 95.8523 133.478 95.8523 133.359Z" fill="#4F2208"/>
<path d="M90.274 116.156C90.274 115.589 90.7804 115.133 91.3452 115.133C91.91 115.133 92.3687 115.591 92.3687 116.156C92.3687 116.721 91.91 117.18 91.3452 117.18C90.7804 117.18 90.274 116.721 90.274 116.156Z" fill="#FF8915"/>
<path d="M90.6823 116.156C90.6823 115.811 90.9898 115.53 91.3372 115.53C91.6845 115.53 91.9629 115.811 91.9629 116.156C91.9629 116.501 91.6819 116.782 91.3372 116.782C90.9925 116.782 90.6823 116.501 90.6823 116.156Z" fill="#AAD044"/>
<path d="M90.3694 119.72C90.3694 118.394 91.5546 117.318 92.883 117.318C94.2114 117.318 95.2853 118.394 95.2853 119.72C95.2853 121.046 94.2088 122.122 92.883 122.122C91.5573 122.122 90.3694 121.048 90.3694 119.72Z" fill="#FBA819"/>
<path d="M94.7787 115.045C94.906 115.045 95.0253 115.125 95.0704 115.252C95.6007 116.782 95.5927 118.959 95.5901 119.675V119.789C95.5901 119.958 95.4522 120.096 95.2825 120.096C95.1128 120.096 94.9749 119.958 94.9749 119.789V119.672C94.9775 118.983 94.9855 116.885 94.4897 115.453C94.434 115.292 94.5188 115.117 94.6806 115.061C94.715 115.048 94.7469 115.042 94.7813 115.042L94.7787 115.045Z" fill="#ED1D87"/>
<path d="M94.5929 116.222C94.577 116.294 94.5054 116.339 94.4338 116.323C94.3623 116.307 94.3172 116.236 94.3331 116.164C94.349 116.093 94.4206 116.048 94.4922 116.063C94.5638 116.079 94.6088 116.151 94.5929 116.222Z" fill="#4F2208"/>
<path d="M94.3703 115.774C94.3544 115.846 94.2828 115.891 94.2112 115.875C94.1396 115.859 94.0946 115.788 94.1105 115.716C94.1264 115.645 94.198 115.599 94.2696 115.615C94.3412 115.631 94.3862 115.703 94.3703 115.774Z" fill="#4F2208"/>
<path d="M94.1047 115.342C94.0888 115.414 94.0172 115.459 93.9456 115.443C93.874 115.427 93.829 115.355 93.8449 115.284C93.8608 115.212 93.9324 115.167 94.004 115.183C94.0755 115.199 94.1206 115.271 94.1047 115.342Z" fill="#4F2208"/>
<path d="M92.8825 117.01C94.3779 117.01 95.5923 118.227 95.5923 119.72C95.5923 121.213 94.3753 122.43 92.8825 122.43C91.3897 122.43 90.0613 121.189 90.0613 119.72C90.0613 118.251 91.3526 117.01 92.8825 117.01ZM92.8825 121.812C94.0385 121.812 94.9745 120.873 94.9745 119.72C94.9745 118.566 94.0359 117.628 92.8825 117.628C91.7291 117.628 90.6791 118.588 90.6791 119.72C90.6791 120.852 91.6893 121.812 92.8825 121.812Z" fill="#ED1D87"/>
<path d="M91.5863 115.061C94.153 115.061 95.492 118.233 95.5476 118.368C95.6113 118.527 95.537 118.707 95.3806 118.771C95.2242 118.834 95.0412 118.763 94.9776 118.604C94.9643 118.574 93.7393 115.679 91.5837 115.679C91.2814 115.679 91.0613 115.753 90.9446 115.896C90.8333 116.029 90.8439 116.188 90.8598 116.27C90.8916 116.437 90.7829 116.599 90.6158 116.631C90.4488 116.663 90.2871 116.554 90.2552 116.387C90.1916 116.064 90.2711 115.743 90.47 115.504C90.637 115.303 90.9632 115.061 91.5837 115.061H91.5863Z" fill="#ED1D87"/>
<path d="M91.1379 119.72C91.1379 118.808 91.952 118.068 92.8641 118.068C93.7762 118.068 94.516 118.808 94.516 119.72C94.516 120.632 93.7762 121.372 92.8641 121.372C91.952 121.372 91.1379 120.632 91.1379 119.723V119.72Z" fill="#8B3B16"/>
<path d="M92.2918 119.72C92.2918 119.431 92.5517 119.195 92.8407 119.195C93.1297 119.195 93.3657 119.431 93.3657 119.72C93.3657 120.009 93.1297 120.245 92.8407 120.245C92.5517 120.245 92.2918 120.009 92.2918 119.72Z" fill="#ED1D87"/>
<path d="M92.8328 120.433C92.8646 120.433 92.8911 120.449 92.9547 120.539C92.9547 120.542 93.1668 120.847 93.1324 120.934C93.1218 120.964 93.1085 121.001 92.8593 121.001C92.5888 121.001 92.557 120.964 92.5464 120.95C92.5172 120.916 92.5278 120.868 92.5596 120.802C92.5596 120.799 92.74 120.431 92.8354 120.431L92.8328 120.433ZM93.021 120.881C92.9971 120.818 92.8884 120.632 92.8301 120.561C92.7771 120.627 92.6684 120.807 92.6419 120.881C92.6763 120.884 92.7559 120.892 92.8566 120.892C92.9441 120.892 92.9971 120.887 93.0237 120.881H93.021Z" fill="white"/>
<path d="M92.8029 118.341C93.0734 118.341 93.1052 118.378 93.1158 118.391C93.145 118.426 93.1343 118.474 93.1025 118.54C93.1025 118.543 92.9222 118.911 92.8268 118.911C92.7923 118.911 92.7631 118.885 92.7075 118.805C92.7075 118.802 92.4953 118.495 92.5298 118.407C92.5404 118.378 92.5537 118.341 92.8029 118.341ZM93.0203 118.463C92.9858 118.46 92.9063 118.452 92.8056 118.452C92.7181 118.452 92.665 118.458 92.6385 118.463C92.6624 118.527 92.7737 118.712 92.8294 118.784C92.8824 118.718 92.9911 118.537 93.0177 118.463H93.0203Z" fill="white"/>
<path d="M91.5964 119.367C91.6707 119.367 92.0684 119.582 92.0684 119.672C92.0684 119.77 91.6521 119.975 91.5911 119.975L91.5646 119.969C91.5301 119.956 91.5169 119.916 91.5116 119.882C91.4957 119.802 91.4851 119.439 91.5487 119.383L91.5646 119.37H91.5991L91.5964 119.367ZM91.9411 119.672C91.8722 119.617 91.6919 119.508 91.6177 119.481C91.6044 119.55 91.6044 119.784 91.6177 119.863C91.6786 119.839 91.8695 119.728 91.9411 119.672Z" fill="white"/>
<path d="M94.0682 119.367L94.0947 119.373C94.1292 119.386 94.1424 119.426 94.1477 119.46C94.1636 119.545 94.1743 119.903 94.1106 119.959L94.0947 119.972H94.0602C93.986 119.975 93.5883 119.762 93.5883 119.67C93.5883 119.572 94.0046 119.367 94.0655 119.367H94.0682ZM94.0417 119.861C94.0549 119.792 94.0549 119.569 94.0417 119.484C93.9648 119.513 93.7871 119.617 93.7182 119.67C93.7871 119.725 93.9674 119.834 94.0417 119.861Z" fill="white"/>
<path d="M92.2277 120.189C92.2489 120.189 92.2728 120.189 92.2914 120.21C92.3152 120.234 92.3179 120.274 92.2993 120.369C92.2993 120.372 92.2304 120.738 92.1455 120.775L92.1164 120.78C92.0978 120.78 92.0474 120.78 91.8618 120.584C91.7133 120.425 91.716 120.391 91.716 120.369C91.724 120.248 92.1986 120.184 92.2224 120.184H92.2251L92.2277 120.189ZM92.1084 120.661C92.1349 120.6 92.1906 120.391 92.2012 120.298C92.1058 120.306 91.9069 120.359 91.838 120.393C91.8804 120.452 92.0421 120.616 92.1084 120.661Z" fill="#4F2208"/>
<path d="M93.5376 118.559C93.5562 118.559 93.6065 118.559 93.7921 118.755C93.9406 118.914 93.938 118.948 93.938 118.97C93.93 119.092 93.4554 119.155 93.4315 119.155C93.4103 119.155 93.3838 119.155 93.3679 119.134C93.3467 119.113 93.3387 119.081 93.3599 118.975C93.3599 118.972 93.4289 118.606 93.5138 118.569L93.5429 118.564H93.5403L93.5376 118.559ZM93.8213 118.948C93.7789 118.89 93.6171 118.726 93.5508 118.681C93.5243 118.742 93.4687 118.951 93.4581 119.044C93.5615 119.033 93.755 118.985 93.8213 118.951V118.948Z" fill="#4F2208"/>
<path d="M92.1249 118.561H92.1276C92.1726 118.564 92.1965 118.606 92.223 118.675C92.223 118.678 92.3582 119.065 92.292 119.134C92.2734 119.152 92.2469 119.155 92.2283 119.155C92.1647 119.155 91.7643 119.078 91.7246 118.991C91.706 118.954 91.7325 118.917 91.7431 118.901C91.7908 118.826 92.0401 118.564 92.1223 118.564L92.1249 118.561ZM92.2018 119.041C92.1939 118.956 92.1435 118.755 92.1117 118.683C92.0401 118.734 91.8863 118.885 91.8412 118.948C91.8995 118.972 92.1064 119.031 92.2045 119.041H92.2018Z" fill="#4F2208"/>
<path d="M93.4317 120.187C93.4953 120.187 93.8957 120.264 93.9354 120.351C93.954 120.388 93.9275 120.425 93.9169 120.441C93.8691 120.515 93.6199 120.775 93.5377 120.775C93.4873 120.773 93.4635 120.73 93.437 120.661C93.437 120.659 93.3017 120.272 93.368 120.203C93.3866 120.184 93.4131 120.181 93.4317 120.181V120.187ZM93.8214 120.391C93.7631 120.367 93.5563 120.309 93.4582 120.298C93.4661 120.386 93.5165 120.59 93.5536 120.661C93.6119 120.619 93.7763 120.457 93.8214 120.391Z" fill="#4F2208"/>
<path d="M91.1011 116.156C91.1011 116.037 91.2072 115.941 91.3265 115.941C91.4458 115.941 91.5412 116.037 91.5412 116.156C91.5412 116.276 91.4458 116.371 91.3265 116.371C91.2072 116.371 91.1011 116.276 91.1011 116.156Z" fill="#4F2208"/>
<path d="M75.526 117.578C75.526 117.01 76.0324 116.554 76.5972 116.554C77.162 116.554 77.6207 117.013 77.6207 117.578C77.6207 118.142 77.162 118.601 76.5972 118.601C76.0324 118.601 75.526 118.142 75.526 117.578Z" fill="#FF8915"/>
<path d="M75.9343 117.578C75.9343 117.233 76.2419 116.952 76.5892 116.952C76.9366 116.952 77.215 117.233 77.215 117.578C77.215 117.922 76.9339 118.203 76.5892 118.203C76.2445 118.203 75.9343 117.922 75.9343 117.578Z" fill="#AAD044"/>
<path d="M75.6241 121.139C75.6241 119.813 76.8094 118.736 78.1378 118.736C79.4662 118.736 80.5401 119.813 80.5401 121.139C80.5401 122.464 79.4635 123.541 78.1378 123.541C76.812 123.541 75.6241 122.467 75.6241 121.139Z" fill="#FBA819"/>
<path d="M80.034 116.466C80.1613 116.466 80.2806 116.546 80.3256 116.673C80.856 118.203 80.848 120.38 80.8454 121.096V121.21C80.8454 121.379 80.7075 121.517 80.5378 121.517C80.3681 121.517 80.2302 121.379 80.2302 121.21V121.093C80.2329 120.404 80.2408 118.306 79.745 116.875C79.6893 116.713 79.7741 116.538 79.9359 116.482C79.9704 116.469 80.0022 116.464 80.0366 116.464L80.034 116.466Z" fill="#ED1D87"/>
<path d="M79.8482 117.641C79.8323 117.713 79.7607 117.758 79.6892 117.742C79.6176 117.726 79.5725 117.654 79.5884 117.583C79.6043 117.511 79.6759 117.466 79.7475 117.482C79.8191 117.498 79.8642 117.569 79.8482 117.641Z" fill="#4F2208"/>
<path d="M79.6251 117.196C79.6092 117.267 79.5376 117.312 79.466 117.296C79.3944 117.281 79.3493 117.209 79.3653 117.137C79.3812 117.066 79.4528 117.021 79.5244 117.037C79.596 117.053 79.641 117.124 79.6251 117.196Z" fill="#4F2208"/>
<path d="M79.3574 116.763C79.3415 116.835 79.2698 116.88 79.1983 116.864C79.1267 116.848 79.0816 116.777 79.0975 116.705C79.1134 116.634 79.185 116.588 79.2566 116.604C79.3282 116.62 79.3733 116.692 79.3574 116.763Z" fill="#4F2208"/>
<path d="M78.1378 118.429C79.6333 118.429 80.8477 119.646 80.8477 121.138C80.8477 122.631 79.6306 123.848 78.1378 123.848C76.645 123.848 75.3167 122.607 75.3167 121.138C75.3167 119.67 76.6079 118.429 78.1378 118.429ZM78.1378 123.231C79.2939 123.231 80.2299 122.292 80.2299 121.138C80.2299 119.985 79.2912 119.047 78.1378 119.047C76.9844 119.047 75.9344 120.006 75.9344 121.138C75.9344 122.271 76.9446 123.231 78.1378 123.231Z" fill="#ED1D87"/>
<path d="M76.8389 116.482C79.4056 116.482 80.7446 119.653 80.8003 119.789C80.8639 119.948 80.7897 120.128 80.6332 120.192C80.4768 120.255 80.2938 120.184 80.2302 120.025C80.2169 119.996 78.992 117.1 76.8363 117.1C76.534 117.1 76.3139 117.174 76.1973 117.318C76.0859 117.45 76.0965 117.609 76.1124 117.691C76.1442 117.858 76.0355 118.02 75.8685 118.052C75.7014 118.084 75.5397 117.975 75.5079 117.808C75.4442 117.484 75.5238 117.164 75.7226 116.925C75.8897 116.724 76.2158 116.482 76.8363 116.482H76.8389Z" fill="#ED1D87"/>
<path d="M76.3927 121.138C76.3927 120.226 77.2067 119.487 78.1188 119.487C79.031 119.487 79.7707 120.226 79.7707 121.138C79.7707 122.051 79.031 122.79 78.1188 122.79C77.2067 122.79 76.3927 122.051 76.3927 121.141V121.138Z" fill="#8B3B16"/>
<path d="M77.5438 121.138C77.5438 120.849 77.8036 120.613 78.0926 120.613C78.3817 120.613 78.6176 120.849 78.6176 121.138C78.6176 121.427 78.3817 121.663 78.0926 121.663C77.8036 121.663 77.5438 121.427 77.5438 121.138Z" fill="#ED1D87"/>
<path d="M78.0847 121.851C78.1165 121.851 78.143 121.867 78.2067 121.958C78.2067 121.96 78.4188 122.265 78.3843 122.353C78.3737 122.382 78.3605 122.419 78.1112 122.419C77.8408 122.419 77.809 122.382 77.7984 122.369C77.7692 122.334 77.7798 122.286 77.8116 122.22C77.8116 122.217 77.9919 121.849 78.0874 121.849L78.0847 121.851ZM78.2756 122.3C78.2517 122.236 78.143 122.05 78.0847 121.979C78.0317 122.045 77.923 122.225 77.8965 122.3C77.9309 122.302 78.0105 122.31 78.1112 122.31C78.1987 122.31 78.2517 122.305 78.2783 122.3H78.2756Z" fill="white"/>
<path d="M78.0582 119.76C78.3286 119.76 78.3604 119.797 78.371 119.81C78.4002 119.845 78.3896 119.892 78.3578 119.959C78.3578 119.961 78.1775 120.33 78.082 120.33C78.0475 120.33 78.0184 120.303 77.9627 120.224C77.9627 120.221 77.7506 119.914 77.785 119.826C77.7956 119.797 77.8089 119.76 78.0582 119.76ZM78.2729 119.882C78.2384 119.879 78.1589 119.871 78.0582 119.871C77.9707 119.871 77.9176 119.876 77.8911 119.882C77.915 119.945 78.0263 120.131 78.082 120.203C78.135 120.136 78.2437 119.956 78.2703 119.882H78.2729Z" fill="white"/>
<path d="M76.8517 120.786C76.926 120.786 77.3237 121.001 77.3237 121.091C77.3237 121.189 76.9074 121.393 76.8464 121.393L76.8199 121.388C76.7854 121.374 76.7722 121.335 76.7669 121.3C76.751 121.221 76.7404 120.857 76.804 120.802L76.8199 120.788H76.8544L76.8517 120.786ZM77.1964 121.091C77.1275 121.035 76.9472 120.926 76.873 120.9C76.8597 120.969 76.8597 121.202 76.873 121.282C76.934 121.258 77.1249 121.146 77.1964 121.091Z" fill="white"/>
<path d="M79.3208 120.786L79.3473 120.791C79.3817 120.804 79.395 120.844 79.4003 120.878C79.4162 120.963 79.4268 121.321 79.3632 121.377L79.3473 121.39H79.3128C79.2386 121.393 78.8408 121.181 78.8408 121.088C78.8408 120.99 79.2571 120.786 79.3181 120.786H79.3208ZM79.2943 121.279C79.3075 121.21 79.3075 120.987 79.2943 120.902C79.2174 120.932 79.0397 121.035 78.9707 121.088C79.0397 121.144 79.22 121.252 79.2943 121.279Z" fill="white"/>
<path d="M77.4802 121.608C77.5014 121.608 77.5253 121.608 77.5439 121.629C77.5677 121.653 77.5704 121.692 77.5518 121.788C77.5518 121.791 77.4829 122.156 77.3981 122.194L77.3689 122.199C77.3503 122.199 77.2999 122.199 77.1143 122.003C76.9658 121.844 76.9685 121.809 76.9685 121.788C76.9765 121.666 77.4511 121.602 77.4749 121.602H77.4776L77.4802 121.608ZM77.3636 122.082C77.3901 122.021 77.4458 121.812 77.4564 121.719C77.3609 121.727 77.1621 121.78 77.0931 121.814C77.1355 121.873 77.2973 122.037 77.3636 122.082Z" fill="#4F2208"/>
<path d="M78.7923 119.98C78.8109 119.98 78.8612 119.98 79.0468 120.176C79.1953 120.335 79.1927 120.37 79.1927 120.391C79.1847 120.513 78.7101 120.576 78.6862 120.576C78.665 120.576 78.6385 120.576 78.6226 120.555C78.6014 120.534 78.5934 120.502 78.6146 120.396C78.6146 120.393 78.6836 120.027 78.7684 119.99L78.7976 119.985H78.795L78.7923 119.98ZM79.0734 120.37C79.0309 120.311 78.8692 120.147 78.8029 120.102C78.7764 120.163 78.7207 120.372 78.7101 120.465C78.8135 120.454 79.0071 120.407 79.0734 120.372V120.37Z" fill="#4F2208"/>
<path d="M77.377 119.982H77.3797C77.4247 119.985 77.4486 120.028 77.4751 120.096C77.4751 120.099 77.6103 120.486 77.5441 120.555C77.5255 120.574 77.499 120.576 77.4804 120.576C77.4168 120.576 77.0164 120.499 76.9766 120.412C76.9581 120.375 76.9846 120.338 76.9952 120.322C77.0429 120.248 77.2922 119.985 77.3744 119.985L77.377 119.982ZM77.4539 120.462C77.446 120.378 77.3956 120.176 77.3638 120.104C77.2922 120.155 77.1384 120.306 77.0933 120.37C77.1517 120.393 77.3585 120.452 77.4566 120.462H77.4539Z" fill="#4F2208"/>
<path d="M78.6836 121.608C78.7472 121.608 79.1476 121.685 79.1874 121.772C79.206 121.809 79.1794 121.846 79.1688 121.862C79.1211 121.936 78.8719 122.196 78.7897 122.196C78.7393 122.194 78.7154 122.151 78.6889 122.082C78.6889 122.08 78.5537 121.692 78.62 121.624C78.6385 121.605 78.665 121.602 78.6836 121.602V121.608ZM79.0734 121.812C79.015 121.788 78.8082 121.73 78.7101 121.719C78.7181 121.806 78.7684 122.011 78.8056 122.082C78.8639 122.04 79.0283 121.878 79.0734 121.812Z" fill="#4F2208"/>
<path d="M76.3531 117.578C76.3531 117.458 76.4591 117.363 76.5785 117.363C76.6978 117.363 76.7932 117.458 76.7932 117.578C76.7932 117.697 76.6978 117.792 76.5785 117.792C76.4591 117.792 76.3531 117.697 76.3531 117.578Z" fill="#4F2208"/>
<path d="M81.7539 128.701C81.7539 127.823 82.5388 127.11 83.4164 127.11C84.2941 127.11 85.0047 127.82 85.0047 128.701C85.0047 129.581 84.2941 130.291 83.4164 130.291C82.5388 130.291 81.7539 129.581 81.7539 128.701Z" fill="#FF8915"/>
<path d="M82.3854 128.701C82.3854 128.165 82.8653 127.73 83.4009 127.73C83.9365 127.73 84.3714 128.165 84.3714 128.701C84.3714 129.236 83.9365 129.671 83.4009 129.671C82.8653 129.671 82.3854 129.236 82.3854 128.701Z" fill="#AAD044"/>
<path d="M81.9027 134.229C81.9027 132.169 83.7455 130.498 85.8031 130.498C87.8606 130.498 89.5338 132.169 89.5338 134.229C89.5338 136.289 87.8633 137.96 85.8031 137.96C83.7428 137.96 81.9027 136.289 81.9027 134.229Z" fill="#FBA819"/>
<path d="M88.7489 126.974C88.9478 126.974 89.1334 127.099 89.2024 127.298C90.027 129.674 90.0137 133.054 90.011 134.165V134.343C90.011 134.608 89.7963 134.82 89.5311 134.82C89.266 134.82 89.0539 134.605 89.0539 134.343V134.163C89.0565 133.091 89.0698 129.835 88.2982 127.613C88.2133 127.364 88.3433 127.091 88.5952 127.003C88.6482 126.985 88.7012 126.977 88.7516 126.977L88.7489 126.974Z" fill="#ED1D87"/>
<path d="M88.46 128.801C88.4335 128.913 88.3222 128.982 88.2108 128.958C88.0994 128.931 88.0305 128.82 88.0543 128.709C88.0809 128.597 88.1922 128.528 88.3036 128.552C88.415 128.579 88.4839 128.69 88.46 128.801Z" fill="#4F2208"/>
<path d="M88.1151 128.109C88.0886 128.221 87.9772 128.29 87.8659 128.266C87.7545 128.239 87.6856 128.128 87.7094 128.017C87.7359 127.905 87.8473 127.836 87.9587 127.86C88.07 127.887 88.1389 127.998 88.1151 128.109Z" fill="#4F2208"/>
<path d="M87.7013 127.436C87.6748 127.547 87.5634 127.616 87.452 127.592C87.3407 127.566 87.2717 127.454 87.2956 127.343C87.3221 127.232 87.4335 127.163 87.5449 127.187C87.6562 127.213 87.7252 127.324 87.7013 127.436Z" fill="#4F2208"/>
<path d="M85.8031 130.021C88.1232 130.021 90.0111 131.909 90.0111 134.229C90.0111 136.549 88.1232 138.437 85.8031 138.437C83.4831 138.437 81.4229 136.509 81.4229 134.229C81.4229 131.949 83.43 130.021 85.8031 130.021ZM85.8031 137.48C87.5956 137.48 89.0539 136.021 89.0539 134.232C89.0539 132.442 87.5956 130.983 85.8031 130.983C84.0107 130.983 82.38 132.471 82.38 134.234C82.38 135.998 83.9471 137.482 85.8031 137.482V137.48Z" fill="#ED1D87"/>
<path d="M83.7932 126.998C87.7811 126.998 89.8599 131.922 89.9474 132.132C90.0481 132.376 89.9315 132.657 89.6875 132.757C89.4436 132.858 89.1625 132.742 89.0618 132.498C89.0432 132.453 87.1394 127.955 83.7932 127.955C83.3266 127.955 82.9845 128.072 82.8016 128.292C82.6319 128.499 82.6478 128.746 82.6717 128.873C82.722 129.133 82.5523 129.385 82.2925 129.435C82.0353 129.485 81.7807 129.316 81.7304 129.056C81.6349 128.557 81.7542 128.056 82.0618 127.682C82.319 127.37 82.8307 126.998 83.7932 126.998Z" fill="#ED1D87"/>
<path d="M83.0962 134.229C83.0962 132.816 84.361 131.667 85.7769 131.667C87.1928 131.667 88.3382 132.816 88.3382 134.229C88.3382 135.642 87.1901 136.79 85.7769 136.79C84.3636 136.79 83.0962 135.642 83.0962 134.229Z" fill="#8B3B16"/>
<path d="M84.8831 134.229C84.8831 133.778 85.2861 133.415 85.7368 133.415C86.1876 133.415 86.5509 133.778 86.5509 134.229C86.5509 134.68 86.1876 135.043 85.7368 135.043C85.2861 135.043 84.8831 134.68 84.8831 134.229Z" fill="#ED1D87"/>
<path d="M85.7259 135.337C85.7736 135.337 85.8161 135.364 85.9142 135.504C85.9168 135.509 86.2429 135.981 86.1899 136.119C86.174 136.164 86.1501 136.223 85.763 136.223C85.3441 136.223 85.2937 136.164 85.2751 136.146C85.2274 136.093 85.246 136.019 85.2937 135.915C85.2937 135.91 85.5748 135.337 85.7233 135.337H85.7259ZM86.0202 136.034C85.9805 135.939 85.8108 135.645 85.7233 135.536C85.6384 135.639 85.4687 135.918 85.4289 136.034C85.482 136.04 85.6066 136.05 85.763 136.05C85.9009 136.05 85.9805 136.042 86.0202 136.034Z" fill="white"/>
<path d="M85.6839 132.092C86.1029 132.092 86.1532 132.15 86.1718 132.169C86.2195 132.222 86.201 132.296 86.1532 132.399C86.1532 132.405 85.8722 132.977 85.7237 132.977C85.6707 132.977 85.6229 132.938 85.5381 132.813C85.5354 132.808 85.2093 132.33 85.2597 132.195C85.2756 132.15 85.2995 132.092 85.6866 132.092H85.6839ZM86.0154 132.28C85.9623 132.275 85.8377 132.264 85.6813 132.264C85.5434 132.264 85.4638 132.272 85.4241 132.28C85.4638 132.375 85.6335 132.67 85.721 132.778C85.8059 132.675 85.9756 132.397 86.0154 132.28Z" fill="white"/>
<path d="M83.8097 133.683C83.9238 133.683 84.5416 134.014 84.5416 134.157C84.5416 134.309 83.8946 134.629 83.8018 134.629L83.7594 134.621C83.7037 134.6 83.6851 134.542 83.6745 134.484C83.6507 134.356 83.6348 133.794 83.7329 133.707L83.7567 133.685L83.8071 133.68L83.8097 133.683ZM84.3454 134.157C84.2393 134.073 83.9582 133.903 83.8416 133.86C83.823 133.972 83.8204 134.327 83.8416 134.452C83.937 134.412 84.2313 134.242 84.3401 134.155L84.3454 134.157Z" fill="white"/>
<path d="M87.6429 133.683L87.6853 133.691C87.741 133.712 87.7596 133.77 87.7702 133.829C87.794 133.959 87.8126 134.518 87.7118 134.606L87.6879 134.627L87.6376 134.632C87.5236 134.632 86.9058 134.301 86.9058 134.157C86.9058 134.006 87.5527 133.686 87.6455 133.686L87.6429 133.683ZM87.6031 134.452C87.6217 134.346 87.6243 133.998 87.6031 133.866C87.4838 133.911 87.208 134.07 87.102 134.155C87.208 134.24 87.4891 134.409 87.6058 134.452H87.6031Z" fill="white"/>
<path d="M84.7879 134.958C84.8197 134.958 84.8595 134.961 84.8886 134.993C84.9284 135.032 84.931 135.091 84.9045 135.242C84.9045 135.247 84.7958 135.815 84.6633 135.876L84.6208 135.884C84.5943 135.884 84.5121 135.884 84.2257 135.581C83.9951 135.337 84.0004 135.279 84.0004 135.25C84.0136 135.062 84.7481 134.964 84.7879 134.964V134.958ZM84.6049 135.698C84.6447 135.603 84.7322 135.276 84.7481 135.136C84.5996 135.149 84.2894 135.231 84.1833 135.282C84.247 135.372 84.4988 135.629 84.6049 135.698Z" fill="#4F2208"/>
<path d="M86.824 132.431C86.8505 132.431 86.9327 132.431 87.2191 132.734C87.4498 132.978 87.4445 133.036 87.4445 133.065C87.4339 133.253 86.6967 133.351 86.657 133.351C86.6251 133.351 86.5854 133.349 86.5562 133.317C86.5217 133.283 86.5111 133.237 86.543 133.068C86.543 133.062 86.6517 132.495 86.7816 132.437L86.824 132.429V132.431ZM87.2615 133.036C87.1979 132.946 86.946 132.689 86.8399 132.62C86.8001 132.715 86.7126 133.041 86.6967 133.182C86.8558 133.166 87.1554 133.089 87.2615 133.039V133.036Z" fill="#4F2208"/>
<path d="M84.6258 132.434H84.6311C84.7001 132.436 84.7398 132.503 84.7796 132.609C84.7796 132.614 84.9891 133.216 84.8857 133.319C84.8565 133.349 84.8167 133.354 84.7876 133.354C84.6921 133.354 84.0663 133.235 84.0053 133.097C83.9788 133.038 84.0186 132.98 84.0345 132.954C84.1088 132.84 84.4959 132.434 84.6258 132.434ZM84.7478 133.182C84.7345 133.049 84.6576 132.739 84.6046 132.625C84.4932 132.699 84.2519 132.938 84.183 133.038C84.2732 133.075 84.594 133.166 84.7451 133.182H84.7478Z" fill="#4F2208"/>
<path d="M86.6572 134.958C86.7527 134.958 87.3784 135.077 87.4394 135.212C87.4659 135.271 87.4262 135.329 87.4103 135.356C87.336 135.47 86.9489 135.875 86.819 135.875C86.7421 135.873 86.7023 135.806 86.6625 135.698C86.6625 135.692 86.453 135.09 86.5565 134.987C86.5856 134.958 86.6254 134.953 86.6546 134.953L86.6572 134.958ZM87.2618 135.273C87.1716 135.236 86.8508 135.146 86.6996 135.13C86.7129 135.268 86.7925 135.584 86.8455 135.692C86.9356 135.629 87.1902 135.377 87.2618 135.271V135.273Z" fill="#4F2208"/>
<path d="M83.0378 128.7C83.0378 128.518 83.2022 128.366 83.3878 128.366C83.5734 128.366 83.7219 128.515 83.7219 128.7C83.7219 128.886 83.5734 129.035 83.3878 129.035C83.2022 129.035 83.0378 128.886 83.0378 128.7Z" fill="#4F2208"/>
<path d="M85.7766 105.762C85.7766 105.195 85.2701 104.739 84.7054 104.739C84.1406 104.739 83.6819 105.198 83.6819 105.762C83.6819 106.327 84.1406 106.786 84.7054 106.786C85.2701 106.786 85.7766 106.327 85.7766 105.762Z" fill="#FF8915"/>
<path d="M85.3687 105.762C85.3687 105.418 85.0611 105.136 84.7138 105.136C84.3664 105.136 84.088 105.418 84.088 105.762C84.088 106.107 84.3691 106.388 84.7138 106.388C85.0585 106.388 85.3687 106.107 85.3687 105.762Z" fill="#AAD044"/>
<path d="M85.6786 109.323C85.6786 107.997 84.4934 106.921 83.165 106.921C81.8366 106.921 80.7627 107.997 80.7627 109.323C80.7627 110.649 81.8392 111.725 83.165 111.725C84.4907 111.725 85.6786 110.652 85.6786 109.323Z" fill="#FBA819"/>
<path d="M81.2694 104.651C81.1421 104.651 81.0228 104.731 80.9777 104.858C80.4474 106.388 80.4553 108.565 80.458 109.281V109.395C80.458 109.565 80.5959 109.702 80.7656 109.702C80.9353 109.702 81.0731 109.565 81.0731 109.395V109.278C81.0705 108.589 81.0625 106.492 81.5584 105.06C81.614 104.898 81.5292 104.723 81.3675 104.667C81.333 104.654 81.3012 104.649 81.2667 104.649L81.2694 104.651Z" fill="#ED1D87"/>
<path d="M81.4574 105.829C81.4733 105.9 81.5448 105.945 81.6164 105.929C81.688 105.913 81.7331 105.842 81.7172 105.77C81.7013 105.699 81.6297 105.654 81.5581 105.669C81.4865 105.685 81.4414 105.757 81.4574 105.829Z" fill="#4F2208"/>
<path d="M81.6801 105.381C81.696 105.452 81.7676 105.497 81.8392 105.481C81.9107 105.465 81.9558 105.394 81.9399 105.322C81.924 105.251 81.8524 105.206 81.7808 105.221C81.7092 105.237 81.6642 105.309 81.6801 105.381Z" fill="#4F2208"/>
<path d="M81.9478 104.948C81.9637 105.02 82.0353 105.065 82.1069 105.049C82.1785 105.033 82.2236 104.962 82.2076 104.89C82.1917 104.818 82.1201 104.773 82.0485 104.789C81.9769 104.805 81.9319 104.877 81.9478 104.948Z" fill="#4F2208"/>
<path d="M83.1679 106.616C81.6724 106.616 80.458 107.833 80.458 109.326C80.458 110.819 81.6751 112.036 83.1679 112.036C84.6607 112.036 85.9891 110.795 85.9891 109.326C85.9891 107.857 84.6978 106.616 83.1679 106.616ZM83.1679 111.418C82.0118 111.418 81.0758 110.479 81.0758 109.326C81.0758 108.172 82.0145 107.234 83.1679 107.234C84.3213 107.234 85.3713 108.194 85.3713 109.326C85.3713 110.458 84.3611 111.418 83.1679 111.418Z" fill="#ED1D87"/>
<path d="M84.4642 104.667C81.8976 104.667 80.5585 107.838 80.5029 107.974C80.4392 108.133 80.5135 108.313 80.6699 108.377C80.8264 108.44 81.0093 108.369 81.0729 108.21C81.0862 108.181 82.3112 105.285 84.4669 105.285C84.7691 105.285 84.9892 105.359 85.1059 105.503C85.2172 105.635 85.2067 105.794 85.1907 105.876C85.1589 106.043 85.2676 106.205 85.4347 106.237C85.6017 106.269 85.7634 106.16 85.7953 105.993C85.8589 105.67 85.7794 105.349 85.5805 105.11C85.4135 104.909 85.0873 104.667 84.4669 104.667H84.4642Z" fill="#ED1D87"/>
<path d="M84.9121 109.323C84.9121 108.411 84.0981 107.671 83.1859 107.671C82.2738 107.671 81.5341 108.411 81.5341 109.323C81.5341 110.235 82.2738 110.975 83.1859 110.975C84.0981 110.975 84.9121 110.235 84.9121 109.326V109.323Z" fill="#8B3B16"/>
<path d="M83.7617 109.323C83.7617 109.034 83.5019 108.798 83.2129 108.798C82.9238 108.798 82.6879 109.034 82.6879 109.323C82.6879 109.612 82.9238 109.848 83.2129 109.848C83.5019 109.848 83.7617 109.612 83.7617 109.323Z" fill="#ED1D87"/>
<path d="M83.2183 110.037C83.1865 110.037 83.16 110.053 83.0964 110.143C83.0964 110.145 82.8842 110.45 82.9187 110.538C82.9293 110.567 82.9426 110.604 83.1918 110.604C83.4623 110.604 83.4941 110.567 83.5047 110.554C83.5339 110.519 83.5233 110.471 83.4914 110.405C83.4914 110.402 83.3111 110.034 83.2157 110.034L83.2183 110.037ZM83.0274 110.487C83.0513 110.424 83.16 110.238 83.2183 110.167C83.2714 110.233 83.3801 110.413 83.4066 110.487C83.3721 110.49 83.2926 110.498 83.1918 110.498C83.1043 110.498 83.0513 110.493 83.0248 110.487H83.0274Z" fill="white"/>
<path d="M83.2449 107.947C82.9744 107.947 82.9426 107.984 82.932 107.997C82.9029 108.032 82.9134 108.08 82.9453 108.146C82.9453 108.149 83.1256 108.517 83.221 108.517C83.2555 108.517 83.2847 108.491 83.3403 108.411C83.3403 108.408 83.5525 108.101 83.518 108.013C83.5074 107.984 83.4941 107.947 83.2449 107.947ZM83.0328 108.066C83.0673 108.064 83.1468 108.056 83.2475 108.056C83.335 108.056 83.3881 108.061 83.4146 108.066C83.3907 108.13 83.2794 108.316 83.2237 108.387C83.1707 108.321 83.062 108.141 83.0354 108.066H83.0328Z" fill="white"/>
<path d="M84.4542 108.973C84.3799 108.973 83.9822 109.188 83.9822 109.278C83.9822 109.376 84.3985 109.581 84.4595 109.581L84.486 109.575C84.5204 109.562 84.5337 109.522 84.539 109.488C84.5549 109.408 84.5655 109.045 84.5019 108.989L84.486 108.976H84.4515L84.4542 108.973ZM84.1094 109.276C84.1784 109.22 84.3587 109.111 84.433 109.085C84.4462 109.154 84.4462 109.387 84.433 109.467C84.372 109.443 84.181 109.331 84.1094 109.276Z" fill="white"/>
<path d="M81.9823 108.973L81.9558 108.979C81.9213 108.992 81.9081 109.032 81.9028 109.066C81.8869 109.151 81.8763 109.509 81.9399 109.565L81.9558 109.578H81.9903C82.0645 109.581 82.4622 109.368 82.4622 109.276C82.4622 109.178 82.0459 108.973 81.9849 108.973H81.9823ZM82.0088 109.467C81.9956 109.398 81.9956 109.175 82.0088 109.09C82.0857 109.119 82.2634 109.223 82.3323 109.276C82.2634 109.331 82.0831 109.44 82.0088 109.467Z" fill="white"/>
<path d="M83.8229 109.793C83.8017 109.793 83.7778 109.793 83.7593 109.814C83.7354 109.838 83.7328 109.878 83.7513 109.973C83.7513 109.976 83.8202 110.342 83.9051 110.379L83.9343 110.384C83.9528 110.384 84.0032 110.384 84.1888 110.188C84.3373 110.029 84.3346 109.994 84.3346 109.973C84.3267 109.851 83.8521 109.787 83.8282 109.787H83.8256L83.8229 109.793ZM83.9396 110.27C83.913 110.209 83.8574 110 83.8468 109.907C83.9422 109.915 84.1411 109.968 84.21 110.002C84.1676 110.06 84.0058 110.225 83.9396 110.27Z" fill="#4F2208"/>
<path d="M82.5102 108.165C82.4917 108.165 82.4413 108.164 82.2557 108.361C82.1072 108.52 82.1099 108.554 82.1099 108.575C82.1178 108.697 82.5924 108.761 82.6163 108.761C82.6375 108.761 82.664 108.761 82.6799 108.74C82.7011 108.719 82.7091 108.687 82.6879 108.581C82.6879 108.578 82.6189 108.212 82.5341 108.175L82.5049 108.17H82.5076L82.5102 108.165ZM82.2318 108.554C82.2742 108.496 82.436 108.332 82.5023 108.287C82.5288 108.347 82.5845 108.557 82.5951 108.65C82.4917 108.639 82.2981 108.591 82.2318 108.557V108.554Z" fill="#4F2208"/>
<path d="M83.9262 108.167H83.9235C83.8784 108.17 83.8546 108.212 83.8281 108.281C83.8281 108.284 83.6928 108.671 83.7591 108.74C83.7777 108.759 83.8042 108.761 83.8228 108.761C83.8864 108.761 84.2868 108.684 84.3266 108.597C84.3451 108.56 84.3186 108.523 84.308 108.507C84.2603 108.432 84.011 108.17 83.9288 108.17L83.9262 108.167ZM83.8493 108.647C83.8572 108.562 83.9076 108.361 83.9394 108.289C84.011 108.34 84.1648 108.491 84.2099 108.554C84.1515 108.578 83.9447 108.637 83.8466 108.647H83.8493Z" fill="#4F2208"/>
<path d="M82.619 109.793C82.5553 109.793 82.155 109.87 82.1152 109.957C82.0966 109.994 82.1232 110.031 82.1338 110.047C82.1815 110.121 82.4307 110.381 82.5129 110.381C82.5633 110.379 82.5872 110.336 82.6137 110.267C82.6137 110.265 82.7489 109.878 82.6826 109.809C82.6641 109.79 82.6375 109.787 82.619 109.787V109.793ZM82.2292 109.997C82.2875 109.973 82.4944 109.915 82.5925 109.904C82.5845 109.992 82.5341 110.196 82.497 110.267C82.4387 110.225 82.2743 110.063 82.2292 109.997Z" fill="#4F2208"/>
<path d="M84.9491 105.762C84.9491 105.643 84.843 105.548 84.7237 105.548C84.6044 105.548 84.5089 105.643 84.5089 105.762C84.5089 105.882 84.6044 105.977 84.7237 105.977C84.843 105.977 84.9491 105.882 84.9491 105.762Z" fill="#4F2208"/>
<path d="M93.7343 99.9689C93.7343 100.528 94.2327 100.982 94.7949 100.982C95.357 100.982 95.8077 100.528 95.8077 99.9689C95.8077 99.4094 95.3543 98.9561 94.7949 98.9561C94.2354 98.9561 93.7343 99.4094 93.7343 99.9689Z" fill="#FF8915"/>
<path d="M94.1371 99.9689C94.1371 100.311 94.442 100.587 94.784 100.587C95.1261 100.587 95.4019 100.311 95.4019 99.9689C95.4019 99.6269 95.1261 99.3511 94.784 99.3511C94.442 99.3511 94.1371 99.6269 94.1371 99.9689Z" fill="#AAD044"/>
<path d="M93.8296 96.4475C93.8296 97.76 95.0016 98.8234 96.3141 98.8234C97.6265 98.8234 98.6898 97.76 98.6898 96.4475C98.6898 95.135 97.6265 94.0718 96.3141 94.0718C95.0016 94.0718 93.8296 95.135 93.8296 96.4475Z" fill="#FBA819"/>
<path d="M98.1912 101.069C98.3185 101.069 98.4378 100.99 98.4803 100.865C99.0053 99.3509 98.9973 97.1979 98.9946 96.49V96.3786C98.9946 96.2116 98.8567 96.0737 98.6897 96.0737C98.5227 96.0737 98.3848 96.2116 98.3848 96.3786V96.4927C98.3875 97.1741 98.3954 99.2502 97.9049 100.666C97.8518 100.825 97.934 101 98.0931 101.056C98.1276 101.069 98.1594 101.074 98.1939 101.074H98.1912V101.069Z" fill="#ED1D87"/>
<path d="M98.0081 99.9052C97.9922 99.8336 97.9206 99.7886 97.8517 99.8045C97.7801 99.8204 97.735 99.892 97.7509 99.9636C97.7668 100.035 97.8384 100.08 97.9074 100.064C97.979 100.048 98.024 99.9768 98.0081 99.9052Z" fill="#4F2208"/>
<path d="M97.7856 100.345C97.7697 100.274 97.698 100.229 97.6291 100.245C97.5575 100.261 97.5124 100.332 97.5283 100.404C97.5442 100.475 97.6159 100.52 97.6848 100.504C97.7564 100.489 97.8015 100.417 97.7856 100.345Z" fill="#4F2208"/>
<path d="M97.5232 100.775C97.5073 100.703 97.4357 100.658 97.3668 100.674C97.2952 100.69 97.2501 100.761 97.266 100.833C97.2819 100.905 97.3535 100.95 97.4225 100.934C97.4941 100.918 97.5391 100.846 97.5232 100.775Z" fill="#4F2208"/>
<path d="M96.3132 99.1257C97.7901 99.1257 98.9939 97.9246 98.9939 96.445C98.9939 94.9655 97.7927 93.7644 96.3132 93.7644C94.8337 93.7644 93.5238 94.992 93.5238 96.445C93.5238 97.8981 94.8018 99.1257 96.3132 99.1257ZM96.3132 94.3769C97.4533 94.3769 98.384 95.3048 98.384 96.4476C98.384 97.5904 97.456 98.5185 96.3132 98.5185C95.1704 98.5185 94.1337 97.5692 94.1337 96.4476C94.1337 95.326 95.1333 94.3769 96.3132 94.3769Z" fill="#ED1D87"/>
<path d="M95.0332 101.053C97.5734 101.053 98.8964 97.9165 98.9521 97.7839C99.0157 97.6275 98.9415 97.4498 98.7877 97.3862C98.6313 97.3226 98.4536 97.3942 98.39 97.5506C98.3767 97.5798 97.165 100.443 95.0359 100.443C94.7389 100.443 94.5215 100.369 94.4048 100.229C94.2961 100.096 94.3067 99.9396 94.3226 99.8601C94.3544 99.6957 94.2483 99.5339 94.0813 99.5021C93.9169 99.4703 93.7552 99.5764 93.7233 99.7434C93.6624 100.062 93.7393 100.383 93.9328 100.618C94.0972 100.817 94.4207 101.056 95.0359 101.056L95.0332 101.053Z" fill="#ED1D87"/>
<path d="M94.5906 96.4475C94.5906 97.3491 95.3967 98.0783 96.2982 98.0783C97.1997 98.0783 97.9288 97.3464 97.9288 96.4475C97.9288 95.5487 97.197 94.8169 96.2982 94.8169C95.3993 94.8169 94.5906 95.5487 94.5906 96.4475Z" fill="#8B3B16"/>
<path d="M95.7278 96.4474C95.7278 96.7338 95.9823 96.9672 96.2713 96.9672C96.5603 96.9672 96.791 96.7338 96.791 96.4474C96.791 96.1611 96.5577 95.9277 96.2713 95.9277C95.985 95.9277 95.7278 96.1611 95.7278 96.4474Z" fill="#ED1D87"/>
<path d="M96.2633 95.7423C96.2925 95.7423 96.3217 95.7264 96.3827 95.6363C96.3827 95.6336 96.5921 95.3313 96.5603 95.2464C96.5497 95.2173 96.5364 95.1829 96.2899 95.1829C96.0247 95.1829 95.9902 95.22 95.9796 95.2332C95.9505 95.2677 95.9611 95.3128 95.9929 95.3817C95.9929 95.3844 96.1705 95.7502 96.266 95.7502L96.2633 95.7423ZM96.4516 95.2968C96.4277 95.3578 96.319 95.5461 96.2633 95.615C96.2103 95.5487 96.1016 95.371 96.0751 95.2968C96.1095 95.2941 96.1864 95.2862 96.2872 95.2862C96.3747 95.2862 96.4251 95.2915 96.4516 95.2968Z" fill="white"/>
<path d="M96.2368 97.8106C96.5019 97.8106 96.5364 97.7735 96.547 97.7603C96.5762 97.7258 96.5656 97.6807 96.5338 97.6118C96.5338 97.6091 96.3561 97.2432 96.2607 97.2432C96.2262 97.2432 96.197 97.2698 96.144 97.3493C96.144 97.352 95.9345 97.6569 95.9664 97.7417C95.977 97.7709 95.9902 97.8053 96.2368 97.8053V97.8106ZM96.4489 97.6887C96.4145 97.6913 96.3375 97.6993 96.2368 97.6993C96.1493 97.6993 96.0989 97.694 96.0724 97.6887C96.0963 97.6277 96.205 97.4395 96.2607 97.3706C96.3137 97.4368 96.4224 97.6144 96.4489 97.6887Z" fill="white"/>
<path d="M95.0438 96.7948C95.1154 96.7948 95.5104 96.5827 95.5104 96.4926C95.5104 96.3971 95.0995 96.1929 95.0385 96.1929L95.012 96.1982C94.9775 96.2114 94.9642 96.2486 94.9589 96.2831C94.943 96.3627 94.9351 96.7232 94.9961 96.7763L95.012 96.7895H95.0464V96.7922L95.0438 96.7948ZM95.3858 96.4926C95.3195 96.5456 95.1392 96.6543 95.065 96.6808C95.0517 96.6119 95.0517 96.3838 95.065 96.3016C95.126 96.3255 95.3142 96.4342 95.3832 96.4899L95.3858 96.4926Z" fill="white"/>
<path d="M97.4857 96.795L97.5122 96.7897C97.5467 96.7764 97.5599 96.7394 97.5652 96.7023C97.5811 96.6201 97.5917 96.2647 97.5281 96.209L97.5122 96.1958H97.4777C97.4061 96.1932 97.011 96.4053 97.011 96.4954C97.011 96.5909 97.422 96.795 97.483 96.795H97.4857ZM97.4591 96.3072C97.4724 96.3761 97.4724 96.5962 97.4591 96.6811C97.3849 96.6519 97.2073 96.5512 97.141 96.4981C97.2073 96.4451 97.3875 96.3364 97.4618 96.3099L97.4591 96.3072Z" fill="white"/>
<path d="M95.6668 95.981C95.6881 95.981 95.7119 95.981 95.7305 95.9598C95.7543 95.9359 95.757 95.8961 95.7384 95.8007C95.7384 95.798 95.6695 95.4348 95.5846 95.3976L95.5581 95.3923C95.5396 95.3923 95.4892 95.3923 95.3062 95.5859C95.1577 95.7423 95.163 95.7795 95.163 95.7954C95.171 95.9147 95.6403 95.9784 95.6642 95.9784L95.6668 95.981ZM95.5502 95.5117C95.5767 95.57 95.6323 95.7822 95.6403 95.8697C95.5448 95.8617 95.3486 95.8113 95.2797 95.7769C95.3195 95.7185 95.4812 95.5568 95.5475 95.5117H95.5502Z" fill="#4F2208"/>
<path d="M96.9637 97.5931C96.9822 97.5931 97.0326 97.5931 97.2156 97.3995C97.3641 97.2431 97.3588 97.2059 97.3588 97.19C97.3508 97.0707 96.8815 97.0071 96.8576 97.0071C96.8364 97.0071 96.8126 97.0071 96.794 97.0283C96.7728 97.0495 96.7648 97.0812 96.786 97.1873C96.786 97.19 96.855 97.5506 96.9398 97.5903L96.9663 97.5956L96.9637 97.5931ZM97.2421 97.2085C97.1997 97.2669 97.0406 97.4286 96.9743 97.4737C96.9478 97.4154 96.8947 97.2059 96.8841 97.1157C96.9849 97.1263 97.1758 97.1741 97.2447 97.2059L97.2421 97.2085Z" fill="#4F2208"/>
<path d="M95.5633 97.5904H95.566C95.6111 97.5877 95.6349 97.5453 95.6614 97.479C95.6614 97.4764 95.794 97.0946 95.7277 97.0256C95.7092 97.0071 95.6826 97.0044 95.6641 97.0044C95.6031 97.0044 95.2054 97.0787 95.1656 97.1662C95.147 97.2034 95.1735 97.2404 95.1842 97.2563C95.2319 97.3279 95.4785 97.5878 95.5607 97.5878L95.5633 97.5904ZM95.6402 97.1131C95.6322 97.198 95.5845 97.3942 95.5501 97.4658C95.4811 97.4154 95.3247 97.2669 95.2823 97.2033C95.3406 97.1794 95.5421 97.1238 95.6429 97.1131H95.6402Z" fill="#4F2208"/>
<path d="M96.858 95.9834C96.9189 95.9834 97.3167 95.9092 97.3564 95.8217C97.375 95.7846 97.3485 95.7475 97.3379 95.7316C97.2901 95.66 97.0436 95.4001 96.9614 95.4001C96.911 95.4028 96.8871 95.4452 96.8606 95.5115C96.8606 95.5141 96.728 95.8959 96.7943 95.9649C96.8129 95.9834 96.8394 95.9861 96.858 95.9861V95.9834ZM97.2424 95.7819C97.1841 95.8058 96.9826 95.8615 96.8818 95.8721C96.8898 95.7872 96.9401 95.5831 96.9746 95.5142C97.0329 95.554 97.1947 95.713 97.2398 95.7819H97.2424Z" fill="#4F2208"/>
<path d="M94.5531 99.9689C94.5531 100.086 94.6592 100.181 94.7758 100.181C94.8925 100.181 94.988 100.086 94.988 99.9689C94.988 99.8522 94.8925 99.7568 94.7758 99.7568C94.6592 99.7568 94.5531 99.8522 94.5531 99.9689Z" fill="#4F2208"/>
<path d="M90.435 92.425C90.4986 92.3958 90.5782 92.3932 90.6471 92.425C91.957 93.0534 92.9911 95.5644 93.0335 95.6731C93.0839 95.8003 93.0202 95.9409 92.8983 95.9939C92.771 96.0443 92.6278 95.9859 92.5775 95.8586C92.5668 95.8347 91.5725 93.4166 90.435 92.8704C90.313 92.812 90.26 92.6636 90.3184 92.5416C90.3449 92.4886 90.3873 92.4488 90.435 92.425Z" fill="#4F2208"/>
<path d="M83.3424 100.067C83.3716 100.069 83.4008 100.067 83.4326 100.059C83.5651 100.022 83.6421 99.8863 83.6049 99.7564C82.7671 96.7337 83.9788 93.7719 83.992 93.7427C84.0451 93.6155 83.9841 93.4724 83.8595 93.4193C83.7348 93.3663 83.589 93.4273 83.536 93.5519C83.483 93.6792 82.2447 96.6965 83.1303 99.8863C83.1595 99.987 83.2469 100.056 83.3451 100.067H83.3424Z" fill="#4F2208"/>
<path d="M88.9689 100.067C88.9397 100.069 88.9105 100.067 88.8787 100.059C88.7461 100.022 88.6693 99.8863 88.7064 99.7564C89.5443 96.7337 88.3325 93.7719 88.3192 93.7427C88.2662 93.6155 88.3272 93.4724 88.4518 93.4193C88.5764 93.3663 88.7223 93.4273 88.7753 93.5519C88.8284 93.6792 90.0666 96.6965 89.181 99.8863C89.1518 99.987 89.0643 100.056 88.9662 100.067H88.9689Z" fill="#4F2208"/>
<path d="M86.3922 98.1763C86.4611 98.1577 86.5221 98.1126 86.554 98.041C87.1665 96.7232 86.371 94.1274 86.3365 94.0161C86.2967 93.8861 86.1589 93.8171 86.0289 93.8542C85.899 93.894 85.8248 94.0319 85.8672 94.1618C85.8751 94.1857 86.6414 96.6861 86.1085 97.8289C86.0502 97.9535 86.1058 98.0993 86.2278 98.1576C86.2808 98.1815 86.3392 98.1868 86.3922 98.1735V98.1763Z" fill="#4F2208"/>
<path d="M82.3032 92.6105C82.2396 92.5814 82.16 92.5787 82.0911 92.6105C80.7812 93.2389 79.7472 95.7499 79.7047 95.8586C79.6543 95.9859 79.718 96.1264 79.84 96.1794C79.9672 96.2298 80.1104 96.1716 80.1608 96.0443C80.1714 96.0204 81.1657 93.6022 82.3032 93.056C82.4252 92.9977 82.4782 92.8491 82.4199 92.7272C82.3934 92.6741 82.3509 92.6344 82.3032 92.6105Z" fill="#4F2208"/>
<path d="M64.8357 102.821C64.7243 102.744 64.6687 102.606 64.7031 102.468C65.7876 98.1253 69.2558 95.4023 69.4016 95.2883C69.5474 95.1769 69.7569 95.2007 69.8683 95.3465C69.9796 95.4924 69.9531 95.7019 69.8099 95.8133C69.7755 95.8398 66.3762 98.5151 65.3501 102.628C65.305 102.805 65.1247 102.914 64.9444 102.871C64.9046 102.861 64.8649 102.842 64.8331 102.821H64.8357Z" fill="#4F2208"/>
<path d="M66.8138 104.659C66.7528 104.616 66.705 104.553 66.6838 104.476C66.6335 104.298 66.7369 104.115 66.9145 104.065C68.5584 103.606 70.4516 100.623 70.4702 100.594C70.5683 100.437 70.7725 100.39 70.9289 100.488C71.0827 100.589 71.1331 100.79 71.035 100.946C70.9528 101.079 68.9854 104.179 67.0922 104.706C66.9914 104.736 66.888 104.714 66.8111 104.656L66.8138 104.659Z" fill="#4F2208"/>
<path d="M106.555 103.204C106.518 103.22 106.478 103.23 106.436 103.233C106.253 103.241 106.097 103.1 106.086 102.915C105.877 98.6801 103.063 95.395 103.037 95.3605C102.915 95.2226 102.931 95.0104 103.071 94.8885C103.209 94.7665 103.421 94.7825 103.541 94.923C103.663 95.0636 106.534 98.4097 106.754 102.88C106.762 103.023 106.68 103.148 106.555 103.201V103.204Z" fill="#4F2208"/>
<path d="M104.257 104.62C104.17 104.66 104.063 104.659 103.971 104.612C102.218 103.726 100.892 100.303 100.837 100.157C100.77 99.9849 100.863 99.794 101.03 99.7251C101.203 99.6588 101.393 99.7463 101.462 99.9186C101.476 99.9531 102.751 103.246 104.276 104.015C104.44 104.097 104.506 104.299 104.424 104.463C104.387 104.535 104.329 104.588 104.262 104.617L104.257 104.62Z" fill="#4F2208"/>
<path d="M68.423 158.808C67.54 158.808 66.8241 158.018 66.8241 157.135C66.8241 156.252 67.54 155.536 68.423 155.536C69.3059 155.536 70.0218 156.252 70.0218 157.135C70.0218 158.018 69.3059 158.808 68.423 158.808Z" fill="#FF8915"/>
<path d="M68.4224 158.172C67.8815 158.172 67.444 157.69 67.444 157.151C67.444 156.613 67.8815 156.173 68.4224 156.173C68.9633 156.173 69.4008 156.61 69.4008 157.151C69.4008 157.692 68.9633 158.172 68.4224 158.172Z" fill="#AAD044"/>
<path d="M73.9855 158.66C71.912 158.66 70.231 156.807 70.231 154.733C70.231 152.66 71.912 150.981 73.9828 150.981C76.0537 150.981 77.7347 152.662 77.7347 154.733C77.7347 156.804 76.0537 158.66 73.9828 158.66H73.9855Z" fill="#FBA819"/>
<path d="M66.683 151.769C66.683 151.57 66.8076 151.382 67.0065 151.313C69.3981 150.483 72.8 150.496 73.9163 150.498H74.0939C74.3591 150.498 74.5765 150.713 74.5765 150.981C74.5765 151.249 74.3617 151.464 74.0939 151.464H73.9137C72.8371 151.461 69.5599 151.448 67.322 152.222C67.0701 152.309 66.797 152.177 66.7095 151.925C66.6909 151.872 66.683 151.819 66.683 151.766V151.769Z" fill="#ED1D87"/>
<path d="M68.5231 152.058C68.6344 152.084 68.706 152.196 68.6795 152.307C68.653 152.418 68.5416 152.49 68.4276 152.463C68.3136 152.437 68.2447 152.326 68.2712 152.214C68.2977 152.103 68.4091 152.031 68.5231 152.058Z" fill="#4F2208"/>
<path d="M67.8234 152.405C67.9347 152.431 68.0063 152.543 67.9798 152.654C67.9533 152.766 67.8419 152.837 67.7279 152.811C67.6139 152.784 67.5449 152.673 67.5715 152.561C67.598 152.45 67.7094 152.378 67.8234 152.405Z" fill="#4F2208"/>
<path d="M67.1472 152.824C67.2586 152.851 67.3301 152.962 67.3036 153.073C67.2771 153.185 67.1658 153.256 67.0517 153.23C66.9377 153.203 66.8688 153.092 66.8953 152.981C66.9218 152.869 67.0332 152.798 67.1472 152.824Z" fill="#4F2208"/>
<path d="M69.751 154.733C69.751 152.397 71.6495 150.496 73.9882 150.496C76.3268 150.496 78.2253 152.395 78.2253 154.733C78.2253 157.072 76.2844 159.14 73.9882 159.14C71.692 159.14 69.751 157.122 69.751 154.733ZM77.2575 154.733C77.2575 152.93 75.7912 151.464 73.9882 151.464C72.1851 151.464 70.7188 152.93 70.7188 154.733C70.7188 156.536 72.217 158.177 73.9882 158.177C75.7594 158.177 77.2575 156.6 77.2575 154.733Z" fill="#ED1D87"/>
<path d="M66.7068 156.756C66.7068 152.742 71.6625 150.65 71.8746 150.565C72.1212 150.464 72.4022 150.581 72.503 150.825C72.6037 151.069 72.4871 151.353 72.2431 151.453C72.1981 151.472 67.6719 153.389 67.6719 156.754C67.6719 157.223 67.7886 157.568 68.0113 157.751C68.2208 157.923 68.4674 157.907 68.5973 157.883C68.8572 157.833 69.1117 158.005 69.1621 158.265C69.2125 158.525 69.0401 158.779 68.7803 158.83C68.2765 158.928 67.7753 158.806 67.3988 158.496C67.0833 158.236 66.7094 157.724 66.7094 156.754L66.7068 156.756Z" fill="#ED1D87"/>
<path d="M73.9857 157.456C72.5618 157.456 71.4084 156.184 71.4084 154.76C71.4084 153.336 72.5645 152.182 73.9857 152.182C75.4069 152.182 76.5629 153.338 76.5629 154.76C76.5629 156.181 75.4069 157.456 73.9857 157.456Z" fill="#8B3B16"/>
<path d="M73.986 155.658C73.5326 155.658 73.1666 155.253 73.1666 154.799C73.1666 154.346 73.5352 153.98 73.986 153.98C74.4367 153.98 74.8053 154.348 74.8053 154.799C74.8053 155.25 74.4367 155.658 73.986 155.658Z" fill="#ED1D87"/>
<path d="M75.1017 154.813C75.1017 154.762 75.1283 154.723 75.2688 154.624C75.2741 154.622 75.7514 154.296 75.8866 154.346C75.9317 154.362 75.99 154.386 75.99 154.773C75.99 155.195 75.9317 155.245 75.9131 155.261C75.8601 155.309 75.7859 155.29 75.6824 155.242C75.6771 155.242 75.1017 154.961 75.1017 154.81V154.813ZM75.8017 154.513C75.7036 154.553 75.4093 154.723 75.298 154.81C75.404 154.895 75.6824 155.065 75.7991 155.107C75.8044 155.054 75.8176 154.929 75.8176 154.773C75.8176 154.635 75.8097 154.556 75.8017 154.513Z" fill="white"/>
<path d="M71.8327 154.855C71.8327 154.433 71.891 154.383 71.9096 154.367C71.9626 154.319 72.0368 154.338 72.1403 154.386C72.1456 154.386 72.721 154.667 72.721 154.818C72.721 154.871 72.6812 154.919 72.5566 155.006C72.5513 155.009 72.0713 155.338 71.9361 155.287C71.891 155.269 71.8327 155.247 71.8327 154.858V154.855ZM72.0209 154.518C72.0156 154.571 72.0024 154.696 72.0024 154.852C72.0024 154.99 72.0103 155.072 72.0183 155.112C72.1164 155.072 72.4107 154.903 72.5221 154.815C72.416 154.73 72.1376 154.561 72.0209 154.518Z" fill="white"/>
<path d="M73.4366 156.74C73.4366 156.626 73.7707 156.003 73.9138 156.003C74.0676 156.003 74.3885 156.653 74.3885 156.748L74.3805 156.791C74.3593 156.846 74.301 156.865 74.2426 156.876C74.1153 156.899 73.5479 156.915 73.4604 156.817L73.4392 156.793L73.4339 156.743L73.4366 156.74ZM73.9138 156.202C73.8263 156.308 73.6566 156.592 73.6169 156.706C73.7282 156.724 74.0888 156.73 74.2135 156.706C74.1737 156.61 74.004 156.313 73.9138 156.202Z" fill="white"/>
<path d="M73.4366 152.88L73.4446 152.837C73.4658 152.782 73.5242 152.763 73.5825 152.752C73.7151 152.729 74.2745 152.71 74.3647 152.811L74.3859 152.835L74.3912 152.885C74.3912 152.999 74.0571 153.622 73.9139 153.622C73.7601 153.622 73.4393 152.973 73.4393 152.877L73.4366 152.88ZM74.2082 152.922C74.0995 152.904 73.7495 152.901 73.6196 152.922C73.6647 153.041 73.8238 153.32 73.9113 153.426C73.9988 153.32 74.1685 153.036 74.2082 152.922Z" fill="white"/>
<path d="M74.7198 155.754C74.7198 155.722 74.7225 155.682 74.7543 155.653C74.7941 155.613 74.855 155.611 75.0035 155.637C75.0088 155.637 75.5789 155.746 75.6399 155.879L75.6478 155.921C75.6478 155.947 75.6478 156.032 75.3403 156.321C75.0937 156.552 75.0353 156.549 75.0062 156.547C74.8179 156.533 74.7172 155.794 74.7172 155.754H74.7198ZM75.4622 155.939C75.3668 155.897 75.0353 155.81 74.8974 155.796C74.9107 155.947 74.9929 156.258 75.0459 156.364C75.1361 156.3 75.3959 156.046 75.4675 155.942L75.4622 155.939Z" fill="#4F2208"/>
<path d="M72.1748 153.707C72.1748 153.68 72.1748 153.596 72.4824 153.307C72.729 153.076 72.7873 153.078 72.8165 153.081C73.0047 153.092 73.1055 153.834 73.1055 153.874C73.1055 153.906 73.1028 153.948 73.071 153.975C73.0365 154.009 72.9888 154.02 72.8191 153.988C72.8138 153.988 72.2438 153.879 72.1828 153.747L72.1748 153.704V153.707ZM72.782 153.267C72.6919 153.33 72.432 153.585 72.3604 153.688C72.4559 153.728 72.782 153.816 72.9252 153.832C72.9093 153.67 72.8297 153.37 72.7794 153.264L72.782 153.267Z" fill="#4F2208"/>
<path d="M72.1771 155.918V155.913C72.1797 155.844 72.2487 155.802 72.3547 155.762C72.36 155.762 72.9646 155.55 73.0706 155.656C73.0998 155.685 73.1051 155.725 73.1051 155.754C73.1051 155.852 72.9831 156.48 72.8479 156.541C72.7896 156.568 72.7312 156.528 72.7047 156.512C72.5907 156.438 72.1797 156.046 72.1797 155.916L72.1771 155.918ZM72.9327 155.796C72.7975 155.81 72.4873 155.887 72.3706 155.94C72.4475 156.051 72.6835 156.292 72.7869 156.364C72.8267 156.271 72.9142 155.953 72.9301 155.796H72.9327Z" fill="#4F2208"/>
<path d="M74.7198 153.871C74.7198 153.773 74.8418 153.145 74.977 153.084C75.0353 153.057 75.0937 153.097 75.1202 153.113C75.2342 153.187 75.6452 153.58 75.6452 153.71C75.6425 153.787 75.5736 153.826 75.4675 153.866C75.4622 153.866 74.8577 154.078 74.7516 153.972C74.7225 153.943 74.7172 153.903 74.7172 153.871H74.7198ZM75.0353 153.264C74.9956 153.357 74.908 153.675 74.8921 153.832C75.03 153.818 75.3509 153.739 75.4569 153.683C75.3933 153.593 75.1387 153.333 75.0353 153.261V153.264Z" fill="#4F2208"/>
<path d="M68.4227 157.517C68.2371 157.517 68.0859 157.35 68.0859 157.167C68.0859 156.984 68.2371 156.83 68.4227 156.83C68.6083 156.83 68.7594 156.981 68.7594 157.167C68.7594 157.353 68.6083 157.517 68.4227 157.517Z" fill="#4F2208"/>
<path d="M74.2506 140.956C74.2506 141.515 73.7521 141.969 73.19 141.969C72.6278 141.969 72.1771 141.515 72.1771 140.956C72.1771 140.396 72.6305 139.943 73.19 139.943C73.7494 139.943 74.2506 140.396 74.2506 140.956Z" fill="#FF8915"/>
<path d="M73.8479 140.956C73.8479 141.298 73.543 141.574 73.2009 141.574C72.8589 141.574 72.5831 141.298 72.5831 140.956C72.5831 140.614 72.8589 140.338 73.2009 140.338C73.543 140.338 73.8479 140.614 73.8479 140.956Z" fill="#AAD044"/>
<path d="M74.1583 137.435C74.1583 138.747 72.9863 139.81 71.6738 139.81C70.3613 139.81 69.2981 138.747 69.2981 137.435C69.2981 136.122 70.3613 135.059 71.6738 135.059C72.9863 135.059 74.1583 136.122 74.1583 137.435Z" fill="#FBA819"/>
<path d="M69.7934 142.056C69.6661 142.056 69.5468 141.977 69.5044 141.852C68.9794 140.338 68.9873 138.185 68.99 137.477V137.366C68.99 137.199 69.1278 137.061 69.2949 137.061C69.4619 137.061 69.5998 137.199 69.5998 137.366V137.48C69.5972 138.161 69.5892 140.237 70.0798 141.653C70.1328 141.812 70.0506 141.987 69.8915 142.043C69.857 142.056 69.8252 142.062 69.7907 142.062H69.7934V142.056Z" fill="#ED1D87"/>
<path d="M69.979 140.892C69.9949 140.82 70.0665 140.775 70.1355 140.791C70.207 140.807 70.2521 140.879 70.2362 140.95C70.2203 141.022 70.1487 141.067 70.0798 141.051C70.0082 141.035 69.9631 140.964 69.979 140.892Z" fill="#4F2208"/>
<path d="M70.1994 141.332C70.2153 141.261 70.2869 141.216 70.3559 141.232C70.4274 141.248 70.4725 141.319 70.4566 141.391C70.4407 141.462 70.3691 141.507 70.3002 141.492C70.2286 141.476 70.1835 141.404 70.1994 141.332Z" fill="#4F2208"/>
<path d="M70.4644 141.762C70.4803 141.69 70.5519 141.645 70.6209 141.661C70.6925 141.677 70.7375 141.748 70.7216 141.82C70.7057 141.892 70.6341 141.937 70.5652 141.921C70.4936 141.905 70.4485 141.833 70.4644 141.762Z" fill="#4F2208"/>
<path d="M71.6708 140.115C70.1939 140.115 68.9901 138.914 68.9901 137.435C68.9901 135.955 70.1913 134.754 71.6708 134.754C73.1504 134.754 74.4602 135.982 74.4602 137.435C74.4602 138.888 73.1822 140.115 71.6708 140.115ZM71.6708 135.364C70.5307 135.364 69.6 136.292 69.6 137.435C69.6 138.577 70.528 139.505 71.6708 139.505C72.8136 139.505 73.8503 138.556 73.8503 137.435C73.8503 136.313 72.8507 135.364 71.6708 135.364Z" fill="#ED1D87"/>
<path d="M72.9511 142.04C70.411 142.04 69.0879 138.904 69.0322 138.771C68.9686 138.615 69.0428 138.437 69.1966 138.373C69.353 138.31 69.5307 138.381 69.5943 138.538C69.6076 138.567 70.8193 141.431 72.9485 141.431C73.2455 141.431 73.4629 141.356 73.5795 141.216C73.6883 141.083 73.6776 140.927 73.6617 140.847C73.6299 140.683 73.736 140.521 73.903 140.489C74.0674 140.457 74.2292 140.563 74.261 140.73C74.322 141.049 74.2451 141.369 74.0515 141.605C73.8871 141.804 73.5636 142.043 72.9485 142.043L72.9511 142.04Z" fill="#ED1D87"/>
<path d="M73.3967 137.435C73.3967 138.336 72.5907 139.065 71.6892 139.065C70.7876 139.065 70.0585 138.333 70.0585 137.435C70.0585 136.536 70.7903 135.804 71.6892 135.804C72.588 135.804 73.3967 136.536 73.3967 137.435Z" fill="#8B3B16"/>
<path d="M72.2568 137.435C72.2568 137.721 72.0022 137.954 71.7132 137.954C71.4242 137.954 71.1935 137.721 71.1935 137.435C71.1935 137.148 71.4269 136.915 71.7132 136.915C71.9996 136.915 72.2568 137.148 72.2568 137.435Z" fill="#ED1D87"/>
<path d="M71.7208 136.729C71.6916 136.729 71.6625 136.713 71.6015 136.623C71.6015 136.62 71.392 136.318 71.4238 136.233C71.4344 136.204 71.4477 136.17 71.6943 136.17C71.9594 136.17 71.9939 136.207 72.0045 136.22C72.0337 136.255 72.0231 136.3 71.9912 136.369C71.9912 136.371 71.8136 136.737 71.7181 136.737L71.7208 136.729ZM71.5325 136.284C71.5564 136.345 71.6651 136.533 71.7208 136.602C71.7738 136.536 71.8825 136.358 71.909 136.284C71.8746 136.281 71.7977 136.273 71.6969 136.273C71.6094 136.273 71.5591 136.278 71.5325 136.284Z" fill="white"/>
<path d="M71.7478 138.797C71.4827 138.797 71.4482 138.76 71.4376 138.747C71.4085 138.713 71.4191 138.668 71.4509 138.599C71.4509 138.596 71.6285 138.23 71.724 138.23C71.7585 138.23 71.7876 138.257 71.8406 138.336C71.8406 138.339 72.0501 138.644 72.0183 138.729C72.0077 138.758 71.9944 138.792 71.7478 138.792V138.797ZM71.5357 138.678C71.5702 138.681 71.6471 138.689 71.7478 138.689C71.8353 138.689 71.8857 138.683 71.9122 138.678C71.8884 138.617 71.7797 138.429 71.724 138.36C71.671 138.426 71.5623 138.604 71.5357 138.678Z" fill="white"/>
<path d="M72.9407 137.782C72.8691 137.782 72.474 137.57 72.474 137.48C72.474 137.384 72.885 137.18 72.946 137.18L72.9725 137.185C73.007 137.198 73.0202 137.236 73.0255 137.27C73.0414 137.35 73.0494 137.71 72.9884 137.763L72.9725 137.777H72.938V137.779L72.9407 137.782ZM72.6013 137.48C72.6676 137.533 72.8479 137.641 72.9221 137.668C72.9354 137.599 72.9354 137.371 72.9221 137.289C72.8611 137.313 72.6729 137.421 72.6039 137.477L72.6013 137.48Z" fill="white"/>
<path d="M70.4989 137.782L70.4724 137.777C70.4379 137.763 70.4247 137.726 70.4194 137.689C70.4035 137.607 70.3929 137.252 70.4565 137.196L70.4724 137.183H70.5069C70.5785 137.18 70.9736 137.392 70.9736 137.482C70.9736 137.578 70.5626 137.782 70.5016 137.782H70.4989ZM70.5254 137.294C70.5122 137.363 70.5122 137.583 70.5254 137.668C70.5997 137.639 70.7773 137.538 70.8436 137.485C70.7773 137.432 70.597 137.323 70.5228 137.297L70.5254 137.294Z" fill="white"/>
<path d="M72.3181 136.968C72.2969 136.968 72.273 136.968 72.2545 136.947C72.2306 136.923 72.2279 136.883 72.2465 136.788C72.2465 136.785 72.3155 136.422 72.4003 136.385L72.4268 136.379C72.4454 136.379 72.4957 136.379 72.6787 136.573C72.8272 136.729 72.8219 136.767 72.8219 136.782C72.8139 136.902 72.3446 136.965 72.3207 136.965L72.3181 136.968ZM72.4348 136.499C72.4083 136.557 72.3526 136.769 72.3446 136.857C72.44 136.849 72.6363 136.798 72.7052 136.764C72.6654 136.706 72.5037 136.544 72.4374 136.499H72.4348Z" fill="#4F2208"/>
<path d="M71.0211 138.58C71.0026 138.58 70.9522 138.58 70.7693 138.387C70.6208 138.23 70.6261 138.193 70.6261 138.177C70.634 138.058 71.1033 137.994 71.1272 137.994C71.1484 137.994 71.1723 137.994 71.1908 138.015C71.212 138.036 71.22 138.068 71.1988 138.174C71.1988 138.177 71.1298 138.538 71.045 138.577L71.0185 138.583L71.0211 138.58ZM70.7454 138.196C70.7878 138.254 70.9469 138.416 71.0132 138.461C71.0397 138.402 71.0927 138.193 71.1033 138.103C71.0026 138.113 70.8117 138.161 70.7427 138.193L70.7454 138.196Z" fill="#4F2208"/>
<path d="M72.4212 138.577H72.4185C72.3734 138.575 72.3496 138.532 72.3231 138.466C72.3231 138.463 72.1905 138.082 72.2568 138.013C72.2753 137.994 72.3019 137.991 72.3204 137.991C72.3814 137.991 72.7791 138.066 72.8189 138.153C72.8375 138.19 72.8109 138.227 72.8003 138.243C72.7526 138.315 72.506 138.575 72.4238 138.575L72.4212 138.577ZM72.3443 138.103C72.3522 138.188 72.4 138.384 72.4344 138.455C72.5034 138.405 72.6598 138.257 72.7022 138.193C72.6439 138.169 72.4424 138.113 72.3416 138.103H72.3443Z" fill="#4F2208"/>
<path d="M71.127 136.971C71.0661 136.971 70.6683 136.896 70.6286 136.809C70.61 136.772 70.6365 136.735 70.6471 136.719C70.6948 136.647 70.9414 136.387 71.0236 136.387C71.074 136.39 71.0979 136.433 71.1244 136.499C71.1244 136.501 71.257 136.883 71.1907 136.952C71.1721 136.971 71.1456 136.973 71.127 136.973V136.971ZM70.7426 136.769C70.8009 136.793 71.0024 136.849 71.1032 136.859C71.0952 136.775 71.0448 136.57 71.0104 136.501C70.952 136.541 70.7903 136.7 70.7452 136.769H70.7426Z" fill="#4F2208"/>
<path d="M73.4334 140.956C73.4334 141.073 73.3273 141.168 73.2107 141.168C73.094 141.168 72.9985 141.073 72.9985 140.956C72.9985 140.839 73.094 140.744 73.2107 140.744C73.3273 140.744 73.4334 140.839 73.4334 140.956Z" fill="#4F2208"/>
<path d="M78.2255 99.9689C78.2255 100.528 77.727 100.982 77.1649 100.982C76.6028 100.982 76.152 100.528 76.152 99.9689C76.152 99.4094 76.6054 98.9561 77.1649 98.9561C77.7243 98.9561 78.2255 99.4094 78.2255 99.9689Z" fill="#FF8915"/>
<path d="M77.8223 99.9689C77.8223 100.311 77.5173 100.587 77.1753 100.587C76.8332 100.587 76.5575 100.311 76.5575 99.9689C76.5575 99.6269 76.8332 99.3511 77.1753 99.3511C77.5173 99.3511 77.8223 99.6269 77.8223 99.9689Z" fill="#AAD044"/>
<path d="M78.1294 96.4475C78.1294 97.76 76.9574 98.8234 75.6449 98.8234C74.3324 98.8234 73.2692 97.76 73.2692 96.4475C73.2692 95.135 74.3324 94.0718 75.6449 94.0718C76.9574 94.0718 78.1294 95.135 78.1294 96.4475Z" fill="#FBA819"/>
<path d="M73.7683 101.069C73.6411 101.069 73.5217 100.99 73.4793 100.865C72.9543 99.3509 72.9623 97.1979 72.9649 96.49V96.3786C72.9649 96.2116 73.1028 96.0737 73.2698 96.0737C73.4369 96.0737 73.5748 96.2116 73.5748 96.3786V96.4927C73.5721 97.1741 73.5642 99.2502 74.0547 100.666C74.1077 100.825 74.0255 101 73.8664 101.056C73.832 101.069 73.8001 101.074 73.7657 101.074H73.7683V101.069Z" fill="#ED1D87"/>
<path d="M73.9539 99.9052C73.9698 99.8336 74.0414 99.7886 74.1103 99.8045C74.1819 99.8204 74.227 99.892 74.2111 99.9636C74.1952 100.035 74.1236 100.08 74.0546 100.064C73.983 100.048 73.938 99.9768 73.9539 99.9052Z" fill="#4F2208"/>
<path d="M74.1715 100.345C74.1874 100.274 74.259 100.229 74.328 100.245C74.3995 100.261 74.4446 100.332 74.4287 100.404C74.4128 100.475 74.3412 100.52 74.2723 100.504C74.2007 100.489 74.1556 100.417 74.1715 100.345Z" fill="#4F2208"/>
<path d="M74.4365 100.775C74.4525 100.703 74.524 100.658 74.593 100.674C74.6646 100.69 74.7096 100.761 74.6937 100.833C74.6778 100.905 74.6062 100.95 74.5373 100.934C74.4657 100.918 74.4206 100.846 74.4365 100.775Z" fill="#4F2208"/>
<path d="M75.6451 99.1257C74.1683 99.1257 72.9645 97.9246 72.9645 96.445C72.9645 94.9655 74.1656 93.7644 75.6451 93.7644C77.1247 93.7644 78.4345 94.992 78.4345 96.445C78.4345 97.8981 77.1565 99.1257 75.6451 99.1257ZM75.6451 94.3769C74.505 94.3769 73.5743 95.3048 73.5743 96.4476C73.5743 97.5904 74.5023 98.5185 75.6451 98.5185C76.7879 98.5185 77.8247 97.5692 77.8247 96.4476C77.8247 95.326 76.8251 94.3769 75.6451 94.3769Z" fill="#ED1D87"/>
<path d="M76.9282 101.053C74.388 101.053 73.0649 97.9165 73.0093 97.7839C72.9456 97.6275 73.0199 97.4498 73.1736 97.3862C73.3301 97.3226 73.5077 97.3942 73.5714 97.5506C73.5846 97.5798 74.7964 100.443 76.9255 100.443C77.2225 100.443 77.4399 100.369 77.5566 100.229C77.6653 100.096 77.6547 99.9396 77.6388 99.8601C77.607 99.6957 77.713 99.5339 77.8801 99.5021C78.0445 99.4703 78.2062 99.5764 78.238 99.7434C78.299 100.062 78.2221 100.383 78.0286 100.618C77.8642 100.817 77.5407 101.056 76.9255 101.056L76.9282 101.053Z" fill="#ED1D87"/>
<path d="M77.3689 96.4475C77.3689 97.3491 76.5628 98.0783 75.6613 98.0783C74.7598 98.0783 74.0306 97.3464 74.0306 96.4475C74.0306 95.5487 74.7625 94.8169 75.6613 94.8169C76.5602 94.8169 77.3689 95.5487 77.3689 96.4475Z" fill="#8B3B16"/>
<path d="M76.2311 96.4474C76.2311 96.7338 75.9765 96.9672 75.6875 96.9672C75.3985 96.9672 75.1678 96.7338 75.1678 96.4474C75.1678 96.1611 75.4012 95.9277 75.6875 95.9277C75.9739 95.9277 76.2311 96.1611 76.2311 96.4474Z" fill="#ED1D87"/>
<path d="M75.6956 95.7423C75.6665 95.7423 75.6373 95.7264 75.5763 95.6363C75.5763 95.6336 75.3669 95.3313 75.3987 95.2464C75.4093 95.2173 75.4225 95.1829 75.6691 95.1829C75.9343 95.1829 75.9688 95.22 75.9794 95.2332C76.0085 95.2677 75.9979 95.3128 75.9661 95.3817C75.9661 95.3844 75.7884 95.7502 75.693 95.7502L75.6956 95.7423ZM75.5074 95.2968C75.5313 95.3578 75.64 95.5461 75.6956 95.615C75.7487 95.5487 75.8574 95.371 75.8839 95.2968C75.8494 95.2941 75.7725 95.2862 75.6718 95.2862C75.5843 95.2862 75.5339 95.2915 75.5074 95.2968Z" fill="white"/>
<path d="M75.7222 97.8106C75.4571 97.8106 75.4226 97.7735 75.412 97.7603C75.3828 97.7258 75.3934 97.6807 75.4252 97.6118C75.4252 97.6091 75.6029 97.2432 75.6984 97.2432C75.7328 97.2432 75.762 97.2698 75.815 97.3493C75.815 97.352 76.0245 97.6569 75.9927 97.7417C75.9821 97.7709 75.9688 97.8053 75.7222 97.8053V97.8106ZM75.5101 97.6887C75.5446 97.6913 75.6215 97.6993 75.7222 97.6993C75.8097 97.6993 75.8601 97.694 75.8866 97.6887C75.8627 97.6277 75.754 97.4395 75.6984 97.3706C75.6453 97.4368 75.5366 97.6144 75.5101 97.6887Z" fill="white"/>
<path d="M76.915 96.7948C76.8434 96.7948 76.4484 96.5827 76.4484 96.4926C76.4484 96.3971 76.8594 96.1929 76.9203 96.1929L76.9468 96.1982C76.9813 96.2114 76.9946 96.2486 76.9999 96.2831C77.0158 96.3627 77.0238 96.7232 76.9628 96.7763L76.9468 96.7895H76.9124V96.7922L76.915 96.7948ZM76.5757 96.4926C76.642 96.5456 76.8222 96.6543 76.8965 96.6808C76.9097 96.6119 76.9097 96.3838 76.8965 96.3016C76.8355 96.3255 76.6472 96.4342 76.5783 96.4899L76.5757 96.4926Z" fill="white"/>
<path d="M74.4733 96.795L74.4468 96.7897C74.4123 96.7764 74.399 96.7394 74.3937 96.7023C74.3778 96.6201 74.3672 96.2647 74.4309 96.209L74.4468 96.1958H74.4813C74.5528 96.1932 74.9479 96.4053 74.9479 96.4954C74.9479 96.5909 74.5369 96.795 74.4759 96.795H74.4733ZM74.4971 96.3072C74.4839 96.3761 74.4839 96.5962 74.4971 96.6811C74.5714 96.6519 74.7491 96.5512 74.8153 96.4981C74.7491 96.4451 74.5687 96.3364 74.4945 96.3099L74.4971 96.3072Z" fill="white"/>
<path d="M76.2925 95.981C76.2712 95.981 76.2474 95.981 76.2288 95.9598C76.205 95.9359 76.2023 95.8961 76.2209 95.8007C76.2209 95.798 76.2898 95.4348 76.3747 95.3976L76.4012 95.3923C76.4197 95.3923 76.4701 95.3923 76.6531 95.5859C76.8015 95.7423 76.7962 95.7795 76.7962 95.7954C76.7883 95.9147 76.319 95.9784 76.2951 95.9784L76.2925 95.981ZM76.4091 95.5117C76.3826 95.57 76.3269 95.7822 76.319 95.8697C76.4144 95.8617 76.6106 95.8113 76.6796 95.7769C76.6398 95.7185 76.4781 95.5568 76.4118 95.5117H76.4091Z" fill="#4F2208"/>
<path d="M74.9954 97.5931C74.9769 97.5931 74.9265 97.5931 74.7436 97.3995C74.5951 97.2431 74.6004 97.2059 74.6004 97.19C74.6083 97.0707 75.0776 97.0071 75.1015 97.0071C75.1227 97.0071 75.1466 97.0071 75.1651 97.0283C75.1863 97.0495 75.1943 97.0812 75.1731 97.1873C75.1731 97.19 75.1042 97.5506 75.0193 97.5903L74.9928 97.5956L74.9954 97.5931ZM74.717 97.2085C74.7595 97.2669 74.9186 97.4286 74.9849 97.4737C75.0114 97.4154 75.0644 97.2059 75.075 97.1157C74.9742 97.1263 74.7833 97.1741 74.7144 97.2059L74.717 97.2085Z" fill="#4F2208"/>
<path d="M76.3961 97.5904H76.3934C76.3484 97.5877 76.3245 97.5453 76.298 97.479C76.298 97.4764 76.1654 97.0946 76.2317 97.0256C76.2503 97.0071 76.2768 97.0044 76.2953 97.0044C76.3563 97.0044 76.754 97.0787 76.7938 97.1662C76.8124 97.2034 76.7859 97.2404 76.7753 97.2563C76.7275 97.3279 76.4809 97.5878 76.3987 97.5878L76.3961 97.5904ZM76.3192 97.1131C76.3271 97.198 76.3749 97.3942 76.4094 97.4658C76.4783 97.4154 76.6347 97.2669 76.6772 97.2033C76.6188 97.1794 76.4173 97.1238 76.3165 97.1131H76.3192Z" fill="#4F2208"/>
<path d="M75.1014 95.9834C75.0404 95.9834 74.6427 95.9092 74.6029 95.8217C74.5844 95.7846 74.6109 95.7475 74.6215 95.7316C74.6692 95.66 74.9158 95.4001 74.998 95.4001C75.0484 95.4028 75.0722 95.4452 75.0987 95.5115C75.0987 95.5141 75.2313 95.8959 75.165 95.9649C75.1465 95.9834 75.12 95.9861 75.1014 95.9861V95.9834ZM74.7143 95.7819C74.7726 95.8058 74.9741 95.8615 75.0749 95.8721C75.0669 95.7872 75.0166 95.5831 74.9821 95.5142C74.9238 95.554 74.762 95.713 74.7169 95.7819H74.7143Z" fill="#4F2208"/>
<path d="M77.4089 99.9689C77.4089 100.086 77.3028 100.181 77.1862 100.181C77.0695 100.181 76.9741 100.086 76.9741 99.9689C76.9741 99.8522 77.0695 99.7568 77.1862 99.7568C77.3028 99.7568 77.4089 99.8522 77.4089 99.9689Z" fill="#4F2208"/>
<path d="M88.6376 154.54C88.6376 155.099 88.1392 155.552 87.577 155.552C87.0149 155.552 86.5641 155.099 86.5641 154.54C86.5641 153.98 87.0176 153.527 87.577 153.527C88.1365 153.527 88.6376 153.98 88.6376 154.54Z" fill="#FF8915"/>
<path d="M88.2317 154.539C88.2317 154.881 87.9268 155.157 87.5847 155.157C87.2427 155.157 86.9669 154.881 86.9669 154.539C86.9669 154.197 87.2427 153.922 87.5847 153.922C87.9268 153.922 88.2317 154.197 88.2317 154.539Z" fill="#AAD044"/>
<path d="M88.5421 151.018C88.5421 152.331 87.3701 153.394 86.0576 153.394C84.7451 153.394 83.6819 152.331 83.6819 151.018C83.6819 149.706 84.7451 148.643 86.0576 148.643C87.3701 148.643 88.5421 149.706 88.5421 151.018Z" fill="#FBA819"/>
<path d="M84.1805 155.64C84.0532 155.64 83.9339 155.56 83.8915 155.436C83.3665 153.922 83.3744 151.769 83.377 151.061V150.949C83.377 150.782 83.5149 150.645 83.682 150.645C83.849 150.645 83.9869 150.782 83.9869 150.949V151.063C83.9843 151.745 83.9763 153.821 84.4668 155.237C84.5198 155.396 84.4377 155.571 84.2786 155.627C84.2441 155.64 84.2123 155.645 84.1778 155.645H84.1805V155.64Z" fill="#ED1D87"/>
<path d="M84.3661 154.476C84.382 154.404 84.4536 154.359 84.5225 154.375C84.5941 154.391 84.6392 154.463 84.6233 154.534C84.6074 154.606 84.5358 154.651 84.4668 154.635C84.3952 154.619 84.3502 154.547 84.3661 154.476Z" fill="#4F2208"/>
<path d="M84.5831 154.919C84.5991 154.847 84.6706 154.802 84.7396 154.818C84.8112 154.834 84.8562 154.905 84.8403 154.977C84.8244 155.049 84.7528 155.094 84.6839 155.078C84.6123 155.062 84.5672 154.99 84.5831 154.919Z" fill="#4F2208"/>
<path d="M84.8488 155.345C84.8647 155.274 84.9363 155.229 85.0052 155.245C85.0768 155.261 85.1219 155.332 85.106 155.404C85.0901 155.475 85.0185 155.521 84.9495 155.505C84.8779 155.489 84.8329 155.417 84.8488 155.345Z" fill="#4F2208"/>
<path d="M86.0579 153.699C84.581 153.699 83.3772 152.498 83.3772 151.018C83.3772 149.539 84.5783 148.338 86.0579 148.338C87.5374 148.338 88.8473 149.565 88.8473 151.018C88.8473 152.471 87.5692 153.699 86.0579 153.699ZM86.0579 148.947C84.9177 148.947 83.9871 149.875 83.9871 151.018C83.9871 152.161 84.9151 153.089 86.0579 153.089C87.2007 153.089 88.2374 152.14 88.2374 151.018C88.2374 149.897 87.2378 148.947 86.0579 148.947Z" fill="#ED1D87"/>
<path d="M87.3382 155.624C84.7981 155.624 83.475 152.487 83.4193 152.355C83.3557 152.198 83.4299 152.021 83.5837 151.957C83.7401 151.893 83.9178 151.965 83.9814 152.121C83.9947 152.151 85.2064 155.014 87.3356 155.014C87.6325 155.014 87.85 154.94 87.9666 154.799C88.0753 154.667 88.0647 154.51 88.0488 154.431C88.017 154.266 88.1231 154.105 88.2901 154.073C88.4545 154.041 88.6162 154.147 88.6481 154.314C88.709 154.632 88.6322 154.953 88.4386 155.189C88.2742 155.388 87.9507 155.627 87.3356 155.627L87.3382 155.624Z" fill="#ED1D87"/>
<path d="M87.7811 151.018C87.7811 151.92 86.9751 152.649 86.0736 152.649C85.172 152.649 84.4429 151.917 84.4429 151.018C84.4429 150.119 85.1747 149.388 86.0736 149.388C86.9724 149.388 87.7811 150.119 87.7811 151.018Z" fill="#8B3B16"/>
<path d="M86.6439 151.018C86.6439 151.305 86.3893 151.538 86.1003 151.538C85.8113 151.538 85.5806 151.305 85.5806 151.018C85.5806 150.732 85.8139 150.499 86.1003 150.499C86.3867 150.499 86.6439 150.732 86.6439 151.018Z" fill="#ED1D87"/>
<path d="M86.1085 150.313C86.0793 150.313 86.0502 150.297 85.9892 150.207C85.9892 150.204 85.7797 149.902 85.8115 149.817C85.8221 149.788 85.8354 149.753 86.082 149.753C86.3471 149.753 86.3816 149.791 86.3922 149.804C86.4213 149.838 86.4108 149.883 86.3789 149.952C86.3789 149.955 86.2013 150.321 86.1058 150.321L86.1085 150.313ZM85.9176 149.87C85.9414 149.931 86.0501 150.119 86.1058 150.188C86.1589 150.122 86.2676 149.944 86.2941 149.87C86.2596 149.868 86.1827 149.86 86.082 149.86C85.9945 149.86 85.9441 149.865 85.9176 149.87Z" fill="white"/>
<path d="M86.1344 152.381C85.8693 152.381 85.8348 152.344 85.8242 152.331C85.7951 152.296 85.8057 152.251 85.8375 152.182C85.8375 152.18 86.0151 151.814 86.1106 151.814C86.1451 151.814 86.1742 151.84 86.2272 151.92C86.2272 151.923 86.4367 152.227 86.4049 152.312C86.3943 152.341 86.381 152.376 86.1344 152.376V152.381ZM85.9223 152.262C85.9568 152.264 86.0337 152.272 86.1344 152.272C86.2219 152.272 86.2723 152.267 86.2988 152.262C86.275 152.201 86.1663 152.013 86.1106 151.944C86.0576 152.01 85.9489 152.188 85.9223 152.262Z" fill="white"/>
<path d="M87.3278 151.366C87.2562 151.366 86.8611 151.154 86.8611 151.063C86.8611 150.968 87.2721 150.764 87.3331 150.764L87.3596 150.769C87.394 150.782 87.4073 150.819 87.4126 150.854C87.4285 150.933 87.4365 151.294 87.3755 151.347L87.3596 151.36H87.3251V151.363L87.3278 151.366ZM86.9857 151.066C87.052 151.119 87.2323 151.228 87.3066 151.254C87.3198 151.185 87.3198 150.957 87.3066 150.875C87.2456 150.899 87.0573 151.008 86.9884 151.063L86.9857 151.066Z" fill="white"/>
<path d="M84.8855 151.366L84.859 151.36C84.8245 151.347 84.8113 151.31 84.806 151.273C84.7901 151.191 84.7795 150.835 84.8431 150.78L84.859 150.766H84.8935C84.9651 150.764 85.3602 150.976 85.3602 151.066C85.3602 151.161 84.9492 151.366 84.8882 151.366H84.8855ZM84.9094 150.878C84.8961 150.947 84.8961 151.167 84.9094 151.252C84.9836 151.222 85.1613 151.122 85.2276 151.069C85.1613 151.016 84.981 150.907 84.9067 150.88L84.9094 150.878Z" fill="white"/>
<path d="M86.7052 150.554C86.684 150.554 86.6602 150.554 86.6416 150.533C86.6177 150.509 86.6151 150.469 86.6336 150.374C86.6336 150.371 86.7026 150.008 86.7874 149.971L86.814 149.966C86.8325 149.966 86.8829 149.966 87.0658 150.159C87.2143 150.316 87.209 150.353 87.209 150.369C87.2011 150.488 86.7318 150.552 86.7079 150.552L86.7052 150.554ZM86.8219 150.085C86.7954 150.143 86.7397 150.355 86.7317 150.443C86.8272 150.435 87.0234 150.384 87.0923 150.35C87.0526 150.292 86.8908 150.13 86.8245 150.085H86.8219Z" fill="#4F2208"/>
<path d="M85.4082 152.166C85.3896 152.166 85.3392 152.166 85.1563 151.973C85.0078 151.816 85.0131 151.779 85.0131 151.763C85.021 151.644 85.4904 151.58 85.5142 151.58C85.5354 151.58 85.5593 151.58 85.5779 151.602C85.5991 151.623 85.607 151.655 85.5858 151.761C85.5858 151.763 85.5169 152.124 85.432 152.164L85.4055 152.169L85.4082 152.166ZM85.1297 151.779C85.1722 151.838 85.3313 151.999 85.3975 152.044C85.4241 151.986 85.4771 151.777 85.4877 151.686C85.387 151.697 85.1961 151.745 85.1271 151.777L85.1297 151.779Z" fill="#4F2208"/>
<path d="M86.8055 152.161H86.8029C86.7578 152.159 86.7339 152.116 86.7074 152.05C86.7074 152.047 86.5748 151.665 86.6411 151.596C86.6597 151.578 86.6862 151.575 86.7048 151.575C86.7657 151.575 87.1635 151.649 87.2032 151.737C87.2218 151.774 87.1953 151.811 87.1847 151.827C87.1369 151.899 86.8904 152.159 86.8082 152.159L86.8055 152.161ZM86.7286 151.687C86.7366 151.771 86.7843 151.968 86.8188 152.039C86.8877 151.989 87.0441 151.84 87.0866 151.777C87.0282 151.753 86.8267 151.697 86.726 151.687H86.7286Z" fill="#4F2208"/>
<path d="M85.5141 150.554C85.4531 150.554 85.0554 150.48 85.0156 150.392C84.9971 150.355 85.0236 150.318 85.0342 150.302C85.0819 150.231 85.3285 149.971 85.4107 149.971C85.4611 149.974 85.485 150.016 85.5115 150.082C85.5115 150.085 85.644 150.467 85.5778 150.536C85.5592 150.554 85.5327 150.557 85.5141 150.557V150.554ZM85.127 150.353C85.1853 150.377 85.3869 150.432 85.4876 150.443C85.4797 150.358 85.4293 150.154 85.3948 150.085C85.3365 150.125 85.1747 150.284 85.1296 150.353H85.127Z" fill="#4F2208"/>
<path d="M87.8183 154.54C87.8183 154.656 87.7123 154.752 87.5956 154.752C87.479 154.752 87.3835 154.656 87.3835 154.54C87.3835 154.423 87.479 154.327 87.5956 154.327C87.7123 154.327 87.8183 154.423 87.8183 154.54Z" fill="#4F2208"/>
<path d="M80.6886 181.808C84.061 181.808 86.795 179.074 86.795 175.701C86.795 172.329 84.061 169.595 80.6886 169.595C77.3161 169.595 74.5822 172.329 74.5822 175.701C74.5822 179.074 77.3161 181.808 80.6886 181.808Z" fill="#FBA819"/>
<path d="M80.6882 179.485C82.7779 179.485 84.4719 177.791 84.4719 175.701C84.4719 173.612 82.7779 171.917 80.6882 171.917C78.5985 171.917 76.9045 173.612 76.9045 175.701C76.9045 177.791 78.5985 179.485 80.6882 179.485Z" fill="#AAD044"/>
<path d="M73.7892 175.789C73.7892 171.862 76.9764 168.547 80.7468 168.547C81.1843 168.547 81.5396 168.9 81.5396 169.34C81.5396 169.78 81.1843 170.133 80.7468 170.133C77.8328 170.133 75.3722 172.726 75.3722 175.791C75.3722 178.856 77.7824 181.166 80.7468 181.166C83.7112 181.166 86.1214 178.756 86.1214 175.791C86.1214 175.354 86.4767 174.998 86.9142 174.998C87.3517 174.998 87.707 175.351 87.707 175.791C87.707 179.628 84.5862 182.749 80.7495 182.749C76.9127 182.749 73.7919 179.628 73.7919 175.791L73.7892 175.789Z" fill="#4F2208"/>
<path d="M92.3791 182.696C92.159 182.595 92.0609 182.338 92.159 182.115C92.2571 181.893 92.5196 181.797 92.7397 181.895C92.9598 181.993 93.0579 182.253 92.9598 182.476C92.8617 182.699 92.5992 182.794 92.3791 182.696Z" fill="#4F2208"/>
<path d="M93.9704 182.407C93.7503 182.306 93.6522 182.049 93.7503 181.826C93.8484 181.604 94.1109 181.508 94.331 181.606C94.5511 181.704 94.6492 181.964 94.5511 182.187C94.453 182.41 94.1905 182.505 93.9704 182.407Z" fill="#4F2208"/>
<path d="M95.5369 181.831C95.3168 181.731 95.2187 181.473 95.3168 181.251C95.4149 181.028 95.6774 180.933 95.8975 181.031C96.1176 181.129 96.2157 181.389 96.1176 181.611C96.0194 181.834 95.7569 181.93 95.5369 181.831Z" fill="#4F2208"/>
<path d="M83.5177 168.261C83.9075 168.261 84.223 168.611 84.223 168.998C84.223 169.385 83.9075 169.703 83.5177 169.703C83.1279 169.703 82.8124 169.388 82.8124 168.998C82.8124 168.608 83.1279 168.261 83.5177 168.261Z" fill="#4F2208"/>
<path d="M80.6885 177.008C81.4105 177.008 81.9957 176.423 81.9957 175.701C81.9957 174.979 81.4105 174.394 80.6885 174.394C79.9666 174.394 79.3813 174.979 79.3813 175.701C79.3813 176.423 79.9666 177.008 80.6885 177.008Z" fill="#8B3B16"/>
<path d="M92.2145 178.456C93.9322 178.456 95.3247 177.064 95.3247 175.346C95.3247 173.628 93.9322 172.236 92.2145 172.236C90.4967 172.236 89.1042 173.628 89.1042 175.346C89.1042 177.064 90.4967 178.456 92.2145 178.456Z" fill="#8B3B16"/>
<path d="M92.2145 176.422C91.6205 176.422 91.1379 175.94 91.1379 175.346C91.1379 174.752 91.6205 174.269 92.2145 174.269C92.8084 174.269 93.291 174.752 93.291 175.346C93.291 175.94 92.8084 176.422 92.2145 176.422Z" fill="#09BEF0"/>
<path d="M75.8252 182.717C75.8252 182.595 75.865 182.471 75.9472 182.367C76.1407 182.126 76.4934 182.084 76.7347 182.274C76.8726 182.383 80.0464 184.801 84.0635 182.593C84.3339 182.444 84.6759 182.542 84.8271 182.813C84.9782 183.083 84.8774 183.425 84.607 183.574C79.9191 186.151 76.1964 183.277 76.04 183.155C75.8995 183.043 75.8278 182.879 75.8278 182.715L75.8252 182.717Z" fill="#AAD044"/>
<path d="M90.7187 167.776C90.7187 167.529 90.8884 167.306 91.1403 167.248C94.6827 166.434 96.849 168.587 96.9391 168.68C97.1486 168.895 97.1459 169.237 96.9312 169.446C96.719 169.656 96.3743 169.653 96.1675 169.441C96.0933 169.367 94.3194 167.63 91.3842 168.306C91.0926 168.372 90.8035 168.19 90.7346 167.901C90.7266 167.861 90.7213 167.818 90.7213 167.778L90.7187 167.776Z" fill="#ED1D87"/>
<path d="M86.1184 174.834C86.1184 174.397 86.4737 174.041 86.9112 174.041C87.3487 174.041 87.704 174.394 87.704 174.834C87.704 178.265 90.0453 179.83 92.2195 179.83C94.5661 179.83 96.5468 177.738 96.5468 175.266C96.5468 172.795 94.6059 170.939 92.2195 170.939C91.782 170.939 91.4267 170.586 91.4267 170.146C91.4267 169.706 91.782 169.354 92.2195 169.354C95.4782 169.354 98.1297 172.005 98.1297 175.264C98.1297 178.522 95.4226 181.413 92.2195 181.413C89.1889 181.413 86.1184 179.151 86.1184 174.834Z" fill="#4F2208"/>
</svg>
