<svg width="174" height="240" viewBox="0 0 174 240" fill="none" xmlns="http://www.w3.org/2000/svg">
<rect width="174" height="240" fill="none"/>
<path d="M101.222 100.52C100.353 98.1281 101.587 95.4824 103.977 94.6102C106.367 93.738 109.008 94.9696 109.877 97.3611L130.228 153.426L121.573 156.584L101.222 100.52Z" fill="#684DA8"/>
<path d="M104.853 94.265C107.358 93.3505 110.127 94.641 111.038 97.1476L131.286 152.913L130.188 153.312L109.741 97.0002C108.973 94.8864 106.703 93.7556 104.575 94.3764C104.666 94.3369 104.758 94.2994 104.853 94.265Z" fill="#5937A8"/>
<path d="M64.0993 97.5225C64.9736 95.1267 67.6258 93.89 70.023 94.7602C72.4203 95.6305 73.6549 98.2781 72.7806 100.674L52.4961 156.257L43.8149 153.106L64.0993 97.5225Z" fill="#684DA8"/>
<path d="M70.7801 95.1135C73.2872 96.0233 74.5793 98.7919 73.6653 101.297L53.4931 156.586L52.3965 156.187L72.7681 100.35C73.5393 98.2359 72.523 95.9088 70.4905 95.0185C70.5873 95.0469 70.684 95.0786 70.7801 95.1135Z" fill="#5937A8"/>
<path d="M113.058 223.22C113.048 223.262 113.034 223.293 113.019 223.324C112.975 223.441 112.926 223.557 112.872 223.667C112.818 223.79 112.754 223.9 112.686 224.023C112.622 224.127 112.558 224.225 112.49 224.33C112.205 224.74 111.862 225.09 111.48 225.348C111.421 225.391 111.362 225.427 111.304 225.464C111.279 225.482 111.25 225.495 111.225 225.519C111.166 225.55 111.108 225.587 111.044 225.611C110.779 225.734 110.505 225.832 110.221 225.881C110.206 225.887 110.181 225.893 110.167 225.893C110.103 225.9 110.039 225.912 109.971 225.912C109.907 225.912 109.848 225.924 109.784 225.924C109.74 225.924 109.691 225.924 109.647 225.924H66.7872C66.0178 225.924 65.2777 225.574 64.6994 224.943C62.6115 222.649 62.6703 221.754 62.734 220.853L63.8074 207.687L63.9887 205.528L64.3612 200.916L64.5425 198.758L68.3654 140.206C68.3801 140.077 68.3899 139.942 68.4144 139.814C68.4242 139.74 68.4389 139.673 68.4487 139.605C68.4634 139.507 68.4879 139.409 68.5124 139.311C68.5663 139.102 68.63 138.9 68.7035 138.71C68.728 138.63 68.7624 138.562 68.7918 138.489C68.8506 138.36 68.9192 138.225 68.978 138.097C69.0515 137.98 69.1152 137.863 69.1887 137.747C69.2427 137.667 69.2917 137.6 69.3456 137.526C69.3995 137.453 69.4534 137.379 69.5122 137.318C69.5465 137.263 69.5857 137.226 69.6299 137.183C69.6887 137.115 69.7475 137.06 69.8161 136.993C69.8896 136.925 69.9582 136.858 70.0317 136.809C70.0562 136.784 70.0906 136.753 70.1249 136.735C70.2033 136.668 70.2866 136.612 70.3797 136.557C70.4042 136.545 70.4238 136.533 70.4483 136.52C70.4679 136.508 70.4924 136.49 70.512 136.484C70.9776 136.214 71.4923 136.073 72.0265 136.073H101.742C103.599 136.073 105.168 137.796 105.398 140.096L111.088 198.77L111.304 200.929L111.318 201.063L111.563 203.424L111.769 205.448L111.779 205.54L112.005 207.699L113.338 220.742C113.431 221.632 113.313 222.484 113.034 223.238L113.058 223.22Z" fill="#684DA8"/>
<path d="M113.014 223.22C113 223.263 112.99 223.287 112.97 223.33C112.926 223.447 112.877 223.563 112.823 223.674C112.769 223.796 112.706 223.907 112.637 224.03C112.573 224.134 112.51 224.232 112.441 224.336C112.157 224.747 111.814 225.097 111.431 225.354C111.373 225.397 111.314 225.434 111.255 225.471C111.23 225.489 111.201 225.501 111.177 225.526C111.118 225.556 111.059 225.593 110.995 225.618C110.731 225.74 110.456 225.838 110.172 225.887C110.093 225.9 110.005 225.918 109.922 225.918C109.878 225.918 109.834 225.924 109.79 225.931C109.745 225.931 109.696 225.931 109.652 225.931H66.7434C65.974 225.931 65.2339 225.581 64.6556 224.949C62.5677 222.656 62.6266 221.761 62.6903 220.859L63.7636 207.693L63.945 205.534L64.3223 200.923L64.4988 198.764L68.3216 140.212C68.3363 140.084 68.351 139.949 68.3706 139.82C68.3804 139.746 68.3951 139.679 68.4098 139.611C68.4245 139.513 68.4441 139.415 68.4735 139.317C68.5275 139.109 68.5912 138.906 68.6647 138.716C68.6892 138.636 68.7235 138.569 68.7529 138.495C68.8117 138.367 68.8803 138.232 68.9391 138.103C69.0127 137.986 69.0764 137.87 69.1499 137.753C69.2038 137.674 69.2528 137.606 69.3067 137.532C69.3606 137.459 69.4145 137.385 69.4733 137.324C69.5077 137.275 69.5469 137.238 69.591 137.189C69.6498 137.122 69.7086 137.067 69.7772 136.999C69.8507 136.932 69.9193 136.864 69.9929 136.815C70.0174 136.791 70.0517 136.76 70.086 136.742C70.1644 136.674 70.2526 136.619 70.3408 136.564C70.385 136.539 70.4339 136.508 70.4732 136.484C70.4732 136.484 70.4634 136.515 70.4585 136.527C70.3016 136.962 70.2085 137.428 70.1644 137.913L66.1504 198.776L65.974 200.935L65.5966 205.547L65.4202 207.705L64.5331 218.56C64.3223 221.092 65.7926 223.361 67.8168 223.619C67.9442 223.631 68.0667 223.643 68.1942 223.643H111.49C112.01 223.643 112.529 223.508 112.995 223.244C113.309 223.067 113.309 223.067 113 223.244L113.014 223.22Z" fill="#5937A8"/>
<path d="M71.17 105.669C71.3514 103.308 72.9394 101.499 74.8361 101.499H97.7591C99.5922 101.499 101.146 103.186 101.406 105.455L106.179 147.26C106.322 148.523 105.626 149.688 104.616 149.872C104.528 149.891 104.439 149.897 104.351 149.897H69.8271C68.8077 149.897 67.9793 148.873 67.9793 147.603C67.9793 147.524 67.9793 147.45 67.9892 147.37L71.17 105.675H71.1651L71.17 105.669Z" fill="#684DA8"/>
<path d="M104.159 149.832H69.6345C68.6151 149.838 67.7868 148.808 67.7868 147.538C67.7868 147.459 67.7868 147.379 67.7966 147.293L70.9775 105.61C71.1049 103.961 71.9283 102.526 73.134 101.851C72.9673 102.311 72.8595 102.808 72.8252 103.311L69.6345 145.005C69.5365 146.269 70.2717 147.403 71.2813 147.526C71.3451 147.532 71.4088 147.538 71.4774 147.538H106.002C106.002 148.814 105.173 149.838 104.164 149.838V149.826L104.159 149.832Z" fill="#5937A8"/>
<path d="M99.9368 133.485H96.2563V225.93H99.9368V133.485Z" fill="#7A66A8"/>
<path d="M87.1212 12.2573C100.015 12.2573 114.375 22.4934 118.58 34.6929L124.194 50.9712C125.166 53.8 125.659 56.8501 125.716 59.9946V60.0132C125.482 72.9261 118.188 87.0517 107.568 93.2524C107.081 93.5302 106.596 93.8021 106.097 94.0483L125.406 134.744C125.476 134.883 125.533 135.035 125.57 135.18C125.425 135.704 125.096 136.183 124.629 136.505H108.275L56.591 136.374C52.9669 136.367 50.6244 132.553 52.2531 129.314C57.2415 119.407 66.2207 102.496 66.4669 101.998L71.0763 94.6665C56.6354 87.4489 47.2843 64.5654 52.5568 49.2974L58.1701 33.019C60.2412 27.0077 64.7816 21.4766 70.3888 17.4038C74.6447 14.7834 79.3675 13.0088 84.0148 12.4468C85.0565 12.3205 86.0921 12.2573 87.1212 12.2573ZM86.9191 24.4282C67.8684 24.4284 52.4279 39.8342 52.4279 58.8345C52.4279 77.8348 67.8684 93.2346 86.9191 93.2349C105.97 93.2349 121.411 77.8349 121.411 58.8345C121.411 39.8341 105.97 24.4341 86.9191 24.4341V24.4282Z" fill="#684DA8"/>
<path d="M87.1215 12.2642C100.016 12.2644 116.986 21.8188 121.192 34.0181L127.21 45.7983C128.716 48.7455 129.972 51.8516 130.143 55.1567C130.275 57.7161 130.139 61.0276 129.174 64.4829C128.468 67.0121 127.073 69.276 125.604 71.4526L121.192 77.9888L108.617 92.5854C108.131 92.8626 108.649 92.3393 108.151 92.5854L125.406 134.745C125.475 134.883 125.532 135.035 125.57 135.18C125.835 136.146 125.455 137.188 124.628 137.756C124.534 137.819 124.445 137.876 124.344 137.92C124.016 138.084 123.65 138.173 123.284 138.173H105.768L54.0844 138.041C50.46 138.034 48.1166 134.22 49.7455 130.981C54.7339 121.074 62.1371 103.373 62.1371 103.373L65.5385 94.7065C52.1706 88.0254 41.6941 68.1641 44.3881 53.1382C44.815 50.7577 45.9108 48.5699 47.1293 46.481L49.7045 42.0669C52.8197 36.7267 55.3422 30.8688 59.5834 26.3706C62.1559 23.6423 65.2937 20.9255 68.1332 18.8999C68.8657 18.3758 69.6178 17.8779 70.3881 17.4106C74.6439 14.7902 79.3668 13.0156 84.0141 12.4536C85.056 12.3273 86.0923 12.2642 87.1215 12.2642ZM87.2192 26.9351C69.736 26.9352 55.5659 41.0733 55.5659 58.5103C55.5659 75.9472 69.736 90.0804 87.2192 90.0806C104.702 90.0806 118.873 75.9473 118.873 58.5103C118.873 41.0732 104.702 26.9399 87.2192 26.9399V26.9351Z" fill="#5937A8"/>
<path d="M109.156 25.7225C98.3144 17.5769 87.1884 18.0506 87.1884 18.0506C73.0504 18.9788 65.2836 25.7163 65.2836 25.7163C47.338 41.5528 56.7339 69.9424 56.7339 69.9424C56.7339 69.9424 62.9978 93.3878 87.22 93.1605C111.442 92.9269 117.706 69.9424 117.706 69.9424C117.706 69.9424 127.102 41.5527 109.156 25.7225ZM87.9082 87.8247H86.538C86.538 87.8247 60.3963 86.2651 60.15 54.3584C60.0932 47.1726 62.0759 41.4518 64.6522 36.7539L87.2452 36.5769L109.788 36.7539C112.364 41.4518 114.347 47.1726 114.29 54.3584C114.044 86.2587 87.9019 87.8247 87.9019 87.8247H87.9082Z" fill="#684DA8"/>
<path d="M66.3697 32.3158C70.9414 25.837 78.7147 21.6694 86.6774 21.0821C92.8342 20.6212 99.3256 22.8631 103.525 27.4411C104.914 28.8872 106.019 30.5479 106.853 32.3223C103.392 30.4469 100.21 28.8176 96.9198 27.9209C86.5006 24.9341 76.3404 28.7861 66.3633 32.3223L66.3697 32.3158Z" fill="#5937A8"/>
</svg>
