<svg width="174" height="240" viewBox="0 0 174 240" fill="none" xmlns="http://www.w3.org/2000/svg">
<rect width="174" height="240" fill="none"/>
<path d="M70.3816 160.5H103.207C104.2 160.5 105.005 161.46 105.005 162.637V186.811C105.005 188.37 103.941 189.632 102.631 189.632H70.9549C69.6431 189.632 68.5812 188.367 68.5812 186.811V162.637C68.5812 161.455 69.3888 160.5 70.3793 160.5H70.3816Z" fill="#513996"/>
<path d="M80.213 89.8008C80.213 89.8008 78.1947 86.9959 74.8034 89.4486C67.5047 89.4486 61.5216 95.3246 61.5216 102.977L69.7173 109.153C69.5714 110.778 70.7732 127.169 70.7732 127.169C70.7732 127.169 70.4086 139.784 66.2935 162.123C66.1344 162.985 82.6956 163.43 86.9512 163.226C91.2043 163.427 107.795 162.995 107.851 162.123C107.883 161.624 104.618 134.199 103.18 127.136C102.904 122.115 103.05 110.876 102.904 109.254L112.672 103.688C112.982 94.0447 105.192 88.6082 99.7958 89.4486C97.2302 87.237 94.936 89.8009 94.936 89.8009C94.1342 92.7933 80.9082 92.3955 80.213 89.8008Z" fill="#AAD044"/>
<path d="M61.5968 102.94C61.5968 102.94 60.162 104.327 60.2256 104.818C60.5226 107.032 66.6031 111.575 68.6866 111.341C69.1586 111.287 70.0155 109.036 70.0155 109.036L61.5968 102.94Z" fill="#ED1D87"/>
<path d="M112.682 103.593C112.682 103.593 113.79 105.239 113.64 105.826C112.682 108.151 106.751 111.676 104.103 111.057C103.539 110.924 102.794 109.125 102.794 109.125L112.682 103.593Z" fill="#ED1D87"/>
<path d="M103.889 110.152C103.875 110.128 103.872 110.099 103.886 110.069C103.912 110.011 103.983 109.974 104.051 109.984L105.517 110.263L106.051 108.958C106.062 108.929 106.088 108.905 106.116 108.889C106.144 108.874 106.181 108.868 106.213 108.874L107.679 109.152L108.213 107.847C108.238 107.789 108.309 107.752 108.377 107.763L109.844 108.041L110.377 106.736C110.389 106.707 110.414 106.683 110.443 106.668C110.471 106.652 110.508 106.646 110.539 106.652L112.006 106.93L112.539 105.625C112.565 105.567 112.636 105.53 112.704 105.541C112.769 105.554 112.803 105.609 112.78 105.67L112.201 107.084C112.176 107.142 112.105 107.179 112.037 107.169L110.57 106.89L110.037 108.195C110.025 108.224 110 108.248 109.972 108.264C109.943 108.28 109.906 108.285 109.875 108.28L108.408 108.001L107.875 109.306C107.864 109.335 107.838 109.359 107.81 109.375C107.781 109.391 107.745 109.396 107.713 109.391L106.247 109.112L105.713 110.417C105.688 110.475 105.617 110.512 105.549 110.502L103.963 110.199C103.929 110.191 103.906 110.175 103.892 110.152H103.889Z" fill="#B0A930"/>
<path d="M103.864 109.226C103.849 109.202 103.847 109.173 103.861 109.144C103.886 109.085 103.957 109.048 104.025 109.059L104.908 109.226L105.441 107.921C105.452 107.892 105.478 107.869 105.506 107.853C105.535 107.837 105.571 107.831 105.603 107.837L107.069 108.115L107.603 106.811C107.628 106.752 107.699 106.715 107.767 106.726L109.234 107.004L109.767 105.7C109.779 105.67 109.804 105.646 109.833 105.631C109.861 105.615 109.898 105.609 109.929 105.615L111.396 105.893L111.736 105.06C111.762 105.002 111.833 104.965 111.901 104.976C111.969 104.986 112 105.045 111.977 105.106L111.592 106.044C111.566 106.103 111.495 106.14 111.427 106.129L109.96 105.851L109.427 107.155C109.416 107.184 109.39 107.208 109.362 107.224C109.333 107.24 109.296 107.245 109.265 107.24L107.799 106.962L107.265 108.266C107.254 108.295 107.228 108.319 107.2 108.335C107.172 108.351 107.135 108.356 107.103 108.351L105.637 108.073L105.103 109.377C105.078 109.436 105.007 109.473 104.939 109.462L103.935 109.271C103.9 109.263 103.878 109.247 103.864 109.223V109.226Z" fill="#B0A930"/>
<path d="M103.577 109.621C103.563 109.597 103.56 109.568 103.574 109.539C103.6 109.481 103.671 109.444 103.739 109.454L105.206 109.733L105.739 108.428C105.75 108.399 105.776 108.375 105.804 108.359C105.833 108.343 105.869 108.338 105.901 108.343L107.367 108.622L107.901 107.317C107.926 107.259 107.997 107.222 108.065 107.232L109.532 107.511L110.065 106.206C110.077 106.177 110.102 106.153 110.131 106.137C110.159 106.121 110.196 106.116 110.227 106.121L111.694 106.4L112.227 105.095C112.253 105.037 112.324 105 112.392 105.01C112.457 105.024 112.491 105.079 112.468 105.14L111.89 106.553C111.864 106.612 111.793 106.649 111.725 106.638L110.258 106.36L109.725 107.664C109.714 107.694 109.688 107.718 109.66 107.733C109.631 107.749 109.594 107.755 109.563 107.749L108.097 107.471L107.563 108.776C107.552 108.805 107.526 108.829 107.498 108.844C107.47 108.86 107.433 108.866 107.401 108.86L105.935 108.582L105.401 109.887C105.376 109.945 105.305 109.982 105.237 109.971L103.651 109.669C103.617 109.661 103.594 109.645 103.58 109.621H103.577Z" fill="#B0A930"/>
<path d="M68.9014 110.553C68.9183 110.528 68.924 110.498 68.9155 110.464C68.9013 110.396 68.8363 110.344 68.7713 110.35L67.3463 110.455L67.0184 108.946C67.0099 108.912 66.9929 108.884 66.9646 108.86C66.9363 108.835 66.9053 108.826 66.8742 108.829L65.4492 108.933L65.1212 107.425C65.1071 107.357 65.0421 107.305 64.977 107.311L63.5521 107.415L63.2241 105.906C63.2156 105.873 63.1987 105.845 63.1704 105.821C63.1421 105.796 63.111 105.787 63.0799 105.79L61.655 105.894L61.327 104.385C61.3128 104.318 61.2478 104.266 61.1828 104.272C61.1206 104.275 61.0782 104.333 61.0923 104.404L61.4485 106.032C61.4627 106.1 61.5277 106.152 61.5927 106.146L63.0177 106.041L63.3457 107.55C63.3542 107.584 63.3711 107.612 63.3994 107.636C63.4277 107.661 63.4588 107.67 63.4899 107.667L64.9148 107.562L65.2428 109.072C65.2513 109.105 65.2683 109.133 65.2965 109.157C65.3248 109.182 65.3559 109.191 65.387 109.188L66.812 109.084L67.1399 110.593C67.154 110.66 67.2191 110.712 67.2841 110.706L68.825 110.593C68.8561 110.593 68.8816 110.574 68.8985 110.55L68.9014 110.553Z" fill="#B0A930"/>
<path d="M69.051 109.537C69.0679 109.513 69.0736 109.482 69.0651 109.448C69.051 109.381 68.986 109.329 68.9209 109.335L68.0643 109.396L67.7363 107.887C67.7278 107.854 67.7108 107.826 67.6826 107.802C67.6543 107.777 67.6232 107.768 67.5921 107.771L66.1671 107.875L65.8392 106.366C65.825 106.299 65.76 106.247 65.695 106.253L64.27 106.357L63.942 104.848C63.9336 104.814 63.9166 104.787 63.8883 104.762C63.86 104.738 63.829 104.728 63.7979 104.731L62.3729 104.836L62.1637 103.876C62.1495 103.808 62.0845 103.756 62.0195 103.762C61.9544 103.769 61.9149 103.824 61.929 103.894L62.1665 104.98C62.1806 105.047 62.2457 105.1 62.3107 105.093L63.7357 104.989L64.0636 106.498C64.0721 106.532 64.0891 106.559 64.1173 106.584C64.1456 106.608 64.1767 106.618 64.2078 106.615L65.6328 106.51L65.9608 108.019C65.9692 108.053 65.9862 108.081 66.0145 108.105C66.0427 108.13 66.0738 108.139 66.1049 108.136L67.5299 108.032L67.8579 109.54C67.872 109.608 67.937 109.66 68.0021 109.654L68.9775 109.583C69.0086 109.583 69.034 109.565 69.051 109.54V109.537Z" fill="#B0A930"/>
<path d="M69.2685 110.01C69.2855 109.986 69.2912 109.955 69.2827 109.921C69.2686 109.854 69.2035 109.802 69.1385 109.808L67.7135 109.912L67.3855 108.403C67.3771 108.369 67.3601 108.342 67.3318 108.317C67.3036 108.293 67.2725 108.283 67.2414 108.286L65.8164 108.391L65.4884 106.882C65.4743 106.814 65.4093 106.762 65.3442 106.768L63.9193 106.873L63.5913 105.364C63.5828 105.33 63.5659 105.302 63.5376 105.278C63.5093 105.253 63.4782 105.244 63.4471 105.247L62.0221 105.351L61.6942 103.843C61.6801 103.775 61.615 103.723 61.55 103.729C61.4878 103.732 61.4454 103.79 61.4595 103.861L61.8158 105.489C61.8299 105.557 61.8949 105.609 61.96 105.603L63.3849 105.499L63.7129 107.008C63.7214 107.041 63.7383 107.069 63.7666 107.093C63.7949 107.118 63.826 107.127 63.8571 107.124L65.282 107.02L65.61 108.529C65.6185 108.563 65.6354 108.59 65.6637 108.615C65.692 108.639 65.7231 108.648 65.7542 108.645L67.1792 108.541L67.5071 110.05C67.5213 110.117 67.5863 110.17 67.6513 110.163L69.1922 110.05C69.2233 110.05 69.2487 110.032 69.2657 110.007L69.2685 110.01Z" fill="#B0A930"/>
<path d="M94.7211 158.808C93.8382 158.808 93.1223 158.018 93.1223 157.135C93.1223 156.252 93.8382 155.536 94.7211 155.536C95.6041 155.536 96.32 156.252 96.32 157.135C96.32 158.018 95.6041 158.808 94.7211 158.808Z" fill="#FF8915"/>
<path d="M94.7211 158.172C94.1802 158.172 93.7427 157.69 93.7427 157.151C93.7427 156.613 94.1802 156.173 94.7211 156.173C95.262 156.173 95.6995 156.61 95.6995 157.151C95.6995 157.692 95.262 158.172 94.7211 158.172Z" fill="#AAD044"/>
<path d="M100.286 158.66C98.2129 158.66 96.5319 156.807 96.5319 154.733C96.5319 152.66 98.2129 150.981 100.284 150.981C102.355 150.981 104.036 152.662 104.036 154.733C104.036 156.804 102.355 158.66 100.284 158.66H100.286Z" fill="#FBA819"/>
<path d="M92.9839 151.769C92.9839 151.57 93.1086 151.382 93.3075 151.313C95.6991 150.483 99.101 150.496 100.217 150.498H100.395C100.66 150.498 100.877 150.713 100.877 150.981C100.877 151.249 100.663 151.464 100.395 151.464H100.215C99.1381 151.461 95.8608 151.448 93.623 152.222C93.3711 152.309 93.098 152.177 93.0105 151.925C92.9919 151.872 92.9839 151.819 92.9839 151.766V151.769Z" fill="#ED1D87"/>
<path d="M94.8218 152.058C94.9332 152.084 95.0047 152.196 94.9782 152.307C94.9517 152.418 94.8404 152.49 94.7263 152.463C94.6123 152.437 94.5434 152.326 94.5699 152.214C94.5964 152.103 94.7078 152.031 94.8218 152.058Z" fill="#4F2208"/>
<path d="M94.1242 152.405C94.2356 152.431 94.3072 152.543 94.2806 152.654C94.2541 152.766 94.1428 152.837 94.0288 152.811C93.9148 152.784 93.8458 152.673 93.8723 152.561C93.8988 152.45 94.0102 152.378 94.1242 152.405Z" fill="#4F2208"/>
<path d="M93.4487 152.824C93.5601 152.851 93.6317 152.962 93.6052 153.073C93.5787 153.185 93.4673 153.256 93.3533 153.23C93.2392 153.203 93.1703 153.092 93.1968 152.981C93.2233 152.869 93.3347 152.798 93.4487 152.824Z" fill="#4F2208"/>
<path d="M96.0519 154.733C96.0519 152.397 97.9504 150.496 100.289 150.496C102.628 150.496 104.526 152.395 104.526 154.733C104.526 157.072 102.585 159.14 100.289 159.14C97.9928 159.14 96.0519 157.122 96.0519 154.733ZM103.558 154.733C103.558 152.93 102.092 151.464 100.289 151.464C98.486 151.464 97.0197 152.93 97.0197 154.733C97.0197 156.536 98.5178 158.177 100.289 158.177C102.06 158.177 103.558 156.6 103.558 154.733Z" fill="#ED1D87"/>
<path d="M93.0076 156.756C93.0076 152.742 97.9633 150.65 98.1754 150.565C98.422 150.464 98.7031 150.581 98.8038 150.825C98.9046 151.069 98.7879 151.353 98.544 151.453C98.4989 151.472 93.9728 153.389 93.9728 156.754C93.9728 157.223 94.0894 157.568 94.3122 157.751C94.5216 157.923 94.7682 157.907 94.8982 157.883C95.158 157.833 95.4125 158.005 95.4629 158.265C95.5133 158.525 95.3409 158.779 95.0811 158.83C94.5773 158.928 94.0762 158.806 93.6997 158.496C93.3841 158.236 93.0103 157.724 93.0103 156.754L93.0076 156.756Z" fill="#ED1D87"/>
<path d="M100.287 157.456C98.8627 157.456 97.7094 156.184 97.7094 154.76C97.7094 153.336 98.8654 152.182 100.287 152.182C101.708 152.182 102.864 153.338 102.864 154.76C102.864 156.181 101.708 157.456 100.287 157.456Z" fill="#8B3B16"/>
<path d="M100.287 155.658C99.8335 155.658 99.4676 155.253 99.4676 154.799C99.4676 154.346 99.8361 153.98 100.287 153.98C100.738 153.98 101.106 154.348 101.106 154.799C101.106 155.25 100.738 155.658 100.287 155.658Z" fill="#ED1D87"/>
<path d="M101.4 154.813C101.4 154.762 101.427 154.723 101.567 154.624C101.573 154.622 102.05 154.296 102.185 154.346C102.23 154.362 102.289 154.386 102.289 154.773C102.289 155.195 102.23 155.245 102.212 155.261C102.159 155.309 102.085 155.29 101.981 155.242C101.976 155.242 101.4 154.961 101.4 154.81V154.813ZM102.103 154.513C102.005 154.553 101.711 154.723 101.599 154.81C101.705 154.895 101.984 155.065 102.1 155.107C102.106 155.054 102.119 154.929 102.119 154.773C102.119 154.635 102.111 154.556 102.103 154.513Z" fill="white"/>
<path d="M98.1336 154.855C98.1336 154.433 98.1919 154.383 98.2105 154.367C98.2635 154.319 98.3378 154.338 98.4412 154.386C98.4465 154.386 99.0219 154.667 99.0219 154.818C99.0219 154.871 98.9821 154.919 98.8575 155.006C98.8522 155.009 98.3722 155.338 98.237 155.287C98.1919 155.269 98.1336 155.247 98.1336 154.858V154.855ZM98.3219 154.518C98.3165 154.571 98.3033 154.696 98.3033 154.852C98.3033 154.99 98.3112 155.072 98.3192 155.112C98.4173 155.072 98.7116 154.903 98.823 154.815C98.7169 154.73 98.4385 154.561 98.3219 154.518Z" fill="white"/>
<path d="M99.7353 156.74C99.7353 156.626 100.069 156.003 100.213 156.003C100.366 156.003 100.687 156.653 100.687 156.748L100.679 156.791C100.658 156.846 100.6 156.865 100.541 156.876C100.414 156.899 99.8466 156.915 99.7591 156.817L99.7379 156.793L99.7326 156.743L99.7353 156.74ZM100.213 156.202C100.125 156.308 99.9553 156.592 99.9155 156.706C100.027 156.724 100.388 156.73 100.512 156.706C100.472 156.61 100.303 156.313 100.213 156.202Z" fill="white"/>
<path d="M99.7348 152.88L99.7427 152.837C99.7639 152.782 99.8223 152.763 99.8806 152.752C100.013 152.729 100.573 152.71 100.663 152.811L100.684 152.835L100.689 152.885C100.689 152.999 100.355 153.622 100.212 153.622C100.058 153.622 99.7375 152.973 99.7375 152.877L99.7348 152.88ZM100.506 152.922C100.398 152.904 100.048 152.901 99.9177 152.922C99.9628 153.041 100.122 153.32 100.209 153.426C100.297 153.32 100.467 153.036 100.506 152.922Z" fill="white"/>
<path d="M101.019 155.754C101.019 155.722 101.021 155.682 101.053 155.653C101.093 155.613 101.154 155.611 101.302 155.637C101.308 155.637 101.878 155.746 101.939 155.879L101.947 155.921C101.947 155.947 101.947 156.032 101.639 156.321C101.392 156.552 101.334 156.549 101.305 156.547C101.117 156.533 101.016 155.794 101.016 155.754H101.019ZM101.761 155.939C101.666 155.897 101.334 155.81 101.196 155.796C101.21 155.947 101.292 156.258 101.345 156.364C101.435 156.3 101.695 156.046 101.766 155.942L101.761 155.939Z" fill="#4F2208"/>
<path d="M98.4758 153.707C98.4758 153.68 98.4757 153.596 98.7833 153.307C99.0299 153.076 99.0882 153.078 99.1174 153.081C99.3057 153.092 99.4065 153.834 99.4065 153.874C99.4065 153.906 99.4038 153.948 99.372 153.975C99.3375 154.009 99.2898 154.02 99.1201 153.988C99.1148 153.988 98.5447 153.879 98.4837 153.747L98.4758 153.704V153.707ZM99.0829 153.267C98.9928 153.33 98.733 153.585 98.6614 153.688C98.7568 153.728 99.083 153.816 99.2261 153.832C99.2102 153.67 99.1307 153.37 99.0803 153.264L99.0829 153.267Z" fill="#4F2208"/>
<path d="M98.478 155.918V155.913C98.4806 155.844 98.5495 155.802 98.6556 155.762C98.6609 155.762 99.2655 155.55 99.3715 155.656C99.4007 155.685 99.406 155.725 99.406 155.754C99.406 155.852 99.284 156.48 99.1488 156.541C99.0904 156.568 99.0321 156.528 99.0056 156.512C98.8916 156.438 98.4806 156.046 98.4806 155.916L98.478 155.918ZM99.231 155.796C99.0958 155.81 98.7855 155.887 98.6689 155.94C98.7458 156.051 98.9817 156.292 99.0851 156.364C99.1249 156.271 99.2124 155.953 99.2283 155.796H99.231Z" fill="#4F2208"/>
<path d="M101.019 153.871C101.019 153.773 101.141 153.145 101.276 153.084C101.334 153.057 101.392 153.097 101.419 153.113C101.533 153.187 101.944 153.58 101.944 153.71C101.941 153.787 101.872 153.826 101.766 153.866C101.761 153.866 101.156 154.078 101.05 153.972C101.021 153.943 101.016 153.903 101.016 153.871H101.019ZM101.337 153.264C101.297 153.357 101.21 153.675 101.194 153.832C101.331 153.818 101.652 153.739 101.758 153.683C101.695 153.593 101.44 153.333 101.337 153.261V153.264Z" fill="#4F2208"/>
<path d="M94.7208 157.517C94.5352 157.517 94.3841 157.35 94.3841 157.167C94.3841 156.984 94.5352 156.83 94.7208 156.83C94.9064 156.83 95.0576 156.981 95.0576 157.167C95.0576 157.353 94.9064 157.517 94.7208 157.517Z" fill="#4F2208"/>
<path d="M96.1626 133.359C96.1626 132.792 96.669 132.336 97.2338 132.336C97.7986 132.336 98.2573 132.794 98.2573 133.359C98.2573 133.924 97.7986 134.383 97.2338 134.383C96.669 134.383 96.1626 133.924 96.1626 133.359Z" fill="#FF8915"/>
<path d="M96.5709 133.359C96.5709 133.015 96.8784 132.734 97.2258 132.734C97.5731 132.734 97.8515 133.015 97.8515 133.359C97.8515 133.704 97.5705 133.985 97.2258 133.985C96.8811 133.985 96.5709 133.704 96.5709 133.359Z" fill="#AAD044"/>
<path d="M96.2579 136.923C96.2579 135.597 97.4431 134.521 98.7715 134.521C100.1 134.521 101.174 135.597 101.174 136.923C101.174 138.249 100.097 139.325 98.7715 139.325C97.4457 139.325 96.2579 138.251 96.2579 136.923Z" fill="#FBA819"/>
<path d="M100.667 132.248C100.794 132.248 100.914 132.328 100.959 132.455C101.489 133.985 101.481 136.162 101.479 136.878V136.992C101.479 137.161 101.341 137.299 101.171 137.299C101.001 137.299 100.863 137.161 100.863 136.992V136.875C100.866 136.186 100.874 134.088 100.378 132.657C100.322 132.495 100.407 132.32 100.569 132.264C100.604 132.251 100.635 132.246 100.67 132.246L100.667 132.248Z" fill="#ED1D87"/>
<path d="M100.482 133.426C100.466 133.497 100.394 133.542 100.322 133.526C100.251 133.511 100.206 133.439 100.222 133.367C100.238 133.296 100.309 133.251 100.381 133.267C100.452 133.283 100.497 133.354 100.482 133.426Z" fill="#4F2208"/>
<path d="M100.259 132.98C100.244 133.052 100.172 133.097 100.1 133.081C100.029 133.065 99.9837 132.993 99.9996 132.922C100.016 132.85 100.087 132.805 100.159 132.821C100.23 132.837 100.275 132.908 100.259 132.98Z" fill="#4F2208"/>
<path d="M99.9944 132.545C99.9785 132.617 99.9069 132.662 99.8353 132.646C99.7637 132.63 99.7187 132.558 99.7346 132.487C99.7505 132.415 99.8221 132.37 99.8937 132.386C99.9653 132.402 100.01 132.474 99.9944 132.545Z" fill="#4F2208"/>
<path d="M98.771 134.213C100.266 134.213 101.481 135.43 101.481 136.923C101.481 138.416 100.264 139.633 98.771 139.633C97.2782 139.633 95.9498 138.392 95.9498 136.923C95.9498 135.454 97.2411 134.213 98.771 134.213ZM98.771 139.015C99.9271 139.015 100.863 138.076 100.863 136.923C100.863 135.77 99.9244 134.831 98.771 134.831C97.6176 134.831 96.5677 135.791 96.5677 136.923C96.5677 138.055 97.5779 139.015 98.771 139.015Z" fill="#ED1D87"/>
<path d="M97.4754 132.264C100.042 132.264 101.381 135.435 101.437 135.571C101.5 135.73 101.426 135.91 101.27 135.974C101.113 136.037 100.93 135.966 100.867 135.807C100.853 135.778 99.6284 132.882 97.4728 132.882C97.1705 132.882 96.9504 132.956 96.8338 133.099C96.7224 133.232 96.733 133.391 96.7489 133.473C96.7807 133.64 96.672 133.802 96.505 133.834C96.3379 133.866 96.1762 133.757 96.1443 133.59C96.0807 133.266 96.1603 132.946 96.3591 132.707C96.5262 132.505 96.8523 132.264 97.4728 132.264H97.4754Z" fill="#ED1D87"/>
<path d="M97.027 136.923C97.027 136.011 97.8411 135.271 98.7532 135.271C99.6653 135.271 100.405 136.011 100.405 136.923C100.405 137.835 99.6653 138.575 98.7532 138.575C97.8411 138.575 97.027 137.835 97.027 136.925V136.923Z" fill="#8B3B16"/>
<path d="M98.1781 136.923C98.1781 136.634 98.438 136.398 98.727 136.398C99.016 136.398 99.252 136.634 99.252 136.923C99.252 137.212 99.016 137.448 98.727 137.448C98.438 137.448 98.1781 137.212 98.1781 136.923Z" fill="#ED1D87"/>
<path d="M98.7213 137.636C98.7531 137.636 98.7796 137.652 98.8432 137.742C98.8432 137.745 99.0554 138.05 99.0209 138.137C99.0103 138.166 98.997 138.203 98.7478 138.203C98.4773 138.203 98.4455 138.166 98.4349 138.153C98.4057 138.119 98.4163 138.071 98.4482 138.005C98.4482 138.002 98.6285 137.633 98.7239 137.633L98.7213 137.636ZM98.9095 138.084C98.8856 138.02 98.7769 137.835 98.7186 137.763C98.6656 137.83 98.5568 138.01 98.5303 138.084C98.5648 138.087 98.6444 138.095 98.7451 138.095C98.8326 138.095 98.8856 138.089 98.9122 138.084H98.9095Z" fill="white"/>
<path d="M98.6925 135.544C98.9629 135.544 98.9947 135.581 99.0053 135.594C99.0345 135.629 99.0239 135.677 98.9921 135.743C98.9921 135.745 98.8118 136.114 98.7163 136.114C98.6819 136.114 98.6527 136.088 98.597 136.008C98.597 136.005 98.3849 135.698 98.4194 135.61C98.43 135.581 98.4432 135.544 98.6925 135.544ZM98.9072 135.666C98.8728 135.663 98.7932 135.655 98.6925 135.655C98.605 135.655 98.552 135.661 98.5254 135.666C98.5493 135.73 98.6607 135.915 98.7163 135.987C98.7694 135.92 98.8781 135.74 98.9046 135.666H98.9072Z" fill="white"/>
<path d="M97.4855 136.57C97.5598 136.57 97.9575 136.785 97.9575 136.875C97.9575 136.973 97.5412 137.178 97.4802 137.178L97.4537 137.172C97.4193 137.159 97.406 137.119 97.4007 137.085C97.3848 137.005 97.3742 136.642 97.4378 136.586L97.4537 136.573H97.4882L97.4855 136.57ZM97.8302 136.875C97.7613 136.82 97.581 136.711 97.5067 136.684C97.4935 136.753 97.4935 136.987 97.5067 137.066C97.5677 137.042 97.7587 136.931 97.8302 136.875Z" fill="white"/>
<path d="M99.9567 136.57L99.9832 136.576C100.018 136.589 100.031 136.629 100.036 136.663C100.052 136.748 100.063 137.106 99.9991 137.162L99.9832 137.175H99.9487C99.8745 137.177 99.4767 136.965 99.4767 136.873C99.4767 136.775 99.893 136.57 99.954 136.57H99.9567ZM99.9301 137.063C99.9434 136.995 99.9434 136.772 99.9301 136.687C99.8532 136.716 99.6756 136.82 99.6067 136.873C99.6756 136.928 99.8559 137.037 99.9301 137.063Z" fill="white"/>
<path d="M98.1168 137.392C98.138 137.392 98.1619 137.392 98.1804 137.413C98.2043 137.437 98.207 137.477 98.1884 137.572C98.1884 137.575 98.1194 137.941 98.0346 137.978L98.0054 137.984C97.9869 137.984 97.9365 137.983 97.7509 137.787C97.6024 137.628 97.605 137.594 97.605 137.572C97.613 137.451 98.0876 137.387 98.1115 137.387H98.1141L98.1168 137.392ZM97.9975 137.867C98.024 137.806 98.0797 137.596 98.0903 137.504C97.9948 137.512 97.796 137.565 97.727 137.599C97.7695 137.657 97.9312 137.822 97.9975 137.867Z" fill="#4F2208"/>
<path d="M99.4267 135.764C99.4452 135.764 99.4956 135.764 99.6812 135.96C99.8297 136.119 99.8271 136.154 99.8271 136.175C99.8191 136.297 99.3445 136.361 99.3206 136.361C99.2994 136.361 99.2729 136.361 99.257 136.34C99.2358 136.318 99.2278 136.286 99.249 136.18C99.249 136.178 99.318 135.812 99.4028 135.775L99.432 135.769H99.4293L99.4267 135.764ZM99.7078 136.151C99.6653 136.093 99.5036 135.929 99.4373 135.884C99.4108 135.945 99.3551 136.154 99.3445 136.247C99.4479 136.236 99.6415 136.188 99.7078 136.154V136.151Z" fill="#4F2208"/>
<path d="M98.0135 135.764H98.0161C98.0612 135.767 98.0851 135.809 98.1116 135.878C98.1116 135.881 98.2468 136.268 98.1805 136.337C98.162 136.355 98.1355 136.358 98.1169 136.358C98.0533 136.358 97.6529 136.281 97.6131 136.194C97.5945 136.157 97.6211 136.119 97.6317 136.103C97.6794 136.029 97.9286 135.767 98.0108 135.767L98.0135 135.764ZM98.0904 136.247C98.0824 136.162 98.032 135.96 98.0002 135.889C97.9286 135.939 97.7749 136.09 97.7298 136.154C97.7881 136.178 97.9949 136.236 98.093 136.247H98.0904Z" fill="#4F2208"/>
<path d="M99.3201 137.39C99.3838 137.39 99.7841 137.467 99.8239 137.554C99.8425 137.591 99.816 137.628 99.8054 137.644C99.7576 137.718 99.5084 137.978 99.4262 137.978C99.3758 137.976 99.3519 137.933 99.3254 137.864C99.3254 137.862 99.1902 137.474 99.2565 137.406C99.2751 137.387 99.3016 137.384 99.3201 137.384V137.39ZM99.7099 137.594C99.6516 137.57 99.4448 137.512 99.3467 137.501C99.3546 137.588 99.405 137.793 99.4421 137.864C99.5004 137.822 99.6648 137.66 99.7099 137.594Z" fill="#4F2208"/>
<path d="M96.9896 133.359C96.9896 133.24 97.0957 133.144 97.215 133.144C97.3343 133.144 97.4298 133.24 97.4298 133.359C97.4298 133.478 97.3343 133.574 97.215 133.574C97.0957 133.574 96.9896 133.478 96.9896 133.359Z" fill="#4F2208"/>
<path d="M91.4113 116.156C91.4113 115.589 91.9177 115.133 92.4825 115.133C93.0472 115.133 93.506 115.591 93.506 116.156C93.506 116.721 93.0472 117.18 92.4825 117.18C91.9177 117.18 91.4113 116.721 91.4113 116.156Z" fill="#FF8915"/>
<path d="M91.8196 116.156C91.8196 115.811 92.1271 115.53 92.4745 115.53C92.8218 115.53 93.1002 115.811 93.1002 116.156C93.1002 116.501 92.8192 116.782 92.4745 116.782C92.1298 116.782 91.8196 116.501 91.8196 116.156Z" fill="#AAD044"/>
<path d="M91.5066 119.72C91.5066 118.394 92.6918 117.318 94.0202 117.318C95.3487 117.318 96.4225 118.394 96.4225 119.72C96.4225 121.046 95.346 122.122 94.0202 122.122C92.6945 122.122 91.5066 121.048 91.5066 119.72Z" fill="#FBA819"/>
<path d="M95.9159 115.045C96.0432 115.045 96.1626 115.125 96.2076 115.252C96.7379 116.782 96.73 118.959 96.7273 119.675V119.789C96.7273 119.958 96.5894 120.096 96.4197 120.096C96.25 120.096 96.1122 119.958 96.1122 119.789V119.672C96.1148 118.983 96.1228 116.885 95.6269 115.453C95.5713 115.292 95.6561 115.117 95.8178 115.061C95.8523 115.048 95.8841 115.042 95.9186 115.042L95.9159 115.045Z" fill="#ED1D87"/>
<path d="M95.7302 116.222C95.7143 116.294 95.6427 116.339 95.5711 116.323C95.4995 116.307 95.4544 116.236 95.4704 116.164C95.4863 116.093 95.5579 116.048 95.6294 116.063C95.701 116.079 95.7461 116.151 95.7302 116.222Z" fill="#4F2208"/>
<path d="M95.5076 115.774C95.4917 115.846 95.4201 115.891 95.3485 115.875C95.2769 115.859 95.2319 115.788 95.2478 115.716C95.2637 115.645 95.3353 115.599 95.4068 115.615C95.4784 115.631 95.5235 115.703 95.5076 115.774Z" fill="#4F2208"/>
<path d="M95.242 115.342C95.2261 115.414 95.1545 115.459 95.0829 115.443C95.0113 115.427 94.9662 115.355 94.9821 115.284C94.998 115.212 95.0696 115.167 95.1412 115.183C95.2128 115.199 95.2579 115.271 95.242 115.342Z" fill="#4F2208"/>
<path d="M94.0198 117.01C95.5153 117.01 96.7297 118.227 96.7297 119.72C96.7297 121.213 95.5126 122.43 94.0198 122.43C92.527 122.43 91.1986 121.189 91.1986 119.72C91.1986 118.251 92.4899 117.01 94.0198 117.01ZM94.0198 121.812C95.1759 121.812 96.1118 120.873 96.1118 119.72C96.1118 118.566 95.1732 117.628 94.0198 117.628C92.8664 117.628 91.8164 118.588 91.8164 119.72C91.8164 120.852 92.8266 121.812 94.0198 121.812Z" fill="#ED1D87"/>
<path d="M92.7236 115.061C95.2902 115.061 96.6292 118.233 96.6849 118.368C96.7486 118.527 96.6743 118.707 96.5179 118.771C96.3614 118.834 96.1785 118.763 96.1148 118.604C96.1016 118.574 94.8766 115.679 92.7209 115.679C92.4187 115.679 92.1986 115.753 92.0819 115.896C91.9705 116.029 91.9812 116.188 91.9971 116.27C92.0289 116.437 91.9202 116.599 91.7531 116.631C91.5861 116.663 91.4243 116.554 91.3925 116.387C91.3289 116.064 91.4084 115.743 91.6073 115.504C91.7743 115.303 92.1005 115.061 92.7209 115.061H92.7236Z" fill="#ED1D87"/>
<path d="M92.2753 119.72C92.2753 118.808 93.0893 118.068 94.0014 118.068C94.9135 118.068 95.6533 118.808 95.6533 119.72C95.6533 120.632 94.9135 121.372 94.0014 121.372C93.0893 121.372 92.2753 120.632 92.2753 119.723V119.72Z" fill="#8B3B16"/>
<path d="M93.4291 119.72C93.4291 119.431 93.6889 119.195 93.978 119.195C94.267 119.195 94.503 119.431 94.503 119.72C94.503 120.009 94.267 120.245 93.978 120.245C93.6889 120.245 93.4291 120.009 93.4291 119.72Z" fill="#ED1D87"/>
<path d="M93.97 120.433C94.0018 120.433 94.0283 120.449 94.092 120.539C94.092 120.542 94.3041 120.847 94.2696 120.934C94.259 120.964 94.2458 121.001 93.9965 121.001C93.7261 121.001 93.6943 120.964 93.6837 120.95C93.6545 120.916 93.6651 120.868 93.6969 120.802C93.6969 120.799 93.8772 120.431 93.9727 120.431L93.97 120.433ZM94.1583 120.881C94.1344 120.818 94.0257 120.632 93.9674 120.561C93.9143 120.627 93.8056 120.807 93.7791 120.881C93.8136 120.884 93.8931 120.892 93.9939 120.892C94.0814 120.892 94.1344 120.887 94.1609 120.881H94.1583Z" fill="white"/>
<path d="M93.9402 118.341C94.2106 118.341 94.2425 118.378 94.2531 118.391C94.2822 118.426 94.2716 118.474 94.2398 118.54C94.2398 118.543 94.0595 118.911 93.964 118.911C93.9296 118.911 93.9004 118.885 93.8447 118.805C93.8447 118.802 93.6326 118.495 93.6671 118.407C93.6777 118.378 93.6909 118.341 93.9402 118.341ZM94.1576 118.463C94.1231 118.46 94.0436 118.452 93.9428 118.452C93.8553 118.452 93.8023 118.458 93.7758 118.463C93.7996 118.527 93.911 118.712 93.9667 118.784C94.0197 118.718 94.1284 118.537 94.1549 118.463H94.1576Z" fill="white"/>
<path d="M92.7337 119.367C92.8079 119.367 93.2057 119.582 93.2057 119.672C93.2057 119.77 92.7894 119.975 92.7284 119.975L92.7019 119.969C92.6674 119.956 92.6542 119.916 92.6489 119.882C92.633 119.802 92.6223 119.439 92.686 119.383L92.7019 119.37H92.7363L92.7337 119.367ZM93.0784 119.672C93.0095 119.617 92.8292 119.508 92.7549 119.481C92.7417 119.55 92.7417 119.784 92.7549 119.863C92.8159 119.839 93.0068 119.728 93.0784 119.672Z" fill="white"/>
<path d="M95.2055 119.367L95.232 119.373C95.2664 119.386 95.2797 119.426 95.285 119.46C95.3009 119.545 95.3115 119.903 95.2479 119.959L95.232 119.972H95.1975C95.1233 119.975 94.7255 119.762 94.7255 119.67C94.7255 119.572 95.1418 119.367 95.2028 119.367H95.2055ZM95.179 119.861C95.1922 119.792 95.1922 119.569 95.179 119.484C95.1021 119.513 94.9244 119.617 94.8554 119.67C94.9244 119.725 95.1047 119.834 95.179 119.861Z" fill="white"/>
<path d="M93.365 120.189C93.3862 120.189 93.4101 120.189 93.4286 120.21C93.4525 120.234 93.4552 120.274 93.4366 120.369C93.4366 120.372 93.3677 120.738 93.2828 120.775L93.2537 120.78C93.2351 120.78 93.1847 120.78 92.9991 120.584C92.8506 120.425 92.8533 120.391 92.8533 120.369C92.8612 120.248 93.3358 120.184 93.3597 120.184H93.3623L93.365 120.189ZM93.2457 120.661C93.2722 120.6 93.3279 120.391 93.3385 120.298C93.243 120.306 93.0442 120.359 92.9752 120.393C93.0177 120.452 93.1794 120.616 93.2457 120.661Z" fill="#4F2208"/>
<path d="M94.6749 118.559C94.6934 118.559 94.7438 118.559 94.9294 118.755C95.0779 118.914 95.0753 118.948 95.0753 118.97C95.0673 119.092 94.5927 119.155 94.5688 119.155C94.5476 119.155 94.5211 119.155 94.5052 119.134C94.484 119.113 94.476 119.081 94.4972 118.975C94.4972 118.972 94.5662 118.606 94.651 118.569L94.6802 118.564H94.6775L94.6749 118.559ZM94.9586 118.948C94.9162 118.89 94.7544 118.726 94.6881 118.681C94.6616 118.742 94.6059 118.951 94.5953 119.044C94.6987 119.033 94.8923 118.985 94.9586 118.951V118.948Z" fill="#4F2208"/>
<path d="M93.2622 118.561H93.2648C93.3099 118.564 93.3338 118.606 93.3603 118.675C93.3603 118.678 93.4955 119.065 93.4292 119.134C93.4107 119.152 93.3842 119.155 93.3656 119.155C93.302 119.155 92.9016 119.078 92.8618 118.991C92.8433 118.954 92.8698 118.917 92.8804 118.901C92.9281 118.826 93.1774 118.564 93.2596 118.564L93.2622 118.561ZM93.3391 119.041C93.3311 118.956 93.2808 118.755 93.2489 118.683C93.1774 118.734 93.0236 118.885 92.9785 118.948C93.0368 118.972 93.2436 119.031 93.3417 119.041H93.3391Z" fill="#4F2208"/>
<path d="M94.5689 120.187C94.6325 120.187 95.0329 120.264 95.0727 120.351C95.0912 120.388 95.0647 120.425 95.0541 120.441C95.0063 120.515 94.7571 120.775 94.6749 120.775C94.6245 120.773 94.6007 120.73 94.5742 120.661C94.5742 120.659 94.4389 120.272 94.5052 120.203C94.5238 120.184 94.5503 120.181 94.5689 120.181V120.187ZM94.9586 120.391C94.9003 120.367 94.6935 120.309 94.5954 120.298C94.6033 120.386 94.6537 120.59 94.6908 120.661C94.7492 120.619 94.9135 120.457 94.9586 120.391Z" fill="#4F2208"/>
<path d="M92.2383 116.156C92.2383 116.037 92.3444 115.941 92.4637 115.941C92.5831 115.941 92.6785 116.037 92.6785 116.156C92.6785 116.276 92.5831 116.371 92.4637 116.371C92.3444 116.371 92.2383 116.276 92.2383 116.156Z" fill="#4F2208"/>
<path d="M76.6633 117.578C76.6633 117.01 77.1697 116.554 77.7345 116.554C78.2993 116.554 78.758 117.013 78.758 117.578C78.758 118.142 78.2993 118.601 77.7345 118.601C77.1697 118.601 76.6633 118.142 76.6633 117.578Z" fill="#FF8915"/>
<path d="M77.0716 117.578C77.0716 117.233 77.3792 116.952 77.7265 116.952C78.0739 116.952 78.3523 117.233 78.3523 117.578C78.3523 117.922 78.0712 118.203 77.7265 118.203C77.3818 118.203 77.0716 117.922 77.0716 117.578Z" fill="#AAD044"/>
<path d="M76.7614 121.139C76.7614 119.813 77.9466 118.736 79.275 118.736C80.6034 118.736 81.6773 119.813 81.6773 121.139C81.6773 122.464 80.6007 123.541 79.275 123.541C77.9492 123.541 76.7614 122.467 76.7614 121.139Z" fill="#FBA819"/>
<path d="M81.1713 116.466C81.2985 116.466 81.4178 116.546 81.4629 116.673C81.9932 118.203 81.9853 120.38 81.9826 121.096V121.21C81.9826 121.379 81.8447 121.517 81.6751 121.517C81.5054 121.517 81.3675 121.379 81.3675 121.21V121.093C81.3701 120.404 81.3781 118.306 80.8823 116.875C80.8266 116.713 80.9114 116.538 81.0732 116.482C81.1076 116.469 81.1394 116.464 81.1739 116.464L81.1713 116.466Z" fill="#ED1D87"/>
<path d="M80.9855 117.641C80.9696 117.713 80.898 117.758 80.8264 117.742C80.7548 117.726 80.7098 117.654 80.7257 117.583C80.7416 117.511 80.8132 117.466 80.8848 117.482C80.9563 117.498 81.0014 117.569 80.9855 117.641Z" fill="#4F2208"/>
<path d="M80.7624 117.196C80.7465 117.267 80.6749 117.312 80.6033 117.296C80.5317 117.281 80.4866 117.209 80.5025 117.137C80.5184 117.066 80.59 117.021 80.6616 117.037C80.7332 117.053 80.7783 117.124 80.7624 117.196Z" fill="#4F2208"/>
<path d="M80.4946 116.763C80.4787 116.835 80.4071 116.88 80.3355 116.864C80.2639 116.848 80.2189 116.777 80.2348 116.705C80.2507 116.634 80.3223 116.588 80.3939 116.604C80.4655 116.62 80.5105 116.692 80.4946 116.763Z" fill="#4F2208"/>
<path d="M79.2751 118.429C80.7705 118.429 81.985 119.646 81.985 121.138C81.985 122.631 80.7679 123.848 79.2751 123.848C77.7823 123.848 76.4539 122.607 76.4539 121.138C76.4539 119.67 77.7452 118.429 79.2751 118.429ZM79.2751 123.231C80.4312 123.231 81.3671 122.292 81.3671 121.138C81.3671 119.985 80.4285 119.047 79.2751 119.047C78.1217 119.047 77.0717 120.006 77.0717 121.138C77.0717 122.271 78.0819 123.231 79.2751 123.231Z" fill="#ED1D87"/>
<path d="M77.9762 116.482C80.5429 116.482 81.8819 119.653 81.9375 119.789C82.0012 119.948 81.9269 120.128 81.7705 120.192C81.6141 120.255 81.4311 120.184 81.3675 120.025C81.3542 119.996 80.1292 117.1 77.9735 117.1C77.6713 117.1 77.4512 117.174 77.3345 117.318C77.2232 117.45 77.2338 117.609 77.2497 117.691C77.2815 117.858 77.1728 118.02 77.0057 118.052C76.8387 118.084 76.677 117.975 76.6451 117.808C76.5815 117.484 76.661 117.164 76.8599 116.925C77.0269 116.724 77.3531 116.482 77.9735 116.482H77.9762Z" fill="#ED1D87"/>
<path d="M77.53 121.138C77.53 120.226 78.344 119.487 79.2561 119.487C80.1682 119.487 80.908 120.226 80.908 121.138C80.908 122.051 80.1682 122.79 79.2561 122.79C78.344 122.79 77.53 122.051 77.53 121.141V121.138Z" fill="#8B3B16"/>
<path d="M78.681 121.138C78.681 120.849 78.9409 120.613 79.2299 120.613C79.5189 120.613 79.7549 120.849 79.7549 121.138C79.7549 121.427 79.5189 121.663 79.2299 121.663C78.9409 121.663 78.681 121.427 78.681 121.138Z" fill="#ED1D87"/>
<path d="M79.222 121.851C79.2538 121.851 79.2803 121.867 79.3439 121.958C79.3439 121.96 79.5561 122.265 79.5216 122.353C79.511 122.382 79.4977 122.419 79.2485 122.419C78.978 122.419 78.9462 122.382 78.9356 122.369C78.9065 122.334 78.917 122.286 78.9489 122.22C78.9489 122.217 79.1292 121.849 79.2246 121.849L79.222 121.851ZM79.4129 122.3C79.389 122.236 79.2803 122.05 79.222 121.979C79.1689 122.045 79.0602 122.225 79.0337 122.3C79.0682 122.302 79.1477 122.31 79.2485 122.31C79.336 122.31 79.389 122.305 79.4155 122.3H79.4129Z" fill="white"/>
<path d="M79.1954 119.76C79.4659 119.76 79.4977 119.797 79.5083 119.81C79.5374 119.845 79.5269 119.892 79.495 119.959C79.495 119.961 79.3147 120.33 79.2193 120.33C79.1848 120.33 79.1557 120.303 79.1 120.224C79.1 120.221 78.8878 119.914 78.9223 119.826C78.9329 119.797 78.9462 119.76 79.1954 119.76ZM79.4102 119.882C79.3757 119.879 79.2962 119.871 79.1954 119.871C79.1079 119.871 79.0549 119.876 79.0284 119.882C79.0522 119.945 79.1636 120.131 79.2193 120.203C79.2723 120.136 79.381 119.956 79.4075 119.882H79.4102Z" fill="white"/>
<path d="M77.989 120.786C78.0632 120.786 78.461 121.001 78.461 121.091C78.461 121.189 78.0447 121.393 77.9837 121.393L77.9572 121.388C77.9227 121.374 77.9095 121.335 77.9042 121.3C77.8883 121.221 77.8777 120.857 77.9413 120.802L77.9572 120.788H77.9917L77.989 120.786ZM78.3337 121.091C78.2648 121.035 78.0845 120.926 78.0102 120.9C77.997 120.969 77.997 121.202 78.0102 121.282C78.0712 121.258 78.2621 121.146 78.3337 121.091Z" fill="white"/>
<path d="M80.458 120.786L80.4845 120.791C80.519 120.804 80.5322 120.844 80.5376 120.878C80.5535 120.963 80.5641 121.321 80.5004 121.377L80.4845 121.39H80.4501C80.3758 121.393 79.9781 121.181 79.9781 121.088C79.9781 120.99 80.3944 120.786 80.4554 120.786H80.458ZM80.4315 121.279C80.4448 121.21 80.4448 120.987 80.4315 120.902C80.3546 120.932 80.1769 121.035 80.108 121.088C80.1769 121.144 80.3573 121.252 80.4315 121.279Z" fill="white"/>
<path d="M78.6175 121.608C78.6387 121.608 78.6626 121.608 78.6811 121.629C78.705 121.653 78.7077 121.692 78.6891 121.788C78.6891 121.791 78.6202 122.156 78.5353 122.194L78.5062 122.199C78.4876 122.199 78.4372 122.199 78.2516 122.003C78.1031 121.844 78.1058 121.809 78.1058 121.788C78.1137 121.666 78.5883 121.602 78.6122 121.602H78.6148L78.6175 121.608ZM78.5008 122.082C78.5274 122.021 78.583 121.812 78.5936 121.719C78.4982 121.727 78.2993 121.78 78.2304 121.814C78.2728 121.873 78.4346 122.037 78.5008 122.082Z" fill="#4F2208"/>
<path d="M79.9296 119.98C79.9482 119.98 79.9986 119.98 80.1842 120.176C80.3327 120.335 80.33 120.37 80.33 120.391C80.3221 120.513 79.8474 120.576 79.8236 120.576C79.8024 120.576 79.7758 120.576 79.7599 120.555C79.7387 120.534 79.7308 120.502 79.752 120.396C79.752 120.393 79.8209 120.027 79.9058 119.99L79.9349 119.985H79.9323L79.9296 119.98ZM80.2107 120.37C80.1683 120.311 80.0065 120.147 79.9402 120.102C79.9137 120.163 79.858 120.372 79.8474 120.465C79.9508 120.454 80.1444 120.407 80.2107 120.372V120.37Z" fill="#4F2208"/>
<path d="M78.5142 119.982H78.5169C78.562 119.985 78.5858 120.028 78.6123 120.096C78.6123 120.099 78.7476 120.486 78.6813 120.555C78.6627 120.574 78.6362 120.576 78.6176 120.576C78.554 120.576 78.1536 120.499 78.1138 120.412C78.0953 120.375 78.1218 120.338 78.1324 120.322C78.1801 120.248 78.4294 119.985 78.5116 119.985L78.5142 119.982ZM78.5911 120.462C78.5832 120.378 78.5328 120.176 78.501 120.104C78.4294 120.155 78.2756 120.306 78.2305 120.37C78.2889 120.393 78.4957 120.452 78.5938 120.462H78.5911Z" fill="#4F2208"/>
<path d="M79.8209 121.608C79.8845 121.608 80.2849 121.685 80.3247 121.772C80.3432 121.809 80.3167 121.846 80.3061 121.862C80.2584 121.936 80.0091 122.196 79.9269 122.196C79.8766 122.194 79.8527 122.151 79.8262 122.082C79.8262 122.08 79.691 121.692 79.7572 121.624C79.7758 121.605 79.8023 121.602 79.8209 121.602V121.608ZM80.2106 121.812C80.1523 121.788 79.9455 121.73 79.8474 121.719C79.8553 121.806 79.9057 122.011 79.9428 122.082C80.0012 122.04 80.1656 121.878 80.2106 121.812Z" fill="#4F2208"/>
<path d="M77.4904 117.578C77.4904 117.458 77.5964 117.363 77.7157 117.363C77.835 117.363 77.9305 117.458 77.9305 117.578C77.9305 117.697 77.835 117.792 77.7157 117.792C77.5964 117.792 77.4904 117.697 77.4904 117.578Z" fill="#4F2208"/>
<path d="M82.8912 128.701C82.8912 127.823 83.676 127.11 84.5537 127.11C85.4313 127.11 86.1419 127.82 86.1419 128.701C86.1419 129.581 85.4313 130.291 84.5537 130.291C83.676 130.291 82.8912 129.581 82.8912 128.701Z" fill="#FF8915"/>
<path d="M83.5226 128.701C83.5226 128.165 84.0026 127.73 84.5382 127.73C85.0738 127.73 85.5086 128.165 85.5086 128.701C85.5086 129.236 85.0738 129.671 84.5382 129.671C84.0026 129.671 83.5226 129.236 83.5226 128.701Z" fill="#AAD044"/>
<path d="M83.04 134.229C83.04 132.169 84.8828 130.498 86.9403 130.498C88.9979 130.498 90.671 132.169 90.671 134.229C90.671 136.289 89.0006 137.96 86.9403 137.96C84.8801 137.96 83.04 136.289 83.04 134.229Z" fill="#FBA819"/>
<path d="M89.8862 126.974C90.0851 126.974 90.2707 127.099 90.3396 127.298C91.1642 129.674 91.151 133.054 91.1483 134.165V134.343C91.1483 134.608 90.9336 134.82 90.6684 134.82C90.4033 134.82 90.1911 134.605 90.1911 134.343V134.163C90.1938 133.091 90.207 129.835 89.4355 127.613C89.3506 127.364 89.4805 127.091 89.7324 127.003C89.7854 126.985 89.8385 126.977 89.8888 126.977L89.8862 126.974Z" fill="#ED1D87"/>
<path d="M89.5973 128.801C89.5708 128.913 89.4594 128.982 89.3481 128.958C89.2367 128.931 89.1677 128.82 89.1916 128.709C89.2181 128.597 89.3295 128.528 89.4409 128.552C89.5522 128.579 89.6212 128.69 89.5973 128.801Z" fill="#4F2208"/>
<path d="M89.2524 128.109C89.2259 128.221 89.1146 128.29 89.0032 128.266C88.8918 128.239 88.8229 128.128 88.8468 128.017C88.8733 127.905 88.9846 127.836 89.096 127.86C89.2073 127.887 89.2763 127.998 89.2524 128.109Z" fill="#4F2208"/>
<path d="M88.8386 127.436C88.8121 127.547 88.7007 127.616 88.5893 127.592C88.4779 127.566 88.409 127.454 88.4329 127.343C88.4594 127.232 88.5708 127.163 88.6821 127.187C88.7935 127.213 88.8624 127.324 88.8386 127.436Z" fill="#4F2208"/>
<path d="M86.9404 130.021C89.2604 130.021 91.1483 131.909 91.1483 134.229C91.1483 136.549 89.2604 138.437 86.9404 138.437C84.6203 138.437 82.5601 136.509 82.5601 134.229C82.5601 131.949 84.5673 130.021 86.9404 130.021ZM86.9404 137.48C88.7328 137.48 90.1911 136.021 90.1911 134.232C90.1911 132.442 88.7328 130.983 86.9404 130.983C85.1479 130.983 83.5172 132.471 83.5172 134.234C83.5172 135.998 85.0843 137.482 86.9404 137.482V137.48Z" fill="#ED1D87"/>
<path d="M84.9305 126.998C88.9184 126.998 90.9971 131.922 91.0846 132.132C91.1854 132.376 91.0687 132.657 90.8248 132.757C90.5809 132.858 90.2998 132.742 90.1991 132.498C90.1805 132.453 88.2767 127.955 84.9305 127.955C84.4638 127.955 84.1218 128.072 83.9388 128.292C83.7691 128.499 83.7851 128.746 83.8089 128.873C83.8593 129.133 83.6896 129.385 83.4297 129.435C83.1725 129.485 82.918 129.316 82.8676 129.056C82.7722 128.557 82.8915 128.056 83.1991 127.682C83.4563 127.37 83.968 126.998 84.9305 126.998Z" fill="#ED1D87"/>
<path d="M84.2335 134.229C84.2335 132.816 85.4982 131.667 86.9141 131.667C88.33 131.667 89.4755 132.816 89.4755 134.229C89.4755 135.642 88.3274 136.79 86.9141 136.79C85.5009 136.79 84.2335 135.642 84.2335 134.229Z" fill="#8B3B16"/>
<path d="M86.0203 134.229C86.0203 133.778 86.4233 133.415 86.8741 133.415C87.3249 133.415 87.6881 133.778 87.6881 134.229C87.6881 134.68 87.3249 135.043 86.8741 135.043C86.4233 135.043 86.0203 134.68 86.0203 134.229Z" fill="#ED1D87"/>
<path d="M86.8631 135.337C86.9108 135.337 86.9533 135.364 87.0514 135.504C87.054 135.509 87.3801 135.981 87.3271 136.119C87.3112 136.164 87.2873 136.223 86.9002 136.223C86.4813 136.223 86.4309 136.164 86.4124 136.146C86.3646 136.093 86.3832 136.019 86.4309 135.915C86.4309 135.91 86.712 135.337 86.8605 135.337H86.8631ZM87.1574 136.034C87.1177 135.939 86.948 135.645 86.8605 135.536C86.7756 135.639 86.6059 135.918 86.5661 136.034C86.6192 136.04 86.7438 136.05 86.9002 136.05C87.0381 136.05 87.1177 136.042 87.1574 136.034Z" fill="white"/>
<path d="M86.8212 132.092C87.2401 132.092 87.2905 132.15 87.3091 132.169C87.3568 132.222 87.3382 132.296 87.2905 132.399C87.2905 132.405 87.0094 132.977 86.861 132.977C86.8079 132.977 86.7602 132.938 86.6753 132.813C86.6727 132.808 86.3466 132.33 86.397 132.195C86.4129 132.15 86.4367 132.092 86.8238 132.092H86.8212ZM87.1526 132.28C87.0996 132.275 86.975 132.264 86.8185 132.264C86.6807 132.264 86.6011 132.272 86.5613 132.28C86.6011 132.375 86.7708 132.67 86.8583 132.778C86.9432 132.675 87.1129 132.397 87.1526 132.28Z" fill="white"/>
<path d="M84.9471 133.683C85.0611 133.683 85.6789 134.014 85.6789 134.157C85.6789 134.309 85.032 134.629 84.9391 134.629L84.8967 134.621C84.841 134.6 84.8225 134.542 84.8118 134.484C84.788 134.356 84.7721 133.794 84.8702 133.707L84.8941 133.685L84.9444 133.68L84.9471 133.683ZM85.4827 134.157C85.3766 134.073 85.0956 133.903 84.9789 133.86C84.9603 133.972 84.9577 134.327 84.9789 134.452C85.0743 134.412 85.3687 134.242 85.4774 134.155L85.4827 134.157Z" fill="white"/>
<path d="M88.7802 133.683L88.8226 133.691C88.8782 133.712 88.8968 133.77 88.9074 133.829C88.9313 133.959 88.9499 134.518 88.8491 134.606L88.8252 134.627L88.7748 134.632C88.6608 134.632 88.043 134.301 88.043 134.157C88.043 134.006 88.69 133.686 88.7828 133.686L88.7802 133.683ZM88.7404 134.452C88.7589 134.346 88.7616 133.998 88.7404 133.866C88.6211 133.911 88.3453 134.07 88.2392 134.155C88.3453 134.24 88.6264 134.409 88.743 134.452H88.7404Z" fill="white"/>
<path d="M85.9251 134.958C85.957 134.958 85.9967 134.961 86.0259 134.993C86.0657 135.032 86.0683 135.091 86.0418 135.242C86.0418 135.247 85.9331 135.815 85.8005 135.876L85.7581 135.884C85.7316 135.884 85.6494 135.884 85.363 135.581C85.1323 135.337 85.1376 135.279 85.1376 135.25C85.1509 135.062 85.8854 134.964 85.9251 134.964V134.958ZM85.7422 135.698C85.7819 135.603 85.8694 135.276 85.8854 135.136C85.7369 135.149 85.4266 135.231 85.3206 135.282C85.3842 135.372 85.6361 135.629 85.7422 135.698Z" fill="#4F2208"/>
<path d="M87.9613 132.431C87.9878 132.431 88.07 132.431 88.3563 132.734C88.587 132.978 88.5817 133.036 88.5817 133.065C88.5711 133.253 87.834 133.351 87.7942 133.351C87.7624 133.351 87.7226 133.349 87.6935 133.317C87.659 133.283 87.6484 133.237 87.6802 133.068C87.6802 133.062 87.7889 132.495 87.9189 132.437L87.9613 132.429V132.431ZM88.3988 133.036C88.3351 132.946 88.0833 132.689 87.9772 132.62C87.9374 132.715 87.8499 133.041 87.834 133.182C87.9931 133.166 88.2927 133.089 88.3988 133.039V133.036Z" fill="#4F2208"/>
<path d="M85.7631 132.434H85.7685C85.8374 132.436 85.8771 132.503 85.9169 132.609C85.9169 132.614 86.1264 133.216 86.023 133.319C85.9938 133.349 85.954 133.354 85.9249 133.354C85.8294 133.354 85.2037 133.235 85.1427 133.097C85.1162 133.038 85.156 132.98 85.1719 132.954C85.2461 132.84 85.6332 132.434 85.7631 132.434ZM85.8851 133.182C85.8718 133.049 85.7949 132.739 85.7419 132.625C85.6305 132.699 85.3893 132.938 85.3203 133.038C85.4105 133.075 85.7313 133.166 85.8824 133.182H85.8851Z" fill="#4F2208"/>
<path d="M87.7945 134.958C87.8899 134.958 88.5157 135.077 88.5767 135.212C88.6032 135.271 88.5634 135.329 88.5475 135.356C88.4733 135.47 88.0862 135.875 87.9562 135.875C87.8794 135.873 87.8396 135.806 87.7998 135.698C87.7998 135.692 87.5903 135.09 87.6937 134.987C87.7229 134.958 87.7627 134.953 87.7918 134.953L87.7945 134.958ZM88.399 135.273C88.3089 135.236 87.988 135.146 87.8369 135.13C87.8502 135.268 87.9297 135.584 87.9828 135.692C88.0729 135.629 88.3274 135.377 88.399 135.271V135.273Z" fill="#4F2208"/>
<path d="M84.175 128.7C84.175 128.518 84.3394 128.366 84.525 128.366C84.7106 128.366 84.8591 128.515 84.8591 128.7C84.8591 128.886 84.7106 129.035 84.525 129.035C84.3394 129.035 84.175 128.886 84.175 128.7Z" fill="#4F2208"/>
<path d="M86.9138 105.762C86.9138 105.195 86.4073 104.739 85.8426 104.739C85.2778 104.739 84.8191 105.198 84.8191 105.762C84.8191 106.327 85.2778 106.786 85.8426 106.786C86.4073 106.786 86.9138 106.327 86.9138 105.762Z" fill="#FF8915"/>
<path d="M86.5059 105.762C86.5059 105.418 86.1984 105.136 85.851 105.136C85.5037 105.136 85.2253 105.418 85.2253 105.762C85.2253 106.107 85.5063 106.388 85.851 106.388C86.1957 106.388 86.5059 106.107 86.5059 105.762Z" fill="#AAD044"/>
<path d="M86.8159 109.323C86.8159 107.997 85.6307 106.921 84.3022 106.921C82.9738 106.921 81.9 107.997 81.9 109.323C81.9 110.649 82.9765 111.725 84.3022 111.725C85.628 111.725 86.8159 110.652 86.8159 109.323Z" fill="#FBA819"/>
<path d="M82.4066 104.651C82.2793 104.651 82.16 104.731 82.1149 104.858C81.5846 106.388 81.5925 108.565 81.5952 109.281V109.395C81.5952 109.565 81.7331 109.702 81.9028 109.702C82.0725 109.702 82.2104 109.565 82.2104 109.395V109.278C82.2077 108.589 82.1997 106.492 82.6956 105.06C82.7513 104.898 82.6664 104.723 82.5047 104.667C82.4702 104.654 82.4384 104.649 82.4039 104.649L82.4066 104.651Z" fill="#ED1D87"/>
<path d="M82.5946 105.829C82.6105 105.9 82.6821 105.945 82.7537 105.929C82.8253 105.913 82.8704 105.842 82.8545 105.77C82.8386 105.699 82.767 105.654 82.6954 105.669C82.6238 105.685 82.5787 105.757 82.5946 105.829Z" fill="#4F2208"/>
<path d="M82.8173 105.381C82.8332 105.452 82.9048 105.497 82.9764 105.481C83.048 105.465 83.093 105.394 83.0771 105.322C83.0612 105.251 82.9896 105.206 82.918 105.221C82.8464 105.237 82.8014 105.309 82.8173 105.381Z" fill="#4F2208"/>
<path d="M83.085 104.948C83.101 105.02 83.1726 105.065 83.2442 105.049C83.3157 105.033 83.3608 104.962 83.3449 104.89C83.329 104.818 83.2574 104.773 83.1858 104.789C83.1142 104.805 83.0691 104.877 83.085 104.948Z" fill="#4F2208"/>
<path d="M84.3051 106.616C82.8097 106.616 81.5953 107.833 81.5953 109.326C81.5953 110.819 82.8123 112.036 84.3051 112.036C85.7979 112.036 87.1264 110.795 87.1264 109.326C87.1264 107.857 85.8351 106.616 84.3051 106.616ZM84.3051 111.418C83.1491 111.418 82.2131 110.479 82.2131 109.326C82.2131 108.172 83.1517 107.234 84.3051 107.234C85.4585 107.234 86.5085 108.194 86.5085 109.326C86.5085 110.458 85.4983 111.418 84.3051 111.418Z" fill="#ED1D87"/>
<path d="M85.6014 104.667C83.0348 104.667 81.6958 107.838 81.6401 107.974C81.5764 108.133 81.6507 108.313 81.8071 108.377C81.9636 108.44 82.1465 108.369 82.2102 108.21C82.2234 108.181 83.4484 105.285 85.6041 105.285C85.9063 105.285 86.1264 105.359 86.2431 105.503C86.3545 105.635 86.3439 105.794 86.328 105.876C86.2961 106.043 86.4048 106.205 86.5719 106.237C86.7389 106.269 86.9007 106.16 86.9325 105.993C86.9961 105.67 86.9166 105.349 86.7177 105.11C86.5507 104.909 86.2245 104.667 85.6041 104.667H85.6014Z" fill="#ED1D87"/>
<path d="M86.0493 109.323C86.0493 108.411 85.2353 107.671 84.3232 107.671C83.4111 107.671 82.6713 108.411 82.6713 109.323C82.6713 110.235 83.4111 110.975 84.3232 110.975C85.2353 110.975 86.0493 110.235 86.0493 109.326V109.323Z" fill="#8B3B16"/>
<path d="M84.8991 109.323C84.8991 109.034 84.6392 108.798 84.3502 108.798C84.0612 108.798 83.8252 109.034 83.8252 109.323C83.8252 109.612 84.0612 109.848 84.3502 109.848C84.6392 109.848 84.8991 109.612 84.8991 109.323Z" fill="#ED1D87"/>
<path d="M84.3555 110.037C84.3237 110.037 84.2972 110.053 84.2336 110.143C84.2336 110.145 84.0214 110.45 84.0559 110.538C84.0665 110.567 84.0798 110.604 84.329 110.604C84.5995 110.604 84.6313 110.567 84.6419 110.554C84.6711 110.519 84.6605 110.471 84.6286 110.405C84.6286 110.402 84.4483 110.034 84.3529 110.034L84.3555 110.037ZM84.1646 110.487C84.1885 110.424 84.2972 110.238 84.3555 110.167C84.4086 110.233 84.5173 110.413 84.5438 110.487C84.5093 110.49 84.4298 110.498 84.329 110.498C84.2415 110.498 84.1885 110.493 84.162 110.487H84.1646Z" fill="white"/>
<path d="M84.3821 107.947C84.1116 107.947 84.0798 107.984 84.0692 107.997C84.0401 108.032 84.0507 108.08 84.0825 108.146C84.0825 108.149 84.2628 108.517 84.3582 108.517C84.3927 108.517 84.4219 108.491 84.4775 108.411C84.4775 108.408 84.6897 108.101 84.6552 108.013C84.6446 107.984 84.6313 107.947 84.3821 107.947ZM84.17 108.066C84.2045 108.064 84.284 108.056 84.3847 108.056C84.4722 108.056 84.5253 108.061 84.5518 108.066C84.5279 108.13 84.4166 108.316 84.3609 108.387C84.3079 108.321 84.1992 108.141 84.1726 108.066H84.17Z" fill="white"/>
<path d="M85.5914 108.973C85.5172 108.973 85.1194 109.188 85.1194 109.278C85.1194 109.376 85.5357 109.581 85.5967 109.581L85.6232 109.575C85.6577 109.562 85.671 109.522 85.6763 109.488C85.6922 109.408 85.7028 109.045 85.6391 108.989L85.6232 108.976H85.5888L85.5914 108.973ZM85.2467 109.276C85.3157 109.22 85.496 109.111 85.5702 109.085C85.5835 109.154 85.5835 109.387 85.5702 109.467C85.5092 109.443 85.3183 109.331 85.2467 109.276Z" fill="white"/>
<path d="M83.1195 108.973L83.093 108.979C83.0585 108.992 83.0453 109.032 83.04 109.066C83.0241 109.151 83.0135 109.509 83.0771 109.565L83.093 109.578H83.1275C83.2017 109.581 83.5994 109.368 83.5994 109.276C83.5994 109.178 83.1831 108.973 83.1222 108.973H83.1195ZM83.146 109.467C83.1328 109.398 83.1328 109.175 83.146 109.09C83.2229 109.119 83.4006 109.223 83.4695 109.276C83.4006 109.331 83.2203 109.44 83.146 109.467Z" fill="white"/>
<path d="M84.9602 109.793C84.939 109.793 84.9152 109.793 84.8966 109.814C84.8727 109.838 84.8701 109.878 84.8886 109.973C84.8886 109.976 84.9576 110.342 85.0424 110.379L85.0716 110.384C85.0902 110.384 85.1405 110.384 85.3261 110.188C85.4746 110.029 85.472 109.994 85.472 109.973C85.464 109.851 84.9894 109.787 84.9655 109.787H84.9629L84.9602 109.793ZM85.0769 110.27C85.0504 110.209 84.9947 110 84.9841 109.907C85.0795 109.915 85.2784 109.968 85.3473 110.002C85.3049 110.06 85.1432 110.225 85.0769 110.27Z" fill="#4F2208"/>
<path d="M83.6475 108.165C83.629 108.165 83.5786 108.164 83.3929 108.361C83.2445 108.52 83.2471 108.554 83.2471 108.575C83.2551 108.697 83.7297 108.761 83.7535 108.761C83.7748 108.761 83.8013 108.761 83.8172 108.74C83.8384 108.719 83.8464 108.687 83.8251 108.581C83.8251 108.578 83.7562 108.212 83.6714 108.175L83.6422 108.17H83.6449L83.6475 108.165ZM83.3691 108.554C83.4115 108.496 83.5733 108.332 83.6396 108.287C83.6661 108.347 83.7217 108.557 83.7323 108.65C83.6289 108.639 83.4354 108.591 83.3691 108.557V108.554Z" fill="#4F2208"/>
<path d="M85.0634 108.167H85.0608C85.0157 108.17 84.9919 108.212 84.9653 108.281C84.9653 108.284 84.8301 108.671 84.8964 108.74C84.915 108.759 84.9415 108.761 84.96 108.761C85.0237 108.761 85.4241 108.684 85.4638 108.597C85.4824 108.56 85.4559 108.523 85.4452 108.507C85.3975 108.432 85.1483 108.17 85.0661 108.17L85.0634 108.167ZM84.9865 108.647C84.9945 108.562 85.0449 108.361 85.0767 108.289C85.1483 108.34 85.3021 108.491 85.3471 108.554C85.2888 108.578 85.082 108.637 84.9839 108.647H84.9865Z" fill="#4F2208"/>
<path d="M83.7562 109.793C83.6926 109.793 83.2922 109.87 83.2525 109.957C83.2339 109.994 83.2604 110.031 83.271 110.047C83.3188 110.121 83.568 110.381 83.6502 110.381C83.7006 110.379 83.7244 110.336 83.7509 110.267C83.7509 110.265 83.8862 109.878 83.8199 109.809C83.8013 109.79 83.7748 109.787 83.7562 109.787V109.793ZM83.3665 109.997C83.4248 109.973 83.6316 109.915 83.7297 109.904C83.7218 109.992 83.6714 110.196 83.6343 110.267C83.576 110.225 83.4116 110.063 83.3665 109.997Z" fill="#4F2208"/>
<path d="M86.0864 105.762C86.0864 105.643 85.9803 105.548 85.861 105.548C85.7417 105.548 85.6462 105.643 85.6462 105.762C85.6462 105.882 85.7417 105.977 85.861 105.977C85.9803 105.977 86.0864 105.882 86.0864 105.762Z" fill="#4F2208"/>
<path d="M94.8715 99.9689C94.8715 100.528 95.37 100.982 95.9321 100.982C96.4942 100.982 96.945 100.528 96.945 99.9689C96.945 99.4094 96.4916 98.9561 95.9321 98.9561C95.3727 98.9561 94.8715 99.4094 94.8715 99.9689Z" fill="#FF8915"/>
<path d="M95.2744 99.9689C95.2744 100.311 95.5793 100.587 95.9213 100.587C96.2634 100.587 96.5391 100.311 96.5391 99.9689C96.5391 99.6269 96.2634 99.3511 95.9213 99.3511C95.5793 99.3511 95.2744 99.6269 95.2744 99.9689Z" fill="#AAD044"/>
<path d="M94.9669 96.4475C94.9669 97.76 96.1389 98.8234 97.4514 98.8234C98.7639 98.8234 99.8271 97.76 99.8271 96.4475C99.8271 95.135 98.7639 94.0718 97.4514 94.0718C96.1389 94.0718 94.9669 95.135 94.9669 96.4475Z" fill="#FBA819"/>
<path d="M99.3285 101.069C99.4558 101.069 99.5752 100.99 99.6176 100.865C100.143 99.3509 100.135 97.1979 100.132 96.49V96.3786C100.132 96.2116 99.9941 96.0737 99.827 96.0737C99.66 96.0737 99.5221 96.2116 99.5221 96.3786V96.4927C99.5248 97.1741 99.5327 99.2502 99.0422 100.666C98.9892 100.825 99.0713 101 99.2304 101.056C99.2649 101.069 99.2967 101.074 99.3312 101.074H99.3285V101.069Z" fill="#ED1D87"/>
<path d="M99.1454 99.9052C99.1295 99.8336 99.0579 99.7886 98.989 99.8045C98.9174 99.8204 98.8723 99.892 98.8882 99.9636C98.9041 100.035 98.9757 100.08 99.0446 100.064C99.1162 100.048 99.1613 99.9768 99.1454 99.9052Z" fill="#4F2208"/>
<path d="M98.9228 100.345C98.9069 100.274 98.8353 100.229 98.7664 100.245C98.6948 100.261 98.6497 100.332 98.6656 100.404C98.6815 100.475 98.7531 100.52 98.8221 100.504C98.8937 100.489 98.9387 100.417 98.9228 100.345Z" fill="#4F2208"/>
<path d="M98.6605 100.775C98.6446 100.703 98.573 100.658 98.504 100.674C98.4324 100.69 98.3874 100.761 98.4033 100.833C98.4192 100.905 98.4908 100.95 98.5597 100.934C98.6313 100.918 98.6764 100.846 98.6605 100.775Z" fill="#4F2208"/>
<path d="M97.4505 99.1257C98.9274 99.1257 100.131 97.9246 100.131 96.445C100.131 94.9655 98.93 93.7644 97.4505 93.7644C95.9709 93.7644 94.6611 94.992 94.6611 96.445C94.6611 97.8981 95.9391 99.1257 97.4505 99.1257ZM97.4505 94.3769C98.5906 94.3769 99.5213 95.3048 99.5213 96.4476C99.5213 97.5904 98.5933 98.5185 97.4505 98.5185C96.3077 98.5185 95.2709 97.5692 95.2709 96.4476C95.2709 95.326 96.2705 94.3769 97.4505 94.3769Z" fill="#ED1D87"/>
<path d="M96.1705 101.053C98.7106 101.053 100.034 97.9165 100.089 97.7839C100.153 97.6275 100.079 97.4498 99.925 97.3862C99.7685 97.3226 99.5909 97.3942 99.5273 97.5506C99.514 97.5798 98.3023 100.443 96.1731 100.443C95.8762 100.443 95.6587 100.369 95.5421 100.229C95.4334 100.096 95.4439 99.9396 95.4599 99.8601C95.4917 99.6957 95.3856 99.5339 95.2186 99.5021C95.0542 99.4703 94.8924 99.5764 94.8606 99.7434C94.7996 100.062 94.8765 100.383 95.0701 100.618C95.2345 100.817 95.558 101.056 96.1731 101.056L96.1705 101.053Z" fill="#ED1D87"/>
<path d="M95.7278 96.4475C95.7278 97.3491 96.5339 98.0783 97.4354 98.0783C98.3369 98.0783 99.066 97.3464 99.066 96.4475C99.066 95.5487 98.3342 94.8169 97.4354 94.8169C96.5365 94.8169 95.7278 95.5487 95.7278 96.4475Z" fill="#8B3B16"/>
<path d="M96.8651 96.4474C96.8651 96.7338 97.1196 96.9672 97.4086 96.9672C97.6976 96.9672 97.9283 96.7338 97.9283 96.4474C97.9283 96.1611 97.695 95.9277 97.4086 95.9277C97.1222 95.9277 96.8651 96.1611 96.8651 96.4474Z" fill="#ED1D87"/>
<path d="M97.4006 95.7423C97.4298 95.7423 97.4589 95.7264 97.5199 95.6363C97.5199 95.6336 97.7294 95.3313 97.6976 95.2464C97.687 95.2173 97.6737 95.1829 97.4271 95.1829C97.162 95.1829 97.1275 95.22 97.1169 95.2332C97.0877 95.2677 97.0983 95.3128 97.1302 95.3817C97.1302 95.3844 97.3078 95.7502 97.4032 95.7502L97.4006 95.7423ZM97.5889 95.2968C97.565 95.3578 97.4563 95.5461 97.4006 95.615C97.3476 95.5487 97.2389 95.371 97.2123 95.2968C97.2468 95.2941 97.3237 95.2862 97.4245 95.2862C97.512 95.2862 97.5623 95.2915 97.5889 95.2968Z" fill="white"/>
<path d="M97.3741 97.8106C97.6392 97.8106 97.6737 97.7735 97.6843 97.7603C97.7135 97.7258 97.7028 97.6807 97.671 97.6118C97.671 97.6091 97.4934 97.2432 97.3979 97.2432C97.3635 97.2432 97.3343 97.2698 97.2813 97.3493C97.2813 97.352 97.0718 97.6569 97.1036 97.7417C97.1142 97.7709 97.1275 97.8053 97.3741 97.8053V97.8106ZM97.5862 97.6887C97.5517 97.6913 97.4748 97.6993 97.3741 97.6993C97.2866 97.6993 97.2362 97.694 97.2097 97.6887C97.2335 97.6277 97.3423 97.4395 97.3979 97.3706C97.451 97.4368 97.5597 97.6144 97.5862 97.6887Z" fill="white"/>
<path d="M96.181 96.7948C96.2526 96.7948 96.6477 96.5827 96.6477 96.4926C96.6477 96.3971 96.2368 96.1929 96.1758 96.1929L96.1492 96.1982C96.1148 96.2114 96.1015 96.2486 96.0962 96.2831C96.0803 96.3627 96.0723 96.7232 96.1333 96.7763L96.1492 96.7895H96.1837V96.7922L96.181 96.7948ZM96.5231 96.4926C96.4568 96.5456 96.2765 96.6543 96.2023 96.6808C96.189 96.6119 96.189 96.3838 96.2023 96.3016C96.2633 96.3255 96.4515 96.4342 96.5204 96.4899L96.5231 96.4926Z" fill="white"/>
<path d="M98.6229 96.795L98.6495 96.7897C98.6839 96.7764 98.6972 96.7394 98.7025 96.7023C98.7184 96.6201 98.729 96.2647 98.6653 96.209L98.6495 96.1958H98.615C98.5434 96.1932 98.1483 96.4053 98.1483 96.4954C98.1483 96.5909 98.5593 96.795 98.6203 96.795H98.6229ZM98.5964 96.3072C98.6097 96.3761 98.6097 96.5962 98.5964 96.6811C98.5222 96.6519 98.3445 96.5512 98.2782 96.4981C98.3445 96.4451 98.5248 96.3364 98.5991 96.3099L98.5964 96.3072Z" fill="white"/>
<path d="M96.8041 95.981C96.8253 95.981 96.8492 95.981 96.8677 95.9598C96.8916 95.9359 96.8942 95.8961 96.8757 95.8007C96.8757 95.798 96.8067 95.4348 96.7219 95.3976L96.6954 95.3923C96.6768 95.3923 96.6264 95.3923 96.4435 95.5859C96.295 95.7423 96.3003 95.7795 96.3003 95.7954C96.3083 95.9147 96.7776 95.9784 96.8015 95.9784L96.8041 95.981ZM96.6874 95.5117C96.7139 95.57 96.7696 95.7822 96.7776 95.8697C96.6821 95.8617 96.4859 95.8113 96.417 95.7769C96.4567 95.7185 96.6185 95.5568 96.6848 95.5117H96.6874Z" fill="#4F2208"/>
<path d="M98.1009 97.5931C98.1195 97.5931 98.1699 97.5931 98.3528 97.3995C98.5013 97.2431 98.496 97.2059 98.496 97.19C98.4881 97.0707 98.0188 97.0071 97.9949 97.0071C97.9737 97.0071 97.9498 97.0071 97.9313 97.0283C97.9101 97.0495 97.9021 97.0812 97.9233 97.1873C97.9233 97.19 97.9922 97.5506 98.0771 97.5903L98.1036 97.5956L98.1009 97.5931ZM98.3794 97.2085C98.3369 97.2669 98.1778 97.4286 98.1116 97.4737C98.085 97.4154 98.032 97.2059 98.0214 97.1157C98.1222 97.1263 98.3131 97.1741 98.382 97.2059L98.3794 97.2085Z" fill="#4F2208"/>
<path d="M96.7005 97.5904H96.7032C96.7483 97.5877 96.7721 97.5453 96.7986 97.479C96.7986 97.4764 96.9312 97.0946 96.8649 97.0256C96.8464 97.0071 96.8199 97.0044 96.8013 97.0044C96.7403 97.0044 96.3426 97.0787 96.3028 97.1662C96.2843 97.2034 96.3108 97.2404 96.3214 97.2563C96.3691 97.3279 96.6157 97.5878 96.6979 97.5878L96.7005 97.5904ZM96.7774 97.1131C96.7695 97.198 96.7217 97.3942 96.6873 97.4658C96.6183 97.4154 96.4619 97.2669 96.4195 97.2033C96.4778 97.1794 96.6793 97.1238 96.7801 97.1131H96.7774Z" fill="#4F2208"/>
<path d="M97.9953 95.9834C98.0563 95.9834 98.454 95.9092 98.4938 95.8217C98.5123 95.7846 98.4858 95.7475 98.4752 95.7316C98.4275 95.66 98.1809 95.4001 98.0987 95.4001C98.0483 95.4028 98.0244 95.4452 97.9979 95.5115C97.9979 95.5141 97.8654 95.8959 97.9316 95.9649C97.9502 95.9834 97.9767 95.9861 97.9953 95.9861V95.9834ZM98.3797 95.7819C98.3214 95.8058 98.1199 95.8615 98.0191 95.8721C98.0271 95.7872 98.0775 95.5831 98.1119 95.5142C98.1703 95.554 98.332 95.713 98.3771 95.7819H98.3797Z" fill="#4F2208"/>
<path d="M95.6904 99.9689C95.6904 100.086 95.7964 100.181 95.9131 100.181C96.0298 100.181 96.1252 100.086 96.1252 99.9689C96.1252 99.8522 96.0298 99.7568 95.9131 99.7568C95.7964 99.7568 95.6904 99.8522 95.6904 99.9689Z" fill="#4F2208"/>
<path d="M91.5723 92.425C91.6359 92.3958 91.7155 92.3932 91.7844 92.425C93.0943 93.0534 94.1283 95.5644 94.1708 95.6731C94.2212 95.8003 94.1575 95.9409 94.0355 95.9939C93.9083 96.0443 93.7651 95.9859 93.7147 95.8586C93.7041 95.8347 92.7098 93.4166 91.5723 92.8704C91.4503 92.812 91.3973 92.6636 91.4556 92.5416C91.4821 92.4886 91.5246 92.4488 91.5723 92.425Z" fill="#4F2208"/>
<path d="M84.4797 100.067C84.5088 100.069 84.538 100.067 84.5698 100.059C84.7024 100.022 84.7793 99.8863 84.7422 99.7564C83.9043 96.7337 85.116 93.7719 85.1293 93.7427C85.1823 93.6155 85.1214 93.4724 84.9967 93.4193C84.8721 93.3663 84.7263 93.4273 84.6733 93.5519C84.6202 93.6792 83.382 96.6965 84.2676 99.8863C84.2967 99.987 84.3842 100.056 84.4823 100.067H84.4797Z" fill="#4F2208"/>
<path d="M90.1061 100.067C90.0769 100.069 90.0477 100.067 90.0159 100.059C89.8833 100.022 89.8065 99.8863 89.8436 99.7564C90.6815 96.7337 89.4697 93.7719 89.4564 93.7427C89.4034 93.6155 89.4644 93.4724 89.589 93.4193C89.7136 93.3663 89.8595 93.4273 89.9125 93.5519C89.9656 93.6792 91.2038 96.6965 90.3182 99.8863C90.289 99.987 90.2015 100.056 90.1034 100.067H90.1061Z" fill="#4F2208"/>
<path d="M87.5295 98.1763C87.5984 98.1577 87.6594 98.1126 87.6912 98.041C88.3037 96.7232 87.5083 94.1274 87.4738 94.0161C87.434 93.8861 87.2961 93.8171 87.1662 93.8542C87.0363 93.894 86.962 94.0319 87.0045 94.1618C87.0124 94.1857 87.7787 96.6861 87.2458 97.8289C87.1874 97.9535 87.2431 98.0993 87.3651 98.1576C87.4181 98.1815 87.4764 98.1868 87.5295 98.1735V98.1763Z" fill="#4F2208"/>
<path d="M83.4404 92.6105C83.3768 92.5814 83.2972 92.5787 83.2283 92.6105C81.9184 93.2389 80.8844 95.7499 80.8419 95.8586C80.7916 95.9859 80.8552 96.1264 80.9772 96.1794C81.1044 96.2298 81.2476 96.1716 81.298 96.0443C81.3086 96.0204 82.3029 93.6022 83.4404 93.056C83.5624 92.9977 83.6154 92.8491 83.5571 92.7272C83.5306 92.6741 83.4882 92.6344 83.4404 92.6105Z" fill="#4F2208"/>
<path d="M65.973 102.821C65.8617 102.744 65.806 102.606 65.8405 102.468C66.9249 98.1253 70.3931 95.4023 70.5389 95.2883C70.6848 95.1769 70.8942 95.2007 71.0056 95.3465C71.117 95.4924 71.0905 95.7019 70.9473 95.8133C70.9128 95.8398 67.5135 98.5151 66.4874 102.628C66.4423 102.805 66.262 102.914 66.0817 102.871C66.042 102.861 66.0022 102.842 65.9704 102.821H65.973Z" fill="#4F2208"/>
<path d="M67.951 104.659C67.89 104.616 67.8423 104.553 67.8211 104.476C67.7707 104.298 67.8741 104.115 68.0518 104.065C69.6957 103.606 71.5889 100.623 71.6075 100.594C71.7056 100.437 71.9097 100.39 72.0662 100.488C72.22 100.589 72.2703 100.79 72.1722 100.946C72.09 101.079 70.1226 104.179 68.2294 104.706C68.1287 104.736 68.0253 104.714 67.9484 104.656L67.951 104.659Z" fill="#4F2208"/>
<path d="M107.693 103.204C107.655 103.22 107.616 103.23 107.573 103.233C107.39 103.241 107.234 103.1 107.223 102.915C107.014 98.6801 104.201 95.395 104.174 95.3605C104.052 95.2226 104.068 95.0104 104.208 94.8885C104.346 94.7665 104.559 94.7825 104.678 94.923C104.8 95.0636 107.671 98.4097 107.891 102.88C107.899 103.023 107.817 103.148 107.693 103.201V103.204Z" fill="#4F2208"/>
<path d="M105.394 104.62C105.307 104.66 105.201 104.659 105.108 104.612C103.355 103.726 102.03 100.303 101.974 100.157C101.908 99.9849 102 99.794 102.167 99.7251C102.34 99.6588 102.531 99.7463 102.6 99.9186C102.613 99.9531 103.888 103.246 105.413 104.015C105.577 104.097 105.644 104.299 105.561 104.463C105.524 104.535 105.466 104.588 105.4 104.617L105.394 104.62Z" fill="#4F2208"/>
<path d="M71.2645 158.808C70.3815 158.808 69.6656 158.018 69.6656 157.135C69.6656 156.252 70.3815 155.536 71.2645 155.536C72.1474 155.536 72.8633 156.252 72.8633 157.135C72.8633 158.018 72.1474 158.808 71.2645 158.808Z" fill="#FF8915"/>
<path d="M71.2638 158.172C70.7229 158.172 70.2854 157.69 70.2854 157.151C70.2854 156.613 70.7229 156.173 71.2638 156.173C71.8047 156.173 72.2422 156.61 72.2422 157.151C72.2422 157.692 71.8047 158.172 71.2638 158.172Z" fill="#AAD044"/>
<path d="M76.8269 158.66C74.7535 158.66 73.0724 156.807 73.0724 154.733C73.0724 152.66 74.7535 150.981 76.8243 150.981C78.8951 150.981 80.5762 152.662 80.5762 154.733C80.5762 156.804 78.8951 158.66 76.8243 158.66H76.8269Z" fill="#FBA819"/>
<path d="M69.5245 151.769C69.5245 151.57 69.6491 151.382 69.848 151.313C72.2396 150.483 75.6415 150.496 76.7578 150.498H76.9354C77.2006 150.498 77.418 150.713 77.418 150.981C77.418 151.249 77.2032 151.464 76.9354 151.464H76.7551C75.6786 151.461 72.4014 151.448 70.1635 152.222C69.9116 152.309 69.6385 152.177 69.551 151.925C69.5324 151.872 69.5245 151.819 69.5245 151.766V151.769Z" fill="#ED1D87"/>
<path d="M71.3645 152.058C71.4759 152.084 71.5475 152.196 71.5209 152.307C71.4944 152.418 71.383 152.49 71.269 152.463C71.155 152.437 71.0861 152.326 71.1126 152.214C71.1391 152.103 71.2505 152.031 71.3645 152.058Z" fill="#4F2208"/>
<path d="M70.6648 152.405C70.7762 152.431 70.8477 152.543 70.8212 152.654C70.7947 152.766 70.6834 152.837 70.5694 152.811C70.4553 152.784 70.3864 152.673 70.4129 152.561C70.4394 152.45 70.5508 152.378 70.6648 152.405Z" fill="#4F2208"/>
<path d="M69.9886 152.824C70.1 152.851 70.1716 152.962 70.1451 153.073C70.1185 153.185 70.0072 153.256 69.8932 153.23C69.7792 153.203 69.7102 153.092 69.7367 152.981C69.7633 152.869 69.8746 152.798 69.9886 152.824Z" fill="#4F2208"/>
<path d="M72.5925 154.733C72.5925 152.397 74.491 150.496 76.8296 150.496C79.1682 150.496 81.0667 152.395 81.0667 154.733C81.0667 157.072 79.1258 159.14 76.8296 159.14C74.5334 159.14 72.5925 157.122 72.5925 154.733ZM80.0989 154.733C80.0989 152.93 78.6326 151.464 76.8296 151.464C75.0266 151.464 73.5603 152.93 73.5603 154.733C73.5603 156.536 75.0584 158.177 76.8296 158.177C78.6008 158.177 80.0989 156.6 80.0989 154.733Z" fill="#ED1D87"/>
<path d="M69.5482 156.756C69.5482 152.742 74.5039 150.65 74.716 150.565C74.9626 150.464 75.2437 150.581 75.3444 150.825C75.4452 151.069 75.3285 151.353 75.0846 151.453C75.0395 151.472 70.5134 153.389 70.5134 156.754C70.5134 157.223 70.63 157.568 70.8528 157.751C71.0622 157.923 71.3088 157.907 71.4387 157.883C71.6986 157.833 71.9531 158.005 72.0035 158.265C72.0539 158.525 71.8816 158.779 71.6217 158.83C71.1179 158.928 70.6168 158.806 70.2403 158.496C69.9247 158.236 69.5509 157.724 69.5509 156.754L69.5482 156.756Z" fill="#ED1D87"/>
<path d="M76.8271 157.456C75.4032 157.456 74.2498 156.184 74.2498 154.76C74.2498 153.336 75.4059 152.182 76.8271 152.182C78.2483 152.182 79.4044 153.338 79.4044 154.76C79.4044 156.181 78.2483 157.456 76.8271 157.456Z" fill="#8B3B16"/>
<path d="M76.8274 155.658C76.374 155.658 76.0081 155.253 76.0081 154.799C76.0081 154.346 76.3766 153.98 76.8274 153.98C77.2782 153.98 77.6467 154.348 77.6467 154.799C77.6467 155.25 77.2782 155.658 76.8274 155.658Z" fill="#ED1D87"/>
<path d="M77.9432 154.813C77.9432 154.762 77.9697 154.723 78.1102 154.624C78.1155 154.622 78.5928 154.296 78.728 154.346C78.7731 154.362 78.8314 154.386 78.8314 154.773C78.8314 155.195 78.7731 155.245 78.7546 155.261C78.7015 155.309 78.6273 155.29 78.5239 155.242C78.5186 155.242 77.9432 154.961 77.9432 154.81V154.813ZM78.6432 154.513C78.5451 154.553 78.2507 154.723 78.1394 154.81C78.2454 154.895 78.5239 155.065 78.6405 155.107C78.6458 155.054 78.6591 154.929 78.6591 154.773C78.6591 154.635 78.6511 154.556 78.6432 154.513Z" fill="white"/>
<path d="M74.6741 154.855C74.6741 154.433 74.7324 154.383 74.751 154.367C74.804 154.319 74.8783 154.338 74.9817 154.386C74.987 154.386 75.5624 154.667 75.5624 154.818C75.5624 154.871 75.5226 154.919 75.398 155.006C75.3927 155.009 74.9128 155.338 74.7775 155.287C74.7325 155.269 74.6741 155.247 74.6741 154.858V154.855ZM74.8624 154.518C74.8571 154.571 74.8438 154.696 74.8438 154.852C74.8438 154.99 74.8518 155.072 74.8597 155.112C74.9578 155.072 75.2522 154.903 75.3635 154.815C75.2575 154.73 74.979 154.561 74.8624 154.518Z" fill="white"/>
<path d="M76.278 156.74C76.278 156.626 76.6121 156.003 76.7553 156.003C76.9091 156.003 77.2299 156.653 77.2299 156.748L77.2219 156.791C77.2007 156.846 77.1424 156.865 77.0841 156.876C76.9568 156.899 76.3894 156.915 76.3019 156.817L76.2806 156.793L76.2753 156.743L76.278 156.74ZM76.7553 156.202C76.6678 156.308 76.4981 156.592 76.4583 156.706C76.5697 156.724 76.9303 156.73 77.0549 156.706C77.0151 156.61 76.8454 156.313 76.7553 156.202Z" fill="white"/>
<path d="M76.2781 152.88L76.286 152.837C76.3073 152.782 76.3656 152.763 76.4239 152.752C76.5565 152.729 77.116 152.71 77.2061 152.811L77.2273 152.835L77.2326 152.885C77.2326 152.999 76.8985 153.622 76.7554 153.622C76.6016 153.622 76.2807 152.973 76.2807 152.877L76.2781 152.88ZM77.0497 152.922C76.941 152.904 76.591 152.901 76.461 152.922C76.5061 153.041 76.6652 153.32 76.7527 153.426C76.8402 153.32 77.0099 153.036 77.0497 152.922Z" fill="white"/>
<path d="M77.5612 155.754C77.5612 155.722 77.5639 155.682 77.5957 155.653C77.6355 155.613 77.6965 155.611 77.8449 155.637C77.8502 155.637 78.4203 155.746 78.4813 155.879L78.4893 155.921C78.4893 155.947 78.4893 156.032 78.1817 156.321C77.9351 156.552 77.8768 156.549 77.8476 156.547C77.6593 156.533 77.5586 155.794 77.5586 155.754H77.5612ZM78.3037 155.939C78.2082 155.897 77.8768 155.81 77.7389 155.796C77.7521 155.947 77.8343 156.258 77.8874 156.364C77.9775 156.3 78.2374 156.046 78.309 155.942L78.3037 155.939Z" fill="#4F2208"/>
<path d="M75.0163 153.707C75.0163 153.68 75.0163 153.596 75.3239 153.307C75.5705 153.076 75.6288 153.078 75.658 153.081C75.8462 153.092 75.947 153.834 75.947 153.874C75.947 153.906 75.9443 153.948 75.9125 153.975C75.878 154.009 75.8303 154.02 75.6606 153.988C75.6553 153.988 75.0852 153.879 75.0243 153.747L75.0163 153.704V153.707ZM75.6235 153.267C75.5334 153.33 75.2735 153.585 75.2019 153.688C75.2974 153.728 75.6235 153.816 75.7667 153.832C75.7508 153.67 75.6712 153.37 75.6208 153.264L75.6235 153.267Z" fill="#4F2208"/>
<path d="M75.0185 155.918V155.913C75.0211 155.844 75.0901 155.802 75.1962 155.762C75.2015 155.762 75.806 155.55 75.9121 155.656C75.9412 155.685 75.9465 155.725 75.9465 155.754C75.9465 155.852 75.8246 156.48 75.6893 156.541C75.631 156.568 75.5727 156.528 75.5461 156.512C75.4321 156.438 75.0211 156.046 75.0211 155.916L75.0185 155.918ZM75.7742 155.796C75.6389 155.81 75.3287 155.887 75.212 155.94C75.2889 156.051 75.5249 156.292 75.6284 156.364C75.6681 156.271 75.7556 155.953 75.7715 155.796H75.7742Z" fill="#4F2208"/>
<path d="M75.8571 153.871C75.8571 153.773 75.979 153.145 76.1143 153.084C76.1726 153.057 76.2309 153.097 76.2574 153.113C76.3714 153.187 76.7825 153.58 76.7825 153.71C76.7798 153.787 76.7109 153.826 76.6048 153.866C76.5995 153.866 75.995 154.078 75.8889 153.972C75.8597 153.943 75.8544 153.903 75.8544 153.871H75.8571ZM76.1726 153.264C76.1328 153.357 76.0453 153.675 76.0294 153.832C76.1673 153.818 76.4881 153.739 76.5942 153.683C76.5305 153.593 76.276 153.333 76.1726 153.261V153.264Z" fill="#4F2208"/>
<path d="M71.2641 157.517C71.0785 157.517 70.9274 157.35 70.9274 157.167C70.9274 156.984 71.0785 156.83 71.2641 156.83C71.4497 156.83 71.6008 156.981 71.6008 157.167C71.6008 157.353 71.4497 157.517 71.2641 157.517Z" fill="#4F2208"/>
<path d="M78.0868 140.956C78.0868 141.515 77.5883 141.969 77.0262 141.969C76.4641 141.969 76.0133 141.515 76.0133 140.956C76.0133 140.396 76.4667 139.943 77.0262 139.943C77.5857 139.943 78.0868 140.396 78.0868 140.956Z" fill="#FF8915"/>
<path d="M77.6841 140.956C77.6841 141.298 77.3792 141.574 77.0372 141.574C76.6951 141.574 76.4194 141.298 76.4194 140.956C76.4194 140.614 76.6951 140.338 77.0372 140.338C77.3792 140.338 77.6841 140.614 77.6841 140.956Z" fill="#AAD044"/>
<path d="M77.9946 137.435C77.9946 138.747 76.8226 139.81 75.5101 139.81C74.1976 139.81 73.1343 138.747 73.1343 137.435C73.1343 136.122 74.1976 135.059 75.5101 135.059C76.8226 135.059 77.9946 136.122 77.9946 137.435Z" fill="#FBA819"/>
<path d="M73.6297 142.056C73.5024 142.056 73.3831 141.977 73.3407 141.852C72.8157 140.338 72.8236 138.185 72.8263 137.477V137.366C72.8263 137.199 72.9642 137.061 73.1312 137.061C73.2982 137.061 73.4361 137.199 73.4361 137.366V137.48C73.4335 138.161 73.4255 140.237 73.9161 141.653C73.9691 141.812 73.8869 141.987 73.7278 142.043C73.6933 142.056 73.6615 142.062 73.627 142.062H73.6297V142.056Z" fill="#ED1D87"/>
<path d="M73.8152 140.892C73.8311 140.82 73.9027 140.775 73.9716 140.791C74.0432 140.807 74.0883 140.879 74.0724 140.95C74.0565 141.022 73.9849 141.067 73.916 141.051C73.8444 141.035 73.7993 140.964 73.8152 140.892Z" fill="#4F2208"/>
<path d="M74.0357 141.332C74.0516 141.261 74.1232 141.216 74.1921 141.232C74.2637 141.248 74.3088 141.319 74.2929 141.391C74.2769 141.462 74.2054 141.507 74.1364 141.492C74.0648 141.476 74.0198 141.404 74.0357 141.332Z" fill="#4F2208"/>
<path d="M74.3007 141.762C74.3166 141.69 74.3882 141.645 74.4571 141.661C74.5287 141.677 74.5738 141.748 74.5579 141.82C74.542 141.892 74.4704 141.937 74.4014 141.921C74.3298 141.905 74.2848 141.833 74.3007 141.762Z" fill="#4F2208"/>
<path d="M75.5071 140.115C74.0302 140.115 72.8264 138.914 72.8264 137.435C72.8264 135.955 74.0275 134.754 75.5071 134.754C76.9866 134.754 78.2964 135.982 78.2964 137.435C78.2964 138.888 77.0184 140.115 75.5071 140.115ZM75.5071 135.364C74.3669 135.364 73.4362 136.292 73.4362 137.435C73.4362 138.577 74.3643 139.505 75.5071 139.505C76.6499 139.505 77.6866 138.556 77.6866 137.435C77.6866 136.313 76.687 135.364 75.5071 135.364Z" fill="#ED1D87"/>
<path d="M76.7874 142.04C74.2472 142.04 72.9241 138.904 72.8684 138.771C72.8048 138.615 72.8791 138.437 73.0328 138.373C73.1893 138.31 73.3669 138.381 73.4306 138.538C73.4438 138.567 74.6556 141.431 76.7847 141.431C77.0817 141.431 77.2991 141.356 77.4158 141.216C77.5245 141.083 77.5139 140.927 77.498 140.847C77.4662 140.683 77.5722 140.521 77.7393 140.489C77.9037 140.457 78.0654 140.563 78.0972 140.73C78.1582 141.049 78.0813 141.369 77.8878 141.605C77.7234 141.804 77.3999 142.043 76.7847 142.043L76.7874 142.04Z" fill="#ED1D87"/>
<path d="M77.233 137.435C77.233 138.336 76.4269 139.065 75.5254 139.065C74.6239 139.065 73.8947 138.333 73.8947 137.435C73.8947 136.536 74.6265 135.804 75.5254 135.804C76.4243 135.804 77.233 136.536 77.233 137.435Z" fill="#8B3B16"/>
<path d="M76.093 137.435C76.093 137.721 75.8385 137.954 75.5495 137.954C75.2605 137.954 75.0298 137.721 75.0298 137.435C75.0298 137.148 75.2631 136.915 75.5495 136.915C75.8358 136.915 76.093 137.148 76.093 137.435Z" fill="#ED1D87"/>
<path d="M75.557 136.729C75.5279 136.729 75.4987 136.713 75.4377 136.623C75.4377 136.62 75.2282 136.318 75.2601 136.233C75.2707 136.204 75.2839 136.17 75.5305 136.17C75.7957 136.17 75.8301 136.207 75.8407 136.22C75.8699 136.255 75.8593 136.3 75.8275 136.369C75.8275 136.371 75.6498 136.737 75.5544 136.737L75.557 136.729ZM75.3688 136.284C75.3926 136.345 75.5014 136.533 75.557 136.602C75.6101 136.536 75.7188 136.358 75.7453 136.284C75.7108 136.281 75.6339 136.273 75.5332 136.273C75.4457 136.273 75.3953 136.278 75.3688 136.284Z" fill="white"/>
<path d="M75.5841 138.797C75.3189 138.797 75.2845 138.76 75.2739 138.747C75.2447 138.713 75.2553 138.668 75.2871 138.599C75.2871 138.596 75.4648 138.23 75.5602 138.23C75.5947 138.23 75.6239 138.257 75.6769 138.336C75.6769 138.339 75.8864 138.644 75.8545 138.729C75.8439 138.758 75.8307 138.792 75.5841 138.792V138.797ZM75.372 138.678C75.4065 138.681 75.4833 138.689 75.5841 138.689C75.6716 138.689 75.722 138.683 75.7485 138.678C75.7246 138.617 75.6159 138.429 75.5602 138.36C75.5072 138.426 75.3985 138.604 75.372 138.678Z" fill="white"/>
<path d="M76.777 137.782C76.7054 137.782 76.3103 137.57 76.3103 137.48C76.3103 137.384 76.7213 137.18 76.7823 137.18L76.8088 137.185C76.8433 137.198 76.8565 137.236 76.8618 137.27C76.8777 137.35 76.8857 137.71 76.8247 137.763L76.8088 137.777H76.7743V137.779L76.777 137.782ZM76.4376 137.48C76.5039 137.533 76.6842 137.641 76.7584 137.668C76.7717 137.599 76.7717 137.371 76.7584 137.289C76.6974 137.313 76.5092 137.421 76.4402 137.477L76.4376 137.48Z" fill="white"/>
<path d="M74.3352 137.782L74.3087 137.777C74.2742 137.763 74.2609 137.726 74.2556 137.689C74.2397 137.607 74.2291 137.252 74.2927 137.196L74.3087 137.183H74.3431C74.4147 137.18 74.8098 137.392 74.8098 137.482C74.8098 137.578 74.3988 137.782 74.3378 137.782H74.3352ZM74.3617 137.294C74.3484 137.363 74.3484 137.583 74.3617 137.668C74.4359 137.639 74.6136 137.538 74.6799 137.485C74.6136 137.432 74.4333 137.323 74.359 137.297L74.3617 137.294Z" fill="white"/>
<path d="M76.1543 136.968C76.1331 136.968 76.1093 136.968 76.0907 136.947C76.0668 136.923 76.0642 136.883 76.0827 136.788C76.0827 136.785 76.1517 136.422 76.2365 136.385L76.2631 136.379C76.2816 136.379 76.332 136.379 76.5149 136.573C76.6634 136.729 76.6581 136.767 76.6581 136.782C76.6502 136.902 76.1808 136.965 76.157 136.965L76.1543 136.968ZM76.271 136.499C76.2445 136.557 76.1888 136.769 76.1808 136.857C76.2763 136.849 76.4725 136.798 76.5414 136.764C76.5017 136.706 76.3399 136.544 76.2736 136.499H76.271Z" fill="#4F2208"/>
<path d="M74.8574 138.58C74.8388 138.58 74.7884 138.58 74.6055 138.387C74.457 138.23 74.4623 138.193 74.4623 138.177C74.4703 138.058 74.9396 137.994 74.9634 137.994C74.9847 137.994 75.0085 137.994 75.0271 138.015C75.0483 138.036 75.0563 138.068 75.035 138.174C75.035 138.177 74.9661 138.538 74.8812 138.577L74.8547 138.583L74.8574 138.58ZM74.5816 138.196C74.624 138.254 74.7831 138.416 74.8494 138.461C74.8759 138.402 74.929 138.193 74.9396 138.103C74.8388 138.113 74.6479 138.161 74.579 138.193L74.5816 138.196Z" fill="#4F2208"/>
<path d="M76.2574 138.577H76.2548C76.2097 138.575 76.1858 138.532 76.1593 138.466C76.1593 138.463 76.0267 138.082 76.093 138.013C76.1116 137.994 76.1381 137.991 76.1567 137.991C76.2176 137.991 76.6154 138.066 76.6551 138.153C76.6737 138.19 76.6472 138.227 76.6366 138.243C76.5888 138.315 76.3423 138.575 76.2601 138.575L76.2574 138.577ZM76.1805 138.103C76.1885 138.188 76.2362 138.384 76.2707 138.455C76.3396 138.405 76.496 138.257 76.5385 138.193C76.4801 138.169 76.2786 138.113 76.1779 138.103H76.1805Z" fill="#4F2208"/>
<path d="M74.9633 136.971C74.9023 136.971 74.5046 136.896 74.4648 136.809C74.4462 136.772 74.4727 136.735 74.4833 136.719C74.5311 136.647 74.7777 136.387 74.8599 136.387C74.9102 136.39 74.9341 136.433 74.9606 136.499C74.9606 136.501 75.0932 136.883 75.0269 136.952C75.0084 136.971 74.9818 136.973 74.9633 136.973V136.971ZM74.5788 136.769C74.6372 136.793 74.8387 136.849 74.9394 136.859C74.9315 136.775 74.8811 136.57 74.8466 136.501C74.7883 136.541 74.6265 136.7 74.5814 136.769H74.5788Z" fill="#4F2208"/>
<path d="M77.2696 140.956C77.2696 141.073 77.1636 141.168 77.0469 141.168C76.9302 141.168 76.8348 141.073 76.8348 140.956C76.8348 140.839 76.9302 140.744 77.0469 140.744C77.1636 140.744 77.2696 140.839 77.2696 140.956Z" fill="#4F2208"/>
<path d="M79.3627 99.9689C79.3627 100.528 78.8642 100.982 78.3021 100.982C77.74 100.982 77.2892 100.528 77.2892 99.9689C77.2892 99.4094 77.7426 98.9561 78.3021 98.9561C78.8615 98.9561 79.3627 99.4094 79.3627 99.9689Z" fill="#FF8915"/>
<path d="M78.9595 99.9689C78.9595 100.311 78.6546 100.587 78.3126 100.587C77.9705 100.587 77.6948 100.311 77.6948 99.9689C77.6948 99.6269 77.9705 99.3511 78.3126 99.3511C78.6546 99.3511 78.9595 99.6269 78.9595 99.9689Z" fill="#AAD044"/>
<path d="M79.2666 96.4475C79.2666 97.76 78.0946 98.8234 76.7821 98.8234C75.4696 98.8234 74.4064 97.76 74.4064 96.4475C74.4064 95.135 75.4696 94.0718 76.7821 94.0718C78.0946 94.0718 79.2666 95.135 79.2666 96.4475Z" fill="#FBA819"/>
<path d="M74.9056 101.069C74.7783 101.069 74.659 100.99 74.6166 100.865C74.0916 99.3509 74.0996 97.1979 74.1022 96.49V96.3786C74.1022 96.2116 74.2401 96.0737 74.4071 96.0737C74.5742 96.0737 74.712 96.2116 74.712 96.3786V96.4927C74.7094 97.1741 74.7014 99.2502 75.192 100.666C75.245 100.825 75.1628 101 75.0037 101.056C74.9692 101.069 74.9374 101.074 74.9029 101.074H74.9056V101.069Z" fill="#ED1D87"/>
<path d="M75.0912 99.9052C75.1071 99.8336 75.1787 99.7886 75.2476 99.8045C75.3192 99.8204 75.3643 99.892 75.3484 99.9636C75.3325 100.035 75.2609 100.08 75.192 100.064C75.1204 100.048 75.0753 99.9768 75.0912 99.9052Z" fill="#4F2208"/>
<path d="M75.3088 100.345C75.3247 100.274 75.3963 100.229 75.4652 100.245C75.5368 100.261 75.5819 100.332 75.566 100.404C75.5501 100.475 75.4785 100.52 75.4096 100.504C75.338 100.489 75.2929 100.417 75.3088 100.345Z" fill="#4F2208"/>
<path d="M75.5739 100.775C75.5898 100.703 75.6614 100.658 75.7303 100.674C75.8019 100.69 75.847 100.761 75.8311 100.833C75.8152 100.905 75.7436 100.95 75.6746 100.934C75.603 100.918 75.558 100.846 75.5739 100.775Z" fill="#4F2208"/>
<path d="M76.7824 99.1257C75.3055 99.1257 74.1017 97.9246 74.1017 96.445C74.1017 94.9655 75.3029 93.7644 76.7824 93.7644C78.262 93.7644 79.5718 94.992 79.5718 96.445C79.5718 97.8981 78.2938 99.1257 76.7824 99.1257ZM76.7824 94.3769C75.6423 94.3769 74.7116 95.3048 74.7116 96.4476C74.7116 97.5904 75.6396 98.5185 76.7824 98.5185C77.9252 98.5185 78.9619 97.5692 78.9619 96.4476C78.9619 95.326 77.9623 94.3769 76.7824 94.3769Z" fill="#ED1D87"/>
<path d="M78.0655 101.053C75.5253 101.053 74.2022 97.9165 74.1465 97.7839C74.0829 97.6275 74.1571 97.4498 74.3109 97.3862C74.4674 97.3226 74.645 97.3942 74.7086 97.5506C74.7219 97.5798 75.9336 100.443 78.0628 100.443C78.3598 100.443 78.5772 100.369 78.6939 100.229C78.8026 100.096 78.792 99.9396 78.776 99.8601C78.7442 99.6957 78.8503 99.5339 79.0173 99.5021C79.1817 99.4703 79.3435 99.5764 79.3753 99.7434C79.4363 100.062 79.3594 100.383 79.1658 100.618C79.0014 100.817 78.678 101.056 78.0628 101.056L78.0655 101.053Z" fill="#ED1D87"/>
<path d="M78.5062 96.4475C78.5062 97.3491 77.7001 98.0783 76.7986 98.0783C75.8971 98.0783 75.1679 97.3464 75.1679 96.4475C75.1679 95.5487 75.8997 94.8169 76.7986 94.8169C77.6975 94.8169 78.5062 95.5487 78.5062 96.4475Z" fill="#8B3B16"/>
<path d="M77.3684 96.4474C77.3684 96.7338 77.1138 96.9672 76.8248 96.9672C76.5358 96.9672 76.3051 96.7338 76.3051 96.4474C76.3051 96.1611 76.5384 95.9277 76.8248 95.9277C77.1112 95.9277 77.3684 96.1611 77.3684 96.4474Z" fill="#ED1D87"/>
<path d="M76.8329 95.7423C76.8037 95.7423 76.7746 95.7264 76.7136 95.6363C76.7136 95.6336 76.5041 95.3313 76.5359 95.2464C76.5465 95.2173 76.5598 95.1829 76.8064 95.1829C77.0716 95.1829 77.106 95.22 77.1166 95.2332C77.1458 95.2677 77.1352 95.3128 77.1034 95.3817C77.1034 95.3844 76.9257 95.7502 76.8303 95.7502L76.8329 95.7423ZM76.6447 95.2968C76.6685 95.3578 76.7772 95.5461 76.8329 95.615C76.8859 95.5487 76.9946 95.371 77.0212 95.2968C76.9867 95.2941 76.9098 95.2862 76.8091 95.2862C76.7216 95.2862 76.6712 95.2915 76.6447 95.2968Z" fill="white"/>
<path d="M76.8595 97.8106C76.5943 97.8106 76.5599 97.7735 76.5493 97.7603C76.5201 97.7258 76.5307 97.6807 76.5625 97.6118C76.5625 97.6091 76.7402 97.2432 76.8356 97.2432C76.8701 97.2432 76.8993 97.2698 76.9523 97.3493C76.9523 97.352 77.1618 97.6569 77.1299 97.7417C77.1193 97.7709 77.1061 97.8053 76.8595 97.8053V97.8106ZM76.6474 97.6887C76.6818 97.6913 76.7587 97.6993 76.8595 97.6993C76.947 97.6993 76.9974 97.694 77.0239 97.6887C77 97.6277 76.8913 97.4395 76.8356 97.3706C76.7826 97.4368 76.6739 97.6144 76.6474 97.6887Z" fill="white"/>
<path d="M78.0523 96.7948C77.9807 96.7948 77.5856 96.5827 77.5856 96.4926C77.5856 96.3971 77.9966 96.1929 78.0576 96.1929L78.0841 96.1982C78.1186 96.2114 78.1319 96.2486 78.1372 96.2831C78.1531 96.3627 78.161 96.7232 78.1 96.7763L78.0841 96.7895H78.0496V96.7922L78.0523 96.7948ZM77.7129 96.4926C77.7792 96.5456 77.9595 96.6543 78.0338 96.6808C78.047 96.6119 78.047 96.3838 78.0338 96.3016C77.9728 96.3255 77.7845 96.4342 77.7156 96.4899L77.7129 96.4926Z" fill="white"/>
<path d="M75.6106 96.795L75.5841 96.7897C75.5496 96.7764 75.5363 96.7394 75.531 96.7023C75.5151 96.6201 75.5045 96.2647 75.5681 96.209L75.5841 96.1958H75.6185C75.6901 96.1932 76.0852 96.4053 76.0852 96.4954C76.0852 96.5909 75.6742 96.795 75.6132 96.795H75.6106ZM75.6344 96.3072C75.6212 96.3761 75.6212 96.5962 75.6344 96.6811C75.7087 96.6519 75.8863 96.5512 75.9526 96.4981C75.8863 96.4451 75.706 96.3364 75.6318 96.3099L75.6344 96.3072Z" fill="white"/>
<path d="M77.4297 95.981C77.4085 95.981 77.3846 95.981 77.3661 95.9598C77.3422 95.9359 77.3396 95.8961 77.3581 95.8007C77.3581 95.798 77.4271 95.4348 77.5119 95.3976L77.5384 95.3923C77.557 95.3923 77.6074 95.3923 77.7903 95.5859C77.9388 95.7423 77.9335 95.7795 77.9335 95.7954C77.9256 95.9147 77.4562 95.9784 77.4324 95.9784L77.4297 95.981ZM77.5464 95.5117C77.5199 95.57 77.4642 95.7822 77.4562 95.8697C77.5517 95.8617 77.7479 95.8113 77.8168 95.7769C77.7771 95.7185 77.6153 95.5568 77.5491 95.5117H77.5464Z" fill="#4F2208"/>
<path d="M76.1326 97.5931C76.1141 97.5931 76.0637 97.5931 75.8808 97.3995C75.7323 97.2431 75.7376 97.2059 75.7376 97.19C75.7455 97.0707 76.2148 97.0071 76.2387 97.0071C76.2599 97.0071 76.2838 97.0071 76.3023 97.0283C76.3236 97.0495 76.3315 97.0812 76.3103 97.1873C76.3103 97.19 76.2414 97.5506 76.1565 97.5903L76.13 97.5956L76.1326 97.5931ZM75.8543 97.2085C75.8967 97.2669 76.0558 97.4286 76.1221 97.4737C76.1486 97.4154 76.2016 97.2059 76.2122 97.1157C76.1114 97.1263 75.9205 97.1741 75.8516 97.2059L75.8543 97.2085Z" fill="#4F2208"/>
<path d="M77.5334 97.5904H77.5307C77.4856 97.5877 77.4618 97.5453 77.4353 97.479C77.4353 97.4764 77.3027 97.0946 77.369 97.0256C77.3875 97.0071 77.414 97.0044 77.4326 97.0044C77.4936 97.0044 77.8913 97.0787 77.9311 97.1662C77.9496 97.2034 77.9231 97.2404 77.9125 97.2563C77.8648 97.3279 77.6182 97.5878 77.536 97.5878L77.5334 97.5904ZM77.4565 97.1131C77.4644 97.198 77.5122 97.3942 77.5466 97.4658C77.6156 97.4154 77.772 97.2669 77.8144 97.2033C77.7561 97.1794 77.5546 97.1238 77.4538 97.1131H77.4565Z" fill="#4F2208"/>
<path d="M76.2387 95.9834C76.1777 95.9834 75.78 95.9092 75.7402 95.8217C75.7216 95.7846 75.7482 95.7475 75.7588 95.7316C75.8065 95.66 76.0531 95.4001 76.1353 95.4001C76.1856 95.4028 76.2095 95.4452 76.236 95.5115C76.236 95.5141 76.3686 95.8959 76.3023 95.9649C76.2837 95.9834 76.2572 95.9861 76.2387 95.9861V95.9834ZM75.8516 95.7819C75.9099 95.8058 76.1114 95.8615 76.2122 95.8721C76.2042 95.7872 76.1538 95.5831 76.1194 95.5142C76.061 95.554 75.8993 95.713 75.8542 95.7819H75.8516Z" fill="#4F2208"/>
<path d="M78.5461 99.9689C78.5461 100.086 78.4401 100.181 78.3234 100.181C78.2068 100.181 78.1113 100.086 78.1113 99.9689C78.1113 99.8522 78.2068 99.7568 78.3234 99.7568C78.4401 99.7568 78.5461 99.8522 78.5461 99.9689Z" fill="#4F2208"/>
<path d="M89.7749 154.54C89.7749 155.099 89.2764 155.552 88.7143 155.552C88.1522 155.552 87.7014 155.099 87.7014 154.54C87.7014 153.98 88.1548 153.527 88.7143 153.527C89.2738 153.527 89.7749 153.98 89.7749 154.54Z" fill="#FF8915"/>
<path d="M89.369 154.539C89.369 154.881 89.064 155.157 88.722 155.157C88.3799 155.157 88.1042 154.881 88.1042 154.539C88.1042 154.197 88.3799 153.922 88.722 153.922C89.064 153.922 89.369 154.197 89.369 154.539Z" fill="#AAD044"/>
<path d="M89.6793 151.018C89.6793 152.331 88.5073 153.394 87.1948 153.394C85.8823 153.394 84.8191 152.331 84.8191 151.018C84.8191 149.706 85.8823 148.643 87.1948 148.643C88.5073 148.643 89.6793 149.706 89.6793 151.018Z" fill="#FBA819"/>
<path d="M85.3178 155.64C85.1905 155.64 85.0712 155.56 85.0288 155.436C84.5038 153.922 84.5117 151.769 84.5144 151.061V150.949C84.5144 150.782 84.6523 150.645 84.8193 150.645C84.9864 150.645 85.1242 150.782 85.1242 150.949V151.063C85.1216 151.745 85.1136 153.821 85.6041 155.237C85.6572 155.396 85.575 155.571 85.4159 155.627C85.3814 155.64 85.3496 155.645 85.3151 155.645H85.3178V155.64Z" fill="#ED1D87"/>
<path d="M85.5034 154.476C85.5193 154.404 85.5909 154.359 85.6598 154.375C85.7314 154.391 85.7765 154.463 85.7606 154.534C85.7447 154.606 85.673 154.651 85.6041 154.635C85.5325 154.619 85.4875 154.547 85.5034 154.476Z" fill="#4F2208"/>
<path d="M85.7205 154.919C85.7364 154.847 85.808 154.802 85.8769 154.818C85.9485 154.834 85.9936 154.905 85.9777 154.977C85.9618 155.049 85.8902 155.094 85.8212 155.078C85.7496 155.062 85.7046 154.99 85.7205 154.919Z" fill="#4F2208"/>
<path d="M85.986 155.345C86.002 155.274 86.0735 155.229 86.1425 155.245C86.2141 155.261 86.2591 155.332 86.2432 155.404C86.2273 155.475 86.1557 155.521 86.0868 155.505C86.0152 155.489 85.9701 155.417 85.986 155.345Z" fill="#4F2208"/>
<path d="M87.1951 153.699C85.7182 153.699 84.5145 152.498 84.5145 151.018C84.5145 149.539 85.7156 148.338 87.1951 148.338C88.6747 148.338 89.9845 149.565 89.9845 151.018C89.9845 152.471 88.7065 153.699 87.1951 153.699ZM87.1951 148.947C86.055 148.947 85.1243 149.875 85.1243 151.018C85.1243 152.161 86.0523 153.089 87.1951 153.089C88.3379 153.089 89.3747 152.14 89.3747 151.018C89.3747 149.897 88.3751 148.947 87.1951 148.947Z" fill="#ED1D87"/>
<path d="M88.4755 155.624C85.9353 155.624 84.6122 152.487 84.5566 152.355C84.4929 152.198 84.5672 152.021 84.7209 151.957C84.8774 151.893 85.055 151.965 85.1187 152.121C85.1319 152.151 86.3437 155.014 88.4728 155.014C88.7698 155.014 88.9872 154.94 89.1039 154.799C89.2126 154.667 89.202 154.51 89.1861 154.431C89.1543 154.266 89.2603 154.105 89.4274 154.073C89.5918 154.041 89.7535 154.147 89.7853 154.314C89.8463 154.632 89.7694 154.953 89.5759 155.189C89.4115 155.388 89.088 155.627 88.4728 155.627L88.4755 155.624Z" fill="#ED1D87"/>
<path d="M88.9184 151.018C88.9184 151.92 88.1123 152.649 87.2108 152.649C86.3093 152.649 85.5801 151.917 85.5801 151.018C85.5801 150.119 86.312 149.388 87.2108 149.388C88.1097 149.388 88.9184 150.119 88.9184 151.018Z" fill="#8B3B16"/>
<path d="M87.7812 151.018C87.7812 151.305 87.5266 151.538 87.2376 151.538C86.9486 151.538 86.7179 151.305 86.7179 151.018C86.7179 150.732 86.9512 150.499 87.2376 150.499C87.5239 150.499 87.7812 150.732 87.7812 151.018Z" fill="#ED1D87"/>
<path d="M87.2457 150.313C87.2165 150.313 87.1874 150.297 87.1264 150.207C87.1264 150.204 86.9169 149.902 86.9487 149.817C86.9593 149.788 86.9726 149.753 87.2192 149.753C87.4843 149.753 87.5188 149.791 87.5294 149.804C87.5586 149.838 87.548 149.883 87.5162 149.952C87.5162 149.955 87.3385 150.321 87.243 150.321L87.2457 150.313ZM87.0548 149.87C87.0787 149.931 87.1874 150.119 87.243 150.188C87.2961 150.122 87.4048 149.944 87.4313 149.87C87.3968 149.868 87.3199 149.86 87.2192 149.86C87.1317 149.86 87.0813 149.865 87.0548 149.87Z" fill="white"/>
<path d="M87.2717 152.381C87.0066 152.381 86.9721 152.344 86.9615 152.331C86.9323 152.296 86.9429 152.251 86.9747 152.182C86.9747 152.18 87.1524 151.814 87.2479 151.814C87.2823 151.814 87.3115 151.84 87.3645 151.92C87.3645 151.923 87.574 152.227 87.5422 152.312C87.5316 152.341 87.5183 152.376 87.2717 152.376V152.381ZM87.0596 152.262C87.0941 152.264 87.171 152.272 87.2717 152.272C87.3592 152.272 87.4096 152.267 87.4361 152.262C87.4122 152.201 87.3035 152.013 87.2479 151.944C87.1948 152.01 87.0861 152.188 87.0596 152.262Z" fill="white"/>
<path d="M88.4651 151.366C88.3935 151.366 87.9984 151.154 87.9984 151.063C87.9984 150.968 88.4094 150.764 88.4704 150.764L88.4969 150.769C88.5314 150.782 88.5446 150.819 88.5499 150.854C88.5659 150.933 88.5738 151.294 88.5128 151.347L88.4969 151.36H88.4624V151.363L88.4651 151.366ZM88.123 151.066C88.1893 151.119 88.3696 151.228 88.4439 151.254C88.4571 151.185 88.4571 150.957 88.4439 150.875C88.3829 150.899 88.1946 151.008 88.1257 151.063L88.123 151.066Z" fill="white"/>
<path d="M86.0228 151.366L85.9963 151.36C85.9618 151.347 85.9485 151.31 85.9432 151.273C85.9273 151.191 85.9167 150.835 85.9804 150.78L85.9963 150.766H86.0308C86.1023 150.764 86.4974 150.976 86.4974 151.066C86.4974 151.161 86.0864 151.366 86.0254 151.366H86.0228ZM86.0466 150.878C86.0334 150.947 86.0334 151.167 86.0466 151.252C86.1209 151.222 86.2986 151.122 86.3648 151.069C86.2986 151.016 86.1182 150.907 86.044 150.88L86.0466 150.878Z" fill="white"/>
<path d="M87.8425 150.554C87.8213 150.554 87.7974 150.554 87.7789 150.533C87.755 150.509 87.7523 150.469 87.7709 150.374C87.7709 150.371 87.8398 150.008 87.9247 149.971L87.9512 149.966C87.9698 149.966 88.0201 149.966 88.2031 150.159C88.3516 150.316 88.3463 150.353 88.3463 150.369C88.3383 150.488 87.869 150.552 87.8452 150.552L87.8425 150.554ZM87.9592 150.085C87.9326 150.143 87.877 150.355 87.869 150.443C87.9645 150.435 88.1607 150.384 88.2296 150.35C88.1898 150.292 88.0281 150.13 87.9618 150.085H87.9592Z" fill="#4F2208"/>
<path d="M86.5455 152.166C86.5269 152.166 86.4766 152.166 86.2936 151.973C86.1451 151.816 86.1504 151.779 86.1504 151.763C86.1584 151.644 86.6277 151.58 86.6516 151.58C86.6728 151.58 86.6966 151.58 86.7152 151.602C86.7364 151.623 86.7444 151.655 86.7231 151.761C86.7231 151.763 86.6542 152.124 86.5693 152.164L86.5428 152.169L86.5455 152.166ZM86.2671 151.779C86.3095 151.838 86.4686 151.999 86.5349 152.044C86.5614 151.986 86.6144 151.777 86.625 151.686C86.5243 151.697 86.3334 151.745 86.2644 151.777L86.2671 151.779Z" fill="#4F2208"/>
<path d="M87.9428 152.161H87.9401C87.895 152.159 87.8712 152.116 87.8447 152.05C87.8447 152.047 87.7121 151.665 87.7784 151.596C87.7969 151.578 87.8235 151.575 87.842 151.575C87.903 151.575 88.3007 151.649 88.3405 151.737C88.3591 151.774 88.3325 151.811 88.3219 151.827C88.2742 151.899 88.0276 152.159 87.9454 152.159L87.9428 152.161ZM87.8659 151.687C87.8738 151.771 87.9216 151.968 87.956 152.039C88.025 151.989 88.1814 151.84 88.2238 151.777C88.1655 151.753 87.964 151.697 87.8632 151.687H87.8659Z" fill="#4F2208"/>
<path d="M86.6514 150.554C86.5904 150.554 86.1927 150.48 86.1529 150.392C86.1343 150.355 86.1608 150.318 86.1715 150.302C86.2192 150.231 86.4658 149.971 86.548 149.971C86.5984 149.974 86.6222 150.016 86.6487 150.082C86.6487 150.085 86.7813 150.467 86.715 150.536C86.6965 150.554 86.67 150.557 86.6514 150.557V150.554ZM86.2643 150.353C86.3226 150.377 86.5241 150.432 86.6249 150.443C86.6169 150.358 86.5665 150.154 86.5321 150.085C86.4737 150.125 86.312 150.284 86.2669 150.353H86.2643Z" fill="#4F2208"/>
<path d="M88.9556 154.54C88.9556 154.656 88.8496 154.752 88.7329 154.752C88.6162 154.752 88.5208 154.656 88.5208 154.54C88.5208 154.423 88.6162 154.327 88.7329 154.327C88.8496 154.327 88.9556 154.423 88.9556 154.54Z" fill="#4F2208"/>
<path d="M81.8259 181.808C85.1984 181.808 87.9323 179.074 87.9323 175.701C87.9323 172.329 85.1984 169.595 81.8259 169.595C78.4534 169.595 75.7195 172.329 75.7195 175.701C75.7195 179.074 78.4534 181.808 81.8259 181.808Z" fill="#FBA819"/>
<path d="M81.8255 179.485C83.9152 179.485 85.6093 177.791 85.6093 175.701C85.6093 173.612 83.9152 171.917 81.8255 171.917C79.7359 171.917 78.0419 173.612 78.0419 175.701C78.0419 177.791 79.7359 179.485 81.8255 179.485Z" fill="#AAD044"/>
<path d="M74.9265 175.789C74.9265 171.862 78.1136 168.547 81.8841 168.547C82.3216 168.547 82.6769 168.9 82.6769 169.34C82.6769 169.78 82.3216 170.133 81.8841 170.133C78.9701 170.133 76.5095 172.726 76.5095 175.791C76.5095 178.856 78.9197 181.166 81.8841 181.166C84.8485 181.166 87.2587 178.756 87.2587 175.791C87.2587 175.354 87.614 174.998 88.0515 174.998C88.489 174.998 88.8443 175.351 88.8443 175.791C88.8443 179.628 85.7235 182.749 81.8867 182.749C78.05 182.749 74.9292 179.628 74.9292 175.791L74.9265 175.789Z" fill="#4F2208"/>
<path d="M93.5164 182.696C93.2963 182.595 93.1982 182.338 93.2963 182.115C93.3944 181.893 93.6569 181.797 93.877 181.895C94.097 181.993 94.1951 182.253 94.097 182.476C93.9989 182.699 93.7364 182.794 93.5164 182.696Z" fill="#4F2208"/>
<path d="M95.1076 182.407C94.8875 182.306 94.7894 182.049 94.8875 181.826C94.9856 181.604 95.2481 181.508 95.4682 181.606C95.6883 181.704 95.7864 181.964 95.6883 182.187C95.5902 182.41 95.3277 182.505 95.1076 182.407Z" fill="#4F2208"/>
<path d="M96.6741 181.831C96.454 181.731 96.356 181.473 96.4541 181.251C96.5522 181.028 96.8147 180.933 97.0348 181.031C97.2548 181.129 97.3529 181.389 97.2548 181.611C97.1567 181.834 96.8942 181.93 96.6741 181.831Z" fill="#4F2208"/>
<path d="M84.655 168.261C85.0447 168.261 85.3603 168.611 85.3603 168.998C85.3603 169.385 85.0447 169.703 84.655 169.703C84.2652 169.703 83.9496 169.388 83.9496 168.998C83.9496 168.608 84.2652 168.261 84.655 168.261Z" fill="#4F2208"/>
<path d="M81.8258 177.008C82.5477 177.008 83.133 176.423 83.133 175.701C83.133 174.979 82.5477 174.394 81.8258 174.394C81.1038 174.394 80.5186 174.979 80.5186 175.701C80.5186 176.423 81.1038 177.008 81.8258 177.008Z" fill="#8B3B16"/>
<path d="M93.3517 178.456C95.0695 178.456 96.4619 177.064 96.4619 175.346C96.4619 173.628 95.0695 172.236 93.3517 172.236C91.634 172.236 90.2415 173.628 90.2415 175.346C90.2415 177.064 91.634 178.456 93.3517 178.456Z" fill="#8B3B16"/>
<path d="M93.3518 176.422C92.7579 176.422 92.2753 175.94 92.2753 175.346C92.2753 174.752 92.7579 174.269 93.3518 174.269C93.9457 174.269 94.4283 174.752 94.4283 175.346C94.4283 175.94 93.9457 176.422 93.3518 176.422Z" fill="#09BEF0"/>
<path d="M76.9625 182.717C76.9625 182.595 77.0023 182.471 77.0845 182.367C77.278 182.126 77.6307 182.084 77.8719 182.274C78.0098 182.383 81.1837 184.801 85.2007 182.593C85.4712 182.444 85.8132 182.542 85.9644 182.813C86.1155 183.083 86.0147 183.425 85.7443 183.574C81.0564 186.151 77.3337 183.277 77.1773 183.155C77.0367 183.043 76.9651 182.879 76.9651 182.715L76.9625 182.717Z" fill="#AAD044"/>
<path d="M91.856 167.776C91.856 167.529 92.0256 167.306 92.2775 167.248C95.82 166.434 97.9862 168.587 98.0764 168.68C98.2859 168.895 98.2832 169.237 98.0684 169.446C97.8563 169.656 97.5116 169.653 97.3048 169.441C97.2305 169.367 95.4567 167.63 92.5215 168.306C92.2298 168.372 91.9408 168.19 91.8718 167.901C91.8639 167.861 91.8586 167.818 91.8586 167.778L91.856 167.776Z" fill="#ED1D87"/>
<path d="M87.2557 174.834C87.2557 174.397 87.611 174.041 88.0485 174.041C88.486 174.041 88.8413 174.394 88.8413 174.834C88.8413 178.265 91.1826 179.83 93.3568 179.83C95.7034 179.83 97.684 177.738 97.684 175.266C97.684 172.795 95.7432 170.939 93.3568 170.939C92.9193 170.939 92.564 170.586 92.564 170.146C92.564 169.706 92.9193 169.354 93.3568 169.354C96.6155 169.354 99.267 172.005 99.267 175.264C99.267 178.522 96.5598 181.413 93.3568 181.413C90.3261 181.413 87.2557 179.151 87.2557 174.834Z" fill="#4F2208"/>
</svg>
