<svg width="174" height="240" viewBox="0 0 174 240" fill="none" xmlns="http://www.w3.org/2000/svg">
<rect width="174" height="240" fill="none"/>
<path d="M106.284 119.584C106.284 117.099 105.445 103.158 105.39 101.402C104.997 103.078 101.225 115.622 99.5344 115.884C99.5344 115.884 87.9528 118.856 73.5551 115.851C80.9033 120.252 97.8573 120.874 106.284 119.584Z" fill="#DB307A"/>
<path d="M73.2163 115.778C73.1945 115.778 73.1835 115.767 73.1617 115.767C73.1617 115.767 71.719 114.878 70.2981 113.363C68.1633 111.086 66.0976 107.384 69.2526 103.217C74.9577 95.6827 105.386 101.41 105.386 101.41C105.465 102.537 105.885 111.24 106.071 114.936C104.931 115.415 100.555 115.914 99.5155 116.166C99.5155 116.166 87.767 118.9 73.2127 115.778H73.2163Z" fill="#FF9800"/>
<path d="M71.4133 101.45C80.186 96.6665 105.394 101.434 105.394 101.434C105.394 100.512 105.444 99.9677 105.357 99.414C93.1448 96.4339 80.1022 96.9069 71.4097 101.45H71.4133Z" fill="#DB307A"/>
<path d="M77.7996 111.075C74.0617 110.452 69.9486 108.339 68.127 105.185C66.7754 108.536 68.5059 111.451 70.2984 113.363C71.7192 114.879 73.1619 115.768 73.1619 115.768C73.1837 115.768 73.1947 115.779 73.2165 115.779C87.7745 118.901 99.6512 116.158 99.6512 116.158C100.424 115.9 105.537 113.911 106.012 113.319C106.012 113.319 105.714 107.676 105.501 104.594C98.1387 110.955 87.1625 112.777 77.7996 111.072V111.075Z" fill="#CC7A0E"/>
<mask id="mask0_1474_112235" style="mask-type:luminance" maskUnits="userSpaceOnUse" x="67" y="99" width="39" height="19">
<path d="M72.8345 115.568C72.8127 115.568 72.8017 115.557 72.7799 115.557C72.7799 115.557 71.3372 114.668 69.9164 113.153C67.7815 110.876 65.7158 107.174 68.8708 103.007C74.576 95.4728 105.017 101.215 105.017 101.215C104.984 102.363 105.718 111.171 105.718 114.829C105.153 115.343 101.081 115.719 100.305 115.981C100.305 115.981 87.3853 118.69 72.8309 115.568H72.8345Z" fill="white"/>
</mask>
<g mask="url(#mask0_1474_112235)">
<path d="M75.5576 115.641H75.5503C75.2843 115.641 75.0147 115.626 74.7452 115.594L74.7925 115.2C75.0439 115.226 75.2989 115.244 75.5503 115.24L75.5576 115.637V115.641ZM75.9656 115.626L75.9401 115.229C76.1951 115.215 76.4538 115.186 76.7015 115.142L76.7707 115.535C76.5084 115.583 76.2352 115.615 75.9656 115.63V115.626ZM74.3444 115.539C74.0821 115.492 73.8162 115.43 73.5539 115.35L73.6668 114.967C73.9145 115.04 74.1623 115.098 74.4136 115.142L74.3444 115.535V115.539ZM77.1715 115.455L77.0804 115.065C77.3282 115.011 77.5759 114.934 77.8163 114.847L77.9548 115.222C77.6997 115.313 77.4411 115.397 77.1788 115.455H77.1715ZM73.164 115.226C72.9127 115.138 72.6576 115.022 72.4136 114.901L72.5921 114.548C72.8216 114.665 73.0584 114.767 73.2952 114.85L73.1604 115.226H73.164ZM78.3264 115.069L78.1661 114.701C78.3992 114.603 78.6288 114.482 78.851 114.359L79.055 114.701C78.8218 114.836 78.5778 114.96 78.33 115.065L78.3264 115.069ZM72.0602 114.712C71.8234 114.577 71.5938 114.424 71.3825 114.264L71.6193 113.943C71.8234 114.096 72.0383 114.238 72.2605 114.366L72.0638 114.708L72.0602 114.712ZM79.4011 114.49L79.1825 114.158C79.3938 114.016 79.6015 113.863 79.7982 113.699L80.0569 114.002C79.8492 114.176 79.6306 114.34 79.4048 114.486L79.4011 114.49ZM71.0583 114.012C70.8506 113.838 70.6539 113.652 70.4645 113.455L70.7523 113.182C70.9271 113.368 71.1166 113.543 71.3097 113.703L71.0546 114.012H71.0583ZM80.352 113.728L80.0824 113.441C80.2645 113.266 80.443 113.076 80.607 112.883L80.9094 113.135C80.7345 113.342 80.5487 113.539 80.352 113.728ZM70.1949 113.153C70.02 112.945 69.8597 112.726 69.7103 112.501L70.0419 112.282C70.1839 112.493 70.337 112.701 70.5009 112.898L70.1949 113.153ZM81.1644 112.818L80.8474 112.581C81.0004 112.377 81.1425 112.158 81.27 111.94L81.6161 112.14C81.4813 112.373 81.332 112.603 81.168 112.818H81.1644ZM69.4954 112.158C69.3569 111.925 69.2367 111.677 69.1274 111.43L69.4917 111.273C69.5937 111.506 69.7103 111.732 69.8378 111.958L69.4954 112.162V112.158ZM81.8056 111.783L81.4486 111.601C81.5615 111.371 81.6635 111.134 81.7509 110.898L82.1225 111.036C82.0314 111.284 81.9258 111.535 81.8019 111.779L81.8056 111.783ZM68.9744 111.054C68.8833 110.803 68.8032 110.541 68.7376 110.278L69.1238 110.184C69.1821 110.431 69.2586 110.675 69.346 110.92L68.9744 111.054ZM82.2573 110.646L81.8748 110.533C81.9477 110.289 82.0059 110.038 82.0497 109.787L82.4431 109.856C82.3958 110.122 82.3338 110.391 82.2573 110.65V110.646ZM68.6575 109.878C68.6101 109.612 68.5773 109.342 68.5627 109.069L68.9598 109.047C68.978 109.302 69.0072 109.557 69.0509 109.808L68.6575 109.878ZM82.4978 109.451L82.1043 109.411C82.1335 109.156 82.148 108.894 82.148 108.643L82.5451 108.61V108.639C82.5451 108.908 82.5306 109.182 82.4978 109.451ZM68.5482 108.664V108.646C68.5482 108.38 68.5627 108.114 68.5919 107.852L68.989 107.899C68.9598 108.143 68.9453 108.399 68.9453 108.65L68.5482 108.664ZM82.1335 108.231C82.1189 107.98 82.0861 107.721 82.0424 107.466L82.4358 107.393C82.4832 107.663 82.516 107.936 82.5342 108.202L82.1335 108.227V108.231ZM69.0436 107.517L68.6502 107.448C68.6975 107.178 68.7595 106.916 68.8323 106.657L69.2149 106.77C69.142 107.01 69.0837 107.262 69.04 107.513L69.0436 107.517ZM81.9622 107.091C81.9003 106.843 81.8274 106.595 81.74 106.355L82.1116 106.22C82.2063 106.471 82.2865 106.734 82.3484 106.996L81.9622 107.091ZM69.3351 106.406L68.9598 106.271C69.0509 106.016 69.1602 105.764 69.2804 105.52L69.6375 105.699C69.5245 105.928 69.4189 106.165 69.3351 106.406ZM81.5943 106.001C81.4923 105.765 81.3757 105.535 81.2482 105.316L81.5906 105.116C81.7291 105.345 81.8493 105.597 81.9586 105.837L81.5943 105.998V106.001ZM69.8196 105.364L69.4735 105.16C69.6083 104.923 69.7613 104.697 69.918 104.482L70.2422 104.719C70.0892 104.923 69.9508 105.142 69.8196 105.364ZM81.0442 104.992C80.9021 104.781 80.7491 104.573 80.5851 104.38L80.8875 104.121C81.0624 104.333 81.2263 104.544 81.3757 104.77L81.0442 104.992ZM70.479 104.417L70.1767 104.158C70.3515 103.954 70.5373 103.75 70.734 103.568L71.0073 103.855C70.8251 104.03 70.6503 104.216 70.4827 104.413L70.479 104.417ZM80.3301 104.092C80.1552 103.91 79.9658 103.735 79.7691 103.571L80.0204 103.262C80.2317 103.437 80.4285 103.622 80.6143 103.819L80.3265 104.092H80.3301ZM71.2878 103.601L71.0291 103.298C71.2368 103.127 71.4554 102.959 71.6776 102.814L71.8999 103.141C71.6849 103.284 71.4809 103.437 71.2842 103.601H71.2878ZM79.463 103.331C79.259 103.178 79.0441 103.036 78.8255 102.908L79.0222 102.566C79.2554 102.701 79.4885 102.85 79.7071 103.014L79.4703 103.331H79.463ZM72.2277 102.941L72.0274 102.599C72.2569 102.468 72.501 102.34 72.7524 102.231L72.9127 102.595C72.6759 102.697 72.4463 102.814 72.2277 102.941ZM78.483 102.733C78.2535 102.624 78.0167 102.522 77.7763 102.431L77.911 102.059C78.1661 102.154 78.4174 102.26 78.6615 102.38L78.4867 102.737L78.483 102.733ZM73.266 102.449L73.1276 102.074C73.379 101.979 73.6413 101.899 73.9036 101.837L73.9983 102.223C73.7506 102.285 73.5028 102.358 73.266 102.446V102.449ZM77.4156 102.314C77.1715 102.242 76.9201 102.183 76.6687 102.14L76.738 101.75C77.0039 101.794 77.2699 101.855 77.5285 101.932L77.4192 102.314H77.4156ZM74.3736 102.15L74.3043 101.757C74.5667 101.71 74.8399 101.681 75.1095 101.662L75.135 102.059C74.88 102.074 74.6249 102.107 74.3736 102.15ZM76.2862 102.089C76.0421 102.063 75.7944 102.045 75.543 102.048L75.5175 101.648H75.543C75.809 101.648 76.0713 101.659 76.3299 101.691L76.2862 102.089Z" fill="#032E33"/>
<path d="M75.5507 114.053C75.2701 114.053 74.9933 114.031 74.7164 113.987L74.7783 113.594C75.0297 113.637 75.2884 113.656 75.5507 113.656H75.6053L75.6126 114.053H75.547H75.5507ZM76.0316 114.031L75.9988 113.637C76.2538 113.612 76.5125 113.572 76.7638 113.506L76.8585 113.892C76.5853 113.962 76.3084 114.009 76.0316 114.031ZM74.3047 113.907C74.0351 113.845 73.7692 113.758 73.5105 113.656L73.6599 113.284C73.8967 113.386 74.148 113.466 74.3994 113.524L74.3047 113.911V113.907ZM77.2557 113.772L77.1318 113.397C77.3759 113.317 77.6163 113.215 77.8458 113.094L78.0316 113.444C77.7803 113.575 77.5216 113.681 77.2593 113.768L77.2557 113.772ZM73.128 113.477C72.8802 113.353 72.6398 113.211 72.4103 113.047L72.6434 112.723C72.8547 112.876 73.077 113.007 73.3065 113.124L73.128 113.477ZM78.3923 113.24L78.181 112.901C78.396 112.767 78.6073 112.614 78.804 112.442L79.0627 112.745C78.8477 112.927 78.6218 113.095 78.3923 113.237V113.24ZM72.0787 112.792C71.8638 112.61 71.6634 112.417 71.4813 112.206L71.78 111.947C71.9512 112.136 72.137 112.319 72.3374 112.486L72.0787 112.796V112.792ZM79.3723 112.464L79.0882 112.184C79.2703 112.002 79.4415 111.805 79.5945 111.594L79.9188 111.83C79.7549 112.056 79.5727 112.268 79.376 112.464H79.3723ZM71.219 111.881C71.0514 111.659 70.902 111.419 70.7709 111.175L71.1242 110.989C71.2445 111.218 71.3865 111.433 71.5396 111.637L71.2226 111.878L71.219 111.881ZM80.1483 111.477L79.8095 111.269C79.9407 111.051 80.0609 110.818 80.1629 110.584L80.5272 110.737C80.4179 110.996 80.2904 111.248 80.141 111.481L80.1483 111.477ZM70.5851 110.796C70.4758 110.537 70.381 110.271 70.3118 110.005L70.698 109.907C70.7636 110.154 70.8474 110.399 70.9494 110.635L70.5851 110.796ZM80.6802 110.344L80.3013 110.22C80.3851 109.976 80.447 109.721 80.4871 109.47L80.8806 109.535C80.8332 109.808 80.7677 110.078 80.6766 110.348L80.6802 110.344ZM70.2244 109.597C70.177 109.324 70.1479 109.043 70.1442 108.763H70.5413C70.5486 109.014 70.5741 109.273 70.6179 109.528L70.2244 109.597ZM80.9316 109.116L80.5381 109.083C80.5491 108.941 80.5563 108.788 80.5563 108.643C80.5563 108.533 80.5564 108.42 80.5454 108.308L80.9425 108.282C80.9498 108.399 80.9535 108.522 80.9535 108.643C80.9535 108.803 80.9425 108.96 80.9316 109.116ZM70.5486 108.373L70.1515 108.351C70.1661 108.074 70.2025 107.79 70.2608 107.524L70.6506 107.604C70.596 107.856 70.5632 108.111 70.5486 108.373ZM80.5017 107.925C80.4653 107.674 80.407 107.415 80.3305 107.167L80.7093 107.051C80.7931 107.317 80.8551 107.594 80.8915 107.867L80.4981 107.925H80.5017ZM70.7417 107.229L70.3628 107.12C70.443 106.85 70.5413 106.588 70.6652 106.337L71.0222 106.511C70.9129 106.741 70.8182 106.989 70.7454 107.233L70.7417 107.229ZM80.203 106.799C80.1082 106.562 79.9953 106.326 79.8641 106.107L80.2066 105.903C80.3487 106.147 80.4725 106.395 80.5746 106.654L80.203 106.799ZM71.1971 106.158L70.851 105.958C70.9894 105.717 71.1497 105.484 71.321 105.265L71.6306 105.517C71.4703 105.714 71.3246 105.932 71.1935 106.158H71.1971ZM79.6529 105.779C79.5071 105.568 79.3395 105.367 79.161 105.178L79.4488 104.905C79.6419 105.109 79.8204 105.324 79.9807 105.55L79.6529 105.779ZM71.893 105.225L71.6015 104.96C71.7909 104.756 71.9986 104.566 72.2208 104.391L72.4649 104.701C72.2609 104.861 72.0715 105.04 71.893 105.222V105.225ZM78.8805 104.916C78.6874 104.737 78.4798 104.584 78.2648 104.442L78.4834 104.111C78.7129 104.26 78.9388 104.431 79.1464 104.617L78.8805 104.916ZM72.7746 104.475L72.556 104.143C72.7855 103.99 73.0332 103.852 73.2846 103.735L73.4522 104.096C73.2227 104.205 72.9895 104.333 72.7746 104.475ZM77.9333 104.245C77.7074 104.121 77.467 104.016 77.2265 103.928L77.3577 103.553C77.62 103.648 77.8786 103.765 78.1227 103.899L77.9333 104.245ZM73.8092 103.95L73.6708 103.575C73.9295 103.48 74.1991 103.4 74.4759 103.349L74.5561 103.735C74.3011 103.79 74.0497 103.859 73.8129 103.95H73.8092ZM76.8549 103.805C76.6072 103.743 76.3558 103.695 76.0935 103.663L76.1372 103.269C76.4177 103.298 76.691 103.353 76.9569 103.426L76.8549 103.805ZM74.935 103.673L74.8876 103.284C75.1645 103.244 75.4486 103.236 75.7219 103.243L75.711 103.644C75.4559 103.633 75.1936 103.644 74.935 103.677V103.673Z" fill="#032E33"/>
<path d="M75.5536 112.457C75.2658 112.457 74.9853 112.428 74.7157 112.366L74.8031 111.98C75.0472 112.031 75.2986 112.06 75.55 112.06L75.5791 112.333L75.5536 112.457ZM76.0127 112.428L75.9653 112.035C76.213 112.002 76.4571 111.947 76.6939 111.863L76.8251 112.239C76.5628 112.333 76.2895 112.395 76.009 112.432L76.0127 112.428ZM74.3113 112.253C74.049 112.162 73.794 112.042 73.5535 111.9L73.7648 111.557C73.9798 111.689 74.2093 111.798 74.4425 111.882L74.3113 112.253ZM77.2113 112.075L77.0364 111.718C77.2586 111.608 77.4736 111.474 77.6703 111.317L77.9144 111.627C77.6958 111.801 77.459 111.951 77.2076 112.075H77.2113ZM73.2111 111.656C72.9925 111.485 72.7885 111.291 72.61 111.073L72.916 110.821C73.0763 111.015 73.2584 111.189 73.4552 111.342L73.2111 111.659V111.656ZM78.235 111.35L77.9544 111.066C78.133 110.887 78.2896 110.69 78.4244 110.483L78.7596 110.698C78.6102 110.934 78.4354 111.153 78.235 111.35ZM72.3622 110.738C72.2092 110.505 72.0817 110.253 71.9833 109.994L72.3549 109.852C72.4424 110.085 72.5589 110.311 72.6937 110.519L72.3622 110.738ZM78.9673 110.333L78.6102 110.155C78.7195 109.929 78.8069 109.696 78.8689 109.448L79.2551 109.543C79.1858 109.816 79.0911 110.078 78.9673 110.33V110.333ZM71.8522 109.594C71.783 109.32 71.7429 109.044 71.7356 108.767L72.1327 108.756C72.1364 109.007 72.1764 109.255 72.2347 109.499L71.8522 109.594ZM79.3279 109.131L78.9345 109.084C78.9527 108.942 78.9636 108.792 78.96 108.643C78.96 108.537 78.9563 108.435 78.9454 108.333L79.3388 108.293C79.3534 108.41 79.3571 108.526 79.3571 108.643C79.3571 108.81 79.3461 108.974 79.3243 109.131H79.3279ZM72.14 108.373L71.7429 108.344C71.7647 108.064 71.8158 107.783 71.9032 107.517L72.2821 107.637C72.2092 107.874 72.1582 108.122 72.14 108.373ZM78.8944 107.958C78.847 107.714 78.7669 107.473 78.6649 107.244L79.0292 107.08C79.1421 107.339 79.2296 107.601 79.2842 107.878L78.8944 107.958ZM72.4132 107.288L72.0489 107.127C72.1582 106.876 72.3003 106.628 72.4642 106.399L72.7848 106.635C72.6391 106.836 72.5116 107.054 72.4132 107.284V107.288ZM78.49 106.912C78.3661 106.701 78.2095 106.497 78.0419 106.311L78.3297 106.042C78.5228 106.246 78.6867 106.471 78.8325 106.712L78.4864 106.912H78.49ZM73.0216 106.34L72.7302 106.074C72.9196 105.867 73.1309 105.681 73.3604 105.524L73.59 105.849C73.386 105.994 73.1965 106.158 73.0253 106.344L73.0216 106.34ZM77.7686 106.053C77.5792 105.892 77.3679 105.746 77.1493 105.626L77.3388 105.277C77.5828 105.408 77.816 105.572 78.031 105.75L77.7723 106.053H77.7686ZM73.9069 105.648L73.7138 105.298C73.9579 105.167 74.2202 105.058 74.4898 104.981L74.5991 105.36C74.3623 105.43 74.1255 105.524 73.9069 105.648ZM76.8105 105.47C76.5774 105.379 76.3369 105.309 76.0855 105.269L76.1475 104.88C76.4243 104.92 76.6976 104.996 76.9562 105.102L76.8105 105.473V105.47ZM74.9634 105.277L74.8979 104.887C75.1711 104.839 75.4553 104.821 75.7321 104.839L75.7139 105.237C75.4698 105.226 75.2112 105.236 74.9634 105.277Z" fill="#032E33"/>
<path d="M75.5727 110.865H75.5472C75.2594 110.865 74.9862 110.811 74.7238 110.705L74.8696 110.337C75.0845 110.421 75.314 110.468 75.5472 110.468L75.5727 110.869V110.865ZM75.9953 110.818L75.9152 110.432C76.141 110.381 76.356 110.293 76.5491 110.166L76.7713 110.497C76.5345 110.65 76.2722 110.759 75.9953 110.814V110.818ZM74.3486 110.512C74.1118 110.359 73.9041 110.169 73.7402 109.94L74.0644 109.703C74.2029 109.896 74.3668 110.056 74.5635 110.184L74.3486 110.515V110.512ZM77.0992 110.235L76.8187 109.951C76.9862 109.787 77.121 109.601 77.2121 109.386L77.5764 109.55C77.4599 109.808 77.2996 110.038 77.0955 110.235H77.0992ZM73.5289 109.572C73.4123 109.317 73.3431 109.043 73.3249 108.759L73.7256 108.741C73.7366 108.974 73.7949 109.2 73.8896 109.411L73.5289 109.579V109.572ZM77.7112 109.149L77.3251 109.058C77.3578 108.923 77.3724 108.785 77.3724 108.646C77.3724 108.555 77.3651 108.461 77.3506 108.37L77.744 108.315C77.7622 108.424 77.7695 108.537 77.7695 108.65C77.7695 108.821 77.7513 108.992 77.7112 109.153V109.149ZM73.7402 108.391L73.3467 108.337C73.3868 108.056 73.4779 107.79 73.62 107.546L73.9661 107.743C73.8495 107.947 73.7766 108.165 73.7438 108.395L73.7402 108.391ZM77.2668 108.034C77.1866 107.816 77.07 107.615 76.917 107.44L77.2121 107.178C77.4016 107.393 77.5436 107.634 77.642 107.9L77.2704 108.031L77.2668 108.034ZM74.1665 107.455L73.8641 107.196C74.0499 106.978 74.2721 106.807 74.5198 106.672L74.702 107.025C74.498 107.135 74.3158 107.277 74.1628 107.455H74.1665ZM76.6656 107.2C76.4835 107.058 76.2722 106.952 76.05 106.887L76.1629 106.508C76.4361 106.584 76.6839 106.712 76.9097 106.887L76.6656 107.2ZM75.0226 106.894L74.9096 106.515C75.1756 106.435 75.4634 106.41 75.7439 106.435L75.7111 106.832C75.4889 106.814 75.2485 106.832 75.0262 106.901L75.0226 106.894Z" fill="#032E33"/>
<path d="M87.336 123.722H87.3287C87.0627 123.722 86.7895 123.707 86.5235 123.678L86.5673 123.281C86.8186 123.306 87.0737 123.324 87.325 123.324L87.336 123.722ZM87.7404 123.707L87.7149 123.31C87.9735 123.292 88.2285 123.262 88.4799 123.219L88.5491 123.605C88.2832 123.656 88.0136 123.685 87.7404 123.703V123.707ZM86.1228 123.616C85.8569 123.569 85.5945 123.507 85.3322 123.43L85.4452 123.051C85.6929 123.124 85.9407 123.182 86.192 123.226L86.1228 123.62V123.616ZM88.9463 123.528L88.8588 123.142C89.1029 123.084 89.3506 123.008 89.5947 122.92L89.7332 123.295C89.4781 123.39 89.2158 123.47 88.9499 123.528H88.9463ZM84.9424 123.303C84.691 123.211 84.436 123.102 84.1956 122.982L84.3741 122.625C84.6 122.742 84.8404 122.844 85.0772 122.927L84.9388 123.299L84.9424 123.303ZM90.1048 123.146L89.9445 122.782C90.1813 122.68 90.4072 122.563 90.6294 122.436L90.8334 122.778C90.5966 122.916 90.3525 123.037 90.1048 123.146ZM83.8386 122.793C83.6054 122.654 83.3759 122.505 83.1609 122.348L83.3977 122.027C83.6017 122.18 83.8203 122.319 84.0389 122.45L83.8422 122.796L83.8386 122.793ZM91.1759 122.567L90.9573 122.231C91.1686 122.093 91.3762 121.936 91.5693 121.773L91.828 122.075C91.6203 122.25 91.4017 122.414 91.1759 122.559V122.567ZM82.8367 122.093C82.629 121.918 82.4287 121.733 82.2429 121.536L82.5343 121.263C82.7092 121.448 82.8986 121.623 83.0917 121.787L82.8367 122.093ZM92.134 121.813L91.8608 121.521C92.0466 121.346 92.2214 121.157 92.3854 120.964L92.6877 121.219C92.5129 121.43 92.3271 121.627 92.1304 121.813H92.134ZM81.9733 121.233C81.7984 121.026 81.6381 120.811 81.4851 120.585L81.8166 120.366C81.955 120.581 82.1117 120.785 82.2757 120.982L81.9696 121.237L81.9733 121.233ZM92.9428 120.894L92.6258 120.658C92.7788 120.454 92.9209 120.235 93.0448 120.016L93.3909 120.213C93.2561 120.446 93.1067 120.68 92.9428 120.891V120.894ZM81.2701 120.235C81.1317 119.998 81.0115 119.758 80.9058 119.51L81.2701 119.35C81.3721 119.579 81.4851 119.812 81.6162 120.031L81.2701 120.235ZM93.584 119.856L93.2269 119.678C93.3435 119.448 93.4455 119.211 93.5293 118.971L93.9009 119.106C93.8062 119.357 93.7005 119.612 93.5767 119.856H93.584ZM80.7528 119.135C80.6617 118.883 80.5816 118.621 80.516 118.355L80.9022 118.264C80.9641 118.508 81.037 118.756 81.1244 119L80.7528 119.135ZM94.0321 118.727L93.6532 118.614C93.7261 118.366 93.7843 118.118 93.8281 117.863L94.2179 117.933C94.1705 118.199 94.1086 118.468 94.0321 118.727ZM80.4395 117.955C80.3921 117.689 80.3593 117.419 80.3411 117.146L80.7419 117.124C80.7565 117.379 80.7892 117.63 80.8293 117.882L80.4395 117.951V117.955ZM94.2762 117.528L93.8827 117.481C93.9119 117.229 93.9228 116.971 93.9264 116.716L94.3272 116.683V116.716C94.3272 116.986 94.3126 117.259 94.2798 117.528H94.2762ZM80.3302 116.741V116.73C80.3302 116.464 80.3448 116.195 80.3739 115.933L80.771 115.976C80.7455 116.224 80.7309 116.475 80.7309 116.727L80.3338 116.738L80.3302 116.741ZM93.9118 116.308C93.8973 116.053 93.8645 115.801 93.8208 115.546L94.2106 115.477C94.2579 115.743 94.2907 116.016 94.309 116.282L93.9118 116.308ZM80.822 115.594L80.4322 115.525C80.4796 115.255 80.5378 114.993 80.6144 114.734L80.9933 114.843C80.9204 115.087 80.8658 115.339 80.8184 115.59L80.822 115.594ZM93.7406 115.171C93.6787 114.92 93.6095 114.676 93.5184 114.435L93.89 114.297C93.9847 114.552 94.0649 114.814 94.1268 115.077L93.7406 115.171ZM81.1135 114.483L80.7419 114.348C80.833 114.097 80.9386 113.845 81.0625 113.601L81.4195 113.776C81.3029 114.005 81.2046 114.242 81.1135 114.483ZM93.3763 114.078C93.2743 113.841 93.1577 113.612 93.0266 113.393L93.369 113.189C93.5075 113.422 93.6277 113.667 93.7406 113.911L93.3763 114.071V114.078ZM81.598 113.441L81.2519 113.244C81.3867 113.007 81.5397 112.778 81.6964 112.566L82.017 112.803C81.864 113.007 81.7219 113.226 81.5944 113.444L81.598 113.441ZM92.8262 113.069C92.6841 112.858 92.5311 112.654 92.3671 112.461L92.6695 112.202C92.8444 112.406 93.0084 112.628 93.1577 112.85L92.8262 113.069ZM82.2574 112.497L81.9514 112.239C82.1263 112.027 82.3121 111.83 82.5088 111.648L82.782 111.936C82.5999 112.111 82.4214 112.3 82.2574 112.497ZM92.1085 112.173C91.9336 111.991 91.7442 111.816 91.5474 111.652L91.8025 111.346C92.0101 111.521 92.2105 111.706 92.3963 111.903L92.1085 112.176V112.173ZM83.0662 111.681L82.8112 111.375C83.0188 111.2 83.2338 111.036 83.4597 110.89L83.6819 111.222C83.4706 111.361 83.2629 111.517 83.0662 111.681ZM91.2451 111.412C91.0374 111.262 90.8225 111.12 90.6039 110.996L90.8006 110.65C91.0301 110.781 91.2633 110.931 91.4819 111.095L91.2451 111.415V111.412ZM84.0061 111.018L83.8058 110.672C84.0353 110.537 84.2794 110.413 84.5271 110.308L84.6874 110.672C84.4506 110.774 84.2211 110.894 84.0025 111.022L84.0061 111.018ZM90.2614 110.81C90.0355 110.697 89.7951 110.592 89.5546 110.508L89.6931 110.133C89.9481 110.227 90.1995 110.333 90.4436 110.453L90.2651 110.81H90.2614ZM85.0444 110.53L84.906 110.155C85.1574 110.06 85.4233 109.98 85.6856 109.921L85.7767 110.308C85.529 110.366 85.2849 110.439 85.0408 110.53H85.0444ZM89.194 110.391C88.9499 110.318 88.6985 110.26 88.4471 110.22L88.5127 109.827C88.7787 109.874 89.0483 109.936 89.3033 110.009L89.194 110.391ZM86.1556 110.231L86.0864 109.834C86.3523 109.787 86.6219 109.757 86.8915 109.739L86.917 110.136C86.662 110.151 86.4033 110.184 86.1556 110.231ZM88.0646 110.162C87.8241 110.136 87.5728 110.122 87.3214 110.122L87.2959 109.725H87.3178C87.5837 109.725 87.846 109.739 88.1083 109.768L88.0609 110.162H88.0646Z" fill="#032E33"/>
<path d="M87.3287 122.129C87.0482 122.129 86.7676 122.111 86.4944 122.063L86.5563 121.67C86.8114 121.71 87.07 121.732 87.3287 121.732H87.3833L87.3943 122.129H87.3287ZM87.8096 122.111L87.7768 121.71C88.0318 121.685 88.2905 121.645 88.5418 121.579L88.6366 121.969C88.367 122.034 88.0864 122.078 87.8096 122.107V122.111ZM86.0827 121.98C85.8168 121.918 85.5435 121.834 85.2885 121.728L85.4415 121.357C85.6783 121.455 85.9297 121.535 86.1774 121.594L86.0864 121.98H86.0827ZM89.0373 121.852L88.9098 121.477C89.1502 121.393 89.3943 121.291 89.6239 121.171L89.8097 121.528C89.5583 121.659 89.3033 121.765 89.0373 121.852ZM84.906 121.553C84.6619 121.43 84.4178 121.287 84.1883 121.124L84.4214 120.799C84.6327 120.952 84.855 121.087 85.0845 121.204L84.906 121.553ZM90.1703 121.317L89.959 120.982C90.174 120.843 90.3853 120.694 90.582 120.526L90.8407 120.825C90.6257 121.007 90.3998 121.171 90.1667 121.317H90.1703ZM83.8568 120.869C83.6454 120.686 83.4414 120.493 83.2629 120.282L83.558 120.02C83.7292 120.213 83.915 120.395 84.1118 120.562L83.8568 120.869ZM91.1503 120.541L90.8698 120.26C91.052 120.078 91.2196 119.881 91.3726 119.674L91.6968 119.907C91.5292 120.129 91.3507 120.344 91.154 120.541H91.1503ZM82.997 119.958C82.8294 119.736 82.68 119.499 82.5489 119.251L82.8986 119.065C83.0188 119.295 83.1573 119.513 83.3139 119.717L82.997 119.954V119.958ZM91.9263 119.561L91.5875 119.349C91.7187 119.131 91.8389 118.898 91.9409 118.661L92.3052 118.814C92.1996 119.073 92.0684 119.32 91.9227 119.557L91.9263 119.561ZM82.3667 118.872C82.2574 118.614 82.1627 118.351 82.0935 118.085L82.4797 117.987C82.5416 118.231 82.629 118.479 82.731 118.715L82.3667 118.872ZM92.4582 118.42L92.0793 118.293C92.1595 118.052 92.2251 117.801 92.2651 117.546L92.6586 117.612C92.6112 117.885 92.542 118.158 92.4546 118.424L92.4582 118.42ZM82.006 117.677C81.955 117.4 81.9295 117.123 81.9222 116.843L82.323 116.836C82.3266 117.091 82.3521 117.349 82.3995 117.608L82.0097 117.677H82.006ZM92.7096 117.193L92.3125 117.16C92.3234 117.014 92.3307 116.868 92.3307 116.723C92.3307 116.613 92.3271 116.5 92.3198 116.387L92.7169 116.362C92.7242 116.479 92.7278 116.599 92.7278 116.719C92.7278 116.879 92.7205 117.036 92.7096 117.193ZM82.3266 116.449L81.9295 116.428C81.9441 116.151 81.9805 115.87 82.0388 115.597L82.425 115.681C82.3704 115.932 82.3376 116.191 82.323 116.449H82.3266ZM92.2834 116.001C92.2433 115.746 92.1886 115.495 92.1121 115.244L92.491 115.127C92.5748 115.393 92.6331 115.67 92.6732 115.943L92.2797 116.001H92.2834ZM82.5197 115.306L82.1372 115.189C82.2173 114.919 82.3193 114.657 82.4396 114.409L82.7966 114.584C82.6873 114.814 82.5926 115.058 82.5197 115.306ZM91.981 114.879C91.8862 114.643 91.7733 114.409 91.6422 114.187L91.981 113.983C92.123 114.227 92.2469 114.475 92.3489 114.733L91.981 114.879ZM82.9788 114.235L82.6327 114.038C82.7711 113.797 82.9314 113.564 83.1026 113.349L83.4123 113.597C83.252 113.801 83.1099 114.012 82.9751 114.235H82.9788ZM91.4308 113.856C91.2851 113.648 91.1212 113.444 90.939 113.262L91.2268 112.988C91.4199 113.189 91.5984 113.404 91.7551 113.633L91.4272 113.859L91.4308 113.856ZM83.6709 113.302L83.3795 113.029C83.5689 112.825 83.7802 112.635 83.9952 112.464L84.2393 112.777C84.0353 112.934 83.8458 113.112 83.6673 113.298L83.6709 113.302ZM90.6621 112.992C90.4691 112.817 90.2614 112.661 90.0465 112.519L90.2614 112.183C90.4909 112.336 90.7168 112.508 90.9281 112.69L90.6621 112.988V112.992ZM84.5562 112.551L84.3376 112.223C84.5672 112.067 84.8113 111.928 85.0663 111.815L85.2339 112.18C85.0044 112.289 84.7748 112.413 84.5599 112.555L84.5562 112.551ZM89.7113 112.318C89.4854 112.198 89.2486 112.092 89.0045 112.005L89.1393 111.63C89.4016 111.724 89.6603 111.837 89.9044 111.972L89.7149 112.315L89.7113 112.318ZM85.5872 112.023L85.4488 111.651C85.7075 111.557 85.9771 111.477 86.2539 111.422L86.3341 111.815C86.0827 111.866 85.8277 111.932 85.5872 112.027V112.023ZM88.6366 111.888C88.3888 111.819 88.1302 111.772 87.8715 111.746L87.9189 111.349C88.1957 111.382 88.4726 111.429 88.7422 111.506L88.6402 111.888H88.6366ZM86.713 111.754L86.6656 111.36C86.9389 111.324 87.223 111.313 87.4999 111.32L87.4853 111.717C87.234 111.706 86.9716 111.721 86.7093 111.754H86.713Z" fill="#032E33"/>
<path d="M87.3329 120.538C87.0451 120.538 86.7682 120.505 86.495 120.45L86.5824 120.06C86.8265 120.115 87.0743 120.141 87.3293 120.141L87.3584 120.41L87.3365 120.538H87.3329ZM87.7919 120.512L87.741 120.115C87.9923 120.082 88.2364 120.028 88.4732 119.94L88.6044 120.315C88.3421 120.41 88.0688 120.476 87.7919 120.512ZM86.0906 120.334C85.8283 120.246 85.5733 120.122 85.3328 119.977L85.5405 119.634C85.7554 119.765 85.9849 119.875 86.2181 119.958L86.087 120.334H86.0906ZM88.9906 120.151L88.8157 119.798C89.0379 119.685 89.2528 119.554 89.4496 119.397L89.6973 119.707C89.4751 119.882 89.2383 120.031 88.9906 120.151ZM84.9904 119.736C84.7718 119.565 84.5678 119.372 84.3893 119.153L84.6953 118.902C84.8556 119.099 85.0377 119.266 85.2345 119.423L84.9904 119.74V119.736ZM90.0143 119.427L89.7337 119.146C89.9123 118.971 90.0726 118.774 90.2074 118.559L90.5389 118.778C90.3895 119.011 90.2146 119.23 90.0143 119.43V119.427ZM84.1379 118.814C83.9849 118.581 83.8574 118.33 83.7554 118.068L84.1269 117.929C84.2144 118.159 84.331 118.385 84.4694 118.592L84.1379 118.811V118.814ZM90.7429 118.41L90.3859 118.235C90.4952 118.009 90.5826 117.772 90.6409 117.532L91.0271 117.627C90.9615 117.9 90.8668 118.162 90.7393 118.41H90.7429ZM83.6351 117.67C83.5659 117.397 83.5258 117.12 83.5149 116.84L83.9157 116.829C83.9229 117.073 83.9557 117.328 84.0213 117.572L83.6351 117.67ZM91.1109 117.208L90.7174 117.16C90.7356 117.015 90.7429 116.869 90.7466 116.72C90.7466 116.618 90.7393 116.516 90.732 116.41L91.1291 116.37C91.14 116.486 91.1436 116.599 91.1436 116.72C91.1436 116.884 91.1327 117.051 91.1145 117.208H91.1109ZM83.9193 116.454L83.5222 116.421C83.5477 116.14 83.5987 115.863 83.6825 115.598L84.0614 115.714C83.9885 115.951 83.9411 116.199 83.9229 116.45L83.9193 116.454ZM90.6737 116.035C90.6227 115.791 90.5462 115.554 90.4442 115.324L90.8085 115.164C90.9251 115.419 91.0125 115.685 91.0671 115.958L90.6773 116.035H90.6737ZM84.1925 115.361L83.8282 115.2C83.9375 114.945 84.0796 114.701 84.2472 114.472L84.5678 114.709C84.422 114.909 84.2945 115.127 84.1962 115.357L84.1925 115.361ZM90.2693 114.993C90.1418 114.774 89.9888 114.574 89.8175 114.392L90.1054 114.122C90.2984 114.326 90.466 114.552 90.6081 114.792L90.262 114.996L90.2693 114.993ZM84.8046 114.421L84.5095 114.155C84.6989 113.944 84.9102 113.761 85.1397 113.601L85.3693 113.929C85.1652 114.071 84.9758 114.239 84.8046 114.421ZM89.5479 114.133C89.3585 113.969 89.1508 113.823 88.9286 113.707L89.1181 113.357C89.3621 113.488 89.5953 113.648 89.8103 113.831L89.5516 114.133H89.5479ZM85.6862 113.729L85.4931 113.379C85.7372 113.244 85.9959 113.135 86.2691 113.058L86.3784 113.444C86.138 113.514 85.9048 113.608 85.6862 113.729ZM88.5898 113.55C88.3566 113.459 88.1125 113.39 87.8648 113.35L87.9267 112.956C88.2073 112.996 88.4769 113.073 88.7319 113.175L88.5861 113.546L88.5898 113.55ZM86.7464 113.361L86.6771 112.967C86.9504 112.92 87.2382 112.902 87.5114 112.912L87.4896 113.313C87.2491 113.302 86.9904 113.317 86.7427 113.361H86.7464Z" fill="#032E33"/>
<path d="M87.3504 118.945H87.3249C87.0407 118.945 86.7638 118.891 86.5015 118.785L86.6473 118.417C86.8659 118.505 87.0917 118.548 87.3285 118.548L87.3504 118.945ZM87.773 118.898L87.6965 118.508C87.9223 118.461 88.1337 118.377 88.3304 118.246L88.549 118.577C88.3122 118.738 88.0535 118.843 87.773 118.902V118.898ZM86.1263 118.592C85.8895 118.439 85.6855 118.246 85.5179 118.013L85.8421 117.78C85.9806 117.969 86.1481 118.129 86.3449 118.26L86.1299 118.592H86.1263ZM88.8769 118.312L88.5963 118.024C88.7639 117.863 88.8987 117.674 88.9898 117.459L89.3541 117.619C89.2375 117.878 89.0772 118.111 88.8732 118.308L88.8769 118.312ZM85.3066 117.652C85.1863 117.393 85.1208 117.124 85.1062 116.836L85.5033 116.818C85.5142 117.047 85.5725 117.273 85.6709 117.485L85.3102 117.652H85.3066ZM89.4889 117.222L89.1027 117.131C89.1355 117 89.1501 116.865 89.1501 116.723C89.1501 116.632 89.1428 116.537 89.1319 116.446L89.5253 116.388C89.5399 116.497 89.5472 116.61 89.5508 116.723C89.5508 116.894 89.5326 117.066 89.4889 117.226V117.222ZM85.5179 116.472L85.1244 116.417C85.1645 116.137 85.2556 115.871 85.3976 115.627L85.7438 115.823C85.6272 116.027 85.5507 116.246 85.5215 116.472H85.5179ZM89.0444 116.111C88.9643 115.892 88.8477 115.692 88.6911 115.517L88.9934 115.255C89.1792 115.47 89.325 115.714 89.416 115.976L89.0444 116.111ZM85.9405 115.535L85.6381 115.277C85.8239 115.058 86.0461 114.883 86.2939 114.752L86.4797 115.105C86.2757 115.211 86.0899 115.357 85.9405 115.535ZM88.4433 115.28C88.2612 115.135 88.0535 115.033 87.8276 114.967L87.9369 114.588C88.2102 114.661 88.4615 114.792 88.6874 114.967L88.4433 115.28ZM86.8003 114.971L86.6873 114.592C86.9569 114.512 87.2374 114.486 87.5216 114.512L87.4852 114.905C87.2593 114.887 87.0225 114.905 86.8003 114.974V114.971Z" fill="#032E33"/>
<path d="M88.2 109.244H88.1928C87.9268 109.244 87.6572 109.225 87.3876 109.2L87.4313 108.803C87.6827 108.832 87.9377 108.847 88.1928 108.847L88.2 109.244ZM88.6044 109.233L88.5789 108.836C88.8339 108.821 89.0926 108.788 89.3403 108.748L89.4096 109.138C89.1436 109.189 88.874 109.218 88.6044 109.233ZM86.9832 109.142C86.7173 109.094 86.455 109.032 86.1927 108.956L86.3056 108.573C86.5497 108.646 86.8047 108.708 87.0524 108.752L86.9832 109.142ZM89.8103 109.054L89.7192 108.668C89.967 108.61 90.2147 108.537 90.4515 108.449L90.5899 108.821C90.3349 108.916 90.0763 108.996 89.8103 109.054ZM85.8065 108.828C85.5515 108.737 85.3001 108.628 85.0596 108.504L85.2345 108.147C85.4604 108.264 85.6972 108.366 85.9376 108.449L85.8028 108.825L85.8065 108.828ZM90.9688 108.672L90.8085 108.307C91.0417 108.205 91.2749 108.089 91.4934 107.961L91.6938 108.304C91.457 108.442 91.2129 108.562 90.9652 108.672H90.9688ZM84.699 108.311C84.4622 108.176 84.2326 108.027 84.0177 107.863L84.2545 107.546C84.4585 107.695 84.6698 107.841 84.8957 107.961L84.699 108.304V108.311ZM92.0363 108.092L91.8213 107.757C92.0326 107.615 92.2403 107.462 92.4334 107.298L92.692 107.604C92.4844 107.779 92.2658 107.943 92.0399 108.092H92.0363ZM83.6971 107.615C83.4894 107.44 83.2927 107.255 83.1033 107.058L83.3911 106.785C83.566 106.97 83.7517 107.145 83.9485 107.313L83.6935 107.619L83.6971 107.615ZM92.9944 107.331L92.7212 107.043C92.907 106.868 93.0855 106.683 93.2494 106.486L93.5555 106.737C93.3806 106.949 93.1948 107.145 92.9981 107.331H92.9944ZM82.8337 106.755C82.6588 106.548 82.4949 106.329 82.3455 106.103L82.677 105.881C82.8227 106.096 82.9721 106.304 83.1361 106.497L82.8337 106.755ZM93.8032 106.42L93.4862 106.184C93.6392 105.979 93.7813 105.764 93.9052 105.542L94.2513 105.739C94.1202 105.972 93.9671 106.205 93.8032 106.42ZM82.1342 105.761C81.9958 105.524 81.8755 105.28 81.7699 105.032L82.1342 104.872C82.2326 105.109 82.3491 105.338 82.4803 105.561L82.1342 105.761ZM94.4444 105.382L94.0874 105.2C94.2039 104.97 94.3023 104.733 94.3934 104.493L94.765 104.631C94.6739 104.883 94.5646 105.134 94.4444 105.378V105.382ZM81.6169 104.657C81.5221 104.406 81.4456 104.143 81.3801 103.877L81.7662 103.786C81.8245 104.034 81.901 104.278 81.9885 104.522L81.6169 104.661V104.657ZM94.8925 104.245L94.5136 104.132C94.5865 103.892 94.6447 103.641 94.6885 103.386L95.0819 103.455C95.0346 103.724 94.9726 103.99 94.8961 104.245H94.8925ZM81.2963 103.48C81.2489 103.218 81.2198 102.945 81.2016 102.675L81.5986 102.65C81.6169 102.905 81.646 103.163 81.6861 103.415L81.2926 103.484L81.2963 103.48ZM95.1366 103.054L94.7431 103.01C94.7759 102.755 94.7905 102.497 94.7868 102.242L95.184 102.209V102.242C95.184 102.507 95.1694 102.785 95.1366 103.054ZM81.1906 102.263V102.249C81.1906 101.983 81.2052 101.713 81.2343 101.451L81.6278 101.498C81.5986 101.743 81.5877 101.994 81.5877 102.249L81.1906 102.263ZM94.7723 101.826C94.7577 101.575 94.7249 101.32 94.6812 101.069L95.0746 100.996C95.1256 101.262 95.1548 101.535 95.1694 101.804L94.7723 101.826ZM81.6861 101.116L81.2926 101.054C81.34 100.781 81.4019 100.518 81.4748 100.26L81.8537 100.369C81.7808 100.613 81.7262 100.861 81.6825 101.116H81.6861ZM94.6047 100.69C94.5427 100.442 94.4662 100.198 94.3788 99.9537L94.7504 99.8153C94.8451 100.07 94.9253 100.333 94.9872 100.595L94.601 100.69H94.6047ZM81.9775 100.008L81.6059 99.8735C81.697 99.6185 81.8063 99.3673 81.9265 99.1232L82.2836 99.298C82.1706 99.5275 82.0686 99.7643 81.9812 100.005L81.9775 100.008ZM94.2367 99.6003C94.1347 99.3671 94.0181 99.134 93.8833 98.9154L94.2294 98.7114C94.3679 98.9445 94.4917 99.1886 94.5974 99.44L94.2367 99.6003ZM82.4621 98.9664L82.116 98.7661C82.2508 98.533 82.4001 98.3033 82.5604 98.0884L82.881 98.3252C82.728 98.5255 82.5859 98.7406 82.4621 98.9664ZM93.6866 98.5984C93.5445 98.3798 93.3879 98.1795 93.2239 97.9827L93.5263 97.7278C93.7012 97.9318 93.8651 98.1503 94.0145 98.3762L93.683 98.5984H93.6866ZM83.1179 98.0192L82.8155 97.7605C82.9903 97.5565 83.1761 97.3526 83.3692 97.1668L83.6425 97.4546C83.4603 97.6295 83.2818 97.8189 83.1179 98.0156V98.0192ZM92.9653 97.6949C92.7904 97.5128 92.6046 97.3379 92.4079 97.1703L92.6629 96.8679C92.8742 97.0391 93.0709 97.2286 93.2567 97.4217L92.9689 97.6949H92.9653ZM83.9266 97.2068L83.6679 96.9044C83.8756 96.7295 84.0942 96.5655 84.3164 96.4198L84.5387 96.7514C84.3274 96.8935 84.1197 97.0465 83.923 97.2141L83.9266 97.2068ZM92.1091 96.9373C91.9015 96.7843 91.6865 96.6421 91.4679 96.5182L91.6647 96.1722C91.8978 96.307 92.131 96.4599 92.3459 96.6166L92.1091 96.9373ZM84.8702 96.5401L84.6662 96.1976C84.8994 96.0628 85.1434 95.939 85.3912 95.826L85.5515 96.1941C85.3183 96.2961 85.0888 96.4163 84.8702 96.5365V96.5401ZM91.1255 96.3287C90.896 96.2194 90.6592 96.1176 90.4187 96.0338L90.5535 95.6549C90.8085 95.746 91.0599 95.8552 91.304 95.9755L91.1255 96.3287ZM85.9048 96.0519L85.7664 95.6768C86.0178 95.5821 86.2801 95.5018 86.5424 95.4398L86.6371 95.826C86.3894 95.888 86.1416 95.9645 85.9012 96.0519H85.9048ZM90.0544 95.9135C89.8103 95.8407 89.5589 95.786 89.3076 95.7422L89.3731 95.3488C89.6391 95.3961 89.9087 95.4581 90.1637 95.5346L90.0507 95.9135H90.0544ZM87.016 95.7533L86.9468 95.3598C87.2091 95.3124 87.4823 95.2795 87.7519 95.265L87.7774 95.6585C87.5224 95.6767 87.2637 95.7058 87.016 95.7495V95.7533ZM88.925 95.6876C88.6846 95.6585 88.4332 95.6439 88.1818 95.6439L88.16 95.2468H88.1818C88.4478 95.2468 88.7101 95.2613 88.9687 95.2869L88.9214 95.6839L88.925 95.6876Z" fill="#032E33"/>
<path d="M88.1883 107.648C87.9078 107.648 87.6272 107.63 87.354 107.586L87.416 107.193C87.6673 107.236 87.9296 107.255 88.1883 107.255H88.2429L88.2502 107.648H88.1883ZM88.6692 107.63L88.6328 107.236C88.8914 107.211 89.1464 107.167 89.3978 107.112L89.4962 107.495C89.2229 107.564 88.9461 107.608 88.6692 107.633V107.63ZM86.946 107.51C86.6727 107.448 86.4068 107.356 86.1481 107.251L86.3012 106.887C86.5416 106.981 86.7893 107.065 87.0407 107.123L86.9496 107.513L86.946 107.51ZM89.8969 107.375L89.7731 106.996C90.0171 106.916 90.254 106.814 90.4835 106.694L90.6693 107.043C90.4215 107.174 90.1629 107.287 89.8969 107.375ZM85.7656 107.08C85.5215 106.956 85.2774 106.81 85.0479 106.646L85.2774 106.322C85.4887 106.471 85.7146 106.61 85.9405 106.719L85.762 107.076L85.7656 107.08ZM91.0299 106.843L90.8186 106.504C91.0336 106.369 91.2485 106.216 91.4416 106.045L91.7003 106.351C91.489 106.533 91.2595 106.701 91.0263 106.843H91.0299ZM84.72 106.391C84.5087 106.213 84.3083 106.016 84.1262 105.805L84.4249 105.546C84.5925 105.739 84.782 105.918 84.9787 106.085L84.72 106.391ZM92.0063 106.063L91.7258 105.783C91.9079 105.601 92.0792 105.404 92.2285 105.196L92.5528 105.429C92.3852 105.651 92.2067 105.87 92.01 106.063H92.0063ZM83.8566 105.484C83.689 105.262 83.5396 105.025 83.4085 104.777L83.7619 104.588C83.8821 104.817 84.0242 105.04 84.1772 105.24L83.8566 105.48V105.484ZM92.7859 105.08L92.4508 104.868C92.5819 104.65 92.7022 104.42 92.8042 104.183L93.1685 104.336C93.0592 104.595 92.9317 104.846 92.7859 105.08ZM83.2263 104.402C83.117 104.143 83.0223 103.877 82.9531 103.611L83.3393 103.509C83.4048 103.761 83.4886 104.001 83.5907 104.242L83.2263 104.402ZM93.3179 103.947L92.9426 103.823C93.0227 103.575 93.0883 103.324 93.1248 103.069L93.5182 103.138C93.4709 103.411 93.4053 103.688 93.3179 103.95V103.947ZM82.862 103.2C82.8147 102.927 82.7891 102.646 82.7819 102.369L83.1826 102.358C83.1863 102.617 83.2154 102.876 83.2591 103.131L82.8657 103.2H82.862ZM93.5692 102.719L93.1758 102.683C93.1867 102.537 93.1976 102.391 93.194 102.242C93.194 102.132 93.1903 102.016 93.183 101.91L93.5765 101.881C93.5838 102.001 93.5874 102.125 93.5874 102.242C93.5874 102.402 93.5802 102.559 93.5656 102.715L93.5692 102.719ZM83.1863 101.972L82.7855 101.954C82.8037 101.677 82.8401 101.396 82.8948 101.127L83.281 101.207C83.2263 101.458 83.1935 101.717 83.179 101.972H83.1863ZM93.143 101.524C93.1029 101.269 93.0483 101.017 92.9681 100.766L93.3506 100.65C93.4308 100.919 93.4927 101.192 93.5328 101.466L93.1393 101.52L93.143 101.524ZM83.383 100.832L83.0041 100.715C83.0843 100.445 83.1826 100.187 83.3028 99.9356L83.6635 100.11C83.5542 100.336 83.4595 100.584 83.3866 100.832H83.383ZM92.8406 100.406C92.7495 100.169 92.6329 99.9318 92.5018 99.7059L92.8442 99.5021C92.9863 99.7461 93.1102 99.9974 93.2122 100.252L92.8406 100.402V100.406ZM83.8384 99.7607L83.4923 99.564C83.6307 99.3235 83.791 99.0902 83.9659 98.8716L84.2756 99.1232C84.1153 99.3235 83.9659 99.5385 83.8384 99.7607ZM92.2905 99.3818C92.1411 99.1705 91.9808 98.97 91.7986 98.7805L92.0865 98.5073C92.2796 98.7077 92.4581 98.9263 92.6147 99.1522L92.2868 99.3818H92.2905ZM84.5306 98.828L84.2391 98.5548C84.4286 98.3508 84.6362 98.1612 84.8548 97.99L85.0989 98.3035C84.8949 98.4601 84.7054 98.6386 84.5306 98.828ZM91.5181 98.5146C91.3251 98.3397 91.1174 98.1832 90.9024 98.0411L91.1174 97.7059C91.3469 97.8517 91.5728 98.0302 91.7804 98.2124L91.5145 98.511L91.5181 98.5146ZM85.4159 98.0775L85.1936 97.746C85.4268 97.5929 85.6745 97.4545 85.9223 97.3379L86.0898 97.6986C85.8567 97.8079 85.6308 97.9355 85.4122 98.0775H85.4159ZM90.5746 97.8481C90.345 97.7242 90.1082 97.6184 89.8678 97.5273L89.9989 97.1595C90.2612 97.2505 90.5199 97.3672 90.764 97.4983L90.5746 97.8481ZM86.4469 97.5492L86.3084 97.174C86.5671 97.0793 86.8367 96.9992 87.1136 96.9446L87.1937 97.3343C86.9424 97.3853 86.691 97.4581 86.4469 97.5492ZM89.4962 97.4144C89.2484 97.3452 88.9898 97.2978 88.7348 97.2687L88.7821 96.8752C89.0627 96.9043 89.3359 96.9591 89.6055 97.0284L89.4998 97.4144H89.4962ZM87.5726 97.2797L87.5252 96.8825C87.8021 96.8461 88.0863 96.8352 88.3595 96.8425L88.3486 97.2432C88.0972 97.2323 87.8313 97.2469 87.5726 97.2797Z" fill="#032E33"/>
<path d="M88.1924 106.06C87.9046 106.06 87.6277 106.031 87.3545 105.969L87.4383 105.579C87.6824 105.633 87.9338 105.662 88.1888 105.662L88.2179 105.928L88.1961 106.056L88.1924 106.06ZM88.6515 106.031L88.6041 105.637C88.8518 105.604 89.0959 105.55 89.3327 105.466L89.4639 105.837C89.2016 105.932 88.9284 105.998 88.6515 106.031ZM86.9501 105.859C86.6878 105.764 86.4328 105.648 86.1924 105.502L86.3964 105.163C86.6113 105.294 86.8408 105.4 87.0776 105.484L86.9465 105.863L86.9501 105.859ZM89.8574 105.674L89.6825 105.316C89.9047 105.207 90.1196 105.072 90.3164 104.916L90.5605 105.229C90.3419 105.404 90.1014 105.553 89.8537 105.674H89.8574ZM85.8499 105.262C85.6313 105.087 85.4273 104.894 85.2488 104.675L85.5548 104.42C85.7151 104.61 85.8973 104.784 86.0976 104.941L85.8499 105.258V105.262ZM90.8738 104.948L90.5933 104.668C90.7718 104.493 90.9321 104.296 91.0669 104.081L91.402 104.3C91.249 104.533 91.0742 104.755 90.8774 104.948H90.8738ZM84.9974 104.34C84.8444 104.107 84.7169 103.856 84.6185 103.597L84.9865 103.455C85.0775 103.688 85.1941 103.914 85.3326 104.118L84.9974 104.336V104.34ZM91.6061 103.936L91.2527 103.761C91.362 103.531 91.4494 103.295 91.5077 103.054L91.8939 103.149C91.8246 103.422 91.7299 103.684 91.6061 103.936ZM84.4946 103.193C84.4254 102.919 84.3853 102.642 84.3781 102.366L84.7752 102.354C84.7825 102.602 84.8189 102.85 84.8808 103.094L84.4946 103.193ZM91.9704 102.733L91.5769 102.683C91.5951 102.54 91.6061 102.391 91.6061 102.242C91.6061 102.14 91.6024 102.03 91.5915 101.932L91.9849 101.896C91.9959 102.012 92.0032 102.129 92.0032 102.242C92.0032 102.409 91.9922 102.569 91.9704 102.733ZM84.7788 101.976L84.3853 101.943C84.4072 101.662 84.4582 101.385 84.542 101.123L84.9209 101.24C84.848 101.476 84.8007 101.724 84.7824 101.976H84.7788ZM91.5332 101.56C91.4822 101.316 91.4057 101.076 91.3037 100.846L91.668 100.682C91.7809 100.941 91.8684 101.207 91.9267 101.477L91.5368 101.557L91.5332 101.56ZM85.052 100.886L84.6877 100.726C84.8007 100.471 84.9391 100.227 85.1067 99.9975L85.4273 100.231C85.2779 100.435 85.154 100.653 85.0557 100.883L85.052 100.886ZM91.1288 100.511C91.0049 100.3 90.8519 100.096 90.6807 99.9137L90.9685 99.6405C91.1616 99.8481 91.3292 100.07 91.4713 100.307L91.1252 100.511H91.1288ZM85.6641 99.9464L85.369 99.6805C85.5584 99.4728 85.7697 99.287 85.9993 99.1267L86.2288 99.451C86.0248 99.5967 85.8353 99.7606 85.6641 99.9464ZM90.4111 99.655C90.2217 99.4911 90.0104 99.3453 89.7918 99.2324L89.9776 98.8789C90.2253 99.0101 90.4548 99.1668 90.6698 99.3526L90.4111 99.655ZM86.5457 99.2505L86.3563 98.9045C86.6004 98.7697 86.859 98.6641 87.1286 98.584L87.2379 98.9627C86.9975 99.0319 86.7643 99.1303 86.5457 99.2505ZM89.4493 99.0684C89.2161 98.9773 88.9721 98.9118 88.7243 98.8681L88.7863 98.4783C89.0632 98.522 89.3364 98.5949 89.595 98.7005L89.4493 99.0684ZM87.6059 98.8754L87.5367 98.4819C87.8099 98.4382 88.0977 98.4199 88.3709 98.4308L88.3527 98.8281C88.1086 98.8171 87.85 98.8317 87.6059 98.8754Z" fill="#032E33"/>
<path d="M88.2101 104.468H88.1883C87.9041 104.468 87.6236 104.413 87.3613 104.308L87.5107 103.94C87.7256 104.027 87.9551 104.071 88.1883 104.071L88.2138 104.464L88.2101 104.468ZM88.6327 104.424L88.5562 104.038C88.7821 103.991 88.9934 103.903 89.1901 103.772L89.4087 104.107C89.1719 104.26 88.9133 104.369 88.6327 104.428V104.424ZM86.986 104.118C86.7529 103.965 86.5452 103.768 86.3776 103.542L86.7019 103.309C86.8403 103.499 87.0042 103.659 87.201 103.783L86.9824 104.122L86.986 104.118ZM89.7366 103.838L89.4561 103.553C89.6237 103.389 89.7585 103.2 89.8495 102.989L90.2139 103.149C90.0973 103.408 89.937 103.641 89.733 103.838H89.7366ZM86.1663 103.174C86.0498 102.919 85.9805 102.646 85.9659 102.362L86.3631 102.337C86.374 102.573 86.4286 102.799 86.527 103.011L86.1627 103.174H86.1663ZM90.3487 102.752L89.9625 102.661C89.9953 102.53 90.0098 102.388 90.0098 102.246C90.0098 102.154 90.0062 102.06 89.9916 101.972L90.3851 101.918C90.4033 102.027 90.4106 102.14 90.4106 102.253C90.4106 102.42 90.3924 102.592 90.3523 102.759L90.3487 102.752ZM86.3776 101.994L85.9842 101.94C86.0243 101.659 86.1153 101.389 86.2574 101.142L86.6035 101.346C86.4869 101.546 86.4104 101.765 86.3813 101.998L86.3776 101.994ZM89.9042 101.637C89.8277 101.419 89.7075 101.215 89.5545 101.043L89.8532 100.781C90.0426 100.996 90.1847 101.236 90.2794 101.502L89.9078 101.637H89.9042ZM86.8002 101.058L86.4978 100.799C86.6837 100.584 86.9022 100.409 87.1536 100.278L87.3358 100.632C87.1318 100.737 86.9496 100.883 86.7966 101.061L86.8002 101.058ZM89.3031 100.803C89.1173 100.661 88.9169 100.555 88.6874 100.486L88.8003 100.107C89.0736 100.183 89.3249 100.315 89.5508 100.486L89.3067 100.799L89.3031 100.803ZM87.66 100.5L87.5471 100.118C87.8167 100.038 88.0972 100.009 88.3814 100.03L88.3449 100.427C88.1191 100.406 87.8786 100.428 87.66 100.497V100.5Z" fill="#032E33"/>
<path d="M100.208 116.916H100.197C99.9309 116.916 99.6614 116.898 99.3954 116.869L99.4391 116.476C99.6905 116.501 99.9455 116.516 100.197 116.516L100.208 116.916ZM100.616 116.902L100.59 116.505C100.849 116.486 101.104 116.457 101.355 116.414L101.425 116.807C101.159 116.854 100.889 116.887 100.616 116.902ZM98.9947 116.811C98.7287 116.763 98.4591 116.701 98.2005 116.625L98.3134 116.242C98.5575 116.315 98.8089 116.373 99.0639 116.417L98.9947 116.807V116.811ZM101.818 116.727L101.727 116.341C101.975 116.282 102.219 116.206 102.463 116.122L102.601 116.494C102.346 116.588 102.084 116.668 101.822 116.73L101.818 116.727ZM97.8106 116.497C97.5593 116.406 97.3042 116.301 97.0638 116.177L97.246 115.82C97.4718 115.933 97.7086 116.035 97.9491 116.122L97.8106 116.494V116.497ZM102.977 116.341L102.816 115.976C103.049 115.874 103.279 115.758 103.501 115.634L103.702 115.976C103.468 116.111 103.224 116.235 102.977 116.341ZM96.7104 115.987C96.4736 115.849 96.2441 115.699 96.0328 115.543L96.2696 115.219C96.4736 115.372 96.6922 115.51 96.9108 115.641L96.714 115.984L96.7104 115.987ZM104.048 115.761L103.825 115.43C104.037 115.288 104.244 115.135 104.441 114.967L104.696 115.273C104.489 115.448 104.27 115.612 104.048 115.758V115.761ZM95.7086 115.284C95.5009 115.113 95.3005 114.927 95.1147 114.73L95.4025 114.457C95.5774 114.639 95.7669 114.814 95.9599 114.982L95.7049 115.284H95.7086ZM105.002 115.004L104.729 114.716C104.911 114.541 105.09 114.355 105.254 114.159L105.56 114.413C105.385 114.621 105.195 114.818 105.002 115.007V115.004ZM94.8451 114.424C94.6703 114.217 94.5063 114.002 94.3569 113.776L94.6885 113.557C94.8342 113.772 94.9872 113.976 95.1511 114.173L94.8488 114.428L94.8451 114.424ZM105.815 114.093L105.494 113.856C105.647 113.648 105.789 113.434 105.917 113.219L106.259 113.415C106.128 113.652 105.975 113.874 105.815 114.093ZM94.142 113.43C94.0035 113.193 93.8833 112.949 93.774 112.701L94.1384 112.545C94.2404 112.778 94.3533 113.007 94.4844 113.226L94.1384 113.43H94.142ZM106.456 113.055L106.099 112.876C106.212 112.647 106.314 112.41 106.401 112.169L106.773 112.308C106.682 112.556 106.572 112.807 106.452 113.051L106.456 113.055ZM93.6247 112.33C93.5299 112.078 93.4535 111.816 93.3879 111.55L93.774 111.459C93.8323 111.703 93.9052 111.951 93.9926 112.195L93.621 112.333L93.6247 112.33ZM106.904 111.918L106.521 111.809C106.594 111.565 106.653 111.313 106.7 111.062L107.09 111.131C107.042 111.397 106.98 111.663 106.904 111.922V111.918ZM93.3077 111.149C93.2604 110.887 93.2276 110.614 93.213 110.344L93.6101 110.326C93.621 110.577 93.6575 110.836 93.6975 111.084L93.3041 111.153L93.3077 111.149ZM107.152 110.727L106.755 110.679C106.784 110.428 106.802 110.169 106.802 109.914L107.199 109.881V109.914C107.199 110.18 107.181 110.457 107.152 110.727ZM93.1984 109.936V109.925C93.1984 109.659 93.213 109.39 93.2421 109.127L93.6356 109.175C93.6065 109.422 93.5919 109.674 93.5955 109.925L93.1984 109.94V109.936ZM106.78 109.503C106.762 109.247 106.733 108.996 106.693 108.741L107.082 108.672C107.13 108.942 107.163 109.207 107.181 109.477L106.784 109.503H106.78ZM93.6902 108.792L93.3004 108.727C93.3478 108.453 93.4061 108.191 93.4826 107.932L93.8615 108.049C93.7923 108.286 93.734 108.541 93.6866 108.792H93.6902ZM106.612 108.362C106.551 108.115 106.474 107.87 106.387 107.63L106.758 107.491C106.857 107.743 106.933 108.005 106.995 108.267L106.612 108.362ZM93.9853 107.681L93.6137 107.543C93.7085 107.291 93.8141 107.036 93.9343 106.792L94.2914 106.967C94.1784 107.196 94.0764 107.433 93.989 107.677L93.9853 107.681ZM106.245 107.277C106.143 107.043 106.022 106.81 105.895 106.592L106.237 106.391C106.376 106.624 106.496 106.868 106.609 107.113L106.245 107.273V107.277ZM94.4662 106.635L94.1201 106.435C94.2549 106.198 94.4043 105.972 94.5646 105.757L94.8816 105.994C94.7322 106.198 94.5901 106.413 94.4626 106.635H94.4662ZM105.694 106.267C105.552 106.056 105.399 105.848 105.232 105.655L105.538 105.397C105.713 105.601 105.877 105.823 106.026 106.045L105.694 106.267ZM95.1256 105.692L94.8196 105.433C94.9945 105.225 95.1766 105.025 95.377 104.843L95.6503 105.131C95.4681 105.306 95.2896 105.495 95.1256 105.692ZM104.977 105.368C104.802 105.185 104.612 105.007 104.416 104.847L104.671 104.541C104.882 104.715 105.079 104.898 105.265 105.094L104.977 105.368ZM95.9381 104.876L95.6794 104.573C95.8907 104.399 96.1056 104.234 96.3279 104.085L96.5501 104.417C96.3352 104.562 96.1312 104.715 95.9344 104.879L95.9381 104.876ZM104.113 104.606C103.909 104.453 103.691 104.311 103.476 104.187L103.672 103.845C103.906 103.976 104.135 104.125 104.354 104.289L104.117 104.61L104.113 104.606ZM96.8743 104.213L96.674 103.87C96.9071 103.735 97.1476 103.612 97.399 103.506L97.5593 103.87C97.3225 103.972 97.0929 104.089 96.8743 104.216V104.213ZM103.13 104.005C102.907 103.896 102.667 103.79 102.423 103.706L102.558 103.331C102.809 103.422 103.064 103.531 103.308 103.652L103.13 104.009V104.005ZM97.9163 103.725L97.7779 103.349C98.0292 103.258 98.2915 103.178 98.5539 103.116L98.6486 103.502C98.3972 103.561 98.1531 103.633 97.9127 103.725H97.9163ZM102.062 103.586C101.818 103.517 101.567 103.455 101.315 103.415L101.385 103.021C101.651 103.069 101.916 103.127 102.175 103.211L102.062 103.59V103.586ZM99.0238 103.422L98.9546 103.029C99.2205 102.981 99.4901 102.949 99.7597 102.934L99.7852 103.331C99.5302 103.349 99.2752 103.378 99.0238 103.422ZM100.936 103.36C100.692 103.335 100.445 103.32 100.193 103.32L100.168 102.919H100.19C100.456 102.919 100.718 102.938 100.98 102.967L100.933 103.36H100.936Z" fill="#032E33"/>
<path d="M100.196 115.324C99.9156 115.324 99.6351 115.302 99.3619 115.259L99.4238 114.865C99.6752 114.905 99.9375 114.923 100.196 114.923H100.251L100.258 115.321H100.193L100.196 115.324ZM100.677 115.302L100.644 114.901C100.899 114.876 101.154 114.836 101.406 114.774L101.5 115.16C101.227 115.226 100.95 115.273 100.673 115.299L100.677 115.302ZM98.9538 115.178C98.6843 115.117 98.4183 115.033 98.156 114.927L98.3054 114.556C98.5422 114.654 98.7935 114.734 99.0413 114.792L98.9502 115.175L98.9538 115.178ZM101.905 115.044L101.781 114.668C102.025 114.588 102.265 114.486 102.495 114.362L102.677 114.719C102.433 114.847 102.171 114.956 101.905 115.044ZM97.7771 114.752C97.5257 114.628 97.2889 114.483 97.0631 114.319L97.2926 113.994C97.5039 114.147 97.7261 114.279 97.9556 114.395L97.7771 114.752ZM103.038 114.512L102.827 114.173C103.041 114.038 103.256 113.885 103.453 113.714L103.712 114.016C103.5 114.198 103.275 114.366 103.038 114.508V114.512ZM96.7279 114.064C96.5166 113.889 96.3126 113.692 96.1304 113.477L96.4291 113.219C96.6004 113.408 96.7862 113.59 96.9865 113.761L96.7279 114.064ZM104.018 113.736L103.737 113.455C103.919 113.273 104.087 113.076 104.24 112.869L104.561 113.106C104.397 113.328 104.215 113.543 104.018 113.739V113.736ZM95.8681 113.153C95.7005 112.931 95.5511 112.694 95.42 112.45L95.7734 112.26C95.8936 112.486 96.032 112.708 96.1887 112.912L95.8717 113.153H95.8681ZM104.794 112.752L104.455 112.541C104.586 112.322 104.706 112.089 104.808 111.852L105.173 112.005C105.067 112.264 104.936 112.512 104.79 112.749L104.794 112.752ZM95.2378 112.067C95.1249 111.809 95.0302 111.546 94.9646 111.277L95.3508 111.178C95.4127 111.422 95.5001 111.67 95.6021 111.907L95.2378 112.067ZM105.326 111.616L104.947 111.492C105.027 111.247 105.093 110.996 105.133 110.738L105.526 110.803C105.479 111.076 105.413 111.35 105.322 111.616H105.326ZM94.8735 110.872C94.8262 110.599 94.7934 110.322 94.7897 110.042H95.1868C95.1941 110.293 95.216 110.552 95.2597 110.807L94.8699 110.876L94.8735 110.872ZM105.581 110.391L105.184 110.359C105.195 110.213 105.202 110.063 105.205 109.921C105.205 109.805 105.198 109.692 105.195 109.583L105.592 109.557C105.603 109.677 105.603 109.794 105.603 109.918C105.603 110.078 105.595 110.235 105.581 110.391ZM95.1978 109.645L94.8007 109.623C94.8152 109.346 94.8517 109.065 94.91 108.792L95.2998 108.872C95.2451 109.124 95.2123 109.382 95.1978 109.641V109.645ZM105.151 109.196C105.111 108.945 105.056 108.686 104.98 108.439L105.359 108.322C105.442 108.592 105.504 108.865 105.544 109.142L105.151 109.2V109.196ZM95.3909 108.501L95.012 108.391C95.0885 108.118 95.1941 107.86 95.3107 107.608L95.6677 107.783C95.5584 108.013 95.4637 108.257 95.3909 108.504V108.501ZM104.852 108.074C104.757 107.838 104.644 107.601 104.51 107.382L104.852 107.174C104.998 107.419 105.118 107.67 105.216 107.929L104.848 108.074H104.852ZM95.8499 107.437L95.5038 107.237C95.6422 106.996 95.7989 106.763 95.9774 106.544L96.2871 106.792C96.1268 106.996 95.9774 107.211 95.8499 107.433V107.437ZM104.302 107.054C104.156 106.843 103.989 106.639 103.81 106.457L104.098 106.184C104.291 106.384 104.47 106.603 104.626 106.828L104.298 107.058L104.302 107.054ZM96.5384 106.497L96.247 106.224C96.4364 106.02 96.6477 105.834 96.8627 105.659L97.1104 105.976C96.9064 106.132 96.717 106.307 96.5421 106.497H96.5384ZM103.53 106.187C103.333 106.016 103.129 105.856 102.914 105.717L103.129 105.378C103.358 105.532 103.584 105.703 103.792 105.885L103.526 106.184L103.53 106.187ZM97.4237 105.746L97.2015 105.415C97.431 105.262 97.6824 105.123 97.9301 105.007L98.0977 105.364C97.8682 105.473 97.6387 105.597 97.4237 105.743V105.746ZM102.582 105.517C102.353 105.393 102.116 105.287 101.876 105.2L102.01 104.825C102.273 104.919 102.531 105.036 102.776 105.167L102.586 105.517H102.582ZM98.4584 105.222L98.3199 104.85C98.5786 104.755 98.8519 104.679 99.1251 104.621L99.2052 105.01C98.9538 105.065 98.7025 105.134 98.4584 105.222ZM101.504 105.083C101.256 105.014 100.998 104.97 100.739 104.941L100.786 104.544C101.063 104.577 101.336 104.632 101.606 104.701L101.504 105.083ZM99.5841 104.949L99.5367 104.555C99.81 104.522 100.094 104.508 100.371 104.515L100.36 104.916C100.109 104.905 99.8464 104.916 99.5878 104.949H99.5841Z" fill="#032E33"/>
<path d="M100.204 113.729C99.9161 113.729 99.6355 113.699 99.366 113.641L99.4534 113.251C99.6975 113.306 99.9452 113.335 100.2 113.335L100.229 113.605L100.208 113.729H100.204ZM100.663 113.703L100.612 113.31C100.863 113.277 101.107 113.222 101.341 113.135L101.475 113.51C101.213 113.601 100.94 113.667 100.663 113.703ZM98.9616 113.528C98.6993 113.437 98.4442 113.317 98.2038 113.171L98.4115 112.832C98.6264 112.964 98.8559 113.069 99.0891 113.153L98.9579 113.532L98.9616 113.528ZM101.862 113.35L101.687 112.993C101.909 112.883 102.124 112.749 102.321 112.592L102.568 112.905C102.346 113.08 102.109 113.229 101.862 113.353V113.35ZM97.8577 112.931C97.6391 112.76 97.4351 112.566 97.2566 112.348L97.5626 112.093C97.7229 112.289 97.905 112.461 98.1018 112.617L97.8577 112.931ZM102.882 112.625L102.601 112.337C102.78 112.158 102.94 111.965 103.075 111.75L103.406 111.965C103.257 112.202 103.082 112.421 102.882 112.621V112.625ZM97.0088 112.009C96.8558 111.776 96.7283 111.524 96.6299 111.266L97.0016 111.124C97.089 111.361 97.2056 111.583 97.344 111.79L97.0125 112.009H97.0088ZM103.614 111.605L103.26 111.43C103.37 111.204 103.457 110.967 103.516 110.723L103.902 110.818C103.836 111.087 103.738 111.353 103.614 111.601V111.605ZM96.5024 110.865C96.4332 110.592 96.3932 110.311 96.3859 110.034L96.7866 110.024C96.7975 110.275 96.8303 110.523 96.8886 110.767L96.5024 110.865ZM103.978 110.402L103.585 110.355C103.603 110.209 103.61 110.064 103.61 109.918C103.61 109.812 103.607 109.707 103.599 109.605L103.996 109.572C104.007 109.688 104.015 109.801 104.015 109.921C104.015 110.085 104.004 110.249 103.982 110.406L103.978 110.402ZM96.7866 109.648L96.3932 109.623C96.415 109.339 96.466 109.065 96.5534 108.796L96.9323 108.912C96.8595 109.149 96.8121 109.397 96.7939 109.648H96.7866ZM103.541 109.233C103.49 108.989 103.413 108.748 103.311 108.519L103.676 108.358C103.789 108.61 103.88 108.88 103.934 109.153L103.545 109.233H103.541ZM97.0635 108.559L96.6992 108.402C96.8121 108.147 96.9506 107.903 97.1181 107.674L97.4387 107.907C97.2894 108.111 97.1655 108.329 97.0671 108.555L97.0635 108.559ZM103.137 108.184C103.013 107.969 102.86 107.772 102.685 107.586L102.976 107.317C103.169 107.521 103.341 107.747 103.479 107.983L103.133 108.184H103.137ZM97.6719 107.615L97.3768 107.349C97.5662 107.142 97.7776 106.96 98.0071 106.799L98.2366 107.124C98.0326 107.269 97.8431 107.433 97.6719 107.619V107.615ZM102.419 107.331C102.226 107.164 102.018 107.021 101.796 106.901L101.985 106.552C102.229 106.683 102.463 106.843 102.674 107.025L102.415 107.328L102.419 107.331ZM98.5535 106.923L98.3604 106.577C98.6045 106.439 98.8668 106.333 99.1364 106.253L99.2457 106.635C99.0053 106.705 98.7721 106.799 98.5535 106.923ZM101.457 106.745C101.228 106.65 100.984 106.584 100.736 106.544L100.798 106.151C101.075 106.191 101.348 106.267 101.606 106.373L101.457 106.745ZM99.6137 106.548L99.5445 106.158C99.8177 106.111 100.106 106.092 100.379 106.103L100.361 106.504C100.116 106.493 99.8541 106.508 99.61 106.548H99.6137Z" fill="#032E33"/>
<path d="M100.222 112.136H100.196C99.9155 112.136 99.635 112.082 99.3727 111.98L99.5184 111.612C99.7334 111.699 99.9629 111.743 100.196 111.743L100.222 112.14V112.136ZM100.641 112.096L100.56 111.707C100.786 111.659 101.001 111.572 101.194 111.444L101.413 111.776C101.176 111.936 100.917 112.042 100.637 112.1L100.641 112.096ZM98.9975 111.79C98.7607 111.637 98.5567 111.444 98.3891 111.211L98.7097 110.978C98.8481 111.167 99.0157 111.327 99.2088 111.455L98.9938 111.79H98.9975ZM101.744 111.506L101.468 111.222C101.631 111.062 101.766 110.872 101.861 110.661L102.225 110.821C102.109 111.08 101.945 111.313 101.744 111.506ZM98.1741 110.843C98.0575 110.584 97.9883 110.315 97.9738 110.027L98.3709 110.009C98.3818 110.242 98.4401 110.464 98.5384 110.679L98.1741 110.847V110.843ZM102.36 110.424L101.974 110.329C102.007 110.198 102.021 110.056 102.021 109.918C102.021 109.823 102.014 109.732 102.003 109.644L102.397 109.583C102.415 109.692 102.418 109.805 102.422 109.918C102.422 110.089 102.404 110.257 102.364 110.424H102.36ZM98.3891 109.663L97.9956 109.608C98.0357 109.331 98.1268 109.058 98.2688 108.817L98.615 109.014C98.4984 109.218 98.4219 109.437 98.3927 109.663H98.3891ZM101.916 109.309C101.839 109.087 101.719 108.89 101.566 108.712L101.865 108.453C102.054 108.668 102.196 108.909 102.291 109.174L101.916 109.309ZM98.8117 108.734L98.5093 108.475C98.6988 108.256 98.9137 108.085 99.1651 107.954L99.3472 108.304C99.1396 108.413 98.961 108.555 98.808 108.734H98.8117ZM101.311 108.475C101.125 108.333 100.917 108.227 100.695 108.162L100.804 107.783C101.078 107.859 101.329 107.99 101.551 108.162L101.307 108.479L101.311 108.475ZM99.6715 108.169L99.5585 107.79C99.8281 107.71 100.109 107.684 100.393 107.71L100.356 108.103C100.13 108.085 99.8937 108.107 99.6715 108.173V108.169Z" fill="#032E33"/>
</g>
<path d="M118.161 177.841C117.703 177.841 117.324 177.451 117.307 176.963C116.995 166.995 111.991 153.871 110.35 149.557C109.93 148.453 109.738 147.794 109.783 147.578C109.878 147.089 110.333 146.768 110.795 146.874C111.143 146.953 111.4 147.25 111.461 147.602C111.519 147.776 111.721 148.313 111.936 148.874C113.608 153.263 118.698 166.612 119.016 176.901C119.033 177.404 118.66 177.824 118.189 177.841H118.158H118.161Z" fill="#FF9800"/>
<path d="M115.027 175.769C115.006 175.769 114.986 175.769 114.969 175.769C114.5 175.735 114.141 175.301 114.172 174.799C114.175 174.717 114.681 166.396 112.316 159.002C112.165 158.527 112.401 158.011 112.849 157.847C113.297 157.683 113.782 157.939 113.933 158.414C116.415 166.164 115.902 174.573 115.878 174.925C115.847 175.404 115.471 175.773 115.027 175.773V175.769Z" fill="#FF9800"/>
<path d="M65.634 136.041C60.9631 143 53.5493 169.585 53.5493 169.585C53.5493 169.585 66.3107 175.044 71.0507 178.517C75.7907 181.99 82.0295 187.258 88.4211 186.756C94.8163 186.253 98.767 177.386 104.42 174.152C110.073 170.918 122.511 173.547 122.511 173.547C122.511 173.547 120.059 150.305 113.438 143.623C106.817 136.94 101.957 133.802 101.957 133.802C101.957 133.802 95.5839 139.425 84.3213 137.808C73.0588 136.191 68.2605 134.506 68.2605 134.506C68.2605 134.506 66.8527 134.219 65.634 136.041Z" fill="#C57D3D"/>
<path d="M121.404 179.311C120.917 179.311 120.513 178.928 120.495 178.435C120.095 168.297 116.635 153.707 109.818 143.971C109.531 143.561 109.629 142.994 110.04 142.703C110.451 142.412 111.019 142.515 111.306 142.925C118.338 152.965 121.903 167.958 122.314 178.36C122.332 178.863 121.943 179.287 121.441 179.304H121.401L121.404 179.311Z" fill="#DB307A"/>
<path d="M109.619 178.483C109.121 178.483 108.713 178.08 108.709 177.584C108.619 169.025 107.476 147.909 98.8838 136.728C98.5782 136.331 98.6546 135.757 99.0511 135.453C99.4477 135.148 100.019 135.224 100.328 135.62C109.255 147.236 110.434 168.823 110.528 177.564C110.532 178.066 110.132 178.48 109.626 178.483H109.615H109.619Z" fill="#DB307A"/>
<path d="M104.413 183.522C104.038 183.522 103.686 183.289 103.555 182.913C103.482 182.712 103.482 182.654 103.449 180.856C103.082 160.051 100.855 145.78 96.8393 138.427C96.5992 137.986 96.7592 137.432 97.203 137.189C97.6432 136.947 98.1962 137.111 98.4399 137.552C102.598 145.161 104.897 159.72 105.272 180.818C105.286 181.591 105.297 182.261 105.312 182.442C105.392 182.876 105.148 183.317 104.719 183.467C104.617 183.505 104.515 183.519 104.417 183.519L104.413 183.522Z" fill="#DB307A"/>
<path d="M99.6114 188.496C99.5714 188.496 99.5278 188.496 99.4878 188.486C98.9894 188.417 98.6402 187.956 98.7129 187.46C101.459 167.623 97.1159 144.833 92.9179 137.859C92.6596 137.429 92.7979 136.871 93.2271 136.608C93.6564 136.345 94.2166 136.489 94.4749 136.919C98.8075 144.122 103.315 167.487 100.514 187.71C100.452 188.164 100.063 188.492 99.6151 188.492L99.6114 188.496Z" fill="#DB307A"/>
<path d="M93.6924 194.263C93.6524 194.263 93.6123 194.263 93.576 194.256C93.0776 194.191 92.7247 193.733 92.7902 193.237C95.6022 171.623 93.2195 144.436 89.3198 139.141C89.0215 138.738 89.1087 138.167 89.5125 137.869C89.9163 137.572 90.4875 137.657 90.7858 138.061C93.8997 142.289 95.0493 154.452 95.4567 161.323C96.1079 172.313 95.7877 184.332 94.5982 193.47C94.5363 193.928 94.1471 194.263 93.696 194.263H93.6924Z" fill="#DB307A"/>
<path d="M118.557 175.195C118.091 175.195 117.695 174.843 117.651 174.371C115.716 154.134 111.045 142.744 102.038 136.294C101.63 136 101.536 135.432 101.827 135.026C102.121 134.619 102.689 134.523 103.096 134.817C112.576 141.606 117.473 153.386 119.463 174.2C119.51 174.699 119.142 175.144 118.644 175.192C118.615 175.192 118.586 175.195 118.557 175.195Z" fill="#DB307A"/>
<path d="M76.6387 195.165C76.5696 195.165 76.4968 195.158 76.4277 195.141C75.9402 195.025 75.6383 194.532 75.7547 194.044C77.8719 185.19 77.6318 172.833 77.4172 161.928C77.2426 153.047 77.0789 144.662 78.2429 139.596C78.3557 139.107 78.8432 138.799 79.3306 138.912C79.8217 139.025 80.1273 139.514 80.0145 140.002C78.905 144.85 79.0651 153.129 79.2361 161.894C79.4507 172.908 79.6944 185.392 77.5227 194.468C77.4208 194.885 77.0498 195.165 76.6387 195.165Z" fill="#DB307A"/>
<path d="M74.2737 190.01C73.8226 190.01 73.4261 189.675 73.3715 189.213C73.3606 189.131 72.382 181.091 72.1892 171.284C71.9309 158.051 73.1423 148.063 75.7943 141.595C75.9834 141.131 76.5145 140.908 76.9838 141.1C77.4494 141.291 77.6713 141.824 77.4822 142.286C71.3598 157.211 75.1395 188.677 75.1795 188.991C75.2413 189.49 74.8848 189.945 74.3901 190.006C74.3501 190.01 74.3173 190.013 74.2773 190.013H74.2737V190.01Z" fill="#DB307A"/>
<path d="M63.3502 181.064H63.332C62.83 181.054 62.4298 180.637 62.4407 180.134C62.4662 179.024 63.1246 152.753 70.9531 137.579C71.1823 137.131 71.7316 136.957 72.1791 137.189C72.6265 137.418 72.8011 137.969 72.5719 138.413C64.9362 153.218 64.2705 179.909 64.2632 180.176C64.2523 180.671 63.8485 181.064 63.3538 181.064H63.3502Z" fill="#DB307A"/>
<path d="M59.2533 179.311C58.7659 179.311 58.3621 178.924 58.3439 178.435C58.3111 177.482 57.6163 154.9 67.4056 139.797C67.6784 139.373 68.2423 139.254 68.6643 139.527C69.0862 139.801 69.2063 140.365 68.9335 140.785C59.4607 155.402 60.1555 178.141 60.1628 178.367C60.181 178.869 59.7881 179.29 59.2861 179.311H59.2533Z" fill="#DB307A"/>
<path d="M54.4003 178.483C53.9238 178.483 53.5236 178.114 53.4945 177.632C52.6651 164.694 57.2123 145.872 67.5109 134.93C67.8565 134.564 68.4312 134.547 68.7987 134.892C69.1624 135.237 69.1843 135.812 68.8387 136.177C59.0058 146.624 54.5313 165.271 55.317 177.512C55.3498 178.015 54.9678 178.446 54.4658 178.48H54.404L54.4003 178.483Z" fill="#DB307A"/>
<path d="M70.6326 186.975C70.1742 186.975 69.7777 186.626 69.7268 186.158C69.6249 185.194 67.304 162.451 70.8836 149.482C71.0182 149 71.5166 148.716 72.004 148.846C72.4915 148.979 72.7752 149.482 72.637 149.964C69.1484 162.602 71.5129 185.734 71.5348 185.963C71.5893 186.462 71.2256 186.91 70.7235 186.961C70.6908 186.961 70.6581 186.964 70.629 186.964L70.6326 186.975Z" fill="#DB307A"/>
<path d="M84.1945 191.374C84.1254 191.374 84.0562 191.367 83.9871 191.35C83.496 191.237 83.1904 190.749 83.3068 190.26C87.4248 172.522 85.4895 150.319 83.3068 140.488C83.1977 139.999 83.5069 139.51 83.998 139.404C84.4855 139.295 84.973 139.606 85.0857 140.095C87.3048 150.08 89.2655 172.641 85.0857 190.67C84.9875 191.091 84.6128 191.374 84.2018 191.374H84.1981H84.1945Z" fill="#DB307A"/>
<path d="M95.5986 190.01C95.5768 190.01 95.5513 190.01 95.5295 190.01C95.0275 189.973 94.6528 189.535 94.6892 189.033C95.6459 176.327 96.8355 160.513 93.6961 147.766C93.576 147.277 93.8743 146.785 94.3618 146.665C94.8492 146.542 95.344 146.843 95.464 147.332C98.6726 160.363 97.4684 176.337 96.5044 189.169C96.4681 189.648 96.0679 190.014 95.5986 190.014V190.01Z" fill="#DB307A"/>
<path d="M88.6868 197.442C88.6104 197.442 88.5304 197.432 88.4504 197.411C87.9629 197.281 87.6755 196.782 87.8065 196.297C88.4686 193.815 91.6625 167.531 89.9055 150.668C89.8509 150.169 90.2147 149.721 90.7167 149.67C91.2151 149.622 91.6625 149.981 91.7171 150.48C93.5906 168.409 90.1019 194.751 89.5672 196.765C89.458 197.172 89.0906 197.442 88.6868 197.442Z" fill="#DB307A"/>
<path d="M79.3378 189.402C79.2505 189.402 79.1559 189.388 79.0686 189.361C78.5884 189.21 78.3192 188.704 78.4684 188.222C82.8374 174.105 81.7388 159.816 80.6729 145.995L80.6474 145.643C80.6074 145.141 80.9857 144.706 81.4841 144.665C81.9898 144.614 82.4226 145 82.4627 145.503L82.4881 145.855C83.5649 159.843 84.6781 174.31 80.2073 188.759C80.0872 189.149 79.7271 189.402 79.3378 189.402Z" fill="#DB307A"/>
<path d="M114.69 175.776C114.224 175.776 113.828 175.421 113.784 174.945C112.802 164.051 110.55 149.577 105.396 142.467C105.101 142.06 105.192 141.49 105.599 141.196C106.007 140.902 106.574 140.99 106.872 141.401C112.271 148.846 114.599 163.665 115.6 174.781C115.647 175.284 115.276 175.725 114.774 175.769C114.745 175.769 114.719 175.773 114.694 175.773L114.69 175.776Z" fill="#DB307A"/>
<path d="M105.428 181.939C105.388 181.939 105.344 181.939 105.304 181.932C104.638 181.864 104.151 181.269 104.224 180.603C105.115 171.981 103.151 149.109 98.1122 140.481C97.7739 139.903 97.9703 139.158 98.5487 138.823C99.1271 138.488 99.8729 138.68 100.208 139.261C105.566 148.442 107.581 171.732 106.636 180.855C106.57 181.478 106.043 181.946 105.431 181.946L105.428 181.939Z" fill="#FF9800"/>
<path d="M55.6632 178.552C55.1757 178.552 54.7719 178.165 54.7538 177.673C54.7428 177.297 54.7247 176.901 54.7065 176.484C54.4591 170.218 54.048 159.733 59.9558 149.731C60.2104 149.301 60.767 149.157 61.1999 149.41C61.6328 149.666 61.7783 150.224 61.52 150.658C55.8851 160.202 56.2816 170.351 56.5217 176.415C56.5399 176.832 56.5545 177.232 56.569 177.612C56.5872 178.114 56.1943 178.535 55.6923 178.552H55.6596H55.6632Z" fill="#FF9800"/>
<path d="M74.8521 189.473C74.401 189.473 74.0081 189.138 73.9499 188.677C72.3711 176.241 73.6443 153.912 75.7543 145.031C75.8707 144.542 76.3618 144.238 76.8492 144.354C77.3367 144.47 77.6386 144.959 77.5259 145.451C75.4523 154.189 74.2009 176.186 75.7579 188.448C75.8197 188.947 75.4669 189.402 74.9685 189.463C74.9285 189.466 74.8921 189.47 74.8521 189.47V189.473Z" fill="#FF9800"/>
<path d="M76.6389 188.561H76.5952C76.0932 188.537 75.704 188.11 75.7258 187.61C75.7367 187.381 76.7953 164.417 76.4388 153.457C76.4206 152.955 76.8171 152.534 77.3191 152.517C77.8102 152.48 78.2431 152.893 78.2577 153.396C78.6142 164.427 77.5556 187.46 77.5447 187.689C77.5229 188.178 77.1191 188.557 76.6352 188.557L76.6389 188.561Z" fill="#FF9800"/>
<path d="M86.515 195.233C86.4568 195.233 86.3986 195.23 86.3404 195.216C85.8493 195.121 85.5255 194.642 85.6201 194.15C89.0578 176.425 87.901 146.378 85.7947 141.343C85.6019 140.881 85.8202 140.348 86.2858 140.153C86.7515 139.962 87.2826 140.18 87.4754 140.642C89.9382 146.539 90.7712 177.15 87.4063 194.495C87.3226 194.929 86.9406 195.23 86.515 195.23V195.233Z" fill="#FF9800"/>
<path d="M101.026 181.638H100.968C100.466 181.608 100.084 181.177 100.113 180.674C100.575 173.195 100.757 158.947 96.7736 147.567C96.6063 147.092 96.8573 146.573 97.3302 146.409C97.8031 146.245 98.3233 146.494 98.4907 146.966C102.58 158.646 102.398 173.168 101.928 180.787C101.899 181.269 101.499 181.642 101.023 181.642L101.026 181.638Z" fill="#FF9800"/>
<path d="M87.3231 197.51C87.2904 197.51 87.2613 197.51 87.2322 197.507C86.7338 197.455 86.3664 197.011 86.4173 196.512C86.4282 196.382 86.4864 196.023 86.5701 195.462C90.0478 172.334 90.0078 152.251 86.4464 138.905C86.3154 138.42 86.6065 137.921 87.0903 137.791C87.5778 137.661 88.0725 137.948 88.2035 138.434C91.8267 152.011 91.8849 172.361 88.3708 195.729C88.2944 196.242 88.2435 196.57 88.2326 196.69C88.1853 197.158 87.7888 197.51 87.3268 197.51H87.3231Z" fill="#FF9800"/>
<path d="M83.0739 195.233C82.9902 195.233 82.9029 195.223 82.8192 195.196C82.3354 195.056 82.0589 194.55 82.1971 194.068C85.5839 182.442 84.6054 151.587 82.1717 137.61C82.0844 137.114 82.4154 136.642 82.9138 136.557C83.4049 136.468 83.8814 136.803 83.9687 137.299C86.4206 151.382 87.5119 182.326 83.9469 194.577C83.8305 194.974 83.4667 195.233 83.0739 195.233Z" fill="#FF9800"/>
<path d="M90.8118 195.538C90.6663 195.538 90.5208 195.51 90.3789 195.456C89.7532 195.216 89.4404 194.512 89.6805 193.89C92.3033 187.043 92.758 154.257 87.5414 139.062C87.3268 138.43 87.6615 137.74 88.2981 137.521C88.9311 137.302 89.6223 137.641 89.8405 138.276C95.3117 154.216 94.737 187.477 91.9504 194.758C91.7649 195.24 91.3065 195.538 90.8191 195.538H90.8118Z" fill="#FF9800"/>
<path d="M78.0679 194.331C77.9952 194.331 77.9188 194.321 77.8424 194.304C77.3549 194.181 77.0603 193.685 77.184 193.196C80.3561 180.736 79.7995 165.189 79.3557 152.699C79.1665 147.472 78.9919 142.532 79.1302 138.635C79.1484 138.133 79.5813 137.733 80.0724 137.76C80.5744 137.777 80.9672 138.198 80.9491 138.704C80.8145 142.536 80.9891 147.444 81.1746 152.637C81.6257 165.244 82.1823 180.931 78.9483 193.647C78.8428 194.058 78.4717 194.331 78.0643 194.331H78.0679Z" fill="#FF9800"/>
<path d="M123.526 180.813H123.479C122.977 180.786 122.591 180.358 122.617 179.856C123.413 164.401 114.308 140.561 102.547 134.76C102.096 134.538 101.91 133.991 102.132 133.543C102.354 133.092 102.903 132.908 103.351 133.13C113.729 138.244 125.447 160.272 124.432 179.948C124.406 180.433 124.003 180.813 123.522 180.813H123.526Z" fill="#FF9800"/>
<path d="M75.9399 192C75.4597 192 75.0559 191.624 75.0305 191.135C74.9504 189.586 73.1097 153.013 78.2463 134.27C78.3772 133.785 78.8793 133.497 79.3631 133.634C79.8506 133.768 80.1343 134.267 79.9997 134.752C74.9395 153.215 76.8275 190.663 76.8457 191.043C76.8712 191.545 76.4856 191.972 75.9836 192H75.9363H75.9399Z" fill="#FF9800"/>
<path d="M65.3248 181.386C65.2957 181.386 65.2666 181.386 65.2375 181.386C64.5682 181.338 64.0625 180.76 64.1135 180.09C64.219 178.569 66.7945 142.772 73.3171 134.39C73.7281 133.86 74.4921 133.768 75.0195 134.178C75.547 134.588 75.6452 135.354 75.2342 135.88C69.1591 143.688 66.5617 179.895 66.5362 180.261C66.4889 180.9 65.9578 181.389 65.3285 181.389L65.3248 181.386Z" fill="#FF9800"/>
<path d="M102.125 181.991C102.099 181.991 102.07 181.991 102.045 181.987C101.546 181.943 101.175 181.502 101.219 180.999C102.732 164.003 100.361 149.554 93.7579 135.518C93.5433 135.063 93.7397 134.523 94.1945 134.308C94.6492 134.092 95.1912 134.291 95.4059 134.745C102.154 149.082 104.577 163.832 103.034 181.163C102.994 181.635 102.594 181.994 102.128 181.994L102.125 181.991Z" fill="#FF9800"/>
<path d="M73.666 191.001C73.255 191.001 72.8839 190.725 72.7821 190.308C70.1519 179.516 68.6423 155.789 75.7942 138.061C75.9833 137.596 76.5108 137.37 76.9801 137.559C77.4457 137.747 77.6712 138.276 77.4821 138.741C70.4903 156.069 71.9745 179.3 74.55 189.873C74.6664 190.362 74.3681 190.854 73.8807 190.974C73.8079 190.991 73.7352 191.001 73.666 191.001Z" fill="#FF9800"/>
<path d="M110.564 178.268C110.539 178.268 110.51 178.268 110.484 178.265C109.986 178.22 109.615 177.776 109.658 177.277C110.379 169.291 109.502 153.796 105.33 145.882C105.097 145.438 105.268 144.887 105.708 144.652C106.152 144.416 106.705 144.587 106.937 145.035C111.281 153.273 112.209 169.243 111.466 177.441C111.423 177.912 111.026 178.271 110.561 178.271L110.564 178.268Z" fill="#333481"/>
<path d="M52.2762 176.832C51.7815 176.832 51.374 176.436 51.3668 175.937C51.0576 157.078 63.306 136.02 68.6026 131.19C68.9736 130.852 69.5484 130.879 69.8904 131.248C70.2323 131.617 70.2032 132.195 69.8322 132.533C64.8702 137.063 52.8946 157.874 53.1893 175.909C53.1966 176.412 52.7964 176.826 52.2944 176.832H52.2762Z" fill="#333481"/>
<path d="M61.8327 181.385C61.3016 181.385 60.8142 181.037 60.665 180.5C58.3768 172.327 63.477 143.455 71.6293 132.434C72.0294 131.894 72.7897 131.781 73.3281 132.181C73.8665 132.578 73.9793 133.34 73.5828 133.877C65.4705 144.846 61.087 173 63.0041 179.844C63.186 180.486 62.8077 181.16 62.1638 181.341C62.0546 181.372 61.9455 181.385 61.8364 181.385H61.8327Z" fill="#333481"/>
<path d="M107.647 180.323H107.625C106.955 180.312 106.421 179.758 106.432 179.088C106.643 166.663 103.03 144.207 96.6678 135.866C96.2604 135.333 96.3659 134.571 96.897 134.168C97.4317 133.761 98.192 133.863 98.5958 134.397C105.54 143.496 109.073 166.625 108.854 179.13C108.843 179.793 108.301 180.323 107.639 180.323H107.643H107.647Z" fill="#333481"/>
<path d="M112.606 177.745H112.558C111.889 177.718 111.369 177.154 111.394 176.484C111.871 164.55 110.889 150.312 99.9934 135.224C99.6006 134.68 99.7242 133.921 100.266 133.528C100.808 133.139 101.569 133.258 101.961 133.802C113.29 149.492 114.312 164.229 113.821 176.576C113.795 177.229 113.257 177.742 112.609 177.742L112.606 177.745Z" fill="#333481"/>
<path d="M96.5772 192.304C96.4681 192.304 96.3553 192.286 96.2426 192.256C95.5987 192.071 95.224 191.398 95.4095 190.755C97.614 183.04 99.1564 150.353 89.7891 135.784C89.4254 135.22 89.5891 134.468 90.1529 134.109C90.7168 133.747 91.4698 133.911 91.8299 134.471C101.743 149.885 100.095 183.19 97.7413 191.422C97.5885 191.955 97.1047 192.304 96.5736 192.304H96.5772Z" fill="#333481"/>
<path d="M80.7961 193.521C80.6942 193.521 80.585 193.507 80.4832 193.48C79.8357 193.309 79.4501 192.642 79.621 191.996C84.4957 173.694 82.0438 150.979 80.4177 135.945L80.345 135.258C80.2722 134.591 80.756 133.993 81.4217 133.921C82.0838 133.853 82.6877 134.331 82.7568 134.998L82.8296 135.685C84.4702 150.894 86.9548 173.879 81.9638 192.618C81.8183 193.162 81.3308 193.521 80.7924 193.521H80.7961Z" fill="#333481"/>
<path d="M57.5834 178.572C56.9359 178.572 56.3939 178.056 56.372 177.403C55.7245 159.426 60.581 143.852 70.814 131.105C71.2324 130.582 71.9963 130.496 72.5202 130.917C73.0404 131.334 73.1277 132.099 72.7093 132.622C62.8546 144.901 58.1727 159.939 58.7984 177.318C58.8239 177.988 58.3001 178.548 57.6307 178.572H57.5834Z" fill="#333481"/>
<path d="M68.4242 182.295C67.824 182.295 67.3074 181.854 67.2238 181.245C65.9506 171.869 69.5483 142.795 76.3837 133.781C76.7911 133.248 77.5514 133.142 78.0825 133.545C78.6137 133.949 78.7228 134.711 78.3154 135.244C72.0256 143.537 68.3879 171.794 69.6247 180.917C69.712 181.58 69.25 182.192 68.5843 182.281C68.5297 182.288 68.4752 182.291 68.417 182.291L68.4242 182.295Z" fill="#333481"/>
<path d="M116.457 174.467C115.985 174.467 115.584 174.101 115.552 173.622C113.827 149.321 108.767 143.732 102.907 137.258C101.899 136.147 100.859 134.995 99.8183 133.73C99.4981 133.34 99.5564 132.766 99.942 132.448C100.328 132.13 100.902 132.185 101.222 132.574C102.234 133.808 103.26 134.94 104.253 136.037C110.088 142.477 115.595 148.566 117.363 173.493C117.4 173.995 117.021 174.429 116.519 174.463C116.498 174.463 116.476 174.463 116.454 174.463L116.457 174.467Z" fill="#333481"/>
<path d="M85.1985 195.51C85.1512 195.51 85.1039 195.507 85.053 195.5C84.5582 195.421 84.2199 194.953 84.2963 194.457C86.4644 180.907 88.9054 153.727 84.3218 137.808C84.1835 137.326 84.46 136.82 84.9438 136.683C85.4276 136.543 85.9333 136.823 86.0715 137.305C90.7461 153.529 88.2869 181.044 86.097 194.741C86.0242 195.189 85.6386 195.507 85.1985 195.507V195.51Z" fill="#333481"/>
<path d="M107.122 136.361C104.239 137.239 94.0016 140.088 81.6692 138.97C69.3405 137.859 65.5217 134.796 65.5217 134.796C65.5217 134.796 65.5292 134.554 65.8487 134.068C65.9426 133.925 66.0667 133.75 66.2246 133.566C66.3636 133.402 66.5328 133.22 66.732 133.019C66.8447 132.909 66.9613 132.797 67.0966 132.68C67.183 132.595 67.1367 132.046 67.1875 131.925C67.2312 131.475 67.2321 130.106 67.2321 129.98C67.3102 129.661 67.279 129.05 67.371 128.522C67.371 128.522 75.9247 131.604 85.9943 133.019C96.0818 133.89 106.762 129.034 106.762 129.034L106.861 130.19L106.906 131.718L107.122 136.361Z" fill="#333481"/>
<path d="M106.906 131.878C100.866 136.349 92.7419 138.632 86.4494 138.632C77.1819 138.632 68.9937 135.467 65.8419 134.068C65.9359 133.925 66.06 133.75 66.218 133.566C71.5702 135.914 92.327 142.072 106.883 131.421L106.906 131.878Z" fill="#FF9800"/>
<path d="M106.861 131.079C102.063 134.525 94.0335 137.199 87.0674 137.199C85.3542 137.199 83.5807 137.09 81.7431 136.881C75.485 136.164 69.7578 134.28 66.7003 133.019C66.8132 132.909 66.9299 132.796 67.0655 132.68C70.1305 133.925 75.7109 135.736 81.8034 136.43C90.9345 137.48 100.994 134.611 106.861 130.438V131.079Z" fill="#FF9800"/>
<path d="M104.049 131.473C98.1698 134.988 91.8316 136.348 85.9471 136.348C78.12 136.348 70.9244 134.157 67.1445 132.471C67.1445 132.471 67.168 131.952 67.1914 131.768C73.2151 134.407 87.5547 138.639 99.8996 133.06C105.386 130.583 105.39 130.58 99.9109 133.053C100.581 132.749 101.255 132.417 101.921 132.051C102.482 131.747 106.267 130.004 106.812 129.655L106.844 130.065L104.049 131.473Z" fill="#FF9800"/>
<path d="M101.996 132.475C101.323 132.68 100.659 132.875 100.013 133.06C99.5786 133.183 99.5749 133.183 100.002 133.067C94.888 134.475 90.4693 135.056 86.5302 135.056C79.6567 135.056 72.3116 132.382 67.2206 130.136C67.2206 130.043 67.2719 129.635 67.2719 129.464C75.5012 133.053 86.9419 136.625 101.86 132.038C101.916 132.021 101.981 132.027 102.03 132.055C102.086 132.079 102.128 132.127 102.154 132.188C102.192 132.304 102.12 132.431 101.996 132.472V132.475Z" fill="#FF9800"/>
</svg>
