<svg width="174" height="240" viewBox="0 0 174 240" fill="none" xmlns="http://www.w3.org/2000/svg">
<rect width="174" height="240" fill="none"/>
<path d="M105.342 142.843C105.959 157.225 105.596 224.576 105.596 224.576C105.596 224.576 97.6171 228.122 89.4183 226.113L87.0136 166.937L84.5969 226.113C84.5969 226.113 74.3062 228.513 68.2453 222.9C68.2453 222.9 67.346 155.679 68.6888 142.876C68.6888 142.876 98.2184 142.843 105.342 142.843Z" fill="#8F1D80"/>
<path d="M100.465 98.2612C99.6205 95.9334 100.821 93.3582 103.148 92.5092C105.474 91.6603 108.045 92.8591 108.89 95.1868L127.963 147.728L119.538 150.803L100.465 98.2612Z" fill="#FF9800"/>
<path d="M103.726 92.2982C106.372 91.3325 109.297 92.6965 110.258 95.3444L129.12 147.307L127.961 147.729L108.889 95.1881C108.077 92.9532 105.676 91.759 103.426 92.4185C103.524 92.3758 103.624 92.3353 103.726 92.2982Z" fill="#E89627"/>
<path d="M65.2779 95.2144C66.1269 92.8881 68.7021 91.6872 71.0299 92.5322C73.3577 93.3772 74.5565 95.948 73.7075 98.2744L54.5452 150.783L46.1156 147.723L65.2779 95.2144Z" fill="#FF9800"/>
<path d="M71.6084 92.7413C74.2559 93.7024 75.6191 96.6266 74.654 99.2725L55.7026 151.204L54.5436 150.782L73.7063 98.2729C74.5206 96.0406 73.4495 93.5836 71.3046 92.6422C71.4061 92.6721 71.5076 92.7047 71.6084 92.7413Z" fill="#E89627"/>
<path d="M100.479 89.7312C102.061 89.7314 104.307 91.1065 104.307 94.0046L107.53 143.058C107.53 144.299 105.747 144.884 105.719 144.893H68.0098C66.8701 144.893 65.6729 144.455 65.6729 143.017L69.8857 94.0085C69.8857 91.3784 71.9617 89.7314 73.5635 89.7312H79.5986C79.5875 89.9288 79.5872 90.1219 79.5996 90.3201C79.7901 93.6581 83.0949 96.2334 86.9775 96.0642C87.2075 96.0699 87.4383 96.0755 87.6748 96.0642C91.5646 95.9064 94.5663 93.0722 94.4033 89.7312H100.479Z" fill="#FF9800"/>
<path d="M66.7399 147.36L62.178 202.488C62.178 202.488 85.6399 190.937 92.5792 190.097C99.5185 189.257 115.45 179.779 115.45 179.779L108.537 147.36L66.7399 147.36Z" fill="#A4D233"/>
<mask id="mask0_1470_111072" style="mask-type:alpha" maskUnits="userSpaceOnUse" x="55" y="144" width="65" height="59">
<path d="M55.5461 162.053L55.6227 164.593L56.3978 164.571L56.4446 166.201L55.6696 166.228L55.7462 168.763L58.8336 165.301L55.5461 162.053Z" fill="#FFE700"/>
<path d="M60.0636 159.241L57.6125 161.988L60.2236 164.566L62.6748 161.82L60.0636 159.241Z" fill="#FFE700"/>
<path d="M55.4398 158.533L55.5463 162.054L57.1645 160.24L55.4398 158.533Z" fill="#FFE700"/>
<path d="M59.9068 156.929L62.1808 159.178L64.4079 156.683L59.9962 156.83L59.8088 156.835L55.3929 156.983L57.7648 159.326L59.9068 156.929Z" fill="#FFE700"/>
<path d="M58.0459 168.687L62.6492 168.535L60.2773 166.193L58.0459 168.687Z" fill="#FFE700"/>
<path d="M64.5611 161.754L61.4738 165.216L64.7655 168.468L67.8571 165.005L64.5611 161.754ZM63.9096 165.955L63.8628 164.325L65.4128 164.275L65.464 165.906L63.9096 165.955Z" fill="#FFE700"/>
<path d="M69.0819 158.941L66.6308 161.688L69.2419 164.266L71.693 161.519L69.0819 158.941Z" fill="#FFE700"/>
<path d="M64.4586 158.235L62.8352 160.054L64.5647 161.762L66.1881 159.943L64.4586 158.235Z" fill="#FFE700"/>
<path d="M68.824 156.535L64.4081 156.683L66.7842 159.026L68.922 156.634L71.196 158.878L73.4274 156.383L69.0114 156.531L68.824 156.535Z" fill="#FFE700"/>
<path d="M67.0653 168.387L71.6685 168.235L69.2967 165.892L67.0653 168.387Z" fill="#FFE700"/>
<path d="M73.5763 161.453L70.489 164.916L73.7808 168.168L76.8724 164.705L73.5763 161.453ZM72.9292 165.65L72.878 164.02L74.428 163.966L74.4792 165.597L72.9292 165.65Z" fill="#FFE700"/>
<path d="M78.097 158.644L75.6459 161.39L78.257 163.969L80.7081 161.222L78.097 158.644Z" fill="#FFE700"/>
<path d="M73.4763 157.936L71.8529 159.755L73.5823 161.462L75.2057 159.643L73.4763 157.936Z" fill="#FFE700"/>
<path d="M77.8433 156.235L73.4275 156.383L75.7994 158.725L77.9371 156.329L80.2153 158.578L82.4467 156.083L78.0308 156.231L77.8433 156.235Z" fill="#FFE700"/>
<path d="M76.0846 168.087L80.6837 167.935L78.3118 165.592L76.0846 168.087Z" fill="#FFE700"/>
<path d="M82.5957 161.153L79.5084 164.616L82.8001 167.867L85.8917 164.405L82.5957 161.153ZM81.9442 165.35L81.893 163.72L83.4431 163.666L83.4899 165.296L81.9399 165.35H81.9442Z" fill="#FFE700"/>
<path d="M87.1153 158.344L84.6642 161.09L87.2751 163.668L89.7263 160.922L87.1153 158.344Z" fill="#FFE700"/>
<path d="M82.4916 157.634L80.8682 159.453L82.5974 161.161L84.2209 159.342L82.4916 157.634Z" fill="#FFE700"/>
<path d="M86.8582 155.935L82.4464 156.083L84.8184 158.425L86.9561 156.029L89.2343 158.282L91.4614 155.783L87.0455 155.931L86.8582 155.935Z" fill="#FFE700"/>
<path d="M85.0995 167.791L89.7029 167.635L87.3266 165.292L85.0995 167.791Z" fill="#FFE700"/>
<path d="M91.6105 160.853L88.5232 164.315L91.8149 167.563L94.9065 164.1L91.6105 160.853ZM90.9632 165.05L90.9122 163.42L92.4622 163.366L92.5091 164.996L90.959 165.05H90.9632Z" fill="#FFE700"/>
<path d="M96.1334 158.049L93.6823 160.796L96.2934 163.374L98.7445 160.627L96.1334 158.049Z" fill="#FFE700"/>
<path d="M91.5055 157.334L89.8822 159.153L91.6115 160.86L93.2348 159.041L91.5055 157.334Z" fill="#FFE700"/>
<path d="M95.8774 155.635L91.4614 155.782L93.8376 158.125L95.971 155.733L98.2493 157.977L100.476 155.482L96.0604 155.626L95.8774 155.635Z" fill="#FFE700"/>
<path d="M94.1188 167.487L98.7178 167.335L96.346 164.992L94.1188 167.487Z" fill="#FFE700"/>
<path d="M100.626 160.553L97.5427 164.015L100.834 167.267L103.926 163.805L100.63 160.553H100.626ZM99.9784 164.755L99.9274 163.124L101.477 163.075L101.524 164.705L99.9743 164.755H99.9784Z" fill="#FFE700"/>
<path d="M105.149 157.741L102.698 160.488L105.309 163.066L107.76 160.32L105.149 157.741Z" fill="#FFE700"/>
<path d="M100.528 157.033L98.9049 158.852L100.634 160.56L102.258 158.741L100.528 157.033Z" fill="#FFE700"/>
<path d="M104.892 155.334L100.476 155.482L102.853 157.825L104.99 155.428L107.269 157.677L109.496 155.182L105.08 155.33L104.892 155.334Z" fill="#FFE700"/>
<path d="M103.134 167.191L107.733 167.035L105.361 164.692L103.134 167.191Z" fill="#FFE700"/>
<path d="M109.645 160.257L106.553 163.72L109.845 166.972L112.941 163.514L109.645 160.262V160.257ZM108.993 164.45L108.942 162.819L110.492 162.77L110.539 164.401L108.989 164.45H108.993Z" fill="#FFE700"/>
<path d="M114.167 157.441L111.716 160.188L114.327 162.766L116.778 160.019L114.167 157.441Z" fill="#FFE700"/>
<path d="M109.54 156.728L107.917 158.547L109.646 160.255L111.27 158.436L109.54 156.728Z" fill="#FFE700"/>
<path d="M113.908 155.035L109.496 155.182L111.868 157.525L114.01 155.129L116.284 157.377L118.511 154.882L114.099 155.03L113.908 155.035Z" fill="#FFE700"/>
<path d="M112.149 166.887L116.752 166.734L114.38 164.392L112.149 166.887Z" fill="#FFE700"/>
<path d="M118.017 164.15L117.966 162.519L118.741 162.492L118.668 159.953L115.577 163.415L118.864 166.667L118.792 164.123L118.017 164.15Z" fill="#FFE700"/>
<path d="M118.668 159.953L118.557 156.432L116.939 158.246L118.668 159.953Z" fill="#FFE700"/>
<path d="M62.8707 176.454L64.0119 176.418L60.3711 172.822L56.9516 176.656L58.0886 176.616L60.4051 174.022L62.8707 176.454Z" fill="#FFE700"/>
<path d="M55.8615 172.969L55.9722 176.683L59.3917 172.853L55.8615 172.969Z" fill="#FFE700"/>
<path d="M60.4351 175.07L59.0895 176.584L61.8744 176.49L60.4351 175.07Z" fill="#FFE700"/>
<path d="M67.1076 176.316L69.42 173.722L71.8898 176.159L73.0311 176.118L69.3859 172.522L65.9664 176.351L67.1076 176.316Z" fill="#FFE700"/>
<path d="M68.4067 172.553L61.3463 172.79L64.9872 176.383L68.4067 172.553Z" fill="#FFE700"/>
<path d="M68.1043 176.28L70.8893 176.19L69.4542 174.77L68.1043 176.28Z" fill="#FFE700"/>
<path d="M70.3401 171.801L79.3593 171.505L88.3786 171.205L97.3936 170.905L106.413 170.604L115.428 170.304L118.958 170.183L118.941 169.615L115.411 169.735L106.396 170.036L97.3766 170.336L88.3616 170.636L79.3423 170.936L70.3231 171.236L61.3081 171.536L55.8232 171.72L55.8403 172.284L61.3251 172.105L70.3401 171.801Z" fill="#FFE700"/>
<path d="M70.3101 170.774L79.3293 170.474L88.3486 170.174L97.3636 169.874L106.379 169.574L115.398 169.274L118.928 169.157L118.911 168.588L115.381 168.709L106.362 169.005L97.3465 169.305L88.3316 169.61L79.3123 169.905L70.293 170.206L61.2781 170.506L55.7933 170.689L55.8103 171.258L61.2951 171.074L70.3101 170.774Z" fill="#FFE700"/>
<path d="M76.123 176.015L78.4395 173.422L80.9052 175.854L82.0464 175.818L78.4012 172.222L74.9817 176.051L76.123 176.015Z" fill="#FFE700"/>
<path d="M77.4259 172.253L70.3656 172.49L74.0064 176.087L77.4259 172.253Z" fill="#FFE700"/>
<path d="M77.1234 175.984L79.9084 175.886L78.4691 174.47L77.1234 175.984Z" fill="#FFE700"/>
<path d="M85.1423 175.715L87.4588 173.117L89.9244 175.554L91.0614 175.518L87.4204 171.921L84.001 175.755L85.1423 175.715Z" fill="#FFE700"/>
<path d="M86.4409 171.952L79.3805 172.19L83.0257 175.787L86.4409 171.952Z" fill="#FFE700"/>
<path d="M86.1385 175.679L88.9278 175.59L87.4885 174.17L86.1385 175.679Z" fill="#FFE700"/>
<path d="M94.1613 175.415L96.4736 172.822L98.9392 175.254L100.081 175.218L96.4396 171.621L93.0201 175.451L94.1613 175.415Z" fill="#FFE700"/>
<path d="M95.4602 171.653L88.3998 171.886L92.0407 175.487L95.4602 171.653Z" fill="#FFE700"/>
<path d="M95.1533 175.379L97.9426 175.29L96.5032 173.87L95.1533 175.379Z" fill="#FFE700"/>
<path d="M103.176 175.115L105.493 172.522L107.958 174.954L109.095 174.918L105.454 171.321L102.035 175.155L103.176 175.115Z" fill="#FFE700"/>
<path d="M104.479 171.353L97.4147 171.59L101.06 175.187L104.479 171.353Z" fill="#FFE700"/>
<path d="M104.173 175.084L106.962 174.99L105.523 173.57L104.173 175.084Z" fill="#FFE700"/>
<path d="M112.191 174.815L114.508 172.217L116.974 174.653L118.115 174.618L114.474 171.021L111.054 174.85L112.191 174.815Z" fill="#FFE700"/>
<path d="M113.495 171.052L106.43 171.285L110.075 174.882L113.495 171.052Z" fill="#FFE700"/>
<path d="M113.188 174.784L115.977 174.69L114.542 173.27L113.188 174.784Z" fill="#FFE700"/>
<path d="M70.5402 178.345L79.5551 178.045L88.5745 177.745L97.5894 177.444L106.609 177.144L115.624 176.844L119.158 176.728L119.116 175.272L115.581 175.388L106.562 175.688L97.5468 175.988L88.5319 176.289L79.5126 176.589L70.4976 176.889L61.4783 177.189L55.9936 177.373L56.0361 178.828L61.5252 178.645L70.5402 178.345Z" fill="#FFE700"/>
<path d="M119.09 174.586L118.983 170.873L115.449 170.99L119.09 174.586Z" fill="#FFE700"/>
<path d="M55.5461 185.718L55.6227 188.253L56.3978 188.23L56.4446 189.861L55.6696 189.888L55.7462 192.427L58.8336 188.965L55.5461 185.718Z" fill="#FFE700"/>
<path d="M60.0625 182.905L57.6113 185.651L60.2225 188.229L62.6736 185.483L60.0625 182.905Z" fill="#FFE700"/>
<path d="M55.4398 182.192L55.5463 185.717L57.1645 183.899L55.4398 182.192Z" fill="#FFE700"/>
<path d="M59.9068 180.593L62.1808 182.837L64.4079 180.342L59.9962 180.49L59.8088 180.499L55.3929 180.642L57.7648 182.985L59.9068 180.593Z" fill="#FFE700"/>
<path d="M58.0459 192.347L62.6492 192.199L60.2773 189.852L58.0459 192.347Z" fill="#FFE700"/>
<path d="M64.5611 185.413L61.4738 188.875L64.7655 192.127L67.8571 188.665L64.5611 185.413ZM63.9096 189.614L63.8628 187.984L65.4128 187.935L65.464 189.565L63.9096 189.614Z" fill="#FFE700"/>
<path d="M69.081 182.604L66.6299 185.351L69.2411 187.929L71.6922 185.182L69.081 182.604Z" fill="#FFE700"/>
<path d="M64.454 181.896L62.8306 183.715L64.5599 185.422L66.1833 183.603L64.454 181.896Z" fill="#FFE700"/>
<path d="M68.824 180.194L64.4081 180.342L66.7842 182.689L68.922 180.293L71.196 182.542L73.4274 180.042L69.0114 180.19L68.824 180.194Z" fill="#FFE700"/>
<path d="M67.0653 192.051L71.6685 191.894L69.2967 189.552L67.0653 192.051Z" fill="#FFE700"/>
<path d="M73.5763 185.117L70.489 188.58L73.7808 191.832L76.8724 188.369L73.5763 185.117ZM72.9292 189.314L72.878 187.684L74.428 187.63L74.4792 189.261L72.9292 189.314Z" fill="#FFE700"/>
<path d="M78.097 182.304L75.6459 185.051L78.257 187.629L80.7081 184.882L78.097 182.304Z" fill="#FFE700"/>
<path d="M73.4726 181.596L71.8492 183.415L73.5785 185.122L75.2019 183.303L73.4726 181.596Z" fill="#FFE700"/>
<path d="M77.8433 179.894L73.4275 180.042L75.7994 182.385L77.9371 179.993L80.2153 182.241L82.4467 179.747L78.0308 179.89L77.8433 179.894Z" fill="#FFE700"/>
<path d="M76.0846 191.751L80.6837 191.598L78.3118 189.251L76.0846 191.751Z" fill="#FFE700"/>
<path d="M82.5957 184.817L79.5084 188.28L82.8001 191.532L85.8917 188.069L82.5957 184.817ZM81.9442 189.01L81.893 187.379L83.4431 187.326L83.4899 188.956L81.9399 189.01H81.9442Z" fill="#FFE700"/>
<path d="M87.1187 182.007L84.6675 184.753L87.2785 187.331L89.7296 184.585L87.1187 182.007Z" fill="#FFE700"/>
<path d="M82.4874 181.294L80.864 183.113L82.5934 184.82L84.2168 183.001L82.4874 181.294Z" fill="#FFE700"/>
<path d="M86.8582 179.599L82.4464 179.747L84.8184 182.085L86.9561 179.693L89.2343 181.941L91.4614 179.442L87.0455 179.59L86.8582 179.599Z" fill="#FFE700"/>
<path d="M85.0995 191.446L89.7029 191.294L87.3266 188.951L85.0995 191.446Z" fill="#FFE700"/>
<path d="M91.6105 184.512L88.5232 187.975L91.8149 191.222L94.9065 187.76L91.6105 184.512ZM90.9632 188.714L90.9122 187.083L92.4622 187.03L92.5091 188.66L90.959 188.714H90.9632Z" fill="#FFE700"/>
<path d="M96.1296 181.705L93.6785 184.451L96.2896 187.03L98.7407 184.283L96.1296 181.705Z" fill="#FFE700"/>
<path d="M91.5088 180.996L89.8855 182.815L91.6148 184.523L93.2381 182.704L91.5088 180.996Z" fill="#FFE700"/>
<path d="M95.8774 179.298L91.4614 179.442L93.8376 181.789L95.971 179.392L98.2493 181.641L100.476 179.142L96.0604 179.289L95.8774 179.298Z" fill="#FFE700"/>
<path d="M94.1188 191.151L98.7178 190.994L96.346 188.656L94.1188 191.151Z" fill="#FFE700"/>
<path d="M100.626 184.217L97.5427 187.679L100.834 190.931L103.926 187.469L100.63 184.217H100.626ZM99.9784 188.414L99.9274 186.783L101.477 186.734L101.524 188.365L99.9743 188.414H99.9784Z" fill="#FFE700"/>
<path d="M105.152 181.405L102.701 184.151L105.312 186.729L107.763 183.983L105.152 181.405Z" fill="#FFE700"/>
<path d="M100.525 180.699L98.9012 182.519L100.63 184.226L102.254 182.407L100.525 180.699Z" fill="#FFE700"/>
<path d="M104.892 178.994L100.476 179.142L102.853 181.485L104.99 179.093L107.269 181.342L109.496 178.842L105.08 178.99L104.892 178.994Z" fill="#FFE700"/>
<path d="M103.134 190.851L107.733 190.698L105.361 188.351L103.134 190.851Z" fill="#FFE700"/>
<path d="M109.645 183.912L106.553 187.375L109.845 190.627L112.941 187.169L109.645 183.917V183.912ZM108.993 188.114L108.942 186.483L110.492 186.434L110.539 188.064L108.989 188.114H108.993Z" fill="#FFE700"/>
<path d="M114.17 181.104L111.719 183.851L114.33 186.429L116.781 183.683L114.17 181.104Z" fill="#FFE700"/>
<path d="M109.541 180.395L107.917 182.214L109.646 183.922L111.27 182.103L109.541 180.395Z" fill="#FFE700"/>
<path d="M113.908 178.699L109.496 178.842L111.868 181.189L114.01 178.793L116.284 181.037L118.511 178.542L114.099 178.69L113.908 178.699Z" fill="#FFE700"/>
<path d="M112.149 190.55L116.752 190.398L114.38 188.051L112.149 190.55Z" fill="#FFE700"/>
<path d="M118.017 187.814L117.966 186.184L118.741 186.157L118.668 183.617L115.577 187.075L118.864 190.327L118.792 187.787L118.017 187.814Z" fill="#FFE700"/>
<path d="M118.668 183.617L118.557 180.092L116.939 181.91L118.668 183.617Z" fill="#FFE700"/>
<path d="M62.8707 200.118L64.0119 200.078L60.3711 196.481L56.9516 200.315L58.0886 200.275L60.4051 197.682L62.8707 200.118Z" fill="#FFE700"/>
<path d="M55.8615 196.634L55.9722 200.347L59.3917 196.513L55.8615 196.634Z" fill="#FFE700"/>
<path d="M60.4351 198.73L59.0895 200.244L61.8744 200.15L60.4351 198.73Z" fill="#FFE700"/>
<path d="M67.1076 199.975L69.42 197.382L71.8898 199.818L73.0311 199.778L69.3859 196.181L65.9664 200.015L67.1076 199.975Z" fill="#FFE700"/>
<path d="M68.4067 196.217L61.3463 196.45L64.9872 200.046L68.4067 196.217Z" fill="#FFE700"/>
<path d="M68.1043 199.943L70.8893 199.849L69.4542 198.429L68.1043 199.943Z" fill="#FFE700"/>
<path d="M70.3401 195.464L79.3593 195.164L88.3786 194.864L97.3936 194.564L106.413 194.264L115.428 193.964L118.958 193.847L118.941 193.278L115.411 193.395L106.396 193.695L97.3766 193.999L88.3616 194.295L79.3423 194.595L70.3231 194.895L61.3081 195.196L55.8232 195.379L55.8403 195.944L61.3251 195.764L70.3401 195.464Z" fill="#FFE700"/>
<path d="M70.3101 194.434L79.3293 194.138L88.3486 193.838L97.3636 193.534L106.379 193.238L115.398 192.934L118.928 192.817L118.911 192.253L115.381 192.365L106.362 192.669L97.3465 192.969L88.3316 193.269L79.3123 193.57L70.293 193.865L61.2781 194.17L55.7933 194.349L55.8103 194.918L61.2951 194.734L70.3101 194.434Z" fill="#FFE700"/>
<path d="M76.123 199.675L78.4395 197.081L80.9052 199.518L82.0464 199.478L78.4012 195.885L74.9817 199.715L76.123 199.675Z" fill="#FFE700"/>
<path d="M77.4259 195.917L70.3656 196.15L74.0064 199.746L77.4259 195.917Z" fill="#FFE700"/>
<path d="M77.1234 199.644L79.9084 199.55L78.4691 198.13L77.1234 199.644Z" fill="#FFE700"/>
<path d="M85.1423 199.379L87.4588 196.781L89.9244 199.218L91.0614 199.178L87.4204 195.581L84.001 199.41L85.1423 199.379Z" fill="#FFE700"/>
<path d="M86.4409 195.612L79.3805 195.85L83.0257 199.446L86.4409 195.612Z" fill="#FFE700"/>
<path d="M86.1385 199.344L88.9278 199.249L87.4885 197.83L86.1385 199.344Z" fill="#FFE700"/>
<path d="M94.1613 199.074L96.4736 196.481L98.9392 198.913L100.081 198.877L96.4396 195.281L93.0201 199.115L94.1613 199.074Z" fill="#FFE700"/>
<path d="M95.4602 195.316L88.3998 195.549L92.0407 199.146L95.4602 195.316Z" fill="#FFE700"/>
<path d="M95.1533 199.043L97.9426 198.949L96.5032 197.534L95.1533 199.043Z" fill="#FFE700"/>
<path d="M103.176 198.775L105.493 196.181L107.958 198.618L109.095 198.577L105.454 194.981L102.035 198.815L103.176 198.775Z" fill="#FFE700"/>
<path d="M104.479 195.012L97.4147 195.249L101.06 198.846L104.479 195.012Z" fill="#FFE700"/>
<path d="M104.173 198.743L106.962 198.649L105.523 197.229L104.173 198.743Z" fill="#FFE700"/>
<path d="M112.191 198.479L114.508 195.881L116.974 198.318L118.115 198.277L114.474 194.68L111.054 198.515L112.191 198.479Z" fill="#FFE700"/>
<path d="M113.495 194.712L106.43 194.949L110.075 198.546L113.495 194.712Z" fill="#FFE700"/>
<path d="M113.188 198.443L115.977 198.349L114.542 196.934L113.188 198.443Z" fill="#FFE700"/>
<path d="M70.5402 202.004L79.5551 201.704L88.5745 201.404L97.5894 201.108L106.609 200.808L115.624 200.504L119.158 200.387L119.116 198.931L115.581 199.048L106.562 199.348L97.5468 199.648L88.5319 199.948L79.5126 200.253L70.4976 200.548L61.4783 200.848L55.9936 201.032L56.0361 202.488L61.5252 202.304L70.5402 202.004Z" fill="#FFE700"/>
<path d="M119.09 198.246L118.983 194.528L115.449 194.649L119.09 198.246Z" fill="#FFE700"/>
<path d="M62.1596 152.759L63.3008 152.723L59.6556 149.126L56.2361 152.956L57.3775 152.92L59.694 150.327L62.1596 152.759Z" fill="#FFE700"/>
<path d="M55.1503 149.278L55.261 152.992L58.6761 149.157L55.1503 149.278Z" fill="#FFE700"/>
<path d="M59.7241 151.375L58.3741 152.885L61.1591 152.795L59.7241 151.375Z" fill="#FFE700"/>
<path d="M66.3968 152.62L68.709 150.022L71.1789 152.459L72.3159 152.423L68.6708 148.826L65.2556 152.656L66.3968 152.62Z" fill="#FFE700"/>
<path d="M67.6954 148.858L60.6349 149.095L64.2759 152.692L67.6954 148.858Z" fill="#FFE700"/>
<path d="M67.3931 152.589L70.178 152.49L68.7387 151.075L67.3931 152.589Z" fill="#FFE700"/>
<path d="M69.6289 148.11L78.6481 147.81L87.663 147.505L96.6823 147.209L105.697 146.905L114.717 146.605L118.247 146.493L118.23 145.924L114.7 146.04L105.68 146.341L96.6653 146.641L87.6503 146.936L78.631 147.241L69.6118 147.541L60.5967 147.841L55.1077 148.02L55.1248 148.589L60.6095 148.406L69.6289 148.11Z" fill="#FFE700"/>
<path d="M69.5989 147.079L78.6181 146.779L87.6331 146.479L96.6482 146.179L105.667 145.879L114.687 145.579L118.217 145.462L118.2 144.893L114.665 145.01L105.65 145.314L96.6354 145.61L87.6162 145.91L78.6011 146.21L69.5819 146.51L60.5669 146.811L55.0821 146.994L55.0948 147.563L60.5797 147.379L69.5989 147.079Z" fill="#FFE700"/>
<path d="M75.4116 152.32L77.7281 149.722L80.1938 152.159L81.3308 152.123L77.6899 148.526L74.2704 152.356L75.4116 152.32Z" fill="#FFE700"/>
<path d="M76.7149 148.558L69.6502 148.791L73.2954 152.387L76.7149 148.558Z" fill="#FFE700"/>
<path d="M76.4084 152.284L79.1934 152.195L77.7583 150.775L76.4084 152.284Z" fill="#FFE700"/>
<path d="M84.4311 152.02L86.7434 149.426L89.2133 151.863L90.3502 151.818L86.7093 148.226L83.2898 152.056L84.4311 152.02Z" fill="#FFE700"/>
<path d="M85.7295 148.257L78.6692 148.49L82.3143 152.092L85.7295 148.257Z" fill="#FFE700"/>
<path d="M85.4273 151.984L88.2123 151.894L86.7772 150.474L85.4273 151.984Z" fill="#FFE700"/>
<path d="M93.4458 151.72L95.7623 149.126L98.228 151.558L99.3692 151.523L95.724 147.926L92.3046 151.76L93.4458 151.72Z" fill="#FFE700"/>
<path d="M94.7492 147.962L87.6845 148.195L91.3297 151.791L94.7492 147.962Z" fill="#FFE700"/>
<path d="M94.4421 151.688L97.2314 151.594L95.7921 150.175L94.4421 151.688Z" fill="#FFE700"/>
<path d="M102.461 151.42L104.778 148.826L107.243 151.263L108.384 151.222L104.744 147.626L101.324 151.455L102.461 151.42Z" fill="#FFE700"/>
<path d="M103.764 147.657L96.7039 147.895L100.345 151.487L103.764 147.657Z" fill="#FFE700"/>
<path d="M103.462 151.384L106.247 151.294L104.812 149.874L103.462 151.384Z" fill="#FFE700"/>
<path d="M111.48 151.119L113.792 148.526L116.262 150.958L117.404 150.922L113.758 147.326L110.339 151.155L111.48 151.119Z" fill="#FFE700"/>
<path d="M112.779 147.357L105.719 147.594L109.36 151.191L112.779 147.357Z" fill="#FFE700"/>
<path d="M112.477 151.088L115.262 150.994L113.827 149.574L112.477 151.088Z" fill="#FFE700"/>
<path d="M69.8249 154.649L78.8442 154.349L87.8591 154.049L96.8785 153.749L105.898 153.449L114.913 153.149L118.443 153.032L118.4 151.576L114.87 151.693L105.851 151.993L96.8316 152.293L87.8166 152.593L78.8015 152.893L69.7866 153.189L60.7674 153.494L55.2825 153.677L55.3251 155.133L60.8099 154.949L69.8249 154.649Z" fill="#FFE700"/>
<path d="M118.379 150.891L118.268 147.173L114.738 147.294L118.379 150.891Z" fill="#FFE700"/>
</mask>
<g mask="url(#mask0_1470_111072)">
<path d="M66.5738 147.36L62.0119 202.488C62.0119 202.488 85.4738 190.937 92.4131 190.097C99.3524 189.257 115.284 179.778 115.284 179.778L108.371 147.36L66.5738 147.36Z" fill="#FFE700"/>
</g>
<path d="M66.5738 147.36L62.0119 202.488C62.0119 202.488 85.4738 190.937 92.4131 190.097C99.3524 189.257 115.284 179.778 115.284 179.778L108.371 147.36L66.5738 147.36Z" fill="#111111" fill-opacity="0.2"/>
<path d="M65.2745 147.31L56.675 210.984L107.189 189.994L99.347 147.393L65.2745 147.31Z" fill="#A4D233"/>
<mask id="mask1_1470_111072" style="mask-type:alpha" maskUnits="userSpaceOnUse" x="45" y="147" width="75" height="64">
<path d="M46.3401 165.84L46.4279 168.616L47.316 168.586L47.3698 170.373L46.4865 170.403L46.5694 173.174L50.1073 169.389L46.3401 165.84Z" fill="#FFE700"/>
<path d="M51.5151 162.768L48.7063 165.771L51.6985 168.589L54.5073 165.587L51.5151 162.768Z" fill="#FFE700"/>
<path d="M46.2183 161.991L46.3403 165.84L48.1995 163.852L46.2183 161.991Z" fill="#FFE700"/>
<path d="M51.3375 160.239L53.9435 162.697L56.4956 159.969L51.44 160.131L51.2253 160.136L46.1649 160.292L48.8829 162.858L51.3375 160.239Z" fill="#FFE700"/>
<path d="M49.2047 173.091L54.4798 172.925L51.7618 170.364L49.2047 173.091Z" fill="#FFE700"/>
<path d="M56.6709 165.512L53.1329 169.297L56.9051 172.851L60.4479 169.067L56.6709 165.512ZM55.9243 170.105L55.8706 168.322L57.6468 168.268L57.7055 170.051L55.9243 170.105Z" fill="#FFE700"/>
<path d="M61.8462 162.439L59.0373 165.441L62.0296 168.259L64.8384 165.257L61.8462 162.439Z" fill="#FFE700"/>
<path d="M56.5515 161.67L54.6911 163.658L56.673 165.525L58.5333 163.536L56.5515 161.67Z" fill="#FFE700"/>
<path d="M61.5558 159.808L56.4954 159.969L59.2184 162.53L61.668 159.91L64.274 162.368L66.831 159.641L61.7706 159.798L61.5558 159.808Z" fill="#FFE700"/>
<path d="M59.5405 172.763L64.8157 172.596L62.0975 170.036L59.5405 172.763Z" fill="#FFE700"/>
<path d="M67.0019 165.184L63.464 168.968L67.2361 172.523L70.7789 168.738L67.0019 165.184ZM66.2601 169.771L66.2015 167.989L67.9779 167.93L68.0364 169.713L66.2601 169.771Z" fill="#FFE700"/>
<path d="M72.181 162.11L69.3721 165.113L72.3642 167.931L75.1731 164.928L72.181 162.11Z" fill="#FFE700"/>
<path d="M66.8873 161.333L65.0269 163.321L67.0086 165.188L68.869 163.199L66.8873 161.333Z" fill="#FFE700"/>
<path d="M71.8913 159.48L66.8308 159.641L69.5489 162.202L71.9987 159.583L74.6093 162.04L77.1664 159.308L72.106 159.475L71.8913 159.48Z" fill="#FFE700"/>
<path d="M69.8763 172.435L75.1466 172.268L72.4285 169.703L69.8763 172.435Z" fill="#FFE700"/>
<path d="M77.3376 164.856L73.7997 168.641L77.5718 172.195L81.1147 168.411L77.3376 164.856ZM76.591 169.444L76.5325 167.661L78.3087 167.603L78.3624 169.385L76.5861 169.444H76.591Z" fill="#FFE700"/>
<path d="M82.5153 161.782L79.7065 164.784L82.6985 167.602L85.5073 164.6L82.5153 161.782Z" fill="#FFE700"/>
<path d="M77.213 161.003L75.3527 162.991L77.3346 164.858L79.1948 162.87L77.213 161.003Z" fill="#FFE700"/>
<path d="M82.2222 159.152L77.1665 159.309L79.8847 161.874L82.3344 159.255L84.9452 161.712L87.4974 158.985L82.4369 159.147L82.2222 159.152Z" fill="#FFE700"/>
<path d="M80.2068 172.107L85.482 171.94L82.7591 169.38L80.2068 172.107Z" fill="#FFE700"/>
<path d="M87.6682 164.528L84.1303 168.313L87.9024 171.862L91.4452 168.078L87.6682 164.528ZM86.9265 169.116L86.868 167.333L88.6442 167.275L88.6979 169.057L86.9216 169.116H86.9265Z" fill="#FFE700"/>
<path d="M92.8511 161.452L90.0423 164.454L93.0345 167.273L95.8433 164.27L92.8511 161.452Z" fill="#FFE700"/>
<path d="M87.5512 160.678L85.6909 162.667L87.6726 164.533L89.5329 162.545L87.5512 160.678Z" fill="#FFE700"/>
<path d="M92.5576 158.824L87.4972 158.985L90.2201 161.546L92.6649 158.926L95.2757 161.384L97.8279 158.657L92.7675 158.814L92.5576 158.824Z" fill="#FFE700"/>
<path d="M90.5422 171.779L95.8125 171.613L93.0944 169.047L90.5422 171.779Z" fill="#FFE700"/>
<path d="M97.9987 164.2L94.4656 167.984L98.2378 171.539L101.781 167.755L98.0036 164.2H97.9987ZM97.2569 168.788L97.1983 167.005L98.9747 166.951L99.0283 168.734L97.252 168.788H97.2569Z" fill="#FFE700"/>
<path d="M103.185 161.124L100.376 164.126L103.368 166.945L106.177 163.942L103.185 161.124Z" fill="#FFE700"/>
<path d="M97.8837 160.35L96.0233 162.338L98.005 164.205L99.8654 162.216L97.8837 160.35Z" fill="#FFE700"/>
<path d="M102.894 158.495L97.8282 158.657L100.551 161.218L103.001 158.598L105.612 161.056L108.164 158.329L103.103 158.49L102.894 158.495Z" fill="#FFE700"/>
<path d="M100.873 171.451L106.144 171.285L103.425 168.724L100.873 171.451Z" fill="#FFE700"/>
<path d="M108.335 163.872L104.792 167.656L108.564 171.211L112.112 167.431L108.335 163.876V163.872ZM107.593 168.459L107.534 166.677L109.311 166.623L109.364 168.405L107.588 168.459H107.593Z" fill="#FFE700"/>
<path d="M113.52 160.795L110.711 163.798L113.703 166.616L116.512 163.614L113.52 160.795Z" fill="#FFE700"/>
<path d="M108.213 160.028L106.353 162.017L108.335 163.883L110.195 161.895L108.213 160.028Z" fill="#FFE700"/>
<path d="M113.224 158.168L108.163 158.329L110.882 160.89L113.331 158.27L115.942 160.728L118.494 158.001L113.439 158.163L113.224 158.168Z" fill="#FFE700"/>
<path d="M111.204 171.123L116.479 170.956L113.761 168.396L111.204 171.123Z" fill="#FFE700"/>
<path d="M117.928 168.131L117.87 166.344L118.758 166.32L118.675 163.543L115.132 167.328L118.904 170.878L118.816 168.102L117.928 168.131Z" fill="#FFE700"/>
<path d="M118.675 163.544L118.548 159.69L116.694 161.678L118.675 163.544Z" fill="#FFE700"/>
<path d="M54.7337 181.581L56.0416 181.542L51.8693 177.61L47.9507 181.802L49.2536 181.753L51.9082 178.918L54.7337 181.581Z" fill="#FFE700"/>
<path d="M46.7014 177.772L46.8283 181.831L50.7469 177.644L46.7014 177.772Z" fill="#FFE700"/>
<path d="M51.9471 180.068L50.4002 181.718L53.5917 181.616L51.9471 180.068Z" fill="#FFE700"/>
<path d="M59.589 181.429L62.2389 178.59L65.0693 181.253L66.377 181.214L62.1998 177.282L58.2812 181.469L59.589 181.429Z" fill="#FFE700"/>
<path d="M61.0775 177.317L52.9867 177.571L57.1589 181.503L61.0775 177.317Z" fill="#FFE700"/>
<path d="M60.7312 181.39L63.9227 181.292L62.2781 179.735L60.7312 181.39Z" fill="#FFE700"/>
<path d="M63.2982 176.494L73.6289 176.166L83.9646 175.843L94.2953 175.51L104.631 175.186L114.962 174.858L119.007 174.726L118.988 174.104L114.947 174.236L104.611 174.564L94.2758 174.892L83.9451 175.221L73.6095 175.549L63.2786 175.877L52.943 176.205L46.6577 176.406L46.6772 177.022L52.9626 176.827L63.2982 176.494Z" fill="#FFE700"/>
<path d="M63.2589 175.373L73.5946 175.044L83.9302 174.716L94.2609 174.388L104.597 174.06L114.927 173.732L118.973 173.605L118.953 172.983L114.908 173.111L104.577 173.439L94.2414 173.767L83.9107 174.095L73.5751 174.423L63.2395 174.751L52.9086 175.079L46.6234 175.279L46.6429 175.901L52.9282 175.701L63.2589 175.373Z" fill="#FFE700"/>
<path d="M69.9201 181.102L72.5747 178.267L75.4002 180.926L76.708 180.882L72.5356 176.95L68.6123 181.141L69.9201 181.102Z" fill="#FFE700"/>
<path d="M71.413 176.988L63.3221 177.248L67.4944 181.179L71.413 176.988Z" fill="#FFE700"/>
<path d="M71.0665 181.062L74.258 180.959L72.6086 179.412L71.0665 181.062Z" fill="#FFE700"/>
<path d="M80.2554 180.773L82.91 177.933L85.7355 180.597L87.0433 180.558L82.8662 176.626L78.9476 180.812L80.2554 180.773Z" fill="#FFE700"/>
<path d="M81.7439 176.661L73.6578 176.915L77.8302 180.847L81.7439 176.661Z" fill="#FFE700"/>
<path d="M81.4023 180.734L84.5938 180.636L82.9443 179.084L81.4023 180.734Z" fill="#FFE700"/>
<path d="M90.5912 180.445L93.2411 177.61L96.0713 180.269L97.3744 180.23L93.202 176.298L89.2834 180.485L90.5912 180.445Z" fill="#FFE700"/>
<path d="M92.0798 176.333L83.9889 176.587L88.1612 180.519L92.0798 176.333Z" fill="#FFE700"/>
<path d="M91.7334 180.406L94.9249 180.308L93.2754 178.756L91.7334 180.406Z" fill="#FFE700"/>
<path d="M100.922 180.117L103.577 177.277L106.402 179.941L107.705 179.902L103.533 175.965L99.614 180.156L100.922 180.117Z" fill="#FFE700"/>
<path d="M102.415 176.004L94.3194 176.264L98.4967 180.196L102.415 176.004Z" fill="#FFE700"/>
<path d="M102.064 180.082L105.26 179.975L103.611 178.427L102.064 180.082Z" fill="#FFE700"/>
<path d="M111.253 179.784L113.907 176.949L116.733 179.613L118.041 179.573L113.868 175.642L109.95 179.828L111.253 179.784Z" fill="#FFE700"/>
<path d="M112.746 175.676L104.65 175.931L108.827 179.863L112.746 175.676Z" fill="#FFE700"/>
<path d="M112.394 179.75L115.591 179.652L113.946 178.1L112.394 179.75Z" fill="#FFE700"/>
<path d="M63.5225 183.647L73.8583 183.319L84.189 182.991L94.5197 182.663L104.855 182.335L115.186 182.007L119.236 181.875L119.183 180.283L115.137 180.416L104.802 180.739L94.471 181.072L84.1401 181.4L73.8045 181.728L63.4738 182.056L53.1381 182.379L46.8528 182.58L46.9016 184.176L53.1918 183.975L63.5225 183.647Z" fill="#FFE700"/>
<path d="M119.158 179.535L119.036 175.476L114.986 175.603L119.158 179.535Z" fill="#FFE700"/>
<path d="M46.3401 191.707L46.4279 194.478L47.316 194.449L47.3698 196.236L46.4865 196.265L46.5694 199.036L50.1073 195.257L46.3401 191.707Z" fill="#FFE700"/>
<path d="M51.5141 188.629L48.7053 191.631L51.6975 194.45L54.5064 191.447L51.5141 188.629Z" fill="#FFE700"/>
<path d="M46.2183 187.853L46.3403 191.707L48.1995 189.719L46.2183 187.853Z" fill="#FFE700"/>
<path d="M51.3375 186.105L53.9435 188.558L56.4956 185.831L51.44 185.987L51.2253 185.997L46.1649 186.159L48.8829 188.72L51.3375 186.105Z" fill="#FFE700"/>
<path d="M49.2047 198.953L54.4798 198.787L51.7618 196.226L49.2047 198.953Z" fill="#FFE700"/>
<path d="M56.6709 191.374L53.1329 195.158L56.9051 198.713L60.4479 194.928L56.6709 191.374ZM55.9243 195.966L55.8706 194.184L57.6468 194.13L57.7055 195.912L55.9243 195.966Z" fill="#FFE700"/>
<path d="M61.8466 188.301L59.0378 191.303L62.03 194.122L64.8388 191.119L61.8466 188.301Z" fill="#FFE700"/>
<path d="M56.5515 187.532L54.6911 189.52L56.6728 191.387L58.5332 189.398L56.5515 187.532Z" fill="#FFE700"/>
<path d="M61.5558 185.67L56.4954 185.831L59.2184 188.392L61.668 185.772L64.274 188.235L66.831 185.503L61.7706 185.665L61.5558 185.67Z" fill="#FFE700"/>
<path d="M59.5405 198.63L64.8157 198.459L62.0975 195.898L59.5405 198.63Z" fill="#FFE700"/>
<path d="M67.0019 191.051L63.464 194.836L67.2361 198.39L70.7789 194.605L67.0019 191.051ZM66.2601 195.638L66.2015 193.856L67.9779 193.798L68.0364 195.58L66.2601 195.638Z" fill="#FFE700"/>
<path d="M72.1849 187.976L69.3759 190.978L72.368 193.796L75.1769 190.794L72.1849 187.976Z" fill="#FFE700"/>
<path d="M66.8825 187.202L65.0221 189.19L67.004 191.057L68.8643 189.069L66.8825 187.202Z" fill="#FFE700"/>
<path d="M71.8913 185.342L66.8308 185.503L69.5489 188.064L71.9987 185.444L74.6093 187.907L77.1664 185.175L72.106 185.337L71.8913 185.342Z" fill="#FFE700"/>
<path d="M69.8763 198.302L75.1466 198.131L72.4285 195.57L69.8763 198.302Z" fill="#FFE700"/>
<path d="M77.3376 190.718L73.7997 194.502L77.5718 198.057L81.1147 194.272L77.3376 190.718ZM76.591 195.305L76.5325 193.523L78.3087 193.464L78.3624 195.247L76.5861 195.305H76.591Z" fill="#FFE700"/>
<path d="M82.5106 187.651L79.7018 190.653L82.694 193.472L85.5028 190.469L82.5106 187.651Z" fill="#FFE700"/>
<path d="M77.2168 186.869L75.3565 188.857L77.3384 190.724L79.1987 188.735L77.2168 186.869Z" fill="#FFE700"/>
<path d="M82.2222 185.018L77.1665 185.175L79.8847 187.736L82.3344 185.121L84.9452 187.574L87.4974 184.847L82.4369 185.009L82.2222 185.018Z" fill="#FFE700"/>
<path d="M80.2068 197.969L85.482 197.802L82.7591 195.241L80.2068 197.969Z" fill="#FFE700"/>
<path d="M87.6682 190.389L84.1303 194.174L87.9024 197.724L91.4452 193.939L87.6682 190.389ZM86.9265 194.982L86.868 193.2L88.6442 193.141L88.6979 194.923L86.9216 194.982H86.9265Z" fill="#FFE700"/>
<path d="M92.8463 187.315L90.0375 190.317L93.0296 193.135L95.8384 190.133L92.8463 187.315Z" fill="#FFE700"/>
<path d="M87.5479 186.544L85.6875 188.532L87.6692 190.399L89.5296 188.411L87.5479 186.544Z" fill="#FFE700"/>
<path d="M92.5576 184.685L87.4972 184.847L90.2201 187.412L92.6649 184.788L95.2757 187.251L97.8279 184.519L92.7675 184.68L92.5576 184.685Z" fill="#FFE700"/>
<path d="M90.5422 197.646L95.8125 197.474L93.0944 194.914L90.5422 197.646Z" fill="#FFE700"/>
<path d="M97.9987 190.066L94.4656 193.851L98.2378 197.406L101.781 193.621L98.0036 190.066H97.9987ZM97.2569 194.649L97.1983 192.867L98.9747 192.813L99.0283 194.595L97.252 194.649H97.2569Z" fill="#FFE700"/>
<path d="M103.181 186.986L100.372 189.989L103.364 192.807L106.173 189.804L103.181 186.986Z" fill="#FFE700"/>
<path d="M97.8827 186.215L96.0224 188.204L98.004 190.07L99.8644 188.082L97.8827 186.215Z" fill="#FFE700"/>
<path d="M102.894 184.358L97.8282 184.519L100.551 187.08L103.001 184.461L105.612 186.919L108.164 184.191L103.103 184.353L102.894 184.358Z" fill="#FFE700"/>
<path d="M100.873 197.313L106.144 197.146L103.425 194.585L100.873 197.313Z" fill="#FFE700"/>
<path d="M108.335 189.733L104.792 193.518L108.564 197.073L112.112 193.293L108.335 189.738V189.733ZM107.593 194.321L107.534 192.539L109.311 192.485L109.364 194.267L107.588 194.321H107.593Z" fill="#FFE700"/>
<path d="M113.516 186.665L110.707 189.667L113.699 192.485L116.508 189.483L113.516 186.665Z" fill="#FFE700"/>
<path d="M108.214 185.891L106.353 187.879L108.335 189.746L110.195 187.758L108.214 185.891Z" fill="#FFE700"/>
<path d="M113.224 184.035L108.163 184.191L110.882 186.752L113.331 184.137L115.942 186.59L118.494 183.863L113.439 184.025L113.224 184.035Z" fill="#FFE700"/>
<path d="M111.204 196.985L116.479 196.818L113.761 194.258L111.204 196.985Z" fill="#FFE700"/>
<path d="M117.928 193.998L117.87 192.211L118.758 192.186L118.675 189.405L115.132 193.19L118.904 196.745L118.816 193.969L117.928 193.998Z" fill="#FFE700"/>
<path d="M118.675 189.405L118.548 185.557L116.694 187.545L118.675 189.405Z" fill="#FFE700"/>
<path d="M54.7337 207.448L56.0416 207.404L51.8693 203.472L47.9507 207.659L49.2536 207.62L51.9082 204.785L54.7337 207.448Z" fill="#FFE700"/>
<path d="M46.7014 203.639L46.8283 207.697L50.7469 203.506L46.7014 203.639Z" fill="#FFE700"/>
<path d="M51.9471 205.93L50.4002 207.581L53.5917 207.482L51.9471 205.93Z" fill="#FFE700"/>
<path d="M59.589 207.292L62.2389 204.457L65.0693 207.115L66.377 207.076L62.1998 203.144L58.2812 207.336L59.589 207.292Z" fill="#FFE700"/>
<path d="M61.0775 203.184L52.9867 203.438L57.1589 207.37L61.0775 203.184Z" fill="#FFE700"/>
<path d="M60.7312 207.257L63.9227 207.154L62.2781 205.602L60.7312 207.257Z" fill="#FFE700"/>
<path d="M63.2982 202.361L73.6289 202.033L83.9646 201.705L94.2953 201.377L104.631 201.049L114.962 200.721L119.007 200.594L118.988 199.972L114.947 200.099L104.611 200.427L94.2758 200.755L83.9451 201.083L73.6095 201.411L63.2786 201.739L52.943 202.067L46.6577 202.268L46.6772 202.885L52.9626 202.684L63.2982 202.361Z" fill="#FFE700"/>
<path d="M63.2589 201.235L73.5946 200.912L83.9302 200.579L94.2609 200.251L104.597 199.922L114.927 199.594L118.973 199.467L118.953 198.845L114.908 198.973L104.577 199.306L94.2414 199.629L83.9107 199.957L73.5751 200.29L63.2395 200.613L52.9086 200.946L46.6234 201.142L46.6429 201.764L52.9282 201.563L63.2589 201.235Z" fill="#FFE700"/>
<path d="M69.9201 206.963L72.5747 204.123L75.4002 206.792L76.708 206.748L72.5356 202.816L68.6123 207.007L69.9201 206.963Z" fill="#FFE700"/>
<path d="M71.413 202.85L63.3221 203.11L67.4944 207.042L71.413 202.85Z" fill="#FFE700"/>
<path d="M71.0665 206.924L74.258 206.826L72.6086 205.274L71.0665 206.924Z" fill="#FFE700"/>
<path d="M80.2554 206.635L82.91 203.8L85.7355 206.464L87.0433 206.42L82.8662 202.488L78.9476 206.674L80.2554 206.635Z" fill="#FFE700"/>
<path d="M81.7439 202.522L73.6578 202.782L77.8302 206.714L81.7439 202.522Z" fill="#FFE700"/>
<path d="M81.4023 206.596L84.5938 206.498L82.9443 204.946L81.4023 206.596Z" fill="#FFE700"/>
<path d="M90.5912 206.307L93.2411 203.472L96.0713 206.131L97.3744 206.091L93.202 202.16L89.2834 206.351L90.5912 206.307Z" fill="#FFE700"/>
<path d="M92.0798 202.194L83.9889 202.453L88.1612 206.385L92.0798 202.194Z" fill="#FFE700"/>
<path d="M91.7334 206.273L94.9249 206.17L93.2754 204.618L91.7334 206.273Z" fill="#FFE700"/>
<path d="M100.922 205.979L103.577 203.144L106.402 205.808L107.705 205.764L103.533 201.832L99.614 206.018L100.922 205.979Z" fill="#FFE700"/>
<path d="M102.415 201.867L94.3194 202.126L98.4967 206.053L102.415 201.867Z" fill="#FFE700"/>
<path d="M102.064 205.945L105.26 205.842L103.611 204.29L102.064 205.945Z" fill="#FFE700"/>
<path d="M111.253 205.651L113.907 202.816L116.733 205.48L118.041 205.436L113.868 201.504L109.95 205.69L111.253 205.651Z" fill="#FFE700"/>
<path d="M112.746 201.539L104.65 201.798L108.827 205.73L112.746 201.539Z" fill="#FFE700"/>
<path d="M112.394 205.617L115.591 205.514L113.946 203.962L112.394 205.617Z" fill="#FFE700"/>
<path d="M63.5225 209.509L73.8583 209.181L84.189 208.853L94.5197 208.525L104.855 208.197L115.186 207.869L119.236 207.742L119.183 206.151L115.137 206.278L104.802 206.606L94.471 206.934L84.1401 207.262L73.8045 207.59L63.4738 207.918L53.1381 208.246L46.8528 208.447L46.9016 210.038L53.1918 209.837L63.5225 209.509Z" fill="#FFE700"/>
<path d="M119.158 205.401L119.036 201.338L114.986 201.47L119.158 205.401Z" fill="#FFE700"/>
<path d="M53.9188 155.68L55.2266 155.636L51.0494 151.705L47.1309 155.896L48.4387 155.857L51.0933 153.022L53.9188 155.68Z" fill="#FFE700"/>
<path d="M45.8865 151.871L46.0134 155.93L49.9271 151.739L45.8865 151.871Z" fill="#FFE700"/>
<path d="M51.1277 154.167L49.5808 155.817L52.7722 155.719L51.1277 154.167Z" fill="#FFE700"/>
<path d="M58.7741 155.528L61.4238 152.689L64.2542 155.352L65.5621 155.313L61.3849 151.376L57.4614 155.568L58.7741 155.528Z" fill="#FFE700"/>
<path d="M60.2626 151.416L52.1717 151.675L56.344 155.602L60.2626 151.416Z" fill="#FFE700"/>
<path d="M59.9161 155.494L63.1076 155.386L61.4581 153.839L59.9161 155.494Z" fill="#FFE700"/>
<path d="M62.4785 150.593L72.8141 150.265L83.1448 149.937L93.4805 149.613L103.816 149.281L114.147 148.952L118.192 148.825L118.173 148.203L114.127 148.331L103.797 148.664L93.461 148.992L83.1303 149.315L72.7945 149.648L62.459 149.976L52.1282 150.299L45.8429 150.5L45.8575 151.122L52.1477 150.921L62.4785 150.593Z" fill="#FFE700"/>
<path d="M62.4439 149.467L72.7795 149.144L83.1103 148.816L93.4459 148.488L103.777 148.16L114.112 147.832L118.158 147.704L118.138 147.082L114.088 147.21L103.757 147.538L93.4264 147.866L83.0957 148.194L72.7601 148.522L62.4243 148.85L52.0936 149.178L45.8083 149.379L45.8229 149.996L52.1083 149.8L62.4439 149.467Z" fill="#FFE700"/>
<path d="M69.105 155.195L71.7597 152.36L74.5852 155.024L75.893 154.985L71.7158 151.053L67.7972 155.239L69.105 155.195Z" fill="#FFE700"/>
<path d="M70.5979 151.088L62.5022 151.342L66.6793 155.274L70.5979 151.088Z" fill="#FFE700"/>
<path d="M70.2515 155.161L73.4381 155.063L71.7935 153.506L70.2515 155.161Z" fill="#FFE700"/>
<path d="M79.4409 154.872L82.0907 152.037L84.921 154.696L86.2239 154.652L82.0516 150.725L78.133 154.911L79.4409 154.872Z" fill="#FFE700"/>
<path d="M80.9289 150.76L72.838 151.014L77.0152 154.946L80.9289 150.76Z" fill="#FFE700"/>
<path d="M89.7713 154.544L92.426 151.704L95.2515 154.368L96.5592 154.329L92.3821 150.397L88.4636 154.583L89.7713 154.544Z" fill="#FFE700"/>
<path d="M91.2649 150.431L83.1691 150.691L87.3463 154.623L91.2649 150.431Z" fill="#FFE700"/>
<path d="M90.9131 154.505L94.1094 154.402L92.46 152.855L90.9131 154.505Z" fill="#FFE700"/>
<path d="M100.102 154.211L102.757 151.376L105.582 154.039L106.89 154L102.717 150.069L98.7989 154.255L100.102 154.211Z" fill="#FFE700"/>
<path d="M101.595 150.103L93.5044 150.358L97.6767 154.29L101.595 150.103Z" fill="#FFE700"/>
<path d="M101.249 154.177L104.44 154.079L102.796 152.527L101.249 154.177Z" fill="#FFE700"/>
<path d="M110.437 153.888L113.087 151.053L115.918 153.712L117.225 153.668L113.053 149.736L109.13 153.927L110.437 153.888Z" fill="#FFE700"/>
<path d="M111.931 149.775L103.835 150.03L108.008 153.966L111.931 149.775Z" fill="#FFE700"/>
<path d="M111.58 153.849L114.776 153.751L113.127 152.199L111.58 153.849Z" fill="#FFE700"/>
<path d="M62.7075 157.747L73.0382 157.418L83.369 157.09L93.7046 156.762L104.04 156.434L114.371 156.101L118.416 155.979L118.368 154.383L114.322 154.51L103.987 154.843L93.6558 155.166L83.3202 155.499L72.9895 155.827L62.6587 156.15L52.3231 156.483L46.0378 156.679L46.0865 158.27L52.3719 158.075L62.7075 157.747Z" fill="#FFE700"/>
<path d="M118.343 153.633L118.216 149.574L114.171 149.702L118.343 153.633Z" fill="#FFE700"/>
</mask>
<g mask="url(#mask1_1470_111072)">
<path d="M65.6036 147.31L57.4459 210.327L105.365 189.553L97.9257 147.392L65.6036 147.31Z" fill="#FFE700"/>
</g>
<path d="M107.53 142.843H65.6728L65.0055 149.332H109.022L107.53 142.843Z" fill="#DB307A"/>
</svg>
