<svg width="95" height="95" viewBox="0 0 95 95" fill="none" xmlns="http://www.w3.org/2000/svg">
<path d="M47.972 77.5C64.397 77.5 77.712 64.1852 77.712 47.7603C77.712 31.3353 64.397 18.02 47.972 18.02C31.5471 18.02 18.2321 31.3353 18.2321 47.7603C18.2321 64.1852 31.5471 77.5 47.972 77.5Z" fill="white"/>
<path d="M48.302 77.5001C52.232 77.5001 56.1321 76.7205 59.7521 75.1905C63.2521 73.7205 66.4221 71.5705 69.1021 68.8805C71.7821 66.2005 73.932 63.0204 75.412 59.5304C76.942 55.9104 77.732 52.0102 77.722 48.0802V47.4303C77.722 43.5003 76.942 39.6001 75.412 35.9801C73.942 32.4801 71.7921 29.3105 69.1021 26.6305C66.4221 23.9505 63.2421 21.8104 59.7521 20.3204C56.1321 18.7904 52.232 18.0003 48.302 18.0103C48.082 18.0103 47.862 18.0103 47.652 18.0103V24.6202C47.862 24.6202 48.082 24.6202 48.302 24.6202C60.932 24.6302 71.172 34.8701 71.182 47.5001V48.0103C71.172 60.6403 60.932 70.8702 48.302 70.8902C48.082 70.8902 47.862 70.8902 47.652 70.8902V77.5001C47.882 77.5001 48.102 77.5001 48.302 77.5001Z" fill="#FF9800"/>
<path d="M47.642 77.5C31.412 77.51 18.2321 64.3704 18.2221 48.1304V47.4204C18.2121 31.1904 31.352 18.01 47.592 18H47.642C47.862 18 48.082 18 48.292 18V24.6104C48.082 24.6104 47.862 24.6104 47.642 24.6104C35.012 24.6204 24.7821 34.8602 24.7621 47.4902V48C24.7721 60.63 35.012 70.8604 47.642 70.8804C47.862 70.8804 48.082 70.8804 48.292 70.8804V77.4902C48.062 77.4902 47.842 77.4902 47.642 77.4902V77.5Z" fill="#32B8DE"/>
<g style="mix-blend-mode:multiply">
<path d="M22.0319 62.7002C21.6619 62.0702 21.322 61.4203 21.002 60.7603C13.822 45.9903 19.962 28.2003 34.722 21.0103C38.782 19.0303 43.242 18.0103 47.752 18.0103H47.972C59.152 18.0103 69.392 24.2802 74.472 34.2402C74.272 33.8402 74.052 33.4401 73.832 33.0601C71.752 33.6001 69.612 33.8804 67.462 33.8804C60.132 33.8804 53.1719 30.6701 48.4319 25.0801C47.0419 40.2401 34.282 51.82 19.062 51.73C18.802 51.73 18.5319 51.73 18.2719 51.73C18.7919 55.6 20.0619 59.3405 22.0319 62.7104V62.7002ZM77.6419 45.7803C77.5119 43.8403 77.202 41.91 76.692 40.04C76.572 39.58 76.4319 39.1304 76.2919 38.6904C77.0319 40.9904 77.4819 43.38 77.6419 45.79V45.7803Z" fill="#DB307A"/>
</g>
<path d="M56.4921 51.7202C57.9225 51.7202 59.082 50.5381 59.082 49.0801C59.082 47.622 57.9225 46.4404 56.4921 46.4404C55.0616 46.4404 53.902 47.622 53.902 49.0801C53.902 50.5381 55.0616 51.7202 56.4921 51.7202Z" fill="#333481"/>
<path d="M53.832 46.6603L63.152 50.0505C62.372 48.4405 61.002 47.1905 59.332 46.5505L59.0121 46.4304C57.3221 45.8404 55.472 45.9206 53.832 46.6506V46.6603Z" fill="#333481"/>
<path d="M58.1321 49.7402C58.6678 49.7402 59.1021 49.2968 59.1021 48.75C59.1021 48.2032 58.6678 47.7603 58.1321 47.7603C57.5964 47.7603 57.162 48.2032 57.162 48.75C57.162 49.2968 57.5964 49.7402 58.1321 49.7402Z" fill="white"/>
<path d="M56.892 48.4204C57.0742 48.4204 57.222 48.2726 57.222 48.0903C57.222 47.9081 57.0742 47.7603 56.892 47.7603C56.7097 47.7603 56.562 47.9081 56.562 48.0903C56.562 48.2726 56.7097 48.4204 56.892 48.4204Z" fill="white"/>
<path d="M40.6321 51.0601C42.0625 51.0601 43.222 49.8784 43.222 48.4204C43.222 46.9624 42.0625 45.7803 40.6321 45.7803C39.2017 45.7803 38.042 46.9624 38.042 48.4204C38.042 49.8784 39.2017 51.0601 40.6321 51.0601Z" fill="#333481"/>
<path d="M42.272 49.0801C42.8077 49.0801 43.2421 48.6371 43.2421 48.0903C43.2421 47.5436 42.8077 47.1001 42.272 47.1001C41.7363 47.1001 41.302 47.5436 41.302 48.0903C41.302 48.6371 41.7363 49.0801 42.272 49.0801Z" fill="white"/>
<path d="M41.032 47.7603C41.2142 47.7603 41.3621 47.6124 41.3621 47.4302C41.3621 47.2479 41.2142 47.1001 41.032 47.1001C40.8497 47.1001 40.702 47.2479 40.702 47.4302C40.702 47.6124 40.8497 47.7603 41.032 47.7603Z" fill="white"/>
<path d="M34.0121 49.39L43.332 45.9999C41.702 45.2699 39.852 45.1902 38.152 45.7802L37.832 45.9003C36.162 46.5303 34.7921 47.7903 34.0121 49.4003V49.39Z" fill="#333481"/>
<path d="M45.752 55.9604C45.602 55.6304 45.752 55.2303 46.082 55.0903C46.172 55.0503 46.262 55.0303 46.352 55.0303H50.1419C50.5019 55.0303 50.8019 55.3304 50.8019 55.6904C50.8019 55.7804 50.782 55.8804 50.742 55.9604L50.6819 56.1001C50.2119 57.0301 49.282 57.6304 48.252 57.6704H47.982C47.112 57.6304 46.3219 57.1301 45.9319 56.3501L45.762 55.9604H45.752Z" fill="#942483"/>
<path d="M46.412 54.6401C46.262 54.3101 46.4121 53.91 46.7421 53.77C46.8321 53.73 46.9221 53.7104 47.0121 53.7104H50.802C51.162 53.7104 51.4621 54.0101 51.4621 54.3701C51.4621 54.4601 51.442 54.5601 51.402 54.6401L51.3421 54.7803C50.8721 55.7103 49.942 56.3101 48.912 56.3501H48.6321C47.7621 56.3101 46.9721 55.8103 46.5821 55.0303L46.412 54.6401Z" fill="white"/>
<path d="M45.0121 62.3003H52.172L51.5021 63.02C50.7421 63.81 49.7021 64.2603 48.6021 64.2803C47.5021 64.2603 46.462 63.81 45.702 63.02L45.032 62.3003H45.0121Z" fill="#942483"/>
<path d="M43.402 62.3003L47.312 60.98L48.332 61.5C48.522 61.59 48.732 61.59 48.922 61.5L49.942 60.98L53.772 62.3003L52.6221 62.4502C49.9621 62.7902 47.2721 62.7902 44.6121 62.4502L43.392 62.29L43.402 62.3003Z" fill="#942483"/>
</svg>
