<?xml version="1.0" encoding="UTF-8" standalone="no"?>
<svg
   width="168"
   height="118"
   viewBox="0 0 168 118"
   fill="none"
   version="1.1"
   id="svg328"
   sodipodi:docname="mosaic.svg"
   inkscape:version="1.1.2 (0a00cf5339, 2022-02-04)"
   xmlns:inkscape="http://www.inkscape.org/namespaces/inkscape"
   xmlns:sodipodi="http://sodipodi.sourceforge.net/DTD/sodipodi-0.dtd"
   xmlns="http://www.w3.org/2000/svg"
   xmlns:svg="http://www.w3.org/2000/svg">
  <sodipodi:namedview
     id="namedview330"
     pagecolor="#ffffff"
     bordercolor="#666666"
     borderopacity="1.0"
     inkscape:pageshadow="2"
     inkscape:pageopacity="0.0"
     inkscape:pagecheckerboard="0"
     showgrid="false"
     inkscape:zoom="4.4915254"
     inkscape:cx="83.935849"
     inkscape:cy="59"
     inkscape:window-width="1366"
     inkscape:window-height="694"
     inkscape:window-x="0"
     inkscape:window-y="26"
     inkscape:window-maximized="1"
     inkscape:current-layer="g319" />
  <rect
     width="168"
     height="117.6"
     rx="58.8"
     fill="white"
     id="rect2" />
  <g
     clip-path="url(#clip0_93_419278)"
     id="g319">
    <rect
       x="6"
       y="4.19995"
       width="156"
       height="109.2"
       rx="54.6"
       fill="white"
       id="rect4" />
    <path
       fill-rule="evenodd"
       clip-rule="evenodd"
       d="M-5.11035 -118H173.11V209.232H-5.11035V-118Z"
       fill="#F9DC94"
       id="path6" />
    <mask
       id="mask0_93_419278"
       style="mask-type:luminance"
       maskUnits="userSpaceOnUse"
       x="-6"
       y="-118"
       width="180"
       height="328">
      <path
         fill-rule="evenodd"
         clip-rule="evenodd"
         d="M-5.11035 -118H173.11V209.232H-5.11035V-118Z"
         fill="white"
         id="path8" />
    </mask>
    <g
       mask="url(#mask0_93_419278)"
       id="g315">
      <g
         style="mix-blend-mode:luminosity"
         opacity="0.9"
         id="g313">
        <path
           d="M43.0205 46.2412H45.2754V48.5059L46.8711 50.1094L45.2754 51.7119V53.9785H43.0195L41.4248 55.5811L39.8301 53.9785H37.5742V51.7109L35.9795 50.1094L37.5742 48.5068V46.2412H39.8301L41.4248 44.6387L43.0205 46.2412Z"
           fill="#A2C72D"
           style="mix-blend-mode:multiply"
           id="path11" />
        <path
           d="M27.1738 80.946H31.5244V85.3162L34.6006 88.407L31.5244 91.4968V95.8669H27.1748L24.0986 98.9578L21.0225 95.8669H16.6729V91.4968L13.5967 88.407L16.6729 85.3162V80.946H21.0234L24.0986 77.8562L27.1738 80.946Z"
           fill="white"
           id="path13" />
        <path
           d="M27.6689 81.4434H32.0195V85.8135L35.0957 88.9043L32.0195 91.9941V96.3643H27.6699L24.5938 99.4551L21.5176 96.3643H17.168V91.9941L14.0918 88.9043L17.168 85.8135V81.4434H21.5186L24.5938 78.3535L27.6689 81.4434Z"
           fill="#A2C72D"
           style="mix-blend-mode:multiply"
           id="path15" />
        <path
           d="M26.1885 85.0359H28.4434V87.3005L30.0391 88.9041L28.4434 90.5066V92.7732H26.1875L24.5928 94.3757L22.998 92.7732H20.7422V90.5056L19.1475 88.9041L20.7422 87.3015V85.0359H22.998L24.5928 83.4333L26.1885 85.0359Z"
           fill="#A2C72D"
           style="mix-blend-mode:multiply"
           id="path17" />
        <path
           d="M5.3916 59.5593H9.74219V63.9294L12.8184 67.0203L9.74219 70.1101V74.4802H5.39258L2.31641 77.571L-0.759766 74.4802H-5.10938V70.1101L-8.18555 67.0203L-5.10938 63.9294V59.5593H-0.758789L2.31641 56.4695L5.3916 59.5593Z"
           fill="#F49200"
           style="mix-blend-mode:multiply"
           id="path19" />
        <path
           d="M27.1738 59.0618H31.5244V63.4319L34.6006 66.5227L31.5244 69.6125V73.9827H27.1748L24.0986 77.0735L21.0225 73.9827H16.6729V69.6125L13.5967 66.5227L16.6729 63.4319V59.0618H21.0234L24.0986 55.9719L27.1738 59.0618Z"
           fill="white"
           id="path21" />
        <path
           d="M27.6689 59.5591H32.0195V63.9292L35.0957 67.02L32.0195 70.1099V74.48H27.6699L24.5938 77.5708L21.5176 74.48H17.168V70.1099L14.0918 67.02L17.168 63.9292V59.5591H21.5186L24.5938 56.4692L27.6689 59.5591Z"
           fill="#F49200"
           style="mix-blend-mode:multiply"
           id="path23" />
        <path
           d="M83.1152 59.5593H87.4658V63.9294L90.542 67.0203L87.4658 70.1101V74.4802H83.1162L80.04 77.571L76.9639 74.4802H72.6143V70.1101L69.5381 67.0203L72.6143 63.9294V59.5593H76.9648L80.04 56.4695L83.1152 59.5593Z"
           fill="#F49200"
           style="mix-blend-mode:multiply"
           id="path25" />
        <path
           d="M44.0059 97.8564H48.3564V102.227L51.4326 105.317L48.3564 108.407V112.777H44.0068L40.9307 115.868L37.8545 112.777H33.5049V108.407L30.4287 105.317L33.5049 102.227V97.8564H37.8555L40.9307 94.7666L44.0059 97.8564Z"
           fill="white"
           id="path27" />
        <path
           d="M44.501 98.3538H48.8516V102.724L51.9277 105.815L48.8516 108.905V113.275H44.502L41.4258 116.365L38.3496 113.275H34V108.905L30.9238 105.815L34 102.724V98.3538H38.3506L41.4258 95.2639L44.501 98.3538Z"
           fill="#F49200"
           style="mix-blend-mode:multiply"
           id="path29" />
        <path
           d="M5.3916 81.4434H9.74219V85.8135L12.8184 88.9043L9.74219 91.9941V96.3643H5.39258L2.31641 99.4551L-0.759766 96.3643H-5.10938V91.9941L-8.18555 88.9043L-5.10938 85.8135V81.4434H-0.758789L2.31641 78.3535L5.3916 81.4434Z"
           fill="#A2C72D"
           style="mix-blend-mode:multiply"
           id="path31" />
        <path
           d="M3.91113 85.0356H6.16602V87.3003L7.76172 88.9038L6.16602 90.5063V92.7729H3.91016L2.31543 94.3755L0.720703 92.7729H-1.53516V90.5054L-3.12988 88.9038L-1.53516 87.3013V85.0356H0.720703L2.31543 83.4331L3.91113 85.0356Z"
           fill="#A2C72D"
           style="mix-blend-mode:multiply"
           id="path33" />
        <path
           d="M4.89648 3.35693H9.24707V7.72705L12.3232 10.8179L9.24707 13.9077V18.2778H4.89746L1.82129 21.3687L-1.25488 18.2778H-5.60449V13.9077L-8.68066 10.8179L-5.60449 7.72705V3.35693H-1.25391L1.82129 0.26709L4.89648 3.35693Z"
           fill="white"
           id="path35" />
        <path
           d="M5.3916 3.85425H9.74219V8.22437L12.8184 11.3152L9.74219 14.405V18.7751H5.39258L2.31641 21.866L-0.759766 18.7751H-5.10938V14.405L-8.18555 11.3152L-5.10938 8.22437V3.85425H-0.758789L2.31641 0.764404L5.3916 3.85425Z"
           fill="#A2C72D"
           style="mix-blend-mode:multiply"
           id="path37" />
        <path
           d="M3.91113 7.44678H6.16602V9.71143L7.76172 11.3149L6.16602 12.9175V15.1841H3.91016L2.31543 16.7866L0.720703 15.1841H-1.53516V12.9165L-3.12988 11.3149L-1.53516 9.7124V7.44678H0.720703L2.31543 5.84424L3.91113 7.44678Z"
           fill="#A2C72D"
           style="mix-blend-mode:multiply"
           id="path39" />
        <path
           d="M103.418 85.0356H105.673V87.3003L107.269 88.9038L105.673 90.5063V92.7729H103.417L101.822 94.3755L100.228 92.7729H97.9717V90.5054L96.377 88.9038L97.9717 87.3013V85.0356H100.228L101.822 83.4331L103.418 85.0356Z"
           fill="#A2C72D"
           style="mix-blend-mode:multiply"
           id="path41" />
        <path
           d="M82.6201 80.946H86.9707V85.3162L90.0469 88.407L86.9707 91.4968V95.8669H82.6211L79.5449 98.9578L76.4688 95.8669H72.1191V91.4968L69.043 88.407L72.1191 85.3162V80.946H76.4697L79.5449 77.8562L82.6201 80.946Z"
           fill="white"
           id="path43" />
        <path
           d="M83.1152 81.4434H87.4658V85.8135L90.542 88.9043L87.4658 91.9941V96.3643H83.1162L80.04 99.4551L76.9639 96.3643H72.6143V91.9941L69.5381 88.9043L72.6143 85.8135V81.4434H76.9648L80.04 78.3535L83.1152 81.4434Z"
           fill="#A2C72D"
           style="mix-blend-mode:multiply"
           id="path45" />
        <path
           d="M81.6353 85.0359H83.8901V87.3005L85.4858 88.9041L83.8901 90.5066V92.7732H81.6343L80.0396 94.3757L78.4448 92.7732H76.189V90.5056L74.5942 88.9041L76.189 87.3015V85.0359H78.4448L80.0396 83.4333L81.6353 85.0359Z"
           fill="#A2C72D"
           style="mix-blend-mode:multiply"
           id="path47" />
        <path
           d="M66.2832 42.6487H70.6338V47.0188L73.71 50.1096L70.6338 53.1995V57.5696H66.2842L63.208 60.6604L60.1318 57.5696H55.7822V53.1995L52.7061 50.1096L55.7822 47.0188V42.6487H60.1328L63.208 39.5588L66.2832 42.6487Z"
           fill="#A2C72D"
           style="mix-blend-mode:multiply"
           id="path49" />
        <path
           d="M64.3081 45.7437H66.563V48.0083L68.1587 49.6118L66.563 51.2144V53.481H64.3071L62.7124 55.0835L61.1177 53.481H58.8618V51.2134L57.2671 49.6118L58.8618 48.0093V45.7437H61.1177L62.7124 44.1411L64.3081 45.7437Z"
           fill="white"
           id="path51" />
        <path
           d="M64.8032 46.241H67.0581V48.5056L68.6538 50.1091L67.0581 51.7117V53.9783H64.8022L63.2075 55.5808L61.6128 53.9783H59.3569V51.7107L57.7622 50.1091L59.3569 48.5066V46.241H61.6128L63.2075 44.6384L64.8032 46.241Z"
           fill="#A2C72D"
           style="mix-blend-mode:multiply"
           id="path53" />
        <path
           fill-rule="evenodd"
           clip-rule="evenodd"
           d="M11.7217 96.3645H14.692V92.8829L13.2069 91.3909L11.7217 92.8829V96.3645Z"
           fill="#28B9CB"
           style="mix-blend-mode:multiply"
           id="path55" />
        <path
           fill-rule="evenodd"
           clip-rule="evenodd"
           d="M50.832 113.275H53.8024V109.793L52.3172 108.301L50.832 109.793V113.275Z"
           fill="#28B9CB"
           style="mix-blend-mode:multiply"
           id="path57" />
        <path
           fill-rule="evenodd"
           clip-rule="evenodd"
           d="M55.7822 40.6597V37.6755H59.2476L60.7328 39.1676L59.2476 40.6597H55.7822Z"
           fill="#28B9CB"
           style="mix-blend-mode:multiply"
           id="path59" />
        <rect
           x="53.8022"
           y="37.6753"
           width="2.98421"
           height="2.97034"
           transform="rotate(90 53.8022 37.6753)"
           fill="#E93081"
           style="mix-blend-mode:multiply"
           id="rect61" />
        <path
           fill-rule="evenodd"
           clip-rule="evenodd"
           d="M48.8516 40.6597V37.6755H45.3862L43.901 39.1676L45.3862 40.6597H48.8516Z"
           fill="#28B9CB"
           style="mix-blend-mode:multiply"
           id="path63" />
        <path
           fill-rule="evenodd"
           clip-rule="evenodd"
           d="M50.832 42.6489H53.8024V46.1305L52.3172 47.6226L50.832 46.1305V42.6489Z"
           fill="#28B9CB"
           style="mix-blend-mode:multiply"
           id="path65" />
        <rect
           x="53.8022"
           y="40.6597"
           width="2.97034"
           height="2.98421"
           transform="rotate(180 53.8022 40.6597)"
           fill="#E93081"
           style="mix-blend-mode:multiply"
           id="rect67" />
        <path
           fill-rule="evenodd"
           clip-rule="evenodd"
           d="M50.832 35.686H53.8024V32.2045L52.3172 30.7124L50.832 32.2045V35.686Z"
           fill="#28B9CB"
           style="mix-blend-mode:multiply"
           id="path69" />
        <path
           fill-rule="evenodd"
           clip-rule="evenodd"
           d="M16.6729 79.4541V76.4699H20.1383L21.6234 77.962L20.1383 79.4541H16.6729Z"
           fill="#28B9CB"
           style="mix-blend-mode:multiply"
           id="path71" />
        <rect
           x="14.6924"
           y="76.47"
           width="2.98421"
           height="2.97035"
           transform="rotate(90 14.6924 76.47)"
           fill="#E93081"
           style="mix-blend-mode:multiply"
           id="rect73" />
        <path
           fill-rule="evenodd"
           clip-rule="evenodd"
           d="M9.74219 79.4541V76.4699H6.27678L4.79161 77.962L6.27678 79.4541H9.74219Z"
           fill="#28B9CB"
           style="mix-blend-mode:multiply"
           id="path75" />
        <path
           fill-rule="evenodd"
           clip-rule="evenodd"
           d="M11.7227 81.4436H14.693V84.9252L13.2078 86.4173L11.7227 84.9252V81.4436Z"
           fill="#28B9CB"
           style="mix-blend-mode:multiply"
           id="path77" />
        <rect
           x="14.6934"
           y="79.4541"
           width="2.97035"
           height="2.98421"
           transform="rotate(180 14.6934 79.4541)"
           fill="#E93081"
           style="mix-blend-mode:multiply"
           id="rect79" />
        <path
           fill-rule="evenodd"
           clip-rule="evenodd"
           d="M11.7227 74.4805H14.693V70.9989L13.2078 69.5068L11.7227 70.9989V74.4805Z"
           fill="#28B9CB"
           style="mix-blend-mode:multiply"
           id="path81" />
        <path
           fill-rule="evenodd"
           clip-rule="evenodd"
           d="M94.3965 79.4541V76.4699H97.8619L99.3471 77.962L97.8619 79.4541H94.3965Z"
           fill="#28B9CB"
           style="mix-blend-mode:multiply"
           id="path83" />
        <rect
           x="92.416"
           y="76.47"
           width="2.98421"
           height="2.97034"
           transform="rotate(90 92.416 76.47)"
           fill="#E93081"
           style="mix-blend-mode:multiply"
           id="rect85" />
        <path
           fill-rule="evenodd"
           clip-rule="evenodd"
           d="M87.4653 79.4541V76.4699H83.9999L82.5148 77.962L83.9999 79.4541H87.4653Z"
           fill="#28B9CB"
           style="mix-blend-mode:multiply"
           id="path87" />
        <path
           fill-rule="evenodd"
           clip-rule="evenodd"
           d="M89.4463 81.4438H92.4166V84.9254L90.9315 86.4175L89.4463 84.9254V81.4438Z"
           fill="#28B9CB"
           style="mix-blend-mode:multiply"
           id="path89" />
        <rect
           x="92.4165"
           y="79.4543"
           width="2.97034"
           height="2.98421"
           transform="rotate(180 92.4165 79.4543)"
           fill="#E93081"
           style="mix-blend-mode:multiply"
           id="rect91" />
        <path
           fill-rule="evenodd"
           clip-rule="evenodd"
           d="M89.4463 74.4807H92.4166V70.9992L90.9315 69.5071L89.4463 70.9992V74.4807Z"
           fill="#28B9CB"
           style="mix-blend-mode:multiply"
           id="path93" />
        <path
           fill-rule="evenodd"
           clip-rule="evenodd"
           d="M32.0186 79.4541V76.4699H28.5532L27.068 77.962L28.5532 79.4541H32.0186Z"
           fill="#28B9CB"
           style="mix-blend-mode:multiply"
           id="path95" />
        <path
           d="M54.3164 72.7595H57.4951V75.9529L59.7422 78.2107L57.4951 80.4675V83.6619H54.3164L52.0693 85.9197L49.8223 83.6619H46.6426V80.4675L44.3955 78.2107L46.6426 75.9529V72.7595H49.8223L52.0693 70.5017L54.3164 72.7595Z"
           fill="#F49200"
           style="mix-blend-mode:multiply"
           id="path97" />
        <path
           fill-rule="evenodd"
           clip-rule="evenodd"
           d="M41.4248 92.8829L44.4406 95.8671H48.3556V90.8935L50.3358 88.904L48.3556 86.9146H44.4406V89.8987L41.4248 92.8829Z"
           fill="white"
           id="path99" />
        <path
           fill-rule="evenodd"
           clip-rule="evenodd"
           d="M62.3232 92.6343L59.2473 95.8671H55.2869V90.8935L53.3067 88.904L55.2869 86.9146H59.2019V89.4014L62.3232 92.6343Z"
           fill="white"
           id="path101" />
        <path
           fill-rule="evenodd"
           clip-rule="evenodd"
           d="M50.3364 95.8672H53.3068V91.3909L51.8216 89.8988L50.3364 91.3909V95.8672Z"
           fill="white"
           id="path103" />
        <path
           fill-rule="evenodd"
           clip-rule="evenodd"
           d="M50.3364 97.8567H53.3068V102.333L51.8216 103.825L50.3364 102.333V97.8567Z"
           fill="white"
           id="path105" />
        <path
           fill-rule="evenodd"
           clip-rule="evenodd"
           d="M41.9199 93.3802L44.9357 96.3644H48.8507V91.3908L50.831 89.4013L48.8507 87.4119H44.9357V90.3961L41.9199 93.3802Z"
           fill="#E93081"
           style="mix-blend-mode:multiply"
           id="path107" />
        <path
           fill-rule="evenodd"
           clip-rule="evenodd"
           d="M62.8184 93.1316L59.7425 96.3644H55.782V91.3908L53.8018 89.4013L55.782 87.4119H59.697V89.8987L62.8184 93.1316Z"
           fill="#E93081"
           style="mix-blend-mode:multiply"
           id="path109" />
        <path
           fill-rule="evenodd"
           clip-rule="evenodd"
           d="M50.8311 96.3645H53.8014V91.8882L52.3162 90.3961L50.8311 91.8882V96.3645Z"
           fill="#28B9CB"
           style="mix-blend-mode:multiply"
           id="path111" />
        <path
           fill-rule="evenodd"
           clip-rule="evenodd"
           d="M50.8311 98.354H53.8014V102.83L52.3162 104.322L50.8311 102.83V98.354Z"
           fill="#28B9CB"
           style="mix-blend-mode:multiply"
           id="path113" />
        <path
           fill-rule="evenodd"
           clip-rule="evenodd"
           d="M41.0293 62.2952L44.3957 59.0623H48.3562V64.036L50.3364 66.0254L48.3562 68.0149L44.3957 68.0149V65.5281L41.0293 62.2952Z"
           fill="white"
           id="path115" />
        <path
           fill-rule="evenodd"
           clip-rule="evenodd"
           d="M62.7129 62.0465L59.2475 59.0623H55.287V64.036L53.3068 66.0254L55.287 68.0149L59.2475 68.0149V65.5281L62.7129 62.0465Z"
           fill="white"
           id="path117" />
        <path
           fill-rule="evenodd"
           clip-rule="evenodd"
           d="M50.3364 59.0623H53.3068V63.5386L51.8216 65.0307L50.3364 63.5386V59.0623Z"
           fill="white"
           id="path119" />
        <path
           fill-rule="evenodd"
           clip-rule="evenodd"
           d="M50.3364 57.073H53.3068V52.5967L51.8216 51.1046L50.3364 52.5967V57.073Z"
           fill="white"
           id="path121" />
        <path
           fill-rule="evenodd"
           clip-rule="evenodd"
           d="M41.5244 62.7925L44.8908 59.5596H48.8513V64.5333L50.8315 66.5227L48.8513 68.5122L44.8908 68.5122V66.0254L41.5244 62.7925Z"
           fill="#E93081"
           style="mix-blend-mode:multiply"
           id="path123" />
        <path
           fill-rule="evenodd"
           clip-rule="evenodd"
           d="M63.208 62.5438L59.7426 59.5596H55.7821V64.5333L53.8019 66.5227L55.7821 68.5122L59.7426 68.5122V66.0254L63.208 62.5438Z"
           fill="#E93081"
           style="mix-blend-mode:multiply"
           id="path125" />
        <path
           fill-rule="evenodd"
           clip-rule="evenodd"
           d="M50.8315 59.5598H53.8019V64.0361L52.3167 65.5282L50.8315 64.0361V59.5598Z"
           fill="#28B9CB"
           style="mix-blend-mode:multiply"
           id="path127" />
        <path
           fill-rule="evenodd"
           clip-rule="evenodd"
           d="M50.8315 57.5703H53.8019V53.094L52.3167 51.6019L50.8315 53.094V57.5703Z"
           fill="#28B9CB"
           style="mix-blend-mode:multiply"
           id="path129" />
        <path
           fill-rule="evenodd"
           clip-rule="evenodd"
           d="M65.8633 65.4678L63.7629 63.3576L60.6124 66.5228L60.6124 68.633L62.7128 68.633L65.8633 65.4678Z"
           fill="white"
           id="path131" />
        <path
           fill-rule="evenodd"
           clip-rule="evenodd"
           d="M37.7793 65.4678L39.8796 63.3576L43.0302 66.5228L43.0302 68.633L40.9298 68.633L37.7793 65.4678Z"
           fill="white"
           id="path133" />
        <path
           fill-rule="evenodd"
           clip-rule="evenodd"
           d="M65.0078 92.8228L67.1082 90.7126L70.2587 93.8778L70.2587 95.988L68.1583 95.988L65.0078 92.8228Z"
           fill="white"
           id="path135" />
        <path
           fill-rule="evenodd"
           clip-rule="evenodd"
           d="M37.7393 89.5825L39.8396 91.6927L42.9901 88.5274V86.4173H40.8898L37.7393 89.5825Z"
           fill="white"
           id="path137" />
        <path
           fill-rule="evenodd"
           clip-rule="evenodd"
           d="M64.9673 62.2275L67.0676 64.3377L70.2182 61.1725L70.2182 59.0623L68.1178 59.0623L64.9673 62.2275Z"
           fill="white"
           id="path139" />
        <path
           fill-rule="evenodd"
           clip-rule="evenodd"
           d="M38.5947 62.2275L36.4944 64.3377L33.3438 61.1725L33.3438 59.0623L35.4442 59.0623L38.5947 62.2275Z"
           fill="white"
           id="path141" />
        <path
           fill-rule="evenodd"
           clip-rule="evenodd"
           d="M65.8228 89.0852L63.7224 91.1953L60.5719 88.0301L60.5719 85.92L62.6722 85.92L65.8228 89.0852Z"
           fill="white"
           id="path143" />
        <path
           fill-rule="evenodd"
           clip-rule="evenodd"
           d="M66.3584 65.9651L64.258 63.8549L61.1075 67.0202L61.1075 69.1303L63.2079 69.1303L66.3584 65.9651Z"
           fill="#28B9CB"
           style="mix-blend-mode:multiply"
           id="path145" />
        <path
           fill-rule="evenodd"
           clip-rule="evenodd"
           d="M38.2744 65.9651L40.3748 63.8549L43.5253 67.0202L43.5253 69.1303L41.4249 69.1303L38.2744 65.9651Z"
           fill="#28B9CB"
           style="mix-blend-mode:multiply"
           id="path147" />
        <path
           fill-rule="evenodd"
           clip-rule="evenodd"
           d="M65.5029 93.3201L67.6033 91.2099L70.7538 94.3751L70.7538 96.4853L68.6535 96.4853L65.5029 93.3201Z"
           fill="#28B9CB"
           style="mix-blend-mode:multiply"
           id="path149" />
        <path
           fill-rule="evenodd"
           clip-rule="evenodd"
           d="M38.2344 90.0798L40.3347 92.19L43.4853 89.0248L43.4853 86.9146L41.3849 86.9146L38.2344 90.0798Z"
           fill="#28B9CB"
           style="mix-blend-mode:multiply"
           id="path151" />
        <path
           fill-rule="evenodd"
           clip-rule="evenodd"
           d="M65.4624 62.7249L67.5628 64.835L70.7133 61.6698L70.7133 59.5596L68.6129 59.5596L65.4624 62.7249Z"
           fill="#28B9CB"
           style="mix-blend-mode:multiply"
           id="path153" />
        <path
           fill-rule="evenodd"
           clip-rule="evenodd"
           d="M39.0898 62.7249L36.9895 64.835L33.839 61.6698V59.5596H35.9393L39.0898 62.7249Z"
           fill="#28B9CB"
           style="mix-blend-mode:multiply"
           id="path155" />
        <path
           fill-rule="evenodd"
           clip-rule="evenodd"
           d="M66.3179 89.5825L64.2175 91.6927L61.067 88.5274L61.067 86.4173L63.1673 86.4173L66.3179 89.5825Z"
           fill="#28B9CB"
           style="mix-blend-mode:multiply"
           id="path157" />
        <path
           fill-rule="evenodd"
           clip-rule="evenodd"
           d="M36.7516 87.9097L33.504 84.8798V80.9466H38.4546L40.4348 78.9571L42.415 81.0233V84.9255H39.9398L36.7516 87.9097Z"
           fill="white"
           id="path159" />
        <path
           fill-rule="evenodd"
           clip-rule="evenodd"
           d="M36.7219 66.5229L33.504 70.0045V73.9834H38.4546L40.4348 75.9729L42.415 73.9834V70.0045H40.4348L36.7219 66.5229Z"
           fill="white"
           id="path161" />
        <path
           fill-rule="evenodd"
           clip-rule="evenodd"
           d="M33.5039 78.957V75.9728H37.9594L39.4446 77.4649L37.9594 78.957H33.5039Z"
           fill="white"
           id="path163" />
        <path
           fill-rule="evenodd"
           clip-rule="evenodd"
           d="M37.2467 88.407L33.9991 85.3771V81.4439H38.9497L40.9299 79.4544L42.9102 81.5206V85.4228H40.4349L37.2467 88.407Z"
           fill="#E93081"
           style="mix-blend-mode:multiply"
           id="path165" />
        <path
           fill-rule="evenodd"
           clip-rule="evenodd"
           d="M37.217 67.0203L33.9991 70.5018V74.4807H38.9497L40.9299 76.4702L42.9102 74.4807V70.5018H40.9299L37.217 67.0203Z"
           fill="#E93081"
           style="mix-blend-mode:multiply"
           id="path167" />
        <path
           fill-rule="evenodd"
           clip-rule="evenodd"
           d="M33.999 79.4543V76.4701H38.4545L39.9397 77.9622L38.4545 79.4543H33.999Z"
           fill="#28B9CB"
           style="mix-blend-mode:multiply"
           id="path169" />
        <path
           fill-rule="evenodd"
           clip-rule="evenodd"
           d="M66.6737 87.4121L70.1391 84.8649V80.9464H65.1885L63.2083 78.9569L61.228 80.9464V84.8796H63.7033L66.6737 87.4121Z"
           fill="white"
           id="path171" />
        <path
           fill-rule="evenodd"
           clip-rule="evenodd"
           d="M70.6338 78.9568V75.9726H66.1783L64.6931 77.4647L66.1783 78.9568H70.6338Z"
           fill="white"
           id="path173" />
        <path
           fill-rule="evenodd"
           clip-rule="evenodd"
           d="M67.1688 87.9094L70.6342 85.3623V81.4437H65.6836L63.7034 79.4542L61.7231 81.4437V85.377H64.1984L67.1688 87.9094Z"
           fill="#E93081"
           style="mix-blend-mode:multiply"
           id="path175" />
        <path
           fill-rule="evenodd"
           clip-rule="evenodd"
           d="M71.1289 79.4541V76.4699H66.6734L65.1882 77.962L66.6734 79.4541H71.1289Z"
           fill="#28B9CB"
           style="mix-blend-mode:multiply"
           id="path177" />
        <path
           fill-rule="evenodd"
           clip-rule="evenodd"
           d="M80.5347 54.5861L83.5504 57.5703H87.4655V52.5966L89.4457 50.6071L87.4655 48.6177H83.5504V51.6019L80.5347 54.5861Z"
           fill="#E93081"
           style="mix-blend-mode:multiply"
           id="path179" />
        <path
           fill-rule="evenodd"
           clip-rule="evenodd"
           d="M89.4453 57.5703H92.4157V53.094L90.9305 51.6019L89.4453 53.094V57.5703Z"
           fill="#28B9CB"
           style="mix-blend-mode:multiply"
           id="path181" />
        <path
           fill-rule="evenodd"
           clip-rule="evenodd"
           d="M89.4453 59.5598H92.4157V64.0361L90.9305 65.5282L89.4453 64.0361V59.5598Z"
           fill="#28B9CB"
           style="mix-blend-mode:multiply"
           id="path183" />
        <path
           fill-rule="evenodd"
           clip-rule="evenodd"
           d="M77.2495 54.5256L75.1492 52.4155L71.9986 55.5807L71.9986 57.6908L74.099 57.6908L77.2495 54.5256Z"
           fill="white"
           id="path185" />
        <path
           fill-rule="evenodd"
           clip-rule="evenodd"
           d="M76.353 50.7881L78.4534 52.8982L81.6039 49.733L81.6039 47.6229L79.5036 47.6229L76.353 50.7881Z"
           fill="white"
           id="path187" />
        <path
           fill-rule="evenodd"
           clip-rule="evenodd"
           d="M77.7441 55.0232L75.6438 52.9131L72.4933 56.0783L72.4933 58.1884L74.5936 58.1884L77.7441 55.0232Z"
           fill="#28B9CB"
           style="mix-blend-mode:multiply"
           id="path189" />
        <path
           fill-rule="evenodd"
           clip-rule="evenodd"
           d="M76.8481 51.2856L78.9485 53.3958L82.099 50.2306L82.099 48.1204L79.9987 48.1204L76.8481 51.2856Z"
           fill="#28B9CB"
           style="mix-blend-mode:multiply"
           id="path191" />
        <path
           d="M15.7871 31.2095H20.1377V35.5796L23.2139 38.6704L20.1377 41.7603V46.1304H15.7881L12.7119 49.2212L9.63574 46.1304H5.28613V41.7603L2.20996 38.6704L5.28613 35.5796V31.2095H9.63672L12.7119 28.1196L15.7871 31.2095Z"
           fill="white"
           id="path193" />
        <path
           d="M16.2822 31.7068H20.6328V36.0769L23.709 39.1677L20.6328 42.2576V46.6277H16.2832L13.207 49.7185L10.1309 46.6277H5.78125V42.2576L2.70508 39.1677L5.78125 36.0769V31.7068H10.1318L13.207 28.6169L16.2822 31.7068Z"
           fill="#A2C72D"
           style="mix-blend-mode:multiply"
           id="path195" />
        <path
           d="M14.8018 35.2993H17.0566V37.564L18.6523 39.1675L17.0566 40.77V43.0366H14.8008L13.2061 44.6392L11.6113 43.0366H9.35547V40.769L7.76074 39.1675L9.35547 37.5649V35.2993H11.6113L13.2061 33.6968L14.8018 35.2993Z"
           fill="#A2C72D"
           style="mix-blend-mode:multiply"
           id="path197" />
        <path
           fill-rule="evenodd"
           clip-rule="evenodd"
           d="M2.31641 54.0887L5.33218 57.0729H9.24721V52.0993L11.2274 50.1098L9.24721 48.1204H5.33218V51.1046L2.31641 54.0887Z"
           fill="white"
           id="path199" />
        <path
           fill-rule="evenodd"
           clip-rule="evenodd"
           d="M23.2139 53.8401L20.138 57.0729H16.1775V52.0993L14.1973 50.1098L16.1775 48.1204H20.0925V50.6072L23.2139 53.8401Z"
           fill="white"
           id="path201" />
        <path
           fill-rule="evenodd"
           clip-rule="evenodd"
           d="M11.2275 57.073H14.1979V52.5967L12.7127 51.1046L11.2275 52.5967V57.073Z"
           fill="white"
           id="path203" />
        <path
           fill-rule="evenodd"
           clip-rule="evenodd"
           d="M11.2275 59.0623H14.1979V63.5386L12.7127 65.0307L11.2275 63.5386V59.0623Z"
           fill="white"
           id="path205" />
        <path
           fill-rule="evenodd"
           clip-rule="evenodd"
           d="M2.81152 54.5861L5.8273 57.5703H9.74233V52.5966L11.7226 50.6071L9.74233 48.6177H5.8273V51.6019L2.81152 54.5861Z"
           fill="#E93081"
           style="mix-blend-mode:multiply"
           id="path207" />
        <path
           fill-rule="evenodd"
           clip-rule="evenodd"
           d="M23.709 54.3374L20.6331 57.5703H16.6726V52.5966L14.6924 50.6071L16.6726 48.6177H20.5877V51.1045L23.709 54.3374Z"
           fill="#E93081"
           style="mix-blend-mode:multiply"
           id="path209" />
        <path
           fill-rule="evenodd"
           clip-rule="evenodd"
           d="M11.7227 57.5703H14.693V53.094L13.2078 51.6019L11.7227 53.094V57.5703Z"
           fill="#28B9CB"
           style="mix-blend-mode:multiply"
           id="path211" />
        <path
           fill-rule="evenodd"
           clip-rule="evenodd"
           d="M11.7227 59.5598H14.693V64.0361L13.2078 65.5282L11.7227 64.0361V59.5598Z"
           fill="#28B9CB"
           style="mix-blend-mode:multiply"
           id="path213" />
        <path
           fill-rule="evenodd"
           clip-rule="evenodd"
           d="M1.91992 23.5007L5.28631 20.2679H9.24678V25.2415L11.227 27.231L9.24678 29.2205L5.28631 29.2205V26.7336L1.91992 23.5007Z"
           fill="white"
           id="path215" />
        <path
           fill-rule="evenodd"
           clip-rule="evenodd"
           d="M23.6025 23.2521L20.1371 20.2679H16.1767V25.2415L14.1964 27.231L16.1767 29.2205L20.1371 29.2205V26.7336L23.6025 23.2521Z"
           fill="white"
           id="path217" />
        <path
           fill-rule="evenodd"
           clip-rule="evenodd"
           d="M11.2266 20.2678L14.1969 20.2678V24.7441L12.7117 26.2362L11.2266 24.7441V20.2678Z"
           fill="white"
           id="path219" />
        <path
           fill-rule="evenodd"
           clip-rule="evenodd"
           d="M2.41406 23.9981L5.78045 20.7652H9.74091V25.7389L11.7211 27.7283L9.74091 29.7178L5.78045 29.7178V27.2309L2.41406 23.9981Z"
           fill="#E93081"
           style="mix-blend-mode:multiply"
           id="path221" />
        <path
           fill-rule="evenodd"
           clip-rule="evenodd"
           d="M24.0977 23.7494L20.6323 20.7652H16.6718V25.7389L14.6916 27.7283L16.6718 29.7178L20.6323 29.7178V27.2309L24.0977 23.7494Z"
           fill="#E93081"
           style="mix-blend-mode:multiply"
           id="path223" />
        <path
           fill-rule="evenodd"
           clip-rule="evenodd"
           d="M11.7217 20.7651L14.692 20.7651V25.2414L13.2069 26.7335L11.7217 25.2414V20.7651Z"
           fill="#28B9CB"
           style="mix-blend-mode:multiply"
           id="path225" />
        <path
           fill-rule="evenodd"
           clip-rule="evenodd"
           d="M26.7539 26.176L24.6536 24.0659L21.503 27.2311L21.503 29.3412L23.6034 29.3412L26.7539 26.176Z"
           fill="white"
           id="path227" />
        <path
           fill-rule="evenodd"
           clip-rule="evenodd"
           d="M26.7129 49.7935L24.6125 51.9036L21.462 48.7384L21.462 46.6282L23.5624 46.6282L26.7129 49.7935Z"
           fill="white"
           id="path229" />
        <path
           fill-rule="evenodd"
           clip-rule="evenodd"
           d="M26.0781 53.2146L28.1785 51.1045L31.329 54.2697L31.329 56.3798L29.2287 56.3798L26.0781 53.2146Z"
           fill="white"
           id="path231" />
        <path
           fill-rule="evenodd"
           clip-rule="evenodd"
           d="M27.249 27.1707L25.1487 25.0605L21.9981 28.2257L21.9981 30.3359L24.0985 30.3359L27.249 27.1707Z"
           fill="#28B9CB"
           style="mix-blend-mode:multiply"
           id="path233" />
        <path
           fill-rule="evenodd"
           clip-rule="evenodd"
           d="M27.208 50.7881L25.1077 52.8982L21.9571 49.733L21.9571 47.6229L24.0575 47.6229L27.208 50.7881Z"
           fill="#28B9CB"
           style="mix-blend-mode:multiply"
           id="path235" />
        <path
           fill-rule="evenodd"
           clip-rule="evenodd"
           d="M26.5732 54.2095L28.6736 52.0993L31.8241 55.2645L31.8241 57.3747L29.7238 57.3747L26.5732 54.2095Z"
           fill="#28B9CB"
           style="mix-blend-mode:multiply"
           id="path237" />
        <path
           fill-rule="evenodd"
           clip-rule="evenodd"
           d="M27.5638 48.6177L31.0292 46.0705V42.1519H26.0786L24.0984 40.1625L22.1182 42.1519V46.0852H24.5935L27.5638 48.6177Z"
           fill="white"
           id="path239" />
        <path
           fill-rule="evenodd"
           clip-rule="evenodd"
           d="M27.8114 28.1196L31.5243 31.2099V35.1888H26.5737L24.5935 37.1783L22.6133 35.1888V31.2099H24.5935L27.8114 28.1196Z"
           fill="white"
           id="path241" />
        <path
           fill-rule="evenodd"
           clip-rule="evenodd"
           d="M33.5039 37.1782V40.1624H37.4644L38.9495 38.6703L37.4644 37.1782L33.5039 37.1782Z"
           fill="white"
           id="path243" />
        <path
           fill-rule="evenodd"
           clip-rule="evenodd"
           d="M28.0589 49.115L31.5243 46.5678V42.6492H26.5737L24.5935 40.6598L22.6133 42.6492V46.5825H25.0886L28.0589 49.115Z"
           fill="#E93081"
           style="mix-blend-mode:multiply"
           id="path245" />
        <path
           fill-rule="evenodd"
           clip-rule="evenodd"
           d="M28.3065 28.6169L32.0194 31.7072V35.6861H27.0689L25.0886 37.6756L23.1084 35.6861V31.7072H25.0886L28.3065 28.6169Z"
           fill="#E93081"
           style="mix-blend-mode:multiply"
           id="path247" />
        <path
           fill-rule="evenodd"
           clip-rule="evenodd"
           d="M33.999 37.6755V40.6597H37.9595L39.4447 39.1676L37.9595 37.6755L33.999 37.6755Z"
           fill="#28B9CB"
           style="mix-blend-mode:multiply"
           id="path249" />
        <path
           d="M93.5107 108.799H97.8613V113.169L100.938 116.26L97.8613 119.349V123.719H93.5117L90.4355 126.81L87.3594 123.719H83.0098V119.349L79.9336 116.26L83.0098 113.169V108.799H87.3604L90.4355 105.709L93.5107 108.799Z"
           fill="white"
           id="path251" />
        <path
           d="M94.0059 109.296H98.3564V113.666L101.433 116.757L98.3564 119.847V124.217H94.0068L90.9307 127.308L87.8545 124.217H83.5049V119.847L80.4287 116.757L83.5049 113.666V109.296H87.8555L90.9307 106.206L94.0059 109.296Z"
           fill="#A2C72D"
           style="mix-blend-mode:multiply"
           id="path253" />
        <path
           d="M92.5259 112.888H94.7808V115.153L96.3765 116.757L94.7808 118.359V120.626H92.5249L90.9302 122.228L89.3354 120.626H87.0796V118.358L85.4849 116.757L87.0796 115.154V112.888H89.3354L90.9302 111.286L92.5259 112.888Z"
           fill="#A2C72D"
           style="mix-blend-mode:multiply"
           id="path255" />
        <path
           fill-rule="evenodd"
           clip-rule="evenodd"
           d="M79.6436 101.09L83.0099 97.857H86.9704V102.831L88.9506 104.82L86.9704 106.81L83.0099 106.81V104.323L79.6436 101.09Z"
           fill="white"
           id="path257" />
        <path
           fill-rule="evenodd"
           clip-rule="evenodd"
           d="M101.327 100.841L97.8617 97.857H93.9013V102.831L91.9211 104.82L93.9013 106.81L97.8617 106.81V104.323L101.327 100.841Z"
           fill="white"
           id="path259" />
        <path
           fill-rule="evenodd"
           clip-rule="evenodd"
           d="M88.9507 97.8569H91.921V102.333L90.4359 103.825L88.9507 102.333V97.8569Z"
           fill="white"
           id="path261" />
        <path
           fill-rule="evenodd"
           clip-rule="evenodd"
           d="M80.1387 101.587L83.5051 98.3543H87.4655V103.328L89.4458 105.317L87.4655 107.307L83.5051 107.307V104.82L80.1387 101.587Z"
           fill="#E93081"
           style="mix-blend-mode:multiply"
           id="path263" />
        <path
           fill-rule="evenodd"
           clip-rule="evenodd"
           d="M101.822 101.339L98.3569 98.3543H94.3964V103.328L92.4162 105.317L94.3964 107.307L98.3569 107.307V104.82L101.822 101.339Z"
           fill="#E93081"
           style="mix-blend-mode:multiply"
           id="path265" />
        <path
           fill-rule="evenodd"
           clip-rule="evenodd"
           d="M89.4458 98.3542H92.4161V102.831L90.931 104.323L89.4458 102.831V98.3542Z"
           fill="#28B9CB"
           style="mix-blend-mode:multiply"
           id="path267" />
        <path
           fill-rule="evenodd"
           clip-rule="evenodd"
           d="M77.2085 100.525L75.1081 102.635L71.9576 99.4696L71.9576 97.3594L74.058 97.3594L77.2085 100.525Z"
           fill="white"
           id="path269" />
        <path
           fill-rule="evenodd"
           clip-rule="evenodd"
           d="M104.478 103.765L102.377 101.655L99.2267 104.82L99.2267 106.93L101.327 106.93L104.478 103.765Z"
           fill="white"
           id="path271" />
        <path
           fill-rule="evenodd"
           clip-rule="evenodd"
           d="M76.3936 103.765L78.4939 101.655L81.6444 104.82L81.6444 106.93L79.5441 106.93L76.3936 103.765Z"
           fill="white"
           id="path273" />
        <path
           fill-rule="evenodd"
           clip-rule="evenodd"
           d="M77.7036 101.52L75.6033 103.63L72.4527 100.464V98.3543H74.5531L77.7036 101.52Z"
           fill="#28B9CB"
           style="mix-blend-mode:multiply"
           id="path275" />
        <path
           fill-rule="evenodd"
           clip-rule="evenodd"
           d="M104.973 104.76L102.872 102.65L99.7218 105.815L99.7218 107.925L101.822 107.925L104.973 104.76Z"
           fill="#28B9CB"
           style="mix-blend-mode:multiply"
           id="path277" />
        <path
           fill-rule="evenodd"
           clip-rule="evenodd"
           d="M76.8887 104.76L78.989 102.65L82.1395 105.815V107.925H80.0392L76.8887 104.76Z"
           fill="#28B9CB"
           style="mix-blend-mode:multiply"
           id="path279" />
        <path
           fill-rule="evenodd"
           clip-rule="evenodd"
           d="M75.3366 105.317L72.1187 108.799V112.778H77.0693L79.0496 114.767L81.0298 112.778V108.799H79.0496L75.3366 105.317Z"
           fill="white"
           id="path281" />
        <path
           fill-rule="evenodd"
           clip-rule="evenodd"
           d="M75.8317 105.815L72.6139 109.296V113.275H77.5644L79.5447 115.265L81.5249 113.275V109.296H79.5447L75.8317 105.815Z"
           fill="#E93081"
           style="mix-blend-mode:multiply"
           id="path283" />
        <path
           fill-rule="evenodd"
           clip-rule="evenodd"
           d="M105.535 105.708L109.248 108.799V112.778H104.297L102.317 114.767L100.337 112.778V108.799H102.317L105.535 105.708Z"
           fill="white"
           id="path285" />
        <path
           fill-rule="evenodd"
           clip-rule="evenodd"
           d="M106.03 106.206L109.743 109.296V113.275H104.792L102.812 115.265L100.832 113.275V109.296H102.812L106.03 106.206Z"
           fill="#E93081"
           style="mix-blend-mode:multiply"
           id="path287" />
        <path
           d="M14.8027 112.888H17.0576V115.153L18.6533 116.756L17.0576 118.359V120.625H14.8018L13.207 122.228L11.6123 120.625H9.35645V118.358L7.76172 116.756L9.35645 115.154V112.888H11.6123L13.207 111.286L14.8027 112.888Z"
           fill="#A2C72D"
           style="mix-blend-mode:multiply"
           id="path289" />
        <path
           fill-rule="evenodd"
           clip-rule="evenodd"
           d="M1.91992 101.09L5.28631 97.857H9.24678V102.831L11.227 104.82L9.24678 106.81L5.28631 106.81V104.323L1.91992 101.09Z"
           fill="white"
           id="path291" />
        <path
           fill-rule="evenodd"
           clip-rule="evenodd"
           d="M11.2266 97.8569H14.1969V102.333L12.7117 103.825L11.2266 102.333V97.8569Z"
           fill="white"
           id="path293" />
        <path
           fill-rule="evenodd"
           clip-rule="evenodd"
           d="M2.41504 101.587L5.78143 98.3543H9.74189V103.328L11.7221 105.317L9.74189 107.307L5.78143 107.307V104.82L2.41504 101.587Z"
           fill="#E93081"
           style="mix-blend-mode:multiply"
           id="path295" />
        <path
           fill-rule="evenodd"
           clip-rule="evenodd"
           d="M11.7217 98.3542H14.692V102.831L13.2069 104.323L11.7217 102.831V98.3542Z"
           fill="#28B9CB"
           style="mix-blend-mode:multiply"
           id="path297" />
        <path
           fill-rule="evenodd"
           clip-rule="evenodd"
           d="M26.7539 104.262L24.6536 102.152L21.503 105.317L21.503 107.427L23.6034 107.427L26.7539 104.262Z"
           fill="white"
           id="path299" />
        <path
           fill-rule="evenodd"
           clip-rule="evenodd"
           d="M27.249 104.76L25.1487 102.65L21.9981 105.815L21.9981 107.925L24.0985 107.925L27.249 104.76Z"
           fill="#28B9CB"
           style="mix-blend-mode:multiply"
           id="path301" />
        <path
           fill-rule="evenodd"
           clip-rule="evenodd"
           d="M26.3936 101.399L28.4939 103.509L31.6444 100.344L31.6444 98.2335L29.5441 98.2335L26.3936 101.399Z"
           fill="#28B9CB"
           style="mix-blend-mode:multiply"
           id="path303" />
        <path
           fill-rule="evenodd"
           clip-rule="evenodd"
           d="M27.8114 105.708L31.5243 108.799V112.778H26.5737L24.5935 114.767L22.6133 112.778V108.799H24.5935L27.8114 105.708Z"
           fill="white"
           id="path305" />
        <path
           fill-rule="evenodd"
           clip-rule="evenodd"
           d="M28.3065 106.206L32.0194 109.296V113.275H27.0689L25.0886 115.265L23.1084 113.275V109.296H25.0886L28.3065 106.206Z"
           fill="#E93081"
           style="mix-blend-mode:multiply"
           id="path307" />
        <path
           d="M44.0059 20.2673H48.3564V24.6375L51.4326 27.7283L48.3564 30.8181V35.1882H44.0068L40.9307 38.2791L37.8545 35.1882H33.5049V30.8181L30.4287 27.7283L33.5049 24.6375V20.2673H37.8555L40.9307 17.1775L44.0059 20.2673Z"
           fill="white"
           id="path309" />
        <path
           d="M44.5 20.7646H48.8506V25.1348L51.9268 28.2256L48.8506 31.3154V35.6855H44.501L41.4248 38.7764L38.3486 35.6855H33.999V31.3154L30.9229 28.2256L33.999 25.1348V20.7646H38.3496L41.4248 17.6748L44.5 20.7646Z"
           fill="#F49200"
           style="mix-blend-mode:multiply"
           id="path311" />
      </g>
    </g>
  </g>
  <rect
     x="6"
     y="4.19995"
     width="156"
     height="109.2"
     rx="54.6"
     stroke="#EFEFEF"
     stroke-linejoin="bevel"
     id="rect321" />
  <defs
     id="defs326">
    <clipPath
       id="clip0_93_419278">
      <rect
         x="6"
         y="4.19995"
         width="156"
         height="109.2"
         rx="54.6"
         fill="white"
         id="rect323" />
    </clipPath>
  </defs>
</svg>
