<?xml version="1.0" encoding="UTF-8" standalone="no"?>
<svg
   width="105"
   height="74"
   viewBox="0 0 105 74"
   fill="none"
   version="1.1"
   id="svg120"
   sodipodi:docname="anu.svg"
   inkscape:version="1.1.2 (0a00cf5339, 2022-02-04)"
   xmlns:inkscape="http://www.inkscape.org/namespaces/inkscape"
   xmlns:sodipodi="http://sodipodi.sourceforge.net/DTD/sodipodi-0.dtd"
   xmlns="http://www.w3.org/2000/svg"
   xmlns:svg="http://www.w3.org/2000/svg">
  <sodipodi:namedview
     id="namedview122"
     pagecolor="#ffffff"
     bordercolor="#666666"
     borderopacity="1.0"
     inkscape:pageshadow="2"
     inkscape:pageopacity="0.0"
     inkscape:pagecheckerboard="0"
     showgrid="false"
     inkscape:zoom="7.1621622"
     inkscape:cx="52.498113"
     inkscape:cy="37"
     inkscape:window-width="1366"
     inkscape:window-height="694"
     inkscape:window-x="0"
     inkscape:window-y="26"
     inkscape:window-maximized="1"
     inkscape:current-layer="g96" />
  <g
     clip-path="url(#clip0_385_97507)"
     id="g96">
    <rect
       x="0.5"
       y="0.5"
       width="104"
       height="73"
       rx="36.5"
       fill="white"
       id="rect2" />
    <g
       filter="url(#filter0_d_385_97507)"
       id="g6">
      <path
         d="M35.9976 47.9502C29.426 47.9502 23.7405 50.6769 21.0063 54.6426C20.067 54.481 19.0867 54.3945 18.0786 54.3945C12.8438 54.3946 8.35948 56.7015 6.47998 59.9785H3.06689C-0.847759 59.9786 -4.021 63.1527 -4.021 67.0674C-4.02082 70.9819 -0.847652 74.1552 3.06689 74.1553H53.2573C58.2397 74.1553 62.2788 70.1162 62.2788 65.1338C62.2788 60.1514 58.2397 56.1123 53.2573 56.1123H51.8394C49.6006 51.3658 43.3536 47.9502 35.9976 47.9502Z"
         fill="white"
         id="path4" />
    </g>
    <circle
       cx="64.5"
       cy="52.5"
       r="8.5"
       fill="#3D2F82"
       id="circle10" />
    <circle
       cx="65"
       cy="43"
       r="10"
       fill="#3D2F82"
       id="circle12" />
    <circle
       cx="40.5"
       cy="53.5"
       r="7.5"
       fill="#3D2F82"
       id="circle14" />
    <circle
       cx="37.5"
       cy="44.5"
       r="7.5"
       fill="#3D2F82"
       id="circle16" />
    <circle
       cx="53.5"
       cy="47.5"
       r="16.5"
       fill="#3D2F82"
       id="circle18" />
    <circle
       cx="50"
       cy="37"
       r="14"
       fill="#3D2F82"
       id="circle20" />
    <circle
       cx="39.5"
       cy="51.5"
       r="4.5"
       fill="#FCB852"
       id="circle22" />
    <path
       d="M39.5 47C41.9853 47 44 49.0147 44 51.5C44 51.6691 43.9889 51.8358 43.9707 52C43.7219 49.7501 41.8162 48 39.5 48C37.1838 48 35.2771 49.7501 35.0283 52C35.0102 51.8358 35 51.669 35 51.5C35 49.0147 37.0147 47 39.5 47Z"
       fill="#F9C7C1"
       style="mix-blend-mode:multiply"
       id="path24" />
    <circle
       cx="67.5"
       cy="51.5"
       r="4.5"
       fill="#FCB852"
       id="circle26" />
    <circle
       cx="54"
       cy="51"
       r="15"
       fill="white"
       id="circle28" />
    <circle
       cx="53.5"
       cy="51.5"
       r="14.5"
       fill="#FCB852"
       style="mix-blend-mode:multiply"
       id="circle30" />
    <path
       d="M53.5 37C61.5081 37 68 43.4919 68 51.5C68 51.6713 67.9951 51.8419 67.9893 52.0117C67.7322 44.7821 61.7924 39 54.5 39C47.0442 39 41 45.0442 41 52.5C41 59.7924 46.7821 65.7322 54.0117 65.9893C53.8419 65.9951 53.6713 66 53.5 66C45.4919 66 39 59.5081 39 51.5C39 43.4919 45.4919 37 53.5 37Z"
       fill="#F9C7C1"
       style="mix-blend-mode:multiply"
       id="path32" />
    <circle
       cx="60"
       cy="40"
       r="5"
       fill="#3D2F82"
       id="circle34" />
    <circle
       cx="53"
       cy="36"
       r="4"
       fill="#3D2F82"
       id="circle36" />
    <path
       d="M57 36C56.3722 36.8357 56 37.8743 56 39C56 41.7614 58.2386 44 61 44C62.1264 44 63.165 43.6266 64.001 42.998C63.0888 44.2134 61.6366 45 60 45C57.2386 45 55 42.7614 55 40C55.0001 38.3643 55.7856 36.9122 57 36Z"
       fill="#9B2584"
       style="mix-blend-mode:multiply"
       id="path38" />
    <path
       d="M50.7168 32.7158C50.2654 33.3635 50 34.1506 50 35C50 37.2091 51.7909 39 54 39C54.8491 39 55.6356 38.7344 56.2832 38.2832C55.5605 39.3205 54.36 40 53 40C50.7909 40 49 38.2091 49 36C49 34.6398 49.6793 33.4385 50.7168 32.7158Z"
       fill="#9B2584"
       style="mix-blend-mode:multiply"
       id="path40" />
    <circle
       cx="49"
       cy="50"
       r="3"
       fill="white"
       id="circle42" />
    <rect
       x="47"
       y="49"
       width="4"
       height="4"
       rx="2"
       fill="#3D2F82"
       style="mix-blend-mode:multiply"
       id="rect44" />
    <circle
       cx="59"
       cy="50"
       r="3"
       fill="white"
       id="circle46" />
    <rect
       x="57"
       y="49"
       width="4"
       height="4"
       rx="2"
       fill="#3D2F82"
       style="mix-blend-mode:multiply"
       id="rect48" />
    <ellipse
       cx="54"
       cy="58.5688"
       rx="7"
       ry="3.5"
       fill="#F39B92"
       style="mix-blend-mode:multiply"
       id="ellipse50" />
    <path
       d="M53.4712 32.7405C53.4934 32.0334 52.7944 31.5274 52.1296 31.7694L39.8705 36.2313C39.2057 36.4733 38.9955 37.3102 39.467 37.8376L41.6207 40.2462C41.8933 40.551 42.324 40.6592 42.7082 40.5194L52.7121 36.8782C53.0964 36.7384 53.3567 36.3787 53.3696 35.97L53.4712 32.7405Z"
       fill="#3EA4DD"
       id="path52" />
    <circle
       cx="1"
       cy="1"
       r="1"
       transform="matrix(-0.939693 0.34202 0.34202 0.939693 43.0117 40.4087)"
       fill="#3EA4DD"
       id="circle54" />
    <circle
       cx="1"
       cy="1"
       r="1"
       transform="matrix(-0.939693 0.34202 0.34202 0.939693 46.3982 39.3828)"
       fill="#3EA4DD"
       id="circle56" />
    <circle
       cx="1"
       cy="1"
       r="1"
       transform="matrix(-0.939693 0.34202 0.34202 0.939693 50.4436 37.958)"
       fill="#3EA4DD"
       id="circle58" />
    <circle
       cx="1"
       cy="1"
       r="1"
       transform="matrix(-1 0 0 1 43.5 43)"
       fill="#3EA4DD"
       id="circle60" />
    <circle
       cx="1"
       cy="1"
       r="1"
       transform="matrix(-1 0 0 1 46.9058 42)"
       fill="#3EA4DD"
       id="circle62" />
    <circle
       cx="1"
       cy="1"
       r="1"
       transform="matrix(-1 0 0 1 50.9058 40.7173)"
       fill="#3EA4DD"
       id="circle64" />
    <circle
       cx="1"
       cy="1"
       r="1"
       transform="matrix(-1 0 0 1 54.009 36.9985)"
       fill="#3EA4DD"
       id="circle66" />
    <circle
       cx="1"
       cy="1"
       r="1"
       transform="matrix(-1 0 0 1 54 39.5)"
       fill="#3EA4DD"
       id="circle68" />
    <path
       d="M45.5844 30.3513C44.9981 29.8758 44.1165 30.1967 43.9729 30.9378L43.1809 35.0261L48.819 32.974L45.5844 30.3513Z"
       fill="#E93081"
       id="path70" />
    <path
       d="M47.5669 69.1001C47.9447 68.0621 49.0924 67.527 50.1304 67.9047C51.1683 68.2825 51.7035 69.4302 51.3257 70.4682L42.4332 94.9002C42.0554 95.9381 40.9077 96.4733 39.8698 96.0955C38.8318 95.7177 38.2966 94.5701 38.6744 93.5321L47.5669 69.1001Z"
       fill="#FDB952"
       id="path72" />
    <path
       d="M50.1304 67.9047C51.1683 68.2825 51.7035 69.4302 51.3257 70.4682L43.3767 92.3078L39.618 90.9397L47.5669 69.1001C47.9447 68.0621 49.0924 67.527 50.1304 67.9047Z"
       fill="#9B2584"
       id="path74" />
    <path
       d="M50.1302 67.9049C51.1682 68.2827 51.7034 69.4304 51.3256 70.4683L42.4331 94.9003C42.0553 95.9383 40.9076 96.4735 39.8696 96.0957C39.7071 96.0365 39.5588 95.9558 39.4225 95.8623C40.3087 95.9483 41.1747 95.4337 41.4934 94.5583L50.3859 70.1263C50.7046 69.2508 50.3723 68.2991 49.638 67.7954C49.8025 67.8113 49.9678 67.8458 50.1302 67.9049Z"
       fill="#F9C7C1"
       style="mix-blend-mode:multiply"
       id="path76" />
    <path
       d="M60.4331 69.1001C60.0553 68.0621 58.9076 67.527 57.8696 67.9047C56.8317 68.2825 56.2965 69.4302 56.6743 70.4682L65.5668 94.9002C65.9446 95.9381 67.0923 96.4733 68.1302 96.0955C69.1682 95.7177 69.7034 94.5701 69.3256 93.5321L60.4331 69.1001Z"
       fill="#FDB952"
       id="path78" />
    <path
       d="M57.8696 67.9047C56.8317 68.2825 56.2965 69.4302 56.6743 70.4682L64.6233 92.3078L68.382 90.9397L60.4331 69.1001C60.0553 68.0621 58.9076 67.527 57.8696 67.9047Z"
       fill="#9B2584"
       id="path80" />
    <path
       d="M57.8698 67.9049C56.8318 68.2827 56.2966 69.4304 56.6744 70.4683L65.5669 94.9003C65.9447 95.9383 67.0924 96.4735 68.1304 96.0957C68.2929 96.0365 68.4412 95.9558 68.5775 95.8623C67.6913 95.9483 66.8253 95.4337 66.5066 94.5583L57.6141 70.1263C57.2954 69.2508 57.6277 68.2991 58.362 67.7954C58.1975 67.8113 58.0322 67.8458 57.8698 67.9049Z"
       fill="#F9C7C1"
       style="mix-blend-mode:multiply"
       id="path82" />
    <path
       d="M47.7173 69.6859C47.878 68.1591 49.1656 67 50.7008 67H57.3689C58.8745 67 60.1469 68.1159 60.3433 69.6086L64.8513 103.87C64.9301 104.468 64.4639 105 63.8599 105H45.1108C44.5171 105 44.0542 104.486 44.1163 103.895L47.7173 69.6859Z"
       fill="white"
       id="path84" />
    <path
       d="M47.7173 69.6859C47.878 68.1591 49.1656 67 50.7008 67H51.0027V66L57.0001 66L57.0227 67H57.3689C58.8745 67 60.1469 68.1159 60.3433 69.6086L64.8513 103.87C64.9301 104.468 64.4639 105 63.8599 105H45.1108C44.5171 105 44.0542 104.486 44.1163 103.895L47.7173 69.6859Z"
       fill="#9B2584"
       style="mix-blend-mode:multiply"
       id="path86" />
    <path
       d="M48.1171 75C51.09 75 53.5 72.59 53.5 69.6171V67H54.5V69.5C54.5 73.0899 51.5899 76 48 76L48.1171 75Z"
       fill="#A5D8D6"
       style="mix-blend-mode:multiply"
       id="path88" />
    <path
       d="M51 67H52C52 67.5523 52.4477 68 53 68H55C55.5523 68 56 67.5523 56 67H57C57 68.1046 56.1046 69 55 69H53C51.8954 69 51 68.1046 51 67Z"
       fill="#A5D8D6"
       style="mix-blend-mode:multiply"
       id="path90" />
    <path
       d="M51 67H57V66H51V67Z"
       fill="#A5D8D6"
       style="mix-blend-mode:multiply"
       id="path92" />
    <path
       d="M49.1421 67.4375C48.9162 67.807 48.7654 68.2292 48.7173 68.6855L45.1167 102.896C45.0547 103.486 45.5172 104 46.1108 104H64.8589C64.8599 104.544 64.4196 105 63.8599 105H45.1108C44.5172 105 44.0547 104.486 44.1167 103.896L47.7173 69.6855C47.8186 68.7243 48.367 67.9097 49.1421 67.4375Z"
       fill="#A5D8D6"
       style="mix-blend-mode:multiply"
       id="path94" />
  </g>
  <rect
     x="0.5"
     y="0.5"
     width="104"
     height="73"
     rx="36.5"
     stroke="#EFEFEF"
     stroke-linejoin="bevel"
     id="rect98" />
  <defs
     id="defs118">
    <filter
       id="filter0_d_385_97507"
       x="-6.021"
       y="45.9502"
       width="70.2998"
       height="30.2051"
       filterUnits="userSpaceOnUse"
       color-interpolation-filters="sRGB">
      <feFlood
         flood-opacity="0"
         result="BackgroundImageFix"
         id="feFlood100" />
      <feColorMatrix
         in="SourceAlpha"
         type="matrix"
         values="0 0 0 0 0 0 0 0 0 0 0 0 0 0 0 0 0 0 127 0"
         result="hardAlpha"
         id="feColorMatrix102" />
      <feOffset
         id="feOffset104" />
      <feGaussianBlur
         stdDeviation="1"
         id="feGaussianBlur106" />
      <feColorMatrix
         type="matrix"
         values="0 0 0 0 0 0 0 0 0 0 0 0 0 0 0 0 0 0 0.2 0"
         id="feColorMatrix108" />
      <feBlend
         mode="normal"
         in2="BackgroundImageFix"
         result="effect1_dropShadow_385_97507"
         id="feBlend110" />
      <feBlend
         mode="normal"
         in="SourceGraphic"
         in2="effect1_dropShadow_385_97507"
         result="shape"
         id="feBlend112" />
    </filter>
    <clipPath
       id="clip0_385_97507">
      <rect
         x="0.5"
         y="0.5"
         width="104"
         height="73"
         rx="36.5"
         fill="white"
         id="rect115" />
    </clipPath>
  </defs>
</svg>
