<?xml version="1.0" encoding="UTF-8" standalone="no"?>
<svg
   width="105"
   height="74"
   viewBox="0 0 105 74"
   fill="none"
   version="1.1"
   id="svg166"
   sodipodi:docname="ari.svg"
   inkscape:version="1.1.2 (0a00cf5339, 2022-02-04)"
   xmlns:inkscape="http://www.inkscape.org/namespaces/inkscape"
   xmlns:sodipodi="http://sodipodi.sourceforge.net/DTD/sodipodi-0.dtd"
   xmlns="http://www.w3.org/2000/svg"
   xmlns:svg="http://www.w3.org/2000/svg">
  <sodipodi:namedview
     id="namedview168"
     pagecolor="#ffffff"
     bordercolor="#666666"
     borderopacity="1.0"
     inkscape:pageshadow="2"
     inkscape:pageopacity="0.0"
     inkscape:pagecheckerboard="0"
     showgrid="false"
     inkscape:zoom="7.1621622"
     inkscape:cx="52.498113"
     inkscape:cy="37"
     inkscape:window-width="1366"
     inkscape:window-height="694"
     inkscape:window-x="0"
     inkscape:window-y="26"
     inkscape:window-maximized="1"
     inkscape:current-layer="g142" />
  <g
     clip-path="url(#clip0_385_97127)"
     id="g142">
    <rect
       x="0.5"
       y="0.5"
       width="104"
       height="73"
       rx="36.5"
       fill="white"
       id="rect2" />
    <g
       filter="url(#filter0_d_385_97127)"
       id="g6">
      <path
         d="M35.9976 47.9502C29.426 47.9502 23.7405 50.6769 21.0063 54.6426C20.067 54.481 19.0867 54.3945 18.0786 54.3945C12.8438 54.3946 8.35948 56.7015 6.47998 59.9785H3.06689C-0.847759 59.9786 -4.021 63.1527 -4.021 67.0674C-4.02082 70.9819 -0.847652 74.1552 3.06689 74.1553H53.2573C58.2397 74.1553 62.2788 70.1162 62.2788 65.1338C62.2788 60.1514 58.2397 56.1123 53.2573 56.1123H51.8394C49.6006 51.3658 43.3536 47.9502 35.9976 47.9502Z"
         fill="white"
         id="path4" />
    </g>
    <circle
       cx="33.5001"
       cy="61"
       r="5"
       fill="white"
       id="circle10" />
    <circle
       cx="52.5001"
       cy="41"
       r="18"
       fill="white"
       id="circle12" />
    <path
       fill-rule="evenodd"
       clip-rule="evenodd"
       d="M66.9069 56.9472C66.6822 56.4427 66.9091 55.8516 67.4137 55.627L70.1543 54.4067C70.6588 54.1821 71.25 54.409 71.4746 54.9136C71.6992 55.4181 71.4723 56.0092 70.9678 56.2338L68.2271 57.454C67.7226 57.6787 67.1315 57.4518 66.9069 56.9472Z"
       fill="white"
       id="path14" />
    <path
       fill-rule="evenodd"
       clip-rule="evenodd"
       d="M38.4746 56.9472C38.6992 56.4427 38.4723 55.8516 37.9678 55.627L35.2272 54.4067C34.7226 54.1821 34.1315 54.409 33.9069 54.9136C33.6822 55.4181 33.9092 56.0092 34.4137 56.2338L37.1543 57.454C37.6589 57.6787 38.25 57.4518 38.4746 56.9472Z"
       fill="white"
       id="path16" />
    <circle
       cx="71.5001"
       cy="61"
       r="5"
       fill="white"
       id="circle18" />
    <circle
       cx="33.5001"
       cy="62"
       r="5"
       fill="white"
       id="circle20" />
    <circle
       cx="41.0001"
       cy="47.5"
       r="9.5"
       fill="white"
       id="circle22" />
    <circle
       cx="65.0001"
       cy="47.5"
       r="9.5"
       fill="white"
       id="circle24" />
    <circle
       cx="39.0001"
       cy="44.5"
       r="4.5"
       fill="white"
       id="circle26" />
    <path
       d="M39.0001 40C41.4854 40 43.5001 42.0147 43.5001 44.5C43.5001 44.6691 43.489 44.8358 43.4708 45C43.222 42.7501 41.3163 41 39.0001 41C36.6839 41 34.7772 42.7501 34.5284 45C34.5103 44.8358 34.5001 44.669 34.5001 44.5C34.5001 42.0147 36.5148 40 39.0001 40Z"
       fill="white"
       id="path28" />
    <circle
       cx="67.0001"
       cy="44.5"
       r="4.5"
       fill="white"
       id="circle30" />
    <circle
       cx="53.5001"
       cy="44"
       r="15"
       fill="white"
       id="circle32" />
    <circle
       cx="53.0001"
       cy="44.5"
       r="14.5"
       fill="white"
       id="circle34" />
    <path
       d="M53.0001 30C61.0083 30 67.5001 36.4919 67.5001 44.5C67.5001 44.6713 67.4953 44.8419 67.4894 45.0117C67.2323 37.7821 61.2925 32 54.0001 32C46.5443 32 40.5001 38.0442 40.5001 45.5C40.5001 52.7924 46.2822 58.7322 53.5118 58.9893C53.342 58.9951 53.1714 59 53.0001 59C44.992 59 38.5001 52.5081 38.5001 44.5C38.5001 36.4919 44.992 30 53.0001 30Z"
       fill="white"
       id="path36" />
    <circle
       cx="52.5001"
       cy="41"
       r="18"
       fill="#E93081"
       id="circle38" />
    <path
       fill-rule="evenodd"
       clip-rule="evenodd"
       d="M66.9069 56.9472C66.6822 56.4427 66.9091 55.8516 67.4137 55.627L70.1543 54.4067C70.6588 54.1821 71.25 54.409 71.4746 54.9136C71.6992 55.4181 71.4723 56.0092 70.9678 56.2338L68.2271 57.454C67.7226 57.6787 67.1315 57.4518 66.9069 56.9472Z"
       fill="#3D2F82"
       style="mix-blend-mode:multiply"
       id="path40" />
    <path
       fill-rule="evenodd"
       clip-rule="evenodd"
       d="M38.4746 56.9472C38.6992 56.4427 38.4723 55.8516 37.9678 55.627L35.2272 54.4067C34.7226 54.1821 34.1315 54.409 33.9069 54.9136C33.6822 55.4181 33.9092 56.0092 34.4137 56.2338L37.1543 57.454C37.6589 57.6787 38.25 57.4518 38.4746 56.9472Z"
       fill="#3D2F82"
       style="mix-blend-mode:multiply"
       id="path42" />
    <circle
       cx="71.5001"
       cy="61"
       r="5"
       fill="#E93081"
       id="circle44" />
    <circle
       cx="41.0001"
       cy="47.5"
       r="9.5"
       fill="#E93081"
       id="circle46" />
    <circle
       cx="65.0001"
       cy="47.5"
       r="9.5"
       fill="#E93081"
       id="circle48" />
    <circle
       cx="39.0001"
       cy="44.5"
       r="4.5"
       fill="#C57D3D"
       id="circle50" />
    <path
       d="M39.0001 40C41.4854 40 43.5001 42.0147 43.5001 44.5C43.5001 44.6691 43.489 44.8358 43.4708 45C43.222 42.7501 41.3163 41 39.0001 41C36.6839 41 34.7772 42.7501 34.5284 45C34.5103 44.8358 34.5001 44.669 34.5001 44.5C34.5001 42.0147 36.5148 40 39.0001 40Z"
       fill="#F9C7C1"
       style="mix-blend-mode:multiply"
       id="path52" />
    <circle
       cx="67.0001"
       cy="44.5"
       r="4.5"
       fill="#C57D3D"
       id="circle54" />
    <circle
       cx="53.5001"
       cy="44"
       r="15"
       fill="white"
       id="circle56" />
    <circle
       cx="53.0001"
       cy="44.5"
       r="14.5"
       fill="#C57D3D"
       style="mix-blend-mode:multiply"
       id="circle58" />
    <path
       d="M53.0001 30C61.0083 30 67.5001 36.4919 67.5001 44.5C67.5001 44.6713 67.4953 44.8419 67.4894 45.0117C67.2323 37.7821 61.2925 32 54.0001 32C46.5443 32 40.5001 38.0442 40.5001 45.5C40.5001 52.7924 46.2822 58.7322 53.5118 58.9893C53.342 58.9951 53.1714 59 53.0001 59C44.992 59 38.5001 52.5081 38.5001 44.5C38.5001 36.4919 44.992 30 53.0001 30Z"
       fill="#F9C7C1"
       style="mix-blend-mode:multiply"
       id="path60" />
    <circle
       cx="59.5001"
       cy="33"
       r="5"
       fill="#E93081"
       id="circle62" />
    <path
       d="M56.5001 29C55.8723 29.8357 55.5002 30.8743 55.5001 32C55.5001 34.7614 57.7387 37 60.5001 37C61.6266 37 62.6651 36.6266 63.5011 35.998C62.589 37.2134 61.1367 38 59.5001 38C56.7387 38 54.5001 35.7614 54.5001 33C54.5002 31.3643 55.2858 29.9122 56.5001 29Z"
       fill="#9B2584"
       style="mix-blend-mode:multiply"
       id="path64" />
    <circle
       cx="52.5001"
       cy="29"
       r="4"
       fill="#E93081"
       id="circle66" />
    <path
       d="M50.2169 25.7158C49.7655 26.3635 49.5001 27.1506 49.5001 28C49.5001 30.2091 51.291 32 53.5001 32C54.3492 32 55.1358 31.7344 55.7833 31.2832C55.0606 32.3205 53.8602 33 52.5001 33C50.291 33 48.5001 31.2091 48.5001 29C48.5001 27.6398 49.1794 26.4385 50.2169 25.7158Z"
       fill="#9B2584"
       style="mix-blend-mode:multiply"
       id="path68" />
    <circle
       cx="48.5001"
       cy="43"
       r="3"
       fill="white"
       id="circle70" />
    <rect
       x="46.5001"
       y="42"
       width="4"
       height="4"
       rx="2"
       fill="#3D2F82"
       style="mix-blend-mode:multiply"
       id="rect72" />
    <circle
       cx="58.5001"
       cy="43"
       r="3"
       fill="white"
       id="circle74" />
    <rect
       x="56.5001"
       y="42"
       width="4"
       height="4"
       rx="2"
       fill="#3D2F82"
       style="mix-blend-mode:multiply"
       id="rect76" />
    <ellipse
       cx="53.5001"
       cy="51.5688"
       rx="7"
       ry="3.5"
       fill="#BB671D"
       style="mix-blend-mode:multiply"
       id="ellipse78" />
    <circle
       cx="52.5001"
       cy="41"
       r="18"
       fill="#E93081"
       id="circle80" />
    <path
       fill-rule="evenodd"
       clip-rule="evenodd"
       d="M66.9069 56.9472C66.6822 56.4427 66.9091 55.8516 67.4137 55.627L70.1543 54.4067C70.6588 54.1821 71.25 54.409 71.4746 54.9136C71.6992 55.4181 71.4723 56.0092 70.9678 56.2338L68.2271 57.454C67.7226 57.6787 67.1315 57.4518 66.9069 56.9472Z"
       fill="#3D2F82"
       style="mix-blend-mode:multiply"
       id="path82" />
    <path
       fill-rule="evenodd"
       clip-rule="evenodd"
       d="M38.4746 56.9472C38.6992 56.4427 38.4723 55.8516 37.9678 55.627L35.2272 54.4067C34.7226 54.1821 34.1315 54.409 33.9069 54.9136C33.6822 55.4181 33.9092 56.0092 34.4137 56.2338L37.1543 57.454C37.6589 57.6787 38.25 57.4518 38.4746 56.9472Z"
       fill="#3D2F82"
       style="mix-blend-mode:multiply"
       id="path84" />
    <circle
       cx="71.5001"
       cy="61"
       r="5"
       fill="#E93081"
       id="circle86" />
    <circle
       cx="33.5001"
       cy="61"
       r="5"
       fill="#E93081"
       style="mix-blend-mode:multiply"
       id="circle88" />
    <circle
       cx="41.0001"
       cy="47.5"
       r="9.5"
       fill="#E93081"
       id="circle90" />
    <circle
       cx="65.0001"
       cy="47.5"
       r="9.5"
       fill="#E93081"
       id="circle92" />
    <circle
       cx="39.0001"
       cy="44.5"
       r="4.5"
       fill="#C57D3D"
       id="circle94" />
    <path
       d="M39.0001 40C41.4854 40 43.5001 42.0147 43.5001 44.5C43.5001 44.6691 43.489 44.8358 43.4708 45C43.222 42.7501 41.3163 41 39.0001 41C36.6839 41 34.7772 42.7501 34.5284 45C34.5103 44.8358 34.5001 44.669 34.5001 44.5C34.5001 42.0147 36.5148 40 39.0001 40Z"
       fill="#F9C7C1"
       style="mix-blend-mode:multiply"
       id="path96" />
    <circle
       cx="67.0001"
       cy="44.5"
       r="4.5"
       fill="#C57D3D"
       id="circle98" />
    <circle
       cx="53.5001"
       cy="44"
       r="15"
       fill="white"
       id="circle100" />
    <circle
       cx="53.0001"
       cy="44.5"
       r="14.5"
       fill="#C57D3D"
       style="mix-blend-mode:multiply"
       id="circle102" />
    <path
       d="M53.0001 30C61.0083 30 67.5001 36.4919 67.5001 44.5C67.5001 44.6713 67.4953 44.8419 67.4894 45.0117C67.2323 37.7821 61.2925 32 54.0001 32C46.5443 32 40.5001 38.0442 40.5001 45.5C40.5001 52.7924 46.2822 58.7322 53.5118 58.9893C53.342 58.9951 53.1714 59 53.0001 59C44.992 59 38.5001 52.5081 38.5001 44.5C38.5001 36.4919 44.992 30 53.0001 30Z"
       fill="#F9C7C1"
       style="mix-blend-mode:multiply"
       id="path104" />
    <circle
       cx="59.5001"
       cy="33"
       r="5"
       fill="#E93081"
       id="circle106" />
    <path
       d="M56.5001 29C55.8723 29.8357 55.5002 30.8743 55.5001 32C55.5001 34.7614 57.7387 37 60.5001 37C61.6266 37 62.6651 36.6266 63.5011 35.998C62.589 37.2134 61.1367 38 59.5001 38C56.7387 38 54.5001 35.7614 54.5001 33C54.5002 31.3643 55.2858 29.9122 56.5001 29Z"
       fill="#9B2584"
       style="mix-blend-mode:multiply"
       id="path108" />
    <circle
       cx="52.5001"
       cy="29"
       r="4"
       fill="#E93081"
       id="circle110" />
    <path
       d="M50.2169 25.7158C49.7655 26.3635 49.5001 27.1506 49.5001 28C49.5001 30.2091 51.291 32 53.5001 32C54.3492 32 55.1358 31.7344 55.7833 31.2832C55.0606 32.3205 53.8602 33 52.5001 33C50.291 33 48.5001 31.2091 48.5001 29C48.5001 27.6398 49.1794 26.4385 50.2169 25.7158Z"
       fill="#9B2584"
       style="mix-blend-mode:multiply"
       id="path112" />
    <circle
       cx="48.5001"
       cy="43"
       r="3"
       fill="white"
       id="circle114" />
    <rect
       x="46.5001"
       y="42"
       width="4"
       height="4"
       rx="2"
       fill="#3D2F82"
       style="mix-blend-mode:multiply"
       id="rect116" />
    <circle
       cx="58.5001"
       cy="43"
       r="3"
       fill="white"
       id="circle118" />
    <rect
       x="56.5001"
       y="42"
       width="4"
       height="4"
       rx="2"
       fill="#3D2F82"
       style="mix-blend-mode:multiply"
       id="rect120" />
    <ellipse
       cx="53.5001"
       cy="51.5688"
       rx="7"
       ry="3.5"
       fill="#BB671D"
       style="mix-blend-mode:multiply"
       id="ellipse122" />
    <path
       d="M46.0671 62.1001C46.4448 61.0621 47.5925 60.527 48.6305 60.9047C49.6684 61.2825 50.2036 62.4302 49.8258 63.4682L40.9333 87.9002C40.5555 88.9381 39.4078 89.4733 38.3699 89.0955C37.3319 88.7177 36.7967 87.5701 37.1745 86.5321L46.0671 62.1001Z"
       fill="#C57D3D"
       id="path124" />
    <path
       d="M48.6305 60.9049C49.6684 61.2827 50.2036 62.4304 49.8258 63.4683L40.9333 87.9003C40.5555 88.9383 39.4078 89.4735 38.3699 89.0957C38.2074 89.0365 38.059 88.9558 37.9228 88.8623C38.809 88.9483 39.675 88.4337 39.9936 87.5583L48.8861 63.1263C49.2048 62.2508 48.8726 61.2991 48.1383 60.7954C48.3027 60.8113 48.4681 60.8458 48.6305 60.9049Z"
       fill="#F9C7C1"
       style="mix-blend-mode:multiply"
       id="path126" />
    <path
       d="M57.1745 63.4683C56.7967 62.4303 57.3319 61.2826 58.3699 60.9048C59.4078 60.527 60.5555 61.0622 60.9333 62.1002L69.8258 86.5322C70.2036 87.5701 69.6684 88.7178 68.6305 89.0956C67.5925 89.4734 66.4448 88.9382 66.067 87.9003L57.1745 63.4683Z"
       fill="#C57D3D"
       id="path128" />
    <path
       d="M58.3699 60.9047C59.4078 60.5269 60.5555 61.0621 60.9333 62.1L69.8258 86.532C70.2036 87.57 69.6684 88.7177 68.6305 89.0955C68.468 89.1546 68.3024 89.1881 68.1379 89.2041C68.8721 88.7003 69.2048 87.7495 68.8861 86.874L59.9936 62.442C59.6749 61.5665 58.8087 61.0511 57.9224 61.1372C58.0586 61.0437 58.2074 60.9638 58.3699 60.9047Z"
       fill="#F9C7C1"
       style="mix-blend-mode:multiply"
       id="path130" />
    <path
       d="M47.159 61.5773C47.358 60.6569 48.1721 60 49.1138 60H57.9282C58.8507 60 59.6535 60.6309 59.8716 61.5273L68.1993 95.7636C68.3525 96.3932 67.8756 97 67.2277 97H40.7394C40.102 97 39.6273 96.4117 39.762 95.7887L47.159 61.5773Z"
       fill="white"
       id="path132" />
    <path
       d="M47.1658 61.588C47.3606 60.6625 48.1771 60 49.1229 60H57.9185C58.8455 60 59.651 60.637 59.8646 61.5391L68.2087 96.7695C68.3574 97.3976 67.881 98 67.2356 98H40.7325C40.0974 98 39.6231 97.4155 39.754 96.794L47.1658 61.588Z"
       fill="#F49200"
       style="mix-blend-mode:multiply"
       id="path134" />
    <path
       d="M48.3014 60.1772C48.2428 60.3071 48.196 60.4443 48.1656 60.5884L40.7535 95.7944C40.6229 96.4159 41.098 97.0005 41.733 97.0005H68.236C68.2369 97.5375 67.8014 98.0003 67.236 98.0005H40.733C40.098 98.0005 39.6229 97.4159 39.7535 96.7944L47.1656 61.5884C47.3006 60.9476 47.7339 60.4333 48.3014 60.1772Z"
       fill="#F49200"
       style="mix-blend-mode:multiply"
       id="path136" />
    <path
       d="M55.75 60.5039C56.2222 60.769 56.5098 61.1171 56.5098 61.5C56.5098 62.3284 55.1666 63 53.5098 63C51.8529 63 50.5098 62.3284 50.5098 61.5C50.5098 61.1224 50.7894 60.7783 51.25 60.5146V58H55.75V60.5039Z"
       fill="#C57D3D"
       id="path138" />
    <path
       d="M51.8341 60.5098C51.4196 60.7741 51.1673 61.1199 51.1671 61.5C51.1675 62.2649 52.1856 62.8942 53.5011 62.9863C53.3916 62.994 53.2803 63 53.1671 63C51.6944 63 50.5001 62.3284 50.5001 61.5C50.5001 61.1198 50.7526 60.7741 51.1671 60.5098V59H51.8341V60.5098Z"
       fill="#F9C7C1"
       style="mix-blend-mode:multiply"
       id="path140" />
  </g>
  <rect
     x="0.5"
     y="0.5"
     width="104"
     height="73"
     rx="36.5"
     stroke="#EFEFEF"
     stroke-linejoin="bevel"
     id="rect144" />
  <defs
     id="defs164">
    <filter
       id="filter0_d_385_97127"
       x="-6.021"
       y="45.9502"
       width="70.2998"
       height="30.2051"
       filterUnits="userSpaceOnUse"
       color-interpolation-filters="sRGB">
      <feFlood
         flood-opacity="0"
         result="BackgroundImageFix"
         id="feFlood146" />
      <feColorMatrix
         in="SourceAlpha"
         type="matrix"
         values="0 0 0 0 0 0 0 0 0 0 0 0 0 0 0 0 0 0 127 0"
         result="hardAlpha"
         id="feColorMatrix148" />
      <feOffset
         id="feOffset150" />
      <feGaussianBlur
         stdDeviation="1"
         id="feGaussianBlur152" />
      <feColorMatrix
         type="matrix"
         values="0 0 0 0 0 0 0 0 0 0 0 0 0 0 0 0 0 0 0.2 0"
         id="feColorMatrix154" />
      <feBlend
         mode="normal"
         in2="BackgroundImageFix"
         result="effect1_dropShadow_385_97127"
         id="feBlend156" />
      <feBlend
         mode="normal"
         in="SourceGraphic"
         in2="effect1_dropShadow_385_97127"
         result="shape"
         id="feBlend158" />
    </filter>
    <clipPath
       id="clip0_385_97127">
      <rect
         x="0.5"
         y="0.5"
         width="104"
         height="73"
         rx="36.5"
         fill="white"
         id="rect161" />
    </clipPath>
  </defs>
</svg>
