<?xml version="1.0" encoding="UTF-8" standalone="no"?>
<svg
   width="105"
   height="74"
   viewBox="0 0 105 74"
   fill="none"
   version="1.1"
   id="svg82"
   sodipodi:docname="friend-locked.svg"
   inkscape:version="1.1.2 (0a00cf5339, 2022-02-04)"
   xmlns:inkscape="http://www.inkscape.org/namespaces/inkscape"
   xmlns:sodipodi="http://sodipodi.sourceforge.net/DTD/sodipodi-0.dtd"
   xmlns="http://www.w3.org/2000/svg"
   xmlns:svg="http://www.w3.org/2000/svg">
  <sodipodi:namedview
     id="namedview84"
     pagecolor="#ffffff"
     bordercolor="#666666"
     borderopacity="1.0"
     inkscape:pageshadow="2"
     inkscape:pageopacity="0.0"
     inkscape:pagecheckerboard="0"
     showgrid="false"
     inkscape:zoom="7.1621622"
     inkscape:cx="52.498113"
     inkscape:cy="37"
     inkscape:window-width="1366"
     inkscape:window-height="694"
     inkscape:window-x="0"
     inkscape:window-y="26"
     inkscape:window-maximized="1"
     inkscape:current-layer="g58" />
  <g
     clip-path="url(#clip0_385_493)"
     id="g58">
    <rect
       x="0.5"
       y="0.5"
       width="104"
       height="73"
       rx="36.5"
       fill="white"
       id="rect2" />
    <g
       filter="url(#filter0_d_385_493)"
       id="g6">
      <path
         d="M35.9976 47.9502C29.426 47.9502 23.7405 50.6769 21.0063 54.6426C20.067 54.481 19.0867 54.3945 18.0786 54.3945C12.8438 54.3946 8.35948 56.7015 6.47998 59.9785H3.06689C-0.847759 59.9786 -4.021 63.1527 -4.021 67.0674C-4.02082 70.9819 -0.847652 74.1552 3.06689 74.1553H53.2573C58.2397 74.1553 62.2788 70.1162 62.2788 65.1338C62.2788 60.1514 58.2397 56.1123 53.2573 56.1123H51.8394C49.6006 51.3658 43.3536 47.9502 35.9976 47.9502Z"
         fill="white"
         id="path4" />
    </g>
    <path
       d="M39.2605 60.7086C39.2605 60.7086 41.5806 58.3755 40.3371 54.448C39.0964 50.5206 37.3633 47.1635 36.8904 43.2713C36.4175 39.3792 37.7444 30.6741 46.5129 26.2523C53.5399 23.1288 59.0536 23.5906 60.7422 25.595C64.0109 25.9481 70.3647 33.9171 69.0043 43.2306C67.5327 51.2485 66.1168 55.3742 68.2421 58.5004C67.5884 58.2071 66.7177 57.1451 66.7177 57.1451C66.7177 57.1451 67.861 58.7938 67.8053 59.9155C66.879 59.3261 66.3894 58.7965 66.3894 58.7965C66.3894 58.7965 66.9875 59.7987 66.9875 60.6244C66.1724 61.6266 65.6271 61.8032 65.6271 61.8032L65.4102 60.801C65.4102 60.801 65.5743 61.3904 65.3017 61.5669C65.029 61.7435 63.1791 61.7434 62.0886 61.6267C60.9981 61.5099 45.0969 61.2138 42.265 61.1541C42.8631 60.0921 42.7546 59.2093 42.7546 59.2093C42.7546 59.2093 41.8839 61.2708 40.2509 61.2708C41.1773 60.3284 41.066 59.3261 41.066 59.3261C41.066 59.3261 40.0673 61.3822 39.2605 60.7086Z"
       fill="#C1C1C1"
       id="path10" />
    <path
       d="M69.1429 39.9985C69.0761 40.4521 68.848 41.5304 68.1359 42.443C68.2444 40.5526 68.3 41.142 67.9189 40.08C67.8104 41.438 66.667 42.5625 66.667 42.5625C66.667 42.5625 67.3208 41.6743 64.3803 39.7269C61.4399 37.7794 60.1853 34.8786 60.2409 33.7569C60.2965 32.6324 61.7125 33.048 63.8351 34.4061C65.9576 35.7641 61.0031 31.804 61.4399 29.9734C61.8766 28.1428 64.1077 29.145 64.1077 29.145C64.1077 29.145 61.9184 26.6082 64.3108 28.5366C63.0395 27.1758 61.7487 26.3474 60.7472 26.2388C59.0586 24.2289 53.5421 23.7671 46.5179 26.8988C45.6806 27.3225 44.91 27.787 44.2034 28.2786C44.4009 28.1726 44.604 28.0558 44.821 27.92C49.5974 24.9052 55.4477 24.3755 58.0794 26.4398C60.711 28.504 59.1031 30.0359 57.0556 28.9793C55.0082 27.9228 51.9871 27.6566 54.9581 28.8218C57.932 29.9843 59.5399 31.785 57.2977 32.2604C55.0555 32.7357 52.0344 34.5337 55.0555 33.5288C58.0794 32.5238 59.1504 33.0534 58.1767 34.4278C52.9134 41.0931 39.1181 39.1429 39.1181 39.1429C39.1181 39.1429 39.6244 42.0084 39.2878 41.2778C38.9512 40.5444 38.1083 38.779 38.1083 38.779C38.1083 38.779 37.5464 40.9111 37.8273 42.9237C37.1096 41.5168 37.1207 39.86 37.2376 38.779C36.7841 40.8187 36.7396 42.6602 36.8982 43.964C37.3711 47.8643 39.1042 51.2322 40.3449 55.1678C40.4089 55.3715 40.4618 55.5698 40.5091 55.7653C40.4006 54.4127 40.0361 53.052 39.5771 51.7456C39.5521 51.6777 39.6745 51.5011 39.7246 51.588C40.8123 53.549 41.6413 55.6078 41.8054 57.8839C41.9278 56.9278 41.9362 55.9609 41.7999 55.0021C41.7915 54.937 41.875 54.7604 41.9473 54.8446C42.1699 55.1162 42.334 55.4231 42.5009 55.7355C42.6122 55.5616 42.754 55.4123 42.8431 55.2194C42.857 55.1896 42.921 55.1216 42.9543 55.1542C44.0031 56.2162 45.4719 56.0207 46.7794 56.3222C46.8406 56.3357 46.8156 56.4254 46.7933 56.4661C46.3733 57.2565 45.4998 57.5064 44.9684 58.1908C44.3453 58.9975 43.9029 59.9291 43.2548 60.7249C42.9515 61.097 42.6344 61.4555 42.3117 61.8086C42.2978 61.8358 42.2839 61.8603 42.27 61.8874C45.102 61.9472 61.0059 62.2432 62.0936 62.36C63.1814 62.4795 65.0341 62.4795 65.3067 62.3003C65.3456 62.2758 65.3735 62.2405 65.3957 62.2025C64.3303 59.6657 63.3316 57.1071 60.5413 56.4335C60.4384 56.4091 60.5469 56.2407 60.6025 56.2189C61.9879 55.711 63.9519 54.8935 64.3497 53.1796C64.3581 53.1443 64.4555 52.9841 64.4944 53.0737C64.8561 53.8831 64.7642 54.717 64.7615 55.5752C65.2205 54.0787 65.5766 52.5685 65.5376 50.9769C65.5376 50.9063 65.6516 50.7488 65.6934 50.8628C65.9048 51.4223 65.991 51.9819 66.0161 52.5712C66.3054 51.8107 66.5947 51.0475 66.9508 50.3169C66.9786 50.2626 67.0843 50.2028 67.0843 50.3087C67.0815 51.6831 67.0036 53.1661 67.1817 54.573C67.3096 51.9656 68.1498 48.603 69.0066 43.9178C69.2013 42.576 69.2347 41.2642 69.1429 39.9958H69.1485L69.1429 39.9985Z"
       fill="#C1C1C1"
       id="path12" />
    <path
       d="M60.7421 26.4642C60.7421 26.4642 60.7337 26.5891 60.717 26.8037C60.6976 27.0183 60.6698 27.3279 60.6197 27.6946C60.5946 27.8793 60.5668 28.0775 60.5418 28.2894C60.5112 28.4985 60.4889 28.724 60.4444 28.9521C60.3637 29.4111 60.2692 29.8973 60.1774 30.3835C60.1273 30.6252 60.08 30.8697 60.0327 31.1087C59.9854 31.3477 59.9159 31.5786 59.863 31.804C59.749 32.2549 59.6293 32.6759 59.5347 33.0344C59.4402 33.3929 59.3456 33.6917 59.2872 33.9008C59.2232 34.11 59.187 34.2268 59.187 34.2268C59.187 34.2268 59.2093 34.1045 59.2454 33.89C59.2871 33.6754 59.34 33.3712 59.4151 33.0072C59.493 32.6433 59.5765 32.2196 59.6766 31.766C59.7267 31.5405 59.7823 31.307 59.8296 31.0679C59.8769 30.8289 59.9214 30.5872 59.9687 30.3427C60.0661 29.8593 60.1634 29.3731 60.2608 28.9195C60.3109 28.6941 60.3499 28.4714 60.3916 28.2649C60.4333 28.0558 60.4695 27.8603 60.5056 27.6756C60.5752 27.3116 60.6475 27.0074 60.6809 26.7928C60.7226 26.5783 60.7476 26.4587 60.7476 26.4587L60.7421 26.4642Z"
       fill="#EFEFEF"
       id="path14" />
    <path
       d="M39.5411 33.3685C39.5411 33.3685 46.9492 23.4792 57.5148 26.2442C52.1764 26.3501 50.3264 27.7326 52.3961 28.0531C54.4659 28.3736 53.5952 28.3736 51.417 29.7561C49.2387 31.1386 50.3292 31.3532 53.5951 30.7122C56.8639 30.0739 53.9234 31.8828 51.8509 33.2653C49.7784 34.6478 53.8121 34.2214 56.3158 33.0534C50.3265 36.4567 46.0785 38.157 39.4326 36.2448C45.7503 35.3947 46.621 33.1594 44.1145 34.1181C41.6108 35.0742 43.1353 33.5858 44.6598 32.0974C46.1842 30.609 45.205 28.6941 39.5411 33.3739V33.3685Z"
       fill="#EFEFEF"
       id="path16" />
    <path
       d="M39.3776 38.8925C41.7944 38.8925 43.7552 40.8334 43.7552 43.2254C43.7552 45.6175 41.7944 47.5583 39.3776 47.5583C36.9608 47.5583 35 45.62 35 43.228C35 40.8359 36.9608 38.8951 39.3776 38.8951V38.8925Z"
       fill="#EFEFEF"
       id="path18" />
    <path
       d="M35.0285 43.7074C35.0104 43.5408 35 43.3793 35 43.2254C35 40.8334 36.9608 38.8925 39.3776 38.8925C41.7944 38.8925 43.7552 40.8334 43.7552 43.2254C43.7552 43.3818 43.7474 43.5408 43.7293 43.6972C43.4599 41.3179 41.2918 39.6053 38.8906 39.8719C36.8546 40.0975 35.2513 41.6897 35.0259 43.7049L35.0285 43.7074Z"
       fill="#C1C1C1"
       id="path20" />
    <path
       d="M66.6222 38.8925C69.039 38.8925 70.9998 40.8334 70.9998 43.2254C70.9998 45.6175 69.039 47.5583 66.6222 47.5583C64.2055 47.5583 62.2446 45.6175 62.2446 43.2254C62.2446 40.8334 64.2055 38.8925 66.6222 38.8925Z"
       fill="#EFEFEF"
       id="path22" />
    <path
       d="M53.487 28.299C61.548 28.299 68.0807 34.7649 68.0807 42.7436C68.0807 50.7223 61.548 57.1883 53.487 57.1883C45.426 57.1883 38.8906 50.7223 38.8906 42.7436C38.8906 34.7649 45.426 28.299 53.487 28.299Z"
       fill="white"
       id="path24" />
    <path
       d="M52.9999 29.2603C60.7915 29.2603 67.1066 35.5109 67.1066 43.2229C67.1066 50.935 60.7915 57.1856 52.9999 57.1856C45.2082 57.1856 38.8931 50.935 38.8931 43.2229C38.8931 35.5109 45.2082 29.2577 52.9999 29.2577V29.2603Z"
       fill="#EFEFEF"
       id="path26" />
    <path
       d="M57.6609 39.6338C59.046 39.6338 60.1665 40.7429 60.1665 42.1138C60.1665 43.4848 59.046 44.5938 57.6609 44.5938C56.2758 44.5938 55.1553 43.4848 55.1553 42.1138C55.1553 40.7429 56.2758 39.6338 57.6609 39.6338Z"
       fill="white"
       id="path28" />
    <path
       d="M57.6607 41.2863C58.5833 41.2863 59.3326 42.0257 59.3326 42.9412C59.3326 43.8544 58.5855 44.596 57.6607 44.596C56.738 44.596 55.9888 43.8566 55.9888 42.9412C55.9888 42.0279 56.7358 41.2863 57.6607 41.2863Z"
       fill="#757575"
       id="path30" />
    <path
       d="M49.3103 39.6338C50.6954 39.6338 51.8159 40.7429 51.8159 42.1138C51.8159 43.4847 50.6954 44.5938 49.3103 44.5938C47.9252 44.5938 46.8047 43.4847 46.8047 42.1138C46.8047 40.7429 47.9252 39.6338 49.3103 39.6338Z"
       fill="white"
       id="path32" />
    <path
       d="M49.3101 41.2863C50.2327 41.2863 50.982 42.0257 50.982 42.9412C50.982 43.8544 50.235 44.596 49.3101 44.596C48.3874 44.596 47.6382 43.8566 47.6382 42.9412C47.6382 42.0279 48.3852 41.2863 49.3101 41.2863Z"
       fill="#757575"
       id="path34" />
    <path
       d="M52.9999 57.1906C45.2082 57.1906 38.8931 50.94 38.8931 43.228C38.8931 39.5258 40.3799 35.9723 43.0272 33.3546C48.5368 27.9014 57.4681 27.9014 62.9803 33.3546C65.625 35.9723 67.1118 39.5258 67.1118 43.228C67.1118 43.3895 67.1118 43.5561 67.104 43.7177C66.8398 36.5415 60.7474 30.9369 53.4998 31.1985C46.2521 31.46 40.5871 37.4901 40.8513 44.6637C41.1026 51.4733 46.6199 56.9368 53.4998 57.1829C53.2951 57.1906 53.1449 57.1906 53.005 57.1906H52.9999Z"
       fill="#C1C1C1"
       id="path36" />
    <path
       d="M53.4868 53.4039C57.2479 53.4039 60.2967 50.3863 60.2967 46.6636H46.6743C46.6743 50.3863 49.7231 53.4039 53.4842 53.4039H53.4868Z"
       fill="#C1C1C1"
       id="path38" />
    <path
       d="M47.5978 58.3792C48.6821 58.7739 49.2408 59.9721 48.8461 61.0564L39.5579 86.5689C39.1632 87.6531 37.965 88.2119 36.8808 87.8171C35.7965 87.4223 35.2378 86.2241 35.6325 85.1399L44.9179 59.6274C45.3127 58.5432 46.5108 57.9844 47.5951 58.3792H47.5978Z"
       fill="#EFEFEF"
       id="path40" />
    <path
       d="M36.881 87.817C36.7169 87.7558 36.5585 87.6752 36.4111 87.5751C37.3591 87.6669 38.2488 87.1053 38.5768 86.2101L47.8649 60.6976C48.1902 59.8024 47.8705 58.8016 47.0865 58.2623C48.2347 58.3735 49.0743 59.3938 48.9658 60.5419C48.9492 60.7171 48.9102 60.8894 48.8491 61.0562L39.5609 86.5688C39.1662 87.653 37.968 88.2118 36.8837 87.817H36.881Z"
       fill="#C1C1C1"
       id="path42" />
    <path
       d="M57.7675 58.3792C58.8517 57.9844 60.0499 58.5432 60.4447 59.6274L69.7328 85.1399C70.1276 86.2241 69.5688 87.4223 68.4846 87.8171C67.4003 88.2119 66.2021 87.6531 65.8074 86.5689L56.5192 61.0564C56.1245 59.9721 56.6833 58.7739 57.7675 58.3792Z"
       fill="#EFEFEF"
       id="path44" />
    <path
       d="M68.4815 87.817C68.3175 87.8782 68.1423 87.9171 67.97 87.9338C68.7539 87.3945 69.0764 86.3909 68.7484 85.4985L59.4602 59.986C59.135 59.0908 58.2426 58.5292 57.2974 58.621C58.2481 57.9676 59.5492 58.2095 60.1997 59.1603C60.2998 59.3049 60.3804 59.4633 60.4416 59.6301L69.7297 85.1454C70.1245 86.2296 69.5657 87.4278 68.4815 87.8226V87.817Z"
       fill="#C1C1C1"
       id="path46" />
    <path
       d="M46.0605 59.0797C46.269 58.1178 47.1197 57.4339 48.101 57.4339H57.3058C58.2677 57.4339 59.1073 58.0928 59.3352 59.0296L68.0312 94.7811C68.1674 95.3426 67.8227 95.907 67.2639 96.0404C67.1833 96.0599 67.0999 96.071 67.0165 96.071H39.355C38.7768 96.071 38.3125 95.6012 38.3125 95.0257C38.3125 94.9534 38.3208 94.8784 38.3375 94.8061L46.0633 59.0825L46.0605 59.0797Z"
       fill="white"
       id="path48" />
    <path
       d="M46.0657 59.0935C46.2687 58.1261 47.1222 57.4338 48.1091 57.4338H57.2971C58.2646 57.4338 59.107 58.0983 59.3294 59.0407L68.042 95.8291C68.1755 96.3907 67.828 96.955 67.2664 97.0857C67.1858 97.1051 67.1024 97.1163 67.019 97.1135H39.3492C38.7709 97.1135 38.3066 96.6464 38.3066 96.071C38.3066 95.9987 38.315 95.9264 38.3289 95.8569L46.0685 59.0935H46.0657Z"
       fill="#DDDEDF"
       id="path50" />
    <path
       d="M67.0219 97.1163H39.3521C38.7738 97.1163 38.3096 96.6465 38.3096 96.071C38.3096 95.9987 38.3179 95.9264 38.3318 95.8569L46.0715 59.0936C46.2105 58.443 46.6497 57.8954 47.2558 57.6201C47.1946 57.7592 47.1473 57.9009 47.1168 58.0483L39.3771 94.8116C39.2576 95.376 39.619 95.932 40.1833 96.0488C40.2528 96.0627 40.3279 96.071 40.3974 96.071H68.07C68.07 96.349 67.9588 96.6159 67.7642 96.8105C67.5696 97.0079 67.3027 97.1163 67.0247 97.1163V97.1191L67.0219 97.1163Z"
       fill="#C1C1C1"
       id="path52" />
    <path
       d="M49.5579 57.4338H50.3307V55.3432H55.029V57.4338H55.8213C55.8992 59.0852 54.6259 60.4891 52.9746 60.5669C52.8745 60.5725 52.7772 60.5697 52.6799 60.5669C51.0369 60.6503 49.6385 59.3826 49.5579 57.7396C49.5523 57.6368 49.5523 57.5367 49.5579 57.4338Z"
       fill="#EFEFEF"
       id="path54" />
    <path
       d="M52.3345 60.5662C50.7307 60.505 49.4799 59.1514 49.5438 57.5449C49.5438 57.5087 49.5466 57.4698 49.5522 57.4337H50.2499V56.3914H50.9475V57.4337H50.2499C50.1415 58.943 51.1949 60.2855 52.6847 60.5412C52.568 60.5551 52.454 60.5634 52.3373 60.5634L52.3345 60.5662Z"
       fill="#C1C1C1"
       id="path56" />
    <path
       d="m 52.33386,55.7921 c 7.3638,0 13.3333,-5.9695 13.3333,-13.3333 0,-7.36383 -5.9695,-13.33337 -13.3333,-13.33337 -7.36381,0 -13.33335,5.96954 -13.33335,13.33337 0,7.3638 5.96954,13.3333 13.33335,13.3333 z"
       fill="#dc8605"
       id="path2" />
    <path
       d="m 53.66736,55.1254 c 7.3638,0 13.3333,-5.9695 13.3333,-13.3333 0,-7.36379 -5.9695,-13.33333 -13.3333,-13.33333 -7.36381,0 -13.33335,5.96954 -13.33335,13.33333 0,7.3638 5.96954,13.3333 13.33335,13.3333 z"
       fill="#ffffff"
       id="path4-3" />
    <path
       d="m 53.66736,56.4588 c 7.3638,0 13.3333,-5.9696 13.3333,-13.3333 0,-7.36385 -5.9695,-13.33338 -13.3333,-13.33338 -7.36381,0 -13.33335,5.96953 -13.33335,13.33338 0,7.3637 5.96954,13.3333 13.33335,13.3333 z"
       fill="#f49200"
       id="path6" />
    <path
       d="m 59.11626,41.2863 c 0.4872,0 0.8821,0.3949 0.8821,0.8821 v 8.812 c 0,0.4872 -0.3949,0.8821 -0.8821,0.8821 H 46.97057 c -0.48719,0 -0.88217,-0.3949 -0.88217,-0.8821 v -8.812 c 0,-0.4872 0.39498,-0.8821 0.88217,-0.8821 H 47.3101 V 38.557 c 0,-3.04498 2.46836,-5.51339 5.51336,-5.51339 h 0.4399 c 3.0449,10e-6 5.5134,2.46842 5.5134,5.51339 v 2.7293 z m -6.0966,2.3652 c -0.7176,0 -1.2993,0.5817 -1.2993,1.2993 0,0.4195 0.1989,0.7925 0.5075,1.0301 v 2.3186 c 0,0.4373 0.3545,0.7918 0.7918,0.7918 0.4373,0 0.7919,-0.3545 0.7919,-0.7918 v -2.3186 c 0.3085,-0.2376 0.5074,-0.6106 0.5074,-1.0301 0,-0.7175 -0.5817,-1.2993 -1.2993,-1.2993 z m 0.0237,-8.45237 c -1.9773,0 -3.5803,1.60296 -3.5803,3.58027 v 2.4936 h 7.1606 v -2.4936 c 0,-1.97731 -1.6029,-3.58026 -3.5803,-3.58027 z"
       fill="#ffffff"
       id="path8" />
  </g>
  <rect
     x="0.5"
     y="0.5"
     width="104"
     height="73"
     rx="36.5"
     stroke="#EFEFEF"
     stroke-linejoin="bevel"
     id="rect60" />
  <defs
     id="defs80">
    <filter
       id="filter0_d_385_493"
       x="-6.021"
       y="45.9502"
       width="70.2998"
       height="30.2051"
       filterUnits="userSpaceOnUse"
       color-interpolation-filters="sRGB">
      <feFlood
         flood-opacity="0"
         result="BackgroundImageFix"
         id="feFlood62" />
      <feColorMatrix
         in="SourceAlpha"
         type="matrix"
         values="0 0 0 0 0 0 0 0 0 0 0 0 0 0 0 0 0 0 127 0"
         result="hardAlpha"
         id="feColorMatrix64" />
      <feOffset
         id="feOffset66" />
      <feGaussianBlur
         stdDeviation="1"
         id="feGaussianBlur68" />
      <feColorMatrix
         type="matrix"
         values="0 0 0 0 0 0 0 0 0 0 0 0 0 0 0 0 0 0 0.2 0"
         id="feColorMatrix70" />
      <feBlend
         mode="normal"
         in2="BackgroundImageFix"
         result="effect1_dropShadow_385_493"
         id="feBlend72" />
      <feBlend
         mode="normal"
         in="SourceGraphic"
         in2="effect1_dropShadow_385_493"
         result="shape"
         id="feBlend74" />
    </filter>
    <clipPath
       id="clip0_385_493">
      <rect
         x="0.5"
         y="0.5"
         width="104"
         height="73"
         rx="36.5"
         fill="white"
         id="rect77" />
    </clipPath>
  </defs>
</svg>
