<?xml version="1.0" encoding="UTF-8" standalone="no"?>
<svg
   width="105"
   height="74"
   viewBox="0 0 105 74"
   fill="none"
   version="1.1"
   id="svg82"
   sodipodi:docname="friend-unlocked.svg"
   inkscape:version="1.1.2 (0a00cf5339, 2022-02-04)"
   xmlns:inkscape="http://www.inkscape.org/namespaces/inkscape"
   xmlns:sodipodi="http://sodipodi.sourceforge.net/DTD/sodipodi-0.dtd"
   xmlns="http://www.w3.org/2000/svg"
   xmlns:svg="http://www.w3.org/2000/svg">
  <sodipodi:namedview
     id="namedview84"
     pagecolor="#ffffff"
     bordercolor="#666666"
     borderopacity="1.0"
     inkscape:pageshadow="2"
     inkscape:pageopacity="0.0"
     inkscape:pagecheckerboard="0"
     showgrid="false"
     inkscape:zoom="7.1621622"
     inkscape:cx="52.498113"
     inkscape:cy="37"
     inkscape:window-width="1366"
     inkscape:window-height="694"
     inkscape:window-x="0"
     inkscape:window-y="26"
     inkscape:window-maximized="1"
     inkscape:current-layer="g58" />
  <g
     clip-path="url(#clip0_385_97829)"
     id="g58">
    <rect
       x="0.5"
       y="0.5"
       width="104"
       height="73"
       rx="36.5"
       fill="#9EEAFF"
       id="rect2" />
    <g
       filter="url(#filter0_d_385_97829)"
       id="g6">
      <path
         d="M35.9976 47.9502C29.426 47.9502 23.7405 50.6769 21.0063 54.6426C20.067 54.481 19.0867 54.3945 18.0786 54.3945C12.8438 54.3946 8.35948 56.7015 6.47998 59.9785H3.06689C-0.847759 59.9786 -4.021 63.1527 -4.021 67.0674C-4.02082 70.9819 -0.847652 74.1552 3.06689 74.1553H53.2573C58.2397 74.1553 62.2788 70.1162 62.2788 65.1338C62.2788 60.1514 58.2397 56.1123 53.2573 56.1123H51.8394C49.6006 51.3658 43.3536 47.9502 35.9976 47.9502Z"
         fill="white"
         id="path4" />
    </g>
    <path
       d="M39.2609 60.7086C39.2609 60.7086 41.581 58.3755 40.3375 54.448C39.0968 50.5206 37.3637 47.1635 36.8907 43.2713C36.4178 39.3792 37.7448 30.6741 46.5133 26.2523C53.5403 23.1288 59.0539 23.5906 60.7425 25.595C64.0112 25.9481 70.3651 33.9171 69.0047 43.2306C67.5331 51.2485 66.1171 55.3742 68.2425 58.5004C67.5887 58.2071 66.718 57.1451 66.718 57.1451C66.718 57.1451 67.8613 58.7938 67.8057 59.9155C66.8793 59.3261 66.3897 58.7965 66.3897 58.7965C66.3897 58.7965 66.9879 59.7987 66.9879 60.6244C66.1728 61.6266 65.6275 61.8032 65.6275 61.8032L65.4105 60.801C65.4105 60.801 65.5746 61.3904 65.302 61.5669C65.0294 61.7435 63.1795 61.7434 62.089 61.6267C60.9985 61.5099 45.0973 61.2138 42.2653 61.1541C42.8634 60.0921 42.7549 59.2093 42.7549 59.2093C42.7549 59.2093 41.8842 61.2708 40.2513 61.2708C41.1776 60.3284 41.0663 59.3261 41.0663 59.3261C41.0663 59.3261 40.0676 61.3822 39.2609 60.7086Z"
       fill="#C1C1C1"
       id="path10" />
    <path
       d="M69.1434 39.9986C69.0766 40.4522 68.8485 41.5305 68.1364 42.4431C68.2449 40.5527 68.3005 41.1421 67.9194 40.0801C67.8109 41.4382 66.6675 42.5626 66.6675 42.5626C66.6675 42.5626 67.3213 41.6745 64.3808 39.727C61.4404 37.7796 60.1858 34.8788 60.2414 33.7571C60.297 32.6326 61.713 33.0482 63.8356 34.4062C65.9581 35.7643 61.0036 31.8042 61.4404 29.9736C61.8771 28.1429 64.1082 29.1451 64.1082 29.1451C64.1082 29.1451 61.9189 26.6083 64.3113 28.5367C63.04 27.176 61.7492 26.3476 60.7477 26.2389C59.0591 24.229 53.5426 23.7673 46.5184 26.8989C45.681 27.3227 44.9105 27.7871 44.2039 28.2787C44.4014 28.1728 44.6045 28.056 44.8215 27.9202C49.5979 24.9053 55.4482 24.3757 58.0799 26.4399C60.7115 28.5041 59.1036 30.036 57.0561 28.9795C55.0087 27.9229 51.9876 27.6567 54.9586 28.8219C57.9324 29.9844 59.5403 31.7852 57.2982 32.2605C55.056 32.7358 52.0349 34.5339 55.056 33.5289C58.0799 32.524 59.1509 33.0536 58.1772 34.4279C52.9139 41.0932 39.1186 39.1431 39.1186 39.1431C39.1186 39.1431 39.6249 42.0085 39.2883 41.2779C38.9517 40.5446 38.1088 38.7791 38.1088 38.7791C38.1088 38.7791 37.5468 40.9112 37.8278 42.9239C37.1101 41.5169 37.1212 39.8601 37.2381 38.7791C36.7846 40.8189 36.7401 42.6604 36.8987 43.9641C37.3716 47.8644 39.1047 51.2324 40.3454 55.168C40.4094 55.3717 40.4623 55.5699 40.5095 55.7655C40.4011 54.4129 40.0366 53.0521 39.5776 51.7457C39.5526 51.6778 39.675 51.5013 39.7251 51.5882C40.8128 53.5492 41.6418 55.608 41.8059 57.8841C41.9283 56.928 41.9367 55.9611 41.8003 55.0023C41.792 54.9371 41.8755 54.7606 41.9478 54.8448C42.1703 55.1164 42.3345 55.4233 42.5014 55.7356C42.6127 55.5618 42.7545 55.4124 42.8435 55.2196C42.8575 55.1897 42.9214 55.1218 42.9548 55.1544C44.0036 56.2164 45.4724 56.0208 46.7799 56.3223C46.8411 56.3359 46.8161 56.4255 46.7938 56.4663C46.3738 57.2567 45.5002 57.5065 44.9689 58.191C44.3458 58.9977 43.9034 59.9293 43.2553 60.7251C42.952 61.0972 42.6349 61.4557 42.3122 61.8088C42.2983 61.836 42.2844 61.8604 42.2705 61.8876C45.1024 61.9473 61.0064 62.2434 62.0941 62.3602C63.1819 62.4797 65.0346 62.4797 65.3072 62.3004C65.3461 62.276 65.374 62.2407 65.3962 62.2026C64.3308 59.6658 63.332 57.1073 60.5418 56.4337C60.4389 56.4092 60.5474 56.2408 60.603 56.2191C61.9884 55.7112 63.9524 54.8936 64.3502 53.1798C64.3586 53.1445 64.4559 52.9842 64.4949 53.0739C64.8565 53.8833 64.7647 54.7171 64.7619 55.5754C65.221 54.0788 65.577 52.5687 65.5381 50.9771C65.5381 50.9064 65.6521 50.7489 65.6939 50.863C65.9053 51.4225 65.9915 51.982 66.0166 52.5714C66.3059 51.8109 66.5952 51.0477 66.9513 50.317C66.9791 50.2627 67.0848 50.203 67.0848 50.3089C67.082 51.6832 67.0041 53.1662 67.1822 54.5732C67.3101 51.9657 68.1503 48.6032 69.0071 43.9179C69.2018 42.5762 69.2352 41.2643 69.1434 39.9959H69.149L69.1434 39.9986Z"
       fill="#C1C1C1"
       id="path12" />
    <path
       d="M60.7423 26.4644C60.7423 26.4644 60.734 26.5894 60.7173 26.8039C60.6978 27.0185 60.67 27.3281 60.6199 27.6948C60.5949 27.8795 60.5671 28.0778 60.542 28.2896C60.5114 28.4988 60.4892 28.7242 60.4447 28.9523C60.364 29.4114 60.2694 29.8976 60.1776 30.3837C60.1275 30.6255 60.0802 30.8699 60.033 31.1089C59.9857 31.3479 59.9161 31.5788 59.8633 31.8042C59.7492 32.2551 59.6296 32.6761 59.535 33.0346C59.4404 33.3932 59.3458 33.6919 59.2874 33.9011C59.2234 34.1102 59.1873 34.227 59.1873 34.227C59.1873 34.227 59.2095 34.1048 59.2457 33.8902C59.2874 33.6756 59.3403 33.3714 59.4154 33.0075C59.4933 32.6435 59.5767 32.2198 59.6769 31.7662C59.7269 31.5408 59.7826 31.3072 59.8299 31.0682C59.8772 30.8292 59.9217 30.5874 59.969 30.343C60.0663 29.8595 60.1637 29.3733 60.2611 28.9198C60.3111 28.6943 60.3501 28.4716 60.3918 28.2652C60.4336 28.056 60.4697 27.8605 60.5059 27.6758C60.5754 27.3118 60.6477 27.0076 60.6811 26.7931C60.7228 26.5785 60.7479 26.459 60.7479 26.459L60.7423 26.4644Z"
       fill="#EFEFEF"
       id="path14" />
    <path
       d="M39.5412 33.3685C39.5412 33.3685 46.9494 23.4793 57.5149 26.2442C52.1765 26.3502 50.3266 27.7326 52.3963 28.0531C54.466 28.3736 53.5953 28.3736 51.4171 29.7561C49.2389 31.1386 50.3294 31.3532 53.5953 30.7122C56.864 30.0739 53.9235 31.8828 51.851 33.2653C49.7785 34.6478 53.8123 34.2214 56.316 33.0535C50.3266 36.4567 46.0786 38.157 39.4327 36.2449C45.7504 35.3947 46.6211 33.1594 44.1147 34.1182C41.611 35.0742 43.1354 33.5858 44.6599 32.0974C46.1844 30.609 45.2051 28.6942 39.5412 33.374V33.3685Z"
       fill="#EFEFEF"
       id="path16" />
    <path
       d="M39.3777 38.8926C41.7945 38.8926 43.7553 40.8334 43.7553 43.2255C43.7553 45.6175 41.7945 47.5583 39.3777 47.5583C36.961 47.5583 35.0001 45.6201 35.0001 43.228C35.0001 40.836 36.961 38.8951 39.3777 38.8951V38.8926Z"
       fill="#EFEFEF"
       id="path18" />
    <path
       d="M35.0286 43.7075C35.0105 43.5408 35.0001 43.3793 35.0001 43.2255C35.0001 40.8334 36.961 38.8926 39.3777 38.8926C41.7945 38.8926 43.7553 40.8334 43.7553 43.2255C43.7553 43.3818 43.7476 43.5408 43.7294 43.6972C43.46 41.318 41.292 39.6053 38.8907 39.872C36.8548 40.0976 35.2514 41.6897 35.026 43.7049L35.0286 43.7075Z"
       fill="#C1C1C1"
       id="path20" />
    <path
       d="M66.6225 38.8926C69.0392 38.8926 71.0001 40.8334 71.0001 43.2255C71.0001 45.6175 69.0392 47.5583 66.6225 47.5583C64.2057 47.5583 62.2449 45.6175 62.2449 43.2255C62.2449 40.8334 64.2057 38.8926 66.6225 38.8926Z"
       fill="#EFEFEF"
       id="path22" />
    <path
       d="M53.4871 28.2988C61.5481 28.2988 68.0809 34.7648 68.0809 42.7435C68.0809 50.7221 61.5481 57.1882 53.4871 57.1882C45.4261 57.1882 38.8907 50.7221 38.8907 42.7435C38.8907 34.7648 45.4261 28.2988 53.4871 28.2988Z"
       fill="white"
       id="path24" />
    <path
       d="M53.0001 29.2599C60.7917 29.2599 67.1069 35.5105 67.1069 43.2225C67.1069 50.9346 60.7917 57.1852 53.0001 57.1852C45.2085 57.1852 38.8933 50.9346 38.8933 43.2225C38.8933 35.5105 45.2085 29.2573 53.0001 29.2573V29.2599Z"
       fill="#EFEFEF"
       id="path26" />
    <path
       d="M57.661 39.6338C59.0461 39.6338 60.1666 40.7429 60.1666 42.1138C60.1666 43.4847 59.0461 44.5938 57.661 44.5938C56.2759 44.5938 55.1554 43.4847 55.1554 42.1138C55.1554 40.7429 56.2759 39.6338 57.661 39.6338Z"
       fill="white"
       id="path28" />
    <path
       d="M57.6611 41.2861C58.5838 41.2861 59.3331 42.0255 59.3331 42.9409C59.3331 43.8542 58.586 44.5958 57.6611 44.5958C56.7385 44.5958 55.9893 43.8564 55.9893 42.9409C55.9893 42.0277 56.7363 41.2861 57.6611 41.2861Z"
       fill="#757575"
       id="path30" />
    <path
       d="M49.3106 39.6338C50.6957 39.6338 51.8162 40.7429 51.8162 42.1138C51.8162 43.4847 50.6957 44.5938 49.3106 44.5938C47.9255 44.5938 46.8049 43.4847 46.8049 42.1138C46.8049 40.7429 47.9255 39.6338 49.3106 39.6338Z"
       fill="white"
       id="path32" />
    <path
       d="M49.3102 41.2861C50.2329 41.2861 50.9821 42.0255 50.9821 42.9409C50.9821 43.8542 50.2351 44.5958 49.3102 44.5958C48.3876 44.5958 47.6383 43.8564 47.6383 42.9409C47.6383 42.0277 48.3853 41.2861 49.3102 41.2861Z"
       fill="#757575"
       id="path34" />
    <path
       d="M53.0001 57.1906C45.2085 57.1906 38.8933 50.94 38.8933 43.2279C38.8933 39.5258 40.3801 35.9723 43.0274 33.3546C48.537 27.9013 57.4684 27.9013 62.9805 33.3546C65.6252 35.9723 67.1121 39.5258 67.1121 43.2279C67.1121 43.3895 67.1121 43.5561 67.1043 43.7176C66.8401 36.5415 60.7477 30.9369 53.5 31.1984C46.2524 31.4599 40.5874 37.4901 40.8516 44.6637C41.1028 51.4732 46.6202 56.9368 53.5 57.1829C53.2954 57.1906 53.1451 57.1906 53.0053 57.1906H53.0001Z"
       fill="#C1C1C1"
       id="path36" />
    <path
       d="M53.4872 53.4039C57.2483 53.4039 60.2971 50.3863 60.2971 46.6636H46.6747C46.6747 50.3863 49.7235 53.4039 53.4846 53.4039H53.4872Z"
       fill="#C1C1C1"
       id="path38" />
    <path
       d="M47.5982 58.3791C48.6824 58.7739 49.2412 59.9721 48.8464 61.0563L39.5583 86.5688C39.1635 87.653 37.9653 88.2118 36.8811 87.817C35.7969 87.4223 35.2381 86.2241 35.6329 85.1399L44.9183 59.6273C45.313 58.5431 46.5112 57.9843 47.5954 58.3791H47.5982Z"
       fill="#EFEFEF"
       id="path40" />
    <path
       d="M36.8812 87.8169C36.7172 87.7557 36.5587 87.6751 36.4114 87.575C37.3594 87.6668 38.249 87.1052 38.577 86.21L47.8652 60.6975C48.1904 59.8024 47.8707 58.8015 47.0868 58.2622C48.2349 58.3734 49.0745 59.3937 48.9661 60.5419C48.9494 60.717 48.9105 60.8893 48.8493 61.0562L39.5612 86.5687C39.1664 87.6529 37.9682 88.2117 36.884 87.8169H36.8812Z"
       fill="#C1C1C1"
       id="path42" />
    <path
       d="M57.7677 58.3791C58.8519 57.9843 60.0501 58.5431 60.4449 59.6273L69.733 85.1399C70.1278 86.2241 69.569 87.4223 68.4848 87.817C67.4006 88.2118 66.2024 87.653 65.8076 86.5688L56.5195 61.0563C56.1247 59.9721 56.6835 58.7739 57.7677 58.3791Z"
       fill="#EFEFEF"
       id="path44" />
    <path
       d="M68.482 87.8172C68.318 87.8784 68.1428 87.9173 67.9705 87.9339C68.7544 87.3946 69.0769 86.391 68.7489 85.4986L59.4607 59.9861C59.1355 59.0909 58.2431 58.5294 57.2979 58.6211C58.2486 57.9678 59.5497 58.2097 60.2002 59.1604C60.3003 59.305 60.3809 59.4635 60.4421 59.6303L69.7302 85.1456C70.125 86.2298 69.5662 87.428 68.482 87.8228V87.8172Z"
       fill="#C1C1C1"
       id="path46" />
    <path
       d="M46.0611 59.0799C46.2696 58.118 47.1203 57.4341 48.1016 57.4341H57.3064C58.2683 57.4341 59.1079 58.093 59.3358 59.0298L68.0318 94.7812C68.168 95.3428 67.8233 95.9072 67.2645 96.0406C67.1839 96.0601 67.1005 96.0712 67.0171 96.0712H39.3556C38.7774 96.0712 38.3131 95.6014 38.3131 95.0259C38.3131 94.9536 38.3214 94.8786 38.3381 94.8063L46.0639 59.0826L46.0611 59.0799Z"
       fill="white"
       id="path48" />
    <path
       d="M46.0662 59.0938C46.2692 58.1263 47.1227 57.4341 48.1096 57.4341H57.2976C58.2651 57.4341 59.1074 58.0985 59.3298 59.0409L68.0425 95.8293C68.176 96.3909 67.8284 96.9553 67.2669 97.0859C67.1863 97.1054 67.1029 97.1165 67.0195 97.1137H39.3496C38.7714 97.1137 38.3071 96.6467 38.3071 96.0712C38.3071 95.9989 38.3155 95.9266 38.3294 95.8571L46.069 59.0938H46.0662Z"
       fill="#DDDEDF"
       id="path50" />
    <path
       d="M67.0224 97.1163H39.3526C38.7743 97.1163 38.3101 96.6464 38.3101 96.071C38.3101 95.9987 38.3184 95.9264 38.3323 95.8569L46.0719 59.0935C46.2109 58.443 46.6502 57.8953 47.2562 57.6201C47.1951 57.7591 47.1478 57.9009 47.1172 58.0482L39.3776 94.8116C39.258 95.376 39.6195 95.932 40.1838 96.0487C40.2533 96.0626 40.3284 96.071 40.3979 96.071H68.0705C68.0705 96.349 67.9593 96.6159 67.7647 96.8105C67.5701 97.0078 67.3032 97.1163 67.0252 97.1163V97.1191L67.0224 97.1163Z"
       fill="#C1C1C1"
       id="path52" />
    <path
       d="M49.5582 57.4339H50.3311V55.3433H55.0294V57.4339H55.8217C55.8995 59.0852 54.6263 60.4891 52.9749 60.567C52.8748 60.5725 52.7775 60.5697 52.6802 60.567C51.0372 60.6504 49.6389 59.3827 49.5582 57.7397C49.5527 57.6368 49.5527 57.5367 49.5582 57.4339Z"
       fill="#EFEFEF"
       id="path54" />
    <path
       d="M52.3347 60.5664C50.7309 60.5052 49.4802 59.1516 49.5441 57.5451C49.5441 57.5089 49.5469 57.47 49.5524 57.4339H50.2501V56.3916H50.9478V57.4339H50.2501C50.1417 58.9432 51.1951 60.2857 52.6849 60.5414C52.5682 60.5553 52.4542 60.5636 52.3375 60.5636L52.3347 60.5664Z"
       fill="#C1C1C1"
       id="path56" />
  </g>
  <rect
     x="0.5"
     y="0.5"
     width="104"
     height="73"
     rx="36.5"
     stroke="#EFEFEF"
     stroke-linejoin="bevel"
     id="rect60" />
  <defs
     id="defs80">
    <filter
       id="filter0_d_385_97829"
       x="-6.021"
       y="45.9502"
       width="70.2998"
       height="30.2051"
       filterUnits="userSpaceOnUse"
       color-interpolation-filters="sRGB">
      <feFlood
         flood-opacity="0"
         result="BackgroundImageFix"
         id="feFlood62" />
      <feColorMatrix
         in="SourceAlpha"
         type="matrix"
         values="0 0 0 0 0 0 0 0 0 0 0 0 0 0 0 0 0 0 127 0"
         result="hardAlpha"
         id="feColorMatrix64" />
      <feOffset
         id="feOffset66" />
      <feGaussianBlur
         stdDeviation="1"
         id="feGaussianBlur68" />
      <feColorMatrix
         type="matrix"
         values="0 0 0 0 0 0 0 0 0 0 0 0 0 0 0 0 0 0 0.2 0"
         id="feColorMatrix70" />
      <feBlend
         mode="normal"
         in2="BackgroundImageFix"
         result="effect1_dropShadow_385_97829"
         id="feBlend72" />
      <feBlend
         mode="normal"
         in="SourceGraphic"
         in2="effect1_dropShadow_385_97829"
         result="shape"
         id="feBlend74" />
    </filter>
    <clipPath
       id="clip0_385_97829">
      <rect
         x="0.5"
         y="0.5"
         width="104"
         height="73"
         rx="36.5"
         fill="white"
         id="rect77" />
    </clipPath>
  </defs>
</svg>
