<?xml version="1.0" encoding="UTF-8" standalone="no"?>
<svg
   width="105"
   height="74"
   viewBox="0 0 105 74"
   fill="none"
   version="1.1"
   id="svg166"
   sodipodi:docname="blank.svg"
   inkscape:version="1.1.2 (0a00cf5339, 2022-02-04)"
   xmlns:inkscape="http://www.inkscape.org/namespaces/inkscape"
   xmlns:sodipodi="http://sodipodi.sourceforge.net/DTD/sodipodi-0.dtd"
   xmlns="http://www.w3.org/2000/svg"
   xmlns:svg="http://www.w3.org/2000/svg">
  <sodipodi:namedview
     id="namedview168"
     pagecolor="#ffffff"
     bordercolor="#666666"
     borderopacity="1.0"
     inkscape:pageshadow="2"
     inkscape:pageopacity="0.0"
     inkscape:pagecheckerboard="0"
     showgrid="false"
     inkscape:zoom="7.1621622"
     inkscape:cx="52.498113"
     inkscape:cy="37"
     inkscape:window-width="1366"
     inkscape:window-height="694"
     inkscape:window-x="0"
     inkscape:window-y="26"
     inkscape:window-maximized="1"
     inkscape:current-layer="g142" />
  <g
     clip-path="url(#clip0_385_97127)"
     id="g142">
    <rect
       x="0.5"
       y="0.5"
       width="104"
       height="73"
       rx="36.5"
       fill="white"
       id="rect2" />
    <g
       filter="url(#filter0_d_385_97127)"
       id="g6">
      <path
         d="M35.9976 47.9502C29.426 47.9502 23.7405 50.6769 21.0063 54.6426C20.067 54.481 19.0867 54.3945 18.0786 54.3945C12.8438 54.3946 8.35948 56.7015 6.47998 59.9785H3.06689C-0.847759 59.9786 -4.021 63.1527 -4.021 67.0674C-4.02082 70.9819 -0.847652 74.1552 3.06689 74.1553H53.2573C58.2397 74.1553 62.2788 70.1162 62.2788 65.1338C62.2788 60.1514 58.2397 56.1123 53.2573 56.1123H51.8394C49.6006 51.3658 43.3536 47.9502 35.9976 47.9502Z"
         fill="white"
         id="path4" />
    </g>
    <circle
       cx="33.5001"
       cy="61"
       r="5"
       fill="white"
       id="circle10" />
    <circle
       cx="52.5001"
       cy="41"
       r="18"
       fill="white"
       id="circle12" />
    <path
       fill-rule="evenodd"
       clip-rule="evenodd"
       d="M66.9069 56.9472C66.6822 56.4427 66.9091 55.8516 67.4137 55.627L70.1543 54.4067C70.6588 54.1821 71.25 54.409 71.4746 54.9136C71.6992 55.4181 71.4723 56.0092 70.9678 56.2338L68.2271 57.454C67.7226 57.6787 67.1315 57.4518 66.9069 56.9472Z"
       fill="white"
       id="path14" />
    <path
       fill-rule="evenodd"
       clip-rule="evenodd"
       d="M38.4746 56.9472C38.6992 56.4427 38.4723 55.8516 37.9678 55.627L35.2272 54.4067C34.7226 54.1821 34.1315 54.409 33.9069 54.9136C33.6822 55.4181 33.9092 56.0092 34.4137 56.2338L37.1543 57.454C37.6589 57.6787 38.25 57.4518 38.4746 56.9472Z"
       fill="white"
       id="path16" />
    <circle
       cx="71.5001"
       cy="61"
       r="5"
       fill="white"
       id="circle18" />
    <circle
       cx="33.5001"
       cy="62"
       r="5"
       fill="white"
       id="circle20" />
    <circle
       cx="65.0001"
       cy="47.5"
       r="9.5"
       fill="white"
       id="circle24" />
    <circle
       cx="39.0001"
       cy="44.5"
       r="4.5"
       fill="white"
       id="circle26" />
    <circle
       cx="67.0001"
       cy="44.5"
       r="4.5"
       fill="white"
       id="circle30" />
    <circle
       cx="53.5001"
       cy="44"
       r="15"
       fill="white"
       id="circle32" />
    <path
       d="M53.0001 30C61.0083 30 67.5001 36.4919 67.5001 44.5C67.5001 44.6713 67.4953 44.8419 67.4894 45.0117C67.2323 37.7821 61.2925 32 54.0001 32C46.5443 32 40.5001 38.0442 40.5001 45.5C40.5001 52.7924 46.2822 58.7322 53.5118 58.9893C53.342 58.9951 53.1714 59 53.0001 59C44.992 59 38.5001 52.5081 38.5001 44.5C38.5001 36.4919 44.992 30 53.0001 30Z"
       fill="white"
       id="path36" />
  </g>
  <rect
     x="0.5"
     y="0.5"
     width="104"
     height="73"
     rx="36.5"
     stroke="#EFEFEF"
     stroke-linejoin="bevel"
     id="rect144" />
  <defs
     id="defs164">
    <filter
       id="filter0_d_385_97127"
       x="-6.021"
       y="45.9502"
       width="70.2998"
       height="30.2051"
       filterUnits="userSpaceOnUse"
       color-interpolation-filters="sRGB">
      <feFlood
         flood-opacity="0"
         result="BackgroundImageFix"
         id="feFlood146" />
      <feColorMatrix
         in="SourceAlpha"
         type="matrix"
         values="0 0 0 0 0 0 0 0 0 0 0 0 0 0 0 0 0 0 127 0"
         result="hardAlpha"
         id="feColorMatrix148" />
      <feOffset
         id="feOffset150" />
      <feGaussianBlur
         stdDeviation="1"
         id="feGaussianBlur152" />
      <feColorMatrix
         type="matrix"
         values="0 0 0 0 0 0 0 0 0 0 0 0 0 0 0 0 0 0 0.2 0"
         id="feColorMatrix154" />
      <feBlend
         mode="normal"
         in2="BackgroundImageFix"
         result="effect1_dropShadow_385_97127"
         id="feBlend156" />
      <feBlend
         mode="normal"
         in="SourceGraphic"
         in2="effect1_dropShadow_385_97127"
         result="shape"
         id="feBlend158" />
    </filter>
    <clipPath
       id="clip0_385_97127">
      <rect
         x="0.5"
         y="0.5"
         width="104"
         height="73"
         rx="36.5"
         fill="white"
         id="rect161" />
    </clipPath>
  </defs>
</svg>
