<?xml version="1.0" encoding="UTF-8" standalone="no"?>
<svg
   width="105"
   height="74"
   viewBox="0 0 105 74"
   fill="none"
   version="1.1"
   id="svg128"
   sodipodi:docname="kuku.svg"
   inkscape:version="1.1.2 (0a00cf5339, 2022-02-04)"
   xmlns:inkscape="http://www.inkscape.org/namespaces/inkscape"
   xmlns:sodipodi="http://sodipodi.sourceforge.net/DTD/sodipodi-0.dtd"
   xmlns="http://www.w3.org/2000/svg"
   xmlns:svg="http://www.w3.org/2000/svg">
  <sodipodi:namedview
     id="namedview130"
     pagecolor="#ffffff"
     bordercolor="#666666"
     borderopacity="1.0"
     inkscape:pageshadow="2"
     inkscape:pageopacity="0.0"
     inkscape:pagecheckerboard="0"
     showgrid="false"
     inkscape:zoom="7.1621622"
     inkscape:cx="52.498113"
     inkscape:cy="37"
     inkscape:window-width="1366"
     inkscape:window-height="694"
     inkscape:window-x="0"
     inkscape:window-y="26"
     inkscape:window-maximized="1"
     inkscape:current-layer="g104" />
  <g
     clip-path="url(#clip0_385_97685)"
     id="g104">
    <rect
       x="0.5"
       y="0.5"
       width="104"
       height="73"
       rx="36.5"
       fill="white"
       id="rect2" />
    <g
       filter="url(#filter0_d_385_97685)"
       id="g6">
      <path
         d="M35.9976 47.9502C29.426 47.9502 23.7405 50.6769 21.0063 54.6426C20.067 54.481 19.0867 54.3945 18.0786 54.3945C12.8438 54.3946 8.35948 56.7015 6.47998 59.9785H3.06689C-0.847759 59.9786 -4.021 63.1527 -4.021 67.0674C-4.02082 70.9819 -0.847652 74.1552 3.06689 74.1553H53.2573C58.2397 74.1553 62.2788 70.1162 62.2788 65.1338C62.2788 60.1514 58.2397 56.1123 53.2573 56.1123H51.8394C49.6006 51.3658 43.3536 47.9502 35.9976 47.9502Z"
         fill="white"
         id="path4" />
    </g>
    <path
       d="M57.2493 51.2317C61.2337 51.2317 64.4634 48.0019 64.4634 44.0176H50.0325C50.0325 48.0019 53.2622 51.2317 57.2466 51.2317H57.2493Z"
       fill="#8E361F"
       id="path10" />
    <path
       d="M42.3052 35.9258C44.8654 35.9258 46.9426 38.003 46.9426 40.5632C46.9426 43.1234 44.8654 45.2006 42.3052 45.2006C39.745 45.2006 37.6677 43.1234 37.6677 40.5632C37.6677 38.003 39.745 35.9258 42.3052 35.9258Z"
       fill="#603B1B"
       id="path12" />
    <path
       d="M37.6952 41.0791C37.676 40.9007 37.665 40.7279 37.665 40.5632C37.665 38.003 39.7423 35.9258 42.3025 35.9258C44.8627 35.9258 46.9399 38.003 46.9399 40.5632C46.9399 40.7306 46.9317 40.9007 46.9124 41.0681C46.6271 38.5216 44.3303 36.6886 41.7866 36.974C39.6298 37.2155 37.9312 38.9195 37.6925 41.0764L37.6952 41.0791Z"
       fill="#7F5122"
       id="path14" />
    <path
       d="M73.697 35.9258C76.2572 35.9258 78.3344 38.003 78.3344 40.5632C78.3344 43.1234 76.2572 45.2006 73.697 45.2006C71.1368 45.2006 69.0596 43.1234 69.0596 40.5632C69.0596 38.003 71.1368 35.9258 73.697 35.9258Z"
       fill="#603B1B"
       id="path16" />
    <path
       d="M57.4304 24.5845C65.9699 24.5845 72.8903 31.5049 72.8903 40.0444C72.8903 48.5839 65.9671 55.5044 57.4304 55.5044C48.8937 55.5044 41.9705 48.5811 41.9705 40.0444C41.9705 31.5077 48.891 24.5845 57.4304 24.5845Z"
       fill="#7F5122"
       id="path18" />
    <path
       d="M56.7334 25.6191C64.9874 25.6191 71.6774 32.3091 71.6774 40.5632C71.6774 48.8173 64.9874 55.5072 56.7334 55.5072C48.4793 55.5072 41.7893 48.8173 41.7893 40.5632C41.7893 32.3091 48.4793 25.6191 56.7334 25.6191Z"
       fill="#603B1B"
       id="path20" />
    <path
       d="M56.7334 55.507C48.4793 55.507 41.7893 48.817 41.7893 40.5629C41.7893 36.6005 43.3644 32.7973 46.166 29.9956C52.0026 24.159 61.4641 24.159 67.3034 29.9956C70.1051 32.7973 71.6801 36.6005 71.6801 40.5629C71.6801 40.7358 71.6802 40.9141 71.6719 41.087C71.392 33.4064 64.9381 27.408 57.2602 27.6879C49.5824 27.9677 43.5811 34.4217 43.861 42.0996C44.1245 49.3877 49.972 55.2353 57.2602 55.4987C57.0434 55.507 56.8843 55.507 56.7361 55.507H56.7334Z"
       fill="#503218"
       id="path22" />
    <path
       d="M62.4026 35.9258C64.1121 35.9258 65.4951 37.3088 65.4951 39.0183C65.4951 40.7279 64.1121 42.1109 62.4026 42.1109C60.6931 42.1109 59.3101 40.7279 59.3101 39.0183C59.3101 37.3088 60.6931 35.9258 62.4026 35.9258Z"
       fill="white"
       id="path24" />
    <path
       d="M62.4026 37.9863C63.5414 37.9863 64.4662 38.9083 64.4662 40.0499C64.4662 41.1914 63.5442 42.1134 62.4026 42.1134C61.2611 42.1134 60.3391 41.1914 60.3391 40.0499C60.3391 38.9083 61.2611 37.9863 62.4026 37.9863Z"
       fill="#3E2316"
       id="path26" />
    <path
       d="M52.096 35.9258C53.8028 35.9258 55.1885 37.3088 55.1885 39.0183C55.1885 40.7279 53.8055 42.1109 52.096 42.1109C50.3864 42.1109 49.0034 40.7279 49.0034 39.0183C49.0034 37.3088 50.3864 35.9258 52.096 35.9258Z"
       fill="white"
       id="path28" />
    <path
       d="M52.096 37.9863C53.2348 37.9863 54.1595 38.9083 54.1595 40.0499C54.1595 41.1914 53.2375 42.1134 52.096 42.1134C50.9545 42.1134 50.0325 41.1914 50.0325 40.0499C50.0325 38.9083 50.9545 37.9863 52.096 37.9863Z"
       fill="#3E2316"
       id="path30" />
    <path
       d="M57.2493 51.2317C61.2337 51.2317 64.4634 48.0019 64.4634 44.0176H50.0325C50.0325 48.0019 53.2622 51.2317 57.2466 51.2317H57.2493Z"
       fill="#8E361F"
       id="path32" />
    <path
       d="M72.3415 36.0764C72.1439 35.2669 71.8778 34.4849 71.5567 33.7303C71.9601 32.7699 72.0342 31.7518 71.9299 30.7722C71.4085 26.0195 66.7903 22.8501 62.1062 23.8133C61.0936 24.0219 60.243 24.3127 59.6805 24.5295C58.8984 24.4088 58.0999 24.3457 57.2877 24.3457C56.9145 24.3457 56.544 24.3621 56.1763 24.3896C55.386 23.7255 54.4503 23.3496 53.4954 23.1575C48.8058 22.2108 44.3852 25.6463 43.8803 30.4045C43.8062 31.096 43.7925 31.7299 43.798 32.254C43.101 33.4943 42.5686 34.8389 42.2339 36.2603C42.0829 36.8997 42.7772 37.3991 43.3315 37.0478C45.4581 35.6978 47.3762 34.0431 49.0226 32.136L49.0638 32.0893C50.5291 30.3908 52.6722 29.4331 54.9141 29.4688L59.5598 29.5456C62.2956 29.5923 64.8695 30.8545 66.579 32.9894C67.2678 33.851 68.0718 34.6194 68.9636 35.2669L71.2109 36.853C71.7598 37.2399 72.4979 36.7377 72.336 36.0847H72.3387L72.3415 36.0764Z"
       fill="black"
       id="path34" />
    <path
       d="M49.6976 60.128C50.7677 60.5176 51.3193 61.7003 50.9296 62.7705L41.7618 87.9526C41.3722 89.0227 40.1895 89.5743 39.1193 89.1846C38.0491 88.795 37.4976 87.6123 37.8872 86.5421L47.0551 61.36C47.4447 60.2898 48.6274 59.7383 49.6976 60.128Z"
       fill="#6D461D"
       id="path36" />
    <path
       d="M39.1222 89.1875C38.9603 89.1272 38.8039 89.0476 38.6584 88.9488C39.5942 89.0393 40.4723 88.4851 40.7961 87.6015L49.9639 62.4194C50.2849 61.5358 49.9694 60.548 49.1956 60.0156C50.3289 60.1254 51.1576 61.1324 51.0506 62.2657C51.0341 62.4386 50.9957 62.6087 50.9353 62.7734L41.7674 87.9555C41.3778 89.0256 40.1951 89.5772 39.1249 89.1875H39.1222Z"
       fill="#7F5122"
       id="path38" />
    <path
       d="M63.7692 60.128C64.8394 59.7383 66.0221 60.2898 66.4117 61.36L75.5796 86.5449C75.9692 87.615 75.4177 88.7977 74.3475 89.1874C73.2773 89.577 72.0946 89.0255 71.705 87.9553L62.5371 62.7732C62.1475 61.703 62.699 60.5204 63.7692 60.1307V60.128Z"
       fill="#6D461D"
       id="path40" />
    <path
       d="M74.3448 89.1872C74.1829 89.2476 74.01 89.286 73.8398 89.3025C74.6137 88.7701 74.932 87.7795 74.6082 86.8987L65.4403 61.7166C65.1193 60.833 64.2385 60.2787 63.3027 60.3693C64.2412 59.7244 65.5254 59.9632 66.1675 60.9016C66.2663 61.0443 66.3459 61.2007 66.4062 61.3654L75.5741 86.5502C75.9637 87.6204 75.4122 88.803 74.342 89.1927L74.3448 89.1872Z"
       fill="#7F5122"
       id="path42" />
    <path
       d="M66.258 58.8354L67.405 62.0844L60.9044 64.3757L59.7574 61.1267C59.1235 59.3321 60.0675 57.3619 61.8621 56.7308C61.9691 56.6923 62.0761 56.6622 62.1831 56.6347C62.9816 56.4372 63.7966 56.5359 64.4964 56.8735C65.2894 57.2549 65.9424 57.9409 66.258 58.8354Z"
       fill="#AEADAE"
       id="path44" />
    <path
       d="M66.258 58.8354L67.405 62.0844L61.5355 64.1534L60.3885 60.9045C59.793 59.2169 60.5915 57.3729 62.1831 56.6347C62.9816 56.4372 63.7966 56.5359 64.4963 56.8735C65.2893 57.2549 65.9424 57.9409 66.258 58.8354Z"
       fill="white"
       id="path46" />
    <path
       d="M47.4668 58.4927L46.3198 61.7416L52.8204 64.0329L53.9675 60.7839C54.6013 58.9893 53.6574 57.0191 51.8628 56.388C51.7558 56.3496 51.6487 56.3194 51.5417 56.2919C50.7432 56.0944 49.9282 56.1932 49.2285 56.5307C48.4355 56.9121 47.7824 57.5954 47.4668 58.4927Z"
       fill="#AEADAE"
       id="path48" />
    <path
       d="M47.4668 58.4927L46.3198 61.7416L52.1893 63.8106L53.3363 60.5617C53.9318 58.8741 53.1333 57.0328 51.5417 56.2919C50.7432 56.0944 49.9282 56.1932 49.2285 56.5307C48.4355 56.9121 47.7824 57.5954 47.4668 58.4927Z"
       fill="white"
       id="path50" />
    <path
       d="M68.0992 77.6433C68.0992 77.6625 68.0964 77.679 68.0937 77.6927C68.0937 77.7091 68.0882 77.7256 68.0855 77.7393C68.0772 77.775 68.0663 77.8107 68.0525 77.8436C68.0443 77.8628 68.0388 77.8793 68.0279 77.8957L68.0059 77.9369L67.9812 77.978C67.962 78.0027 67.9428 78.0302 67.9236 78.0521C67.9071 78.0714 67.8879 78.0906 67.8687 78.107C67.8467 78.1262 67.8248 78.1454 67.8028 78.1619C67.7644 78.1893 67.726 78.214 67.6821 78.2332L67.6327 78.2525C67.6107 78.2607 67.5888 78.2689 67.5668 78.2744C67.5092 78.2909 67.4489 78.2991 67.3858 78.2991H46.992C46.9728 78.2991 46.9536 78.2991 46.9371 78.2991H46.9124C46.8932 78.2936 46.8768 78.2909 46.8603 78.2881C46.8411 78.2854 46.8246 78.2799 46.8081 78.2744L46.7752 78.2662C46.7313 78.2524 46.6874 78.236 46.649 78.214C46.6078 78.1893 46.5722 78.1646 46.5337 78.1372C46.4981 78.107 46.4679 78.0741 46.4377 78.0384C46.4075 78.0028 46.3828 77.9643 46.3609 77.9232C46.306 77.8216 46.2786 77.7064 46.2786 77.5857V77.5664C46.2786 77.5472 46.2786 77.5308 46.2813 77.5116C46.2813 77.4869 46.2868 77.4622 46.2923 77.4375L48.8799 65.1579L50.3864 58.0124C50.4413 57.7462 50.5455 57.502 50.691 57.288C50.7019 57.2715 50.7129 57.2578 50.7239 57.2413C50.7541 57.2002 50.7843 57.159 50.8199 57.1206C50.8501 57.0849 50.8803 57.0492 50.9133 57.0163L50.9462 56.9834C50.9928 56.9367 51.0367 56.8956 51.0861 56.8572C51.1245 56.8242 51.163 56.794 51.2069 56.7639C51.237 56.7419 51.27 56.72 51.3029 56.698C51.3633 56.6568 51.4291 56.6212 51.4922 56.5882C51.7694 56.451 52.0795 56.377 52.4033 56.377H61.4723C61.5711 56.377 61.6726 56.3852 61.7687 56.3989C61.8565 56.4126 61.9416 56.4291 62.0294 56.4538C62.7373 56.6513 63.3026 57.2221 63.4782 57.9657L65.2097 65.2759L68.069 77.3497L68.0882 77.4237C68.1074 77.4978 68.1129 77.5747 68.1074 77.646L68.0992 77.6433Z"
       fill="white"
       id="path52" />
    <path
       d="M67.3857 78.3015H46.9892C46.5337 78.3015 46.1962 77.8844 46.2867 77.4371L50.3781 58.0148C50.5125 57.3754 50.9379 56.8568 51.4949 56.5879C51.4236 56.7361 51.3687 56.8925 51.333 57.0626L47.2417 76.4849C47.1484 76.9322 47.4886 77.3493 47.9441 77.3493H68.0634L68.0799 77.4234C68.1842 77.8707 67.8439 78.3043 67.3829 78.3043L67.3857 78.3015Z"
       fill="#CCCCCB"
       id="path54" />
    <path
       d="M56.8816 59.3158C56.5139 59.6588 54.6561 61.3629 53.9838 61.3629C53.5969 61.3629 53.2759 61.2037 53.0262 60.8991C52.4225 60.1473 52.3182 58.4624 52.7435 56.377H53.1167C52.6996 58.3636 52.7737 60.0073 53.3116 60.6714C53.4899 60.8909 53.7094 60.9979 53.9866 61.0007C54.1814 61.0007 54.626 60.7153 55.1309 60.3284C55.6358 59.9415 56.2038 59.453 56.6373 59.0496L56.8843 59.3158H56.8816Z"
       fill="#323581"
       id="path56" />
    <path
       d="M61.478 60.8991C61.2667 61.1571 61.006 61.308 60.6959 61.3492C60.6383 61.3574 60.5807 61.3629 60.5203 61.3629C59.848 61.3629 57.9875 59.6588 57.6226 59.3158L57.8695 59.0496C58.7366 59.8591 60.1306 61.0007 60.5175 61.0007C60.5889 61.0007 60.6575 60.9924 60.7206 60.976C60.9044 60.9348 61.0608 60.8333 61.1926 60.6714C61.7304 60.0046 61.8045 58.3636 61.3874 56.377H61.467C61.5658 56.377 61.6673 56.3852 61.7633 56.3989C62.1831 58.4761 62.0789 60.1528 61.478 60.9019V60.8991Z"
       fill="#323581"
       id="path58" />
    <path
       d="M73.4665 97.7706L65.2509 65.2894L63.1956 64.5019C62.7181 64.3208 62.3971 63.8735 62.3696 63.3658L62.0211 56.4508L61.0388 56.374L60.7205 60.973L60.693 61.3462L60.2924 67.1444C60.2457 67.8304 59.6859 68.3682 58.9972 68.3874L57.2602 68.4066L55.5232 68.3874C54.8345 68.3682 54.2747 67.8277 54.228 67.1444L53.8274 61.3462L53.8 60.973L53.4817 56.374L52.4993 56.4508L52.1508 63.3658C52.1261 63.8762 51.8023 64.3208 51.3249 64.5019L48.9321 65.1687L41.0566 97.7706C40.5874 99.6256 41.9704 101.428 43.883 101.461L57.2492 101.678L57.263 96.6181L57.2767 101.678L70.6429 101.461C72.5555 101.431 73.9358 99.6229 73.4693 97.7706H73.4665Z"
       fill="#323581"
       id="path60" />
    <path
       d="M54.0525 56.2862H54.8153V54.2227H59.4527V56.2862H60.2348C60.3116 57.9161 59.0549 59.3019 57.4249 59.3787C57.3261 59.3842 57.2301 59.3815 57.134 59.3787C55.5123 59.461 54.132 58.2097 54.0525 56.588C54.047 56.4865 54.047 56.3877 54.0525 56.2862Z"
       fill="#603A19"
       id="path62" />
    <path
       d="M56.791 59.3761C55.205 59.3157 53.9729 57.9794 54.036 56.3933C54.036 56.3576 54.0387 56.3192 54.0442 56.2835H54.733V55.1914H55.4217V56.2835H54.733C54.626 57.7735 55.666 59.0989 57.1368 59.3514C57.0215 59.3651 56.909 59.3733 56.7938 59.3733L56.791 59.3761Z"
       fill="#503116"
       id="path64" />
    <path
       d="M49.5467 99.1755H49.5056C49.2559 99.1508 49.072 98.9313 49.0967 98.6815L51.6486 71.0024C51.6733 70.7527 51.8929 70.5688 52.1426 70.5935C52.3923 70.6182 52.5761 70.8377 52.5514 71.0875L49.9995 98.7666C49.9775 99.0026 49.78 99.1782 49.5467 99.1782V99.1755Z"
       fill="#6566AE"
       id="path66" />
    <path
       d="M64.9601 100.081C64.7296 100.081 64.532 99.9054 64.5101 99.6722L61.7935 71.2686C61.7688 71.0189 61.9526 70.7966 62.2023 70.7747C62.4548 70.75 62.6743 70.9338 62.6963 71.1835L65.4129 99.5871C65.4376 99.8368 65.2537 100.059 65.004 100.081H64.9573H64.9601Z"
       fill="#6566AE"
       id="path68" />
    <path
       d="M49.2752 37.8709C49.2395 37.8709 49.2039 37.8682 49.1654 37.8599L42.8185 36.4083C42.5249 36.348 42.3355 36.0598 42.3931 35.7662C42.4535 35.4726 42.7389 35.2833 43.0352 35.3409L49.3822 36.7925C49.6758 36.8529 49.8652 37.141 49.8075 37.4346C49.7554 37.6925 49.5277 37.8709 49.2752 37.8709Z"
       fill="#0F1031"
       id="path70" />
    <path
       d="M65.0507 37.8709C64.7955 37.8709 64.5704 37.6925 64.5183 37.4345C64.4579 37.1409 64.6473 36.8528 64.9436 36.7924L71.4717 35.522C71.768 35.4616 72.0534 35.6509 72.1138 35.9473C72.1742 36.2409 71.9848 36.529 71.6885 36.5894L65.1604 37.8599C65.1247 37.8681 65.0863 37.8709 65.0507 37.8709Z"
       fill="#0F1031"
       id="path72" />
    <path
       d="M61.242 39.5035H60.1525C60.1525 38.7297 58.9232 37.8708 57.1588 37.8708C55.3944 37.8708 54.1651 38.7297 54.1651 39.5035H53.0757C53.0757 37.9778 54.8675 36.7842 57.1561 36.7842C59.4446 36.7842 61.2365 37.9806 61.2365 39.5035"
       fill="#0F1031"
       id="path74" />
    <path
       d="M55.9843 38.9605C55.9843 41.164 54.1979 42.9504 51.9945 42.9504C49.791 42.9504 48.0046 41.164 48.0046 38.9605C48.0046 36.7571 49.791 34.9707 51.9945 34.9707C54.1979 34.9707 55.9843 36.7571 55.9843 38.9605Z"
       fill="#0F1031"
       id="path76" />
    <path
       d="M66.321 38.9605C66.321 41.164 64.5346 42.9504 62.3312 42.9504C60.1277 42.9504 58.3413 41.164 58.3413 38.9605C58.3413 36.7571 60.1277 34.9707 62.3312 34.9707C64.5346 34.9707 66.321 36.7571 66.321 38.9605Z"
       fill="#0F1031"
       id="path78" />
    <mask
       id="mask0_385_97685"
       style="mask-type:luminance"
       maskUnits="userSpaceOnUse"
       x="48"
       y="35"
       width="8"
       height="8">
      <path
         d="M48.6797 39.9868C49.02 41.0871 49.8953 41.9515 51.0012 42.2835L55.3148 37.9699C54.9855 36.8641 54.1184 35.9887 53.0181 35.6484L48.677 39.9895L48.6797 39.9868Z"
         fill="white"
         id="path80" />
    </mask>
    <g
       mask="url(#mask0_385_97685)"
       id="g85">
      <path
         d="M55.3148 35.6484H48.6797V42.2835H55.3148V35.6484Z"
         fill="#504F63"
         id="path83" />
    </g>
    <mask
       id="mask1_385_97685"
       style="mask-type:luminance"
       maskUnits="userSpaceOnUse"
       x="58"
       y="35"
       width="8"
       height="8">
      <path
         d="M65.7403 39.3228C65.9492 37.4186 64.5749 35.7057 62.6708 35.4968C60.7666 35.2879 59.0536 36.6622 58.8448 38.5664C58.6359 40.4705 60.0102 42.1835 61.9143 42.3924C63.8185 42.6012 65.5315 41.2269 65.7403 39.3228Z"
         fill="white"
         id="path87" />
    </mask>
    <g
       mask="url(#mask1_385_97685)"
       id="g92">
      <path
         d="M61.3381 42.2833C60.2322 41.9541 59.3569 41.0869 59.0166 39.9866L63.3577 35.6455C64.458 35.9858 65.3224 36.8611 65.6544 37.967L61.3381 42.2833Z"
         fill="#504F63"
         id="path90" />
    </g>
    <path
       d="M57.4195 72.8766C57.3893 72.8794 57.3619 72.8849 57.3344 72.8849C57.2741 72.8904 57.2137 72.8904 57.1561 72.8849C57.1863 72.8849 57.2164 72.8821 57.2494 72.8766C58.0259 72.7751 58.5747 72.0671 58.4704 71.2906L57.7076 62.8444L57.6308 62.2325C57.5979 61.9883 57.4085 61.7825 57.1533 61.7468C57.2055 61.7386 57.2576 61.7386 57.3125 61.7441C57.3536 61.7495 57.3893 61.7578 57.4277 61.7742C57.6308 61.8428 57.7762 62.0239 57.8009 62.2352L57.8558 62.6496L58.6461 71.2933C58.7476 72.0699 58.1988 72.7778 57.425 72.8794L57.4195 72.8766Z"
       fill="#323581"
       id="path94" />
    <path
       d="M58.6432 71.2906L57.8529 62.6468L57.7981 62.2325C57.7734 62.0212 57.6279 61.8401 57.4249 61.7715C57.3426 61.7578 57.252 61.7468 57.1532 61.7468H57.1422C56.8322 61.7029 56.5468 61.9224 56.5084 62.2325L56.4535 62.6468L55.6632 71.2906C55.6495 71.4058 55.6467 71.5321 55.6632 71.6528C55.6632 71.6528 55.9486 72.9836 57.156 72.8849H57.3343C57.3618 72.8849 57.3892 72.8821 57.4194 72.8766C58.196 72.7751 58.7448 72.0671 58.6405 71.2906H58.6432Z"
       fill="#323581"
       id="path96" />
    <path
       d="M57.8531 62.6468C57.8147 62.7181 57.768 62.7867 57.7104 62.8443C57.5677 62.987 57.3701 63.0748 57.1534 63.0748C56.9366 63.0748 56.739 62.987 56.5963 62.8443C56.5387 62.7867 56.492 62.7208 56.4536 62.6468L56.5085 62.2324C56.5497 61.9223 56.8323 61.7028 57.1424 61.744H57.1561C57.2082 61.7357 57.2604 61.7357 57.3125 61.744C57.5732 61.7769 57.7708 61.9854 57.8009 62.2324L57.8558 62.6468H57.8531Z"
       fill="#22205F"
       id="path98" />
    <path
       d="M58.893 60.5671L57.8448 62.381C57.6802 62.6663 57.3838 62.798 57.0957 62.7788C57.3454 62.7624 57.5896 62.6307 57.7323 62.381L58.7805 60.5671C59.0878 60.0348 58.7037 59.3652 58.089 59.3652H58.2015C58.8189 59.3652 59.2031 60.032 58.893 60.5671Z"
       fill="#6566AE"
       id="path100" />
    <path
       d="M58.7806 60.5671L57.7324 62.381C57.5897 62.6307 57.3455 62.7624 57.0958 62.7788C56.846 62.7624 56.6018 62.6307 56.4591 62.381L55.4109 60.5671C55.1036 60.0348 55.4877 59.3652 56.1024 59.3652H58.0836C58.701 59.3652 59.0852 60.032 58.7751 60.5671H58.7806Z"
       fill="#323581"
       id="path102" />
  </g>
  <rect
     x="0.5"
     y="0.5"
     width="104"
     height="73"
     rx="36.5"
     stroke="#EFEFEF"
     stroke-linejoin="bevel"
     id="rect106" />
  <defs
     id="defs126">
    <filter
       id="filter0_d_385_97685"
       x="-6.021"
       y="45.9502"
       width="70.2998"
       height="30.2051"
       filterUnits="userSpaceOnUse"
       color-interpolation-filters="sRGB">
      <feFlood
         flood-opacity="0"
         result="BackgroundImageFix"
         id="feFlood108" />
      <feColorMatrix
         in="SourceAlpha"
         type="matrix"
         values="0 0 0 0 0 0 0 0 0 0 0 0 0 0 0 0 0 0 127 0"
         result="hardAlpha"
         id="feColorMatrix110" />
      <feOffset
         id="feOffset112" />
      <feGaussianBlur
         stdDeviation="1"
         id="feGaussianBlur114" />
      <feColorMatrix
         type="matrix"
         values="0 0 0 0 0 0 0 0 0 0 0 0 0 0 0 0 0 0 0.2 0"
         id="feColorMatrix116" />
      <feBlend
         mode="normal"
         in2="BackgroundImageFix"
         result="effect1_dropShadow_385_97685"
         id="feBlend118" />
      <feBlend
         mode="normal"
         in="SourceGraphic"
         in2="effect1_dropShadow_385_97685"
         result="shape"
         id="feBlend120" />
    </filter>
    <clipPath
       id="clip0_385_97685">
      <rect
         x="0.5"
         y="0.5"
         width="104"
         height="73"
         rx="36.5"
         fill="white"
         id="rect123" />
    </clipPath>
  </defs>
</svg>
