<?xml version="1.0" encoding="UTF-8" standalone="no"?>
<svg
   width="105"
   height="74"
   viewBox="0 0 105 74"
   fill="none"
   version="1.1"
   id="svg86"
   sodipodi:docname="nur.svg"
   inkscape:version="1.1.2 (0a00cf5339, 2022-02-04)"
   xmlns:inkscape="http://www.inkscape.org/namespaces/inkscape"
   xmlns:sodipodi="http://sodipodi.sourceforge.net/DTD/sodipodi-0.dtd"
   xmlns="http://www.w3.org/2000/svg"
   xmlns:svg="http://www.w3.org/2000/svg">
  <sodipodi:namedview
     id="namedview88"
     pagecolor="#ffffff"
     bordercolor="#666666"
     borderopacity="1.0"
     inkscape:pageshadow="2"
     inkscape:pageopacity="0.0"
     inkscape:pagecheckerboard="0"
     showgrid="false"
     inkscape:zoom="7.1621622"
     inkscape:cx="52.498113"
     inkscape:cy="37"
     inkscape:window-width="1366"
     inkscape:window-height="694"
     inkscape:window-x="0"
     inkscape:window-y="26"
     inkscape:window-maximized="1"
     inkscape:current-layer="g62" />
  <g
     clip-path="url(#clip0_385_97353)"
     id="g62">
    <rect
       x="0.5"
       y="0.5"
       width="104"
       height="73"
       rx="36.5"
       fill="white"
       id="rect2" />
    <g
       filter="url(#filter0_d_385_97353)"
       id="g6">
      <path
         d="M35.9976 47.9502C29.426 47.9502 23.7405 50.6769 21.0063 54.6426C20.067 54.481 19.0867 54.3945 18.0786 54.3945C12.8438 54.3946 8.35948 56.7015 6.47998 59.9785H3.06689C-0.847759 59.9786 -4.021 63.1527 -4.021 67.0674C-4.02082 70.9819 -0.847652 74.1552 3.06689 74.1553H53.2573C58.2397 74.1553 62.2788 70.1162 62.2788 65.1338C62.2788 60.1514 58.2397 56.1123 53.2573 56.1123H51.8394C49.6006 51.3658 43.3536 47.9502 35.9976 47.9502Z"
         fill="white"
         id="path4" />
    </g>
    <path
       d="M43.5669 62.1001C43.9447 61.0621 45.0924 60.527 46.1304 60.9047C47.1683 61.2825 47.7035 62.4302 47.3257 63.4682L38.4332 87.9002C38.0554 88.9381 36.9077 89.4733 35.8698 89.0955C34.8318 88.7177 34.2966 87.5701 34.6744 86.5321L43.5669 62.1001Z"
       fill="#FACA87"
       id="path10" />
    <path
       d="M46.1304 60.9047C47.1683 61.2825 47.7035 62.4302 47.3257 63.4682L39.3767 85.3078L35.618 83.9397L43.5669 62.1001C43.9447 61.0621 45.0924 60.527 46.1304 60.9047Z"
       fill="#28B9CB"
       id="path12" />
    <path
       d="M46.1302 60.9049C47.1682 61.2827 47.7034 62.4304 47.3256 63.4683L38.4331 87.9003C38.0553 88.9383 36.9076 89.4735 35.8696 89.0957C35.7071 89.0365 35.5588 88.9558 35.4225 88.8623C36.3087 88.9483 37.1747 88.4337 37.4934 87.5583L46.3859 63.1263C46.7046 62.2508 46.3723 61.2991 45.638 60.7954C45.8025 60.8113 45.9678 60.8458 46.1302 60.9049Z"
       fill="#F9C7C1"
       style="mix-blend-mode:multiply"
       id="path14" />
    <path
       d="M62.4333 62.1001C62.0555 61.0621 60.9078 60.527 59.8699 60.9047C58.8319 61.2825 58.2968 62.4302 58.6745 63.4682L67.5671 87.9002C67.9448 88.9381 69.0925 89.4733 70.1305 89.0955C71.1684 88.7177 71.7036 87.5701 71.3258 86.5321L62.4333 62.1001Z"
       fill="#FACA87"
       id="path16" />
    <path
       d="M59.8699 60.9047C58.8319 61.2825 58.2968 62.4302 58.6745 63.4682L66.6235 85.3078L70.3823 83.9397L62.4333 62.1001C62.0555 61.0621 60.9078 60.527 59.8699 60.9047Z"
       fill="#28B9CB"
       id="path18" />
    <path
       d="M59.87 60.9049C58.832 61.2827 58.2969 62.4304 58.6747 63.4683L67.5672 87.9003C67.945 88.9383 69.0926 89.4735 70.1306 89.0957C70.2931 89.0365 70.4414 88.9558 70.5777 88.8623C69.6915 88.9483 68.8255 88.4337 68.5069 87.5583L59.6143 63.1263C59.2957 62.2508 59.6279 61.2991 60.3622 60.7954C60.1978 60.8113 60.0324 60.8458 59.87 60.9049Z"
       fill="#F9C7C1"
       style="mix-blend-mode:multiply"
       id="path20" />
    <path
       d="M43.8116 74.7906C43.9188 73.7727 44.7771 73 45.8006 73H61.246C62.2497 73 63.098 73.744 63.2289 74.7391L67.7026 108.739C67.8602 109.937 66.9279 111 65.7197 111H42.2217C41.0343 111 40.1084 109.972 40.2327 108.791L43.8116 74.7906Z"
       fill="white"
       id="path22" />
    <path
       d="M43.816 74.7959C43.9206 73.7757 44.78 73 45.8056 73H61.2402C62.2465 73 63.096 73.7476 63.224 74.7457L67.7112 109.746C67.8645 110.941 66.9329 112 65.7274 112H42.2158C41.0306 112 40.1053 110.975 40.2263 109.796L43.816 74.7959Z"
       fill="#A2C72D"
       style="mix-blend-mode:multiply"
       id="path24" />
    <path
       d="M44.9834 73.1777C44.897 73.3691 44.8379 73.5766 44.8154 73.7959L41.2266 108.796C41.1057 109.975 42.0306 111 43.2158 111H66.7275C67.0218 111 67.299 110.935 67.5488 110.822C67.237 111.51 66.5464 112 65.7275 112H42.2158C41.0306 112 40.1057 110.975 40.2266 109.796L43.8154 74.7959C43.8902 74.0664 44.352 73.463 44.9834 73.1777Z"
       fill="#A5D8D6"
       style="mix-blend-mode:multiply"
       id="path26" />
    <path
       d="M44.8201 59.801C44.9224 58.7786 45.7827 58 46.8102 58H59.2779C60.2679 58 61.1089 58.7243 61.2557 59.7033L63.828 76.8517C63.9187 77.4563 63.4504 78 62.839 78H44.1052C43.5136 78 43.0513 77.4892 43.1102 76.9005L44.8201 59.801Z"
       fill="white"
       id="path28" />
    <path
       d="M44.8279 59.8104C44.9257 58.7839 45.7878 58 46.8189 58H59.2657C60.261 58 61.1049 58.7319 61.2456 59.7172L63.8373 77.8586C63.9233 78.461 63.4559 79 62.8473 79H44.1001C43.5104 79 43.0487 78.4923 43.1046 77.9052L44.8279 59.8104Z"
       fill="#28B9CB"
       style="mix-blend-mode:multiply"
       id="path30" />
    <path
       d="M45.9968 58.1777C45.9085 58.3734 45.8493 58.586 45.8279 58.8105L44.1042 76.9053C44.0485 77.4922 44.5107 78 45.1003 78H63.8464C63.8474 78.5427 63.4078 79 62.8474 79H44.1003C43.5107 79 43.0485 78.4922 43.1042 77.9053L44.8279 59.8105C44.8979 59.0751 45.361 58.465 45.9968 58.1777Z"
       fill="#A5D8D6"
       style="mix-blend-mode:multiply"
       id="path32" />
    <path
       d="M39.7404 32.4537C41.6911 26.7965 47.0162 23 53.0003 23C58.9844 23 64.3094 26.7965 66.2602 32.4537L69.3385 41.3809C71.4342 47.4585 68.7035 54.1484 62.9534 57.0234L61.0003 58L62.2767 60.5528C62.6091 61.2177 62.1256 62 61.3822 62H54.0003L52.3766 74.9893C52.257 75.9463 50.9856 76.1961 50.5128 75.3555L43.2605 62.4627C43.0978 62.1733 43.0892 61.8221 43.2377 61.5252L45.0003 58L43.0471 57.0234C37.297 54.1484 34.5663 47.4585 36.662 41.3809L39.7404 32.4537Z"
       fill="#158F41"
       id="path34" />
    <ellipse
       cx="52.9998"
       cy="45.1194"
       rx="13.5167"
       ry="12.6663"
       fill="white"
       id="ellipse36" />
    <ellipse
       cx="52.5"
       cy="45.6798"
       rx="13.1621"
       ry="12.2521"
       fill="#FBCB87"
       style="mix-blend-mode:multiply"
       id="ellipse38" />
    <path
       d="M52.5 33.4277C57.8189 33.4278 62.3998 36.3651 64.4756 40.5918C62.1925 37.5072 58.3589 35.4816 54.0127 35.4814C47.013 35.4814 41.3379 40.7315 41.3379 47.207C41.338 50.9612 43.2477 54.3003 46.2148 56.4463C42.1183 54.3697 39.3379 50.3273 39.3379 45.6797C39.338 38.9131 45.2308 33.4277 52.5 33.4277Z"
       fill="#F9C7C1"
       style="mix-blend-mode:multiply"
       id="path40" />
    <path
       d="M52.5 30.4277C58.5519 30.4278 63.6488 34.2301 65.1865 39.4082C62.9203 35.2963 58.32 32.4816 53.0127 32.4814C45.9228 32.4814 40.0932 37.5032 39.4062 43.9326C39.3613 43.5207 39.3379 43.1026 39.3379 42.6797C39.338 35.9131 45.2308 30.4277 52.5 30.4277Z"
       fill="#9B2584"
       style="mix-blend-mode:multiply"
       id="path42" />
    <circle
       cx="48.0002"
       cy="43"
       r="3"
       fill="white"
       id="circle44" />
    <path
       d="M46.0002 44C46.0002 42.8954 46.8957 42 48.0002 42C49.1048 42 50.0002 42.8954 50.0002 44C50.0002 45.1046 49.1048 46 48.0002 46C46.8957 46 46.0002 45.1046 46.0002 44Z"
       fill="#3D2F82"
       style="mix-blend-mode:multiply"
       id="path46" />
    <circle
       cx="58.0002"
       cy="43"
       r="3"
       fill="white"
       id="circle48" />
    <rect
       x="56.0002"
       y="42"
       width="4"
       height="4"
       rx="2"
       fill="#3D2F82"
       style="mix-blend-mode:multiply"
       id="rect50" />
    <ellipse
       cx="53.0002"
       cy="50.5688"
       rx="7"
       ry="3.5"
       fill="#F9C7C1"
       style="mix-blend-mode:multiply"
       id="ellipse52" />
    <rect
       x="61.696"
       y="37.7388"
       width="5"
       height="2"
       rx="1"
       transform="rotate(-64 61.696 37.7388)"
       fill="white"
       id="rect54" />
    <rect
       x="61.696"
       y="36.7388"
       width="5"
       height="2"
       rx="1"
       transform="rotate(-64 61.696 36.7388)"
       fill="#A2C72D"
       style="mix-blend-mode:multiply"
       id="rect56" />
    <path
       d="M54.0002 61.1768L52.3944 74.6841C52.2773 75.6697 50.9509 75.901 50.507 75.0133L45.0002 63.9998L50.5529 72.7254C51.0509 73.5079 52.2535 73.2497 52.3863 72.3317L54.0002 61.1768Z"
       fill="#9B2584"
       style="mix-blend-mode:multiply"
       id="path58" />
    <path
       d="M60.458 61C60.782 61 61.0205 60.6966 60.9439 60.3818L60.3643 58L61.3044 60.5757C61.5505 61.25 61.027 61.9563 60.3103 61.917L43.5753 61H60.458Z"
       fill="#9B2584"
       style="mix-blend-mode:multiply"
       id="path60" />
  </g>
  <rect
     x="0.5"
     y="0.5"
     width="104"
     height="73"
     rx="36.5"
     stroke="#EFEFEF"
     stroke-linejoin="bevel"
     id="rect64" />
  <defs
     id="defs84">
    <filter
       id="filter0_d_385_97353"
       x="-6.021"
       y="45.9502"
       width="70.2998"
       height="30.2051"
       filterUnits="userSpaceOnUse"
       color-interpolation-filters="sRGB">
      <feFlood
         flood-opacity="0"
         result="BackgroundImageFix"
         id="feFlood66" />
      <feColorMatrix
         in="SourceAlpha"
         type="matrix"
         values="0 0 0 0 0 0 0 0 0 0 0 0 0 0 0 0 0 0 127 0"
         result="hardAlpha"
         id="feColorMatrix68" />
      <feOffset
         id="feOffset70" />
      <feGaussianBlur
         stdDeviation="1"
         id="feGaussianBlur72" />
      <feColorMatrix
         type="matrix"
         values="0 0 0 0 0 0 0 0 0 0 0 0 0 0 0 0 0 0 0.2 0"
         id="feColorMatrix74" />
      <feBlend
         mode="normal"
         in2="BackgroundImageFix"
         result="effect1_dropShadow_385_97353"
         id="feBlend76" />
      <feBlend
         mode="normal"
         in="SourceGraphic"
         in2="effect1_dropShadow_385_97353"
         result="shape"
         id="feBlend78" />
    </filter>
    <clipPath
       id="clip0_385_97353">
      <rect
         x="0.5"
         y="0.5"
         width="104"
         height="73"
         rx="36.5"
         fill="white"
         id="rect81" />
    </clipPath>
  </defs>
</svg>
