<?xml version="1.0" encoding="UTF-8" standalone="no"?>
<svg
   width="105"
   height="74"
   viewBox="0 0 105 74"
   fill="none"
   version="1.1"
   id="svg68"
   sodipodi:docname="oky.svg"
   inkscape:version="1.1.2 (0a00cf5339, 2022-02-04)"
   xmlns:inkscape="http://www.inkscape.org/namespaces/inkscape"
   xmlns:sodipodi="http://sodipodi.sourceforge.net/DTD/sodipodi-0.dtd"
   xmlns="http://www.w3.org/2000/svg"
   xmlns:svg="http://www.w3.org/2000/svg">
  <sodipodi:namedview
     id="namedview70"
     pagecolor="#ffffff"
     bordercolor="#666666"
     borderopacity="1.0"
     inkscape:pageshadow="2"
     inkscape:pageopacity="0.0"
     inkscape:pagecheckerboard="0"
     showgrid="false"
     inkscape:zoom="7.1621622"
     inkscape:cx="52.498113"
     inkscape:cy="37"
     inkscape:window-width="1366"
     inkscape:window-height="694"
     inkscape:window-x="0"
     inkscape:window-y="26"
     inkscape:window-maximized="1"
     inkscape:current-layer="g44" />
  <g
     clip-path="url(#clip0_89_183134)"
     id="g44">
    <rect
       x="0.5"
       y="0.5"
       width="104"
       height="73"
       rx="36.5"
       fill="white"
       id="rect2" />
    <g
       filter="url(#filter0_d_89_183134)"
       id="g6">
      <path
         d="M35.9976 47.9502C29.426 47.9502 23.7405 50.6769 21.0063 54.6426C20.067 54.481 19.0867 54.3945 18.0786 54.3945C12.8438 54.3946 8.35948 56.7015 6.47998 59.9785H3.06689C-0.847759 59.9786 -4.021 63.1527 -4.021 67.0674C-4.02082 70.9819 -0.847652 74.1552 3.06689 74.1553H53.2573C58.2397 74.1553 62.2788 70.1162 62.2788 65.1338C62.2788 60.1514 58.2397 56.1123 53.2573 56.1123H51.8394C49.6006 51.3658 43.3536 47.9502 35.9976 47.9502Z"
         fill="white"
         id="path4" />
    </g>
    <path
       d="M52.7733 62.1828C62.2825 62.1828 69.9912 54.4743 69.9912 44.9651C69.9912 35.4559 62.2825 27.7471 52.7733 27.7471C43.2641 27.7471 35.5554 35.4559 35.5554 44.9651C35.5554 54.4743 43.2641 62.1828 52.7733 62.1828Z"
       fill="white"
       id="path10" />
    <path
       d="M52.9642 62.1827C55.2395 62.1827 57.4974 61.7314 59.5932 60.8456C61.6195 59.9945 63.4548 58.7498 65.0064 57.1924C66.5579 55.6408 67.8026 53.7997 68.6595 51.7792C69.5453 49.6834 70.0027 47.4254 69.9969 45.1501V44.7739C69.9969 42.4986 69.5453 40.2406 68.6595 38.1448C67.8084 36.1185 66.5637 34.2834 65.0064 32.7319C63.4548 31.1803 61.6137 29.9413 59.5932 29.0787C57.4974 28.1929 55.2395 27.7355 52.9642 27.7413C52.8369 27.7413 52.7095 27.7413 52.5879 27.7413V31.568C52.7095 31.568 52.8369 31.568 52.9642 31.568C60.2763 31.5738 66.2048 37.5022 66.2105 44.8143V45.1097C66.2048 52.4218 60.2763 58.3444 52.9642 58.3559C52.8369 58.3559 52.7095 58.3559 52.5879 58.3559V62.1827C52.721 62.1827 52.8484 62.1827 52.9642 62.1827Z"
       fill="#FF9800"
       id="path12" />
    <path
       d="M52.5821 62.1827C43.1858 62.1885 35.5554 54.5814 35.5496 45.1793V44.7682C35.5438 35.3719 43.1511 27.7411 52.5532 27.7354H52.5821C52.7095 27.7354 52.8369 27.7354 52.9585 27.7354V31.5624C52.8369 31.5624 52.7095 31.5624 52.5821 31.5624C45.27 31.5682 39.3475 37.4965 39.3359 44.8086V45.1038C39.3417 52.4159 45.27 58.3387 52.5821 58.3503C52.7095 58.3503 52.8369 58.3503 52.9585 58.3503V62.1771C52.8253 62.1771 52.6979 62.1771 52.5821 62.1771V62.1827Z"
       fill="#32B8DE"
       id="path14" />
    <g
       style="mix-blend-mode:multiply"
       id="g18">
      <path
         d="M37.7554 53.6143C37.5412 53.2496 37.3444 52.8733 37.1592 52.4912C33.0023 43.9402 36.557 33.6407 45.1023 29.4781C47.4528 28.3317 50.0349 27.7412 52.646 27.7412H52.7733C59.246 27.7412 65.1744 31.3712 68.1154 37.1375C67.9997 36.9059 67.8723 36.6743 67.7449 36.4543C66.5407 36.7669 65.3018 36.9292 64.057 36.9292C59.8133 36.9292 55.7838 35.0706 53.0396 31.8343C52.2349 40.6111 44.8475 47.3153 36.036 47.2632C35.8854 47.2632 35.7291 47.2632 35.5786 47.2632C35.8796 49.5037 36.6149 51.6692 37.7554 53.6203V53.6143ZM69.9507 43.8186C69.8754 42.6954 69.696 41.5779 69.4007 40.4953C69.3312 40.229 69.2502 39.9687 69.1691 39.7139C69.5975 41.0455 69.858 42.429 69.9507 43.8242V43.8186Z"
         fill="#DB307A"
         id="path16" />
    </g>
    <path
       d="M57.7058 47.2574C58.534 47.2574 59.2053 46.573 59.2053 45.7289C59.2053 44.8848 58.534 44.2007 57.7058 44.2007C56.8777 44.2007 56.2063 44.8848 56.2063 45.7289C56.2063 46.573 56.8777 47.2574 57.7058 47.2574Z"
       fill="#333481"
       id="path20" />
    <path
       d="M56.166 44.3279L61.5618 46.2907C61.1102 45.3586 60.3171 44.6349 59.3502 44.2643L59.165 44.1948C58.1866 43.8532 57.1155 43.8997 56.166 44.3223V44.3279Z"
       fill="#333481"
       id="path22" />
    <path
       d="M58.6554 46.1111C58.9655 46.1111 59.2169 45.8544 59.2169 45.5379C59.2169 45.2213 58.9655 44.9648 58.6554 44.9648C58.3452 44.9648 58.0938 45.2213 58.0938 45.5379C58.0938 45.8544 58.3452 46.1111 58.6554 46.1111Z"
       fill="white"
       id="path24" />
    <path
       d="M57.9374 45.347C58.0429 45.347 58.1285 45.2615 58.1285 45.1559C58.1285 45.0504 58.0429 44.9648 57.9374 44.9648C57.8318 44.9648 57.7463 45.0504 57.7463 45.1559C57.7463 45.2615 57.8318 45.347 57.9374 45.347Z"
       fill="white"
       id="path26" />
    <path
       d="M48.5239 46.8751C49.3521 46.8751 50.0234 46.191 50.0234 45.3469C50.0234 44.5027 49.3521 43.8184 48.5239 43.8184C47.6958 43.8184 47.0244 44.5027 47.0244 45.3469C47.0244 46.191 47.6958 46.8751 48.5239 46.8751Z"
       fill="#333481"
       id="path28" />
    <path
       d="M49.4732 45.7288C49.7833 45.7288 50.0348 45.4724 50.0348 45.1558C50.0348 44.8393 49.7833 44.5825 49.4732 44.5825C49.163 44.5825 48.9116 44.8393 48.9116 45.1558C48.9116 45.4724 49.163 45.7288 49.4732 45.7288Z"
       fill="white"
       id="path30" />
    <path
       d="M48.7555 44.9647C48.861 44.9647 48.9466 44.8791 48.9466 44.7736C48.9466 44.6681 48.861 44.5825 48.7555 44.5825C48.65 44.5825 48.5645 44.6681 48.5645 44.7736C48.5645 44.8791 48.65 44.9647 48.7555 44.9647Z"
       fill="white"
       id="path32" />
    <path
       d="M44.6912 45.9084L50.0869 43.9457C49.1432 43.523 48.0722 43.4769 47.0879 43.8185L46.9027 43.888C45.9359 44.2527 45.1427 44.9822 44.6912 45.9143V45.9084Z"
       fill="#333481"
       id="path34" />
    <path
       d="M51.4881 49.7124C51.4012 49.5213 51.4881 49.2897 51.6791 49.2086C51.7312 49.1854 51.7833 49.1738 51.8354 49.1738H54.0296C54.238 49.1738 54.4117 49.3476 54.4117 49.556C54.4117 49.6081 54.4002 49.666 54.377 49.7124L54.3423 49.7932C54.0702 50.3316 53.5318 50.6792 52.9355 50.7023H52.7791C52.2754 50.6792 51.8181 50.3895 51.5923 49.9379L51.4939 49.7124H51.4881Z"
       fill="#942483"
       id="path36" />
    <path
       d="M51.8702 48.9479C51.7833 48.7569 51.8702 48.5252 52.0613 48.4442C52.1134 48.421 52.1655 48.4097 52.2176 48.4097H54.4117C54.6202 48.4097 54.7939 48.5832 54.7939 48.7916C54.7939 48.8437 54.7823 48.9016 54.7591 48.9479L54.7244 49.029C54.4523 49.5675 53.9138 49.9147 53.3175 49.9379H53.1555C52.6518 49.9147 52.1944 49.6254 51.9686 49.1738L51.8702 48.9479Z"
       fill="white"
       id="path38" />
    <path
       d="M51.0596 53.3828H55.2048L54.8169 53.7995C54.3769 54.2569 53.7748 54.5175 53.138 54.5291C52.5011 54.5175 51.899 54.2569 51.459 53.7995L51.0711 53.3828H51.0596Z"
       fill="#942483"
       id="path40" />
    <path
       d="M50.1274 53.3826L52.3911 52.6182L52.9816 52.9192C53.0916 52.9713 53.2132 52.9713 53.3232 52.9192L53.9137 52.6182L56.1311 53.3826L55.4653 53.4693C53.9253 53.6662 52.368 53.6662 50.828 53.4693L50.1216 53.3766L50.1274 53.3826Z"
       fill="#942483"
       id="path42" />
  </g>
  <rect
     x="0.5"
     y="0.5"
     width="104"
     height="73"
     rx="36.5"
     stroke="#EFEFEF"
     stroke-linejoin="bevel"
     id="rect46" />
  <defs
     id="defs66">
    <filter
       id="filter0_d_89_183134"
       x="-6.021"
       y="45.9502"
       width="70.2998"
       height="30.2051"
       filterUnits="userSpaceOnUse"
       color-interpolation-filters="sRGB">
      <feFlood
         flood-opacity="0"
         result="BackgroundImageFix"
         id="feFlood48" />
      <feColorMatrix
         in="SourceAlpha"
         type="matrix"
         values="0 0 0 0 0 0 0 0 0 0 0 0 0 0 0 0 0 0 127 0"
         result="hardAlpha"
         id="feColorMatrix50" />
      <feOffset
         id="feOffset52" />
      <feGaussianBlur
         stdDeviation="1"
         id="feGaussianBlur54" />
      <feColorMatrix
         type="matrix"
         values="0 0 0 0 0 0 0 0 0 0 0 0 0 0 0 0 0 0 0.2 0"
         id="feColorMatrix56" />
      <feBlend
         mode="normal"
         in2="BackgroundImageFix"
         result="effect1_dropShadow_89_183134"
         id="feBlend58" />
      <feBlend
         mode="normal"
         in="SourceGraphic"
         in2="effect1_dropShadow_89_183134"
         result="shape"
         id="feBlend60" />
    </filter>
    <clipPath
       id="clip0_89_183134">
      <rect
         x="0.5"
         y="0.5"
         width="104"
         height="73"
         rx="36.5"
         fill="white"
         id="rect63" />
    </clipPath>
  </defs>
</svg>
