<?xml version="1.0" encoding="UTF-8" standalone="no"?>
<svg
   width="105"
   height="74"
   viewBox="0 0 105 74"
   fill="none"
   version="1.1"
   id="svg100"
   sodipodi:docname="pihu.svg"
   inkscape:version="1.1.2 (0a00cf5339, 2022-02-04)"
   xmlns:inkscape="http://www.inkscape.org/namespaces/inkscape"
   xmlns:sodipodi="http://sodipodi.sourceforge.net/DTD/sodipodi-0.dtd"
   xmlns="http://www.w3.org/2000/svg"
   xmlns:svg="http://www.w3.org/2000/svg">
  <sodipodi:namedview
     id="namedview102"
     pagecolor="#ffffff"
     bordercolor="#666666"
     borderopacity="1.0"
     inkscape:pageshadow="2"
     inkscape:pageopacity="0.0"
     inkscape:pagecheckerboard="0"
     showgrid="false"
     inkscape:zoom="7.1621622"
     inkscape:cx="52.498113"
     inkscape:cy="37"
     inkscape:window-width="1366"
     inkscape:window-height="694"
     inkscape:window-x="0"
     inkscape:window-y="26"
     inkscape:window-maximized="1"
     inkscape:current-layer="g76" />
  <g
     clip-path="url(#clip0_385_49483)"
     id="g76">
    <rect
       x="0.5"
       y="0.5"
       width="104"
       height="73"
       rx="36.5"
       fill="white"
       id="rect2" />
    <g
       filter="url(#filter0_d_385_49483)"
       id="g6">
      <path
         d="M35.9976 47.9502C29.426 47.9502 23.7405 50.6769 21.0063 54.6426C20.067 54.481 19.0867 54.3945 18.0786 54.3945C12.8438 54.3946 8.35948 56.7015 6.47998 59.9785H3.06689C-0.847759 59.9786 -4.021 63.1527 -4.021 67.0674C-4.02082 70.9819 -0.847652 74.1552 3.06689 74.1553H53.2573C58.2397 74.1553 62.2788 70.1162 62.2788 65.1338C62.2788 60.1514 58.2397 56.1123 53.2573 56.1123H51.8394C49.6006 51.3658 43.3536 47.9502 35.9976 47.9502Z"
         fill="white"
         id="path4" />
    </g>
    <path
       d="M36.7301 39.8467V50.9091C36.7301 54.4367 39.5889 57.2955 43.1165 57.2955C46.6441 57.2955 49.503 54.4367 49.503 50.9091V39.8467H36.7328H36.7301Z"
       fill="#212121"
       id="path10" />
    <path
       d="M55.9987 39.8467V50.9091C55.9987 54.4367 58.8575 57.2955 62.3851 57.2955C65.9127 57.2955 68.7716 54.4367 68.7716 50.9091V39.8467H56.0013H55.9987Z"
       fill="#212121"
       id="path12" />
    <path
       d="M52.7508 23C43.9025 23 36.7301 30.1724 36.7301 39.0207V42.7855H68.7716V39.0207C68.7716 30.1724 61.5991 23 52.7508 23Z"
       fill="#212121"
       id="path14" />
    <path
       d="M40.7107 55.3799C40.1059 55.3799 39.6183 54.8897 39.6183 54.2875V36.3564H41.8031V54.2875C41.8031 54.8923 41.3128 55.3799 40.7107 55.3799Z"
       fill="#212121"
       id="path16" />
    <path
       d="M64.791 55.3799C65.3958 55.3799 65.8834 54.8897 65.8834 54.2875V36.3564H63.6986V54.2875C63.6986 54.8923 64.1888 55.3799 64.791 55.3799Z"
       fill="#212121"
       id="path18" />
    <path
       d="M49.0954 57.008C50.1025 57.5995 50.4409 58.8944 49.8494 59.9041L35.9415 83.6222C35.35 84.6293 34.0551 84.9677 33.0454 84.3762C32.0382 83.7847 31.6998 82.4898 32.2913 81.48L46.1992 57.762C46.7907 56.7549 48.0856 56.4165 49.0954 57.008Z"
       fill="#E5A97C"
       id="path20" />
    <path
       d="M33.2292 79.8761L46.202 57.762C46.7935 56.7549 48.0883 56.4165 49.0981 57.008C50.1052 57.5995 50.4436 58.8944 49.8521 59.9041L36.8794 82.0182"
       fill="#FF9700"
       id="path22" />
    <path
       d="M33.048 84.3758C32.8935 84.2852 32.7523 84.176 32.6244 84.0508C33.5516 84.3145 34.5401 83.9175 35.0276 83.0862L48.9355 59.3682C49.4231 58.537 49.2872 57.4792 48.6025 56.7998C49.7268 57.1195 50.377 58.2892 50.0572 59.4135C50.0066 59.5867 49.9373 59.7492 49.8467 59.9038L35.9389 83.6218C35.3474 84.6289 34.0525 84.9673 33.0427 84.3758H33.048Z"
       fill="#FFA227"
       id="path24" />
    <path
       d="M56.3637 57.0051C55.3566 57.5966 55.0182 58.8914 55.6097 59.9012L69.5176 83.6192C70.1091 84.6264 71.404 84.9647 72.4138 84.3733C73.4209 83.7818 73.7592 82.4869 73.1678 81.4771L59.2598 57.7591C58.6683 56.7519 57.3735 56.4136 56.3637 57.0051Z"
       fill="#E5A97C"
       id="path26" />
    <path
       d="M72.2299 79.8707L59.2572 57.7566C58.6657 56.7495 57.3708 56.4111 56.361 57.0026C55.3539 57.5941 55.0155 58.889 55.607 59.8988L68.5797 82.0129"
       fill="#FF9700"
       id="path28" />
    <path
       d="M72.4111 84.3704C72.5656 84.2799 72.7068 84.1706 72.8347 84.0454C71.9075 84.3092 70.919 83.9122 70.4315 83.0809L56.5236 59.3629C56.036 58.5316 56.1719 57.4738 56.8566 56.7944C55.7323 57.1142 55.0821 58.2838 55.4019 59.4081C55.4525 59.5813 55.5218 59.7439 55.6124 59.8984L69.5202 83.6164C70.1117 84.6236 71.4066 84.9619 72.4164 84.3704H72.4111Z"
       fill="#FFA227"
       id="path30" />
    <path
       d="M43.7876 44.6219C44.6834 42.6079 43.777 40.2489 41.763 39.3531C39.7489 38.4572 37.39 39.3637 36.4942 41.3777C35.5983 43.3917 36.5048 45.7506 38.5188 46.6465C40.5328 47.5424 42.8917 46.6359 43.7876 44.6219Z"
       fill="#E5A97C"
       id="path32" />
    <path
       d="M36.0987 43.297C36.0827 43.1424 36.0747 42.9959 36.0747 42.852C36.0747 40.6459 37.8199 38.8608 39.9727 38.8608C42.1254 38.8608 43.8706 40.6486 43.8706 42.852C43.8706 42.9986 43.8626 43.1424 43.8466 43.2863C43.6068 41.0962 41.6778 39.5189 39.5384 39.7641C37.7266 39.9719 36.2958 41.4399 36.096 43.2943L36.0987 43.297Z"
       fill="#FCC097"
       id="path34" />
    <path
       d="M64.7138 47.4589C66.9181 47.4589 68.705 45.672 68.705 43.4678C68.705 41.2635 66.9181 39.4766 64.7138 39.4766C62.5096 39.4766 60.7227 41.2635 60.7227 43.4678C60.7227 45.672 62.5096 47.4589 64.7138 47.4589Z"
       fill="#E5A97C"
       id="path36" />
    <path
       d="M62.1504 51.8144C67.3456 46.6192 67.3456 38.1962 62.1504 33.001C56.9552 27.8058 48.5322 27.8058 43.337 33.001C38.1418 38.1962 38.1418 46.6192 43.337 51.8144C48.5322 57.0096 56.9552 57.0096 62.1504 51.8144Z"
       fill="white"
       id="path38" />
    <path
       d="M52.2953 55.6968C59.3966 55.6968 65.1534 49.94 65.1534 42.8386C65.1534 35.7373 59.3966 29.9805 52.2953 29.9805C45.1939 29.9805 39.4371 35.7373 39.4371 42.8386C39.4371 49.94 45.1939 55.6968 52.2953 55.6968Z"
       fill="#E5A97C"
       id="path40" />
    <path
       d="M57.1763 42.5402C58.6463 42.5402 59.838 41.3485 59.838 39.8785C59.838 38.4085 58.6463 37.2168 57.1763 37.2168C55.7063 37.2168 54.5146 38.4085 54.5146 39.8785C54.5146 41.3485 55.7063 42.5402 57.1763 42.5402Z"
       fill="white"
       id="path42" />
    <path
       d="M57.1763 38.9912C58.1541 38.9912 58.9508 39.7852 58.9508 40.7657C58.9508 41.7461 58.1568 42.5401 57.1763 42.5401C56.1985 42.5401 55.4019 41.7461 55.4019 40.7657C55.4019 39.7852 56.1958 38.9912 57.1763 38.9912Z"
       fill="black"
       id="path44" />
    <path
       d="M48.3067 42.5402C49.7767 42.5402 50.9684 41.3485 50.9684 39.8785C50.9684 38.4085 49.7767 37.2168 48.3067 37.2168C46.8367 37.2168 45.645 38.4085 45.645 39.8785C45.645 41.3485 46.8367 42.5402 48.3067 42.5402Z"
       fill="white"
       id="path46" />
    <path
       d="M48.3067 38.9912C49.2845 38.9912 50.0811 39.7852 50.0811 40.7657C50.0811 41.7461 49.2871 42.5401 48.3067 42.5401C47.3288 42.5401 46.5322 41.7461 46.5322 40.7657C46.5322 39.7852 47.3262 38.9912 48.3067 38.9912Z"
       fill="black"
       id="path48" />
    <path
       d="M52.7402 52.5023C56.02 52.5023 58.679 49.8433 58.679 46.5635H46.8014C46.8014 49.8433 49.4604 52.5023 52.7402 52.5023Z"
       fill="#D67954"
       id="path50" />
    <path
       d="M58.4846 56.917C58.4846 56.917 58.2075 56.7625 57.9171 56.7092C57.6133 56.6426 57.2643 56.6639 57.2643 56.6639C55.9108 58.2812 51.7518 59.576 48.456 56.6639C48.456 56.6639 48.0909 56.6559 47.9284 56.6772C47.5394 56.7278 47.3369 56.8344 47.3369 56.8344C47.3369 56.8344 48.003 59.1897 52.1647 59.5733V66.3355H54.1257V59.5494C58.045 59.1204 58.4872 56.9197 58.4872 56.9197L58.4846 56.917Z"
       fill="#F49200"
       id="path52" />
    <path
       d="M53.0519 59.9946H52.4364V66.3358H53.0519V59.9946Z"
       fill="#FFBB61"
       id="path54" />
    <path
       d="M48.6717 34.0679C42.5304 34.2917 40.5374 38.7811 40.7612 44.9224C40.9717 50.7494 45.6476 55.4226 51.4746 55.6358C51.3014 55.6438 51.1735 55.6437 51.0563 55.6437C44.4567 55.6437 39.1067 50.2938 39.1067 43.6942C39.1067 40.5236 39.9433 37.0733 42.184 34.8299"
       fill="#AD7547"
       id="path56" />
    <path
       d="M60.0938 26.2477L53.7766 24.4839H51.7251L45.4079 26.2477L38.9229 33.7638L39.8287 38.0321C47.6273 38.0321 52.7535 30.0284 52.7535 30.0284C52.7535 30.0284 57.877 38.0321 65.6783 38.0321L66.5841 33.7638L60.0991 26.2477H60.0938Z"
       fill="#212121"
       id="path58" />
    <path
       d="M46.3671 58.2575C46.5642 57.3196 47.3928 56.6509 48.3493 56.6509H57.2642C58.2021 56.6509 59.0201 57.2957 59.2359 58.2069L67.6898 93.8612C67.8177 94.4047 67.482 94.9509 66.9385 95.0788C66.8586 95.0974 66.7786 95.1081 66.696 95.1081H39.8501C39.2905 95.1081 38.8376 94.6552 38.835 94.0983C38.835 94.029 38.8429 93.9571 38.8563 93.8878L46.3644 58.2575H46.3671Z"
       fill="#FF9700"
       id="path60" />
    <path
       d="M66.5628 95.7898H39.0561C38.4833 95.7898 38.0197 95.3289 38.0197 94.7587C38.0197 94.6894 38.0277 94.6148 38.0437 94.5482L45.7356 58.3024C45.8742 57.6603 46.5216 57.1487 47.1237 56.877C47.0625 57.0128 46.804 57.1274 46.7747 57.274L39.0827 93.5198C38.9655 94.0766 39.3252 94.6228 39.8847 94.74C39.954 94.7534 40.0259 94.764 40.0979 94.764H67.6046C67.6046 95.0358 67.4954 95.2995 67.3009 95.494C67.1064 95.6885 66.8426 95.7951 66.5655 95.7951L66.5628 95.7898Z"
       fill="#FFA227"
       id="path62" />
    <path
       d="M49.6416 57.2423H50.4249V55.5132H55.1834V57.2423H55.9854C56.0653 58.6118 54.7731 59.7735 53.0999 59.8374C52.9986 59.8401 52.9 59.8401 52.8015 59.8374C51.1362 59.9067 49.7215 58.857 49.6389 57.4981C49.6336 57.4129 49.6336 57.3303 49.6389 57.245L49.6416 57.2423Z"
       fill="#C68643"
       id="path64" />
    <path
       d="M52.4498 59.8345C50.8245 59.7706 49.559 58.4011 49.6229 56.7758C49.6229 56.7358 49.6256 56.7012 49.6309 56.6613H50.337V55.6035H51.043V56.6613H50.337C50.2251 58.1906 51.2961 59.5521 52.8041 59.8105C52.6869 59.8265 52.5697 59.8345 52.4525 59.8345H52.4498Z"
       fill="#C68643"
       id="path66" />
    <path
       d="M66.9891 61.5799C66.9891 63.9458 62.7022 65.8669 62.7022 65.8669C62.7022 65.8669 58.4153 63.9485 58.4153 61.5799C58.4153 59.2113 60.3336 57.293 62.7022 57.293C65.0708 57.293 66.9891 59.2113 66.9891 61.5799Z"
       fill="#212121"
       id="path68" />
    <path
       d="M64.9909 56.7385C64.8736 57.8975 63.8932 58.8034 62.7022 58.8034C61.6018 58.8034 60.6826 58.0307 60.4562 56.9969C61.0636 57.1914 61.7111 57.2927 62.3825 57.2927C63.3097 57.2927 64.1916 57.0929 64.9882 56.7358L64.9909 56.7385Z"
       fill="#DC2C7D"
       id="path70" />
    <path
       d="M47.0891 61.8969C47.0891 64.0923 43.1166 65.8694 43.1166 65.8694C43.1166 65.8694 39.144 64.0896 39.144 61.8969C39.144 59.7041 40.9238 57.9243 43.1166 57.9243C45.3094 57.9243 47.0891 59.7041 47.0891 61.8969Z"
       fill="#212121"
       id="path72" />
    <path
       d="M45.3866 56.8796C45.2081 57.972 44.2623 58.806 43.1166 58.806C41.9709 58.806 41.0251 57.972 40.8492 56.8823C41.5526 57.1487 42.3173 57.2953 43.1166 57.2953C43.9159 57.2953 44.6832 57.1461 45.3866 56.877V56.8796Z"
       fill="#DC2C7D"
       id="path74" />
  </g>
  <rect
     x="0.5"
     y="0.5"
     width="104"
     height="73"
     rx="36.5"
     stroke="#EFEFEF"
     stroke-linejoin="bevel"
     id="rect78" />
  <defs
     id="defs98">
    <filter
       id="filter0_d_385_49483"
       x="-6.021"
       y="45.9502"
       width="70.2998"
       height="30.2051"
       filterUnits="userSpaceOnUse"
       color-interpolation-filters="sRGB">
      <feFlood
         flood-opacity="0"
         result="BackgroundImageFix"
         id="feFlood80" />
      <feColorMatrix
         in="SourceAlpha"
         type="matrix"
         values="0 0 0 0 0 0 0 0 0 0 0 0 0 0 0 0 0 0 127 0"
         result="hardAlpha"
         id="feColorMatrix82" />
      <feOffset
         id="feOffset84" />
      <feGaussianBlur
         stdDeviation="1"
         id="feGaussianBlur86" />
      <feColorMatrix
         type="matrix"
         values="0 0 0 0 0 0 0 0 0 0 0 0 0 0 0 0 0 0 0.2 0"
         id="feColorMatrix88" />
      <feBlend
         mode="normal"
         in2="BackgroundImageFix"
         result="effect1_dropShadow_385_49483"
         id="feBlend90" />
      <feBlend
         mode="normal"
         in="SourceGraphic"
         in2="effect1_dropShadow_385_49483"
         result="shape"
         id="feBlend92" />
    </filter>
    <clipPath
       id="clip0_385_49483">
      <rect
         x="0.5"
         y="0.5"
         width="104"
         height="73"
         rx="36.5"
         fill="white"
         id="rect95" />
    </clipPath>
  </defs>
</svg>
