<?xml version="1.0" encoding="UTF-8" standalone="no"?>
<svg
   width="105"
   height="74"
   viewBox="0 0 105 74"
   fill="none"
   version="1.1"
   id="svg112"
   sodipodi:docname="shiko.svg"
   inkscape:version="1.1.2 (0a00cf5339, 2022-02-04)"
   xmlns:inkscape="http://www.inkscape.org/namespaces/inkscape"
   xmlns:sodipodi="http://sodipodi.sourceforge.net/DTD/sodipodi-0.dtd"
   xmlns="http://www.w3.org/2000/svg"
   xmlns:svg="http://www.w3.org/2000/svg">
  <sodipodi:namedview
     id="namedview114"
     pagecolor="#ffffff"
     bordercolor="#666666"
     borderopacity="1.0"
     inkscape:pageshadow="2"
     inkscape:pageopacity="0.0"
     inkscape:pagecheckerboard="0"
     showgrid="false"
     inkscape:zoom="7.1621622"
     inkscape:cx="52.498113"
     inkscape:cy="37"
     inkscape:window-width="1366"
     inkscape:window-height="694"
     inkscape:window-x="0"
     inkscape:window-y="26"
     inkscape:window-maximized="1"
     inkscape:current-layer="g88" />
  <g
     clip-path="url(#clip0_385_21552)"
     id="g88">
    <rect
       x="0.5"
       y="0.5"
       width="104"
       height="73"
       rx="36.5"
       fill="white"
       id="rect2" />
    <g
       filter="url(#filter0_d_385_21552)"
       id="g6">
      <path
         d="M35.9976 47.9502C29.426 47.9502 23.7405 50.6769 21.0063 54.6426C20.067 54.481 19.0867 54.3945 18.0786 54.3945C12.8438 54.3946 8.35948 56.7015 6.47998 59.9785H3.06689C-0.847759 59.9786 -4.021 63.1527 -4.021 67.0674C-4.02082 70.9819 -0.847652 74.1552 3.06689 74.1553H53.2573C58.2397 74.1553 62.2788 70.1162 62.2788 65.1338C62.2788 60.1514 58.2397 56.1123 53.2573 56.1123H51.8394C49.6006 51.3658 43.3536 47.9502 35.9976 47.9502Z"
         fill="white"
         id="path4" />
    </g>
    <path
       d="M38.6879 53.6298C40.2699 53.6298 41.5524 52.3473 41.5524 50.7653C41.5524 49.1833 40.2699 47.9009 38.6879 47.9009C37.106 47.9009 35.8235 49.1833 35.8235 50.7653C35.8235 52.3473 37.106 53.6298 38.6879 53.6298Z"
       fill="#1A1A1A"
       id="path10" />
    <path
       d="M43.467 51.477C48.5445 51.477 52.6606 47.3609 52.6606 42.2834C52.6606 37.2059 48.5445 33.0898 43.467 33.0898C38.3895 33.0898 34.2734 37.2059 34.2734 42.2834C34.2734 47.3609 38.3895 51.477 43.467 51.477Z"
       fill="#1A1A1A"
       id="path12" />
    <path
       d="M46.8482 43.5778C51.6655 43.5778 55.5707 39.6726 55.5707 34.8553C55.5707 30.038 51.6655 26.1328 46.8482 26.1328C42.0309 26.1328 38.1257 30.038 38.1257 34.8553C38.1257 39.6726 42.0309 43.5778 46.8482 43.5778Z"
       fill="#1A1A1A"
       id="path14" />
    <path
       d="M52.8304 40.4449C57.6477 40.4449 61.5528 36.5398 61.5528 31.7225C61.5528 26.9052 57.6477 23 52.8304 23C48.0131 23 44.1079 26.9052 44.1079 31.7225C44.1079 36.5398 48.0131 40.4449 52.8304 40.4449Z"
       fill="#1A1A1A"
       id="path16" />
    <path
       d="M38.5259 51.1782C41.0255 51.1782 43.0517 49.1519 43.0517 46.6523C43.0517 44.1527 41.0255 42.1265 38.5259 42.1265C36.0263 42.1265 34 44.1527 34 46.6523C34 49.1519 36.0263 51.1782 38.5259 51.1782Z"
       fill="#1A1A1A"
       id="path18" />
    <path
       d="M61.5528 44.1731C66.0638 44.1731 69.7207 40.5162 69.7207 36.0052C69.7207 31.4943 66.0638 27.8374 61.5528 27.8374C57.0419 27.8374 53.385 31.4943 53.385 36.0052C53.385 40.5162 57.0419 44.1731 61.5528 44.1731Z"
       fill="#1A1A1A"
       id="path20" />
    <path
       d="M64.7996 49.0841C68.4112 49.0841 71.3389 46.1563 71.3389 42.5447C71.3389 38.9331 68.4112 36.0054 64.7996 36.0054C61.188 36.0054 58.2603 38.9331 58.2603 42.5447C58.2603 46.1563 61.188 49.0841 64.7996 49.0841Z"
       fill="#1A1A1A"
       id="path22" />
    <path
       d="M49.1478 63.6847C50.1355 64.0444 50.6446 65.136 50.285 66.1237L41.8234 89.3685C41.4637 90.3562 40.3721 90.8653 39.3844 90.5056C38.3967 90.146 37.8876 89.0544 38.2472 88.0666L46.7089 64.8219C47.0685 63.8342 48.1601 63.3251 49.1478 63.6847Z"
       fill="#6D441E"
       id="path24" />
    <path
       d="M39.387 90.5029C39.2376 90.4472 39.0932 90.3737 38.959 90.2826C39.8226 90.3661 40.6331 89.8546 40.9319 89.039L49.3935 65.7943C49.6898 64.9788 49.3986 64.067 48.6818 63.5757C49.7278 63.677 50.4927 64.6065 50.3939 65.6525C50.3787 65.812 50.3433 65.9691 50.2876 66.121L41.826 89.3658C41.4663 90.3535 40.3747 90.8626 39.387 90.5029Z"
       fill="#7E4F24"
       id="path26" />
    <path
       d="M58.4098 63.6847C59.3975 63.3251 60.4891 63.8342 60.8487 64.8219L69.3104 88.0666C69.67 89.0544 69.1609 90.146 68.1732 90.5056C67.1855 90.8653 66.0938 90.3562 65.7342 89.3685L57.2726 66.1237C56.913 65.136 57.422 64.0444 58.4098 63.6847Z"
       fill="#6D441E"
       id="path28" />
    <path
       d="M68.1733 90.5029C68.0239 90.5586 67.8643 90.5941 67.7073 90.6093C68.4215 90.1179 68.7153 89.2037 68.419 88.3907L59.9573 65.1459C59.661 64.3304 58.848 63.8188 57.9844 63.9024C58.8505 63.3072 60.0359 63.5276 60.6285 64.3937C60.7197 64.5254 60.7931 64.6698 60.8488 64.8217L69.3105 88.0665C69.6701 89.0542 69.1611 90.1458 68.1733 90.5055V90.5029Z"
       fill="#7E4F24"
       id="path30" />
    <path
       d="M67.0663 98.9494C66.9929 98.9671 66.9169 98.9772 66.8409 98.9772H41.6283C41.104 98.9772 40.676 98.5518 40.676 98.025C40.676 97.9971 40.6786 97.9692 40.6811 97.9388V97.9211C40.6862 97.8907 40.6937 97.8603 40.6988 97.8299L47.7472 64.3381C47.8738 63.7454 48.2664 63.2642 48.7856 63.0186C49.0363 62.897 49.3149 62.8286 49.6087 62.8286H57.9816C58.863 62.8286 59.6279 63.4339 59.8305 64.2925L67.7679 97.8071C67.7805 97.8502 67.7856 97.8983 67.7907 97.9439C67.8337 98.4074 67.5273 98.8455 67.0612 98.9544H67.0638L67.0663 98.9494Z"
       fill="#942581"
       id="path32" />
    <path
       d="M67.7983 97.9364C67.7983 98.1897 67.6971 98.4303 67.5198 98.6101C67.3425 98.7874 67.0993 98.8887 66.8486 98.8887H41.636C41.1118 98.8887 40.6863 98.4606 40.6863 97.9364V97.9186C40.6913 97.8882 40.6989 97.8579 40.704 97.8275L47.7524 64.3356C47.879 63.743 48.2716 63.2618 48.7908 63.0161C48.7553 63.1073 48.7249 63.206 48.7047 63.2997L41.6562 96.7916C41.5473 97.3057 41.8766 97.8097 42.3908 97.9186C42.4566 97.9313 42.5225 97.9364 42.5858 97.9364H67.7933H67.7983Z"
       fill="#842675"
       id="path34" />
    <path
       d="M50.9359 62.8235H51.64V60.9189H55.9202V62.8235H56.642C56.7129 64.3279 55.553 65.6069 54.0486 65.6778C53.9574 65.6829 53.8687 65.6804 53.7801 65.6778C52.2833 65.7538 51.0094 64.5989 50.9359 63.1021C50.9309 63.0084 50.9309 62.9172 50.9359 62.8235Z"
       fill="#603917"
       id="path36" />
    <path
       d="M53.4634 65.6777C52.002 65.622 50.8623 64.3886 50.9206 62.9247C50.9206 62.8918 50.9231 62.8563 50.9282 62.8234H51.5639V61.8154H52.1996V62.8234H51.5639C51.4651 64.1987 52.425 65.4219 53.7825 65.6549C53.6761 65.6676 53.5723 65.6752 53.4659 65.6777H53.4634Z"
       fill="#503013"
       id="path38" />
    <path
       d="M69.9511 44.748C69.9511 44.9557 69.9487 45.1633 69.9385 45.371C69.8524 47.734 69.2927 49.9754 68.3404 51.999C67.0741 54.709 65.1163 57.0339 62.6951 58.7409C61.1097 59.8654 59.3242 60.724 57.4044 61.2559H57.4019C56.9156 61.3927 56.4192 61.5041 55.9177 61.5978C55.1604 61.7345 54.3855 61.8232 53.5978 61.8561C53.5117 61.8612 53.423 61.8637 53.3344 61.8688C53.2534 61.8713 53.1698 61.8739 53.0862 61.8739C53.0001 61.8764 52.9089 61.8764 52.8228 61.8764C52.4252 61.8764 52.0301 61.8637 51.635 61.8358C46.4785 61.4838 41.9475 58.8473 39.0527 54.9318C38.1739 53.744 37.4445 52.4397 36.8924 51.0493C36.7506 50.6871 36.6189 50.3198 36.5024 49.945C36.3884 49.5879 36.2846 49.2257 36.1959 48.8585C36.0946 48.4507 36.006 48.0354 35.9401 47.6175C35.9021 47.4073 35.8717 47.1946 35.8413 46.9818C35.7501 46.2524 35.6995 45.5103 35.6995 44.7556C35.6995 43.9274 35.7552 43.1195 35.8717 42.3243C35.9756 41.5923 36.125 40.8781 36.3175 40.1816C36.667 38.9102 37.1608 37.6946 37.7838 36.5599C38.3334 35.5469 38.992 34.5945 39.7315 33.7182C40.8357 32.4063 42.1375 31.2616 43.5887 30.3321C44.0294 30.051 44.4802 29.7926 44.9437 29.5495C46.3164 28.8353 47.8006 28.3034 49.3632 27.9818C50.4826 27.7513 51.64 27.6323 52.8228 27.6323C57.6678 27.6323 62.0391 29.6432 65.1543 32.8775C65.3443 33.0725 65.5342 33.2801 65.7165 33.4878C65.9192 33.7208 66.1142 33.9589 66.3067 34.202C66.4789 34.4198 66.646 34.6427 66.8056 34.8706C68.7836 37.6616 69.9486 41.0706 69.9486 44.7581L69.9511 44.748Z"
       fill="#1A1A1A"
       id="path40" />
    <path
       d="M39.9948 52.389C42.3587 52.389 44.275 50.4727 44.275 48.1088C44.275 45.7449 42.3587 43.8286 39.9948 43.8286C37.6309 43.8286 35.7146 45.7449 35.7146 48.1088C35.7146 50.4727 37.6309 52.389 39.9948 52.389Z"
       fill="#603917"
       id="path42" />
    <path
       d="M35.7298 48.5547C35.7121 48.3901 35.7019 48.2305 35.7019 48.0786C35.7019 45.7156 37.6192 43.7983 39.9821 43.7983C42.3451 43.7983 44.2623 45.7156 44.2623 48.0786C44.2623 48.2331 44.2547 48.39 44.237 48.5445C43.9736 46.1942 41.8537 44.5024 39.506 44.7658C37.5153 44.9887 35.9476 46.5615 35.7273 48.5521L35.7298 48.5547Z"
       fill="#7E4F24"
       id="path44" />
    <path
       d="M66.6232 52.3587C68.9871 52.3587 70.9034 50.4425 70.9034 48.0786C70.9034 45.7147 68.9871 43.7983 66.6232 43.7983C64.2593 43.7983 62.343 45.7147 62.343 48.0786C62.343 50.4425 64.2593 52.3587 66.6232 52.3587Z"
       fill="#603917"
       id="path46" />
    <path
       d="M53.7776 61.8715C61.6581 61.8715 68.0466 55.483 68.0466 47.6025C68.0466 39.7219 61.6581 33.3335 53.7776 33.3335C45.897 33.3335 39.5085 39.7219 39.5085 47.6025C39.5085 55.483 45.897 61.8715 53.7776 61.8715Z"
       fill="white"
       id="path48" />
    <path
       d="M53.2888 61.8406C60.9063 61.8406 67.0816 55.6653 67.0816 48.0477C67.0816 40.4301 60.9063 34.2549 53.2888 34.2549C45.6712 34.2549 39.4958 40.4301 39.4958 48.0477C39.4958 55.6653 45.6712 61.8406 53.2888 61.8406Z"
       fill="#603917"
       id="path50" />
    <path
       d="M53.3038 61.8715C45.6856 61.8715 39.511 55.6969 39.511 48.0787C39.511 44.4215 40.9647 40.9112 43.5506 38.3254C48.9375 32.9384 57.6701 32.9384 63.0571 38.3254C65.643 40.9112 67.0967 44.4215 67.0967 48.0787C67.0967 48.2382 67.0967 48.4028 67.0891 48.5624C66.8308 41.4735 60.874 35.937 53.7876 36.1954C46.6987 36.4537 41.1623 42.4105 41.4206 49.4969C41.6638 56.2236 47.0609 61.6208 53.7876 61.8639C53.5875 61.8715 53.4406 61.8715 53.3038 61.8715Z"
       fill="#503013"
       id="path52" />
    <path
       d="M58.5364 49.504C60.1128 49.504 61.3908 48.2261 61.3908 46.6497C61.3908 45.0733 60.1128 43.7954 58.5364 43.7954C56.9601 43.7954 55.6821 45.0733 55.6821 46.6497C55.6821 48.2261 56.9601 49.504 58.5364 49.504Z"
       fill="white"
       id="path54" />
    <path
       d="M58.5364 45.7002C59.5875 45.7002 60.441 46.5512 60.441 47.6048C60.441 48.6558 59.59 49.5093 58.5364 49.5093C57.4853 49.5093 56.6318 48.6583 56.6318 47.6048C56.6318 46.5537 57.4828 45.7002 58.5364 45.7002Z"
       fill="#402312"
       id="path56" />
    <path
       d="M49.0237 49.504C50.6001 49.504 51.8781 48.2261 51.8781 46.6497C51.8781 45.0733 50.6001 43.7954 49.0237 43.7954C47.4474 43.7954 46.1694 45.0733 46.1694 46.6497C46.1694 48.2261 47.4474 49.504 49.0237 49.504Z"
       fill="white"
       id="path58" />
    <path
       d="M49.0237 45.7002C50.0748 45.7002 50.9283 46.5512 50.9283 47.6048C50.9283 48.6558 50.0773 49.5093 49.0237 49.5093C47.9727 49.5093 47.1191 48.6583 47.1191 47.6048C47.1191 46.5537 47.9701 45.7002 49.0237 45.7002Z"
       fill="#402312"
       id="path60" />
    <path
       d="M53.78 58.133C57.4575 58.133 60.4384 55.152 60.4384 51.4746H47.1191C47.1191 55.152 50.1001 58.133 53.7775 58.133H53.78Z"
       fill="#8F341E"
       id="path62" />
    <path
       d="M58.5391 41.8989C61.1659 41.8989 63.2954 39.7694 63.2954 37.1426C63.2954 34.5157 61.1659 32.3862 58.5391 32.3862C55.9122 32.3862 53.7827 34.5157 53.7827 37.1426C53.7827 39.7694 55.9122 41.8989 58.5391 41.8989Z"
       fill="#1A1A1A"
       id="path64" />
    <path
       d="M58.5364 41.8963C55.91 41.8963 53.78 39.7664 53.78 37.14C53.78 35.6432 54.4841 34.2325 55.6846 33.3359C54.1067 35.438 54.5348 38.419 56.6343 39.9943C57.4575 40.6123 58.4579 40.9441 59.4887 40.9441C60.5169 40.9466 61.5198 40.6123 62.343 39.9943C61.4489 41.1973 60.0357 41.9014 58.5389 41.8989L58.5364 41.8963Z"
       fill="black"
       id="path66" />
    <path
       d="M51.878 37.1374C53.979 37.1374 55.6821 35.4343 55.6821 33.3334C55.6821 31.2324 53.979 29.5293 51.878 29.5293C49.7771 29.5293 48.074 31.2324 48.074 33.3334C48.074 35.4343 49.7771 37.1374 51.878 37.1374Z"
       fill="#1A1A1A"
       id="path68" />
    <path
       d="M51.8781 37.1373C49.776 37.1373 48.0741 35.4354 48.0715 33.3333C48.0715 32.0873 48.6819 30.9197 49.7026 30.208C48.5021 31.9327 48.9301 34.3033 50.6523 35.5038C51.2905 35.947 52.0478 36.185 52.8279 36.185C53.6079 36.185 54.3627 35.9495 55.0009 35.5038C54.2892 36.5244 53.1217 37.1348 51.8781 37.1348V37.1373Z"
       fill="black"
       id="path70" />
    <path
       d="M39.5566 39.5967C41.4687 39.5967 43.0188 38.0466 43.0188 36.1345C43.0188 34.2224 41.4687 32.6724 39.5566 32.6724C37.6445 32.6724 36.0945 34.2224 36.0945 36.1345C36.0945 38.0466 37.6445 39.5967 39.5566 39.5967Z"
       fill="#1A1A1A"
       id="path72" />
    <path
       d="M68.5405 40.4198C70.1225 40.4198 71.4049 39.1374 71.4049 37.5554C71.4049 35.9734 70.1225 34.6909 68.5405 34.6909C66.9585 34.6909 65.676 35.9734 65.676 37.5554C65.676 39.1374 66.9585 40.4198 68.5405 40.4198Z"
       fill="#1A1A1A"
       id="path74" />
    <path
       d="M60.4409 32.6724C62.353 32.6724 63.9031 31.1223 63.9031 29.2102C63.9031 27.2981 62.353 25.748 60.4409 25.748C58.5289 25.748 56.9788 27.2981 56.9788 29.2102C56.9788 31.1223 58.5289 32.6724 60.4409 32.6724Z"
       fill="#1A1A1A"
       id="path76" />
    <path
       d="M49.5378 73.4505L50.0494 73.9596C50.0494 73.9596 50.0773 73.9773 50.0925 73.9722L50.8016 73.838C50.8422 73.8304 50.8725 73.8709 50.8548 73.9089L50.5306 74.5522C50.523 74.5674 50.523 74.5851 50.5306 74.5978L50.8776 75.231C50.8979 75.2664 50.8675 75.3095 50.8269 75.3019L50.1128 75.1904C50.095 75.1904 50.0798 75.193 50.0697 75.2056L49.5733 75.7324C49.5454 75.7628 49.4948 75.7476 49.4872 75.7045L49.3707 74.9904C49.3681 74.9726 49.358 74.9599 49.3428 74.9523L48.6894 74.6434C48.6514 74.6256 48.6514 74.5724 48.6894 74.5547L49.3302 74.2255C49.3453 74.2179 49.3555 74.2027 49.358 74.1875L49.4492 73.4708C49.4542 73.4303 49.5049 73.415 49.5328 73.4429L49.5378 73.4505Z"
       fill="#DA2F7A"
       id="path78" />
    <path
       d="M53.97 73.4505L54.4816 73.9596C54.4816 73.9596 54.5094 73.9773 54.5246 73.9722L55.2338 73.838C55.2743 73.8304 55.3047 73.8709 55.2869 73.9089L54.9628 74.5522C54.9552 74.5674 54.9552 74.5851 54.9628 74.5978L55.3098 75.231C55.33 75.2664 55.2996 75.3095 55.2591 75.3019L54.5449 75.1904C54.5272 75.1904 54.5119 75.193 54.5018 75.2056L54.0054 75.7324C53.9775 75.7628 53.9269 75.7476 53.9193 75.7045L53.8028 74.9904C53.8002 74.9726 53.7902 74.9599 53.775 74.9523L53.1215 74.6434C53.0835 74.6256 53.0835 74.5724 53.1215 74.5547L53.7623 74.2255C53.7775 74.2179 53.7876 74.2027 53.7902 74.1875L53.8813 73.4708C53.8864 73.4303 53.937 73.415 53.9649 73.4429L53.97 73.4505Z"
       fill="#DA2F7A"
       id="path80" />
    <path
       d="M58.4021 73.4505L58.9137 73.9596C58.9137 73.9596 58.9415 73.9773 58.9567 73.9722L59.6659 73.838C59.7064 73.8304 59.7368 73.8709 59.7191 73.9089L59.3949 74.5522C59.3873 74.5674 59.3873 74.5851 59.3949 74.5978L59.7419 75.231C59.7622 75.2664 59.7317 75.3095 59.6912 75.3019L58.977 75.1904C58.9593 75.1904 58.9441 75.193 58.9339 75.2056L58.4375 75.7324C58.4097 75.7628 58.3591 75.7476 58.3515 75.7045L58.2349 74.9904C58.2324 74.9726 58.2223 74.9599 58.2071 74.9523L57.5536 74.6434C57.5156 74.6256 57.5156 74.5724 57.5536 74.5547L58.1944 74.2255C58.2096 74.2179 58.2198 74.2027 58.2223 74.1875L58.3134 73.4708C58.3185 73.4303 58.3692 73.415 58.397 73.4429L58.4021 73.4505Z"
       fill="#DA2F7A"
       id="path82" />
    <path
       d="M51.7539 68.9373L52.2655 69.4464C52.2655 69.4464 52.2934 69.4641 52.3085 69.4591L53.0177 69.3248C53.0582 69.3172 53.0886 69.3578 53.0709 69.3957L52.7467 70.039C52.7391 70.0542 52.7391 70.072 52.7467 70.0846L53.0937 70.7178C53.114 70.7532 53.0835 70.7963 53.043 70.7887L52.3288 70.6773C52.3111 70.6773 52.2959 70.6798 52.2857 70.6924L51.7893 71.2192C51.7615 71.2496 51.7109 71.2345 51.7033 71.1914L51.5867 70.4772C51.5842 70.4595 51.5741 70.4468 51.5589 70.4392L50.9054 70.1302C50.8675 70.1125 50.8675 70.0593 50.9054 70.0416L51.5462 69.7123C51.5614 69.7047 51.5716 69.6896 51.5741 69.6744L51.6652 68.9576C51.6703 68.9171 51.721 68.9019 51.7488 68.9297L51.7539 68.9373Z"
       fill="#DA2F7A"
       id="path84" />
    <path
       d="M56.1887 68.9373L56.7003 69.4464C56.7003 69.4464 56.7282 69.4641 56.7434 69.4591L57.4525 69.3248C57.493 69.3172 57.5234 69.3578 57.5057 69.3957L57.1815 70.039C57.1739 70.0542 57.1739 70.072 57.1815 70.0846L57.5285 70.7178C57.5488 70.7532 57.5183 70.7963 57.4778 70.7887L56.7636 70.6773C56.7459 70.6773 56.7307 70.6798 56.7205 70.6924L56.2242 71.2192C56.1963 71.2496 56.1457 71.2345 56.1381 71.1914L56.0215 70.4772C56.019 70.4595 56.0089 70.4468 55.9937 70.4392L55.3403 70.1302C55.3023 70.1125 55.3023 70.0593 55.3403 70.0416L55.981 69.7123C55.9962 69.7047 56.0064 69.6896 56.0089 69.6744L56.1001 68.9576C56.1051 68.9171 56.1558 68.9019 56.1837 68.9297L56.1887 68.9373Z"
       fill="#DA2F7A"
       id="path86" />
  </g>
  <rect
     x="0.5"
     y="0.5"
     width="104"
     height="73"
     rx="36.5"
     stroke="#EFEFEF"
     stroke-linejoin="bevel"
     id="rect90" />
  <defs
     id="defs110">
    <filter
       id="filter0_d_385_21552"
       x="-6.021"
       y="45.9502"
       width="70.2998"
       height="30.2051"
       filterUnits="userSpaceOnUse"
       color-interpolation-filters="sRGB">
      <feFlood
         flood-opacity="0"
         result="BackgroundImageFix"
         id="feFlood92" />
      <feColorMatrix
         in="SourceAlpha"
         type="matrix"
         values="0 0 0 0 0 0 0 0 0 0 0 0 0 0 0 0 0 0 127 0"
         result="hardAlpha"
         id="feColorMatrix94" />
      <feOffset
         id="feOffset96" />
      <feGaussianBlur
         stdDeviation="1"
         id="feGaussianBlur98" />
      <feColorMatrix
         type="matrix"
         values="0 0 0 0 0 0 0 0 0 0 0 0 0 0 0 0 0 0 0.2 0"
         id="feColorMatrix100" />
      <feBlend
         mode="normal"
         in2="BackgroundImageFix"
         result="effect1_dropShadow_385_21552"
         id="feBlend102" />
      <feBlend
         mode="normal"
         in="SourceGraphic"
         in2="effect1_dropShadow_385_21552"
         result="shape"
         id="feBlend104" />
    </filter>
    <clipPath
       id="clip0_385_21552">
      <rect
         x="0.5"
         y="0.5"
         width="104"
         height="73"
         rx="36.5"
         fill="white"
         id="rect107" />
    </clipPath>
  </defs>
</svg>
