<svg width="174" height="240" viewBox="0 0 174 240" fill="none" xmlns="http://www.w3.org/2000/svg">
<rect width="174" height="240" fill="none"/>
<path d="M120.63 44.5732C120.189 42.7647 119.594 41.0173 118.883 39.3314C119.784 37.1857 119.95 34.9114 119.717 32.7228C118.552 22.1046 108.234 15.0239 97.7695 17.1757C95.5073 17.6416 93.6069 18.2914 92.3501 18.7757C90.6029 18.5059 88.8189 18.365 87.0043 18.365C86.1705 18.365 85.3429 18.4019 84.5214 18.4632C82.7558 16.9796 80.6652 16.1395 78.5318 15.7104C68.0546 13.5954 58.1783 21.2709 57.0503 31.9014C56.8848 33.4463 56.8541 34.8623 56.8663 36.0332C55.3092 38.8042 54.1199 41.8083 53.3719 44.9839C53.0348 46.4123 54.5858 47.5282 55.8242 46.7435C60.5754 43.7272 64.8606 40.0305 68.539 35.7698L68.631 35.6653C71.9047 31.8705 76.6926 29.731 81.7013 29.8107L92.0804 29.9823C98.1926 30.0865 103.943 32.9067 107.762 37.6763C109.301 39.6013 111.097 41.3179 113.09 42.7586L118.111 46.3019C119.337 47.1663 120.986 46.0446 120.624 44.5855L120.63 44.5732Z" fill="currentColor"/>
</svg>
