<svg width="174" height="240" viewBox="0 0 174 240" fill="none" xmlns="http://www.w3.org/2000/svg">
<rect width="174" height="240" fill="none"/>
<path d="M87.0039 12.2979C93.5667 12.2979 98.8867 17.6188 98.8867 24.1816C98.8867 24.4521 98.8762 24.7204 98.8584 24.9863C100.134 22.7345 102.551 21.2148 105.323 21.2148C109.424 21.2149 112.748 24.539 112.748 28.6396C112.748 30.5139 112.052 32.2247 110.906 33.5312C111.878 32.9417 113.019 32.6025 114.239 32.6025C117.794 32.6026 120.675 35.4846 120.675 39.0391C120.675 42.5933 117.794 45.4745 114.239 45.4746C110.685 45.4746 107.803 42.5934 107.803 39.0391C107.803 37.4637 108.369 36.02 109.309 34.9014C108.157 35.636 106.791 36.0644 105.323 36.0645C101.314 36.0645 98.0484 32.8859 97.9053 28.9111C96.0768 33.12 91.8854 36.0645 87.0039 36.0645C82.117 36.0644 77.921 33.1138 76.0957 28.8975C75.9596 32.8785 72.6919 36.0643 68.6777 36.0645C67.2094 36.0645 65.8417 35.6359 64.6895 34.9004C65.6301 36.0193 66.1973 37.4629 66.1973 39.0391C66.197 42.5933 63.316 45.4744 59.7617 45.4746C56.2073 45.4746 53.3254 42.5934 53.3252 39.0391C53.3252 35.4845 56.2072 32.6025 59.7617 32.6025C60.9818 32.6026 62.1226 32.9425 63.0947 33.5322C61.9486 32.2255 61.252 30.5143 61.252 28.6396C61.252 24.5389 64.577 21.2148 68.6777 21.2148C71.4564 21.215 73.8765 22.742 75.1494 25.002C75.1309 24.7309 75.1211 24.4574 75.1211 24.1816C75.1211 17.6188 80.4411 12.2979 87.0039 12.2979Z" fill="currentColor"/>
</svg>
