<svg width="174" height="240" viewBox="0 0 174 240" fill="none" xmlns="http://www.w3.org/2000/svg">
<rect width="174" height="240" fill="none"/>
<path d="M104.476 23.2031C110.142 23.2031 114.737 27.6629 114.737 33.1621C114.737 38.6613 110.142 43.1212 104.476 43.1212C98.8106 43.1212 94.2156 38.6613 94.2156 33.1621C94.2156 27.6629 98.8106 23.2031 104.476 23.2031Z" fill="currentColor"/>
<path d="M104.476 43.1204C98.8106 43.1204 94.2156 38.6606 94.2156 33.1614C94.2156 30.0273 95.7345 27.0788 98.3243 25.1963C94.9204 29.5978 95.8438 35.8394 100.373 39.1378C102.149 40.4318 104.307 41.1265 106.531 41.1265C108.749 41.1318 110.913 40.4318 112.688 39.1378C110.76 41.6568 107.711 43.1363 104.482 43.1257L104.476 43.1204Z" fill="currentColor"/>
<path d="M91.2759 19.7659C95.8108 19.7659 99.4824 23.3348 99.4824 27.731C99.4824 32.1271 95.8053 35.696 91.2759 35.696C86.7465 35.696 83.0696 32.1271 83.0696 27.731C83.0696 23.3348 86.7465 19.7659 91.2759 19.7659Z" fill="currentColor"/>
<path d="M91.2759 35.6959C86.741 35.6959 83.0696 32.1323 83.0641 27.7308C83.0641 25.1217 84.3808 22.677 86.5827 21.1869C83.9929 24.7982 84.9108 29.7618 88.6316 32.2754C90.0084 33.2035 91.642 33.7019 93.3248 33.7019C95.0076 33.7019 96.6358 33.2088 98.0127 32.2754C96.4774 34.4125 93.9586 35.6906 91.2759 35.6906V35.6959Z" fill="currentColor"/>
<path d="M123.727 62.3475C119.611 77.1157 106.726 87.6743 92.5791 87.6971C104.717 85.6362 114.582 76.9041 118.269 65.4052C120.384 64.9332 122.268 63.848 123.727 62.3475ZM52.3359 63.8798C53.3879 64.5689 54.5646 65.0835 55.8262 65.3788C58.7995 74.6794 65.8132 82.173 74.8037 85.7968C60.8662 82.2934 54.6307 74.2196 52.3359 63.8798ZM70.5703 1.95105C79.104 1.95105 86.4173 7.00246 89.5127 14.1932C92.5578 12.5406 96.068 11.5976 99.8057 11.5975C111.47 11.5975 120.923 20.772 120.923 32.0936C120.923 33.1778 120.835 34.2425 120.668 35.2811C122.901 39.2903 124.37 43.7598 124.886 48.5048C123.251 46.143 120.713 44.4532 117.771 43.9393C113.127 31.4865 101.127 22.618 87.0518 22.618V22.6122C72.9661 22.6124 60.9583 31.4974 56.3213 43.9667C53.9062 44.4152 51.7692 45.6572 50.1904 47.411C49.4953 45.6665 49.1143 43.7701 49.1143 41.788C49.1144 38.0099 50.4987 34.544 52.8018 31.8436C51.0509 28.9108 50.0488 25.5037 50.0488 21.869C50.049 10.8655 59.2333 1.95109 70.5703 1.95105Z" fill="currentColor"/>
</svg>
