<svg width="174" height="240" viewBox="0 0 174 240" fill="none" xmlns="http://www.w3.org/2000/svg">
<rect width="174" height="240" fill="none"/>
<path d="M99.7438 43.3775C105.502 43.3775 110.171 38.7092 110.171 32.9506C110.171 27.1919 105.502 22.5236 99.7438 22.5236C93.9851 22.5236 89.3168 27.1919 89.3168 32.9506C89.3168 38.7092 93.9851 43.3775 99.7438 43.3775Z" fill="currentColor"/>
<path d="M99.7382 43.3723C93.9805 43.3723 89.3112 38.7029 89.3112 32.9453C89.3112 29.664 90.8547 26.5714 93.4864 24.606C90.0274 29.2143 90.9657 35.7492 95.5685 39.2026C97.3729 40.5574 99.566 41.2847 101.826 41.2847C104.08 41.2903 106.279 40.5574 108.083 39.2026C106.123 41.8399 103.025 43.3834 99.7437 43.3779L99.7382 43.3723Z" fill="currentColor"/>
<path d="M85.9645 32.9394C91.0248 32.9394 95.127 28.8374 95.127 23.7772C95.127 18.7169 91.0248 14.6147 85.9645 14.6147C80.9043 14.6147 76.8021 18.7169 76.8021 23.7772C76.8021 28.8374 80.9043 32.9394 85.9645 32.9394Z" fill="currentColor"/>
<path d="M85.1414 32.9396C80.5331 32.9396 76.8021 29.2086 76.7965 24.6003C76.7965 21.8687 78.1345 19.3091 80.3721 17.7489C77.7403 21.5299 78.6787 26.7267 82.4541 29.3584C83.8533 30.3301 85.5134 30.8519 87.2235 30.8519C88.9336 30.8519 90.5882 30.3356 91.9873 29.3584C90.4271 31.596 87.8676 32.934 85.1414 32.934V32.9396Z" fill="currentColor"/>
<path d="M122.096 63.5278C121.826 64.2017 121.538 64.8663 121.231 65.52C118.455 71.4607 114.163 76.5572 108.855 80.2993C107.449 81.2962 105.97 82.1952 104.431 82.9927C110.845 78.9237 115.749 72.6897 118.114 65.3169C119.573 64.9914 120.92 64.3716 122.096 63.5278ZM50.01 61.9233C51.483 63.5699 53.4462 64.7698 55.6711 65.2905C57.6605 71.5131 61.459 76.9264 66.4475 80.9136C62.8088 78.493 59.6171 75.4552 57.0247 71.9487C56.3175 70.9929 55.6552 70.0023 55.0393 68.981C52.1388 68.4262 49.9467 65.8781 49.9465 62.8159C49.9465 62.513 49.9686 62.2149 50.01 61.9233ZM87.2288 1.94678C92.9103 1.94678 98.0126 4.42587 101.515 8.35986C102.269 8.10888 103.075 7.97119 103.913 7.97119C107.279 7.97122 110.13 10.1629 111.124 13.1958C117.949 15.079 123.139 20.901 124.096 28.063C126.359 29.0122 127.948 31.2483 127.948 33.856C127.948 35.5422 127.282 37.0717 126.2 38.1997C127.225 40.1737 127.804 42.4158 127.804 44.7935C127.804 47.1822 127.219 49.434 126.186 51.4146C124.991 47.5282 121.691 44.5628 117.616 43.8511C112.972 31.3981 100.972 22.5298 86.8967 22.5298V22.5239C72.8109 22.5241 60.8032 31.409 56.1663 43.8784C51.081 44.8229 47.2268 49.2823 47.2268 54.6401C47.2269 57.2729 48.159 59.6861 49.7092 61.5728C47.4191 59.7554 45.9486 56.95 45.9485 53.7993C45.9485 52.0916 46.379 50.4837 47.1389 49.0806C46.7537 47.5243 46.5481 45.8965 46.5481 44.2212C46.5482 39.6403 48.077 35.4166 50.6516 32.0317C50.5797 31.6121 50.5403 31.1809 50.5403 30.7407C50.5403 27.4814 52.5951 24.7026 55.4797 23.6274C57.3163 15.653 64.1408 9.58528 72.4915 8.8833C75.9987 4.64628 81.2988 1.94691 87.2288 1.94678Z" fill="currentColor"/>
</svg>
