<svg width="174" height="240" viewBox="0 0 174 240" fill="none" xmlns="http://www.w3.org/2000/svg">
<rect width="174" height="240" fill="none"/>
<path d="M87.0196 8.0769C99.545 8.07693 113.492 18.018 117.578 29.865L125.888 46.4148C131 61.242 119.492 81.7202 105.456 88.738L108.397 94.6169C108.97 95.7556 108.501 97.1454 107.362 97.7107C107.04 97.8721 106.692 97.9528 106.329 97.9529H89.3214L85.5821 127.889C85.4206 129.157 84.2738 130.046 83.006 129.892C82.2791 129.803 81.6406 129.375 81.2852 128.737L64.5772 99.0183C64.2058 98.348 64.1814 97.5487 64.5206 96.8542L68.5821 88.7224C54.5545 81.7045 43.4018 61.9717 48.5138 47.1365L56.461 29.8416C60.5579 18.0049 74.4944 8.0769 87.0196 8.0769ZM95.2169 32.5623C90.3391 28.9685 83.6923 28.9685 78.8145 32.5623L67.5001 40.8962C56.614 48.9236 55.2902 70.2276 65.1183 79.531V79.5232C77.4258 91.1039 96.6056 91.1039 108.913 79.5232L111.062 77.488C120.179 68.7581 120.494 54.286 111.764 45.1765C110.884 44.256 109.931 43.4163 108.905 42.6492L95.2169 32.5623Z" fill="currentColor"/>
<path d="M56.768 59.7988C55.6761 50.1886 59.4096 40.6835 65.7624 36.161L76.8055 28.2951C81.777 24.7498 88.5268 24.7498 93.5066 28.2951L106.998 37.9053C110.927 40.7157 113.79 44.7455 115.105 49.3245C113.525 46.8452 111.465 44.689 109.05 42.9689L94.7061 32.7772C89.7346 29.2481 83.1264 28.8728 78.155 32.4019L66.3249 41.0953C61.0804 44.8183 57.3966 51.8118 56.768 59.7988Z" fill="currentColor"/>
</svg>
