<svg width="174" height="240" viewBox="0 0 174 240" fill="none" xmlns="http://www.w3.org/2000/svg">
<rect width="174" height="240" fill="none"/>
<path d="M51.856 63.5668C53.0057 64.3945 54.3212 65.0071 55.7446 65.3402C56.082 66.3954 56.4713 67.4273 56.9097 68.433C53.0987 68.3933 52.0715 66.4844 51.856 63.5668ZM122.144 63.5961C121.854 66.4713 120.749 68.3603 117.03 68.432C117.464 67.4349 117.852 66.4124 118.187 65.3666C119.636 65.0434 120.974 64.4304 122.144 63.5961ZM87.0474 12.2426C105.905 12.2427 121.289 27.1058 122.128 45.7562C120.83 44.8335 119.322 44.1859 117.69 43.9008C113.045 31.4477 101.045 22.5795 86.9702 22.5795V22.5736C72.8844 22.5738 60.8767 31.4586 56.2397 43.9281C54.6711 44.2195 53.2198 44.8454 51.9624 45.7289C52.8158 27.0912 68.195 12.2426 87.0435 12.2426H87.0474Z" fill="currentColor"/>
<path d="M56.2426 43.9932C55.1154 33.0419 64.8037 21.4053 80.4573 18.6975C96.9207 15.8079 112.173 23.8053 116.718 34.8097C117.972 37.8 118.492 40.9246 118.21 43.9932C117.909 40.9302 117.047 37.9175 115.499 35.1006C109.363 23.4836 91.9634 16.1967 75.2223 21.9591C63.5773 26.0207 56.9769 35.0503 56.2426 43.9932Z" fill="currentColor"/>
<path d="M86.757 28.1916C86.757 28.1916 98.7769 43.4888 117.636 43.9932C115.124 30.3971 102.52 20.1505 86.949 20.1505C71.3777 20.1505 58.6657 30.2055 56.1538 43.7945C74.7929 43.0913 86.757 28.1916 86.757 28.1916Z" fill="currentColor"/>
</svg>
