<svg width="174" height="240" viewBox="0 0 174 240" fill="none" xmlns="http://www.w3.org/2000/svg">
<rect width="174" height="240" fill="none"/>
<path d="M126.42 57.2915C126.35 58.5774 126.226 59.8773 126.041 61.188C123.951 72.8934 121.902 81.2946 121.589 87.8091C121.571 87.6605 121.555 87.5111 121.539 87.3618C121.497 91.3918 122.224 94.6842 124.174 97.6226C122.586 96.8926 120.473 94.2581 120.456 94.2358C120.476 94.266 123.244 98.3654 123.109 101.158C120.862 99.6934 119.668 98.3764 119.655 98.3618C119.669 98.3868 121.114 100.877 121.114 102.929C119.126 105.433 117.795 105.875 117.795 105.875L117.326 103.653C117.405 104.103 117.483 104.964 117.002 105.284C116.926 105.334 116.799 105.377 116.632 105.416C116.832 105.9 117.034 106.386 117.233 106.872C117.179 106.966 117.11 107.055 117.015 107.116C116.595 107.398 114.645 107.501 112.596 107.465L107.983 94.8208C107.23 92.7582 105.015 91.6491 102.935 92.2368C102.361 90.7244 100.899 89.657 99.1959 89.6567H94.3834C94.383 89.6481 94.3828 89.639 94.3824 89.6304H92.4908V87.7944C104.613 85.7227 114.463 76.9973 118.146 65.5093C122.246 64.5944 125.478 61.3803 126.42 57.2915ZM47.5152 57.1987C48.4195 61.296 51.6242 64.5281 55.7037 65.4829C59.3706 76.9532 69.183 85.6735 81.2701 87.7769V89.6304H79.4244C79.4239 89.639 79.4238 89.6481 79.4234 89.6567H74.7086C73.0163 89.6569 71.562 90.7107 70.9801 92.2075C68.931 91.6858 66.778 92.7932 66.0377 94.8208L61.9195 106.106C61.4944 106.097 61.1258 106.091 60.8199 106.084C60.8538 106.017 60.8886 105.955 60.9224 105.887C61.3935 105.359 61.858 104.825 62.315 104.283C61.7144 104.27 61.2073 104.261 60.8072 104.252C62.2565 101.617 62.0049 99.4221 62.0015 99.3931C61.9831 99.4377 59.8598 104.544 55.8941 104.544C58.1397 102.204 57.8857 99.7161 57.8824 99.6851C57.8615 99.729 55.4375 104.814 53.4781 103.139C53.5198 103.096 59.1259 97.2735 56.1041 87.4976C56.0858 87.4382 56.0658 87.3791 56.0474 87.3198C56.2683 88.4743 56.4345 89.6326 56.525 90.7886C56.4096 90.3001 56.2806 89.8043 56.1246 89.2954C53.0981 79.4626 48.8701 71.0478 47.7164 61.3032C47.5739 60.1034 47.4982 58.7208 47.5152 57.1987ZM71.1695 17.0513C88.3108 9.24757 101.76 10.4016 105.879 15.4097C113.063 16.2045 126.351 32.4445 126.487 52.6714C125.607 48.2695 122.088 44.819 117.649 44.0435C113.004 31.5906 101.004 22.7224 86.9293 22.7222V22.7163C72.8436 22.7165 60.8359 31.6016 56.1988 44.0708C52.1414 44.8244 48.8691 47.8164 47.7115 51.7163C48.8222 40.8577 54.452 25.6859 71.1695 17.0513Z" fill="currentColor"/>
</svg>
