<svg width="174" height="240" viewBox="0 0 174 240" fill="none" xmlns="http://www.w3.org/2000/svg">
<rect width="174" height="240" fill="none"/>
<path fill-rule="evenodd" clip-rule="evenodd" d="M49.5762 61.366C51.089 63.3117 53.2443 64.7349 55.7236 65.3152C59.4045 76.8286 69.2768 85.5715 81.4268 87.6326V89.8406H79.6006C79.6004 89.8431 79.6007 89.8459 79.6006 89.8484H74.7285C73.0359 89.8484 71.5809 90.9021 70.999 92.3992C68.95 91.8776 66.7967 92.9847 66.0566 95.0125L58.5527 115.578H49.5762V61.366ZM69.8506 115.578H67.416L70.1523 108.079L69.8506 115.578ZM106.643 115.578H104.111L103.79 107.76L106.643 115.578ZM124.424 115.578H115.507L108.003 95.0125C107.25 92.9495 105.035 91.8404 102.954 92.4285C102.38 90.916 100.918 89.8485 99.2148 89.8484H94.4023C94.4022 89.8458 94.4025 89.8431 94.4023 89.8406H92.5303V87.6228C104.644 85.5449 114.485 76.8232 118.166 65.3416C120.692 64.7778 122.888 63.3394 124.424 61.363V115.578ZM87 8.59155C107.667 8.59182 124.424 25.3483 124.424 46.0154V47.949C122.789 45.8453 120.402 44.3535 117.669 43.8757C113.024 31.423 101.024 22.5549 86.9492 22.5544V22.5486C72.8635 22.5488 60.8557 31.4337 56.2188 43.9031C53.5325 44.402 51.1887 45.8819 49.5762 47.9568V46.0154C49.5762 25.3483 66.3329 8.5918 87 8.59155Z" fill="currentColor"/>
<path d="M56.1679 44.037C55.0027 31.519 64.6 18.2036 80.0972 15.1042C96.4056 11.7971 111.52 20.9444 115.995 33.5428C117.226 36.9638 117.733 40.5322 117.445 44.037C117.132 40.5389 116.271 37.1045 114.731 33.8946C108.65 20.6696 91.4896 12.3668 74.9631 18.9273C63.4554 23.5546 56.9337 33.8444 56.1679 44.0403V44.037Z" fill="currentColor"/>
<path d="M86.6066 25.2472C86.6066 25.2472 98.8295 43.4447 117.523 44.0402C115.036 27.985 102.231 15.7507 86.798 15.7507C71.3645 15.7507 58.5678 27.977 56.0725 44.0282C74.546 43.1969 86.6066 25.2472 86.6066 25.2472Z" fill="currentColor"/>
</svg>
