<svg width="174" height="240" viewBox="0 0 174 240" fill="none" xmlns="http://www.w3.org/2000/svg">
<rect width="174" height="240" fill="none"/>
<path d="M56.1449 69.0492C56.1449 69.0492 56.2126 74.9551 58.9724 77.8278C58.9724 77.8278 58.4148 78.1748 59.1635 79.168C59.1635 79.168 57.6343 82.4306 58.8251 84.3261C60.0158 86.2217 61.2543 86.4459 62.4808 85.1216C63.7074 83.7974 65.3322 79.3389 64.7189 75.9376C64.1056 72.5362 55.3545 64.9878 55.3545 64.9878L56.141 69.0599L56.1449 69.0492Z" fill="currentColor"/>
<path d="M60.7843 75.8788C62.0825 75.6225 62.4728 74.4531 62.4728 74.4531L64.4759 75.0565C64.5795 75.3395 64.663 75.6333 64.7188 75.9377C64.7706 76.226 64.8064 76.5195 64.8263 76.8132L64.8105 76.9788C64.8105 76.9788 63.8985 80.0652 62.1104 81.6565C61.0033 81.1332 59.9878 80.3161 59.1157 79.2695C59.1435 79.2054 59.1594 79.1733 59.1594 79.1733C58.4107 78.1908 58.9683 77.8332 58.9683 77.8332C57.9767 76.8026 57.3355 75.3822 56.9174 73.9885C57.3674 74.3516 59.6134 76.1192 60.7803 75.8843L60.7843 75.8788Z" fill="currentColor"/>
<path d="M60.5992 106.672C60.5039 106.64 60.4185 106.587 60.3382 106.517C59.751 105.941 57.8791 104.926 58.9681 96.105C58.9681 96.105 55.6457 92.5061 57.9393 86.6379C57.9393 86.6379 56.1325 82.7611 58.5917 81.1165H58.677C58.7021 81.1859 58.7222 81.2502 58.7473 81.3196C58.8577 81.5972 59.0384 81.8428 59.2592 82.035C59.5654 82.2913 59.9718 82.5744 60.4235 82.6438C60.9204 82.7239 61.3772 82.7826 61.9041 82.6438C62.2404 82.5584 62.5766 82.446 62.8978 82.3072C63.4398 82.0776 63.8765 81.6346 64.1274 81.074H64.2378C64.2378 81.074 64.7799 83.8665 63.9317 86.2053C63.9317 86.2053 66.8375 89.7615 63.9617 95.8967C63.9617 95.8967 67.5601 101.776 65.8186 105.215C65.8186 105.215 65.623 105.722 64.8651 106.149C65.9442 107.297 68.3231 110.453 67.2842 115.237C67.2842 115.237 66.7672 117.811 67.3243 119.445C67.3243 119.445 64.8852 118.494 63.8262 114.682C63.8262 114.682 64.4988 117.853 65.4975 119.092C65.4975 119.092 57.588 112.343 60.5992 106.672Z" fill="currentColor"/>
<g style="mix-blend-mode:multiply" opacity="0.3">
<path d="M61.9067 97.82C61.9067 97.82 60.3994 97.5423 58.9265 96.0846V96.047C58.9265 96.047 56.9971 93.9114 57.1395 90.243C57.9987 91.5619 59.3439 93.1744 60.9248 93.4948C60.9248 93.4948 63.6152 91.044 64.6954 88.1072C65.1765 89.7518 65.3778 92.3842 63.8018 95.8283L63.8263 95.8708C63.4532 96.4688 62.8543 97.1472 61.9067 97.8093V97.82Z" fill="currentColor"/>
</g>
<g style="mix-blend-mode:multiply" opacity="0.3">
<path d="M60.2623 106.465C59.8057 106.006 58.5538 105.269 58.598 100.57C59.8057 103.907 61.1215 106.091 62.398 105.21C63.429 104.5 64.2833 100.345 64.7448 97.6917C65.6482 99.7047 66.7234 102.941 65.6188 105.162C65.6188 105.162 65.2014 106.278 63.2031 106.588C63.1982 106.588 60.8318 107.047 60.2623 106.47V106.465Z" fill="currentColor"/>
</g>
<g style="mix-blend-mode:multiply" opacity="0.3">
<path d="M57.9002 86.6484C57.9002 86.6484 57.9149 86.6059 57.9247 86.5845C57.9247 86.5845 56.933 84.4167 57.4436 82.6332C58.2046 83.9094 59.383 85.4258 60.5564 85.0947C61.9212 84.7049 63.3204 83.3487 64.2091 82.0779C64.2876 83.0871 64.2925 84.6516 63.8065 86.0719C63.0651 87.0064 61.8967 87.9782 60.0752 88.9073C60.0752 88.9073 58.887 88.4266 57.9051 86.6539L57.9002 86.6484Z" fill="currentColor"/>
</g>
<path d="M118.936 69.0492C118.936 69.0492 118.868 74.9551 116.108 77.8278C116.108 77.8278 116.666 78.1748 115.917 79.168C115.917 79.168 117.446 82.4306 116.256 84.3261C115.065 86.2217 113.826 86.4459 112.6 85.1216C111.373 83.7974 109.748 79.3389 110.362 75.9376C110.975 72.5362 119.726 64.9878 119.726 64.9878L118.94 69.0599L118.936 69.0492Z" fill="currentColor"/>
<path d="M114.296 75.8788C112.998 75.6225 112.608 74.4531 112.608 74.4531L110.605 75.0565C110.501 75.3395 110.418 75.6333 110.362 75.9377C110.31 76.226 110.274 76.5195 110.254 76.8132L110.27 76.9788C110.27 76.9788 111.182 80.0652 112.97 81.6565C114.077 81.1332 115.093 80.3161 115.965 79.2695C115.937 79.2054 115.921 79.1733 115.921 79.1733C116.67 78.1908 116.112 77.8332 116.112 77.8332C117.104 76.8026 117.745 75.3822 118.163 73.9885C117.713 74.3516 115.467 76.1192 114.3 75.8843L114.296 75.8788Z" fill="currentColor"/>
<path d="M114.481 106.672C114.577 106.64 114.662 106.587 114.742 106.517C115.33 105.941 117.202 104.926 116.112 96.105C116.112 96.105 119.435 92.5061 117.141 86.6379C117.141 86.6379 118.948 82.7611 116.489 81.1165H116.404C116.379 81.1859 116.358 81.2502 116.333 81.3196C116.223 81.5972 116.042 81.8428 115.821 82.035C115.515 82.2913 115.109 82.5744 114.657 82.6438C114.16 82.7239 113.703 82.7826 113.176 82.6438C112.84 82.5584 112.504 82.446 112.183 82.3072C111.641 82.0776 111.204 81.6346 110.953 81.074H110.843C110.843 81.074 110.301 83.8665 111.149 86.2053C111.149 86.2053 108.243 89.7615 111.119 95.8967C111.119 95.8967 107.52 101.776 109.262 105.215C109.262 105.215 109.458 105.722 110.215 106.149C109.136 107.297 106.758 110.453 107.796 115.237C107.796 115.237 108.313 117.811 107.756 119.445C107.756 119.445 110.195 118.494 111.254 114.682C111.254 114.682 110.582 117.853 109.583 119.092C109.583 119.092 117.493 112.343 114.481 106.672Z" fill="currentColor"/>
<g style="mix-blend-mode:multiply" opacity="0.3">
<path d="M113.174 97.82C113.174 97.82 114.681 97.5423 116.154 96.0846V96.047C116.154 96.047 118.083 93.9114 117.941 90.243C117.082 91.5619 115.737 93.1744 114.156 93.4948C114.156 93.4948 111.465 91.044 110.385 88.1072C109.904 89.7518 109.703 92.3842 111.279 95.8283L111.254 95.8708C111.627 96.4688 112.226 97.1472 113.174 97.8093V97.82Z" fill="currentColor"/>
</g>
<g style="mix-blend-mode:multiply" opacity="0.3">
<path d="M114.818 106.465C115.275 106.006 116.527 105.269 116.483 100.57C115.275 103.907 113.959 106.091 112.683 105.21C111.652 104.5 110.797 100.345 110.336 97.6917C109.432 99.7047 108.357 102.941 109.462 105.162C109.462 105.162 109.879 106.278 111.877 106.588C111.882 106.588 114.249 107.047 114.818 106.47V106.465Z" fill="currentColor"/>
</g>
<g style="mix-blend-mode:multiply" opacity="0.3">
<path d="M117.18 86.6484C117.18 86.6484 117.166 86.6059 117.156 86.5845C117.156 86.5845 118.148 84.4167 117.637 82.6332C116.876 83.9094 115.698 85.4258 114.524 85.0947C113.159 84.7049 111.76 83.3487 110.872 82.0779C110.793 83.0871 110.788 84.6516 111.274 86.0719C112.015 87.0064 113.184 87.9782 115.005 88.9073C115.005 88.9073 116.194 88.4266 117.176 86.6539L117.18 86.6484Z" fill="currentColor"/>
</g>
<path d="M58.0352 70.918C58.0352 70.918 53.4529 62.2839 52.967 56.3302C52.4597 50.1095 52.3902 40.5782 61.7186 29.3435C71.0523 18.1036 85.4266 14.6329 100.015 19.6148C126.419 28.6335 122.751 62.8925 117.401 71.0408C115.847 58.5353 116.819 54.568 115.574 49.7463C114.362 45.0688 102.455 24.933 86.6388 25.9369C70.8228 26.9407 61.7026 44.6577 59.9832 49.5221C59.0327 52.2133 54.3586 57.3766 58.294 70.918L58.0352 70.918Z" fill="currentColor"/>
<path d="M103.608 27.2504C103.608 27.2504 97.9105 49.9492 55.4443 51.9515C55.4443 51.9515 55.6899 30.0644 75.7189 26.316C75.7189 26.316 95.2727 22.4501 103.613 27.2504H103.608Z" fill="currentColor"/>
<path d="M92.6028 25.8355C92.6028 25.8355 97.0721 40.9146 116.786 47.8988L117.934 40.4233C117.934 40.4233 117.763 25.0132 92.6028 25.8355Z" fill="currentColor"/>
</svg>
