<svg width="174" height="240" viewBox="0 0 174 240" fill="none" xmlns="http://www.w3.org/2000/svg">
<rect width="174" height="240" fill="none"/>
<path d="M74.0027 13.1734C74.0027 19.3844 79.3207 24.423 85.8888 24.423C92.4568 24.423 97.7748 19.3844 97.7748 13.1734C97.7748 6.96246 92.4568 1.92383 85.8888 1.92383C79.3207 1.92383 74.0027 6.96246 74.0027 13.1734Z" fill="currentColor"/>
<path d="M70.9084 28.1513C70.9084 28.1513 76.3908 48.6558 117.29 50.4604C117.29 50.4604 117.055 30.6963 97.7672 27.308C97.7672 27.308 78.9348 23.8118 70.9084 28.1513Z" fill="currentColor"/>
<path d="M80.288 26.8705C80.288 26.8705 75.9788 40.4852 56.9983 46.7939L55.8908 40.0429C55.8908 40.0429 56.0443 26.1249 80.288 26.8705Z" fill="currentColor"/>
<path d="M84.1692 21.3167C103.304 19.9716 119.836 31.6054 121.331 50.303C122.19 61.0847 117.796 71.0502 110.252 77.8147C115.198 72.5637 118.201 65.6664 118.201 58.1096C118.201 41.6618 103.983 28.3284 86.4445 28.3284C68.906 28.3285 54.6887 41.6619 54.6887 58.1096C54.6887 63.6096 56.2798 68.7604 59.052 73.1819C55.1109 68.1309 52.5615 61.9558 52.0188 55.1702V55.1643C50.5291 36.4719 65.0345 22.6618 84.1692 21.3167Z" fill="currentColor"/>
</svg>
