<svg width="174" height="240" viewBox="0 0 174 240" fill="none" xmlns="http://www.w3.org/2000/svg">
<rect width="174" height="240" fill="none"/>
<path d="M103.811 18.7989C101.724 18.3762 99.5989 18.1596 97.4683 18.1488C89.5491 18.1109 81.6463 21.1182 75.7437 26.4069C70.7704 25.5453 65.2374 27.4041 61.5414 30.9263C57.84 34.4485 55.7747 39.4338 54.8887 44.4624C54.568 46.359 54.3561 48.277 54.2745 50.2061C52.8994 40.6853 51.807 21.7738 74.6023 20.9556C82.2497 13.7811 94.7724 13.4615 103.811 18.8045V18.7989Z" fill="currentColor"/>
<path d="M72.0162 34.2778C72.0162 34.2778 74.9944 41.1326 87.3033 43.2895C93.2926 44.3377 99.4911 46.4123 101.159 48.1136C103.251 50.2266 103.934 53.0201 105.767 55.3635C107.347 57.3667 108.97 58.7059 111.216 60.0285C115.213 62.372 117.085 67.5693 115.433 71.7843C120.448 64.6276 121.252 55.3526 119.38 46.9447C117.993 40.6991 115.152 34.7113 110.738 29.9366C106.323 25.1618 100.289 21.6605 93.722 20.6452C88.074 19.7726 82.1893 20.7385 76.8936 22.8405C68.1353 26.3255 60.2036 31.4621 56.108 39.6395C52.0123 47.8115 53.0027 56.8815 55.6616 65.5639C58.7884 40.2961 72.0107 34.2722 72.0107 34.2722L72.0162 34.2778Z" fill="currentColor"/>
<path d="M53.4258 64.5896C54.145 64.9392 54.9076 65.2137 55.7041 65.4001C59.3849 76.9136 69.2575 85.6573 81.4073 87.7185V91.3542H79.5811C79.581 91.3568 79.5812 91.3595 79.5811 91.3621H74.709C73.411 91.3624 72.2532 91.9827 71.5215 92.947C69.6531 91.4441 67.7747 89.9421 65.7442 88.739C60.4395 85.5856 53.7705 86.9776 50.5801 82.323C45.4501 74.8048 50.8326 73.8054 53.4258 64.5896ZM117.874 66.2361C119.055 69.3149 121.159 72.0515 122.738 74.9861C124.657 78.557 125.679 83.2225 123.272 86.49C120.086 90.8088 113.547 89.8389 108.28 90.863C106.213 91.265 104.266 92.0243 102.372 92.9314C101.639 91.976 100.487 91.3621 99.1963 91.3621H94.3829C94.3828 91.3595 94.383 91.3568 94.3829 91.3542H92.5108V87.7078C104.338 85.6793 113.997 77.317 117.874 66.2361ZM74.751 20.9558C82.3929 13.7759 94.9158 13.4615 103.96 18.8044C104.906 19.3571 105.819 19.9801 106.678 20.6628C113.763 26.2495 117.676 35.0662 118.335 44.1062C118.109 44.0516 117.881 44.0011 117.649 43.9607C113.005 31.5078 101.005 22.6394 86.9297 22.6394V22.6335C72.8441 22.6339 60.8362 31.5187 56.1993 43.988C55.3868 44.1389 54.6061 44.3803 53.8672 44.7C53.3656 34.8036 55.8125 21.6356 74.751 20.9558Z" fill="currentColor"/>
</svg>
