<svg width="174" height="240" viewBox="0 0 174 240" fill="none" xmlns="http://www.w3.org/2000/svg">
<rect width="174" height="240" fill="none"/>
<path d="M58.5803 92.7797C59.8801 87.2425 56.445 81.7 50.9077 80.4002C45.3705 79.1004 39.828 82.5356 38.5282 88.0728C37.2285 93.61 40.6636 99.1525 46.2009 100.452C51.7381 101.752 57.2806 98.3169 58.5803 92.7797Z" fill="currentColor"/>
<path d="M126.876 100.393C132.564 100.393 137.175 95.7822 137.175 90.0945C137.175 84.4067 132.564 79.7959 126.876 79.7959C121.188 79.7959 116.578 84.4067 116.578 90.0945C116.578 95.7822 121.188 100.393 126.876 100.393Z" fill="currentColor"/>
<path d="M112.18 36.1767C113.491 30.642 110.066 25.0929 104.532 23.7825C98.9968 22.4721 93.4477 25.8966 92.1373 31.4314C90.8269 36.9661 94.2514 42.5152 99.7862 43.8256C105.321 45.136 110.87 41.7114 112.18 36.1767Z" fill="currentColor"/>
<path d="M102.159 44.069C96.4717 44.069 91.8601 39.4573 91.8601 33.7704C91.8601 30.53 93.3901 27.4775 95.9809 25.5361C92.5673 30.09 93.4911 36.5419 98.045 39.9555C99.8275 41.2907 101.993 42.0195 104.223 42.0195C106.453 42.0195 108.618 41.3051 110.4 39.9555C108.466 42.5609 105.406 44.0836 102.166 44.0764L102.159 44.069Z" fill="currentColor"/>
<path d="M88.9693 33.7709C94.1922 33.7709 98.4263 29.5372 98.4263 24.3142C98.4263 19.0913 94.1922 14.8572 88.9693 14.8572C83.7464 14.8572 79.5124 19.0913 79.5124 24.3142C79.5124 29.5372 83.7464 33.7709 88.9693 33.7709Z" fill="currentColor"/>
<path d="M87.7468 33.7704C83.1929 33.7704 79.5123 30.0828 79.5051 25.5361C79.5051 22.837 80.8258 20.3108 83.0414 18.7664C80.4433 22.5047 81.3671 27.6361 85.1055 30.2342C86.4911 31.194 88.1294 31.7064 89.8109 31.7064C91.4924 31.7064 93.1378 31.194 94.5163 30.2342C92.9791 32.4497 90.4459 33.7632 87.754 33.7704H87.7468Z" fill="currentColor"/>
<path d="M125.087 48.8838C129.204 52.4581 131.815 57.7234 131.832 63.6035C131.864 74.4085 123.131 83.1934 112.326 83.2256C110.07 83.2323 107.902 82.855 105.883 82.1582C105.653 82.2945 105.421 82.4272 105.187 82.5586C111.261 78.4871 115.898 72.4403 118.176 65.3359C123.07 64.244 126.732 59.8749 126.732 54.6523C126.732 52.5351 126.129 50.5589 125.087 48.8838ZM47.7109 51.6455C47.4371 52.6029 47.289 53.614 47.289 54.6592C47.2893 59.8414 50.8956 64.1773 55.7334 65.3096C57.9878 72.3611 62.5653 78.3732 68.5654 82.4482C66.8508 82.9394 65.0404 83.2051 63.168 83.2051C52.3629 83.205 43.6036 74.4457 43.6035 63.6406C43.6035 59.1204 45.1366 54.9582 47.7109 51.6455ZM87.0107 13.1729C106.523 13.1729 122.509 28.2489 123.969 47.3877C122.361 45.5786 120.165 44.3043 117.679 43.8701C113.034 31.4171 101.034 22.5488 86.959 22.5488V22.543C72.8732 22.5432 60.8654 31.428 56.2285 43.8975C53.7866 44.351 51.6296 45.6156 50.0459 47.4004C51.4991 28.2553 67.4936 13.1729 87.0107 13.1729Z" fill="currentColor"/>
</svg>
