<svg width="174" height="240" viewBox="0 0 174 240" fill="none" xmlns="http://www.w3.org/2000/svg">
<rect width="174" height="240" fill="none"/>
<path d="M101.62 38.144C107.243 37.2354 111.064 31.9411 110.155 26.3189C109.247 20.6966 103.952 16.8755 98.3301 17.7841C92.7078 18.6926 88.8867 23.9869 89.7952 29.6092C90.7038 35.2314 95.9981 39.0526 101.62 38.144Z" fill="currentColor"/>
<path d="M99.9699 38.2689C94.2757 38.2689 89.6579 33.651 89.6579 27.9569C89.6579 24.7117 91.1843 21.6533 93.787 19.7095C90.3662 24.267 91.2941 30.7299 95.8461 34.1452C97.6307 35.485 99.7996 36.2043 102.034 36.2043C104.264 36.2098 106.438 35.485 108.223 34.1452C106.284 36.7534 103.221 38.2799 99.9754 38.2744L99.9699 38.2689Z" fill="currentColor"/>
<path d="M85.5338 27.9515C90.0888 27.9515 93.7812 24.2591 93.7812 19.7042C93.7812 15.1493 90.0888 11.4568 85.5338 11.4568C80.9789 11.4568 77.2864 15.1493 77.2864 19.7042C77.2864 24.2591 80.9789 27.9515 85.5338 27.9515Z" fill="currentColor"/>
<path d="M85.5341 27.9517C80.9766 27.9517 77.2867 24.2619 77.2812 19.7044C77.2812 17.0028 78.6045 14.4714 80.8173 12.9285C78.2146 16.6678 79.1426 21.8073 82.8764 24.41C84.2602 25.3709 85.902 25.8871 87.5932 25.8871C89.2844 25.8871 90.9207 25.3764 92.3044 24.41C90.7615 26.6229 88.2302 27.9462 85.5341 27.9462V27.9517Z" fill="currentColor"/>
<path d="M85.5342 7.32715C105.185 7.32718 121.265 22.5952 122.569 41.915C127.571 45.4659 130.835 51.3046 130.835 57.9053C130.835 60.7451 130.229 63.4437 129.143 65.8799C134.551 69.3682 138.132 75.447 138.132 82.3613C138.132 93.1842 129.358 101.958 118.535 101.958C110.328 101.958 103.3 96.9122 100.382 89.7539H92.5137V87.5947C92.7485 87.6477 97.0658 86.275 99.2158 85.668V85.665C108.188 82.0418 115.189 74.5619 118.165 65.2803C123.06 64.1882 126.722 59.8193 126.722 54.5967C126.721 49.199 122.81 44.7126 117.668 43.8145C113.023 31.3618 101.023 22.4932 86.9482 22.4932V22.4873C72.8627 22.4875 60.8549 31.3727 56.2178 43.8418C51.1328 44.7862 47.2787 49.246 47.2783 54.6035C47.2784 59.7858 50.8848 64.1216 55.7227 65.2539C58.7044 74.5809 65.75 82.0902 74.7773 85.7021C74.7765 85.7071 74.7753 85.7119 74.7744 85.7168C76.9717 86.3546 81.0847 87.7632 81.3145 87.7119V89.7539H73.6172C70.6993 96.912 63.6729 101.958 55.4658 101.958C44.6428 101.958 35.8685 93.1843 35.8682 82.3613C35.8683 75.7526 39.1397 69.907 44.1514 66.3574C42.9113 63.7859 42.2159 60.9016 42.2158 57.8555C42.2159 52.2117 44.6029 47.1256 48.4209 43.5498C48.9 23.4634 65.3326 7.32715 85.5342 7.32715Z" fill="currentColor"/>
</svg>
