<svg width="174" height="240" viewBox="0 0 174 240" fill="none" xmlns="http://www.w3.org/2000/svg">
<rect width="174" height="240" fill="none"/>
<path d="M58.8854 46.3343C59.5979 45.3824 60.5053 44.6139 61.1511 43.6063C62.0975 42.1311 62.437 40.2105 63.5727 38.9079C65.0368 37.2322 67.386 37.032 69.212 35.8629C70.7707 34.8609 71.9287 33.1518 73.5876 32.3725C76.5603 30.9752 80.0062 32.9904 83.1738 32.3002C84.9719 31.9105 86.642 30.6523 88.4679 30.8304C90.5221 31.0253 92.0919 32.9624 94.0626 33.6416C96.3451 34.4265 99.006 33.4746 101.099 34.7438C101.767 35.1446 102.318 35.746 103.003 36.119C103.844 36.5699 104.823 36.6367 105.659 37.1155C107.301 38.0563 107.93 40.294 109.288 41.6802C110.112 42.5319 111.192 43.0386 111.983 43.9238C112.617 44.6363 113.04 45.5438 113.447 46.44C114.298 48.3105 114.607 50.4489 115.464 52.3194C115.854 53.1711 116.865 64.0758 117.711 64.2484C119.03 64.5156 119.854 54.2057 119.899 52.7194C120.004 48.5609 117.471 38.574 111.454 31.8492C106.315 26.1042 98.2267 22.5357 87.9168 22.0848C59.8262 20.8545 53.7861 43.7733 53.6525 49.3235C53.6246 50.5037 54.7937 64.0482 55.9572 63.7643C56.8535 63.5416 58.1116 47.364 58.8798 46.3397L58.8854 46.3343Z" fill="currentColor"/>
<path fill-rule="evenodd" clip-rule="evenodd" d="M93.7289 10.2513C95.0705 8.08573 97.6982 6.79429 100.237 7.05594C102.775 7.31773 105.08 9.12076 105.959 11.5032C110.296 9.12092 116.559 12.2721 117.244 17.1653C119.298 15.9407 122.131 16.208 123.918 17.8001C125.705 19.3922 126.306 22.1698 125.332 24.3518C127.832 24.0849 130.426 25.5543 131.478 27.8421C132.53 30.13 131.962 33.0584 130.125 34.7786C132.797 34.3781 135.286 36.7663 135.809 39.4104C136.332 42.0602 135.346 44.7774 134.033 47.1321C137.122 47.9282 138.498 51.8639 137.619 54.9368C136.733 58.004 134.289 60.3363 131.868 62.4182C134.439 63.8211 134.779 67.6072 133.365 70.1624C131.951 72.7229 129.318 74.3369 126.807 75.8343C127.308 80.5995 121.58 84.7753 117.199 82.8382C116.987 84.9477 114.271 85.7548 112.166 85.471C109.632 85.1224 107.347 83.9696 105.208 82.5266C111.266 78.4553 115.891 72.4172 118.164 65.3255C123.059 64.2333 126.721 59.8645 126.721 54.6419C126.721 49.244 122.809 44.7579 117.667 43.8596C113.023 31.4068 101.023 22.5385 86.9476 22.5384V22.5325C72.862 22.5327 60.8542 31.4177 56.2172 43.887C51.132 44.8314 47.2778 49.2909 47.2777 54.6487C47.2778 59.8311 50.8841 64.1668 55.7221 65.2991C58.6613 74.4933 65.5493 81.9206 74.392 85.5901C74.2478 85.7194 74.1021 85.8467 73.9506 85.9671C72.1135 87.4256 69.5466 88.0429 67.5648 86.8294C65.7222 88.8446 63.4958 90.654 60.9183 90.9602C58.3409 91.2664 55.4345 89.5684 54.9613 86.7571C51.2204 89.1563 45.748 87.0802 44.1224 82.6546C43.6827 81.4521 43.4996 80.1379 42.9096 79.0022C42.3195 77.8667 41.3675 77.0201 40.6049 76.0237C37.9608 72.5834 37.7769 67.1341 40.1762 63.4934C35.5779 60.6989 34.6874 52.6375 38.5453 48.7073C35.222 44.716 37.8487 38.3699 40.5541 33.844C43.3542 29.1567 46.9178 23.9685 52.0004 23.7346C52.3622 20.1607 55.8584 17.3822 59.0482 18.1282C60.0835 18.3676 61.0688 18.9194 62.1264 18.886C63.3455 18.847 64.4146 18.0446 65.4945 17.4212L65.4887 17.427C69.4888 15.1276 74.3737 15.9366 78.8305 18.0491C79.3214 17.8724 79.8261 17.7331 80.3402 17.6331C80.3792 14.5436 82.1828 11.5372 84.8881 10.0452C87.5936 8.55328 91.1013 8.63685 93.7289 10.2513Z" fill="currentColor"/>
</svg>
