<svg width="174" height="240" viewBox="0 0 174 240" fill="none" xmlns="http://www.w3.org/2000/svg">
<rect width="174" height="240" fill="none"/>
<path d="M68.4668 149.856C68.3721 149.861 68.2808 149.863 68.1943 149.858C67.9983 149.849 67.7658 149.813 67.5684 149.689C67.3349 149.544 67.1373 149.303 66.9785 149.072C66.8119 148.83 66.6528 148.544 66.5098 148.257C66.4001 148.037 66.2974 147.808 66.2041 147.589L63.6924 147.596L61.7822 148.028L61.5283 148.086L61.3359 147.911C60.8658 147.485 60.2395 146.729 59.8643 145.814C59.5166 144.967 59.3704 143.938 59.8213 142.921C59.5295 142.42 59.1942 141.696 58.9824 140.885C58.8435 140.353 58.7525 139.764 58.7705 139.168L70.1514 107.977L68.4668 149.856ZM116.069 141.318C115.85 142.026 115.418 142.692 114.657 143.156C114.79 143.866 114.888 144.802 114.809 145.654C114.761 146.159 114.649 146.673 114.417 147.1C114.178 147.538 113.801 147.899 113.249 148.028L113.177 148.045L113.104 148.04C112.475 148.002 111.474 147.902 110.505 147.728C110.1 147.655 109.694 147.567 109.32 147.464L108.362 147.466C108.214 147.784 108.049 148.125 107.877 148.436C107.713 148.731 107.538 149.017 107.365 149.239C107.28 149.35 107.184 149.459 107.081 149.547C106.987 149.627 106.835 149.734 106.638 149.761C106.495 149.78 106.298 149.761 106.127 149.741C105.956 149.721 105.747 149.69 105.516 149.653L103.789 107.662L116.069 141.318ZM87.1426 10.5498C87.8854 10.4279 88.9686 10.3173 89.9336 10.375C90.4363 10.4051 90.9417 10.4826 91.3574 10.6465C91.6576 10.765 91.9607 10.9515 92.1572 11.2393C92.8845 11.2571 93.8552 11.3346 94.7197 11.5293C95.2152 11.6409 95.7054 11.7965 96.0996 12.0166C96.3581 12.161 96.6134 12.3576 96.7871 12.6182C97.5144 12.5467 98.4641 12.5328 99.2998 12.6963C99.7912 12.7925 100.287 12.9586 100.675 13.2461C100.967 13.4629 101.195 13.7509 101.31 14.1113C102.005 14.1771 102.899 14.3294 103.689 14.6104C104.164 14.7789 104.631 15.0035 104.996 15.3066C105.255 15.5215 105.475 15.7904 105.602 16.1143C106.258 16.1438 107.1 16.2486 107.847 16.4883C108.299 16.6334 108.749 16.8375 109.103 17.1289C109.366 17.3458 109.584 17.6216 109.702 17.958C110.341 18.0671 111.161 18.2882 111.875 18.6602C112.601 19.0387 113.336 19.6417 113.514 20.5361C114.156 20.6914 114.948 21.0068 115.573 21.5479C115.956 21.8798 116.289 22.3062 116.473 22.8398C116.604 23.2208 116.651 23.6406 116.604 24.0967C117.24 24.1887 117.981 24.4227 118.561 24.8984C118.955 25.2223 119.277 25.662 119.426 26.2354C119.546 26.7008 119.542 27.2276 119.404 27.8174C119.909 28.1102 120.5 28.5613 120.954 29.1514C121.472 29.8242 121.829 30.7077 121.634 31.7295C122.11 32.0394 122.65 32.5166 123.005 33.1377C123.405 33.8379 123.56 34.7099 123.16 35.6621C123.629 35.9515 124.151 36.3675 124.506 36.877C124.746 37.2218 124.929 37.6374 124.938 38.1025C124.944 38.4263 124.862 38.7462 124.694 39.0566C125.225 39.4974 125.827 40.1231 126.223 40.8418C126.652 41.6214 126.865 42.5789 126.396 43.499C127.047 43.931 127.778 44.5932 128.229 45.4453C128.515 45.9837 128.693 46.6065 128.66 47.291C128.632 47.8597 128.457 48.4475 128.107 49.0459C128.698 49.6209 129.342 50.4744 129.634 51.4668C129.81 52.065 129.861 52.7243 129.685 53.3994C129.541 53.9467 129.25 54.4806 128.792 54.9883C129.302 55.5777 129.847 56.4103 130.105 57.3379C130.405 58.4129 130.319 59.6318 129.359 60.6846C129.662 61.2634 129.994 62.0676 130.176 62.9307C130.378 63.8908 130.413 65.0017 129.935 65.9531C130.144 66.5023 130.356 67.3103 130.425 68.2197C130.499 69.2109 130.404 70.3564 129.917 71.4287C130.125 72.1099 130.353 73.0976 130.425 74.0762C130.464 74.6141 130.457 75.1673 130.366 75.6729C130.296 76.0629 130.169 76.4472 129.957 76.7773C130.244 77.4743 130.488 78.4634 130.406 79.4727C130.322 80.5052 129.892 81.5676 128.83 82.3223C129.142 82.807 129.42 83.4595 129.488 84.21C129.579 85.2019 129.301 86.3289 128.339 87.415C128.517 88.1012 128.648 89.0601 128.532 90.0156C128.413 91.0027 128.019 92.0446 127.088 92.7373C127.34 93.6053 127.575 94.7627 127.555 95.7705C127.543 96.3438 127.447 96.9322 127.169 97.3926C126.984 97.6978 126.726 97.9308 126.399 98.0664C126.621 98.668 126.802 99.4269 126.788 100.195C126.771 101.12 126.467 102.096 125.593 102.783C125.905 103.321 126.167 104.042 126.145 104.83C126.117 105.781 125.678 106.758 124.579 107.564C124.973 108.142 125.347 108.925 125.434 109.779C125.541 110.84 125.202 111.969 124.043 112.88C124.252 113.602 124.418 114.58 124.329 115.522C124.234 116.528 123.833 117.578 122.801 118.153C122.872 118.823 122.87 119.71 122.665 120.562C122.45 121.455 121.993 122.381 121.097 122.917C121.293 123.648 121.432 124.617 121.301 125.546C121.244 125.949 121.132 126.352 120.951 126.727L109.403 95.0752C108.496 92.5885 105.742 91.3049 103.254 92.208C103.152 92.2451 103.051 92.2859 102.953 92.3291C102.379 90.8168 100.917 89.749 99.2139 89.749H94.4014C94.4013 89.7465 94.4015 89.7437 94.4014 89.7412H92.5293V87.6201C104.66 85.5542 114.518 76.826 118.203 65.332C123.098 64.2399 126.76 59.8711 126.76 54.6484C126.759 49.2506 122.848 44.7644 117.706 43.8662C113.061 31.4134 101.061 22.545 86.9863 22.5449V22.5391C72.9008 22.5394 60.8929 31.4243 56.2559 43.8936C51.1708 44.8381 47.3166 49.2976 47.3164 54.6553C47.3164 59.8376 50.9229 64.1733 55.7607 65.3057C59.4376 76.8072 69.2934 85.5452 81.4258 87.6182V89.7412H79.5996C79.5995 89.7437 79.5997 89.7465 79.5996 89.749H74.7275C73.0407 89.7493 71.5895 90.796 71.0039 92.2852C70.9477 92.2623 70.8905 92.2396 70.833 92.2188C68.3609 91.322 65.6251 92.5969 64.7236 95.0674L53.6455 125.427C53.4783 124.657 53.4827 123.769 53.8076 122.793C52.9927 121.955 51.8241 120.166 52.1035 117.984C51.7472 117.463 51.3016 116.673 50.9834 115.785C50.6593 114.881 50.4458 113.816 50.6445 112.814C49.9284 111.871 49.0461 109.824 49.9834 107.487C49.69 107 49.352 106.292 49.1387 105.499C48.8981 104.605 48.8001 103.545 49.1621 102.563C49.0492 102.045 48.9387 101.527 48.8301 101.011C48.8131 100.991 48.7953 100.971 48.7773 100.95C48.5244 100.658 48.2312 100.277 48.0889 99.7119C47.9589 99.1957 47.9671 98.5731 48.168 97.7773C47.8683 97.2612 47.5156 96.4857 47.2959 95.6084C47.0677 94.6971 46.9704 93.6297 47.2686 92.6162C47.2674 92.6091 47.2667 92.6018 47.2656 92.5947C46.9254 92.0659 46.5307 91.2842 46.2734 90.3926C45.9929 89.42 45.864 88.271 46.1934 87.1631C45.7849 86.1441 45.2105 84.178 45.3857 82.3398C44.9107 81.7415 44.3444 80.8301 44.042 79.834C43.7332 78.8164 43.6773 77.6236 44.3877 76.6152C44.0741 75.5413 43.7431 73.3951 44.4004 71.4355C44.0934 70.828 43.7667 69.9258 43.6631 68.9492C43.5579 67.9571 43.6802 66.8362 44.3447 65.8818C44.043 65.3114 43.7598 64.5011 43.7227 63.6035C43.681 62.5918 43.9522 61.4647 44.8496 60.4746C44.6276 59.7937 44.4182 58.8367 44.4072 57.8564C44.3957 56.8181 44.6074 55.6657 45.3623 54.8184C45.2041 53.9809 45.0711 52.8059 45.1387 51.708C45.1762 51.0989 45.277 50.487 45.4854 49.9619C45.6566 49.5306 45.9137 49.1302 46.293 48.8516C46.3258 48.0663 46.447 46.978 46.7197 45.9648C46.8727 45.3967 47.0784 44.8335 47.3545 44.3555C47.5586 44.0022 47.8135 43.6741 48.1328 43.4307C48.0167 42.8588 47.9828 42.1022 48.1816 41.3311C48.4087 40.4507 48.9383 39.556 49.9658 38.918C49.879 38.4771 49.8543 37.9218 49.9922 37.3652C50.1599 36.6886 50.5687 36.0169 51.3613 35.5742C51.3177 35.1222 51.3255 34.5499 51.4551 33.9824C51.6099 33.3045 51.9538 32.5789 52.6484 32.1123C52.7556 31.5035 52.9811 30.6681 53.3545 29.8721C53.7346 29.0618 54.303 28.2202 55.125 27.748C55.2143 27.164 55.4254 26.3986 55.8184 25.7158C56.2314 24.9983 56.8807 24.3192 57.8389 24.1064C58.0334 23.5157 58.3862 22.7588 58.915 22.0869C59.4819 21.3668 60.2838 20.7077 61.3418 20.5049C61.6256 19.5428 62.501 18.1064 64.4121 17.9219C64.9465 17.0992 66.2817 16.02 68.5439 16.0908C68.891 15.625 69.4308 15.0593 70.1064 14.6309C70.8272 14.1739 71.7419 13.8514 72.748 14.0234C73.1368 13.5396 73.7407 12.9865 74.5068 12.6318C75.2647 12.2811 76.1824 12.1259 77.1797 12.4209C77.2791 11.9739 77.5604 11.528 78.127 11.2217C79.0014 10.7492 80.4609 10.6715 82.7617 11.248C82.8225 11.2633 82.883 11.2774 82.9414 11.292C83.5753 10.7374 85.085 10.0447 87.1426 10.5498Z" fill="currentColor"/>
</svg>
