<svg width="174" height="240" viewBox="0 0 174 240" fill="none" xmlns="http://www.w3.org/2000/svg">
<rect width="174" height="240" fill="none"/>
<path d="M87.0938 22.6489C96.4015 22.649 104.801 26.2286 110.784 31.9722C111.154 32.3195 111.51 32.69 111.861 33.0542C112.249 33.4633 112.625 33.8952 112.994 34.3267C113.327 34.7132 113.642 35.1108 113.957 35.5142C117.76 40.4789 119.995 46.5424 119.995 53.0874H119.982C119.982 53.4571 119.983 53.827 119.965 54.1968C119.92 55.3436 119.804 56.4736 119.627 57.5845C118.849 52.7866 116.861 48.3544 113.957 44.563C113.642 44.1595 113.327 43.7612 112.994 43.3745C112.625 42.9431 112.249 42.512 111.861 42.103C111.51 41.7389 111.154 41.3684 110.784 41.021C104.801 35.2774 96.4015 31.6969 87.0938 31.6968C84.8169 31.6968 82.5941 31.9098 80.4444 32.3188C77.4468 32.8848 74.5945 33.8376 71.9542 35.104C71.0579 35.5411 70.1914 36.0008 69.3497 36.4995C66.5641 38.1581 64.0689 40.1919 61.9434 42.5229C60.5264 44.0863 59.2669 45.7789 58.2071 47.5776C57.0141 49.5949 56.0638 51.7579 55.3917 54.0161C55.0395 55.1914 54.7592 56.4023 54.5606 57.6392C54.5285 57.4452 54.4988 57.2503 54.4708 57.0542C54.2891 55.7599 54.1983 54.4371 54.1983 53.0923C54.1983 51.6242 54.3133 50.1784 54.5313 48.772C54.7312 47.472 55.0223 46.2 55.3917 44.9673C56.0639 42.7091 57.0141 40.5461 58.2071 38.5288C59.2669 36.7301 60.5264 35.0375 61.9434 33.4741C64.0689 31.1431 66.5641 29.1093 69.3497 27.4507C70.1914 26.952 71.0579 26.4923 71.9542 26.0552C74.5944 24.7888 77.4468 23.836 80.4444 23.27C82.5941 22.861 84.8169 22.6489 87.0938 22.6489Z" fill="currentColor"/>
<path d="M68.8227 33.8722C66.9635 33.8722 65.4132 32.5161 65.3224 30.779C65.3224 30.7286 65.0499 26.2513 62.7729 21.3593C59.8782 15.145 55.1789 11.1385 48.8082 9.45746C46.943 8.96434 45.8651 7.17111 46.398 5.4452C46.9309 3.7249 48.8687 2.72187 50.7339 3.21498C59.1939 5.45081 65.6131 10.9143 69.3193 19.0115C72.0383 24.9513 72.3229 30.2579 72.3351 30.4764C72.4259 32.2696 70.924 33.7883 68.9862 33.8667H68.8227V33.8722Z" fill="currentColor"/>
<path d="M65.1291 37.2906C63.7423 37.2906 62.4282 36.5228 61.8772 35.262C61.8348 35.1724 59.8424 30.7343 55.8153 26.5428C50.6981 21.2194 44.7634 18.7372 38.1808 19.1462C36.249 19.2695 34.5715 17.919 34.4443 16.1258C34.3172 14.3327 35.7706 12.7861 37.7084 12.6684C46.5136 12.1137 54.6465 15.4759 61.2171 22.3907C66.0072 27.434 68.2903 32.6116 68.3872 32.8301C69.1139 34.4944 68.2418 36.3885 66.4433 37.0553C66.0133 37.2122 65.5712 37.2906 65.1352 37.2906H65.1291Z" fill="currentColor"/>
<path d="M34.62 38.9767C33.9115 38.9767 33.1909 38.775 32.5732 38.366C30.9987 37.3181 30.6414 35.2897 31.7738 33.8328C36.1945 28.1563 41.5358 25.0128 47.6643 24.4916C58.4255 23.5782 67.3275 31.3447 67.703 31.6753C69.1018 32.9137 69.1503 34.9702 67.812 36.2646C66.4737 37.5591 64.2572 37.6039 62.8583 36.3711C62.7675 36.2982 55.8215 30.3023 48.2699 30.9579C44.267 31.3109 40.6335 33.5525 37.4663 37.6207C36.782 38.5004 35.704 38.9712 34.614 38.9712L34.62 38.9767Z" fill="currentColor"/>
<path d="M45.7016 45.8136C44.993 45.8136 44.2724 45.612 43.6547 45.2029C42.0802 44.1551 41.7229 42.1264 42.8553 40.6694C49.0686 32.6843 54.9972 28.6387 60.4777 28.6387H60.6171C65.4738 28.7003 67.9204 31.8384 68.1808 32.197L62.3792 35.8503C62.3792 35.8503 62.3975 35.8784 62.4399 35.9288C62.3248 35.7943 61.6768 35.1053 60.4051 35.1389C59.0001 35.1669 55.0396 36.1307 48.5478 44.4688C47.8635 45.3486 46.7856 45.8191 45.6955 45.8191L45.7016 45.8136Z" fill="currentColor"/>
<path d="M105.176 32.5049H105.012C103.075 32.4208 101.579 30.9023 101.664 29.1148C101.676 28.8906 101.966 23.5894 104.679 17.6496C108.379 9.54679 114.805 4.08893 123.265 1.85309C125.124 1.35998 127.074 2.3574 127.601 4.08331C128.134 5.80922 127.05 7.60806 125.19 8.09557C109.694 12.1918 108.682 29.2379 108.676 29.4117C108.591 31.1544 107.041 32.5103 105.176 32.5103V32.5049Z" fill="currentColor"/>
<path d="M108.865 35.9233C108.429 35.9233 107.981 35.8449 107.551 35.688C105.758 35.0156 104.886 33.127 105.613 31.4683C105.71 31.2498 107.993 26.0665 112.783 21.0289C119.354 14.1141 127.48 10.7519 136.292 11.3066C138.223 11.4299 139.683 12.9764 139.556 14.764C139.422 16.5515 137.745 17.9077 135.819 17.7844C129.237 17.3697 123.302 19.8578 118.185 25.1813C114.133 29.3952 112.147 33.8554 112.123 33.9002C111.566 35.161 110.252 35.9288 108.871 35.9288L108.865 35.9233Z" fill="currentColor"/>
<path d="M139.38 37.6094C138.29 37.6094 137.212 37.1389 136.528 36.2591C133.36 32.1909 129.721 29.9438 125.724 29.5964C118.16 28.9351 111.208 34.942 111.136 35.0093C109.731 36.2364 107.514 36.1918 106.182 34.8973C104.85 33.6029 104.898 31.5519 106.297 30.3135C106.666 29.9829 115.581 22.2164 126.336 23.1298C132.464 23.6509 137.812 26.7945 142.226 32.4709C143.359 33.9279 143.001 35.9563 141.427 37.0042C140.809 37.4188 140.088 37.6151 139.38 37.6151V37.6094Z" fill="currentColor"/>
<path d="M128.297 44.446C127.207 44.446 126.129 43.9752 125.445 43.0954C118.85 34.6228 114.884 33.7431 113.473 33.7655C112.274 33.7823 111.626 34.4714 111.614 34.4826C110.523 35.962 108.343 36.3488 106.739 35.3401C105.14 34.3315 104.722 32.3084 105.812 30.8291C106.079 30.4704 108.519 27.3326 113.376 27.271H113.515C119.002 27.271 124.924 31.3166 131.137 39.3018C132.27 40.7587 131.913 42.7871 130.338 43.835C129.72 44.2496 129 44.446 128.291 44.446H128.297Z" fill="currentColor"/>
<path d="M60.8176 35.6596C59.3097 35.6596 58.1107 34.9983 57.3901 34.2362C56.409 33.194 55.755 31.356 56.8814 29.3331C57.1478 28.8568 57.5112 28.3582 57.9956 27.8091C58.7345 26.9741 59.7761 26.0045 60.9267 25.0743C62.0773 24.1441 63.2642 23.3204 64.2574 22.7601C64.9114 22.3902 65.4988 22.1214 66.0438 21.9477C68.3632 21.1968 70.2405 22.0429 71.2216 23.0851C72.2026 24.1274 72.8566 25.9654 71.7302 27.9883C71.4638 28.4646 71.1004 28.9634 70.616 29.5126C69.8772 30.3475 68.8355 31.3169 67.6849 32.2471C66.5343 33.1773 65.3474 34.0009 64.3542 34.5613C63.7002 34.9311 63.1128 35.2002 62.5678 35.3739C61.9501 35.5756 61.3627 35.6653 60.8116 35.6653L60.8176 35.6596Z" fill="#34B7DD"/>
<path d="M112.292 34.2587C113.8 34.2587 114.999 33.5974 115.72 32.8354C116.701 31.7931 117.355 29.9551 116.228 27.9322C115.962 27.4559 115.599 26.9573 115.114 26.4082C114.375 25.5732 113.334 24.6036 112.183 23.6734C111.032 22.7432 109.845 21.9196 108.852 21.3592C108.198 20.9894 107.611 20.7206 107.066 20.5468C104.746 19.796 102.869 20.642 101.888 21.6843C100.907 22.7265 100.253 24.5645 101.379 26.5874C101.646 27.0637 102.009 27.5625 102.494 28.1117C103.232 28.9466 104.274 29.916 105.425 30.8462C106.575 31.7764 107.762 32.6 108.755 33.1604C109.409 33.5302 109.997 33.7993 110.542 33.973C111.16 34.1748 111.747 34.2644 112.298 34.2644L112.292 34.2587Z" fill="#34B7DD"/>
</svg>
