<svg width="174" height="240" viewBox="0 0 174 240" fill="none" xmlns="http://www.w3.org/2000/svg">
<rect width="174" height="240" fill="none"/>
<path d="M44.9933 45.2975C45.5 43.4015 47.5055 42.2603 49.4726 42.7486C51.4396 43.237 52.6236 45.17 52.1169 47.066C52.1168 47.0667 52.1164 47.0676 52.1161 47.0689C52.115 47.0729 52.1132 47.0799 52.1105 47.0899C52.1052 47.1102 52.0967 47.1427 52.0853 47.1869C52.0624 47.2754 52.0274 47.4114 51.9821 47.5925C51.8915 47.9548 51.7591 48.498 51.5959 49.2043C51.2695 50.6172 50.8207 52.6815 50.3386 55.2576C49.3735 60.4149 48.2799 67.5974 47.7648 75.6957C46.7244 92.056 48.0952 111.466 56.9301 125.636C57.9763 127.314 57.4129 129.492 55.6719 130.501C53.9309 131.509 51.6714 130.966 50.625 129.288C40.6003 113.21 39.3597 91.9799 40.4229 75.262C40.9597 66.8214 42.0969 59.3556 43.0994 53.9991C43.6011 51.3183 44.0701 49.1592 44.4158 47.6631C44.5887 46.9149 44.7306 46.3317 44.8306 45.9317C44.8806 45.7318 44.9204 45.5776 44.9479 45.4712C44.9617 45.418 44.9724 45.3764 44.98 45.3474C44.9838 45.333 44.9868 45.3215 44.989 45.3132C44.9901 45.3091 44.9909 45.3058 44.9916 45.3032C44.9919 45.3019 44.9927 45.3002 44.9929 45.2995C44.9973 45.2994 45.1169 45.3282 48.5483 46.1801L44.9933 45.2975Z" fill="currentColor"/>
<path d="M53.0809 57.8481C54.1735 56.3349 56.3319 55.9619 57.9018 57.015C59.4717 58.0681 59.8587 60.1485 58.7662 61.6616C52.8371 69.873 51.1507 81.1665 52.5647 93.4645C53.9726 105.71 58.4139 118.524 64.171 129.317C65.0454 130.957 64.3756 132.969 62.6747 133.812C60.9737 134.655 58.8855 134.009 58.011 132.37C51.9357 120.98 47.1967 107.384 45.6807 94.1998C44.1708 81.0673 45.817 67.9082 53.0809 57.8481Z" fill="currentColor"/>
<path d="M124.527 42.7486C126.494 42.2603 128.5 43.4015 129.006 45.2975L125.451 46.1801C128.909 45.3216 129.004 45.299 129.007 45.2995C129.007 45.3002 129.007 45.3019 129.007 45.3033C129.008 45.3058 129.009 45.3091 129.01 45.3132C129.013 45.3215 129.016 45.333 129.019 45.3474C129.027 45.3764 129.038 45.418 129.052 45.4712C129.079 45.5776 129.118 45.7318 129.168 45.9317C129.268 46.3317 129.411 46.9149 129.584 47.6631C129.929 49.1592 130.398 51.3184 130.9 53.9991C131.903 59.3556 133.04 66.8214 133.577 75.262C134.64 91.9799 133.399 113.21 123.375 129.288C122.328 130.966 120.069 131.509 118.328 130.501C116.587 129.492 116.023 127.314 117.069 125.636C125.904 111.466 127.275 92.056 126.234 75.6957C125.719 67.5974 124.626 60.4149 123.661 55.2576C123.179 52.6815 122.73 50.6172 122.404 49.2043C122.24 48.498 122.108 47.9548 122.017 47.5925C121.972 47.4114 121.937 47.2754 121.914 47.1869C121.903 47.1427 121.894 47.1102 121.889 47.09C121.886 47.08 121.884 47.0729 121.883 47.0689C121.883 47.0677 121.883 47.0667 121.883 47.066L121.84 46.8882C121.451 45.0506 122.621 43.2217 124.527 42.7486Z" fill="currentColor"/>
<path d="M116.831 56.072C118.394 55.0105 120.555 55.372 121.656 56.8791C128.153 65.7695 129.236 80.1114 127.218 94.144C125.175 108.35 119.815 123.248 112.262 133.83C111.178 135.349 109.021 135.733 107.446 134.688C105.87 133.643 105.471 131.565 106.555 130.046C113.367 120.503 118.427 106.65 120.357 93.2275C122.312 79.6313 120.921 67.4667 115.993 60.7232C114.892 59.216 115.267 57.1336 116.831 56.072Z" fill="currentColor"/>
<path d="M53.2198 56.3053C54.7397 55.1862 56.913 55.4664 58.0741 56.9313L55.3274 58.954C57.9816 56.9996 58.0717 56.9343 58.0754 56.9329C58.0757 56.9334 58.0769 56.9341 58.0775 56.935C58.0789 56.9367 58.0802 56.9391 58.0822 56.9416C58.0862 56.9467 58.0919 56.9534 58.0985 56.9618C58.1116 56.9785 58.1297 57.0019 58.1529 57.0315C58.1993 57.0912 58.2657 57.1769 58.3507 57.2878C58.5206 57.5097 58.7652 57.8333 59.0746 58.2529C59.6933 59.092 60.5722 60.3168 61.6334 61.8862C63.7545 65.0233 66.6103 69.5464 69.576 75.1247C75.4916 86.2519 81.9229 101.726 83.7226 118.86C83.9152 120.694 82.5286 122.331 80.6257 122.517C78.7228 122.702 77.0241 121.366 76.8314 119.532C75.1495 103.519 69.1034 88.8742 63.4121 78.1691C60.5743 72.8312 57.8442 68.5097 55.8304 65.5314C54.824 64.043 53.998 62.8921 53.4287 62.1201C53.1443 61.7343 52.9239 61.4435 52.7776 61.2524C52.7044 61.1568 52.6499 61.086 52.6149 61.0411C52.5975 61.0187 52.5847 61.0028 52.5773 60.9932C52.5735 60.9885 52.5712 60.9852 52.57 60.9837L52.5695 60.9833L52.57 60.9829C51.4097 59.518 51.7003 57.4243 53.2198 56.3053Z" fill="currentColor"/>
<path d="M53.925 55.9032C55.675 55.1594 57.7194 55.924 58.4912 57.6107L55.3224 58.9575C58.4911 57.6105 58.4916 57.6114 58.492 57.6123C58.4923 57.6129 58.4925 57.6139 58.4929 57.6148C58.4938 57.6168 58.495 57.6193 58.4963 57.6223C58.499 57.6282 58.5029 57.6361 58.5074 57.6462C58.5166 57.6663 58.5292 57.6948 58.5455 57.7312C58.5782 57.804 58.6251 57.9092 58.6851 58.0456C58.8051 58.3186 58.9774 58.7169 59.1937 59.2315C59.6262 60.2607 60.2347 61.7568 60.9498 63.6508C62.3791 67.4369 64.2389 72.8244 65.974 79.2599C69.4319 92.0856 72.4519 109.284 70.4258 126.331C70.2082 128.163 68.4915 129.478 66.5913 129.268C64.6911 129.058 63.3269 127.403 63.5445 125.572C65.4341 109.672 62.6228 93.3734 59.2703 80.9389C57.6002 74.7443 55.8102 69.5608 54.4409 65.9335C53.7566 64.1209 53.1784 62.6997 52.7743 61.7383C52.5723 61.2576 52.414 60.892 52.3077 60.6501C52.2545 60.5292 52.2142 60.4391 52.1882 60.3811C52.1752 60.3522 52.1658 60.3312 52.16 60.3184C52.1571 60.312 52.155 60.3075 52.154 60.3052L52.1531 60.3035C52.1531 60.3036 52.1531 60.3033 52.1535 60.3031C51.3827 58.6166 52.1754 56.647 53.925 55.9032Z" fill="currentColor"/>
<path d="M54.5564 55.7021C56.4217 55.2943 58.277 56.4212 58.7 58.2191L55.3223 58.9573C58.6997 58.219 58.7002 58.2198 58.7004 58.2208C58.7006 58.2212 58.7006 58.2223 58.7009 58.2232C58.7013 58.2252 58.7019 58.228 58.7026 58.2311C58.704 58.2374 58.7061 58.246 58.7086 58.2567C58.7135 58.2781 58.7207 58.3082 58.7295 58.347C58.7473 58.4247 58.7725 58.5371 58.8045 58.6825C58.8685 58.9734 58.9592 59.3972 59.0703 59.9427C59.2925 61.0334 59.5957 62.6121 59.9248 64.5906C60.5827 68.5449 61.3475 74.1103 61.7798 80.5764C62.6395 93.4371 62.2069 110.172 56.75 124.903C56.1069 126.64 54.1251 127.545 52.3238 126.925C50.5226 126.305 49.5835 124.395 50.2266 122.659C55.2191 109.181 55.7036 93.5044 54.8681 81.0055C54.4527 74.7917 53.7168 69.4402 53.0859 65.6477C52.7706 63.7528 52.4819 62.2507 52.2738 61.2289C52.1697 60.718 52.0859 60.3274 52.0289 60.0681C52.0004 59.9386 51.9785 59.8418 51.9642 59.7793C51.9571 59.748 51.9521 59.7252 51.9488 59.7112C51.9472 59.7042 51.946 59.6994 51.9454 59.6967C51.9453 59.6962 51.945 59.6958 51.945 59.6955L51.9099 59.5272C51.5956 57.7874 52.7494 56.0971 54.5564 55.7021Z" fill="currentColor"/>
<path d="M115.921 56.9313C117.082 55.4663 119.255 55.1862 120.775 56.3053C122.294 57.4242 122.585 59.518 121.425 60.9829V60.9838C121.424 60.9853 121.421 60.9885 121.417 60.9932C121.41 61.0028 121.397 61.0187 121.38 61.0411C121.345 61.086 121.29 61.1568 121.217 61.2524C121.071 61.4435 120.85 61.7344 120.566 62.1201C119.997 62.8921 119.171 64.043 118.164 65.5314C116.15 68.5097 113.421 72.8313 110.583 78.1691C104.892 88.8743 98.8452 103.519 97.1632 119.532C96.9706 121.366 95.2719 122.702 93.3689 122.517C91.4661 122.331 90.0799 120.694 90.2725 118.86C92.0722 101.726 98.503 86.252 104.419 75.1247C107.384 69.5464 110.241 65.0233 112.362 61.8862C113.423 60.3169 114.301 59.092 114.92 58.253C115.229 57.8333 115.474 57.5097 115.644 57.2878C115.729 57.1769 115.795 57.0912 115.842 57.0316C115.865 57.0018 115.883 56.9786 115.897 56.9618C115.903 56.9535 115.908 56.9467 115.912 56.9416C115.914 56.9391 115.916 56.9367 115.918 56.935C115.918 56.9342 115.919 56.9333 115.919 56.9329C115.92 56.9321 115.92 56.9314 118.667 58.954L115.921 56.9313Z" fill="currentColor"/>
<path d="M115.504 57.6107C116.275 55.924 118.32 55.1594 120.07 55.9032C121.819 56.647 122.612 58.6166 121.841 60.3031L121.842 60.3035C121.842 60.3038 121.841 60.3043 121.841 60.3052C121.84 60.3075 121.838 60.312 121.835 60.3184C121.829 60.3312 121.82 60.3522 121.807 60.3811C121.781 60.4391 121.74 60.5292 121.687 60.6501C121.581 60.892 121.422 61.2576 121.22 61.7382C120.816 62.6997 120.238 64.1209 119.554 65.9335C118.185 69.5608 116.395 74.7443 114.724 80.9389C111.372 93.3734 108.561 109.672 110.45 125.572C110.668 127.403 109.304 129.058 107.403 129.268C105.503 129.478 103.787 128.163 103.569 126.331C101.543 109.284 104.563 92.0856 108.021 79.2599C109.756 72.8244 111.616 67.4369 113.045 63.6508C113.76 61.7568 114.369 60.2607 114.801 59.2315C115.017 58.7169 115.19 58.3186 115.31 58.0456C115.37 57.9092 115.417 57.804 115.449 57.7312C115.466 57.6948 115.478 57.6663 115.487 57.6462C115.492 57.6361 115.496 57.6282 115.498 57.6222C115.5 57.6193 115.501 57.6167 115.502 57.6148C115.502 57.6138 115.503 57.6128 115.503 57.6123C115.508 57.6134 115.627 57.6628 118.672 58.9575L115.504 57.6107Z" fill="currentColor"/>
<path d="M115.295 58.2191C115.718 56.4212 117.573 55.2943 119.438 55.7021C121.303 56.1097 122.472 57.8968 122.05 59.6943C122.05 59.6945 122.05 59.6955 122.049 59.6967C122.049 59.6994 122.048 59.7042 122.046 59.7112C122.043 59.7252 122.038 59.748 122.031 59.7793C122.016 59.8418 121.994 59.9386 121.966 60.0681C121.909 60.3274 121.825 60.718 121.721 61.2289C121.513 62.2507 121.224 63.7528 120.909 65.6477C120.278 69.4402 119.542 74.7917 119.126 81.0055C118.29 93.5044 118.773 109.181 123.763 122.659C124.406 124.395 123.467 126.305 121.666 126.925C119.864 127.544 117.883 126.639 117.24 124.903C111.786 110.172 111.354 93.4367 112.214 80.576C112.647 74.11 113.412 68.5449 114.07 64.5906C114.399 62.6121 114.702 61.0334 114.924 59.9427C115.036 59.3972 115.126 58.9734 115.19 58.6825C115.222 58.5371 115.248 58.4247 115.266 58.347C115.274 58.3082 115.281 58.278 115.286 58.2567C115.289 58.246 115.291 58.2374 115.292 58.2311C115.293 58.228 115.293 58.2252 115.294 58.2232C115.294 58.2223 115.295 58.2212 115.295 58.2208C115.299 58.2207 115.415 58.2451 118.672 58.9573L115.295 58.2191Z" fill="currentColor"/>
<path d="M84.4478 6.41449C86.3582 6.32687 87.9806 7.74832 88.0717 9.58969C88.1626 11.4299 86.6895 12.9926 84.7808 13.0822L84.7817 13.0826C84.7755 13.083 84.766 13.0834 84.7534 13.0843C84.714 13.0869 84.6436 13.0924 84.5445 13.1012C84.3461 13.1189 84.0326 13.1514 83.6198 13.2085C82.7935 13.3228 81.5744 13.5347 80.0854 13.9211C77.1021 14.6953 73.0769 16.1587 68.953 18.9061C60.8449 24.308 51.8662 34.9964 50.1974 56.5576C50.0551 58.396 48.3935 59.7751 46.4861 59.6379C44.5788 59.5007 43.1481 57.8992 43.2904 56.0608C45.1032 32.6394 55.0588 20.0472 65.0145 13.4144C69.9224 10.1446 74.7113 8.40187 78.2844 7.47454C80.0734 7.01022 81.5683 6.74787 82.636 6.60017C83.1704 6.52626 83.5992 6.48066 83.9062 6.45327C84.0598 6.43958 84.1831 6.43047 84.274 6.42439C84.3194 6.42135 84.3567 6.41901 84.3857 6.41738C84.4002 6.41656 84.4126 6.41584 84.4229 6.41531C84.4281 6.41505 84.433 6.4151 84.4371 6.4149C84.4391 6.4148 84.4416 6.41454 84.4426 6.41449C84.4452 6.41437 84.4475 6.41431 84.6122 9.74856L84.4478 6.41449ZM84.7847 13.0826C84.7839 13.0827 84.7825 13.0826 84.7817 13.0826C84.7851 13.0824 84.7875 13.0823 84.789 13.0822C84.788 13.0823 84.7866 13.0825 84.7847 13.0826Z" fill="currentColor"/>
<path d="M83.7562 11.1006C85.6189 10.682 87.4809 11.798 87.9153 13.5934C88.3493 15.3876 87.1932 17.1811 85.3325 17.6013C85.3255 17.6029 85.3119 17.6063 85.2918 17.6112C85.248 17.6218 85.1731 17.6405 85.0697 17.6677C84.8626 17.722 84.5405 17.8105 84.1184 17.9392C83.2733 18.197 82.0304 18.6145 80.5095 19.2369C77.463 20.4837 73.3297 22.5413 69.0427 25.7644C60.5306 32.1641 51.2828 43.2431 48.7982 62.1231C48.5575 63.952 46.8243 65.2468 44.9268 65.0148C43.0294 64.7828 41.6865 63.1122 41.9271 61.2834C44.6696 40.4435 55.0117 27.8466 64.7827 20.5004C69.6373 16.8506 74.3192 14.5174 77.8022 13.092C79.5459 12.3784 80.9968 11.8891 82.0288 11.5743C82.545 11.4169 82.9574 11.3029 83.2502 11.2261C83.3967 11.1876 83.5133 11.1584 83.5983 11.1378C83.6407 11.1275 83.6755 11.1192 83.7019 11.113C83.715 11.11 83.7262 11.1072 83.7353 11.1052C83.7397 11.1042 83.7438 11.1035 83.7472 11.1027C83.749 11.1023 83.7511 11.1017 83.7519 11.1015C83.754 11.101 83.756 11.1006 84.5392 14.3377L83.7562 11.1006ZM85.3351 17.6008C85.3344 17.601 85.333 17.6011 85.3325 17.6013L85.3376 17.6C85.3372 17.6001 85.3364 17.6005 85.3351 17.6008Z" fill="currentColor"/>
<path d="M84.5803 16.1108C86.4371 15.6688 88.3141 16.7615 88.7727 18.5511C89.2309 20.3389 88.1005 22.1457 86.2474 22.5904L86.2465 22.5908H86.2461L86.2452 22.5912C86.2448 22.5913 86.2444 22.5911 86.2439 22.5912C86.243 22.5915 86.2419 22.5922 86.2409 22.5925L86.2405 22.5921C86.2327 22.594 86.2196 22.5978 86.2015 22.6024C86.1568 22.6138 86.0814 22.6335 85.9772 22.6622C85.7685 22.7197 85.4447 22.8128 85.0226 22.9469C84.1776 23.2154 82.9423 23.6469 81.4453 24.2814C78.4446 25.5532 74.4345 27.6241 70.4161 30.8076C62.4626 37.1085 54.3254 47.8648 54.0527 65.961C54.0249 67.8042 52.452 69.2767 50.5397 69.2501C48.6273 69.2233 47.0991 67.7073 47.1269 65.864C47.4329 45.5517 56.706 33.0274 66.0182 25.6501C70.6327 21.9944 75.2198 19.6269 78.6575 18.1699C80.3797 17.44 81.8239 16.9341 82.8538 16.6068C83.369 16.4431 83.7816 16.3236 84.0747 16.2429C84.2213 16.2025 84.3383 16.1718 84.4232 16.15C84.4656 16.1392 84.5001 16.1305 84.5264 16.124C84.5395 16.1208 84.5508 16.118 84.5598 16.1158C84.5641 16.1147 84.568 16.1141 84.5713 16.1133C84.5731 16.1129 84.5756 16.1123 84.5765 16.1121C84.5793 16.1152 84.6071 16.2156 85.3346 19.0541L84.5803 16.1108Z" fill="currentColor"/>
<path d="M89.5471 6.41449L89.3823 9.74856C89.5446 6.46261 89.5493 6.41506 89.5518 6.41449C89.5529 6.41454 89.5558 6.4148 89.5578 6.4149C89.5619 6.4151 89.5665 6.41506 89.5715 6.41532C89.5818 6.41584 89.5943 6.41657 89.6088 6.41738C89.6378 6.41901 89.6755 6.42136 89.7209 6.42439C89.8118 6.43047 89.9349 6.4396 90.0883 6.45328C90.3952 6.48066 90.8242 6.52628 91.3584 6.60018C92.4262 6.74787 93.9211 7.01023 95.7101 7.47454C99.2831 8.40186 104.072 10.1446 108.98 13.4144C118.936 20.0472 128.892 32.6394 130.705 56.0608C130.847 57.8992 129.416 59.5007 127.508 59.6379C125.601 59.775 123.939 58.396 123.797 56.5576C122.128 34.9964 113.15 24.308 105.042 18.9061C100.918 16.1586 96.8924 14.6954 93.9091 13.9211C92.4201 13.5347 91.201 13.3228 90.3747 13.2085C89.962 13.1514 89.6488 13.1189 89.4504 13.1012C89.3513 13.0924 89.281 13.0869 89.2415 13.0843C89.2287 13.0834 89.219 13.083 89.2128 13.0826H89.2136L89.2141 13.0822C87.3053 12.9928 85.8323 11.43 85.9232 9.5897C86.0143 7.7483 87.6367 6.32682 89.5471 6.41449ZM89.2128 13.0826C89.2121 13.0826 89.211 13.0827 89.2102 13.0826C89.2082 13.0825 89.2065 13.0823 89.2055 13.0822C89.2069 13.0823 89.2094 13.0824 89.2128 13.0826Z" fill="currentColor"/>
<path d="M86.0842 13.5937C86.5183 11.7983 88.3801 10.6821 90.2428 11.1006L89.4778 14.2642C90.2429 11.1004 90.245 11.1009 90.2471 11.1014C90.248 11.1016 90.2501 11.1018 90.2518 11.1022C90.2552 11.103 90.2593 11.1041 90.2638 11.1051C90.2728 11.1072 90.284 11.1099 90.2972 11.1129C90.3235 11.1191 90.3583 11.1274 90.4008 11.1377C90.4857 11.1583 90.6024 11.1872 90.7488 11.2256C91.0416 11.3024 91.454 11.4165 91.9702 11.5739C93.0022 11.8885 94.4531 12.3777 96.1968 13.0911C99.6797 14.5161 104.362 16.8485 109.216 20.4979C118.987 27.8431 129.328 40.4392 132.068 61.2792C132.308 63.1081 130.965 64.7788 129.067 65.0106C127.17 65.2424 125.437 63.9474 125.197 62.1185C122.714 43.2386 113.468 32.1608 104.956 25.7622C100.67 22.5397 96.5368 20.4829 93.4904 19.2364C91.9694 18.6142 90.7266 18.1968 89.8815 17.9391C89.4592 17.8104 89.1368 17.7219 88.9298 17.6676C88.8264 17.6405 88.7519 17.6217 88.708 17.6111C88.6863 17.6058 88.672 17.6027 88.6656 17.6012C88.664 17.6008 88.6628 17.6005 88.6622 17.6004C88.6627 17.6005 88.6636 17.6005 88.6648 17.6008C88.6655 17.6009 88.667 17.6015 88.6674 17.6016C88.6675 17.6016 88.6675 17.6014 88.6678 17.6008C86.8069 17.181 85.6503 15.3881 86.0842 13.5937Z" fill="currentColor"/>
<path d="M85.2224 18.5509C85.6813 16.7613 87.5585 15.6692 89.4153 16.1115L88.6181 19.2202C89.4112 16.1274 89.4171 16.1119 89.4191 16.1123C89.42 16.1125 89.4221 16.1131 89.4238 16.1135C89.4273 16.1144 89.4313 16.1153 89.4358 16.1164C89.4448 16.1186 89.4561 16.121 89.4692 16.1243C89.4954 16.1307 89.53 16.1394 89.5724 16.1502C89.6572 16.172 89.7739 16.2027 89.9204 16.2431C90.2135 16.3238 90.6265 16.4436 91.1418 16.6074C92.1717 16.9349 93.616 17.4409 95.3381 18.1709C98.7758 19.6282 103.363 21.9961 107.977 25.6519C117.29 33.0296 126.564 45.5536 126.873 65.8638C126.901 67.7071 125.373 69.2233 123.461 69.2503C121.548 69.2773 119.975 67.8049 119.947 65.9616C119.672 47.8676 111.534 37.1111 103.579 30.8094C99.5607 27.6256 95.5503 25.5541 92.5494 24.282C91.0525 23.6474 89.8171 23.2162 88.9722 22.9475C88.55 22.8133 88.2263 22.7199 88.0175 22.6624C87.9131 22.6337 87.8375 22.614 87.7927 22.6026C87.7704 22.5969 87.7557 22.5931 87.7491 22.5914C87.747 22.5909 87.7457 22.5907 87.7452 22.5906L87.7504 22.5914C85.8954 22.1479 84.7638 20.3396 85.2224 18.5509Z" fill="currentColor"/>
</svg>
