<svg width="174" height="240" viewBox="0 0 174 240" fill="none" xmlns="http://www.w3.org/2000/svg">
<rect width="174" height="240" fill="none"/>
<path d="M86.9995 14.8848C105.104 14.8848 119.778 29.5562 119.778 47.6572C119.778 49.5136 119.62 51.3334 119.324 53.1055C116.729 37.5986 103.247 25.7822 86.9995 25.7822V25.7764C70.7523 25.7766 57.2703 37.5976 54.6753 53.1055C54.3788 51.3334 54.2222 49.5135 54.2222 47.6572C54.2222 29.5564 68.8955 14.8792 86.9995 14.8789V14.8848Z" fill="#FF9800"/>
<path d="M56.0055 40.4701C56.2231 39.4601 56.5465 38.4777 56.9197 37.5158C57.2928 36.5538 57.7281 35.6194 58.2007 34.7124C59.1522 32.8985 60.3028 31.1946 61.5901 29.6281C64.1772 26.5087 67.3925 23.9664 70.9311 22.2624C72.7097 21.431 74.538 20.744 76.4162 20.2974C78.2943 19.8646 80.1973 19.5621 82.1003 19.5141C85.9001 19.3766 89.6875 19.8849 93.2758 21.0942C89.532 21.0667 85.8628 21.1701 82.2807 21.7404C78.6986 22.2763 75.2221 23.3066 71.9696 24.8732C68.717 26.4466 65.7009 28.5904 63.0143 31.222C61.671 32.5412 60.4085 33.9701 59.2393 35.5092C58.0702 37.0551 56.9694 38.6837 56.0055 40.4563V40.4701Z" fill="#CC6600"/>
<path d="M79.8553 17.3085C81.6775 16.8276 83.5493 16.6351 85.4213 16.5527C87.2932 16.4908 89.1838 16.5802 91.0557 16.8207C92.9338 17.0612 94.7933 17.4666 96.6341 18.0231C97.0881 18.1674 97.5483 18.3322 97.9961 18.4834C98.4501 18.6414 98.8978 18.8336 99.3456 19.0054C99.7995 19.1772 100.235 19.3971 100.67 19.6033L101.329 19.9126C101.547 20.0225 101.759 20.1393 101.976 20.2561L102.623 20.6134C102.834 20.7302 103.052 20.8471 103.257 20.9845L104.514 21.7675C105.322 22.3515 106.137 22.915 106.889 23.5815C108.413 24.8732 109.837 26.3298 111.043 27.9788L111.504 28.5904C111.653 28.7965 111.79 29.0165 111.927 29.2295C112.2 29.6623 112.493 30.0814 112.747 30.5211C113.233 31.4281 113.749 32.3075 114.141 33.2694L114.445 33.977C114.545 34.2106 114.657 34.4374 114.738 34.6916C114.905 35.1794 115.073 35.6606 115.235 36.1553C115.316 36.4027 115.409 36.636 115.465 36.8833L115.652 37.6325C115.77 38.134 115.894 38.6285 116 39.1301C115.049 37.3506 114.159 35.5848 113.052 33.9907L112.66 33.3795C112.536 33.1733 112.374 32.9878 112.237 32.7954L111.392 31.6343L110.484 30.5416C110.335 30.3629 110.185 30.1705 110.03 29.9987L109.551 29.4834L109.072 28.9681C108.91 28.7963 108.755 28.6246 108.581 28.4666L107.573 27.5118C107.237 27.1957 106.864 26.914 106.522 26.6116C106.348 26.4674 106.174 26.3094 105.994 26.1651L105.44 25.7528L104.893 25.3405C104.8 25.2718 104.713 25.2032 104.619 25.1345L104.333 24.9419L103.201 24.1793L102.038 23.4785C101.846 23.3548 101.647 23.2447 101.448 23.1417L100.844 22.8256C100.645 22.7226 100.453 22.606 100.247 22.5029L99.6378 22.2073C99.2336 22.0149 98.8294 21.8088 98.4065 21.637C97.9898 21.4584 97.5794 21.2661 97.1627 21.1012C96.7398 20.9363 96.3232 20.7783 95.8941 20.6134C94.1963 19.9882 92.4549 19.4727 90.6949 19.0329C87.1626 18.1603 83.5431 17.604 79.8304 17.3085H79.8553Z" fill="#CC6600"/>
</svg>
