<svg width="174" height="240" viewBox="0 0 174 240" fill="none" xmlns="http://www.w3.org/2000/svg">
<rect width="174" height="240" fill="none"/>
<path d="M121.006 89.7419C122.77 89.7419 124.201 88.3106 124.201 86.545C124.201 84.7794 122.77 83.3481 121.006 83.3481C119.241 83.3481 117.811 84.7794 117.811 86.545C117.811 88.3106 119.241 89.7419 121.006 89.7419Z" fill="#C1C1C1"/>
<path d="M121.506 63.4565H120.506V84.0588H121.506V63.4565Z" fill="#C1C1C1"/>
<path d="M52.9953 89.7419C54.7598 89.7419 56.1903 88.3106 56.1903 86.545C56.1903 84.7794 54.7598 83.3481 52.9953 83.3481C51.2307 83.3481 49.8003 84.7794 49.8003 86.545C49.8003 88.3106 51.2307 89.7419 52.9953 89.7419Z" fill="#C1C1C1"/>
<path d="M53.4953 63.4565H52.4953V84.0588H53.4953V63.4565Z" fill="#C1C1C1"/>
<path d="M87 16.6201C90.924 16.6201 94.105 13.4394 94.105 9.51584C94.105 5.59229 90.924 2.41162 87 2.41162C83.076 2.41162 79.895 5.59229 79.895 9.51584C79.895 13.4394 83.076 16.6201 87 16.6201Z" fill="#C1C1C1"/>
<path fill-rule="evenodd" clip-rule="evenodd" d="M79.8283 31.8738C74.6098 31.8738 69.2576 33.0001 65.4784 36.5988C62.9565 39.0003 61.4234 41.2805 60.5891 42.7493C59.9838 43.8149 59.7651 45.0325 59.7651 46.2581V69.3789C59.7651 78.5114 47.2788 78.4725 47.2788 71.5479V45.3101C47.2788 33.147 57.1835 9.16895 87.4007 9.16895C116.907 9.503 126.721 33.2687 126.721 45.3101V71.5479C126.721 78.4725 114.235 78.4042 114.235 70.5573L114.04 45.6406C114.033 44.8193 113.929 43.9998 113.584 43.2544C112.943 41.8697 111.481 39.3759 108.384 36.5603C104.488 33.0174 99.0948 31.8738 93.8287 31.8738H79.8283Z" fill="#674CA6"/>
<path fill-rule="evenodd" clip-rule="evenodd" d="M87.8282 9.1748C107.446 9.41637 117.354 18.2491 121.338 27.6748H52.6631C56.7025 18.1176 66.8331 9.17003 87.0001 9.16992L87.8282 9.1748Z" fill="#523D85"/>
<path fill-rule="evenodd" clip-rule="evenodd" d="M60.1128 20.2324L64.9902 26.6262H55.2353L60.1128 20.2324Z" fill="black" fill-opacity="0.5"/>
<path fill-rule="evenodd" clip-rule="evenodd" d="M70.8677 20.2324L75.7451 26.6262H65.9902L70.8677 20.2324Z" fill="black" fill-opacity="0.5"/>
<path fill-rule="evenodd" clip-rule="evenodd" d="M81.6226 20.2324L86.5 26.6262H76.7451L81.6226 20.2324Z" fill="black" fill-opacity="0.5"/>
<path fill-rule="evenodd" clip-rule="evenodd" d="M92.3775 20.2324L97.2549 26.6262H87.5L92.3775 20.2324Z" fill="black" fill-opacity="0.5"/>
<path fill-rule="evenodd" clip-rule="evenodd" d="M103.132 20.2324L108.01 26.6262H98.2549L103.132 20.2324Z" fill="black" fill-opacity="0.5"/>
<path fill-rule="evenodd" clip-rule="evenodd" d="M113.887 20.2324L118.765 26.6262H109.01L113.887 20.2324Z" fill="black" fill-opacity="0.5"/>
<path fill-rule="evenodd" clip-rule="evenodd" d="M65.4615 23.4294L60.5768 17.0356H70.3461L65.4615 23.4294Z" fill="white" fill-opacity="0.5"/>
<path fill-rule="evenodd" clip-rule="evenodd" d="M76.2307 23.4294L71.3461 17.0356H81.1154L76.2307 23.4294Z" fill="white" fill-opacity="0.5"/>
<path fill-rule="evenodd" clip-rule="evenodd" d="M87 23.4294L82.1154 17.0356H91.8847L87 23.4294Z" fill="white" fill-opacity="0.5"/>
<path fill-rule="evenodd" clip-rule="evenodd" d="M97.7693 23.4294L92.8847 17.0356H102.654L97.7693 23.4294Z" fill="white" fill-opacity="0.5"/>
<path fill-rule="evenodd" clip-rule="evenodd" d="M108.539 23.4294L103.654 17.0356H113.423L108.539 23.4294Z" fill="white" fill-opacity="0.5"/>
</svg>
