<svg width="174" height="240" viewBox="0 0 174 240" fill="none" xmlns="http://www.w3.org/2000/svg">
<rect width="174" height="240" fill="none"/>
<path fill-rule="evenodd" clip-rule="evenodd" d="M89.954 2.37476C95.8925 2.37476 101.406 4.1927 105.97 7.30243C110.588 4.54701 114.651 3.70101 118.157 4.76489C119.989 8.81023 119.404 13.9819 116.402 20.2798C117.709 23.5476 118.429 27.1145 118.429 30.8493V34.5837H56.8115V30.8493C56.8115 27.1031 57.5349 23.5259 58.8497 20.2497C55.8605 13.9655 55.2801 8.80383 57.1084 4.76489C60.6118 3.70208 64.6699 4.54532 69.2827 7.29459C73.8433 4.18949 79.3527 2.37476 85.286 2.37476H89.954Z" fill="#D8D8D8"/>
<mask id="mask0_1459_100082" style="mask-type:luminance" maskUnits="userSpaceOnUse" x="56" y="2" width="64" height="33">
<path fill-rule="evenodd" clip-rule="evenodd" d="M89.954 2.37476C95.8925 2.37476 101.406 4.1927 105.97 7.30243C110.588 4.54701 114.651 3.70101 118.157 4.76489C119.989 8.81023 119.404 13.9819 116.402 20.2798C117.709 23.5476 118.429 27.1145 118.429 30.8493V34.5837H56.8115V30.8493C56.8115 27.1031 57.5349 23.5259 58.8497 20.2497C55.8605 13.9655 55.2801 8.80383 57.1084 4.76489C60.6118 3.70208 64.6699 4.54532 69.2827 7.29459C73.8433 4.18949 79.3527 2.37476 85.286 2.37476H89.954Z" fill="white"/>
</mask>
<g mask="url(#mask0_1459_100082)">
<path d="M129.859 0.507568H45.6085V89.6656H129.859V0.507568Z" fill="#DB307A"/>
</g>
<path fill-rule="evenodd" clip-rule="evenodd" d="M106.141 7.20088C110.689 4.52616 114.694 3.71413 118.157 4.76478C119.989 8.81011 119.404 13.9817 116.402 20.2797C114.284 14.9832 110.621 10.4718 105.97 7.30232L106.141 7.20088ZM69.2827 7.29448L69.1844 7.36114C64.583 10.5215 60.9569 14.9989 58.8497 20.2496C55.8605 13.9654 55.2802 8.80371 57.1085 4.76478C60.6118 3.70197 64.6699 4.54521 69.2827 7.29448Z" fill="black" fill-opacity="0.24"/>
<path fill-rule="evenodd" clip-rule="evenodd" d="M66.0829 9.82434L65.7795 10.106C63.8201 11.9493 62.1218 14.0672 60.7462 16.3981C59.3809 12.613 59.1471 9.99364 60.0453 8.54028C61.2828 8.0051 63.2954 8.43312 66.0829 9.82434ZM109.195 9.7663C111.87 8.46093 113.81 8.0688 115.015 8.58992C115.895 10.0147 115.688 12.56 114.392 16.226C112.957 13.833 111.18 11.668 109.129 9.79861L109.195 9.7663Z" fill="white" fill-opacity="0.3"/>
<g filter="url(#filter0_d_1459_100082)">
<path fill-rule="evenodd" clip-rule="evenodd" d="M56.9447 27.2842C64.3878 23.0811 74.6244 20.9796 87.6545 20.9796C100.684 20.9796 110.9 23.0809 118.304 27.2835C119.263 27.828 119.829 28.6934 119.829 29.614V40.6214C119.829 41.4195 118.993 42.0665 117.962 42.0665C117.609 42.0665 117.264 41.9892 116.966 41.8435C109.197 38.0496 99.5406 36.1527 87.9958 36.1527C76.3628 36.1527 66.4467 38.0788 58.2476 41.9309C57.3661 42.345 56.2177 42.1277 55.6826 41.4455C55.5052 41.2195 55.4115 40.9601 55.4115 40.6956V29.6189C55.4115 28.6958 55.9812 27.8283 56.9447 27.2842Z" fill="black"/>
</g>
<path fill-rule="evenodd" clip-rule="evenodd" d="M56.9447 27.2842C64.3878 23.0811 74.6244 20.9796 87.6545 20.9796C100.684 20.9796 110.9 23.0809 118.304 27.2835C119.263 27.828 119.829 28.6934 119.829 29.614V40.6214C119.829 41.4195 118.993 42.0665 117.962 42.0665C117.609 42.0665 117.264 41.9892 116.966 41.8435C109.197 38.0496 99.5406 36.1527 87.9958 36.1527C76.3628 36.1527 66.4467 38.0788 58.2476 41.9309C57.3661 42.345 56.2177 42.1277 55.6826 41.4455C55.5052 41.2195 55.4115 40.9601 55.4115 40.6956V29.6189C55.4115 28.6958 55.9812 27.8283 56.9447 27.2842Z" fill="#EFEFEF"/>
<defs>
<filter id="filter0_d_1459_100082" x="55.4115" y="20.9796" width="64.4178" height="23.1613" filterUnits="userSpaceOnUse" color-interpolation-filters="sRGB">
<feFlood flood-opacity="0" result="BackgroundImageFix"/>
<feColorMatrix in="SourceAlpha" type="matrix" values="0 0 0 0 0 0 0 0 0 0 0 0 0 0 0 0 0 0 127 0" result="hardAlpha"/>
<feOffset dy="2"/>
<feColorMatrix type="matrix" values="0 0 0 0 0 0 0 0 0 0 0 0 0 0 0 0 0 0 0.1 0"/>
<feBlend mode="normal" in2="BackgroundImageFix" result="effect1_dropShadow_1459_100082"/>
<feBlend mode="normal" in="SourceGraphic" in2="effect1_dropShadow_1459_100082" result="shape"/>
</filter>
</defs>
</svg>
