<svg width="174" height="240" viewBox="0 0 174 240" fill="none" xmlns="http://www.w3.org/2000/svg">
<rect width="174" height="240" fill="none"/>
<path d="M57.0885 44.1981C49.8651 43.3204 44.0255 45.4482 42.4042 46.5652C47.0934 38.5511 47.7076 42.074 49.8047 37.7027C51.3698 34.4405 53.9024 25.9152 54.0124 21.7297C54.7281 11.9742 57.9308 11.0411 59.6531 10.0722C81.7907 1.54762 106.054 8.06221 107.418 8.82612C108.51 9.43725 109.4 11.0571 109.804 11.6288C113.018 19.1332 119.772 26.8725 123.839 34.7481C126.284 37.5575 128.976 40.6702 131.584 45.1845C129.228 43.5863 120.804 42.728 114.62 44.6518C106.478 47.1843 91.883 49.0345 85.8114 49.0852C79.7397 49.1358 66.1177 45.2952 57.0885 44.1981Z" fill="white"/>
<path d="M100.873 12.0277C100.841 12.6302 101.426 15.0957 102.316 18.1067C103.273 21.3667 103.831 23.825 104.757 28.8673C105.082 30.6359 105.201 31.181 105.812 33.7837C106.107 35.029 106.23 35.6174 106.239 35.8195C106.239 35.8772 106.234 35.8988 106.212 35.9024C106.199 35.9024 106.159 35.9023 106.11 35.8986C106.039 35.8984 105.932 35.8982 105.83 35.9052C105.573 35.9083 105.502 35.8973 105.493 35.8432C105.481 35.2983 104.776 30.776 104.398 28.8557C104.064 27.1629 103.668 25.5925 102.954 23.1953C102.284 20.9425 102.002 19.8523 101.281 16.7876C100.819 14.8346 100.18 12.4087 100.008 11.9429C99.9946 11.9032 99.9502 11.9103 100.43 11.868C100.656 11.8541 100.851 11.84 100.86 11.8437C100.869 11.8437 100.873 11.9303 100.873 12.0349L100.873 12.0277Z" fill="#DB307A"/>
<path d="M109.921 9.02254C108.918 8.94827 107.937 9.04002 105.255 9.47096C101.388 10.087 98.9415 10.2515 95.9145 10.1008C93.4024 9.98004 91.4809 9.71622 88.2109 9.04908C85.8371 8.56423 85.3535 8.47662 84.2219 8.32271C82.7841 8.12846 81.5769 8.07541 80.2229 8.14833C78.9888 8.21068 78.9044 8.22855 76.4707 8.80072C74.188 9.33352 73.9571 9.37633 72.9138 9.46434C71.0625 9.6192 69.6731 9.61267 67.3964 9.44192C66.7706 9.3937 65.914 9.3486 65.4968 9.34051C64.8975 9.33564 64.0984 9.37726 63.2682 9.4585C62.4691 9.5362 61.6388 9.6463 60.8883 9.77101C60.5198 9.83518 60.1868 9.88499 60.1646 9.87051C60.1335 9.86323 60.2758 9.74085 60.4848 9.60058C61.8317 8.68697 64.7819 7.34377 66.9361 6.6736C67.7534 6.41554 69.4588 5.99337 70.4402 5.79699C74.5123 4.99735 78.3791 4.71323 84.8553 4.75209C87.2478 4.77155 89.5648 4.79807 91.5711 4.83476C99.574 4.98507 103.55 5.58875 107.404 7.24571C108.273 7.62277 108.814 7.89812 109.333 8.24919C109.492 8.35776 109.652 8.46995 109.82 8.59658C110.467 9.08863 110.463 9.06337 109.921 9.02254Z" fill="#DB307A"/>
<path d="M111.357 10.357C111.13 10.3349 109.936 10.3721 109.261 10.4212C108.151 10.509 107.197 10.6153 104.32 10.9809C103.334 11.1051 102.446 11.215 101.638 11.2999C98.6101 11.6255 96.6613 11.69 94.6463 11.5595C92.9997 11.455 91.9037 11.2687 89.2063 10.628C86.287 9.93632 84.8138 9.68067 83.2161 9.57628C81.4718 9.46438 80.0467 9.58767 78.035 10.0308C76.3563 10.4025 74.7755 10.6806 73.5856 10.8116C71.8718 11.0029 70.2251 10.9922 67.3358 10.7733C65.3387 10.6175 63.7763 10.5854 62.5821 10.6622C61.2813 10.7461 59.403 11.0669 58.5324 11.3537C58.2481 11.4433 57.9994 11.5185 57.9905 11.5185C57.9595 11.5076 58.3328 11.2955 58.6305 11.1446C58.746 11.0907 58.8438 11.0441 58.9104 11.0153C59.1459 10.922 59.3191 10.8683 59.6344 10.8004L59.6433 10.8004C59.8831 10.7504 60.2028 10.6933 60.6912 10.6078C62.7871 10.2477 64.563 10.0891 65.9123 10.1352C66.1742 10.143 66.8266 10.1841 67.3547 10.2249C69.3652 10.3842 70.4527 10.401 72.1973 10.3072C73.8665 10.2133 74.1507 10.167 76.7176 9.56263L79.0137 9.01903L79.7684 8.9665C82.2101 8.78762 83.6657 8.93861 87.6945 9.75527C89.9396 10.2074 90.8226 10.368 91.9985 10.5292C94.4702 10.8663 96.9823 10.9979 99.2818 10.9089C99.961 10.8851 100.578 10.8467 101.195 10.7939C102.456 10.6919 103.721 10.5178 105.498 10.2329C108.384 9.75906 109.543 9.68572 110.465 9.90054C110.953 10.0134 111.685 10.3794 111.366 10.3534L111.357 10.357Z" fill="#DB307A"/>
<path d="M114.055 14.9046C114.827 17.0422 115.51 17.7128 116.413 21.2433C117.589 23.1225 119.649 26.7822 120.032 28.2045C120.424 29.6449 121.972 31.9451 122.476 32.9022C122.82 33.5488 123.516 35.0255 123.64 35.1917L120.351 35.1913C119.556 35.3051 117.661 35.4274 113.541 35.6244C112.431 35.6726 111.033 35.7418 110.425 35.773C109.128 35.8353 106.971 35.8993 106.869 35.8774C106.816 35.8701 106.785 35.7906 106.728 35.5019C106.719 35.4694 106.71 35.4333 106.706 35.3936C106.657 35.1337 106.503 34.4803 106.376 33.9425C105.931 32.069 105.536 30.2461 105.281 28.8673C104.395 24.0776 103.717 21.1104 102.924 18.4532C101.884 15.0053 101.294 12.5146 101.362 11.9338C101.38 11.7895 101.402 11.7643 101.513 11.7609C101.535 11.761 101.713 11.7397 102.001 11.7078C102.512 11.644 103.373 11.5375 104.319 11.4132C108.044 10.9412 109.065 10.8351 110.482 10.7876C111.205 10.7602 111.471 10.7824 111.897 10.8952C112.11 10.9461 112.163 10.9823 112.314 11.1847C112.934 12.0267 113.3 12.796 114.059 14.901L114.055 14.9046Z" fill="#DB307A"/>
<path d="M99.5852 12.2379C99.8103 12.8301 100.193 14.2777 100.743 16.6385C101.522 19.9668 101.782 20.9631 102.474 23.3314C103.126 25.5481 103.566 27.2917 103.852 28.7464C104.273 30.8904 105.018 35.7376 104.946 35.8565C104.929 35.8745 104.094 35.898 103.087 35.8995C102.083 35.8974 99.9749 35.9002 98.408 35.9041C93.9469 35.9236 92.3535 35.8769 88.0129 35.59C86.4329 35.4929 84.3735 35.3659 83.4326 35.3098C80.5921 35.1378 80.0595 35.0898 76.8644 34.7115C75.4887 34.5462 72.7549 34.2771 71.4679 34.1806C69.595 34.0359 65.5429 33.7857 64.6995 33.7622C60.8957 33.664 57.6239 33.8087 55.4837 34.165C54.6222 34.3111 53.1477 34.6941 52.1483 35.0167C51.8018 35.1278 51.5087 35.2282 51.3221 35.3144L51.171 35.3827L51.3853 34.7698C51.7158 33.8179 53.1692 28.7156 53.5677 27.0712C54.1318 24.7597 54.6352 21.7769 54.9386 18.9236C55.2918 15.623 55.6004 14.5015 56.5446 13.035C56.8919 12.5054 56.9987 12.3577 57.4031 12.1745C57.5452 12.1135 57.7362 12.0417 57.9761 11.952C58.6425 11.7081 60.2723 11.3218 61.0849 11.2189C63.0518 10.9633 64.4767 10.9591 67.5745 11.1965C71.7774 11.5228 73.5798 11.4003 77.8874 10.5002C80.0323 10.0537 80.9558 9.94375 82.3761 9.96838C84.1915 10.0011 85.647 10.2422 89.214 11.0832C91.9514 11.7276 92.9055 11.8847 94.5876 11.9857C95.9412 12.0751 97.2507 12.0742 98.6713 11.9943C98.9909 11.9769 99.2928 11.9595 99.3638 11.9596C99.4659 11.9526 99.4836 11.9743 99.5852 12.2415L99.5852 12.2379Z" fill="#DB307A"/>
<path d="M121.375 36.2343C120.891 36.2441 119.333 36.3346 118.077 36.4258C115.733 36.5868 111.165 36.7757 108.665 36.8101C107.125 36.8321 105.54 36.8396 103.942 36.8435L103.933 36.8435C97.8787 36.8524 91.6734 36.7095 87.1373 36.451C84.1237 36.2787 82.6324 36.1637 77.1025 35.6939C75.8066 35.5829 73.9781 35.4311 73.0328 35.3534C72.0963 35.272 70.7604 35.1646 70.0681 35.1054C64.0411 34.6056 59.8463 34.5896 56.2232 35.051C54.5493 35.264 53.7011 35.4246 52.2932 35.8005C52 35.8828 51.7069 35.9616 51.4759 36.0297C51.1517 36.1228 50.9252 36.1909 50.8852 36.2088L50.7563 36.2699L50.8143 36.1257C50.8768 35.9635 51.0235 35.8736 51.6632 35.6187C51.7032 35.6008 51.7476 35.5865 51.7921 35.5685C52.7383 35.2061 54.0663 34.8372 55.2342 34.6196C56.9572 34.3021 59.3989 34.1376 62.2753 34.1473C64.295 34.1515 65.6133 34.2084 68.2807 34.3836C72.4971 34.6667 74.1569 34.8181 78.2175 35.3065C79.8373 35.5048 80.8936 35.59 83.4989 35.747C84.715 35.8181 86.7256 35.945 87.9727 36.0306C92.4066 36.325 93.9024 36.3606 99.3002 36.3394C100.676 36.3351 102.882 36.3325 104.201 36.3353C104.587 36.3361 104.942 36.3369 105.284 36.3376C107.33 36.3311 108.613 36.3013 110.202 36.2252C117.927 35.859 118.944 35.7998 120.498 35.6191L123.69 35.3692L124.082 35.7044C124.359 35.9564 124.532 36.0082 124.421 36.008L121.375 36.2343Z" fill="#DB307A"/>
<path d="M128.914 41.9425C128.914 41.9425 128.741 41.9277 128.545 41.884C127.312 41.5712 125.506 41.4266 123.77 41.4879C121.581 41.5699 119.628 41.8184 116.759 42.3788C115.187 42.6858 109.671 44.067 107.175 44.7869C102.018 46.2699 98.936 46.9994 96.3429 47.3548C92.0537 47.9519 87.7126 47.8382 83.2444 47.017C81.647 46.7214 80.5289 46.4556 78.0312 45.7721C72.3926 44.2268 68.3907 43.2766 63.8825 42.4409C58.6467 41.463 54.9668 41.4805 50.4502 42.4993C48.3008 42.9855 46.0042 43.778 44.2269 44.6258C43.9514 44.7587 43.6892 44.8917 43.4448 45.0247L43.227 45.1469L43.4229 44.855C43.6633 44.52 43.8901 44.3365 44.6768 43.8438C44.8235 43.7503 44.9702 43.664 45.1213 43.5777C45.2635 43.4987 45.4057 43.416 45.5524 43.3369C47.0366 42.539 48.7558 41.9401 51.0562 41.4037C51.718 41.2463 52.5662 41.0749 52.9347 41.0144C56.5625 40.4627 59.6741 40.4873 63.7522 41.0912C66.4502 41.4902 67.8389 41.8178 73.2867 43.3338C75.5315 43.9591 78.0425 44.6355 79.0674 44.8939C79.2759 44.9484 79.5909 45.0249 79.9148 45.1049C80.1721 45.174 80.4383 45.2395 80.6601 45.2941C83.8101 46.0909 85.1411 46.3968 86.5033 46.6486C89.3609 47.1742 92.1794 47.2667 95.0432 46.9227C97.4586 46.6355 99.6214 46.1494 103.863 44.9424C106.306 44.2439 107.345 43.9683 110.96 43.0702C114.997 42.0721 116.45 41.7323 118.439 41.3649C122.125 40.6691 124.833 40.5412 127.198 40.9467L127.992 41.0783L128.462 41.4978C128.723 41.7257 128.932 41.9281 128.927 41.939L128.914 41.9425Z" fill="#DB307A"/>
<path d="M127.717 40.283C127.717 40.283 127.072 40.4595 126.91 40.4595C125.198 40.1816 122.765 40.2415 120.101 40.6472C118.329 40.9105 116.713 41.2462 113.044 42.0937C110.14 42.7695 107.875 43.3601 103.984 44.4632C99.8089 45.6451 98.552 45.9491 96.2963 46.3088C92.4242 46.9321 89.2506 46.8244 85.1864 45.9463C84.2902 45.7532 82.8971 45.4183 81.2999 45.0145C79.0417 44.4432 76.3842 43.7449 74.1883 43.1305C71.664 42.4252 68.9667 41.7016 68.1415 41.4942C65.7146 40.901 62.6838 40.4327 60.1939 40.2724C56.5501 40.0302 52.936 40.3906 49.5515 41.3649C48.0325 41.7947 46.8909 42.2072 45.8956 42.6778C45.5223 42.8574 45.1668 43.0479 44.8246 43.2492C44.6468 43.3535 44.4913 43.4325 44.4735 43.4289C44.4647 43.4 45.2658 42.4131 45.684 41.9449C46.1334 41.4407 47.2812 40.2524 48.3265 39.2083C48.838 38.697 49.3986 38.1029 49.5766 37.894C49.8569 37.5626 49.9281 37.4978 50.0835 37.4585C50.1901 37.4334 50.3723 37.34 50.5012 37.2501C50.5457 37.2177 50.5902 37.1853 50.6346 37.1565C50.8568 37.0199 51.119 36.905 51.5587 36.7544C52.1051 36.5643 53.3442 36.253 54.1169 36.1103C58.5575 35.3078 62.7613 35.2661 70.7943 35.9505C72.0148 36.0541 73.3151 36.1651 73.6968 36.1947C74.0785 36.228 75.4765 36.3428 76.8079 36.4611C85.5643 37.2119 89.0085 37.4104 95.4358 37.5357C98.6006 37.6001 101.353 37.6311 103.887 37.6365C105.552 37.64 107.123 37.6324 108.65 37.6068C111.398 37.5656 115.771 37.3836 118.119 37.219C121.085 37.0087 121.455 37.0732 122.216 37.0733C122.675 37.0733 124.386 36.7218 124.714 36.9643C124.913 37.1126 124.992 37.3073 125.409 37.5968C127.35 38.9359 127.695 40.2288 127.717 40.283Z" fill="#DB307A"/>
<path d="M131.654 45.2142C131.628 45.2214 131.251 45.0691 130.794 44.8696C129.308 44.2315 127.662 43.8817 125.505 43.7436C122.913 43.5758 120.423 43.7438 117.043 44.3176C115.964 44.5029 113.713 45.0502 106.043 47.0005C101.868 48.0598 101.255 48.1992 98.9192 48.5984C96.2637 49.051 93.995 49.2736 91.5579 49.3262C88.3662 49.388 84.5937 49.1239 81.0969 48.579C78.785 48.2241 77.374 47.9433 70.4169 46.4747C63.6062 45.0352 62.4525 44.8162 60.1405 44.5119C52.8582 43.5513 46.5801 44.2345 42.8203 46.3914C42.8203 46.3914 42.807 46.3986 42.8025 46.3986C42.6114 46.5064 42.447 46.5891 42.4293 46.5854C42.4249 46.5674 42.4739 46.4484 42.5586 46.3115C42.6699 46.1133 42.799 45.9801 43.0835 45.7642C43.2035 45.6706 43.3591 45.5699 43.5369 45.4656C44.5547 44.858 46.394 44.0789 48.1086 43.5413C48.9348 43.2833 50.8934 42.7931 51.7327 42.6325C55.3651 41.951 58.8541 41.9727 62.9763 42.7066C67.5422 43.5208 71.6551 44.4748 77.9991 46.2128C81.1622 47.0709 82.6797 47.4025 84.9561 47.7284C89.4071 48.3547 93.4022 48.309 97.7361 47.5784C98.1757 47.5036 99.3792 47.2571 100.405 47.032C102.372 46.5959 103.523 46.2881 107.836 45.0523C109.101 44.6906 110.776 44.2467 112.61 43.7923C117.74 42.5186 120.288 42.0838 123.525 41.9354C125.336 41.8526 127.071 41.9826 128.349 42.2847C129.205 42.485 129.844 42.8291 130.269 43.3062C130.641 43.7292 131.584 45.0265 131.654 45.2178L131.654 45.2142Z" fill="#DB307A"/>
<g style="mix-blend-mode:overlay" opacity="0.5">
<path d="M43.5368 45.4698C43.2876 45.7724 43.0473 46.0821 42.8158 46.3919C42.8158 46.3919 42.8025 46.3991 42.798 46.3991C42.6069 46.507 42.4425 46.5896 42.4248 46.586C42.4204 46.5679 42.4694 46.4489 42.5541 46.312C42.6654 46.1138 42.7945 45.9806 43.079 45.7647C43.199 45.6711 43.3546 45.5704 43.5324 45.4662L43.5368 45.4698Z" fill="white"/>
</g>
<g style="mix-blend-mode:overlay" opacity="0.5">
<path d="M45.1168 43.5784C44.8142 43.9241 44.5161 44.2735 44.2269 44.6228C43.9514 44.7557 43.6892 44.8887 43.4448 45.0217L43.227 45.1439L43.4229 44.8521C43.6633 44.517 43.8901 44.3335 44.6768 43.8408C44.8235 43.7473 44.9702 43.661 45.1213 43.5748L45.1168 43.5784Z" fill="white"/>
</g>
<g style="mix-blend-mode:overlay" opacity="0.5">
<path d="M50.5056 37.2505C50.55 37.2181 50.5945 37.1857 50.6389 37.157C49.179 39.0517 47.5151 40.8558 45.9044 42.6817C45.5312 42.8613 45.1757 43.0518 44.8334 43.2531C44.6557 43.3574 44.5002 43.4364 44.4824 43.4328C44.4736 43.4039 45.2747 42.417 45.6929 41.9488C46.1423 41.4447 47.29 40.2564 48.3353 39.2123C48.8468 38.701 49.4074 38.1069 49.5854 37.898C49.8657 37.5666 49.9369 37.5018 50.0923 37.4625C50.1989 37.4375 50.3811 37.344 50.51 37.2541L50.5056 37.2505Z" fill="white"/>
</g>
<g style="mix-blend-mode:overlay" opacity="0.5">
<path d="M51.6543 35.6227C51.6943 35.6048 51.7388 35.5904 51.7832 35.5725C51.6808 35.7274 51.5739 35.8823 51.4715 36.0336C51.1473 36.1268 50.9207 36.1949 50.8807 36.2128L50.7519 36.2739L50.8099 36.1297C50.8724 35.9674 51.0191 35.8776 51.6588 35.6227L51.6543 35.6227Z" fill="white"/>
</g>
<g style="mix-blend-mode:overlay" opacity="0.5">
<path d="M56.549 13.039C56.8964 12.5094 57.0032 12.3617 57.4075 12.1785C56.9079 13.332 56.9671 14.7393 56.898 15.9478C56.7693 18.033 56.5519 20.1108 56.2723 22.1812C55.7314 26.1164 54.9685 30.0512 52.9546 33.6838C52.7006 34.1343 52.4378 34.5847 52.1483 35.0207C51.8019 35.1318 51.5087 35.2322 51.3221 35.3184L51.171 35.3867L51.3854 34.7738C51.7158 33.8219 53.1692 28.7196 53.5677 27.0752C54.1318 24.7637 54.6353 21.7809 54.9387 18.9276C55.2918 15.627 55.6005 14.5055 56.5446 13.039L56.549 13.039Z" fill="white"/>
</g>
<g style="mix-blend-mode:overlay" opacity="0.5">
<path d="M59.63 10.8009C59.4567 10.8655 59.2834 10.9373 59.1058 11.0019C58.9458 11.0665 58.7859 11.1131 58.6261 11.1452C58.7416 11.0913 58.8393 11.0446 58.906 11.0159C59.1414 10.9226 59.3147 10.8688 59.63 10.8009Z" fill="white"/>
</g>
<g style="mix-blend-mode:overlay" opacity="0.5">
<path d="M109.333 8.24968C108.361 8.12857 107.38 8.0327 106.399 7.95487C101.233 7.52909 96.0404 7.22954 90.8609 6.94805C85.5393 6.66627 80.1424 6.33021 74.8238 6.76643C70.7615 7.10065 66.9685 8.16066 63.2682 9.45899C62.4691 9.53669 61.6388 9.64679 60.8884 9.77149C60.5198 9.83566 60.1868 9.88548 60.1646 9.871C60.1336 9.86372 60.2759 9.74134 60.4848 9.60107C61.8317 8.68746 64.7819 7.34426 66.9361 6.67409C67.7534 6.41602 69.4588 5.99386 70.4402 5.79748C74.5123 4.99784 78.3791 4.71372 84.8553 4.75258C87.2478 4.77204 89.5648 4.79856 91.5711 4.83524C99.574 4.98556 103.55 5.58924 107.404 7.2462C108.273 7.62326 108.814 7.89861 109.333 8.24968Z" fill="white"/>
</g>
<g style="mix-blend-mode:overlay" opacity="0.3">
<path d="M42.7982 46.402C42.6071 46.5099 42.4427 46.5925 42.425 46.5889C42.4206 46.5708 42.4697 46.4518 42.5543 46.3149C42.6657 46.1167 42.7947 45.9835 43.0792 45.7676C43.1993 45.674 43.3549 45.5733 43.5326 45.4691C44.5504 44.8614 46.3898 44.0823 48.1043 43.5447C48.9305 43.2867 50.8891 42.7965 51.7284 42.6359C55.3609 41.9544 58.8498 41.9761 62.972 42.71C67.538 43.5242 71.6508 44.4782 77.9948 46.2162C81.158 47.0743 82.6754 47.4059 84.9519 47.7318C89.4028 48.3581 93.3979 48.3124 97.7318 47.5818C98.1714 47.507 99.3749 47.2606 100.401 47.0354C102.368 46.5994 103.518 46.2915 107.831 45.0557C109.097 44.694 110.771 44.2501 112.606 43.7957C117.735 42.522 120.284 42.0872 123.52 41.9388C125.332 41.8561 127.067 41.986 128.345 42.2881C129.201 42.4884 129.84 42.8325 130.265 43.3097C130.637 43.7326 131.58 45.0299 131.65 45.2213C131.623 45.2284 131.247 45.0761 130.79 44.8767C129.304 44.2385 127.658 43.8887 125.501 43.7507C122.909 43.5828 120.418 43.7508 117.039 44.3246C115.96 44.51 113.708 45.0573 106.038 47.0076C101.863 48.0668 101.251 48.2062 98.9149 48.6054C96.2594 49.0581 93.9907 49.2806 91.5536 49.3332C88.3619 49.3951 84.5894 49.131 81.0927 48.586C78.7807 48.2312 77.3697 47.9504 70.4126 46.4817C63.6019 45.0422 62.4482 44.8233 60.1362 44.5189C52.8539 43.5583 46.5759 44.2415 42.816 46.3984C42.816 46.3984 42.8027 46.4056 42.7982 46.4056L42.7982 46.402Z" fill="#111111"/>
</g>
<g style="mix-blend-mode:overlay" opacity="0.3">
<path d="M43.4448 45.0215L43.227 45.1438L43.423 44.8519C43.6634 44.5169 43.8901 44.3333 44.6769 43.8407C44.8236 43.7472 44.9702 43.6609 45.1213 43.5746C45.2635 43.4955 45.4058 43.4129 45.5524 43.3338C52.7314 40.6175 61.2417 40.1844 68.7122 42.3794C71.2231 43.1207 73.6225 44.1288 76.2047 44.6971C77.4027 44.9594 78.6719 45.1172 79.9148 45.1054C80.1721 45.1745 80.4383 45.24 80.6601 45.2946C83.8101 46.0914 85.1411 46.3973 86.5033 46.6491C89.3609 47.1746 92.1794 47.2672 95.0432 46.9232C97.4586 46.636 99.6214 46.1499 103.863 44.9428C106.306 44.2444 107.345 43.9688 110.96 43.0707C114.998 42.0725 116.45 41.7328 118.439 41.3654C122.125 40.6695 124.833 40.5417 127.198 40.9472L127.992 41.0788L128.462 41.4983C128.723 41.7261 128.932 41.9286 128.927 41.9395C128.914 41.9539 128.754 41.9247 128.559 41.8809C127.325 41.5681 125.519 41.4235 123.783 41.4848C121.595 41.5668 119.641 41.8153 116.772 42.3757C115.2 42.6827 109.684 44.0639 107.188 44.7839C102.031 46.2668 98.9493 46.9963 96.3563 47.3517C92.067 47.9489 87.726 47.8351 83.2577 47.0139C81.6603 46.7183 80.5423 46.4525 78.0446 45.769C72.406 44.2237 68.4041 43.2736 63.8959 42.4378C58.66 41.4599 54.9801 41.4774 50.4636 42.4962C48.3141 42.9824 46.0176 43.7749 44.2402 44.6227C43.9647 44.7556 43.7025 44.8886 43.4581 45.0216L43.4448 45.0215Z" fill="#111111"/>
</g>
<g style="mix-blend-mode:overlay" opacity="0.3">
<path d="M106.212 35.9047C106.212 35.9047 106.159 35.9046 106.11 35.9008C106.15 35.8751 106.199 35.8495 106.239 35.8201C106.239 35.879 106.234 35.9011 106.212 35.9047Z" fill="#111111"/>
</g>
<g style="mix-blend-mode:overlay" opacity="0.3">
<path d="M101.639 11.2998C101.493 11.1335 101.338 10.9636 101.187 10.7973C102.448 10.6953 103.713 10.5212 105.49 10.2363C108.376 9.76248 109.535 9.68915 110.457 9.90396C110.945 10.0168 111.677 10.3828 111.357 10.3569C111.131 10.3347 109.937 10.3719 109.262 10.421C108.152 10.5089 107.198 10.6151 104.321 10.9807C103.335 11.1049 102.447 11.2149 101.639 11.2998Z" fill="#111111"/>
</g>
<g style="mix-blend-mode:overlay" opacity="0.3">
<path d="M108.665 36.8146C107.125 36.8366 105.54 36.8441 103.942 36.8479C104.404 36.7082 104.848 36.5359 105.275 36.3348C107.321 36.3283 108.604 36.2985 110.193 36.2224C117.918 35.8562 118.934 35.797 120.488 35.6163L123.673 35.3725L123.949 35.5855C124.241 35.9144 124.512 35.9956 124.441 35.9956C123.958 36.0054 119.328 36.3354 118.072 36.4266C115.728 36.5877 111.16 36.7765 108.661 36.8109L108.665 36.8146Z" fill="#111111"/>
</g>
<g style="mix-blend-mode:overlay" opacity="0.3">
<path d="M98.5341 35.8775C98.4808 35.8702 98.4499 35.7907 98.3928 35.502C100.411 34.1207 101.818 32.0996 102.364 29.9792C103.161 26.8852 102.328 23.6326 100.741 20.7429C99.1579 17.8531 96.8551 15.2722 94.5701 12.7165C94.2689 12.3803 93.9678 12.0441 93.6667 11.708C94.1773 11.6441 95.0386 11.5377 95.9843 11.4134C99.7095 10.9413 100.731 10.8352 102.147 10.7877C102.87 10.7603 103.137 10.7826 103.563 10.8953C103.775 10.9463 103.829 10.9824 103.979 11.1848C104.599 12.0268 104.966 12.7961 105.725 14.9011C106.497 17.0387 106.678 17.6416 107.58 21.1722C108.126 23.3093 109.541 27.0422 109.925 28.4645C110.317 29.905 111.713 32.461 112.217 33.4182C112.562 34.0647 113.152 35.0243 113.276 35.1905L112.021 35.1879C111.226 35.3016 109.33 35.4239 105.211 35.6209C104.101 35.6691 102.702 35.7383 102.094 35.7695C100.798 35.8318 98.6406 35.8958 98.5385 35.8739L98.5341 35.8775Z" fill="#111111"/>
</g>
<g style="mix-blend-mode:overlay" opacity="0.3">
<path d="M84.6947 45.9462C83.7985 45.7531 82.4054 45.4182 80.8082 45.0144C81.2833 44.9576 81.7496 44.8648 82.2026 44.7431C82.3758 44.6965 82.5446 44.6464 82.709 44.589C82.9755 44.4994 83.2376 44.3953 83.4953 44.2767C85.1437 43.5189 86.4736 42.2084 88.3386 41.9201C91.1759 41.4786 93.6395 43.5692 96.4661 44.0334C98.6226 44.3879 100.99 43.6893 102.369 42.2923C103.557 41.0789 103.907 39.1854 103.391 37.6365C105.055 37.64 106.627 37.6325 108.154 37.6068C110.901 37.5657 115.274 37.3836 117.623 37.219C120.579 37.0724 121.05 37.0647 121.803 37.1116C122.211 37.1919 124.361 36.7136 124.689 36.956C124.889 37.1043 125.058 37.3383 125.475 37.6278C127.416 38.9668 127.69 40.2063 127.712 40.2605C127.717 40.275 127.083 40.4879 126.914 40.4622C125.202 40.1844 122.277 40.2451 119.613 40.6508C117.841 40.9141 116.225 41.2498 112.556 42.0972C109.652 42.773 107.387 43.3636 103.496 44.4667C99.3213 45.6486 98.0645 45.9526 95.8088 46.3123C91.9368 46.9356 88.7633 46.8279 84.6991 45.9498L84.6947 45.9462Z" fill="#111111"/>
</g>
</svg>
