<svg width="174" height="240" viewBox="0 0 174 240" fill="none" xmlns="http://www.w3.org/2000/svg">
<rect width="174" height="240" fill="none"/>
<path d="M54.7623 156.063C54.9505 156.063 55.1029 156.258 55.1031 156.499V159.11C55.1029 159.351 54.9505 159.547 54.7623 159.547H44.5377V225.078C45.6748 225.707 46.4449 226.918 46.4449 228.31C46.4448 230.348 44.7926 232 42.7545 232C40.7164 232 39.0641 230.348 39.064 228.31C39.064 226.918 39.8342 225.707 40.9712 225.078V159.143C40.9706 159.132 40.9683 159.121 40.9683 159.11V158.349C40.9683 158.346 40.9706 158.342 40.9712 158.338V157.874C40.9715 157.025 41.6763 156.267 42.691 156.076C42.7389 156.067 42.7756 156.063 42.815 156.063H54.7623Z" fill="#32B8DE"/>
</svg>
