<svg width="174" height="240" viewBox="0 0 174 240" fill="none" xmlns="http://www.w3.org/2000/svg">
<rect width="174" height="240" fill="none"/>
<path d="M58.7941 38.6985C44.6826 38.1599 46.6247 30.9633 52.5683 21.5207C61.8642 11.8324 70.9288 10.8305 79.8461 15.337C92.1202 18.8777 103.464 23.1682 110.233 31.145C104.813 32.5848 98.703 31.49 91.6415 29.5403L86.4165 24.937C76.5227 25.7413 66.4098 29.2202 58.7941 38.6985Z" fill="#32B8DE"/>
<path d="M119.902 48.7715L112.068 33.0364C114.287 26.3452 113.937 17.9712 112.765 9.0576C118.096 12.6961 122.557 16.7717 125.545 21.5876C125.603 29.3323 124.459 36.0965 121.815 41.6371C122.605 43.1593 122.652 44.5557 121.165 45.692C121.832 47.359 121.469 48.4191 119.902 48.7711L119.902 48.7715Z" fill="#32B8DE"/>
<path d="M66.1432 12.9205C69.5944 6.02334 82.0712 3.83975 95.4801 2.14354C101.38 3.75076 108.047 5.47545 112.949 9.37949C112.97 9.39599 112.898 29.9467 112.897 29.9721L112.068 33.037C112.514 31.5681 100.595 20.5597 86.0565 17.5972C79.2088 14.6385 72.5165 12.7189 66.1432 12.9205Z" fill="#333481"/>
<path d="M113.616 10.1582C120.781 16.2003 128.194 16.8667 124.354 34.1161L125.545 21.5884C122.397 16.5674 118.325 12.8964 113.616 10.1582Z" fill="white"/>
<path d="M58.9631 38.7151C48.6413 37.7294 46.2934 32.5455 54.0689 22.0312C62.0693 13.8094 70.0931 13.1596 78.1343 17.9346L86.4165 24.9373C69.6786 27.6261 60.8186 34.43 58.7685 38.6959L58.9631 38.7151Z" fill="black" fill-opacity="0.2"/>
<path d="M115.116 39.3845C110.442 30.6336 103.425 22.8332 85.0937 17.9637C85.067 17.9567 85.0407 17.9479 85.0152 17.9373C78.629 15.3442 73.7047 13.902 69.9616 13.5294C68.1667 13.3507 66.2988 13.5879 64.5592 14.2152C63.5368 14.5839 62.6271 14.94 61.7782 15.305C55.9676 17.8005 51.5901 22.423 49.7685 27.9872C48.7536 31.087 48.8704 33.4846 50.1156 35.1127C51.5765 37.0234 53.3993 38.0284 58.1016 38.1296C64.0726 30.4552 74.1256 26.4607 86.3328 24.2389L86.4913 25.4346C74.3757 26.9376 63.9254 31.6015 58.3862 39.2876C58.2655 39.4552 57.8646 39.2908 57.6528 39.2876C52.2653 39.2227 50.8525 38.1344 49.0855 35.8235C47.5935 33.8724 47.4153 31.1172 48.555 27.635C50.4851 21.74 55.1154 16.8457 61.2596 14.2072C62.1328 13.8323 63.0662 13.4662 64.1135 13.0888C66.0388 12.3946 68.1092 12.1321 70.1014 12.3309C73.9652 12.7155 78.997 14.1818 85.4831 16.8134C109.51 23.2078 114.775 35.0269 119.867 46.4576C120.061 46.8932 120.255 47.3287 120.45 47.7643C120.496 47.8663 120.712 48.2132 120.636 48.2984C119.454 49.6269 120.433 48.597 119.058 50.0406" fill="white"/>
<path d="M110.415 31.7218C106.75 32.7879 102.822 33.266 99.032 32.6197L98.5117 32.5414L97.9995 32.4233C97.3785 32.2917 96.5589 32.0831 95.9735 31.8766C95.7958 31.8227 95.3932 31.6891 95.2244 31.637C95.0869 31.5846 94.1793 31.2042 94.0181 31.1394C93.7391 31.037 93.3435 30.837 93.0774 30.6967C92.5351 30.4263 91.7631 30.0213 91.2691 29.6911C89.8059 28.815 88.4522 27.7336 87.1955 26.6142C86.7123 26.1451 86.2202 25.6817 85.745 25.2069C84.9929 24.3799 83.8418 23.1139 83.0478 22.338C76.5708 15.846 68.8301 12.841 60.1855 17.9464C59.0491 18.6076 57.9592 19.3515 56.9274 20.1675C55.8987 20.9908 54.9063 21.8373 53.6265 22.457C54.2556 21.2314 55.2477 20.303 56.3027 19.46C66.002 11.5223 75.5232 12.9811 84.03 21.4434C84.8381 22.2247 85.9852 23.4844 86.7563 24.3218C88.7851 26.3645 91.0856 28.2295 93.7323 29.5146C94.3073 29.8302 95.1324 30.1318 95.7381 30.3943C96.2669 30.5594 96.8337 30.7637 97.3655 30.9155C97.651 30.9816 98.5109 31.1891 98.7941 31.2558C99.1313 31.3102 99.9095 31.4275 100.249 31.4818C100.902 31.5396 101.557 31.6108 102.213 31.6193C104.52 31.669 106.854 31.3705 109.086 30.81L110.053 30.5685L110.415 31.7226L110.415 31.7218Z" fill="white"/>
<path d="M119.092 50.1623L118.847 48.9805C119.734 48.8113 120.273 48.5364 120.545 48.1152C120.855 47.6343 120.858 46.8754 120.554 45.8595C120.485 45.6294 120.566 45.3813 120.762 45.228C120.879 45.136 120.99 45.0394 121.09 44.9412C121.897 44.1525 121.983 42.9098 121.295 41.9863C121.168 41.816 121.144 41.5951 121.23 41.4025C123.693 35.9369 124.879 30.0368 124.964 22.8335C124.972 22.1269 124.757 21.4483 124.344 20.8715C118.337 12.4963 109.885 6.75305 97.7451 2.79653C97.3611 2.67126 96.9669 2.61264 96.5732 2.62189C90.2427 2.77282 82.9943 4.31154 73.7576 7.46193C70.7892 8.50751 68.461 10.4149 66.6465 13.2916L65.5569 12.6765C67.5275 9.55348 70.0692 7.47744 73.3274 6.33001C82.7022 3.13298 90.0794 1.57347 96.5478 1.41752C97.0933 1.40432 97.6368 1.48496 98.1641 1.65665C110.575 5.7015 119.229 11.5908 125.397 20.1903C125.957 20.9711 126.246 21.8878 126.235 22.8411C126.151 30.0799 124.972 36.0445 122.531 41.5782C123.351 42.9368 123.151 44.6542 122.001 45.7783C121.962 45.8171 121.921 45.8554 121.879 45.8938C122.176 47.0871 122.093 48.0212 121.629 48.7401C121.165 49.4595 120.335 49.9247 119.092 50.1619L119.092 50.1623Z" fill="white"/>
<path d="M112.697 33.5907L111.477 33.2563C113.673 26.1742 112.981 16.6403 112.133 9.12497L113.397 8.99018C114.311 17.0898 114.943 26.3462 112.697 33.5903L112.697 33.5907Z" fill="white"/>
</svg>
