<svg width="174" height="240" viewBox="0 0 174 240" fill="none" xmlns="http://www.w3.org/2000/svg">
<rect width="174" height="240" fill="none"/>
<path d="M65.0459 30.8585C64.1026 30.8615 63.2854 30.205 63.0851 29.2832L59.8645 14.4618C59.5154 12.8549 61.1469 11.5366 62.6447 12.2156L71.1152 16.0553C71.7005 16.3207 72.3778 16.2885 72.9354 15.969L84.5133 9.33382C86.0893 8.43058 88.0313 8.45322 89.5859 9.39295L100.36 15.9059C100.949 16.2618 101.68 16.2901 102.294 15.9807L109.711 12.2469C111.136 11.5298 112.785 12.6868 112.596 14.2704L110.843 28.9551C110.723 29.9584 109.874 30.7148 108.864 30.718L65.0459 30.8585Z" fill="#FFDC3E"/>
<path d="M59.2462 10.8189C60.9501 10.8189 62.3314 9.60839 62.3314 8.11514C62.3314 6.62189 60.9501 5.41138 59.2462 5.41138C57.5423 5.41138 56.161 6.62189 56.161 8.11514C56.161 9.60839 57.5423 10.8189 59.2462 10.8189Z" fill="#FFDC3E"/>
<path d="M87 7.20209C88.7039 7.20209 90.0852 5.99157 90.0852 4.49832C90.0852 3.00507 88.7039 1.79456 87 1.79456C85.2961 1.79456 83.9148 3.00507 83.9148 4.49832C83.9148 5.99157 85.2961 7.20209 87 7.20209Z" fill="#FFDC3E"/>
<path d="M114.754 10.8189C116.458 10.8189 117.839 9.60839 117.839 8.11514C117.839 6.62189 116.458 5.41138 114.754 5.41138C113.05 5.41138 111.669 6.62189 111.669 8.11514C111.669 9.60839 113.05 10.8189 114.754 10.8189Z" fill="#FFDC3E"/>
</svg>
