<svg width="174" height="240" viewBox="0 0 174 240" fill="none" xmlns="http://www.w3.org/2000/svg">
<rect width="174" height="240" fill="none"/>
<path d="M70.3681 49.7397C70.2938 49.7397 70.2194 49.734 70.1393 49.7168L56.9089 46.691C56.2968 46.5651 55.9021 45.9645 56.0223 45.3525C56.1481 44.7404 56.743 44.3457 57.3607 44.4659L70.5912 47.4918C71.2032 47.6176 71.5979 48.2182 71.4778 48.8302C71.3691 49.3679 70.8944 49.7397 70.3681 49.7397Z" fill="#0F1031"/>
<path d="M103.253 49.7395C102.721 49.7395 102.252 49.3677 102.143 48.83C102.017 48.218 102.412 47.6174 103.029 47.4916L116.637 44.8432C117.255 44.7174 117.85 45.112 117.976 45.7298C118.102 46.3418 117.707 46.9424 117.089 47.0683L103.481 49.7166C103.407 49.7338 103.327 49.7395 103.253 49.7395Z" fill="#0F1031"/>
<path d="M95.3132 53.1432H93.0423C93.0423 51.5301 90.4798 49.7398 86.8018 49.7398C83.1238 49.7398 80.5612 51.5301 80.5612 53.1432H78.2904C78.2904 49.9628 82.0256 47.4746 86.7961 47.4746C91.5666 47.4746 95.3018 49.9686 95.3018 53.1432" fill="#0F1031"/>
<path d="M84.3536 52.0105C84.3536 56.6037 80.6299 60.3275 76.0367 60.3275C71.4435 60.3275 67.7198 56.6037 67.7198 52.0105C67.7198 47.4173 71.4435 43.6936 76.0367 43.6936C80.6299 43.6936 84.3536 47.4173 84.3536 52.0105Z" fill="#0F1031"/>
<path d="M105.901 52.0105C105.901 56.6037 102.177 60.3275 97.5841 60.3275C92.9909 60.3275 89.2671 56.6037 89.2671 52.0105C89.2671 47.4173 92.9909 43.6936 97.5841 43.6936C102.177 43.6936 105.901 47.4173 105.901 52.0105Z" fill="#0F1031"/>
<mask id="mask0_1465_102759" style="mask-type:luminance" maskUnits="userSpaceOnUse" x="69" y="45" width="14" height="14">
<path d="M69.1268 54.1496C69.8361 56.4433 71.6607 58.2451 73.9659 58.9372L82.9578 49.9454C82.2714 47.6402 80.4638 45.8155 78.1701 45.1062L69.1211 54.1553L69.1268 54.1496Z" fill="white"/>
</mask>
<g mask="url(#mask0_1465_102759)">
<path d="M82.9576 45.1062H69.1266V58.9372H82.9576V45.1062Z" fill="#504F63"/>
</g>
<mask id="mask1_1465_102759" style="mask-type:luminance" maskUnits="userSpaceOnUse" x="90" y="44" width="15" height="16">
<path d="M104.69 52.7662C105.125 48.7969 102.261 45.2262 98.2914 44.7908C94.3221 44.3554 90.7514 47.2202 90.316 51.1894C89.8806 55.1587 92.7454 58.7294 96.7147 59.1648C100.684 59.6002 104.255 56.7355 104.69 52.7662Z" fill="white"/>
</mask>
<g mask="url(#mask1_1465_102759)">
<path d="M95.5133 58.9376C93.2081 58.2512 91.3834 56.4437 90.6742 54.1499L99.7232 45.1008C102.017 45.8101 103.819 47.6348 104.511 49.94L95.5133 58.9376Z" fill="#504F63"/>
</g>
</svg>
