<svg width="174" height="240" viewBox="0 0 174 240" fill="none" xmlns="http://www.w3.org/2000/svg">
<rect width="174" height="240" fill="none"/>
<path d="M126.165 74.8958C125.871 74.385 125.577 73.8742 125.283 73.3611C125.084 73.0167 124.881 72.6724 124.692 72.3212C124.489 71.9426 124.33 71.5459 124.184 71.14C124.106 70.9279 124.033 70.7113 123.985 70.4901C123.908 70.1275 123.853 69.7627 123.791 69.3955C123.693 68.7844 123.598 68.1754 123.504 67.5643C123.497 67.5209 123.479 67.505 123.438 67.4936C123.162 67.4252 122.907 67.4662 122.676 67.6304C122.494 67.7604 122.316 67.8927 122.138 68.0273C122.004 68.1276 121.853 68.1755 121.687 68.18C121.518 68.1823 121.356 68.1457 121.199 68.0887C120.934 67.9907 120.708 68.0501 120.508 68.2462C120.476 68.2781 120.473 68.2985 120.496 68.335C120.968 69.1423 121.438 69.9519 121.908 70.7592C121.981 70.8823 122.065 71.0054 122.113 71.1377C122.332 71.7534 122.542 72.3759 122.756 72.9962C122.765 73.0213 122.772 73.0464 122.774 73.0738C122.936 74.3736 123.096 75.6758 123.258 76.9779C123.262 77.0121 123.274 77.0371 123.303 77.053C123.406 77.1101 123.506 77.1762 123.611 77.2241C124.113 77.4567 124.631 77.516 125.21 77.3244C125.871 77.069 126.377 76.5833 126.713 75.9128C126.729 75.8832 126.722 75.8627 126.706 75.8353C126.523 75.5229 126.343 75.2105 126.163 74.8958H126.165ZM124.045 71.5664C124.073 71.6409 124.054 71.7017 123.988 71.7489C123.874 71.8264 123.764 71.9039 123.648 71.9837C123.604 71.856 123.561 71.7329 123.518 71.6074C123.661 71.5231 123.805 71.4387 123.956 71.3498C123.988 71.425 124.015 71.4957 124.045 71.5664ZM122.27 70.3828C122.264 70.2711 122.291 70.1685 122.339 70.0682C122.373 69.9998 122.409 69.9313 122.439 69.8606C122.505 69.7078 122.489 69.5596 122.419 69.4137C122.384 69.3452 122.332 69.3179 122.275 69.3407C122.209 69.3658 122.152 69.4548 122.163 69.5163C122.179 69.5939 122.232 69.6166 122.33 69.5847C122.295 69.7078 122.181 69.7467 122.086 69.6806C122.022 69.635 121.992 69.5688 121.981 69.4935C121.965 69.3818 121.988 69.2792 122.026 69.1743C122.061 69.0808 122.097 68.9872 122.129 68.8914C122.154 68.8185 122.152 68.7433 122.124 68.6703C122.104 68.6156 122.065 68.5836 122.015 68.5859C121.965 68.5882 121.928 68.6156 121.91 68.6612C121.89 68.7113 121.899 68.7821 121.935 68.8071C121.956 68.8208 121.99 68.8276 122.013 68.8231C122.051 68.8117 122.061 68.8322 122.063 68.8618C122.072 68.9302 121.997 68.9895 121.928 68.9667C121.917 68.9621 121.906 68.9576 121.894 68.9508C121.794 68.8801 121.735 68.6201 121.796 68.513C121.828 68.4582 121.878 68.4376 121.937 68.4354C122.02 68.4331 122.093 68.4605 122.156 68.5084C122.177 68.4651 122.191 68.4217 122.213 68.3852C122.27 68.3032 122.357 68.2872 122.437 68.3465C122.542 68.4263 122.608 68.5334 122.631 68.6634C122.638 68.6976 122.626 68.7455 122.606 68.7706C122.585 68.7934 122.542 68.8048 122.51 68.8048C122.471 68.8048 122.444 68.7752 122.439 68.7341C122.512 68.6771 122.521 68.6543 122.503 68.6018C122.482 68.5471 122.423 68.5084 122.368 68.513C122.298 68.5198 122.252 68.5768 122.273 68.6452C122.293 68.7251 122.341 68.7889 122.412 68.8276C122.508 68.8778 122.603 68.9234 122.699 68.969C122.793 69.0124 122.879 69.0648 122.943 69.1492C122.993 69.2131 123.025 69.286 123.012 69.3681C122.993 69.489 122.884 69.5414 122.772 69.4798C122.783 69.473 122.793 69.4661 122.802 69.4615C122.838 69.4456 122.861 69.4183 122.861 69.3773C122.861 69.3362 122.845 69.2952 122.804 69.2769C122.772 69.2632 122.738 69.2518 122.704 69.2518C122.615 69.2495 122.565 69.3089 122.585 69.3955C122.624 69.5483 122.711 69.6668 122.854 69.7352C122.932 69.774 123.018 69.7991 123.1 69.8264C123.226 69.872 123.333 69.9427 123.411 70.0545C123.509 70.1959 123.502 70.4262 123.392 70.5584C123.29 70.6839 123.141 70.6907 123.034 70.5676C122.996 70.5242 122.966 70.4718 122.945 70.4194C122.907 70.3281 122.945 70.2483 123.005 70.1731C123.009 70.2141 123.007 70.2529 123.016 70.2871C123.032 70.3509 123.082 70.3784 123.146 70.3556C123.173 70.3464 123.201 70.3327 123.224 70.3145C123.306 70.2506 123.313 70.1525 123.228 70.0932C123.176 70.0545 123.112 70.0271 123.05 70.0066C122.884 69.9541 122.806 69.9132 122.683 69.79C122.681 69.7923 122.674 69.7945 122.672 69.799C122.608 69.9313 122.539 70.0591 122.48 70.1913C122.455 70.2438 122.437 70.3031 122.428 70.3601C122.416 70.4285 122.46 70.4855 122.519 70.5014C122.587 70.5219 122.699 70.4878 122.72 70.4331C122.731 70.4057 122.726 70.3669 122.715 70.3373C122.701 70.3054 122.672 70.2802 122.649 70.2551C122.726 70.2437 122.822 70.2939 122.852 70.3715C122.877 70.4331 122.895 70.4992 122.895 70.5653C122.9 70.7181 122.786 70.8116 122.635 70.7934C122.441 70.7683 122.277 70.5904 122.264 70.3874L122.27 70.3828ZM122.711 71.7717C122.866 71.758 123.021 71.7443 123.178 71.7284C123.224 71.8606 123.269 71.9928 123.315 72.1251C123.308 72.1251 123.299 72.1297 123.292 72.1274C123.148 72.116 123.002 72.1023 122.859 72.0886C122.843 72.0886 122.82 72.0749 122.815 72.0635C122.779 71.9678 122.747 71.872 122.713 71.7693L122.711 71.7717ZM124.519 72.9346C124.564 73.1421 124.596 73.3496 124.59 73.5617C124.587 73.6347 124.569 73.7077 124.542 73.7738C124.507 73.8559 124.432 73.8924 124.343 73.8879C124.216 73.881 124.074 73.7738 124.047 73.6644C124.154 73.6895 124.227 73.6644 124.279 73.5869C124.336 73.5025 124.307 73.409 124.211 73.3748C124.079 73.3292 123.855 73.3862 123.762 73.4888C123.7 73.5572 123.689 73.6462 123.748 73.7192C123.791 73.7716 123.848 73.8217 123.908 73.8513C124.013 73.9015 124.127 73.9335 124.238 73.9723C124.284 73.9882 124.332 74.0042 124.38 74.0133C124.542 74.0453 124.635 74.1501 124.692 74.2961C124.781 74.5195 124.815 74.7521 124.774 74.987C124.761 75.0691 124.72 75.1444 124.688 75.2219C124.658 75.2926 124.615 75.3587 124.592 75.4317C124.576 75.4819 124.58 75.5389 124.585 75.5914C124.587 75.6301 124.619 75.6438 124.658 75.6438C124.772 75.6438 124.838 75.5594 124.82 75.4454C124.904 75.5092 124.932 75.6233 124.877 75.7168C124.852 75.7624 124.808 75.7943 124.777 75.8399C124.761 75.8604 124.745 75.8924 124.751 75.9106C124.765 75.9403 124.795 75.9403 124.827 75.9197C124.868 75.8947 124.92 75.9266 124.929 75.9813C124.936 76.0246 124.936 76.068 124.941 76.1136C124.948 76.2071 124.957 76.3006 124.966 76.3941C124.856 76.2687 124.761 76.1386 124.701 75.9881C124.679 75.9311 124.658 75.8833 124.608 75.8377C124.455 75.7009 124.423 75.4385 124.528 75.2607C124.533 75.2515 124.539 75.2425 124.544 75.2311C124.498 75.2197 124.453 75.2151 124.412 75.1969C124.19 75.1011 124.04 74.9369 123.956 74.7134C123.944 74.6837 123.94 74.6495 123.94 74.6153C123.937 74.5172 123.988 74.4534 124.081 74.426C124.213 74.3895 124.364 74.4603 124.403 74.5811C124.389 74.5811 124.375 74.5833 124.364 74.5879C124.327 74.5993 124.289 74.6062 124.254 74.6244C124.197 74.6541 124.175 74.7156 124.19 74.7726C124.206 74.8274 124.257 74.8593 124.323 74.857C124.425 74.857 124.539 74.7749 124.574 74.6769C124.608 74.5834 124.574 74.4534 124.482 74.3896C124.416 74.3417 124.341 74.3029 124.266 74.2732C124.12 74.2162 123.969 74.1661 123.819 74.1137C123.673 74.0612 123.545 73.9745 123.461 73.8468C123.372 73.7099 123.299 73.5641 123.224 73.4204C123.189 73.3543 123.208 73.2835 123.262 73.2379C123.31 73.1992 123.37 73.165 123.429 73.1445C123.645 73.067 123.862 72.9986 124.076 72.9256C124.115 72.9119 124.147 72.8868 124.186 72.8708C124.234 72.8526 124.284 72.832 124.334 72.8252C124.435 72.8092 124.485 72.8457 124.505 72.9437L124.519 72.9346Z" fill="#FBA819"/>
<path d="M123.762 67.0443C123.728 67.0215 123.687 67.0055 123.648 66.9918C123.611 66.9804 123.572 66.9735 123.536 66.9621C123.479 66.9461 123.474 66.9302 123.513 66.8846C123.552 66.8413 123.552 66.8003 123.515 66.7501C123.497 66.725 123.472 66.7068 123.456 66.684C123.44 66.6634 123.422 66.6406 123.417 66.6178C123.401 66.5403 123.37 66.5083 123.29 66.4969C123.276 66.4969 123.262 66.4946 123.249 66.4923C123.23 66.3737 123.151 66.3191 123.046 66.2986C122.986 66.2872 122.923 66.2871 122.861 66.2871C122.736 66.2894 122.612 66.2986 122.487 66.3031C121.785 66.3259 121.139 66.5243 120.555 66.9188C120.375 67.0397 120.207 67.1719 120.056 67.327C119.995 67.3908 119.99 67.4387 120.036 67.5163C120.042 67.53 120.052 67.5459 120.061 67.555C120.09 67.5824 120.086 67.6075 120.072 67.6417C120.017 67.7648 120.052 67.8447 120.172 67.8994C120.179 67.9017 120.184 67.9062 120.188 67.9108C120.138 67.9655 120.09 68.0203 120.04 68.0705C120.001 68.1092 120.001 68.1434 120.04 68.1799C120.122 68.2575 120.207 68.3304 120.289 68.408C120.357 68.335 120.412 68.2688 120.473 68.2095C120.565 68.1183 120.672 68.0453 120.797 68.0111C120.952 67.9678 121.103 67.9906 121.253 68.0362C121.374 68.0727 121.497 68.1046 121.62 68.1206C121.805 68.1457 121.974 68.0955 122.122 67.9769C122.266 67.8629 122.412 67.7534 122.56 67.6462C122.688 67.555 122.822 67.4753 122.975 67.4342C123.16 67.3863 123.342 67.4045 123.522 67.4547C123.547 67.4615 123.568 67.4661 123.586 67.441C123.655 67.3544 123.725 67.2677 123.789 67.1788C123.832 67.1195 123.823 67.0785 123.759 67.0397V67.0465L123.762 67.0443ZM121.86 67.1651C121.329 67.368 120.781 67.4433 120.213 67.3772C120.229 67.3156 120.259 67.3019 120.314 67.3087C120.92 67.3703 121.5 67.2608 122.054 67.01C122.373 66.8663 122.672 66.684 122.936 66.4513C122.975 66.4171 122.996 66.4514 123.037 66.465C122.681 66.7729 122.291 67.0009 121.86 67.1651Z" fill="#FBA819"/>
<path d="M121.538 66.9211C121.614 66.9211 121.677 66.864 121.682 66.7865C121.689 66.6998 121.823 64.6498 120.756 62.7115C120.717 62.6431 120.628 62.6157 120.56 62.6545C120.492 62.6932 120.464 62.7821 120.503 62.8505C121.527 64.7114 121.395 66.7455 121.395 66.766C121.388 66.8458 121.449 66.9142 121.529 66.9188H121.541L121.538 66.9211Z" fill="#2D0707"/>
<path d="M46.8312 74.8958C47.1254 74.385 47.4195 73.8742 47.7137 73.3611C47.9121 73.0167 48.1151 72.6724 48.3043 72.3212C48.5073 71.9426 48.6669 71.5459 48.8129 71.14C48.8904 70.9279 48.9634 70.7113 49.0113 70.4901C49.0888 70.1275 49.1435 69.7627 49.2051 69.3955C49.3031 68.7844 49.3989 68.1754 49.4924 67.5643C49.4993 67.5209 49.5175 67.505 49.5586 67.4936C49.8345 67.4252 50.0899 67.4662 50.3202 67.6304C50.5026 67.7604 50.6805 67.8927 50.8584 68.0273C50.9929 68.1276 51.1434 68.1755 51.3099 68.18C51.4786 68.1823 51.6406 68.1457 51.7979 68.0887C52.0624 67.9907 52.2882 68.0501 52.4889 68.2462C52.5208 68.2781 52.5231 68.2985 52.5003 68.335C52.0282 69.1423 51.5585 69.9519 51.0887 70.7592C51.0157 70.8823 50.9313 71.0054 50.8835 71.1377C50.6645 71.7534 50.4548 72.3759 50.2404 72.9962C50.2313 73.0213 50.2244 73.0464 50.2222 73.0738C50.0603 74.3736 49.9006 75.6758 49.7387 76.9779C49.7342 77.0121 49.7227 77.0371 49.6931 77.053C49.5905 77.1101 49.4901 77.1762 49.3852 77.2241C48.8836 77.4567 48.3659 77.516 47.7867 77.3244C47.1254 77.069 46.6191 76.5833 46.2839 75.9128C46.2679 75.8832 46.2748 75.8627 46.2908 75.8353C46.4732 75.5229 46.6533 75.2105 46.8335 74.8958H46.8312ZM48.952 71.5664C48.9231 71.6409 48.9421 71.7017 49.009 71.7489C49.123 71.8264 49.2324 71.9039 49.3488 71.9837C49.3921 71.856 49.4354 71.7329 49.4787 71.6074C49.3351 71.5231 49.1914 71.4387 49.0409 71.3498C49.009 71.425 48.9816 71.4957 48.952 71.5664ZM50.7261 70.3828C50.733 70.2711 50.7056 70.1685 50.6577 70.0682C50.6235 69.9998 50.587 69.9313 50.5574 69.8606C50.4912 69.7078 50.5072 69.5596 50.5779 69.4137C50.6121 69.3452 50.6645 69.3179 50.7216 69.3407C50.7877 69.3658 50.8447 69.4548 50.8333 69.5163C50.8173 69.5939 50.7649 69.6166 50.6668 69.5847C50.701 69.7078 50.815 69.7467 50.9108 69.6806C50.9747 69.635 51.0043 69.5688 51.0157 69.4935C51.0317 69.3818 51.0089 69.2792 50.9701 69.1743C50.9359 69.0808 50.8994 68.9872 50.8675 68.8914C50.8424 68.8185 50.8447 68.7433 50.8721 68.6703C50.8926 68.6156 50.9314 68.5836 50.9815 68.5859C51.0317 68.5882 51.0682 68.6156 51.0864 68.6612C51.1069 68.7113 51.0978 68.7821 51.0613 68.8071C51.0408 68.8208 51.0066 68.8276 50.9838 68.8231C50.945 68.8117 50.9359 68.8322 50.9336 68.8618C50.9245 68.9302 50.9998 68.9895 51.0682 68.9667C51.0796 68.9621 51.091 68.9576 51.1024 68.9508C51.2027 68.8801 51.262 68.6201 51.2004 68.513C51.1685 68.4582 51.1183 68.4376 51.0591 68.4354C50.977 68.4331 50.904 68.4605 50.8401 68.5084C50.8196 68.4651 50.8059 68.4217 50.7831 68.3852C50.7261 68.3032 50.6395 68.2872 50.5597 68.3465C50.4548 68.4263 50.3886 68.5334 50.3658 68.6634C50.359 68.6976 50.3704 68.7455 50.3909 68.7706C50.4114 68.7934 50.4547 68.8048 50.4867 68.8048C50.5254 68.8048 50.5528 68.7752 50.5574 68.7341C50.4844 68.6771 50.4753 68.6543 50.4935 68.6018C50.514 68.5471 50.5733 68.5084 50.6281 68.513C50.6987 68.5198 50.7444 68.5768 50.7238 68.6452C50.7033 68.7251 50.6554 68.7889 50.5847 68.8276C50.489 68.8778 50.3932 68.9234 50.2974 68.969C50.2039 69.0124 50.1173 69.0648 50.0534 69.1492C50.0032 69.2131 49.9713 69.286 49.985 69.3681C50.0032 69.489 50.1127 69.5414 50.2244 69.4798C50.213 69.473 50.2039 69.4661 50.1948 69.4615C50.1583 69.4456 50.1355 69.4183 50.1355 69.3773C50.1355 69.3362 50.1515 69.2952 50.1925 69.2769C50.2244 69.2632 50.2586 69.2518 50.2928 69.2518C50.3818 69.2495 50.4319 69.3089 50.4114 69.3955C50.3727 69.5483 50.286 69.6668 50.1423 69.7352C50.0648 69.774 49.9781 69.7991 49.8961 69.8264C49.7706 69.872 49.6635 69.9427 49.5859 70.0545C49.4879 70.1959 49.4947 70.4262 49.6042 70.5584C49.7068 70.6839 49.855 70.6907 49.9622 70.5676C50.001 70.5242 50.0306 70.4718 50.0511 70.4194C50.0899 70.3281 50.0511 70.2483 49.9918 70.1731C49.9873 70.2141 49.9895 70.2529 49.9804 70.2871C49.9645 70.3509 49.9143 70.3784 49.8505 70.3556C49.8231 70.3464 49.7957 70.3327 49.7729 70.3145C49.6908 70.2506 49.684 70.1525 49.7684 70.0932C49.8208 70.0545 49.8846 70.0271 49.9462 70.0066C50.1127 69.9541 50.1902 69.9132 50.3134 69.79C50.3156 69.7923 50.3225 69.7945 50.3248 69.799C50.3886 69.9313 50.457 70.0591 50.5163 70.1913C50.5414 70.2438 50.5596 70.3031 50.5688 70.3601C50.5802 70.4285 50.5369 70.4855 50.4776 70.5014C50.4092 70.5219 50.2974 70.4878 50.2769 70.4331C50.2655 70.4057 50.2701 70.3669 50.2815 70.3373C50.2951 70.3054 50.3248 70.2802 50.3476 70.2551C50.27 70.2437 50.1743 70.2939 50.1446 70.3715C50.1195 70.4331 50.1013 70.4992 50.1013 70.5653C50.0967 70.7181 50.2108 70.8116 50.3613 70.7934C50.5551 70.7683 50.7193 70.5904 50.733 70.3874L50.7261 70.3828ZM50.286 71.7717C50.1309 71.758 49.9759 71.7443 49.8185 71.7284C49.7729 71.8606 49.7273 71.9928 49.6817 72.1251C49.6885 72.1251 49.6977 72.1297 49.7045 72.1274C49.8482 72.116 49.9941 72.1023 50.1378 72.0886C50.1538 72.0886 50.1765 72.0749 50.1811 72.0635C50.2176 71.9678 50.2495 71.872 50.2837 71.7693L50.286 71.7717ZM48.4776 72.9346C48.432 73.1421 48.4001 73.3496 48.4069 73.5617C48.4092 73.6347 48.4275 73.7077 48.4549 73.7738C48.4891 73.8559 48.5643 73.8924 48.6532 73.8879C48.7809 73.881 48.9223 73.7738 48.9497 73.6644C48.8425 73.6895 48.7695 73.6644 48.7171 73.5869C48.6601 73.5025 48.6897 73.409 48.7855 73.3748C48.9178 73.3292 49.1412 73.3862 49.2347 73.4888C49.2963 73.5572 49.3077 73.6462 49.2484 73.7192C49.2051 73.7716 49.1481 73.8217 49.0888 73.8513C48.9839 73.9015 48.8699 73.9335 48.7581 73.9723C48.7125 73.9882 48.6646 74.0042 48.6167 74.0133C48.4548 74.0453 48.3613 74.1501 48.3043 74.2961C48.2154 74.5195 48.1812 74.7521 48.2222 74.987C48.2359 75.0691 48.277 75.1444 48.3089 75.2219C48.3385 75.2926 48.3819 75.3587 48.4047 75.4317C48.4206 75.4819 48.4161 75.5389 48.4115 75.5914C48.4092 75.6301 48.3773 75.6438 48.3385 75.6438C48.2245 75.6438 48.1584 75.5594 48.1766 75.4454C48.0922 75.5092 48.0649 75.6233 48.1196 75.7168C48.1447 75.7624 48.188 75.7943 48.22 75.8399C48.2359 75.8604 48.2519 75.8924 48.245 75.9106C48.2314 75.9403 48.2017 75.9403 48.1698 75.9197C48.1288 75.8947 48.0763 75.9266 48.0672 75.9813C48.0603 76.0246 48.0603 76.068 48.0558 76.1136C48.0489 76.2071 48.0398 76.3006 48.0307 76.3941C48.1401 76.2687 48.2359 76.1386 48.2952 75.9881C48.318 75.9311 48.3385 75.8833 48.3887 75.8377C48.5415 75.7009 48.5734 75.4385 48.4685 75.2607C48.464 75.2515 48.4571 75.2425 48.4526 75.2311C48.4982 75.2197 48.5438 75.2151 48.5848 75.1969C48.806 75.1011 48.9565 74.9369 49.0409 74.7134C49.0523 74.6837 49.0569 74.6495 49.0569 74.6153C49.0591 74.5172 49.009 74.4534 48.9155 74.426C48.7832 74.3895 48.6327 74.4603 48.594 74.5811C48.6076 74.5811 48.6213 74.5833 48.6327 74.5879C48.6692 74.5993 48.708 74.6062 48.7422 74.6244C48.7992 74.6541 48.822 74.7156 48.806 74.7726C48.7901 74.8274 48.7399 74.8593 48.6738 74.857C48.5711 74.857 48.4571 74.7749 48.4229 74.6769C48.3887 74.5834 48.4229 74.4534 48.5141 74.3896C48.5803 74.3417 48.6555 74.3029 48.7308 74.2732C48.8767 74.2162 49.0272 74.1661 49.1777 74.1137C49.3237 74.0612 49.4514 73.9745 49.5358 73.8468C49.6247 73.7099 49.6976 73.5641 49.7729 73.4204C49.8071 73.3543 49.7889 73.2835 49.7342 73.2379C49.6863 73.1992 49.627 73.165 49.5677 73.1445C49.351 73.067 49.1344 72.9986 48.92 72.9256C48.8813 72.9119 48.8493 72.8868 48.8106 72.8708C48.7627 72.8526 48.7125 72.832 48.6623 72.8252C48.562 72.8092 48.5118 72.8457 48.4913 72.9437L48.4776 72.9346Z" fill="#FBA819"/>
<path d="M49.2348 67.0443C49.269 67.0215 49.31 67.0055 49.3488 66.9918C49.3853 66.9804 49.424 66.9735 49.4605 66.9621C49.5175 66.9461 49.5221 66.9302 49.4833 66.8846C49.4446 66.8413 49.4446 66.8003 49.4811 66.7501C49.4993 66.725 49.5244 66.7068 49.5404 66.684C49.5563 66.6634 49.5745 66.6406 49.5791 66.6178C49.5951 66.5403 49.627 66.5083 49.7068 66.4969C49.7205 66.4969 49.7342 66.4946 49.7479 66.4923C49.7661 66.3737 49.8459 66.3191 49.9508 66.2986C50.0101 66.2872 50.074 66.2871 50.1355 66.2871C50.261 66.2894 50.3841 66.2986 50.5095 66.3031C51.2119 66.3259 51.8572 66.5243 52.441 66.9188C52.6212 67.0397 52.7899 67.1719 52.9404 67.327C53.002 67.3908 53.0066 67.4387 52.961 67.5163C52.9541 67.53 52.945 67.5459 52.9359 67.555C52.9062 67.5824 52.9108 67.6075 52.9245 67.6417C52.9792 67.7648 52.945 67.8447 52.8241 67.8994C52.8173 67.9017 52.8127 67.9062 52.8082 67.9108C52.8583 67.9655 52.9062 68.0203 52.9564 68.0705C52.9952 68.1092 52.9952 68.1434 52.9564 68.1799C52.8743 68.2575 52.7899 68.3304 52.7078 68.408C52.6394 68.335 52.5847 68.2688 52.5231 68.2095C52.4319 68.1183 52.3247 68.0453 52.1993 68.0111C52.0442 67.9678 51.8937 67.9906 51.7432 68.0362C51.6223 68.0727 51.4992 68.1046 51.3761 68.1206C51.1914 68.1457 51.0226 68.0955 50.8744 67.9769C50.7307 67.8629 50.5848 67.7534 50.4365 67.6462C50.3088 67.555 50.1743 67.4753 50.0215 67.4342C49.8368 67.3863 49.6544 67.4045 49.4742 67.4547C49.4491 67.4615 49.4286 67.4661 49.4104 67.441C49.3419 67.3544 49.2713 67.2677 49.2074 67.1788C49.1641 67.1195 49.1732 67.0785 49.237 67.0397V67.0465L49.2348 67.0443ZM51.1366 67.1651C51.668 67.368 52.2153 67.4433 52.7831 67.3772C52.7671 67.3156 52.7375 67.3019 52.6827 67.3087C52.0761 67.3703 51.4969 67.2608 50.9428 67.01C50.6235 66.8663 50.3248 66.684 50.0603 66.4513C50.0215 66.4171 50.001 66.4514 49.9599 66.465C50.3157 66.7729 50.7056 67.0009 51.1366 67.1651Z" fill="#FBA819"/>
<path d="M51.4581 66.9211C51.3829 66.9211 51.319 66.864 51.3145 66.7865C51.3076 66.6998 51.1731 64.6498 52.2403 62.7115C52.2791 62.6431 52.368 62.6157 52.4364 62.6545C52.5049 62.6932 52.5322 62.7821 52.4935 62.8505C51.4696 64.7114 51.6018 66.7455 51.6018 66.766C51.6087 66.8458 51.5471 66.9142 51.4673 66.9188H51.4559L51.4581 66.9211Z" fill="#2D0707"/>
</svg>
