<svg width="174" height="240" viewBox="0 0 174 240" fill="none" xmlns="http://www.w3.org/2000/svg">
<rect width="174" height="240" fill="none"/>
<g opacity="0.9" filter="url(#filter0_d_1465_102844)">
<path d="M109.025 33.8306C109.025 33.8306 107.807 37.5498 112.024 38.195C114.78 38.6166 117.043 36.7311 117.043 36.7311C117.043 36.7311 115.476 33.1439 112.307 32.6589C109.826 32.2794 109.025 33.8306 109.025 33.8306Z" fill="#A4D233"/>
<path d="M117.043 36.7313C117.043 36.7313 115.476 33.144 112.307 32.659C110.653 32.406 109.741 33.0197 109.308 33.4556C108.613 32.6518 108.433 31.9827 108.437 31.9554C108.426 31.8422 108.324 31.7708 108.214 31.7539C108.186 31.7497 108.131 31.7413 108.1 31.7643C107.953 31.7978 107.873 31.9529 107.908 32.0976C107.923 32.1836 108.382 33.7882 110.327 35.09C113.117 37.1349 117.043 36.7313 117.043 36.7313Z" fill="#A4D233"/>
</g>
<g opacity="0.9" filter="url(#filter1_d_1465_102844)">
<path d="M106.136 34.3039C106.136 34.3039 103.296 36.997 106.7 39.5693C108.924 41.2505 111.811 40.6675 111.811 40.6675C111.811 40.6675 112.138 36.7667 109.58 34.8333C107.578 33.3202 106.136 34.3039 106.136 34.3039Z" fill="#A4D233"/>
<path d="M111.811 40.6675C111.811 40.6675 112.138 36.7667 109.58 34.8333C108.246 33.8246 107.152 33.931 106.563 34.1084C106.334 33.0709 106.494 32.3968 106.51 32.3748C106.555 32.27 106.499 32.1587 106.41 32.0915C106.388 32.0746 106.343 32.041 106.304 32.0462C106.16 32.0061 106.016 32.1045 105.977 32.2481C105.949 32.3309 105.591 33.9612 106.683 36.0309C108.165 39.1561 111.811 40.6675 111.811 40.6675Z" fill="#A4D233"/>
</g>
<g filter="url(#filter2_d_1465_102844)">
<path fill-rule="evenodd" clip-rule="evenodd" d="M101.072 25.5074C103.112 24.3299 103.926 21.185 103.926 21.185C103.926 21.185 101.079 19.5744 98.0355 21.0197C94.9916 22.465 95.5776 25.0243 95.5776 25.0243C95.5776 25.0243 98.13 27.2061 101.072 25.5074Z" fill="#A4D233"/>
<path fill-rule="evenodd" clip-rule="evenodd" d="M94.0372 26.4484C94.0565 26.4819 94.0758 26.5153 94.1285 26.5294C94.2919 26.658 94.5504 26.6425 94.679 26.4791C95.0839 26.0224 95.4748 25.6184 95.9377 25.262C96.6967 25.8045 98.7652 26.8392 101.072 25.5073C103.112 24.3298 103.926 21.1849 103.926 21.1849C103.926 21.1849 103.481 21.2635 102.73 21.4297C102.524 21.4593 97.1792 22.3163 94.0975 26.0124C93.983 26.1231 93.9599 26.3147 94.0372 26.4484Z" fill="#A4D233"/>
</g>
<g filter="url(#filter3_d_1465_102844)">
<path fill-rule="evenodd" clip-rule="evenodd" d="M69.135 36.6786C67.0956 37.8561 66.2812 41.001 66.2812 41.001C66.2812 41.001 69.1279 42.6117 72.1718 41.1663C75.2156 39.721 74.6296 37.1618 74.6296 37.1618C74.6296 37.1618 72.0772 34.98 69.135 36.6786Z" fill="#A4D233"/>
<path fill-rule="evenodd" clip-rule="evenodd" d="M76.1698 35.7376C76.1505 35.7042 76.1312 35.6707 76.0784 35.6566C75.9151 35.528 75.6565 35.5436 75.528 35.7069C75.123 36.1636 74.7321 36.5676 74.2692 36.924C73.5102 36.3815 71.4418 35.3468 69.1348 36.6787C67.0954 37.8562 66.281 41.0011 66.281 41.0011C66.281 41.0011 66.7259 40.9225 67.477 40.7564C67.6828 40.7267 73.0278 39.8697 76.1095 36.1736C76.2239 36.063 76.247 35.8713 76.1698 35.7376Z" fill="#A4D233"/>
</g>
<g filter="url(#filter4_d_1465_102844)">
<path fill-rule="evenodd" clip-rule="evenodd" d="M60.8587 35.0456C58.6 35.7122 57.0712 38.5786 57.0712 38.5786C57.0712 38.5786 59.4611 40.8117 62.7589 40.1201C66.0568 39.4285 66.0869 36.8031 66.0869 36.8031C66.0869 36.8031 64.117 34.0839 60.8587 35.0456Z" fill="#A4D233"/>
<path fill-rule="evenodd" clip-rule="evenodd" d="M67.918 35.7796C67.9071 35.7425 67.8962 35.7055 67.8482 35.6794C67.7195 35.5161 67.4646 35.4706 67.3013 35.5993C66.8005 35.9484 66.3259 36.2495 65.7923 36.4875C65.1816 35.7822 63.4133 34.2915 60.8585 35.0456C58.5998 35.7122 57.071 38.5786 57.071 38.5786C57.071 38.5786 57.522 38.6065 58.291 38.621C58.498 38.6404 63.895 39.0601 67.7572 36.1893C67.8944 36.1086 67.9617 35.9277 67.918 35.7796Z" fill="#A4D233"/>
</g>
<g filter="url(#filter5_d_1465_102844)">
<path d="M62.4507 37.1839C62.1281 36.7557 61.9915 36.2274 62.066 35.6963C62.1406 35.1652 62.4177 34.6951 62.8456 34.3726C62.9611 34.2854 63.1135 34.214 63.2865 34.1533C63.1114 34.0988 62.9567 34.0327 62.8383 33.9498C61.9317 33.3149 61.7104 32.0607 62.3453 31.1538C62.9803 30.247 64.2346 30.026 65.1413 30.6608C65.2597 30.7437 65.3747 30.8665 65.4859 31.0125C65.4837 30.829 65.4989 30.6615 65.5412 30.5232C65.698 30.0105 66.0452 29.5892 66.5187 29.3377C66.9921 29.0859 67.5353 29.0338 68.0481 29.1904C69.1067 29.5141 69.7046 30.6386 69.3811 31.6971C69.3389 31.8347 69.2599 31.9809 69.1562 32.1311C69.3291 32.0727 69.4917 32.0373 69.6356 32.0348C70.7424 32.0155 71.6585 32.9001 71.678 34.0071C71.6853 34.4465 71.5507 34.8558 71.3161 35.1909C70.9596 35.6996 70.3729 36.0377 69.7057 36.0492C69.5618 36.0516 69.3983 36.0218 69.2235 35.9697C69.3323 36.1161 69.4162 36.2596 69.4631 36.3956C69.6804 37.0267 69.5638 37.6934 69.2073 38.2024C68.9727 38.5375 68.6339 38.8044 68.2185 38.9473C67.1719 39.3077 66.0272 38.7491 65.667 37.7025C65.6201 37.5665 65.5979 37.4018 65.5935 37.2192C65.4879 37.368 65.3774 37.4924 65.2626 37.5789C64.8342 37.9018 64.306 38.0381 63.775 37.9636C63.2436 37.8891 62.7733 37.6122 62.4507 37.1839Z" fill="#32B8DE"/>
<path fill-rule="evenodd" clip-rule="evenodd" d="M67.5645 32.4293C67.6545 32.1347 67.4889 31.8229 67.1943 31.733C66.8998 31.643 66.588 31.8087 66.4981 32.1032C66.4081 32.3977 66.5876 33.7175 66.5876 33.7175C66.5876 33.7175 67.4746 32.7238 67.5645 32.4293ZM68.4304 34.6674C68.7384 34.662 68.9836 34.4081 68.9782 34.1001C68.9727 33.7921 68.7189 33.5469 68.4109 33.5523C68.1029 33.5578 66.9032 34.1364 66.9032 34.1364C66.9032 34.1364 68.1225 34.6727 68.4304 34.6674ZM66.0918 33.8882C66.0918 33.8882 65.4207 32.7376 65.1684 32.5609C64.9161 32.3842 64.5684 32.4455 64.3918 32.6979C64.2151 32.9502 64.2764 33.2978 64.5287 33.4745C64.781 33.6512 66.0918 33.8882 66.0918 33.8882ZM67.2781 36.5281C67.5694 36.4279 67.724 36.1106 67.6238 35.8193C67.5236 35.528 66.6024 34.566 66.6024 34.566C66.6024 34.566 66.469 35.8913 66.5692 36.1825C66.6695 36.4736 66.9868 36.6283 67.2781 36.5281ZM65.2245 35.7712C65.4705 35.5859 66.1009 34.4126 66.1009 34.4126C66.1009 34.4126 64.7994 34.6952 64.5534 34.8805C64.3074 35.0658 64.2582 35.4156 64.4436 35.6614C64.6289 35.9074 64.9787 35.9566 65.2245 35.7712Z" fill="white"/>
</g>
<g filter="url(#filter6_d_1465_102844)">
<path d="M79.61 34.5934L79.7098 33.7L80.603 33.5999C81.7022 33.4765 82.5759 32.7827 82.9402 31.7428C83.3517 30.5683 82.9653 29.2879 81.957 28.5456L81.2335 28.0129L81.5934 27.1891C82.0675 26.1057 81.8424 24.9131 81.0062 24.0769C80.17 23.2407 78.9773 23.0155 77.8937 23.4894L77.0702 23.8496L76.5373 23.1258C75.795 22.1188 74.5144 21.7314 73.3399 22.1428C72.3003 22.5071 71.6061 23.3809 71.4831 24.48L71.3831 25.3732L70.4899 25.4733C69.3905 25.5964 68.5168 26.2907 68.1525 27.3302C67.7906 28.3634 68.0374 29.4772 68.7967 30.2365C68.9005 30.3403 69.0145 30.4381 69.1355 30.5272L69.8592 31.0601L69.4989 31.8838C69.0254 32.9675 69.2505 34.1601 70.0868 34.9963C70.923 35.8325 72.1156 36.0577 73.1992 35.5842L74.023 35.2239L74.5559 35.9476C75.296 36.9555 76.5788 37.342 77.7535 36.9308C78.793 36.5661 79.4871 35.6925 79.61 34.5934Z" fill="#DB307A"/>
<path fill-rule="evenodd" clip-rule="evenodd" d="M76.6589 31.5407C76.7384 31.8372 76.5624 32.1421 76.2658 32.2216C75.9693 32.3011 75.6642 32.1248 75.5849 31.8285C75.5056 31.5321 75.5465 29.5367 75.5465 29.5367C75.5465 29.5367 74.5843 31.2851 74.3672 31.5022C74.1503 31.7191 73.7981 31.7193 73.581 31.5022C73.3639 31.2851 73.3641 30.9329 73.581 30.716C73.7981 30.4989 75.5465 29.5367 75.5465 29.5367C75.5465 29.5367 73.5513 29.5778 73.2547 29.4983C72.9581 29.4188 72.7821 29.1139 72.8616 28.8173C72.9411 28.5208 73.246 28.3448 73.5425 28.4243C73.8391 28.5037 75.5465 29.5367 75.5465 29.5367C75.5465 29.5367 74.5135 27.8294 74.434 27.5328C74.3545 27.2362 74.5305 26.9313 74.8271 26.8519C75.1237 26.7724 75.4285 26.9484 75.508 27.245C75.5875 27.5415 75.5465 29.5367 75.5465 29.5367C75.5465 29.5367 76.5087 27.7883 76.7258 27.5712C76.9428 27.3541 77.2949 27.3541 77.512 27.5712C77.729 27.7883 77.729 28.1403 77.512 28.3574C77.2949 28.5745 75.5465 29.5367 75.5465 29.5367C75.5465 29.5367 77.5419 29.4959 77.8382 29.5752C78.1346 29.6544 78.3108 29.9595 78.2313 30.2561C78.1518 30.5527 77.847 30.7287 77.5504 30.6492C77.2538 30.5697 75.5465 29.5367 75.5465 29.5367C75.5465 29.5367 76.5792 31.2439 76.6589 31.5407Z" fill="white"/>
</g>
<g filter="url(#filter7_d_1465_102844)">
<path d="M108.655 35.1424C109.114 34.533 109.308 33.7812 109.202 33.0254C109.096 32.2696 108.702 31.6006 108.093 31.1416C107.928 31.0176 107.712 30.916 107.465 30.8295C107.715 30.7519 107.935 30.6579 108.103 30.5399C109.393 29.6365 109.708 27.8516 108.805 26.5611C107.901 25.2706 106.116 24.9561 104.826 25.8595C104.657 25.9775 104.494 26.1521 104.335 26.3599C104.339 26.0988 104.317 25.8605 104.257 25.6636C104.034 24.9339 103.54 24.3345 102.866 23.9766C102.192 23.6182 101.419 23.5442 100.689 23.7669C99.1828 24.2277 98.332 25.8278 98.7923 27.3342C98.8524 27.53 98.9648 27.7381 99.1124 27.9517C98.8663 27.8687 98.635 27.8183 98.4302 27.8148C96.8551 27.7873 95.5515 29.0462 95.5237 30.6215C95.5133 31.2468 95.7048 31.8292 96.0388 32.3061C96.5461 33.0301 97.3809 33.5112 98.3305 33.5275C98.5352 33.531 98.7679 33.4886 99.0166 33.4144C98.8618 33.6228 98.7424 33.8269 98.6757 34.0205C98.3664 34.9187 98.5324 35.8673 99.0396 36.5918C99.3735 37.0686 99.8556 37.4483 100.447 37.6517C101.936 38.1646 103.565 37.3697 104.078 35.8804C104.145 35.6868 104.176 35.4524 104.182 35.1925C104.333 35.4043 104.49 35.5813 104.653 35.7045C105.263 36.1639 106.015 36.3579 106.77 36.2519C107.527 36.1459 108.196 35.7518 108.655 35.1424Z" fill="#FFE700"/>
<path fill-rule="evenodd" clip-rule="evenodd" d="M101.378 28.376C101.25 27.9569 101.485 27.5132 101.904 27.3852C102.324 27.2572 102.767 27.4929 102.895 27.912C103.023 28.3312 102.768 30.2093 102.768 30.2093C102.768 30.2093 101.506 28.7952 101.378 28.376ZM100.145 31.5611C99.7071 31.5534 99.3581 31.1921 99.3658 30.7538C99.3736 30.3155 99.7349 29.9665 100.173 29.9742C100.611 29.982 102.319 30.8054 102.319 30.8054C102.319 30.8054 100.584 31.5686 100.145 31.5611ZM103.473 30.4522C103.473 30.4522 104.428 28.8148 104.787 28.5634C105.147 28.312 105.641 28.3992 105.893 28.7583C106.144 29.1174 106.057 29.6121 105.698 29.8635C105.339 30.1149 103.473 30.4522 103.473 30.4522ZM101.785 34.209C101.371 34.0664 101.151 33.6148 101.293 33.2003C101.436 32.7858 102.747 31.4168 102.747 31.4168C102.747 31.4168 102.937 33.3027 102.794 33.7172C102.651 34.1315 102.2 34.3516 101.785 34.209ZM104.708 33.1318C104.357 32.8682 103.46 31.1984 103.46 31.1984C103.46 31.1984 105.313 31.6007 105.663 31.8644C106.013 32.128 106.083 32.6258 105.819 32.9756C105.555 33.3257 105.057 33.3957 104.708 33.1318Z" fill="white"/>
</g>
<g filter="url(#filter8_d_1465_102844)">
<path d="M99.5352 27.8174C100.24 25.1214 97.2211 23.0247 96.0787 22.3413C96.2773 21.2086 96.7245 17.492 94.3539 16.1196C91.9971 14.7552 89.0289 16.9704 88.1323 17.7211C88.055 17.6727 87.9641 17.6175 87.8607 17.5577C86.6769 16.8724 83.7038 15.4917 81.6653 17.4672C79.4859 19.5782 80.7725 22.8731 81.262 23.9135C80.4283 24.6898 78.025 27.2305 79.0158 29.9321C79.2883 30.6768 79.7923 31.2662 80.5144 31.6842C82.0705 32.5851 84.2234 32.4398 85.0402 32.3431C85.4236 33.0691 86.5189 34.9344 88.0854 35.8413C88.7301 36.2145 89.3885 36.3867 90.0429 36.3528C92.7087 36.2145 93.8712 32.4941 94.1622 31.3677C95.2667 31.2148 98.8281 30.519 99.5352 27.8174Z" fill="#8F1D80"/>
<path fill-rule="evenodd" clip-rule="evenodd" d="M89.3537 25.523C89.3537 25.523 90.7763 28.684 89.4901 28.8859C88.2029 29.0867 88.9264 25.5688 88.9264 25.5688C88.9264 25.5688 86.1808 27.8881 85.78 26.7381C85.3787 25.5879 88.7531 25.1754 88.7531 25.1754C88.7531 25.1754 85.6693 23.3637 86.6708 22.5361C87.6722 21.7085 89.0706 24.8878 89.0706 24.8878C89.0706 24.8878 89.8213 21.4445 90.9315 22.0873C92.0418 22.73 89.4424 25.1031 89.4424 25.1031C89.4424 25.1031 92.8694 24.7211 92.6735 26.0111C92.4786 27.3013 89.3537 25.523 89.3537 25.523Z" fill="white"/>
</g>
<defs>
<filter id="filter0_d_1465_102844" x="107.9" y="31.7488" width="9.14307" height="8.50757" filterUnits="userSpaceOnUse" color-interpolation-filters="sRGB">
<feFlood flood-opacity="0" result="BackgroundImageFix"/>
<feColorMatrix in="SourceAlpha" type="matrix" values="0 0 0 0 0 0 0 0 0 0 0 0 0 0 0 0 0 0 127 0" result="hardAlpha"/>
<feOffset dy="2"/>
<feColorMatrix type="matrix" values="0 0 0 0 0 0 0 0 0 0 0 0 0 0 0 0 0 0 0.2 0"/>
<feBlend mode="normal" in2="BackgroundImageFix" result="effect1_dropShadow_1465_102844"/>
<feBlend mode="normal" in="SourceGraphic" in2="effect1_dropShadow_1465_102844" result="shape"/>
</filter>
<filter id="filter1_d_1465_102844" x="105.026" y="32.0371" width="6.79903" height="10.7283" filterUnits="userSpaceOnUse" color-interpolation-filters="sRGB">
<feFlood flood-opacity="0" result="BackgroundImageFix"/>
<feColorMatrix in="SourceAlpha" type="matrix" values="0 0 0 0 0 0 0 0 0 0 0 0 0 0 0 0 0 0 127 0" result="hardAlpha"/>
<feOffset dy="2"/>
<feColorMatrix type="matrix" values="0 0 0 0 0 0 0 0 0 0 0 0 0 0 0 0 0 0 0.2 0"/>
<feBlend mode="normal" in2="BackgroundImageFix" result="effect1_dropShadow_1465_102844"/>
<feBlend mode="normal" in="SourceGraphic" in2="effect1_dropShadow_1465_102844" result="shape"/>
</filter>
<filter id="filter2_d_1465_102844" x="93.9921" y="20.4175" width="9.93404" height="8.19775" filterUnits="userSpaceOnUse" color-interpolation-filters="sRGB">
<feFlood flood-opacity="0" result="BackgroundImageFix"/>
<feColorMatrix in="SourceAlpha" type="matrix" values="0 0 0 0 0 0 0 0 0 0 0 0 0 0 0 0 0 0 127 0" result="hardAlpha"/>
<feOffset dy="2"/>
<feColorMatrix type="matrix" values="0 0 0 0 0 0 0 0 0 0 0 0 0 0 0 0 0 0 0.2 0"/>
<feBlend mode="normal" in2="BackgroundImageFix" result="effect1_dropShadow_1465_102844"/>
<feBlend mode="normal" in="SourceGraphic" in2="effect1_dropShadow_1465_102844" result="shape"/>
</filter>
<filter id="filter3_d_1465_102844" x="66.281" y="35.5708" width="9.93392" height="8.19775" filterUnits="userSpaceOnUse" color-interpolation-filters="sRGB">
<feFlood flood-opacity="0" result="BackgroundImageFix"/>
<feColorMatrix in="SourceAlpha" type="matrix" values="0 0 0 0 0 0 0 0 0 0 0 0 0 0 0 0 0 0 127 0" result="hardAlpha"/>
<feOffset dy="2"/>
<feColorMatrix type="matrix" values="0 0 0 0 0 0 0 0 0 0 0 0 0 0 0 0 0 0 0.2 0"/>
<feBlend mode="normal" in2="BackgroundImageFix" result="effect1_dropShadow_1465_102844"/>
<feBlend mode="normal" in="SourceGraphic" in2="effect1_dropShadow_1465_102844" result="shape"/>
</filter>
<filter id="filter4_d_1465_102844" x="57.071" y="34.8379" width="10.8603" height="7.41504" filterUnits="userSpaceOnUse" color-interpolation-filters="sRGB">
<feFlood flood-opacity="0" result="BackgroundImageFix"/>
<feColorMatrix in="SourceAlpha" type="matrix" values="0 0 0 0 0 0 0 0 0 0 0 0 0 0 0 0 0 0 127 0" result="hardAlpha"/>
<feOffset dy="2"/>
<feColorMatrix type="matrix" values="0 0 0 0 0 0 0 0 0 0 0 0 0 0 0 0 0 0 0.2 0"/>
<feBlend mode="normal" in2="BackgroundImageFix" result="effect1_dropShadow_1465_102844"/>
<feBlend mode="normal" in="SourceGraphic" in2="effect1_dropShadow_1465_102844" result="shape"/>
</filter>
<filter id="filter5_d_1465_102844" x="61.983" y="29.1018" width="9.69528" height="11.9551" filterUnits="userSpaceOnUse" color-interpolation-filters="sRGB">
<feFlood flood-opacity="0" result="BackgroundImageFix"/>
<feColorMatrix in="SourceAlpha" type="matrix" values="0 0 0 0 0 0 0 0 0 0 0 0 0 0 0 0 0 0 127 0" result="hardAlpha"/>
<feOffset dy="2"/>
<feColorMatrix type="matrix" values="0 0 0 0 0 0 0 0 0 0 0 0 0 0 0 0 0 0 0.2 0"/>
<feBlend mode="normal" in2="BackgroundImageFix" result="effect1_dropShadow_1465_102844"/>
<feBlend mode="normal" in="SourceGraphic" in2="effect1_dropShadow_1465_102844" result="shape"/>
</filter>
<filter id="filter6_d_1465_102844" x="67.9885" y="21.9807" width="15.114" height="17.1123" filterUnits="userSpaceOnUse" color-interpolation-filters="sRGB">
<feFlood flood-opacity="0" result="BackgroundImageFix"/>
<feColorMatrix in="SourceAlpha" type="matrix" values="0 0 0 0 0 0 0 0 0 0 0 0 0 0 0 0 0 0 127 0" result="hardAlpha"/>
<feOffset dy="2"/>
<feColorMatrix type="matrix" values="0 0 0 0 0 0 0 0 0 0 0 0 0 0 0 0 0 0 0.2 0"/>
<feBlend mode="normal" in2="BackgroundImageFix" result="effect1_dropShadow_1465_102844"/>
<feBlend mode="normal" in="SourceGraphic" in2="effect1_dropShadow_1465_102844" result="shape"/>
</filter>
<filter id="filter7_d_1465_102844" x="95.5233" y="23.6409" width="13.7971" height="16.1667" filterUnits="userSpaceOnUse" color-interpolation-filters="sRGB">
<feFlood flood-opacity="0" result="BackgroundImageFix"/>
<feColorMatrix in="SourceAlpha" type="matrix" values="0 0 0 0 0 0 0 0 0 0 0 0 0 0 0 0 0 0 127 0" result="hardAlpha"/>
<feOffset dy="2"/>
<feColorMatrix type="matrix" values="0 0 0 0 0 0 0 0 0 0 0 0 0 0 0 0 0 0 0.2 0"/>
<feBlend mode="normal" in2="BackgroundImageFix" result="effect1_dropShadow_1465_102844"/>
<feBlend mode="normal" in="SourceGraphic" in2="effect1_dropShadow_1465_102844" result="shape"/>
</filter>
<filter id="filter8_d_1465_102844" x="78.7803" y="15.6848" width="20.8603" height="22.6721" filterUnits="userSpaceOnUse" color-interpolation-filters="sRGB">
<feFlood flood-opacity="0" result="BackgroundImageFix"/>
<feColorMatrix in="SourceAlpha" type="matrix" values="0 0 0 0 0 0 0 0 0 0 0 0 0 0 0 0 0 0 127 0" result="hardAlpha"/>
<feOffset dy="2"/>
<feColorMatrix type="matrix" values="0 0 0 0 0 0 0 0 0 0 0 0 0 0 0 0 0 0 0.2 0"/>
<feBlend mode="normal" in2="BackgroundImageFix" result="effect1_dropShadow_1465_102844"/>
<feBlend mode="normal" in="SourceGraphic" in2="effect1_dropShadow_1465_102844" result="shape"/>
</filter>
</defs>
</svg>
