<svg width="174" height="240" viewBox="0 0 174 240" fill="none" xmlns="http://www.w3.org/2000/svg">
<rect width="174" height="240" fill="none"/>
<path fill-rule="evenodd" clip-rule="evenodd" d="M97.4704 45.7363C100.483 45.7363 103.112 47.3798 104.509 49.8191C104.58 49.7997 104.655 49.7894 104.732 49.7894H107.434C107.9 49.7894 108.278 50.1674 108.278 50.6338C108.278 51.1001 107.9 51.4781 107.434 51.4781L105.226 51.4781C105.454 52.2261 105.576 53.02 105.576 53.8424C105.576 58.3193 101.947 61.9485 97.4704 61.9485C92.9935 61.9485 89.3643 58.3193 89.3643 53.8424C89.3643 53.3634 89.4058 52.8941 89.4855 52.4379C89.4593 50.9582 88.3229 49.7894 86.9535 49.7894C85.691 49.7894 84.6265 50.783 84.447 52.0976C84.5708 52.6597 84.6357 53.2435 84.6357 53.8424C84.6357 58.3193 81.0065 61.9485 76.5296 61.9485C72.0528 61.9485 68.4235 58.3193 68.4235 53.8424C68.4235 53.02 68.546 52.2261 68.7737 51.4781L66.5659 51.4781C66.0995 51.4781 65.7215 51.1001 65.7215 50.6338C65.7215 50.1674 66.0995 49.7894 66.5659 49.7894H69.2679C69.3451 49.7894 69.4199 49.7997 69.491 49.8191C70.8881 47.3798 73.517 45.7363 76.5296 45.7363C79.6884 45.7363 82.4251 47.5431 83.7629 50.1795C84.4644 49.1272 85.6318 48.4384 86.9535 48.4384C88.3088 48.4384 89.5019 49.1626 90.1968 50.2604C91.5189 47.5802 94.2793 45.7363 97.4704 45.7363ZM76.5296 47.0873C72.7989 47.0873 69.7745 50.1117 69.7745 53.8424C69.7745 57.5731 72.7989 60.5975 76.5296 60.5975C80.2604 60.5975 83.2847 57.5731 83.2847 53.8424C83.2847 50.1117 80.2604 47.0873 76.5296 47.0873ZM97.4704 47.0873C93.7396 47.0873 90.7153 50.1117 90.7153 53.8424C90.7153 57.5731 93.7396 60.5975 97.4704 60.5975C101.201 60.5975 104.225 57.5731 104.225 53.8424C104.225 50.1117 101.201 47.0873 97.4704 47.0873Z" fill="black" fill-opacity="0.16"/>
<path fill-rule="evenodd" clip-rule="evenodd" d="M97.4704 45.0605C100.483 45.0605 103.112 46.704 104.509 49.1434C104.58 49.124 104.655 49.1136 104.732 49.1136H107.434C107.9 49.1136 108.278 49.4916 108.278 49.958C108.278 50.4243 107.9 50.8024 107.434 50.8024L105.226 50.8023C105.454 51.5503 105.576 52.3442 105.576 53.1666C105.576 57.6435 101.947 61.2727 97.4704 61.2727C92.9935 61.2727 89.3643 57.6435 89.3643 53.1666C89.3643 52.6876 89.4058 52.2183 89.4855 51.7621C89.4593 50.2825 88.3229 49.1136 86.9535 49.1136C85.691 49.1136 84.6265 50.1072 84.447 51.4218C84.5708 51.9839 84.6357 52.5677 84.6357 53.1666C84.6357 57.6435 81.0065 61.2727 76.5296 61.2727C72.0528 61.2727 68.4235 57.6435 68.4235 53.1666C68.4235 52.3442 68.546 51.5503 68.7737 50.8023L66.5659 50.8024C66.0995 50.8024 65.7215 50.4243 65.7215 49.958C65.7215 49.4916 66.0995 49.1136 66.5659 49.1136H69.2679C69.3451 49.1136 69.4199 49.124 69.491 49.1434C70.8881 46.704 73.517 45.0605 76.5296 45.0605C79.6884 45.0605 82.4251 46.8673 83.7629 49.5037C84.4644 48.4514 85.6318 47.7626 86.9535 47.7626C88.3088 47.7626 89.5019 48.4868 90.1968 49.5847C91.5189 46.9044 94.2793 45.0605 97.4704 45.0605ZM76.5296 46.4116C72.7989 46.4116 69.7745 49.4359 69.7745 53.1666C69.7745 56.8974 72.7989 59.9217 76.5296 59.9217C80.2604 59.9217 83.2847 56.8974 83.2847 53.1666C83.2847 49.4359 80.2604 46.4116 76.5296 46.4116ZM97.4704 46.4116C93.7396 46.4116 90.7153 49.4359 90.7153 53.1666C90.7153 56.8974 93.7396 59.9217 97.4704 59.9217C101.201 59.9217 104.225 56.8974 104.225 53.1666C104.225 49.4359 101.201 46.4116 97.4704 46.4116Z" fill="#111111"/>
</svg>
