<svg width="174" height="240" viewBox="0 0 174 240" fill="none" xmlns="http://www.w3.org/2000/svg">
<rect width="174" height="240" fill="none"/>
<path d="M82.9138 20.0473C82.9399 19.0548 82.1563 18.219 81.1638 18.1929C80.9374 18.1929 80.711 18.219 80.4933 18.3061L58.3702 26.3595C57.4299 26.6991 56.9511 27.7351 57.2906 28.6754C57.369 28.8843 57.4822 29.0933 57.6389 29.2587L61.5307 33.612C62.0269 34.1605 62.8018 34.3607 63.4896 34.1082L81.5468 27.5349C82.2346 27.2824 82.7134 26.6294 82.7309 25.8981L82.9138 20.0647V20.0473Z" fill="#32B8DE"/>
<path d="M62.3405 34.5002C63.2808 34.1607 64.3169 34.6482 64.6564 35.5798C64.996 36.5201 64.5083 37.5562 63.5767 37.8957C62.6451 38.2353 61.6004 37.7476 61.2609 36.8161C60.9213 35.8758 61.4089 34.8398 62.3405 34.5002Z" fill="#32B8DE"/>
<path d="M68.4525 32.655C69.3928 32.3154 70.4288 32.803 70.7683 33.7346C71.1079 34.6749 70.6203 35.711 69.6888 36.0505C68.7572 36.3901 67.7125 35.9024 67.3729 34.9708C67.0334 34.0305 67.5209 32.9945 68.4525 32.655Z" fill="#32B8DE"/>
<path d="M75.757 30.0861C76.6973 29.7466 77.7333 30.2342 78.0728 31.1657C78.4124 32.106 77.9248 33.1421 76.9932 33.4817C76.0616 33.8212 75.0168 33.3337 74.6773 32.4021C74.3377 31.4618 74.8254 30.4257 75.757 30.0861Z" fill="#32B8DE"/>
<path d="M63.1151 38.5664C64.1077 38.5664 64.926 39.3762 64.926 40.3774C64.926 41.3787 64.1164 42.1883 63.1151 42.1883C62.1139 42.1883 61.3041 41.3787 61.3041 40.3774C61.3041 39.3762 62.1139 38.5664 63.1151 38.5664Z" fill="#32B8DE"/>
<path d="M69.2619 40.3773C70.262 40.3773 71.0729 39.5664 71.0729 38.5663C71.0729 37.5661 70.262 36.7554 69.2619 36.7554C68.2617 36.7554 67.451 37.5661 67.451 38.5663C67.451 39.5664 68.2617 40.3773 69.2619 40.3773Z" fill="#32B8DE"/>
<path d="M76.4796 34.4478C77.4721 34.4478 78.2905 35.2575 78.2905 36.2588C78.2905 37.26 77.4808 38.0697 76.4796 38.0697C75.4783 38.0697 74.6687 37.26 74.6687 36.2588C74.6687 35.2575 75.4783 34.4478 76.4796 34.4478Z" fill="#32B8DE"/>
<path d="M82.0865 27.7266C83.079 27.7266 83.8975 28.5362 83.8975 29.5375C83.8975 30.5387 83.0877 31.3485 82.0865 31.3485C81.0852 31.3485 80.2756 30.5387 80.2756 29.5375C80.2756 28.5362 81.0852 27.7266 82.0865 27.7266Z" fill="#32B8DE"/>
<path d="M82.0691 32.2456C83.0617 32.2456 83.88 33.0554 83.88 34.0566C83.88 35.0579 83.0704 35.8675 82.0691 35.8675C81.0679 35.8675 80.2581 35.0579 80.2581 34.0566C80.2581 33.0554 81.0679 32.2456 82.0691 32.2456Z" fill="#32B8DE"/>
<path d="M68.6786 15.7293C67.9037 15.1024 66.7718 15.2243 66.1449 15.9905C65.9621 16.2169 65.8315 16.4955 65.7792 16.7828L64.3514 24.1571L74.5293 20.4482L68.6873 15.7118L68.6786 15.7293Z" fill="#DB307A"/>
</svg>
