<svg width="174" height="240" viewBox="0 0 174 240" fill="none" xmlns="http://www.w3.org/2000/svg">
<rect width="174" height="240" fill="none"/>
<path d="M87.5649 17.3964C110.268 17.3964 128.673 35.8015 128.673 58.5048C128.673 59.2647 128.651 60.0197 128.61 60.7694H125.986C126.029 60.02 126.054 59.265 126.054 58.5048C126.054 37.2476 108.822 20.0155 87.5649 20.0155C66.3078 20.0155 49.0757 37.2476 49.0757 58.5048C49.0757 59.265 49.1005 60.02 49.144 60.7694H46.52C46.4793 60.0197 46.4565 59.2647 46.4565 58.5048C46.4565 35.8015 64.8616 17.3964 87.5649 17.3964Z" fill="#D9D9D9"/>
<path d="M63.4133 24.3685C63.0613 25.0709 64.3026 27.584 65.1974 28.0377C66.7335 28.8162 70.7529 25.468 72.1319 24.5368C77.5315 20.8915 82.2305 20.3087 89.4505 20.7053C95.1568 20.7053 100.812 22.5765 105.223 26.5601C106.193 27.4353 108.039 28.9641 109.569 28.7911C110.823 28.6495 112.489 26.4522 112.149 25.096C111.155 23.2962 106.712 21.1825 105.223 20.3087C94.7331 14.1492 81.7758 14.4439 70.6979 19.6046C69.2898 20.2604 68.0287 20.7053 66.3419 21.7092C66.3419 21.7092 63.9938 23.2098 63.4133 24.3685Z" fill="#FFE700"/>
<path d="M42.8856 44.2845C42.5332 45.0492 42.2893 46.1177 42.1217 47.3454C41.7106 50.3572 41.7627 54.3335 41.824 57.18C41.8771 59.6249 41.7859 61.8054 42.3217 63.4344C42.708 64.6079 43.4191 65.4958 44.7471 65.987C47.5479 67.023 50.1525 66.9555 52.8073 65.0539C54.3057 63.9808 53.9975 60.3156 54.019 58.605C54.0749 54.1121 54.0618 49.6672 53.3997 45.2138C53.143 43.4864 51.0674 42.4957 48.8105 42.2636C48.4886 42.2307 48.1638 42.2128 47.8399 42.2106C45.6626 42.1964 43.5333 42.8804 42.8856 44.2845Z" fill="#674CA6"/>
<path d="M131.555 64.6369C131.908 63.8723 132.152 62.8037 132.319 61.576C132.73 58.5642 132.678 54.5879 132.617 51.7414C132.564 49.2966 132.655 47.116 132.119 45.4871C131.733 44.3136 131.022 43.4257 129.694 42.9344C126.893 41.8985 124.288 41.966 121.633 43.8675C120.135 44.9407 120.443 48.6059 120.422 50.3164C120.366 54.8093 120.379 59.2543 121.041 63.7076C121.298 65.435 123.373 66.4257 125.63 66.6578C125.952 66.6908 126.277 66.7086 126.601 66.7109C128.778 66.725 130.907 66.041 131.555 64.6369Z" fill="#674CA6"/>
<path d="M51.0699 51.0842C51.1131 53.4729 51.2467 54.2974 51.2415 56.7101C51.2368 59.1028 51.2763 55.8937 51.4227 58.3034C51.4754 59.1778 50.956 64.6453 52.937 63.5955C53.3889 63.3571 53.2339 60.9397 53.2503 60.0373C53.2687 58.9991 53.1188 60.2961 53.1908 59.1919C53.3302 57.0538 53.1298 57.4303 53.1373 55.2722C53.1457 53.0067 53.0071 53.4923 53.0863 50.6555C53.2326 45.3799 52.793 44.5048 51.3916 45.0515C50.8146 45.2767 51.015 48.0569 51.0699 51.0842Z" fill="white"/>
<path d="M123.371 57.8374C123.328 55.4486 123.194 54.6241 123.2 52.2114C123.204 49.8187 123.165 53.0278 123.018 50.6181C122.966 49.7437 123.485 44.2762 121.504 45.326C121.052 45.5644 121.207 47.9818 121.191 48.8842C121.172 49.9224 121.322 48.6255 121.25 49.7296C121.111 51.8677 121.311 51.4912 121.304 53.6493C121.295 55.9148 121.434 55.4293 121.355 58.266C121.208 63.5416 121.648 64.4167 123.049 63.87C123.626 63.6448 123.426 60.8646 123.371 57.8374Z" fill="white"/>
</svg>
