<svg width="174" height="240" viewBox="0 0 174 240" fill="none" xmlns="http://www.w3.org/2000/svg">
<rect width="174" height="240" fill="none"/>
<path d="M86.9995 18.1086C105.104 18.1086 119.778 32.7801 119.778 50.8811C119.778 51.8676 119.731 52.8436 119.646 53.8079C118.165 37.0788 104.117 23.9641 86.9995 23.9641V23.9573C69.8824 23.9575 55.8341 37.0784 54.353 53.8079C54.2677 52.8436 54.2222 51.8675 54.2222 50.8811C54.2222 32.7802 68.8955 18.103 86.9995 18.1028V18.1086Z" fill="#A4D233"/>
<path d="M64.2263 39.0657C64.0716 38.7397 63.9098 38.4325 63.7149 38.134C64.1514 37.9787 64.5777 37.7978 64.9885 37.5793C67.2717 36.3273 68.6596 34.2652 68.0722 32.9838C67.4847 31.7023 65.1643 31.6893 62.8724 32.9379C63.989 29.9925 63.5079 27.0938 61.8397 26.4613C60.1715 25.8289 57.8668 27.7142 56.7396 30.6877C56.6084 31.0336 56.5034 31.3894 56.407 31.7485C56.0147 31.525 55.603 31.3265 55.1824 31.1778C52.8365 30.2885 50.5242 30.6734 50.0066 32.0386C49.5387 33.2729 50.6938 34.8659 52.6474 35.8204C50.5174 37.0876 49.2592 39.0171 49.8261 40.2479C50.393 41.4788 52.7338 41.5427 55.0293 40.2847C55.9767 39.7776 56.821 39.0709 57.5009 38.195C57.3695 39.6425 57.6267 41.0873 58.2386 42.3567C59.5183 45.1411 61.8636 46.6615 63.5138 45.7684C65.1641 44.8754 65.5009 41.8373 64.2299 39.0561L64.2263 39.0657Z" fill="#32B8DE"/>
<path d="M68.0721 32.9839C67.7839 32.5645 67.3415 32.2898 66.8472 32.2308C66.3634 32.1436 65.8845 32.1225 65.3911 32.1921C64.42 32.3159 63.4857 32.657 62.6287 33.1877L61.6718 33.7983L62.0296 32.6185C62.4135 31.4486 62.5225 30.2174 62.3596 29.022C62.2951 28.4842 62.1067 27.9851 61.8098 27.5624C61.5734 27.2161 61.1952 27.0081 60.7755 26.988C59.9708 26.9611 58.9955 27.7251 58.3295 28.6169C57.6335 29.5615 57.1299 30.654 56.8455 31.7974L56.5394 33.0506L55.4895 32.4384C55.1182 32.2121 54.7117 32.0261 54.3034 31.8713C53.8915 31.7258 53.4619 31.6268 53.0303 31.5595C52.2702 31.3889 51.4577 31.4876 50.7308 31.8323C50.5437 31.9325 50.4102 32.1275 50.3792 32.3403C50.3858 32.6636 50.483 32.9577 50.666 33.2088C51.1614 33.9206 51.8198 34.4907 52.5821 34.8652L53.9484 35.5863L52.5862 36.3748C51.6336 36.8693 50.8083 37.6043 50.1996 38.5286C49.9587 38.8757 49.8635 39.3104 49.9392 39.7134C50.1141 40.1433 50.4255 40.4753 50.8355 40.6521C51.8154 41.0557 52.9339 41.0411 53.9418 40.6104C54.4833 40.3879 55.0477 40.1313 55.5824 39.8741C56.131 39.6329 56.6434 39.3034 57.0765 38.8687C56.7126 39.3831 56.255 39.8299 55.7216 40.1624C55.1984 40.5202 54.7103 40.8375 54.1682 41.1667C53.0069 41.8708 51.6521 42.0631 50.4089 41.6988C49.7083 41.476 49.1228 40.9759 48.7893 40.2827C48.6089 39.8935 48.5509 39.4436 48.62 38.9992C48.6765 38.6143 48.8009 38.2337 48.9739 37.8822C49.3038 37.248 49.7257 36.6592 50.2341 36.1568C50.7146 35.6759 51.2416 35.2557 51.824 34.899L51.8282 36.4081C50.7859 35.9596 49.8847 35.2436 49.1922 34.318C49.0076 34.0448 48.8509 33.7505 48.731 33.4377C48.6114 33.0715 48.5496 32.6842 48.5591 32.2921C48.5898 31.8439 48.7268 31.4041 48.9661 31.0349C49.2035 30.6971 49.4996 30.4139 49.8477 30.2036C50.4178 29.8529 51.036 29.6378 51.6775 29.5709C52.2562 29.5122 52.8311 29.5162 53.3949 29.6016C53.9414 29.6804 54.4752 29.819 54.9878 30.0133C55.5005 30.2076 55.9954 30.4486 56.4639 30.7332L55.115 31.3555C55.4726 29.9404 56.1364 28.6089 57.0549 27.4705C57.5238 26.889 58.0862 26.375 58.7037 25.9781C59.3931 25.5229 60.1835 25.2989 60.9688 25.3507C61.7992 25.4409 62.5434 25.9155 62.9811 26.6482C63.3655 27.2859 63.596 28.0147 63.6346 28.7779C63.7074 30.1851 63.4472 31.6052 62.8621 32.9127L62.2545 32.3398C63.2557 31.8745 64.332 31.6304 65.398 31.6495C65.931 31.6591 66.4496 31.7591 66.9484 31.9375C67.442 32.1033 67.8403 32.4682 68.0618 32.9586L68.0721 32.9839Z" fill="#3D2F82"/>
<path d="M57.7959 37.0232C58.6069 37.3306 59.5325 36.8724 59.8634 35.9997C60.1942 35.1269 59.805 34.1702 58.994 33.8628C58.1831 33.5554 57.2574 34.0136 56.9266 34.8864C56.5957 35.7591 56.985 36.7158 57.7959 37.0232Z" fill="white"/>
</svg>
