<svg width="174" height="240" viewBox="0 0 174 240" fill="none" xmlns="http://www.w3.org/2000/svg">
<rect width="174" height="240" fill="none"/>
<path d="M86.3369 109.392C86.3001 109.392 86.2612 109.392 86.2244 109.392C82.2761 109.261 78.7994 101.873 77.1508 90.1122H77.6118C79.1912 101.38 82.7187 108.794 86.243 108.91C86.2668 108.91 86.2948 108.91 86.3186 108.91C88.0385 108.91 92.262 107.547 96.3445 89.7422L96.8492 89.8263C93.7987 103.124 90.3177 109.392 86.3369 109.392Z" fill="#FFE700"/>
<path d="M88.866 108.042C88.5806 107.756 88.2022 107.581 87.7993 107.55C87.3964 107.518 86.9955 107.632 86.6689 107.87C86.3263 107.615 85.9 107.499 85.4756 107.546C85.0512 107.593 84.6605 107.799 84.3819 108.123C84.1034 108.447 83.9578 108.864 83.9745 109.29C83.9912 109.717 84.1689 110.121 84.4719 110.422L86.1439 112.097C86.2839 112.235 86.4725 112.312 86.6689 112.312C86.8654 112.312 87.0539 112.235 87.194 112.097L88.866 110.422C89.1804 110.106 89.3568 109.678 89.3568 109.232C89.3568 108.786 89.1804 108.358 88.866 108.042Z" fill="#E2CD00"/>
<path d="M88.6649 107.879C88.3794 107.593 88.0011 107.419 87.5982 107.387C87.1953 107.355 86.7943 107.469 86.4678 107.707C86.1252 107.452 85.6988 107.337 85.2745 107.384C84.8501 107.431 84.4593 107.637 84.1808 107.96C83.9023 108.284 83.7567 108.701 83.7734 109.128C83.7901 109.554 83.9678 109.959 84.2707 110.26L85.9428 111.934C86.0828 112.072 86.2714 112.149 86.4678 112.149C86.6642 112.149 86.8528 112.072 86.9928 111.934L88.6649 110.26C88.9792 109.943 89.1557 109.515 89.1557 109.07C89.1557 108.624 88.9792 108.196 88.6649 107.879Z" fill="#FFE700"/>
</svg>
