<svg width="174" height="240" viewBox="0 0 174 240" fill="none" xmlns="http://www.w3.org/2000/svg">
<rect width="174" height="240" fill="none"/>
<path d="M86.3976 108.018C86.3566 108.018 86.3132 108.018 86.2723 108.018C81.8758 107.896 78.0044 101.025 76.1687 90.0863H76.682C78.4407 100.567 82.3686 107.462 86.293 107.57C86.3195 107.57 86.3506 107.57 86.3771 107.57C88.2923 107.57 92.9953 106.302 97.5412 89.7422L98.1032 89.8204C94.7064 102.189 90.8302 108.018 86.3976 108.018Z" fill="#A4D233"/>
<path d="M76.3038 93.6426C76.3478 93.0444 76.8658 92.5913 77.4666 92.6353C78.0649 92.6793 78.5181 93.1972 78.4741 93.798C78.43 94.3989 77.9121 94.8496 77.3112 94.8055C76.713 94.7615 76.2598 94.2435 76.3038 93.6426Z" fill="#A4D233"/>
<path d="M77.7511 98.8023C77.7951 98.204 78.3131 97.7509 78.9139 97.7949C79.5122 97.839 79.9654 98.3569 79.9214 98.9577C79.8773 99.5586 79.3594 100.009 78.7585 99.9652C78.1603 99.9212 77.7071 99.4031 77.7511 98.8023Z" fill="#A4D233"/>
<path d="M80.5266 104.244C80.5706 103.646 81.0886 103.193 81.6894 103.237C82.2876 103.281 82.7409 103.799 82.6968 104.4C82.6528 105 82.1348 105.451 81.534 105.407C80.9357 105.363 80.4825 104.845 80.5266 104.244Z" fill="#A4D233"/>
<path d="M78.1048 97.2059C77.5402 97.294 77.0093 96.9081 76.9212 96.3435C76.8332 95.7789 77.2191 95.248 77.7837 95.16C78.3482 95.0719 78.8792 95.4578 78.9672 96.0224C79.0553 96.587 78.6694 97.1179 78.1048 97.2059Z" fill="#674CA6"/>
<path d="M80.3297 102.628C79.7651 102.716 79.2342 102.33 79.1461 101.766C79.0581 101.201 79.4439 100.67 80.0085 100.582C80.5731 100.494 81.104 100.88 81.1921 101.445C81.2801 102.009 80.8942 102.54 80.3297 102.628Z" fill="#674CA6"/>
<path d="M83.622 107.469C83.0574 107.557 82.5265 107.171 82.4384 106.606C82.3503 106.042 82.7362 105.511 83.3008 105.423C83.8654 105.335 84.3963 105.721 84.4844 106.285C84.5724 106.85 84.1865 107.381 83.622 107.469Z" fill="#674CA6"/>
<path d="M76.8675 92.2823C76.3417 92.3651 75.8497 92.0077 75.7642 91.4794C75.6813 90.9537 76.0387 90.4617 76.5671 90.3762C77.0928 90.2933 77.5849 90.6506 77.6703 91.1789C77.7532 91.7047 77.3958 92.1968 76.8675 92.2823Z" fill="#674CA6"/>
<path d="M85.7857 107.646C85.8298 107.047 86.3478 106.594 86.9486 106.638C87.5468 106.682 88 107.2 87.956 107.801C87.912 108.402 87.394 108.852 86.7932 108.808C86.1949 108.764 85.7417 108.246 85.7857 107.646Z" fill="#A4D233"/>
<path d="M97.6962 93.6426C97.6522 93.0444 97.1342 92.5913 96.5334 92.6353C95.9351 92.6793 95.4819 93.1972 95.5259 93.798C95.57 94.3989 96.0879 94.8496 96.6888 94.8055C97.287 94.7615 97.7402 94.2435 97.6962 93.6426Z" fill="#A4D233"/>
<path d="M95.7048 98.8023C95.6607 98.204 95.1428 97.7509 94.5419 97.7949C93.9437 97.839 93.4905 98.3569 93.5345 98.9577C93.5785 99.5586 94.0965 100.009 94.6973 99.9652C95.2956 99.9212 95.7488 99.4031 95.7048 98.8023Z" fill="#A4D233"/>
<path d="M93.174 104.244C93.13 103.646 92.612 103.193 92.0111 103.237C91.4129 103.281 90.9597 103.799 91.0037 104.4C91.0477 105 91.5657 105.451 92.1665 105.407C92.7648 105.363 93.218 104.845 93.174 104.244Z" fill="#A4D233"/>
<path d="M95.5472 97.2059C96.1118 97.294 96.6427 96.9081 96.7308 96.3435C96.8188 95.7789 96.4329 95.248 95.8683 95.16C95.3038 95.0719 94.7728 95.4578 94.6848 96.0224C94.5967 96.587 94.9826 97.1179 95.5472 97.2059Z" fill="#674CA6"/>
<path d="M93.371 102.628C93.9356 102.716 94.4665 102.33 94.5546 101.766C94.6426 101.201 94.2567 100.67 93.6922 100.582C93.1276 100.494 92.5967 100.88 92.5086 101.445C92.4205 102.009 92.8064 102.54 93.371 102.628Z" fill="#674CA6"/>
<path d="M89.8047 107.469C90.3693 107.557 90.9002 107.171 90.9882 106.606C91.0763 106.042 90.6904 105.511 90.1258 105.423C89.5612 105.335 89.0303 105.721 88.9423 106.285C88.8542 106.85 89.2401 107.381 89.8047 107.469Z" fill="#674CA6"/>
<path d="M97.1325 92.2823C97.6583 92.3651 98.1503 92.0077 98.2358 91.4794C98.3187 90.9537 97.9613 90.4617 97.4329 90.3762C96.9072 90.2933 96.4151 90.6506 96.3297 91.1789C96.2468 91.7047 96.6042 92.1968 97.1325 92.2823Z" fill="#674CA6"/>
</svg>
