<svg width="174" height="240" viewBox="0 0 174 240" fill="none" xmlns="http://www.w3.org/2000/svg">
<rect width="174" height="240" fill="none"/>
<path d="M86.0539 119.949C86.0035 119.949 85.9501 119.949 85.8996 119.949C80.4848 119.745 75.7317 108.214 73.4708 89.7852L74.4044 89.7388C76.5703 107.396 81.1019 118.804 85.9352 118.985C85.9679 118.985 86.0005 118.985 86.0331 118.985C88.392 118.985 93.8689 117.643 99.4677 89.7436L100.37 89.7433C96.1863 110.581 91.5133 119.949 86.0539 119.949Z" fill="#A4D233"/>
<path d="M87.1189 97.8486C84.4894 97.8486 80.9777 95.3208 76.8188 89.8465H77.8067C81.3186 94.4718 85.2538 97.4101 88.6745 96.9579C91.7599 96.55 94.5129 93.8891 96.0394 89.8465H97.1079C95.4608 94.211 92.2481 97.3908 88.8068 97.8486C88.495 97.8903 87.4718 97.8486 87.1189 97.8486Z" fill="#3D2F82"/>
<path d="M86.8966 123.775L86.8788 122.811C87.4425 122.802 88.0092 122.68 88.573 122.455L88.9349 123.348C88.2614 123.618 87.579 123.76 86.8966 123.775ZM84.8434 123.419C84.2381 123.196 83.6328 122.867 83.0453 122.44L83.6091 121.662C84.1253 122.036 84.6505 122.324 85.1727 122.514L84.8404 123.419H84.8434ZM90.6974 122.324L90.1129 121.559C90.5668 121.214 91.0178 120.793 91.4569 120.313L92.1661 120.962C91.6884 121.484 91.1958 121.944 90.6974 122.324ZM81.544 121.102C81.1167 120.648 80.6925 120.132 80.286 119.571L81.0633 119.007C81.4491 119.535 81.8466 120.019 82.2472 120.443L81.544 121.102ZM93.4063 119.413L92.62 118.856C92.9642 118.369 93.3054 117.838 93.6348 117.274L94.4655 117.758C94.1214 118.345 93.7653 118.903 93.4034 119.411L93.4063 119.413ZM79.2059 117.924C78.8855 117.384 78.571 116.805 78.2684 116.206L79.1288 115.776C79.4196 116.354 79.7222 116.912 80.0338 117.434L79.2059 117.924ZM95.3942 116.037L94.5308 115.61C94.8008 115.067 95.0679 114.491 95.329 113.889L96.2102 114.275C95.9402 114.895 95.6672 115.485 95.3913 116.043L95.3942 116.037ZM77.4435 114.438C77.1943 113.862 76.951 113.26 76.7136 112.631L77.6126 112.292C77.8441 112.904 78.0844 113.494 78.3247 114.055L77.4435 114.438ZM96.946 112.468L96.047 112.123C96.2666 111.548 96.4832 110.951 96.6968 110.331L97.6077 110.643C97.3911 111.275 97.1715 111.883 96.949 112.468H96.946ZM76.0668 110.8C75.868 110.201 75.6752 109.584 75.4853 108.949L76.408 108.676C76.592 109.302 76.7848 109.91 76.9807 110.494L76.0668 110.797V110.8ZM98.2011 108.797L97.2813 108.515C97.4623 107.922 97.6433 107.311 97.8183 106.682L98.7441 106.94C98.566 107.578 98.385 108.198 98.2011 108.8V108.797ZM74.9631 107.082C74.8028 106.471 74.6456 105.845 74.4943 105.201L75.4289 104.982C75.5772 105.617 75.7315 106.234 75.8917 106.836L74.9631 107.082ZM99.2425 105.068L98.3109 104.83C98.4652 104.225 98.6135 103.608 98.7589 102.97L99.6965 103.187C99.5481 103.83 99.3968 104.457 99.2425 105.068ZM74.0729 103.314C73.9424 102.694 73.8148 102.062 73.6931 101.415L74.6396 101.237C74.7583 101.875 74.8859 102.501 75.0135 103.115L74.0729 103.314ZM100.115 101.3L99.1743 101.101C99.3048 100.49 99.4294 99.8605 99.5541 99.2226L100.501 99.4066C100.376 100.05 100.248 100.682 100.115 101.3ZM73.3549 99.5134C73.2481 98.8873 73.1502 98.2494 73.0552 97.6026L74.0077 97.4631C74.1026 98.104 74.2005 98.7361 74.3044 99.3562L73.3549 99.5163V99.5134ZM100.851 97.5076L99.9042 97.3385C100.014 96.7184 100.121 96.0893 100.225 95.4485L101.174 95.6058C101.067 96.2496 100.96 96.8875 100.851 97.5076ZM72.7912 95.6859C72.7081 95.0569 72.6309 94.416 72.5568 93.7692L73.5151 93.6623C73.5863 94.3061 73.6635 94.9382 73.7466 95.5642L72.7912 95.6888V95.6859ZM101.474 93.695L100.521 93.5526C100.613 92.9295 100.705 92.2975 100.794 91.6507L101.747 91.7812C101.658 92.428 101.569 93.0659 101.474 93.692V93.695ZM72.355 91.8465C72.2927 91.2116 72.3097 90.8054 72.2533 90.1586L73.1383 89.8467C73.1917 90.4905 73.2511 91.1284 73.3134 91.7575L72.355 91.8525V91.8465Z" fill="#3D2F82"/>
<path d="M77.8631 98.9817C77.8394 98.9372 75.5429 94.3441 75.8099 89.7422L76.2046 89.7659C75.9405 94.2581 78.1925 98.7591 78.2132 98.8036L77.8631 98.9817Z" fill="#1B8FAA"/>
<path d="M95.149 98.2843C93.7278 99.6373 91.8556 100.723 88.9746 101.115C86.5208 101.447 84.0048 101.1 81.8625 99.8658C81.1119 99.4356 80.4383 98.9342 79.839 98.3853C79.1269 97.7355 78.219 97.335 77.2517 97.335H77.2458C77.2458 100.875 79.0913 104.388 82.6814 106.322C86.1826 108.206 90.5916 107.803 93.71 105.337C96.3507 103.248 97.6206 100.284 97.6206 97.335H97.4396C96.5821 97.335 95.7781 97.6939 95.1579 98.2843H95.149Z" fill="#1D96B2"/>
<path d="M96.6801 99.2424L96.33 99.0645C96.3508 99.02 98.5706 94.2211 98.3095 89.729H98.7211C98.9911 94.3309 96.7068 99.1979 96.6801 99.2424Z" fill="#1B8FAA"/>
<path d="M94.9621 97.5304C93.5409 98.8834 91.6687 99.9694 88.7877 100.361C86.3339 100.693 83.8179 100.346 81.6756 99.1119C80.925 98.6817 80.2514 98.1803 79.6521 97.6314C78.94 96.9816 78.0321 96.5811 77.0648 96.5811H77.0589C77.0589 100.121 78.9044 103.634 82.4945 105.568C85.9957 107.452 90.4047 107.049 93.5231 104.583C96.1638 102.494 97.4337 99.5303 97.4337 96.5811H97.2527C96.3952 96.5811 95.5912 96.94 94.971 97.5304H94.9621Z" fill="#09BEF0"/>
</svg>
