<svg width="174" height="240" viewBox="0 0 174 240" fill="none" xmlns="http://www.w3.org/2000/svg">
<rect width="174" height="240" fill="none"/>
<path d="M65.9104 162.655L83.9104 162.672V222.847C83.9104 227.677 79.8856 231.584 74.9104 231.584C69.9353 231.584 65.9104 227.677 65.9104 222.847V162.655Z" fill="#757575"/>
<path d="M75.2699 231.584C74.7865 231.584 74.303 231.546 73.8273 231.46C77.994 230.763 81.0481 227.119 81.0328 222.846V162.655L83.9104 162.655V222.846C83.9104 227.677 80.0429 231.584 75.2622 231.584H75.2699Z" fill="#D9D9D9"/>
<ellipse cx="74.9103" cy="162.641" rx="9" ry="9.00003" transform="rotate(-90 74.9103 162.641)" fill="#D9D9D9"/>
<ellipse cx="74.9103" cy="162.642" rx="1.25923" ry="1.25923" transform="rotate(-60 74.9103 162.642)" fill="#757575"/>
<rect width="24.6346" height="10.7739" rx="5.38696" transform="matrix(-1 8.51063e-08 1.22681e-06 -1 83.9104 230.505)" fill="#D9D9D9"/>
<rect width="24.6346" height="10.7739" rx="5.38696" transform="matrix(-1 8.74228e-08 1.22117e-06 -1 83.9104 231.584)" fill="#757575"/>
</svg>
