<svg width="174" height="240" viewBox="0 0 174 240" fill="none" xmlns="http://www.w3.org/2000/svg">
<rect width="174" height="240" fill="none"/>
<path d="M68.9621 162.917L84.9621 162.934V223.108C84.9621 227.939 81.3844 231.846 76.9621 231.846C72.5397 231.846 68.9621 227.939 68.9621 223.108V162.917Z" fill="#757575"/>
<path d="M76.3216 231.846C75.8382 231.846 75.3547 231.807 74.879 231.722C79.0457 231.024 82.0998 227.38 82.0845 223.108V162.917L84.962 162.917V223.108C84.962 227.938 81.0946 231.846 76.3139 231.846H76.3216Z" fill="#D9D9D9"/>
<ellipse cx="76.962" cy="162.903" rx="9" ry="9.00003" transform="rotate(-90 76.962 162.903)" fill="#D9D9D9"/>
<ellipse cx="76.9621" cy="162.903" rx="1.25923" ry="1.25923" transform="rotate(-60 76.9621 162.903)" fill="#757575"/>
<rect width="24.6346" height="10.7739" rx="5.38696" transform="matrix(-1 8.51063e-08 1.22681e-06 -1 86.9621 230.766)" fill="#D9D9D9"/>
<rect width="24.6346" height="10.7739" rx="5.38696" transform="matrix(-1 8.74228e-08 1.22117e-06 -1 86.9621 231.846)" fill="#757575"/>
</svg>
