<svg width="174" height="240" viewBox="0 0 174 240" fill="none" xmlns="http://www.w3.org/2000/svg">
<rect width="174" height="240" fill="none"/>
<rect width="11.2" height="38.1223" rx="5.6" transform="matrix(0.939818 0.341676 0.343884 -0.939012 52.0387 126.058)" fill="#757575"/>
<path d="M58.2762 128.287C61.2268 129.36 64.4936 127.84 65.573 124.891L74.738 99.8592C75.817 96.9112 74.2998 93.6524 71.3496 92.5796C71.2375 92.5389 71.1244 92.5024 71.0115 92.4691C73.4011 93.5196 74.5928 96.2575 73.6826 98.7445L64.0457 125.067C63.1352 127.554 60.4532 128.885 57.9459 128.155C58.0539 128.202 58.164 128.246 58.2762 128.287Z" fill="#C1C1C1"/>
<rect width="11.2" height="42.4884" rx="5.6" transform="matrix(0.939835 0.341628 0.343654 -0.939096 40.1099 158.827)" fill="#757575"/>
<path d="M46.3489 161.051C49.2996 162.124 52.5666 160.604 53.6457 157.656L64.3037 128.533C65.3827 125.585 63.8654 122.325 60.9147 121.252C60.8022 121.211 60.6887 121.175 60.5754 121.142C62.966 122.192 64.1587 124.931 63.2483 127.418L52.1175 157.831C51.2072 160.318 48.5259 161.649 46.0186 160.92C46.1266 160.967 46.2367 161.01 46.3489 161.051Z" fill="#C1C1C1"/>
<ellipse cx="69.3157" cy="96.9111" rx="5.81276" ry="5.81278" transform="rotate(-40 69.3157 96.9111)" fill="#D9D9D9"/>
<ellipse cx="69.3157" cy="96.9111" rx="1.22638" ry="1.22638" transform="rotate(-31.1716 69.3157 96.9111)" fill="#757575"/>
<ellipse cx="58.768" cy="125.653" rx="1.22638" ry="1.22638" transform="rotate(-31.1716 58.768 125.653)" fill="#EFEFEF"/>
<ellipse cx="57.5885" cy="128.894" rx="1.22638" ry="1.22638" transform="rotate(-31.1716 57.5885 128.894)" fill="#EFEFEF"/>
</svg>
