<svg width="174" height="240" viewBox="0 0 174 240" fill="none" xmlns="http://www.w3.org/2000/svg">
<rect width="174" height="240" fill="none"/>
<path fill-rule="evenodd" clip-rule="evenodd" d="M96.3749 47.7886H97.3179C104.077 47.7886 106.478 49.4065 106.698 49.6209C107.216 49.6209 107.636 50.0304 107.636 50.537V51.4532C107.636 51.9417 107.246 52.34 106.753 52.3678L106.56 52.3726C106.19 52.3865 105.169 52.4602 104.722 52.8495C104.766 53.3234 104.778 53.8092 104.778 54.2968C104.778 58.1282 101.515 60.8049 96.8416 60.8049H95.9661C91.5445 60.8049 88.9048 58.3718 88.9048 54.2968C88.9048 53.8054 88.9177 53.3158 88.9624 52.8383L88.524 52.6652C88.4464 52.6345 88.2788 52.5794 88.0465 52.5221C87.3988 52.3623 86.733 52.3137 86.1441 52.4346C85.9281 52.4789 85.7276 52.5455 85.5437 52.6353L85.0415 52.8806C85.0831 53.3447 85.0952 53.8199 85.0952 54.2968C85.0952 58.1282 81.832 60.8049 77.1584 60.8049H76.2828C71.8612 60.8049 69.2215 58.3718 69.2215 54.2968C69.2215 54.0304 69.2253 53.7646 69.2359 53.5009C69.1996 53.4902 69.1783 53.4238 69.1783 53.2855C69.1783 52.5151 67.8517 52.3925 67.4296 52.373L67.3023 52.3694C66.7845 52.3694 66.3643 51.9598 66.3643 51.4532V50.537C66.3643 50.0304 66.7845 49.6209 67.3023 49.6209L67.3392 49.5886C67.7169 49.2829 70.1421 47.8195 76.4807 47.7891L77.6251 47.7886C78.0253 47.7886 78.4042 47.7994 78.7629 47.8205C82.6879 47.9545 83.7966 48.4979 85.3651 49.2654L85.498 49.331L85.5917 49.3627C85.8255 49.4385 86.3861 49.5986 87.0251 49.6191C87.7131 49.5895 88.3016 49.403 88.4736 49.3433L88.6904 49.2395C90.2805 48.4911 91.9014 48.0158 94.7976 47.8523C95.2827 47.8104 95.8074 47.7886 96.3749 47.7886ZM77.8483 49.694L76.6458 49.6934C70.6761 49.6934 70.497 51.7369 70.4916 54.3689L70.4914 54.6147C70.4914 56.8594 71.4808 59.5351 76.1967 59.5351H77.1584C81.0839 59.5351 83.8253 57.5118 83.8253 54.6147L83.8233 54.056C83.7964 51.6025 83.41 49.7327 77.8483 49.694ZM97.3543 49.6934H96.329C90.3594 49.6934 90.1803 51.7369 90.1749 54.3689L90.1747 54.6147C90.1747 56.8594 91.1651 59.5351 95.88 59.5351H96.8416C100.767 59.5351 103.509 57.5118 103.509 54.6147L103.506 54.0464C103.478 51.5718 103.078 49.6934 97.3543 49.6934Z" fill="black" fill-opacity="0.16"/>
<path d="M77.6251 47.1536C84.5183 47.1536 85.0952 50.3686 85.0952 53.6617C85.0952 57.4932 81.832 60.1699 77.1584 60.1699H76.2828C71.8612 60.1699 69.2215 57.7368 69.2215 53.6617C69.2215 50.3686 69.7984 47.1536 76.6917 47.1536H77.6251ZM77.671 49.0584H76.6458C70.4914 49.0584 70.4914 51.2302 70.4914 53.9797C70.4914 56.2244 71.4808 58.9 76.1967 58.9H77.1584C81.0839 58.9 83.8253 56.8768 83.8253 53.9797L83.8251 53.7339C83.8197 51.1019 83.6406 49.0584 77.671 49.0584Z" fill="#111111"/>
<path d="M97.3084 47.1536C104.202 47.1536 104.778 50.3686 104.778 53.6617C104.778 57.4932 101.515 60.1699 96.8416 60.1699H95.9661C91.5445 60.1699 88.9048 57.7368 88.9048 53.6617C88.9048 50.3686 89.4817 47.1536 96.3749 47.1536H97.3084ZM97.3543 49.0584H96.329C90.3594 49.0584 90.1803 51.1019 90.1749 53.7339L90.1747 53.9797C90.1747 56.2244 91.1651 58.9 95.88 58.9H96.8416C100.767 58.9 103.509 56.8768 103.509 53.9797C103.509 51.2302 103.509 49.0584 97.3543 49.0584Z" fill="#111111"/>
<path d="M67.3023 48.9859C67.5218 48.7715 69.923 47.1536 76.6821 47.1536C82.3495 47.1536 83.5492 47.7417 85.3651 48.6304L85.498 48.696C85.6243 48.7406 86.2699 48.9599 87.0251 48.984C87.7131 48.9545 88.3016 48.768 88.4736 48.7083C90.5463 47.7003 92.5752 47.1536 97.3179 47.1536C104.077 47.1536 106.478 48.7715 106.698 48.9859C107.216 48.9859 107.636 49.3954 107.636 49.902V50.8182C107.636 51.3248 107.216 51.7343 106.698 51.7343C106.698 51.7343 104.507 51.7343 104.507 52.6505C104.507 53.5667 103.884 51.3248 103.884 50.8182V49.9259C102.74 49.4881 100.692 48.673 97.3179 48.673C93.5585 48.673 91.6862 49.3397 90.0802 50.0016L90.0982 50.045L90.0974 50.6755L89.3935 52.374L88.524 52.0302C88.4464 51.9995 88.2788 51.9443 88.0465 51.887C87.3988 51.7273 86.733 51.6787 86.1441 51.7996C85.9281 51.8439 85.7276 51.9104 85.5437 52.0003L84.7048 52.4102L83.8655 50.7715L83.9028 50.0431L83.9284 49.9812C82.5433 49.3358 81.2662 48.673 76.6821 48.673C73.3081 48.673 71.2604 49.4878 70.1162 49.9256V50.8182C70.1162 51.3248 69.1783 53.5667 69.1783 52.6505C69.1783 51.7343 67.3023 51.7343 67.3023 51.7343C66.7845 51.7343 66.3643 51.3248 66.3643 50.8182V49.902C66.3643 49.3954 66.7845 48.9859 67.3023 48.9859Z" fill="#111111"/>
<path d="M69.1499 51.7607C69.0818 51.7607 69.0138 51.755 68.9405 51.7378L56.8319 48.712C56.2717 48.5861 55.9105 47.9855 56.0204 47.3734C56.1356 46.7614 56.68 46.3667 57.2454 46.4869L69.354 49.5128C69.9141 49.6386 70.2754 50.2392 70.1654 50.8512C70.066 51.3889 69.6315 51.7607 69.1499 51.7607Z" fill="#111111"/>
<path d="M104.479 51.7608C103.992 51.7608 103.562 51.389 103.462 50.8513C103.347 50.2392 103.709 49.6387 104.275 49.5128L116.751 46.8644C117.317 46.7386 117.862 47.1333 117.978 47.751C118.093 48.3631 117.731 48.9637 117.165 49.0895L104.689 51.7379C104.621 51.755 104.548 51.7608 104.479 51.7608Z" fill="#111111"/>
</svg>
