<svg width="174" height="240" viewBox="0 0 174 240" fill="none" xmlns="http://www.w3.org/2000/svg">
<rect width="174" height="240" fill="none"/>
<path fill-rule="evenodd" clip-rule="evenodd" d="M78.1078 44.9409L80.5975 49.3064C80.6938 49.4757 80.8675 49.5866 81.0611 49.6027L86.0692 50.0269C86.5576 50.0682 86.7867 50.6515 86.4569 51.0144L83.0741 54.7309C82.9427 54.8749 82.8912 55.0743 82.9359 55.2641L84.0796 60.1573C84.1915 60.635 83.7074 61.033 83.2609 60.8311L78.6804 58.7627C78.5028 58.6829 78.2975 58.6946 78.1312 58.7952L73.8304 61.3958C73.4111 61.6498 72.8828 61.3122 72.9363 60.8252L73.4884 55.8298C73.5098 55.6362 73.4349 55.4445 73.2875 55.3176L69.4849 52.0311C69.1142 51.7105 69.2718 51.1034 69.7519 51.0041L74.673 49.9855C74.8641 49.9461 75.0227 49.8157 75.0981 49.6357L77.0493 45.0042C77.2395 44.5528 77.8651 44.5153 78.1078 44.9409Z" fill="#DB307A"/>
<path fill-rule="evenodd" clip-rule="evenodd" d="M78.0941 46.9742L79.9489 50.2267C80.0209 50.3522 80.1503 50.4349 80.2943 50.447L84.025 50.7632C84.3888 50.7939 84.5596 51.2288 84.3134 51.4988L81.7936 54.2677C81.6963 54.3747 81.6574 54.5231 81.6909 54.6646L82.5432 58.3096C82.6259 58.6652 82.2655 58.962 81.9327 58.8117L78.5207 57.2711C78.3884 57.2107 78.2356 57.22 78.1111 57.2954L74.9078 59.2325C74.5955 59.4212 74.2019 59.1702 74.2418 58.8073L74.6529 55.0859C74.6689 54.9419 74.613 54.7989 74.503 54.704L71.6709 52.2557C71.3946 52.0173 71.5123 51.5654 71.8694 51.4915L75.5358 50.7326C75.6774 50.7029 75.7961 50.6056 75.8525 50.4718L77.3055 47.0214C77.4476 46.6848 77.9136 46.657 78.0941 46.9742Z" fill="#FF5C6D" fill-opacity="0.9"/>
<path fill-rule="evenodd" clip-rule="evenodd" d="M75.1687 56.0129C75.142 56.0143 75.1147 56.0046 75.0948 55.9837C75.0578 55.9457 75.0588 55.8859 75.0972 55.8499L80.1019 51.0491C80.1394 51.0135 80.1997 51.014 80.2362 51.052C80.2722 51.0899 80.2712 51.1502 80.2332 51.1862L75.2286 55.9866C75.212 56.0026 75.1906 56.0119 75.1687 56.0129Z" fill="#EEC5CF"/>
<path fill-rule="evenodd" clip-rule="evenodd" d="M77.2276 56.2152C77.2009 56.2167 77.1736 56.207 77.1537 56.1861C77.1167 56.1481 77.1177 56.0883 77.1561 56.0523L81.2808 52.0954C81.3182 52.0594 81.3786 52.0599 81.4151 52.0984C81.452 52.1358 81.4506 52.1961 81.4126 52.2321L77.2879 56.189C77.2709 56.205 77.2495 56.2143 77.2276 56.2152Z" fill="#EEC5CF"/>
<path fill-rule="evenodd" clip-rule="evenodd" d="M97.2165 45.0223L99.0893 49.686C99.1618 49.8665 99.3184 49.9997 99.5086 50.0426L104.412 51.1439C104.89 51.2514 105.038 51.8609 104.661 52.1752L100.804 55.397C100.655 55.5215 100.577 55.7122 100.595 55.9058L101.063 60.91C101.108 61.3979 100.574 61.7262 100.159 61.4655L95.9035 58.7934C95.7386 58.6898 95.5333 58.6738 95.3548 58.7511L90.7402 60.7422C90.2903 60.9368 89.8126 60.5306 89.9322 60.0553L91.1586 55.1815C91.2063 54.9927 91.1576 54.7923 91.0292 54.6464L87.7096 50.8729C87.3856 50.5052 87.6245 49.9258 88.1134 49.8927L93.1278 49.5527C93.3219 49.5396 93.497 49.4316 93.5967 49.2642L96.1589 44.9411C96.4094 44.5193 97.034 44.5675 97.2165 45.0223Z" fill="#DB307A"/>
<path fill-rule="evenodd" clip-rule="evenodd" d="M96.9266 47.035L98.3213 50.5093C98.3758 50.6436 98.4925 50.7433 98.6336 50.7749L102.287 51.5956C102.643 51.6753 102.753 52.1292 102.472 52.3632L99.5992 54.7639C99.4883 54.8568 99.4299 54.9983 99.4431 55.1428L99.7918 58.8705C99.8259 59.2339 99.428 59.4786 99.1186 59.2845L95.9479 57.2934C95.8253 57.2166 95.6725 57.2049 95.5392 57.2623L92.1019 58.7455C91.7668 58.8905 91.4107 58.5879 91.5002 58.2338L92.4137 54.6028C92.4488 54.4623 92.4128 54.3134 92.3169 54.2044L89.8438 51.3937C89.6025 51.1193 89.781 50.6878 90.1454 50.663L93.8804 50.4096C94.0249 50.3999 94.1557 50.3196 94.2297 50.1951L96.1385 46.9742C96.3249 46.6605 96.7904 46.696 96.9266 47.035Z" fill="#FF5C6D" fill-opacity="0.9"/>
<path fill-rule="evenodd" clip-rule="evenodd" d="M92.7986 55.5915C92.7718 55.5895 92.746 55.5764 92.7285 55.5525C92.6979 55.5102 92.7076 55.4504 92.7494 55.4197L98.3612 51.3452C98.4031 51.3145 98.4629 51.3233 98.4935 51.3661C98.5247 51.4084 98.5149 51.4678 98.4726 51.4989L92.8618 55.5735C92.8428 55.5876 92.8205 55.5929 92.7986 55.5915Z" fill="#EEC5CF"/>
<path fill-rule="evenodd" clip-rule="evenodd" d="M94.8109 56.0721C94.7837 56.0702 94.7584 56.0565 94.7409 56.0332C94.7102 55.9909 94.7199 55.931 94.7618 55.9004L99.3865 52.5419C99.4288 52.5112 99.4882 52.52 99.5198 52.5628C99.5505 52.6056 99.5412 52.665 99.4984 52.6956L94.8741 56.0541C94.8552 56.0682 94.8328 56.0736 94.8109 56.0721Z" fill="#EEC5CF"/>
<path fill-rule="evenodd" clip-rule="evenodd" d="M120.273 48.3136L101.995 53.0169L100.196 55.4828L120.273 50.492L120.273 48.3136Z" fill="#DB307A"/>
<path fill-rule="evenodd" clip-rule="evenodd" d="M53.7271 48.3136L72.0047 53.0169L74.0981 55.5615L53.7271 50.4919L53.7271 48.3136Z" fill="#DB307A"/>
<path fill-rule="evenodd" clip-rule="evenodd" d="M89.6479 52.1428C89.0282 51.6432 88.2226 51.3124 87.3295 51.2468C86.3118 51.1718 85.3739 51.453 84.6719 51.9745C84.7989 52.1637 84.9123 52.3622 85.0115 52.5665C85.5977 52.1044 86.411 51.8475 87.2808 51.9113C88.0314 51.9662 88.8102 52.0971 89.3327 52.5237C89.3945 52.2795 89.4353 52.2503 89.6479 52.1428Z" fill="#DB307A"/>
</svg>
