<svg width="174" height="240" viewBox="0 0 174 240" fill="none" xmlns="http://www.w3.org/2000/svg">
<rect width="174" height="240" fill="none"/>
<path d="M86.9662 49.364C83.7693 49.364 83.3082 46.7327 76.7335 46.3603C70.1631 46.0637 68.0863 48.0138 68.0751 49.364C68.0857 50.6074 67.7481 53.8389 72.0107 57.624C76.2892 62.1169 80.6725 60.5934 82.2434 59.1258C83.8193 58.4475 85.6166 52.3613 86.9662 52.3676C88.3158 52.3739 90.113 58.4475 91.6889 59.1258C93.2598 60.5934 97.6431 62.1169 101.922 57.624C106.184 53.8389 105.847 50.6074 105.857 49.364C105.846 48.0138 103.769 46.0637 97.1989 46.3603C90.6241 46.7327 90.163 49.364 86.9662 49.364Z" fill="#EFEFEF"/>
<path fill-rule="evenodd" clip-rule="evenodd" d="M87.0338 50.0485C83.837 50.0485 83.3759 47.4173 76.8011 47.0449C70.2307 46.7483 68.1539 48.6983 68.1427 50.0485C68.1533 51.292 67.8158 54.5234 72.0783 58.3085C76.3569 62.8015 80.7401 61.2779 82.311 59.8103C83.887 59.1321 85.6842 53.0458 87.0338 53.0522C88.3834 53.0585 90.1806 59.1321 91.7566 59.8103C93.3275 61.2779 97.7107 62.8015 101.989 58.3085C106.252 54.5234 105.914 51.292 105.925 50.0485C105.914 48.6983 103.837 46.7483 97.2665 47.0449C90.6917 47.4173 90.2306 50.0485 87.0338 50.0485Z" fill="black" fill-opacity="0.16"/>
<path d="M86.9662 49.364C83.7693 49.364 83.3082 46.7327 76.7335 46.3603C70.1631 46.0637 68.0863 48.0138 68.0751 49.364C68.0857 50.6074 67.7481 53.8389 72.0107 57.624C76.2892 62.1169 80.6725 60.5934 82.2434 59.1258C83.8193 58.4475 85.6166 52.3613 86.9662 52.3676C88.3158 52.3739 90.113 58.4475 91.6889 59.1258C93.2598 60.5934 97.6431 62.1169 101.922 57.624C106.184 53.8389 105.847 50.6074 105.857 49.364C105.846 48.0138 103.769 46.0637 97.1989 46.3603C90.6241 46.7327 90.163 49.364 86.9662 49.364Z" fill="#EFEFEF"/>
<path d="M83.8176 52.3674C83.9279 50.1493 80.0773 47.7798 75.9463 47.8619C71.8174 47.9484 71.2799 50.5998 71.2235 51.6165C71.1225 53.9721 73.647 59.2672 78.3077 59.1256C82.9683 58.9782 83.7538 53.8309 83.8176 52.3674Z" fill="#111111"/>
<path d="M90.1145 52.3674C90.0042 50.1493 93.8548 47.7798 97.9858 47.8619C102.115 47.9484 102.652 50.5998 102.709 51.6165C102.81 53.9721 100.285 59.2672 95.6244 59.1256C90.9638 58.9782 90.1783 53.8309 90.1145 52.3674Z" fill="#111111"/>
</svg>
