<svg width="174" height="240" viewBox="0 0 174 240" fill="none" xmlns="http://www.w3.org/2000/svg">
<rect width="174" height="240" fill="none"/>
<path d="M139.168 38.6123C131.376 40.3725 124.01 41.7319 117.074 42.7617C114.809 37.4849 111.195 32.9246 106.664 29.5156L139.168 38.6123ZM67.4374 29.4863C63.1973 32.6691 59.7588 36.8603 57.4725 41.7021L36.6561 39.0303L35.0341 38.6621L34.7518 38.5781L37.4667 37.9199L43.5555 36.4463L67.4374 29.4863Z" fill="#ED8803"/>
<path d="M139.161 38.6123C132.815 37.2 125.583 36.2678 117.928 35.6929C110.475 35.1347 102.617 34.9114 94.7713 34.9114C92.2154 34.9114 89.6657 34.9338 87.1221 34.9785H87.0052C76.6773 34.7999 66.0914 34.9505 56.2181 35.6929C48.5566 36.2678 41.319 37.2 34.9661 38.6123C34.6344 38.6849 34.4807 38.2663 34.7879 38.1435C40.1209 36.0893 47.0395 32.4068 55.8314 30.4475L58.2506 27.1796L63.8303 21.2353L68.2908 11.8575C69.0158 9.2618 71.5902 7.45312 74.5332 7.45312H87.0606V10.9978L87.079 7.45312H99.6065C102.549 7.45312 105.124 9.26738 105.849 11.8575L109.861 20.2974L116.29 27.1796L120.989 30.949C129.302 33.4792 134.019 36.0893 139.352 38.1435C139.659 38.2663 139.499 38.6849 139.173 38.6123H139.161Z" fill="#FF9800"/>
<path d="M112.994 26.8951C112.177 26.8225 111.298 26.7442 110.34 26.6716C99.8276 25.8231 81.3035 24.8854 63.6889 26.7722C62.8103 26.8671 59.2264 26.9676 58.3539 27.0736L63.8302 21.2348C67.4674 20.537 72.8495 19.6997 79.5772 19.2475C83.5707 18.9796 88.0496 18.8401 92.9095 18.9518H92.9218C98.1503 19.0746 103.833 19.4707 109.861 20.2969L116.29 27.0736L112.994 26.8951Z" fill="#FFCC99"/>
<path d="M105.937 22.3276C106.369 21.978 105.621 20.2948 104.266 18.5683C102.91 16.8418 101.461 15.7255 101.028 16.0751C100.596 16.4247 101.344 18.1077 102.699 19.8343C104.055 21.5608 105.504 22.6772 105.937 22.3276Z" fill="white"/>
<path d="M111.393 29.2708C111.826 28.9212 111.078 27.2382 109.722 25.5117C108.367 23.7851 106.918 22.6688 106.485 23.0183C106.053 23.3679 106.801 25.0511 108.156 26.7776C109.512 28.5042 110.961 29.6204 111.393 29.2708Z" fill="white"/>
<path d="M103.424 26.1441C105.126 24.7687 106.226 23.2979 105.881 22.859C105.536 22.4201 103.878 23.1794 102.176 24.5547C100.475 25.93 99.3749 27.4006 99.7194 27.8395C100.064 28.2784 101.723 27.5194 103.424 26.1441Z" fill="white"/>
<path d="M110.421 20.8099C112.122 19.4345 113.222 17.9639 112.878 17.525C112.533 17.0861 110.874 17.8454 109.173 19.2207C107.472 20.5961 106.372 22.0666 106.716 22.5055C107.061 22.9444 108.719 22.1852 110.421 20.8099Z" fill="white"/>
<path d="M106.453 24.3982C107.452 24.3982 108.263 23.5759 108.263 22.5616C108.263 21.5474 107.452 20.7251 106.453 20.7251C105.453 20.7251 104.643 21.5474 104.643 22.5616C104.643 23.5759 105.453 24.3982 106.453 24.3982Z" fill="#FF9900"/>
</svg>
