<svg width="174" height="240" viewBox="0 0 174 240" fill="none" xmlns="http://www.w3.org/2000/svg">
<rect width="174" height="240" fill="none"/>
<path d="M96.8582 45.6368C100.129 45.6368 102.774 48.3189 102.774 51.6342C102.774 54.9495 100.129 57.6316 96.8582 57.6316C93.5879 57.6316 90.9423 54.9495 90.9423 51.6342C90.9423 48.3189 93.5879 45.6368 96.8582 45.6368Z" fill="white"/>
<path d="M96.8577 49.6332C99.0362 49.6332 100.805 51.4212 100.805 53.635C100.805 55.8434 99.0414 57.6368 96.8577 57.6368C94.6792 57.6368 92.9102 55.8488 92.9102 53.635C92.9102 51.4266 94.674 49.6332 96.8577 49.6332Z" fill="currentColor"/>
<path d="M77.1416 45.6368C80.4119 45.6368 83.0576 48.3189 83.0576 51.6342C83.0576 54.9495 80.4119 57.6316 77.1416 57.6316C73.8713 57.6316 71.2256 54.9495 71.2256 51.6342C71.2256 48.3189 73.8713 45.6368 77.1416 45.6368Z" fill="white"/>
<path d="M77.141 49.6332C79.3195 49.6332 81.0885 51.4212 81.0885 53.635C81.0885 55.8434 79.3247 57.6368 77.141 57.6368C74.9625 57.6368 73.1935 55.8488 73.1935 53.635C73.1935 51.4266 74.9573 49.6332 77.141 49.6332Z" fill="currentColor"/>
</svg>
