<svg width="174" height="240" viewBox="0 0 174 240" fill="none" xmlns="http://www.w3.org/2000/svg">
<rect width="174" height="240" fill="none"/>
<path d="M97.2782 57.6368C100.314 57.6368 102.775 55.8505 102.775 53.647C102.775 51.4435 100.314 49.6572 97.2782 49.6572C94.2423 49.6572 91.7813 51.4435 91.7813 53.647C91.7813 55.8505 94.2423 57.6368 97.2782 57.6368Z" fill="white"/>
<path d="M97.2782 51.8411C98.8256 51.8411 100.073 53.0941 100.073 54.6357C100.073 56.1831 98.8198 57.4303 97.2782 57.4303C95.7307 57.4303 94.4836 56.1774 94.4836 54.6357C94.4836 53.0883 95.7365 51.8411 97.2782 51.8411Z" fill="currentColor"/>
<path d="M76.7218 57.6368C79.7576 57.6368 82.2187 55.8505 82.2187 53.647C82.2187 51.4435 79.7576 49.6572 76.7218 49.6572C73.686 49.6572 71.225 51.4435 71.225 53.647C71.225 55.8505 73.686 57.6368 76.7218 57.6368Z" fill="white"/>
<path d="M76.7219 51.8643C78.252 51.8643 79.4934 53.1057 79.4934 54.6358C79.4934 56.1659 78.252 57.4073 76.7219 57.4073C75.1917 57.4073 73.9503 56.1659 73.9503 54.6358C73.9503 53.1057 75.1917 51.8643 76.7219 51.8643Z" fill="currentColor"/>
</svg>
