<svg width="174" height="240" viewBox="0 0 174 240" fill="none" xmlns="http://www.w3.org/2000/svg">
<rect width="174" height="240" fill="none"/>
<path d="M83.7263 53.4477C82.9757 55.8668 80.4602 57.6368 77.4782 57.6368C74.4961 57.6368 71.9756 55.8618 71.225 53.4477C71.9756 51.0286 74.4911 49.2535 77.4782 49.2535C80.4653 49.2535 82.9757 51.0286 83.7263 53.4477Z" fill="white"/>
<path d="M77.4731 51.2769C79.2279 51.2769 80.653 52.702 80.653 54.4567C80.653 56.2115 79.2279 57.6366 77.4731 57.6366C75.7184 57.6366 74.2933 56.2115 74.2933 54.4567C74.2933 52.702 75.7184 51.2769 77.4731 51.2769Z" fill="currentColor"/>
<path d="M102.775 53.4477C102.024 55.8668 99.5089 57.6368 96.5268 57.6368C93.5447 57.6368 91.0242 55.8618 90.2736 53.4477C91.0242 51.0286 93.5397 49.2535 96.5268 49.2535C99.5139 49.2535 102.024 51.0286 102.775 53.4477Z" fill="white"/>
<path d="M96.5269 51.2769C98.2816 51.2769 99.7067 52.702 99.7067 54.4567C99.7067 56.2115 98.2816 57.6366 96.5269 57.6366C94.7721 57.6366 93.347 56.2115 93.347 54.4567C93.347 52.702 94.7721 51.2769 96.5269 51.2769Z" fill="currentColor"/>
</svg>
