<svg width="174" height="240" viewBox="0 0 174 240" fill="none" xmlns="http://www.w3.org/2000/svg">
<rect width="174" height="240" fill="none"/>
<path d="M97.9429 47.9728C100.614 47.9728 102.775 50.1337 102.775 52.8048C102.775 55.4759 100.614 57.6368 97.9429 57.6368C95.2718 57.6368 93.1109 55.4759 93.1109 52.8048C93.1109 50.1337 95.2718 47.9728 97.9429 47.9728Z" fill="white"/>
<path d="M97.9429 51.6886C99.5842 51.6886 100.917 53.0175 100.917 54.6627C100.917 56.304 99.5881 57.6368 97.9429 57.6368C96.3016 57.6368 94.9688 56.308 94.9688 54.6627C94.9688 53.0214 96.2976 51.6886 97.9429 51.6886Z" fill="currentColor"/>
<path d="M76.057 47.8873C78.7281 47.8873 80.889 50.0482 80.889 52.7193C80.889 55.3905 78.7281 57.5514 76.057 57.5514C73.3859 57.5514 71.225 55.3905 71.225 52.7193C71.225 50.0482 73.3859 47.8873 76.057 47.8873Z" fill="white"/>
<path d="M76.057 51.6094C77.6983 51.6094 79.0311 52.9382 79.0311 54.5835C79.0311 56.2248 77.7022 57.5576 76.057 57.5576C74.4157 57.5576 73.0829 56.2288 73.0829 54.5835C73.0829 52.9422 74.4117 51.6094 76.057 51.6094Z" fill="currentColor"/>
</svg>
