<svg width="174" height="240" viewBox="0 0 174 240" fill="none" xmlns="http://www.w3.org/2000/svg">
<rect width="174" height="240" fill="none"/>
<path d="M77.5317 50.5419C74.5382 50.541 71.674 53.0702 71.225 54.7462C71.937 55.9795 74.3662 57.6369 77.5317 57.6369C81.1383 57.6369 83.1886 55.7007 83.4443 54.7462C83.1546 53.6647 81.4608 50.543 77.5317 50.5419Z" fill="white"/>
<path d="M96.4682 50.5419C99.4618 50.541 102.326 53.0702 102.775 54.7462C102.063 55.9795 99.6338 57.6369 96.4682 57.6369C92.8616 57.6369 90.8114 55.7007 90.5556 54.7462C90.8454 53.6647 92.5392 50.543 96.4682 50.5419Z" fill="white"/>
<path d="M96.6653 51.6648C98.3187 51.6648 99.6513 53.0035 99.6513 54.6508C99.6513 56.3042 98.3125 57.6368 96.6653 57.6368C95.0119 57.6368 93.6793 56.298 93.6793 54.6508C93.6793 52.9974 95.0181 51.6648 96.6653 51.6648Z" fill="currentColor"/>
<path d="M77.571 51.6897C79.2059 51.6897 80.5323 53.0161 80.5323 54.651C80.5323 56.2859 79.2059 57.6123 77.571 57.6123C75.9361 57.6123 74.6097 56.2859 74.6097 54.651C74.6097 53.0161 75.9361 51.6897 77.571 51.6897Z" fill="currentColor"/>
</svg>
