<svg width="174" height="240" viewBox="0 0 174 240" fill="none" xmlns="http://www.w3.org/2000/svg">
<rect width="174" height="240" fill="none"/>
<path d="M83.6512 54.6262C82.3725 56.8409 80.4986 57.4741 77.6201 57.4741C74.7417 57.4741 71.9943 54.178 71.2251 51.3074C73.4615 50.0162 75.4158 49.777 77.6201 49.777C80.5035 49.777 82.9267 52.2912 83.6512 54.6262Z" fill="white"/>
<path d="M90.349 54.6262C91.6277 56.8409 93.5016 57.4741 96.3801 57.4741C99.2585 57.4741 102.006 54.178 102.775 51.3074C100.539 50.0162 98.5843 49.777 96.3801 49.777C93.4967 49.777 91.0735 52.2912 90.349 54.6262Z" fill="white"/>
<path d="M78.0039 50.8138C79.8676 50.8138 81.3812 52.3274 81.3812 54.1912C81.3812 56.0549 79.8676 57.5685 78.0039 57.5685C76.1402 57.5685 74.6266 56.0549 74.6266 54.1912C74.6266 52.3274 76.1402 50.8138 78.0039 50.8138Z" fill="currentColor"/>
<path d="M96.0435 50.8138C94.2058 50.8138 92.7134 52.3063 92.7134 54.144C92.7134 55.9816 94.2058 57.4741 96.0435 57.4741C97.8812 57.4741 99.3736 55.9816 99.3736 54.144C99.3736 52.3063 97.8812 50.8138 96.0435 50.8138Z" fill="currentColor"/>
</svg>
