<svg width="174" height="240" viewBox="0 0 174 240" fill="none" xmlns="http://www.w3.org/2000/svg">
<rect width="174" height="240" fill="none"/>
<path d="M96.7668 57.5432C100.085 57.5432 102.775 56.2477 102.775 54.6497C102.775 53.0516 100.085 51.7561 96.7668 51.7561C93.4485 51.7561 90.7585 53.0516 90.7585 54.6497C90.7585 56.2477 93.4485 57.5432 96.7668 57.5432Z" fill="white"/>
<path d="M77.2334 57.5432C80.5517 57.5432 83.2417 56.2477 83.2417 54.6497C83.2417 53.0516 80.5517 51.7561 77.2334 51.7561C73.9151 51.7561 71.2251 53.0516 71.2251 54.6497C71.2251 56.2477 73.9151 57.5432 77.2334 57.5432Z" fill="white"/>
<path d="M75.2951 51.9353C76.358 51.7428 77.6984 51.6492 79.0832 51.8669C79.7998 52.4211 80.2628 53.2879 80.2628 54.2634C80.2626 55.9357 78.9058 57.2926 77.2336 57.2927C75.5612 57.2927 74.2045 55.9357 74.2043 54.2634C74.2043 53.3281 74.6284 52.4911 75.2951 51.9353Z" fill="currentColor"/>
<path d="M94.8537 51.9353C95.9166 51.7428 97.257 51.6492 98.6418 51.8669C99.3584 52.4211 99.8214 53.2879 99.8214 54.2634C99.8212 55.9357 98.4644 57.2926 96.7921 57.2927C95.1198 57.2927 93.7631 55.9357 93.7628 54.2634C93.7628 53.3281 94.187 52.4911 94.8537 51.9353Z" fill="currentColor"/>
</svg>
